<?xml version="1.0" encoding="UTF-8" standalone="no"?>
<!DOCTYPE svg PUBLIC "-//W3C//DTD SVG 1.1//EN"
 "http://www.w3.org/Graphics/SVG/1.1/DTD/svg11.dtd">
<!-- Generated by graphviz version 2.43.0 (0)
 -->
<!-- Title: sample Pages: 1 -->
<svg width="911pt" height="152pt"
 viewBox="0.00 0.00 910.63 152.00" xmlns="http://www.w3.org/2000/svg" xmlns:xlink="http://www.w3.org/1999/xlink">
<g id="graph0" class="graph" transform="scale(1 1) rotate(0) translate(4 148)">
<title>sample</title>
<polygon fill="white" stroke="transparent" points="-4,4 -4,-148 906.63,-148 906.63,4 -4,4"/>
<!-- pymedphys._mosaiq.helpers -->
<g id="node1" class="node">
<title>pymedphys._mosaiq.helpers</title>
<ellipse fill="none" stroke="black" cx="420.77" cy="-72" rx="141.88" ry="18"/>
<text text-anchor="middle" x="420.77" y="-68.3" font-family="Times,serif" font-size="14.00">pymedphys._mosaiq.helpers</text>
</g>
<!-- pymedphys._mosaiq.constants -->
<g id="node2" class="node">
<title>pymedphys._mosaiq.constants</title>
<ellipse fill="none" stroke="black" cx="750.54" cy="-126" rx="152.17" ry="18"/>
<text text-anchor="middle" x="750.54" y="-122.3" font-family="Times,serif" font-size="14.00">pymedphys._mosaiq.constants</text>
</g>
<!-- pymedphys._mosaiq.helpers&#45;&gt;pymedphys._mosaiq.constants -->
<g id="edge1" class="edge">
<title>pymedphys._mosaiq.helpers&#45;&gt;pymedphys._mosaiq.constants</title>
<path fill="none" stroke="black" d="M508.31,-86.26C552.22,-93.49 605.75,-102.31 651.21,-109.8"/>
<polygon fill="black" stroke="black" points="650.64,-113.25 661.08,-111.43 651.78,-106.35 650.64,-113.25"/>
</g>
<!-- pymedphys._mosaiq.connect -->
<g id="node3" class="node">
<title>pymedphys._mosaiq.connect</title>
<ellipse fill="none" stroke="black" cx="750.54" cy="-72" rx="143.77" ry="18"/>
<text text-anchor="middle" x="750.54" y="-68.3" font-family="Times,serif" font-size="14.00">pymedphys._mosaiq.connect</text>
</g>
<!-- pymedphys._mosaiq.helpers&#45;&gt;pymedphys._mosaiq.connect -->
<g id="edge2" class="edge">
<title>pymedphys._mosaiq.helpers&#45;&gt;pymedphys._mosaiq.connect</title>
<path fill="none" stroke="black" d="M562.67,-72C573.83,-72 585.14,-72 596.37,-72"/>
<polygon fill="black" stroke="black" points="596.67,-75.5 606.67,-72 596.67,-68.5 596.67,-75.5"/>
</g>
<!-- pymedphys._utilities.patient -->
<g id="node4" class="node">
<title>pymedphys._utilities.patient</title>
<ellipse fill="none" stroke="black" cx="750.54" cy="-18" rx="142.97" ry="18"/>
<text text-anchor="middle" x="750.54" y="-14.3" font-family="Times,serif" font-size="14.00">pymedphys._utilities.patient</text>
</g>
<!-- pymedphys._mosaiq.helpers&#45;&gt;pymedphys._utilities.patient -->
<g id="edge3" class="edge">
<title>pymedphys._mosaiq.helpers&#45;&gt;pymedphys._utilities.patient</title>
<path fill="none" stroke="black" d="M508.31,-57.74C552.84,-50.41 607.25,-41.44 653.12,-33.88"/>
<polygon fill="black" stroke="black" points="653.78,-37.32 663.08,-32.24 652.64,-30.42 653.78,-37.32"/>
</g>
<!-- pymedphys.mosaiq.qcls -->
<g id="node5" class="node">
<title>pymedphys.mosaiq.qcls</title>
<ellipse fill="none" stroke="black" cx="121.54" cy="-72" rx="121.58" ry="18"/>
<text text-anchor="middle" x="121.54" y="-68.3" font-family="Times,serif" font-size="14.00">pymedphys.mosaiq.qcls</text>
</g>
<!-- pymedphys.mosaiq.qcls&#45;&gt;pymedphys._mosaiq.helpers -->
<g id="edge4" class="edge">
<title>pymedphys.mosaiq.qcls&#45;&gt;pymedphys._mosaiq.helpers</title>
<path fill="none" stroke="black" d="M243.43,-72C251.87,-72 260.42,-72 268.99,-72"/>
<polygon fill="black" stroke="black" points="269.04,-75.5 279.04,-72 269.04,-68.5 269.04,-75.5"/>
</g>
</g>
</svg>
