<?xml version="1.0" encoding="UTF-8" standalone="no"?>
<!DOCTYPE svg PUBLIC "-//W3C//DTD SVG 1.1//EN"
 "http://www.w3.org/Graphics/SVG/1.1/DTD/svg11.dtd">
<!-- Generated by graphviz version 2.43.0 (0)
 -->
<!-- Title: sample Pages: 1 -->
<svg width="1552pt" height="206pt"
 viewBox="0.00 0.00 1551.98 206.00" xmlns="http://www.w3.org/2000/svg" xmlns:xlink="http://www.w3.org/1999/xlink">
<g id="graph0" class="graph" transform="scale(1 1) rotate(0) translate(4 202)">
<title>sample</title>
<polygon fill="white" stroke="transparent" points="-4,4 -4,-202 1547.98,-202 1547.98,4 -4,4"/>
<!-- pymedphys._data -->
<g id="node1" class="node">
<title>pymedphys._data</title>
<g id="a_node1"><a xlink:href="https://github.com/pymedphys/pymedphys/tree/main/lib/pymedphys/_data/__init__.py" xlink:title="pymedphys._data">
<ellipse fill="none" stroke="black" cx="437.01" cy="-99" rx="91.78" ry="18"/>
<text text-anchor="middle" x="437.01" y="-95.3" font-family="Times,serif" font-size="14.00">pymedphys._data</text>
</a>
</g>
</g>
<!-- pymedphys._data.download -->
<g id="node2" class="node">
<title>pymedphys._data.download</title>
<g id="a_node2"><a xlink:href="https://github.com/pymedphys/pymedphys/tree/main/lib/pymedphys/_data/download.py" xlink:title="pymedphys._data.download">
<ellipse fill="none" stroke="black" cx="703.74" cy="-99" rx="139.18" ry="18"/>
<text text-anchor="middle" x="703.74" y="-95.3" font-family="Times,serif" font-size="14.00">pymedphys._data.download</text>
</a>
</g>
</g>
<!-- pymedphys._data&#45;&gt;pymedphys._data.download -->
<g id="edge1" class="edge">
<title>pymedphys._data&#45;&gt;pymedphys._data.download</title>
<path fill="none" stroke="black" d="M528.75,-99C537.03,-99 545.56,-99 554.18,-99"/>
<polygon fill="black" stroke="black" points="554.33,-102.5 564.33,-99 554.33,-95.5 554.33,-102.5"/>
</g>
<!-- pymedphys._data.retry -->
<g id="node3" class="node">
<title>pymedphys._data.retry</title>
<g id="a_node3"><a xlink:href="https://github.com/pymedphys/pymedphys/tree/main/lib/pymedphys/_data/retry.py" xlink:title="pymedphys._data.retry">
<ellipse fill="none" stroke="black" cx="1024.42" cy="-180" rx="118.08" ry="18"/>
<text text-anchor="middle" x="1024.42" y="-176.3" font-family="Times,serif" font-size="14.00">pymedphys._data.retry</text>
</a>
</g>
</g>
<!-- pymedphys._data.download&#45;&gt;pymedphys._data.retry -->
<g id="edge2" class="edge">
<title>pymedphys._data.download&#45;&gt;pymedphys._data.retry</title>
<path fill="none" stroke="black" d="M753.84,-115.9C788.48,-127.42 836.14,-142.43 878.83,-153 896.4,-157.35 915.32,-161.36 933.5,-164.89"/>
<polygon fill="black" stroke="black" points="933.04,-168.36 943.51,-166.79 934.35,-161.48 933.04,-168.36"/>
</g>
<!-- pymedphys._data.zenodo -->
<g id="node4" class="node">
<title>pymedphys._data.zenodo</title>
<g id="a_node4"><a xlink:href="https://github.com/pymedphys/pymedphys/tree/main/lib/pymedphys/_data/zenodo.py" xlink:title="pymedphys._data.zenodo">
<ellipse fill="none" stroke="black" cx="1024.42" cy="-126" rx="127.28" ry="18"/>
<text text-anchor="middle" x="1024.42" y="-122.3" font-family="Times,serif" font-size="14.00">pymedphys._data.zenodo</text>
</a>
</g>
</g>
<!-- pymedphys._data.download&#45;&gt;pymedphys._data.zenodo -->
<g id="edge3" class="edge">
<title>pymedphys._data.download&#45;&gt;pymedphys._data.zenodo</title>
<path fill="none" stroke="black" d="M820.69,-108.82C848.04,-111.14 877.22,-113.61 904.68,-115.94"/>
<polygon fill="black" stroke="black" points="904.46,-119.43 914.72,-116.79 905.05,-112.46 904.46,-119.43"/>
</g>
<!-- pymedphys._utilities.filehash -->
<g id="node5" class="node">
<title>pymedphys._utilities.filehash</title>
<g id="a_node5"><a xlink:href="https://github.com/pymedphys/pymedphys/tree/main/lib/pymedphys/_utilities/filehash/__init__.py" xlink:title="pymedphys._utilities.filehash">
<ellipse fill="none" stroke="black" cx="1024.42" cy="-72" rx="145.67" ry="18"/>
<text text-anchor="middle" x="1024.42" y="-68.3" font-family="Times,serif" font-size="14.00">pymedphys._utilities.filehash</text>
</a>
</g>
</g>
<!-- pymedphys._data.download&#45;&gt;pymedphys._utilities.filehash -->
<g id="edge4" class="edge">
<title>pymedphys._data.download&#45;&gt;pymedphys._utilities.filehash</title>
<path fill="none" stroke="black" d="M820.69,-89.18C844.36,-87.17 869.42,-85.05 893.53,-83"/>
<polygon fill="black" stroke="black" points="894.14,-86.47 903.81,-82.13 893.55,-79.49 894.14,-86.47"/>
</g>
<!-- pymedphys._config -->
<g id="node6" class="node">
<title>pymedphys._config</title>
<g id="a_node6"><a xlink:href="https://github.com/pymedphys/pymedphys/tree/main/lib/pymedphys/_config.py" xlink:title="pymedphys._config">
<ellipse fill="none" stroke="black" cx="1024.42" cy="-18" rx="98.58" ry="18"/>
<text text-anchor="middle" x="1024.42" y="-14.3" font-family="Times,serif" font-size="14.00">pymedphys._config</text>
</a>
</g>
</g>
<!-- pymedphys._data.download&#45;&gt;pymedphys._config -->
<g id="edge5" class="edge">
<title>pymedphys._data.download&#45;&gt;pymedphys._config</title>
<path fill="none" stroke="black" d="M753.84,-82.1C788.48,-70.58 836.14,-55.57 878.83,-45 898.55,-40.12 919.98,-35.66 940.15,-31.84"/>
<polygon fill="black" stroke="black" points="941.06,-35.23 950.25,-29.96 939.78,-28.35 941.06,-35.23"/>
</g>
<!-- pymedphys._utilities.filehash.core -->
<g id="node7" class="node">
<title>pymedphys._utilities.filehash.core</title>
<g id="a_node7"><a xlink:href="https://github.com/pymedphys/pymedphys/tree/main/lib/pymedphys/_utilities/filehash/core.py" xlink:title="pymedphys._utilities.filehash.core">
<ellipse fill="none" stroke="black" cx="1374.99" cy="-72" rx="168.97" ry="18"/>
<text text-anchor="middle" x="1374.99" y="-68.3" font-family="Times,serif" font-size="14.00">pymedphys._utilities.filehash.core</text>
</a>
</g>
</g>
<!-- pymedphys._utilities.filehash&#45;&gt;pymedphys._utilities.filehash.core -->
<g id="edge6" class="edge">
<title>pymedphys._utilities.filehash&#45;&gt;pymedphys._utilities.filehash.core</title>
<path fill="none" stroke="black" d="M1170.22,-72C1178.69,-72 1187.25,-72 1195.83,-72"/>
<polygon fill="black" stroke="black" points="1195.9,-75.5 1205.9,-72 1195.9,-68.5 1195.9,-75.5"/>
</g>
<!-- pymedphys.zip_data_paths -->
<g id="node8" class="node">
<title>pymedphys.zip_data_paths</title>
<g id="a_node8"><a xlink:href="https://github.com/pymedphys/pymedphys/tree/main/lib/pymedphys/_data/__init__.py" xlink:title="pymedphys.zip_data_paths">
<ellipse fill="none" stroke="black" cx="154.69" cy="-153" rx="135.68" ry="18"/>
<text text-anchor="middle" x="154.69" y="-149.3" font-family="Times,serif" font-size="14.00">pymedphys.zip_data_paths</text>
</a>
</g>
</g>
<!-- pymedphys.zip_data_paths&#45;&gt;pymedphys._data -->
<g id="edge7" class="edge">
<title>pymedphys.zip_data_paths&#45;&gt;pymedphys._data</title>
<path fill="none" stroke="black" d="M239.54,-138.83C262.23,-134.85 286.77,-130.39 309.37,-126 327.62,-122.45 347.29,-118.38 365.56,-114.49"/>
<polygon fill="black" stroke="black" points="366.51,-117.87 375.55,-112.36 365.04,-111.02 366.51,-117.87"/>
</g>
<!-- pymedphys.zenodo_data_paths -->
<g id="node9" class="node">
<title>pymedphys.zenodo_data_paths</title>
<g id="a_node9"><a xlink:href="https://github.com/pymedphys/pymedphys/tree/main/lib/pymedphys/_data/__init__.py" xlink:title="pymedphys.zenodo_data_paths">
<ellipse fill="none" stroke="black" cx="154.69" cy="-99" rx="154.87" ry="18"/>
<text text-anchor="middle" x="154.69" y="-95.3" font-family="Times,serif" font-size="14.00">pymedphys.zenodo_data_paths</text>
</a>
</g>
</g>
<!-- pymedphys.zenodo_data_paths&#45;&gt;pymedphys._data -->
<g id="edge8" class="edge">
<title>pymedphys.zenodo_data_paths&#45;&gt;pymedphys._data</title>
<path fill="none" stroke="black" d="M309.38,-99C318.09,-99 326.72,-99 335.15,-99"/>
<polygon fill="black" stroke="black" points="335.31,-102.5 345.31,-99 335.31,-95.5 335.31,-102.5"/>
</g>
<!-- pymedphys.data_path -->
<g id="node10" class="node">
<title>pymedphys.data_path</title>
<g id="a_node10"><a xlink:href="https://github.com/pymedphys/pymedphys/tree/main/lib/pymedphys/_data/__init__.py" xlink:title="pymedphys.data_path">
<ellipse fill="none" stroke="black" cx="154.69" cy="-45" rx="112.38" ry="18"/>
<text text-anchor="middle" x="154.69" y="-41.3" font-family="Times,serif" font-size="14.00">pymedphys.data_path</text>
</a>
</g>
</g>
<!-- pymedphys.data_path&#45;&gt;pymedphys._data -->
<g id="edge9" class="edge">
<title>pymedphys.data_path&#45;&gt;pymedphys._data</title>
<path fill="none" stroke="black" d="M232.79,-57.98C257.31,-62.26 284.51,-67.17 309.37,-72 327.62,-75.55 347.29,-79.62 365.56,-83.51"/>
<polygon fill="black" stroke="black" points="365.04,-86.98 375.55,-85.64 366.51,-80.13 365.04,-86.98"/>
</g>
</g>
</svg>
