<?xml version="1.0" encoding="UTF-8" standalone="no"?>
<!DOCTYPE svg PUBLIC "-//W3C//DTD SVG 1.1//EN"
 "http://www.w3.org/Graphics/SVG/1.1/DTD/svg11.dtd">
<!-- Generated by graphviz version 2.43.0 (0)
 -->
<!-- Title: sample Pages: 1 -->
<svg width="1599pt" height="152pt"
 viewBox="0.00 0.00 1599.17 152.00" xmlns="http://www.w3.org/2000/svg" xmlns:xlink="http://www.w3.org/1999/xlink">
<g id="graph0" class="graph" transform="scale(1 1) rotate(0) translate(4 148)">
<title>sample</title>
<polygon fill="white" stroke="transparent" points="-4,4 -4,-148 1595.17,-148 1595.17,4 -4,4"/>
<!-- pymedphys._metersetmap.metersetmap -->
<g id="node1" class="node">
<title>pymedphys._metersetmap.metersetmap</title>
<ellipse fill="none" stroke="black" cx="580" cy="-72" rx="198.47" ry="18"/>
<text text-anchor="middle" x="580" y="-68.3" font-family="Times,serif" font-size="14.00">pymedphys._metersetmap.metersetmap</text>
</g>
<!-- pymedphys._utilities.constants -->
<g id="node2" class="node">
<title>pymedphys._utilities.constants</title>
<ellipse fill="none" stroke="black" cx="985.17" cy="-126" rx="154.87" ry="18"/>
<text text-anchor="middle" x="985.17" y="-122.3" font-family="Times,serif" font-size="14.00">pymedphys._utilities.constants</text>
</g>
<!-- pymedphys._metersetmap.metersetmap&#45;&gt;pymedphys._utilities.constants -->
<g id="edge1" class="edge">
<title>pymedphys._metersetmap.metersetmap&#45;&gt;pymedphys._utilities.constants</title>
<path fill="none" stroke="black" d="M691.97,-86.86C748.26,-94.4 816.46,-103.54 872.81,-111.08"/>
<polygon fill="black" stroke="black" points="872.45,-114.57 882.82,-112.43 873.38,-107.63 872.45,-114.57"/>
</g>
<!-- pymedphys._metersetmap.plt -->
<g id="node3" class="node">
<title>pymedphys._metersetmap.plt</title>
<ellipse fill="none" stroke="black" cx="985.17" cy="-72" rx="148.67" ry="18"/>
<text text-anchor="middle" x="985.17" y="-68.3" font-family="Times,serif" font-size="14.00">pymedphys._metersetmap.plt</text>
</g>
<!-- pymedphys._metersetmap.metersetmap&#45;&gt;pymedphys._metersetmap.plt -->
<g id="edge2" class="edge">
<title>pymedphys._metersetmap.metersetmap&#45;&gt;pymedphys._metersetmap.plt</title>
<path fill="none" stroke="black" d="M778.45,-72C794.41,-72 810.4,-72 826.03,-72"/>
<polygon fill="black" stroke="black" points="826.24,-75.5 836.24,-72 826.24,-68.5 826.24,-75.5"/>
</g>
<!-- pymedphys._utilities.controlpoints -->
<g id="node4" class="node">
<title>pymedphys._utilities.controlpoints</title>
<ellipse fill="none" stroke="black" cx="985.17" cy="-18" rx="170.87" ry="18"/>
<text text-anchor="middle" x="985.17" y="-14.3" font-family="Times,serif" font-size="14.00">pymedphys._utilities.controlpoints</text>
</g>
<!-- pymedphys._metersetmap.metersetmap&#45;&gt;pymedphys._utilities.controlpoints -->
<g id="edge3" class="edge">
<title>pymedphys._metersetmap.metersetmap&#45;&gt;pymedphys._utilities.controlpoints</title>
<path fill="none" stroke="black" d="M691.97,-57.14C746.83,-49.79 812.99,-40.93 868.48,-33.5"/>
<polygon fill="black" stroke="black" points="869.26,-36.92 878.71,-32.12 868.34,-29.98 869.26,-36.92"/>
</g>
<!-- pymedphys._utilities.constants.mlctypes -->
<g id="node5" class="node">
<title>pymedphys._utilities.constants.mlctypes</title>
<ellipse fill="none" stroke="black" cx="1391.64" cy="-126" rx="199.56" ry="18"/>
<text text-anchor="middle" x="1391.64" y="-122.3" font-family="Times,serif" font-size="14.00">pymedphys._utilities.constants.mlctypes</text>
</g>
<!-- pymedphys._utilities.constants&#45;&gt;pymedphys._utilities.constants.mlctypes -->
<g id="edge4" class="edge">
<title>pymedphys._utilities.constants&#45;&gt;pymedphys._utilities.constants.mlctypes</title>
<path fill="none" stroke="black" d="M1139.95,-126C1153.61,-126 1167.58,-126 1181.6,-126"/>
<polygon fill="black" stroke="black" points="1181.81,-129.5 1191.81,-126 1181.81,-122.5 1181.81,-129.5"/>
</g>
<!-- pymedphys._metersetmap.plt.helpers -->
<g id="node6" class="node">
<title>pymedphys._metersetmap.plt.helpers</title>
<ellipse fill="none" stroke="black" cx="1391.64" cy="-72" rx="186.57" ry="18"/>
<text text-anchor="middle" x="1391.64" y="-68.3" font-family="Times,serif" font-size="14.00">pymedphys._metersetmap.plt.helpers</text>
</g>
<!-- pymedphys._metersetmap.plt&#45;&gt;pymedphys._metersetmap.plt.helpers -->
<g id="edge5" class="edge">
<title>pymedphys._metersetmap.plt&#45;&gt;pymedphys._metersetmap.plt.helpers</title>
<path fill="none" stroke="black" d="M1134.19,-72C1153.97,-72 1174.48,-72 1194.91,-72"/>
<polygon fill="black" stroke="black" points="1194.93,-75.5 1204.93,-72 1194.93,-68.5 1194.93,-75.5"/>
</g>
<!-- pymedphys.metersetmap.display -->
<g id="node7" class="node">
<title>pymedphys.metersetmap.display</title>
<ellipse fill="none" stroke="black" cx="172.88" cy="-126" rx="165.17" ry="18"/>
<text text-anchor="middle" x="172.88" y="-122.3" font-family="Times,serif" font-size="14.00">pymedphys.metersetmap.display</text>
</g>
<!-- pymedphys.metersetmap.display&#45;&gt;pymedphys._metersetmap.metersetmap -->
<g id="edge6" class="edge">
<title>pymedphys.metersetmap.display&#45;&gt;pymedphys._metersetmap.metersetmap</title>
<path fill="none" stroke="black" d="M278.21,-112.09C332.95,-104.8 400.31,-95.82 457.41,-88.21"/>
<polygon fill="black" stroke="black" points="458.13,-91.64 467.58,-86.85 457.2,-84.7 458.13,-91.64"/>
</g>
<!-- pymedphys.metersetmap.calculate -->
<g id="node8" class="node">
<title>pymedphys.metersetmap.calculate</title>
<ellipse fill="none" stroke="black" cx="172.88" cy="-72" rx="172.77" ry="18"/>
<text text-anchor="middle" x="172.88" y="-68.3" font-family="Times,serif" font-size="14.00">pymedphys.metersetmap.calculate</text>
</g>
<!-- pymedphys.metersetmap.calculate&#45;&gt;pymedphys._metersetmap.metersetmap -->
<g id="edge7" class="edge">
<title>pymedphys.metersetmap.calculate&#45;&gt;pymedphys._metersetmap.metersetmap</title>
<path fill="none" stroke="black" d="M345.98,-72C354.43,-72 362.94,-72 371.47,-72"/>
<polygon fill="black" stroke="black" points="371.48,-75.5 381.48,-72 371.48,-68.5 371.48,-75.5"/>
</g>
<!-- pymedphys.metersetmap.grid -->
<g id="node9" class="node">
<title>pymedphys.metersetmap.grid</title>
<ellipse fill="none" stroke="black" cx="172.88" cy="-18" rx="150.57" ry="18"/>
<text text-anchor="middle" x="172.88" y="-14.3" font-family="Times,serif" font-size="14.00">pymedphys.metersetmap.grid</text>
</g>
<!-- pymedphys.metersetmap.grid&#45;&gt;pymedphys._metersetmap.metersetmap -->
<g id="edge8" class="edge">
<title>pymedphys.metersetmap.grid&#45;&gt;pymedphys._metersetmap.metersetmap</title>
<path fill="none" stroke="black" d="M274.29,-31.38C329.77,-38.78 399.12,-48.02 457.63,-55.82"/>
<polygon fill="black" stroke="black" points="457.3,-59.31 467.67,-57.16 458.22,-52.37 457.3,-59.31"/>
</g>
</g>
</svg>
