<?xml version="1.0" encoding="UTF-8" standalone="no"?>
<!DOCTYPE svg PUBLIC "-//W3C//DTD SVG 1.1//EN"
 "http://www.w3.org/Graphics/SVG/1.1/DTD/svg11.dtd">
<!-- Generated by graphviz version 2.43.0 (0)
 -->
<!-- Title: sample Pages: 1 -->
<svg width="2495pt" height="584pt"
 viewBox="0.00 0.00 2494.90 584.00" xmlns="http://www.w3.org/2000/svg" xmlns:xlink="http://www.w3.org/1999/xlink">
<g id="graph0" class="graph" transform="scale(1 1) rotate(0) translate(4 580)">
<title>sample</title>
<polygon fill="white" stroke="transparent" points="-4,4 -4,-580 2490.9,-580 2490.9,4 -4,4"/>
<!-- pymedphys._delivery -->
<g id="node1" class="node">
<title>pymedphys._delivery</title>
<ellipse fill="none" stroke="black" cx="356.42" cy="-288" rx="108.58" ry="18"/>
<text text-anchor="middle" x="356.42" y="-284.3" font-family="Times,serif" font-size="14.00">pymedphys._delivery</text>
</g>
<!-- pymedphys._base.delivery -->
<g id="node2" class="node">
<title>pymedphys._base.delivery</title>
<ellipse fill="none" stroke="black" cx="674.5" cy="-537" rx="133.48" ry="18"/>
<text text-anchor="middle" x="674.5" y="-533.3" font-family="Times,serif" font-size="14.00">pymedphys._base.delivery</text>
</g>
<!-- pymedphys._delivery&#45;&gt;pymedphys._base.delivery -->
<g id="edge1" class="edge">
<title>pymedphys._delivery&#45;&gt;pymedphys._base.delivery</title>
<path fill="none" stroke="black" d="M365.03,-306C382.73,-345.64 430.59,-440.87 500.96,-490 521.75,-504.51 546.83,-514.55 571.35,-521.49"/>
<polygon fill="black" stroke="black" points="570.51,-524.89 581.07,-524.09 572.32,-518.12 570.51,-524.89"/>
</g>
<!-- pymedphys._icom.delivery -->
<g id="node3" class="node">
<title>pymedphys._icom.delivery</title>
<ellipse fill="none" stroke="black" cx="674.5" cy="-463" rx="133.78" ry="18"/>
<text text-anchor="middle" x="674.5" y="-459.3" font-family="Times,serif" font-size="14.00">pymedphys._icom.delivery</text>
</g>
<!-- pymedphys._delivery&#45;&gt;pymedphys._icom.delivery -->
<g id="edge2" class="edge">
<title>pymedphys._delivery&#45;&gt;pymedphys._icom.delivery</title>
<path fill="none" stroke="black" d="M377.57,-306.02C404.27,-329.21 453.54,-369.62 500.96,-396 535.59,-415.27 576.9,-431.52 610.41,-443.19"/>
<polygon fill="black" stroke="black" points="609.5,-446.58 620.09,-446.51 611.77,-439.96 609.5,-446.58"/>
</g>
<!-- pymedphys._mosaiq.delivery -->
<g id="node4" class="node">
<title>pymedphys._mosaiq.delivery</title>
<ellipse fill="none" stroke="black" cx="674.5" cy="-369" rx="144.87" ry="18"/>
<text text-anchor="middle" x="674.5" y="-365.3" font-family="Times,serif" font-size="14.00">pymedphys._mosaiq.delivery</text>
</g>
<!-- pymedphys._delivery&#45;&gt;pymedphys._mosaiq.delivery -->
<g id="edge3" class="edge">
<title>pymedphys._delivery&#45;&gt;pymedphys._mosaiq.delivery</title>
<path fill="none" stroke="black" d="M416.13,-303.05C468.17,-316.38 544.38,-335.91 600.36,-350.26"/>
<polygon fill="black" stroke="black" points="599.67,-353.69 610.22,-352.78 601.4,-346.91 599.67,-353.69"/>
</g>
<!-- pymedphys._metersetmap.delivery -->
<g id="node5" class="node">
<title>pymedphys._metersetmap.delivery</title>
<ellipse fill="none" stroke="black" cx="674.5" cy="-288" rx="173.57" ry="18"/>
<text text-anchor="middle" x="674.5" y="-284.3" font-family="Times,serif" font-size="14.00">pymedphys._metersetmap.delivery</text>
</g>
<!-- pymedphys._delivery&#45;&gt;pymedphys._metersetmap.delivery -->
<g id="edge4" class="edge">
<title>pymedphys._delivery&#45;&gt;pymedphys._metersetmap.delivery</title>
<path fill="none" stroke="black" d="M465.31,-288C473.6,-288 482.1,-288 490.7,-288"/>
<polygon fill="black" stroke="black" points="490.83,-291.5 500.83,-288 490.83,-284.5 490.83,-291.5"/>
</g>
<!-- pymedphys._monaco.delivery -->
<g id="node6" class="node">
<title>pymedphys._monaco.delivery</title>
<ellipse fill="none" stroke="black" cx="674.5" cy="-234" rx="147.57" ry="18"/>
<text text-anchor="middle" x="674.5" y="-230.3" font-family="Times,serif" font-size="14.00">pymedphys._monaco.delivery</text>
</g>
<!-- pymedphys._delivery&#45;&gt;pymedphys._monaco.delivery -->
<g id="edge5" class="edge">
<title>pymedphys._delivery&#45;&gt;pymedphys._monaco.delivery</title>
<path fill="none" stroke="black" d="M427.43,-274.39C450.79,-269.96 476.97,-265.13 500.96,-261 523.48,-257.12 547.68,-253.19 570.64,-249.57"/>
<polygon fill="black" stroke="black" points="571.4,-252.99 580.74,-247.98 570.31,-246.07 571.4,-252.99"/>
</g>
<!-- pymedphys._dicom.delivery -->
<g id="node7" class="node">
<title>pymedphys._dicom.delivery</title>
<ellipse fill="none" stroke="black" cx="674.5" cy="-180" rx="139.98" ry="18"/>
<text text-anchor="middle" x="674.5" y="-176.3" font-family="Times,serif" font-size="14.00">pymedphys._dicom.delivery</text>
</g>
<!-- pymedphys._delivery&#45;&gt;pymedphys._dicom.delivery -->
<g id="edge6" class="edge">
<title>pymedphys._delivery&#45;&gt;pymedphys._dicom.delivery</title>
<path fill="none" stroke="black" d="M382.03,-270.45C409.63,-251.67 456.37,-222.5 500.96,-207 517.76,-201.16 535.91,-196.58 553.92,-192.99"/>
<polygon fill="black" stroke="black" points="554.73,-196.4 563.9,-191.1 553.42,-189.52 554.73,-196.4"/>
</g>
<!-- pymedphys._trf.decode.delivery -->
<g id="node8" class="node">
<title>pymedphys._trf.decode.delivery</title>
<ellipse fill="none" stroke="black" cx="674.5" cy="-99" rx="158.67" ry="18"/>
<text text-anchor="middle" x="674.5" y="-95.3" font-family="Times,serif" font-size="14.00">pymedphys._trf.decode.delivery</text>
</g>
<!-- pymedphys._delivery&#45;&gt;pymedphys._trf.decode.delivery -->
<g id="edge7" class="edge">
<title>pymedphys._delivery&#45;&gt;pymedphys._trf.decode.delivery</title>
<path fill="none" stroke="black" d="M371.81,-269.98C395.69,-241.22 446.33,-184.94 500.96,-153 527.62,-137.42 559.27,-125.83 588.13,-117.48"/>
<polygon fill="black" stroke="black" points="589.12,-120.84 597.81,-114.77 587.23,-114.1 589.12,-120.84"/>
</g>
<!-- pymedphys._utilities.controlpoints -->
<g id="node9" class="node">
<title>pymedphys._utilities.controlpoints</title>
<ellipse fill="none" stroke="black" cx="1079.01" cy="-558" rx="170.87" ry="18"/>
<text text-anchor="middle" x="1079.01" y="-554.3" font-family="Times,serif" font-size="14.00">pymedphys._utilities.controlpoints</text>
</g>
<!-- pymedphys._base.delivery&#45;&gt;pymedphys._utilities.controlpoints -->
<g id="edge8" class="edge">
<title>pymedphys._base.delivery&#45;&gt;pymedphys._utilities.controlpoints</title>
<path fill="none" stroke="black" d="M799,-543.44C835.7,-545.36 876.48,-547.49 915.27,-549.51"/>
<polygon fill="black" stroke="black" points="915.45,-553.02 925.62,-550.05 915.81,-546.03 915.45,-553.02"/>
</g>
<!-- pymedphys._icom.extract -->
<g id="node10" class="node">
<title>pymedphys._icom.extract</title>
<ellipse fill="none" stroke="black" cx="1079.01" cy="-504" rx="129.18" ry="18"/>
<text text-anchor="middle" x="1079.01" y="-500.3" font-family="Times,serif" font-size="14.00">pymedphys._icom.extract</text>
</g>
<!-- pymedphys._icom.delivery&#45;&gt;pymedphys._icom.extract -->
<g id="edge9" class="edge">
<title>pymedphys._icom.delivery&#45;&gt;pymedphys._icom.extract</title>
<path fill="none" stroke="black" d="M781.78,-473.83C837.92,-479.54 906.85,-486.57 964.09,-492.4"/>
<polygon fill="black" stroke="black" points="963.97,-495.9 974.27,-493.43 964.68,-488.94 963.97,-495.9"/>
</g>
<!-- pymedphys._utilities.transforms -->
<g id="node11" class="node">
<title>pymedphys._utilities.transforms</title>
<ellipse fill="none" stroke="black" cx="1079.01" cy="-450" rx="161.37" ry="18"/>
<text text-anchor="middle" x="1079.01" y="-446.3" font-family="Times,serif" font-size="14.00">pymedphys._utilities.transforms</text>
</g>
<!-- pymedphys._mosaiq.delivery&#45;&gt;pymedphys._utilities.transforms -->
<g id="edge10" class="edge">
<title>pymedphys._mosaiq.delivery&#45;&gt;pymedphys._utilities.transforms</title>
<path fill="none" stroke="black" d="M732.18,-385.56C773.89,-397.29 832.12,-412.7 884.03,-423 907.78,-427.71 933.31,-431.89 957.81,-435.47"/>
<polygon fill="black" stroke="black" points="957.48,-438.95 967.88,-436.91 958.47,-432.03 957.48,-438.95"/>
</g>
<!-- pymedphys._mosaiq.constants -->
<g id="node12" class="node">
<title>pymedphys._mosaiq.constants</title>
<ellipse fill="none" stroke="black" cx="1079.01" cy="-396" rx="152.17" ry="18"/>
<text text-anchor="middle" x="1079.01" y="-392.3" font-family="Times,serif" font-size="14.00">pymedphys._mosaiq.constants</text>
</g>
<!-- pymedphys._mosaiq.delivery&#45;&gt;pymedphys._mosaiq.constants -->
<g id="edge11" class="edge">
<title>pymedphys._mosaiq.delivery&#45;&gt;pymedphys._mosaiq.constants</title>
<path fill="none" stroke="black" d="M802.3,-377.51C844.85,-380.36 892.56,-383.56 936.18,-386.49"/>
<polygon fill="black" stroke="black" points="936.08,-389.99 946.29,-387.16 936.55,-383 936.08,-389.99"/>
</g>
<!-- pymedphys._mosaiq.connect -->
<g id="node13" class="node">
<title>pymedphys._mosaiq.connect</title>
<ellipse fill="none" stroke="black" cx="1079.01" cy="-342" rx="143.77" ry="18"/>
<text text-anchor="middle" x="1079.01" y="-338.3" font-family="Times,serif" font-size="14.00">pymedphys._mosaiq.connect</text>
</g>
<!-- pymedphys._mosaiq.delivery&#45;&gt;pymedphys._mosaiq.connect -->
<g id="edge12" class="edge">
<title>pymedphys._mosaiq.delivery&#45;&gt;pymedphys._mosaiq.connect</title>
<path fill="none" stroke="black" d="M802.3,-360.49C846.65,-357.52 896.61,-354.17 941.7,-351.14"/>
<polygon fill="black" stroke="black" points="942.1,-354.62 951.84,-350.46 941.63,-347.64 942.1,-354.62"/>
</g>
<!-- pymedphys._metersetmap.delivery.core -->
<g id="node14" class="node">
<title>pymedphys._metersetmap.delivery.core</title>
<ellipse fill="none" stroke="black" cx="1079.01" cy="-288" rx="194.97" ry="18"/>
<text text-anchor="middle" x="1079.01" y="-284.3" font-family="Times,serif" font-size="14.00">pymedphys._metersetmap.delivery.core</text>
</g>
<!-- pymedphys._metersetmap.delivery&#45;&gt;pymedphys._metersetmap.delivery.core -->
<g id="edge13" class="edge">
<title>pymedphys._metersetmap.delivery&#45;&gt;pymedphys._metersetmap.delivery.core</title>
<path fill="none" stroke="black" d="M848.24,-288C856.75,-288 865.32,-288 873.91,-288"/>
<polygon fill="black" stroke="black" points="873.98,-291.5 883.98,-288 873.98,-284.5 873.98,-291.5"/>
</g>
<!-- pymedphys._monaco.utility -->
<g id="node15" class="node">
<title>pymedphys._monaco.utility</title>
<ellipse fill="none" stroke="black" cx="1079.01" cy="-234" rx="137.58" ry="18"/>
<text text-anchor="middle" x="1079.01" y="-230.3" font-family="Times,serif" font-size="14.00">pymedphys._monaco.utility</text>
</g>
<!-- pymedphys._monaco.delivery&#45;&gt;pymedphys._monaco.utility -->
<g id="edge14" class="edge">
<title>pymedphys._monaco.delivery&#45;&gt;pymedphys._monaco.utility</title>
<path fill="none" stroke="black" d="M822.24,-234C857.51,-234 895.21,-234 930.52,-234"/>
<polygon fill="black" stroke="black" points="930.9,-237.5 940.9,-234 930.9,-230.5 930.9,-237.5"/>
</g>
<!-- pymedphys._dicom.delivery.core -->
<g id="node16" class="node">
<title>pymedphys._dicom.delivery.core</title>
<ellipse fill="none" stroke="black" cx="1079.01" cy="-180" rx="161.37" ry="18"/>
<text text-anchor="middle" x="1079.01" y="-176.3" font-family="Times,serif" font-size="14.00">pymedphys._dicom.delivery.core</text>
</g>
<!-- pymedphys._dicom.delivery&#45;&gt;pymedphys._dicom.delivery.core -->
<g id="edge15" class="edge">
<title>pymedphys._dicom.delivery&#45;&gt;pymedphys._dicom.delivery.core</title>
<path fill="none" stroke="black" d="M814.3,-180C844.35,-180 876.47,-180 907.57,-180"/>
<polygon fill="black" stroke="black" points="907.63,-183.5 917.63,-180 907.63,-176.5 907.63,-183.5"/>
</g>
<!-- pymedphys._trf.decode.trf2pandas -->
<g id="node17" class="node">
<title>pymedphys._trf.decode.trf2pandas</title>
<ellipse fill="none" stroke="black" cx="1079.01" cy="-99" rx="171.67" ry="18"/>
<text text-anchor="middle" x="1079.01" y="-95.3" font-family="Times,serif" font-size="14.00">pymedphys._trf.decode.trf2pandas</text>
</g>
<!-- pymedphys._trf.decode.delivery&#45;&gt;pymedphys._trf.decode.trf2pandas -->
<g id="edge16" class="edge">
<title>pymedphys._trf.decode.delivery&#45;&gt;pymedphys._trf.decode.trf2pandas</title>
<path fill="none" stroke="black" d="M833.14,-99C854.16,-99 875.85,-99 897.23,-99"/>
<polygon fill="black" stroke="black" points="897.36,-102.5 907.36,-99 897.36,-95.5 897.36,-102.5"/>
</g>
<!-- pymedphys._trf.decode.constants -->
<g id="node18" class="node">
<title>pymedphys._trf.decode.constants</title>
<ellipse fill="none" stroke="black" cx="1079.01" cy="-45" rx="165.97" ry="18"/>
<text text-anchor="middle" x="1079.01" y="-41.3" font-family="Times,serif" font-size="14.00">pymedphys._trf.decode.constants</text>
</g>
<!-- pymedphys._trf.decode.delivery&#45;&gt;pymedphys._trf.decode.constants -->
<g id="edge17" class="edge">
<title>pymedphys._trf.decode.delivery&#45;&gt;pymedphys._trf.decode.constants</title>
<path fill="none" stroke="black" d="M777.59,-85.3C834.39,-77.68 905.25,-68.18 963.88,-60.31"/>
<polygon fill="black" stroke="black" points="964.48,-63.76 973.93,-58.96 963.55,-56.82 964.48,-63.76"/>
</g>
<!-- pymedphys._icom.mappings -->
<g id="node19" class="node">
<title>pymedphys._icom.mappings</title>
<ellipse fill="none" stroke="black" cx="1508.23" cy="-504" rx="141.88" ry="18"/>
<text text-anchor="middle" x="1508.23" y="-500.3" font-family="Times,serif" font-size="14.00">pymedphys._icom.mappings</text>
</g>
<!-- pymedphys._icom.extract&#45;&gt;pymedphys._icom.mappings -->
<g id="edge18" class="edge">
<title>pymedphys._icom.extract&#45;&gt;pymedphys._icom.mappings</title>
<path fill="none" stroke="black" d="M1208.48,-504C1254.94,-504 1307.82,-504 1356.05,-504"/>
<polygon fill="black" stroke="black" points="1356.26,-507.5 1366.26,-504 1356.26,-500.5 1356.26,-507.5"/>
</g>
<!-- pymedphys._utilities.transforms.bipolar -->
<g id="node20" class="node">
<title>pymedphys._utilities.transforms.bipolar</title>
<ellipse fill="none" stroke="black" cx="1508.23" cy="-450" rx="196.07" ry="18"/>
<text text-anchor="middle" x="1508.23" y="-446.3" font-family="Times,serif" font-size="14.00">pymedphys._utilities.transforms.bipolar</text>
</g>
<!-- pymedphys._utilities.transforms&#45;&gt;pymedphys._utilities.transforms.bipolar -->
<g id="edge19" class="edge">
<title>pymedphys._utilities.transforms&#45;&gt;pymedphys._utilities.transforms.bipolar</title>
<path fill="none" stroke="black" d="M1240.31,-450C1260.35,-450 1281.06,-450 1301.67,-450"/>
<polygon fill="black" stroke="black" points="1301.78,-453.5 1311.78,-450 1301.78,-446.5 1301.78,-453.5"/>
</g>
<!-- pymedphys._metersetmap.metersetmap -->
<g id="node21" class="node">
<title>pymedphys._metersetmap.metersetmap</title>
<ellipse fill="none" stroke="black" cx="1508.23" cy="-288" rx="198.47" ry="18"/>
<text text-anchor="middle" x="1508.23" y="-284.3" font-family="Times,serif" font-size="14.00">pymedphys._metersetmap.metersetmap</text>
</g>
<!-- pymedphys._metersetmap.delivery.core&#45;&gt;pymedphys._metersetmap.metersetmap -->
<g id="edge20" class="edge">
<title>pymedphys._metersetmap.delivery.core&#45;&gt;pymedphys._metersetmap.metersetmap</title>
<path fill="none" stroke="black" d="M1274.25,-288C1282.63,-288 1291.05,-288 1299.46,-288"/>
<polygon fill="black" stroke="black" points="1299.72,-291.5 1309.72,-288 1299.72,-284.5 1299.72,-291.5"/>
</g>
<!-- pymedphys._utilities.filesystem -->
<g id="node22" class="node">
<title>pymedphys._utilities.filesystem</title>
<ellipse fill="none" stroke="black" cx="1508.23" cy="-234" rx="157.07" ry="18"/>
<text text-anchor="middle" x="1508.23" y="-230.3" font-family="Times,serif" font-size="14.00">pymedphys._utilities.filesystem</text>
</g>
<!-- pymedphys._monaco.utility&#45;&gt;pymedphys._utilities.filesystem -->
<g id="edge21" class="edge">
<title>pymedphys._monaco.utility&#45;&gt;pymedphys._utilities.filesystem</title>
<path fill="none" stroke="black" d="M1216.95,-234C1256.29,-234 1299.64,-234 1340.57,-234"/>
<polygon fill="black" stroke="black" points="1340.64,-237.5 1350.64,-234 1340.64,-230.5 1340.64,-237.5"/>
</g>
<!-- pymedphys._dicom.delivery.utilities -->
<g id="node23" class="node">
<title>pymedphys._dicom.delivery.utilities</title>
<ellipse fill="none" stroke="black" cx="1508.23" cy="-180" rx="176.57" ry="18"/>
<text text-anchor="middle" x="1508.23" y="-176.3" font-family="Times,serif" font-size="14.00">pymedphys._dicom.delivery.utilities</text>
</g>
<!-- pymedphys._dicom.delivery.core&#45;&gt;pymedphys._dicom.delivery.utilities -->
<g id="edge22" class="edge">
<title>pymedphys._dicom.delivery.core&#45;&gt;pymedphys._dicom.delivery.utilities</title>
<path fill="none" stroke="black" d="M1240.31,-180C1266.66,-180 1294.16,-180 1321.07,-180"/>
<polygon fill="black" stroke="black" points="1321.36,-183.5 1331.36,-180 1321.36,-176.5 1321.36,-183.5"/>
</g>
<!-- pymedphys._trf.decode.partition -->
<g id="node24" class="node">
<title>pymedphys._trf.decode.partition</title>
<ellipse fill="none" stroke="black" cx="1508.23" cy="-126" rx="161.37" ry="18"/>
<text text-anchor="middle" x="1508.23" y="-122.3" font-family="Times,serif" font-size="14.00">pymedphys._trf.decode.partition</text>
</g>
<!-- pymedphys._trf.decode.trf2pandas&#45;&gt;pymedphys._trf.decode.partition -->
<g id="edge23" class="edge">
<title>pymedphys._trf.decode.trf2pandas&#45;&gt;pymedphys._trf.decode.partition</title>
<path fill="none" stroke="black" d="M1226.44,-108.25C1268.7,-110.93 1314.87,-113.84 1357.34,-116.53"/>
<polygon fill="black" stroke="black" points="1357.28,-120.03 1367.48,-117.17 1357.72,-113.04 1357.28,-120.03"/>
</g>
<!-- pymedphys._trf.decode.table -->
<g id="node25" class="node">
<title>pymedphys._trf.decode.table</title>
<ellipse fill="none" stroke="black" cx="1508.23" cy="-72" rx="144.07" ry="18"/>
<text text-anchor="middle" x="1508.23" y="-68.3" font-family="Times,serif" font-size="14.00">pymedphys._trf.decode.table</text>
</g>
<!-- pymedphys._trf.decode.trf2pandas&#45;&gt;pymedphys._trf.decode.table -->
<g id="edge24" class="edge">
<title>pymedphys._trf.decode.trf2pandas&#45;&gt;pymedphys._trf.decode.table</title>
<path fill="none" stroke="black" d="M1226.44,-89.75C1272.59,-86.83 1323.39,-83.62 1368.95,-80.74"/>
<polygon fill="black" stroke="black" points="1369.44,-84.22 1379.19,-80.09 1368.99,-77.23 1369.44,-84.22"/>
</g>
<!-- pymedphys._trf.decode.header -->
<g id="node26" class="node">
<title>pymedphys._trf.decode.header</title>
<ellipse fill="none" stroke="black" cx="1508.23" cy="-18" rx="153.27" ry="18"/>
<text text-anchor="middle" x="1508.23" y="-14.3" font-family="Times,serif" font-size="14.00">pymedphys._trf.decode.header</text>
</g>
<!-- pymedphys._trf.decode.trf2pandas&#45;&gt;pymedphys._trf.decode.header -->
<g id="edge25" class="edge">
<title>pymedphys._trf.decode.trf2pandas&#45;&gt;pymedphys._trf.decode.header</title>
<path fill="none" stroke="black" d="M1218.49,-88.49C1237.55,-84.53 1256.55,-79.19 1274,-72 1292.49,-64.38 1291.5,-52.6 1310,-45 1327.07,-37.99 1345.6,-32.72 1364.24,-28.79"/>
<polygon fill="black" stroke="black" points="1365.17,-32.17 1374.29,-26.79 1363.8,-25.31 1365.17,-32.17"/>
</g>
<!-- pymedphys._utilities.constants -->
<g id="node27" class="node">
<title>pymedphys._utilities.constants</title>
<ellipse fill="none" stroke="black" cx="1897.15" cy="-315" rx="154.87" ry="18"/>
<text text-anchor="middle" x="1897.15" y="-311.3" font-family="Times,serif" font-size="14.00">pymedphys._utilities.constants</text>
</g>
<!-- pymedphys._metersetmap.metersetmap&#45;&gt;pymedphys._utilities.constants -->
<g id="edge26" class="edge">
<title>pymedphys._metersetmap.metersetmap&#45;&gt;pymedphys._utilities.constants</title>
<path fill="none" stroke="black" d="M1666.05,-298.94C1695.18,-300.98 1725.47,-303.09 1754.14,-305.09"/>
<polygon fill="black" stroke="black" points="1753.99,-308.59 1764.2,-305.79 1754.47,-301.61 1753.99,-308.59"/>
</g>
<!-- pymedphys._metersetmap.plt -->
<g id="node28" class="node">
<title>pymedphys._metersetmap.plt</title>
<ellipse fill="none" stroke="black" cx="1897.15" cy="-261" rx="148.67" ry="18"/>
<text text-anchor="middle" x="1897.15" y="-257.3" font-family="Times,serif" font-size="14.00">pymedphys._metersetmap.plt</text>
</g>
<!-- pymedphys._metersetmap.metersetmap&#45;&gt;pymedphys._metersetmap.plt -->
<g id="edge27" class="edge">
<title>pymedphys._metersetmap.metersetmap&#45;&gt;pymedphys._metersetmap.plt</title>
<path fill="none" stroke="black" d="M1666.05,-277.06C1696.44,-274.94 1728.09,-272.73 1757.84,-270.65"/>
<polygon fill="black" stroke="black" points="1758.12,-274.14 1767.85,-269.95 1757.63,-267.16 1758.12,-274.14"/>
</g>
<!-- pymedphys._utilities.constants.mlctypes -->
<g id="node29" class="node">
<title>pymedphys._utilities.constants.mlctypes</title>
<ellipse fill="none" stroke="black" cx="2287.37" cy="-315" rx="199.56" ry="18"/>
<text text-anchor="middle" x="2287.37" y="-311.3" font-family="Times,serif" font-size="14.00">pymedphys._utilities.constants.mlctypes</text>
</g>
<!-- pymedphys._utilities.constants&#45;&gt;pymedphys._utilities.constants.mlctypes -->
<g id="edge28" class="edge">
<title>pymedphys._utilities.constants&#45;&gt;pymedphys._utilities.constants.mlctypes</title>
<path fill="none" stroke="black" d="M2051.86,-315C2060.31,-315 2068.87,-315 2077.46,-315"/>
<polygon fill="black" stroke="black" points="2077.57,-318.5 2087.57,-315 2077.57,-311.5 2077.57,-318.5"/>
</g>
<!-- pymedphys._metersetmap.plt.helpers -->
<g id="node30" class="node">
<title>pymedphys._metersetmap.plt.helpers</title>
<ellipse fill="none" stroke="black" cx="2287.37" cy="-261" rx="186.57" ry="18"/>
<text text-anchor="middle" x="2287.37" y="-257.3" font-family="Times,serif" font-size="14.00">pymedphys._metersetmap.plt.helpers</text>
</g>
<!-- pymedphys._metersetmap.plt&#45;&gt;pymedphys._metersetmap.plt.helpers -->
<g id="edge29" class="edge">
<title>pymedphys._metersetmap.plt&#45;&gt;pymedphys._metersetmap.plt.helpers</title>
<path fill="none" stroke="black" d="M2046.02,-261C2060.56,-261 2075.47,-261 2090.39,-261"/>
<polygon fill="black" stroke="black" points="2090.71,-264.5 2100.71,-261 2090.71,-257.5 2090.71,-264.5"/>
</g>
<!-- pymedphys.Delivery -->
<g id="node31" class="node">
<title>pymedphys.Delivery</title>
<ellipse fill="none" stroke="black" cx="105.94" cy="-288" rx="105.88" ry="18"/>
<text text-anchor="middle" x="105.94" y="-284.3" font-family="Times,serif" font-size="14.00">pymedphys.Delivery</text>
</g>
<!-- pymedphys.Delivery&#45;&gt;pymedphys._delivery -->
<g id="edge30" class="edge">
<title>pymedphys.Delivery&#45;&gt;pymedphys._delivery</title>
<path fill="none" stroke="black" d="M211.96,-288C220.43,-288 229.03,-288 237.58,-288"/>
<polygon fill="black" stroke="black" points="237.6,-291.5 247.6,-288 237.6,-284.5 237.6,-291.5"/>
</g>
</g>
</svg>
