<?xml version="1.0" encoding="UTF-8" standalone="no"?>
<!DOCTYPE svg PUBLIC "-//W3C//DTD SVG 1.1//EN"
 "http://www.w3.org/Graphics/SVG/1.1/DTD/svg11.dtd">
<!-- Generated by graphviz version 2.43.0 (0)
 -->
<!-- Title: pymedphys._dicom.anonymise Pages: 1 -->
<svg width="1919pt" height="152pt"
 viewBox="0.00 0.00 1919.05 152.00" xmlns="http://www.w3.org/2000/svg" xmlns:xlink="http://www.w3.org/1999/xlink">
<g id="graph0" class="graph" transform="scale(1 1) rotate(0) translate(4 148)">
<title>pymedphys._dicom.anonymise</title>
<polygon fill="white" stroke="transparent" points="-4,4 -4,-148 1915.05,-148 1915.05,4 -4,4"/>
<!-- pymedphys._dicom.anonymise -->
<g id="node1" class="node">
<title>pymedphys._dicom.anonymise</title>
<g id="a_node1"><a xlink:href="https://github.com/pymedphys/pymedphys/tree/main/lib/pymedphys/_dicom/anonymise/__init__.py" xlink:title="_dicom.anonymise">
<ellipse fill="none" stroke="black" cx="426.62" cy="-45" rx="95.58" ry="18"/>
<text text-anchor="middle" x="426.62" y="-41.3" font-family="Times,serif" font-size="14.00">_dicom.anonymise</text>
</a>
</g>
</g>
<!-- pymedphys._dicom.anonymise.api -->
<g id="node3" class="node">
<title>pymedphys._dicom.anonymise.api</title>
<g id="a_node3"><a xlink:href="https://github.com/pymedphys/pymedphys/tree/main/lib/pymedphys/_dicom/anonymise/api.py" xlink:title="_dicom.anonymise.api">
<ellipse fill="none" stroke="black" cx="670.6" cy="-45" rx="112.38" ry="18"/>
<text text-anchor="middle" x="670.6" y="-41.3" font-family="Times,serif" font-size="14.00">_dicom.anonymise.api</text>
</a>
</g>
</g>
<!-- pymedphys._dicom.anonymise&#45;&gt;pymedphys._dicom.anonymise.api -->
<g id="edge1" class="edge">
<title>pymedphys._dicom.anonymise&#45;&gt;pymedphys._dicom.anonymise.api</title>
<path fill="none" stroke="black" d="M522.21,-45C530.6,-45 539.16,-45 547.73,-45"/>
<polygon fill="black" stroke="black" points="547.78,-48.5 557.78,-45 547.78,-41.5 547.78,-48.5"/>
</g>
<!-- pymedphys._dicom.anonymise.core -->
<g id="node2" class="node">
<title>pymedphys._dicom.anonymise.core</title>
<g id="a_node2"><a xlink:href="https://github.com/pymedphys/pymedphys/tree/main/lib/pymedphys/_dicom/anonymise/core.py" xlink:title="_dicom.anonymise.core">
<ellipse fill="none" stroke="black" cx="937.33" cy="-72" rx="118.08" ry="18"/>
<text text-anchor="middle" x="937.33" y="-68.3" font-family="Times,serif" font-size="14.00">_dicom.anonymise.core</text>
</a>
</g>
</g>
<!-- pymedphys._dicom.anonymise.strategy -->
<g id="node5" class="node">
<title>pymedphys._dicom.anonymise.strategy</title>
<g id="a_node5"><a xlink:href="https://github.com/pymedphys/pymedphys/tree/main/lib/pymedphys/_dicom/anonymise/strategy.py" xlink:title="_dicom.anonymise.strategy">
<ellipse fill="none" stroke="black" cx="1229.4" cy="-72" rx="137.58" ry="18"/>
<text text-anchor="middle" x="1229.4" y="-68.3" font-family="Times,serif" font-size="14.00">_dicom.anonymise.strategy</text>
</a>
</g>
</g>
<!-- pymedphys._dicom.anonymise.core&#45;&gt;pymedphys._dicom.anonymise.strategy -->
<g id="edge2" class="edge">
<title>pymedphys._dicom.anonymise.core&#45;&gt;pymedphys._dicom.anonymise.strategy</title>
<path fill="none" stroke="black" d="M1055.89,-72C1064.16,-72 1072.54,-72 1080.94,-72"/>
<polygon fill="black" stroke="black" points="1081.18,-75.5 1091.18,-72 1081.18,-68.5 1081.18,-75.5"/>
</g>
<!-- pymedphys._dicom.anonymise.api&#45;&gt;pymedphys._dicom.anonymise.core -->
<g id="edge3" class="edge">
<title>pymedphys._dicom.anonymise.api&#45;&gt;pymedphys._dicom.anonymise.core</title>
<path fill="none" stroke="black" d="M766.05,-54.63C786.21,-56.69 807.65,-58.88 828.28,-60.98"/>
<polygon fill="black" stroke="black" points="828.03,-64.47 838.33,-62.01 828.74,-57.51 828.03,-64.47"/>
</g>
<!-- pymedphys._dicom.utilities -->
<g id="node9" class="node">
<title>pymedphys._dicom.utilities</title>
<g id="a_node9"><a xlink:href="https://github.com/pymedphys/pymedphys/tree/main/lib/pymedphys/_dicom/utilities/__init__.py" xlink:title="_dicom.utilities">
<ellipse fill="none" stroke="black" cx="937.33" cy="-18" rx="81.49" ry="18"/>
<text text-anchor="middle" x="937.33" y="-14.3" font-family="Times,serif" font-size="14.00">_dicom.utilities</text>
</a>
</g>
</g>
<!-- pymedphys._dicom.anonymise.api&#45;&gt;pymedphys._dicom.utilities -->
<g id="edge4" class="edge">
<title>pymedphys._dicom.anonymise.api&#45;&gt;pymedphys._dicom.utilities</title>
<path fill="none" stroke="black" d="M766.05,-35.37C794.48,-32.47 825.46,-29.31 853.11,-26.49"/>
<polygon fill="black" stroke="black" points="853.54,-29.96 863.14,-25.46 852.83,-23 853.54,-29.96"/>
</g>
<!-- pymedphys._dicom.constants -->
<g id="node4" class="node">
<title>pymedphys._dicom.constants</title>
<g id="a_node4"><a xlink:href="https://github.com/pymedphys/pymedphys/tree/main/lib/pymedphys/_dicom/constants/__init__.py" xlink:title="_dicom.constants">
<ellipse fill="none" stroke="black" cx="1494.18" cy="-72" rx="90.98" ry="18"/>
<text text-anchor="middle" x="1494.18" y="-68.3" font-family="Times,serif" font-size="14.00">_dicom.constants</text>
</a>
</g>
</g>
<!-- pymedphys._dicom.constants.uuid -->
<g id="node6" class="node">
<title>pymedphys._dicom.constants.uuid</title>
<g id="a_node6"><a xlink:href="https://github.com/pymedphys/pymedphys/tree/main/lib/pymedphys/_dicom/constants/uuid.py" xlink:title="_dicom.constants.uuid">
<ellipse fill="none" stroke="black" cx="1766.11" cy="-126" rx="114.28" ry="18"/>
<text text-anchor="middle" x="1766.11" y="-122.3" font-family="Times,serif" font-size="14.00">_dicom.constants.uuid</text>
</a>
</g>
</g>
<!-- pymedphys._dicom.constants&#45;&gt;pymedphys._dicom.constants.uuid -->
<g id="edge5" class="edge">
<title>pymedphys._dicom.constants&#45;&gt;pymedphys._dicom.constants.uuid</title>
<path fill="none" stroke="black" d="M1555.68,-85.29C1576.42,-89.76 1599.79,-94.7 1621.18,-99 1640.39,-102.86 1661.07,-106.84 1680.61,-110.52"/>
<polygon fill="black" stroke="black" points="1680.23,-114.01 1690.71,-112.42 1681.52,-107.13 1680.23,-114.01"/>
</g>
<!-- pymedphys._dicom.constants.core -->
<g id="node7" class="node">
<title>pymedphys._dicom.constants.core</title>
<g id="a_node7"><a xlink:href="https://github.com/pymedphys/pymedphys/tree/main/lib/pymedphys/_dicom/constants/core.py" xlink:title="_dicom.constants.core">
<ellipse fill="none" stroke="black" cx="1766.11" cy="-72" rx="113.98" ry="18"/>
<text text-anchor="middle" x="1766.11" y="-68.3" font-family="Times,serif" font-size="14.00">_dicom.constants.core</text>
</a>
</g>
</g>
<!-- pymedphys._dicom.constants&#45;&gt;pymedphys._dicom.constants.core -->
<g id="edge6" class="edge">
<title>pymedphys._dicom.constants&#45;&gt;pymedphys._dicom.constants.core</title>
<path fill="none" stroke="black" d="M1585.44,-72C1603.5,-72 1622.76,-72 1641.72,-72"/>
<polygon fill="black" stroke="black" points="1641.9,-75.5 1651.9,-72 1641.9,-68.5 1641.9,-75.5"/>
</g>
<!-- pymedphys._dicom.constants.orientation -->
<g id="node8" class="node">
<title>pymedphys._dicom.constants.orientation</title>
<g id="a_node8"><a xlink:href="https://github.com/pymedphys/pymedphys/tree/main/lib/pymedphys/_dicom/constants/orientation.py" xlink:title="_dicom.constants.orientation">
<ellipse fill="none" stroke="black" cx="1766.11" cy="-18" rx="144.87" ry="18"/>
<text text-anchor="middle" x="1766.11" y="-14.3" font-family="Times,serif" font-size="14.00">_dicom.constants.orientation</text>
</a>
</g>
</g>
<!-- pymedphys._dicom.constants&#45;&gt;pymedphys._dicom.constants.orientation -->
<g id="edge7" class="edge">
<title>pymedphys._dicom.constants&#45;&gt;pymedphys._dicom.constants.orientation</title>
<path fill="none" stroke="black" d="M1555.68,-58.71C1576.42,-54.24 1599.79,-49.3 1621.18,-45 1638.16,-41.59 1656.3,-38.08 1673.77,-34.77"/>
<polygon fill="black" stroke="black" points="1674.79,-38.14 1683.97,-32.84 1673.49,-31.26 1674.79,-38.14"/>
</g>
<!-- pymedphys._dicom.anonymise.strategy&#45;&gt;pymedphys._dicom.constants -->
<g id="edge8" class="edge">
<title>pymedphys._dicom.anonymise.strategy&#45;&gt;pymedphys._dicom.constants</title>
<path fill="none" stroke="black" d="M1367.57,-72C1376.15,-72 1384.7,-72 1393.07,-72"/>
<polygon fill="black" stroke="black" points="1393.18,-75.5 1403.18,-72 1393.18,-68.5 1393.18,-75.5"/>
</g>
<!-- pymedphys._dicom.utilities.files -->
<g id="node10" class="node">
<title>pymedphys._dicom.utilities.files</title>
<g id="a_node10"><a xlink:href="https://github.com/pymedphys/pymedphys/tree/main/lib/pymedphys/_dicom/utilities/files.py" xlink:title="_dicom.utilities.files">
<ellipse fill="none" stroke="black" cx="1229.4" cy="-18" rx="103.18" ry="18"/>
<text text-anchor="middle" x="1229.4" y="-14.3" font-family="Times,serif" font-size="14.00">_dicom.utilities.files</text>
</a>
</g>
</g>
<!-- pymedphys._dicom.utilities&#45;&gt;pymedphys._dicom.utilities.files -->
<g id="edge9" class="edge">
<title>pymedphys._dicom.utilities&#45;&gt;pymedphys._dicom.utilities.files</title>
<path fill="none" stroke="black" d="M1018.74,-18C1048.7,-18 1083.28,-18 1115.61,-18"/>
<polygon fill="black" stroke="black" points="1116.02,-21.5 1126.02,-18 1116.02,-14.5 1116.02,-21.5"/>
</g>
<!-- pymedphys.dicom.anonymise -->
<g id="node11" class="node">
<title>pymedphys.dicom.anonymise</title>
<g id="a_node11"><a xlink:href="https://github.com/pymedphys/pymedphys/tree/main/lib/pymedphys/_dicom/anonymise/__init__.py" xlink:title="pymedphys.dicom.anonymise">
<ellipse fill="none" stroke="black" cx="147.54" cy="-45" rx="147.57" ry="18"/>
<text text-anchor="middle" x="147.54" y="-41.3" font-family="Times,serif" font-size="14.00">pymedphys.dicom.anonymise</text>
</a>
</g>
</g>
<!-- pymedphys.dicom.anonymise&#45;&gt;pymedphys._dicom.anonymise -->
<g id="edge10" class="edge">
<title>pymedphys.dicom.anonymise&#45;&gt;pymedphys._dicom.anonymise</title>
<path fill="none" stroke="black" d="M295.19,-45C303.77,-45 312.31,-45 320.68,-45"/>
<polygon fill="black" stroke="black" points="320.79,-48.5 330.79,-45 320.79,-41.5 320.79,-48.5"/>
</g>
</g>
</svg>
