<?xml version="1.0" encoding="UTF-8" standalone="no"?>
<!DOCTYPE svg PUBLIC "-//W3C//DTD SVG 1.1//EN"
 "http://www.w3.org/Graphics/SVG/1.1/DTD/svg11.dtd">
<!-- Generated by graphviz version 2.43.0 (0)
 -->
<!-- Title: pymedphys._dicom.dose Pages: 1 -->
<svg width="1736pt" height="341pt"
 viewBox="0.00 0.00 1736.16 341.00" xmlns="http://www.w3.org/2000/svg" xmlns:xlink="http://www.w3.org/1999/xlink">
<g id="graph0" class="graph" transform="scale(1 1) rotate(0) translate(4 337)">
<title>pymedphys._dicom.dose</title>
<polygon fill="white" stroke="transparent" points="-4,4 -4,-337 1732.16,-337 1732.16,4 -4,4"/>
<!-- pymedphys._dicom.dose -->
<g id="node1" class="node">
<title>pymedphys._dicom.dose</title>
<g id="a_node1"><a xlink:href="https://github.com/pymedphys/pymedphys/tree/main/lib/pymedphys/_dicom/dose.py" xlink:title="_dicom.dose">
<ellipse fill="none" stroke="black" cx="554.65" cy="-234" rx="67.69" ry="18"/>
<text text-anchor="middle" x="554.65" y="-230.3" font-family="Times,serif" font-size="14.00">_dicom.dose</text>
</a>
</g>
</g>
<!-- pymedphys._dicom.coords -->
<g id="node2" class="node">
<title>pymedphys._dicom.coords</title>
<g id="a_node2"><a xlink:href="https://github.com/pymedphys/pymedphys/tree/main/lib/pymedphys/_dicom/coords.py" xlink:title="_dicom.coords">
<ellipse fill="none" stroke="black" cx="749.24" cy="-315" rx="76.89" ry="18"/>
<text text-anchor="middle" x="749.24" y="-311.3" font-family="Times,serif" font-size="14.00">_dicom.coords</text>
</a>
</g>
</g>
<!-- pymedphys._dicom.dose&#45;&gt;pymedphys._dicom.coords -->
<g id="edge1" class="edge">
<title>pymedphys._dicom.dose&#45;&gt;pymedphys._dicom.coords</title>
<path fill="none" stroke="black" d="M583.26,-250.4C603.52,-261.97 631.98,-277.26 658.25,-288 667.53,-291.8 677.55,-295.33 687.41,-298.5"/>
<polygon fill="black" stroke="black" points="686.6,-301.91 697.19,-301.55 688.69,-295.23 686.6,-301.91"/>
</g>
<!-- pymedphys._dicom.structure -->
<g id="node3" class="node">
<title>pymedphys._dicom.structure</title>
<g id="a_node3"><a xlink:href="https://github.com/pymedphys/pymedphys/tree/main/lib/pymedphys/_dicom/structure/__init__.py" xlink:title="_dicom.structure">
<ellipse fill="none" stroke="black" cx="749.24" cy="-261" rx="89.08" ry="18"/>
<text text-anchor="middle" x="749.24" y="-257.3" font-family="Times,serif" font-size="14.00">_dicom.structure</text>
</a>
</g>
</g>
<!-- pymedphys._dicom.dose&#45;&gt;pymedphys._dicom.structure -->
<g id="edge2" class="edge">
<title>pymedphys._dicom.dose&#45;&gt;pymedphys._dicom.structure</title>
<path fill="none" stroke="black" d="M614.74,-242.28C630.83,-244.54 648.55,-247.02 665.67,-249.42"/>
<polygon fill="black" stroke="black" points="665.28,-252.9 675.67,-250.83 666.26,-245.97 665.28,-252.9"/>
</g>
<!-- pymedphys._dicom.constants -->
<g id="node4" class="node">
<title>pymedphys._dicom.constants</title>
<g id="a_node4"><a xlink:href="https://github.com/pymedphys/pymedphys/tree/main/lib/pymedphys/_dicom/constants/__init__.py" xlink:title="_dicom.constants">
<ellipse fill="none" stroke="black" cx="749.24" cy="-207" rx="90.98" ry="18"/>
<text text-anchor="middle" x="749.24" y="-203.3" font-family="Times,serif" font-size="14.00">_dicom.constants</text>
</a>
</g>
</g>
<!-- pymedphys._dicom.dose&#45;&gt;pymedphys._dicom.constants -->
<g id="edge3" class="edge">
<title>pymedphys._dicom.dose&#45;&gt;pymedphys._dicom.constants</title>
<path fill="none" stroke="black" d="M614.74,-225.72C630.4,-223.52 647.61,-221.11 664.31,-218.77"/>
<polygon fill="black" stroke="black" points="665.21,-222.17 674.63,-217.32 664.24,-215.24 665.21,-222.17"/>
</g>
<!-- pymedphys._dicom.rtplan -->
<g id="node5" class="node">
<title>pymedphys._dicom.rtplan</title>
<g id="a_node5"><a xlink:href="https://github.com/pymedphys/pymedphys/tree/main/lib/pymedphys/_dicom/rtplan/__init__.py" xlink:title="_dicom.rtplan">
<ellipse fill="none" stroke="black" cx="749.24" cy="-99" rx="74.19" ry="18"/>
<text text-anchor="middle" x="749.24" y="-95.3" font-family="Times,serif" font-size="14.00">_dicom.rtplan</text>
</a>
</g>
</g>
<!-- pymedphys._dicom.dose&#45;&gt;pymedphys._dicom.rtplan -->
<g id="edge4" class="edge">
<title>pymedphys._dicom.dose&#45;&gt;pymedphys._dicom.rtplan</title>
<path fill="none" stroke="black" d="M579.66,-217.18C613.97,-193.12 677.13,-148.85 715.64,-121.85"/>
<polygon fill="black" stroke="black" points="717.76,-124.64 723.94,-116.04 713.74,-118.91 717.76,-124.64"/>
</g>
<!-- pymedphys._dicom.constants.uuid -->
<g id="node6" class="node">
<title>pymedphys._dicom.constants.uuid</title>
<g id="a_node6"><a xlink:href="https://github.com/pymedphys/pymedphys/tree/main/lib/pymedphys/_dicom/constants/uuid.py" xlink:title="_dicom.constants.uuid">
<ellipse fill="none" stroke="black" cx="1021.17" cy="-288" rx="114.28" ry="18"/>
<text text-anchor="middle" x="1021.17" y="-284.3" font-family="Times,serif" font-size="14.00">_dicom.constants.uuid</text>
</a>
</g>
</g>
<!-- pymedphys._dicom.constants&#45;&gt;pymedphys._dicom.constants.uuid -->
<g id="edge5" class="edge">
<title>pymedphys._dicom.constants&#45;&gt;pymedphys._dicom.constants.uuid</title>
<path fill="none" stroke="black" d="M807.58,-220.9C818.69,-224.5 830.04,-228.85 840.23,-234 858.09,-243.01 857.93,-252.95 876.23,-261 889.47,-266.82 903.93,-271.39 918.41,-274.98"/>
<polygon fill="black" stroke="black" points="917.9,-278.45 928.43,-277.3 919.48,-271.63 917.9,-278.45"/>
</g>
<!-- pymedphys._dicom.constants.core -->
<g id="node7" class="node">
<title>pymedphys._dicom.constants.core</title>
<g id="a_node7"><a xlink:href="https://github.com/pymedphys/pymedphys/tree/main/lib/pymedphys/_dicom/constants/core.py" xlink:title="_dicom.constants.core">
<ellipse fill="none" stroke="black" cx="1021.17" cy="-234" rx="113.98" ry="18"/>
<text text-anchor="middle" x="1021.17" y="-230.3" font-family="Times,serif" font-size="14.00">_dicom.constants.core</text>
</a>
</g>
</g>
<!-- pymedphys._dicom.constants&#45;&gt;pymedphys._dicom.constants.core -->
<g id="edge6" class="edge">
<title>pymedphys._dicom.constants&#45;&gt;pymedphys._dicom.constants.core</title>
<path fill="none" stroke="black" d="M830.86,-215.06C857.01,-217.68 886.43,-220.62 914.14,-223.39"/>
<polygon fill="black" stroke="black" points="913.96,-226.89 924.26,-224.41 914.66,-219.93 913.96,-226.89"/>
</g>
<!-- pymedphys._dicom.constants.orientation -->
<g id="node8" class="node">
<title>pymedphys._dicom.constants.orientation</title>
<g id="a_node8"><a xlink:href="https://github.com/pymedphys/pymedphys/tree/main/lib/pymedphys/_dicom/constants/orientation.py" xlink:title="_dicom.constants.orientation">
<ellipse fill="none" stroke="black" cx="1021.17" cy="-180" rx="144.87" ry="18"/>
<text text-anchor="middle" x="1021.17" y="-176.3" font-family="Times,serif" font-size="14.00">_dicom.constants.orientation</text>
</a>
</g>
</g>
<!-- pymedphys._dicom.constants&#45;&gt;pymedphys._dicom.constants.orientation -->
<g id="edge7" class="edge">
<title>pymedphys._dicom.constants&#45;&gt;pymedphys._dicom.constants.orientation</title>
<path fill="none" stroke="black" d="M830.86,-198.94C851.84,-196.84 874.91,-194.53 897.53,-192.27"/>
<polygon fill="black" stroke="black" points="897.92,-195.75 907.53,-191.27 897.23,-188.78 897.92,-195.75"/>
</g>
<!-- pymedphys._dicom.rtplan.core -->
<g id="node9" class="node">
<title>pymedphys._dicom.rtplan.core</title>
<g id="a_node9"><a xlink:href="https://github.com/pymedphys/pymedphys/tree/main/lib/pymedphys/_dicom/rtplan/core.py" xlink:title="_dicom.rtplan.core">
<ellipse fill="none" stroke="black" cx="1021.17" cy="-126" rx="96.68" ry="18"/>
<text text-anchor="middle" x="1021.17" y="-122.3" font-family="Times,serif" font-size="14.00">_dicom.rtplan.core</text>
</a>
</g>
</g>
<!-- pymedphys._dicom.rtplan&#45;&gt;pymedphys._dicom.rtplan.core -->
<g id="edge8" class="edge">
<title>pymedphys._dicom.rtplan&#45;&gt;pymedphys._dicom.rtplan.core</title>
<path fill="none" stroke="black" d="M818.01,-105.78C850.41,-109.02 889.76,-112.96 925.1,-116.49"/>
<polygon fill="black" stroke="black" points="925.14,-120.01 935.44,-117.52 925.83,-113.05 925.14,-120.01"/>
</g>
<!-- pymedphys._dicom.rtplan.build -->
<g id="node10" class="node">
<title>pymedphys._dicom.rtplan.build</title>
<g id="a_node10"><a xlink:href="https://github.com/pymedphys/pymedphys/tree/main/lib/pymedphys/_dicom/rtplan/build.py" xlink:title="_dicom.rtplan.build">
<ellipse fill="none" stroke="black" cx="1021.17" cy="-72" rx="100.98" ry="18"/>
<text text-anchor="middle" x="1021.17" y="-68.3" font-family="Times,serif" font-size="14.00">_dicom.rtplan.build</text>
</a>
</g>
</g>
<!-- pymedphys._dicom.rtplan&#45;&gt;pymedphys._dicom.rtplan.build -->
<g id="edge9" class="edge">
<title>pymedphys._dicom.rtplan&#45;&gt;pymedphys._dicom.rtplan.build</title>
<path fill="none" stroke="black" d="M818.01,-92.22C849.7,-89.05 888.04,-85.22 922.77,-81.74"/>
<polygon fill="black" stroke="black" points="923.34,-85.2 932.94,-80.73 922.64,-78.24 923.34,-85.2"/>
</g>
<!-- pymedphys._dicom.rtplan.adjust -->
<g id="node11" class="node">
<title>pymedphys._dicom.rtplan.adjust</title>
<g id="a_node11"><a xlink:href="https://github.com/pymedphys/pymedphys/tree/main/lib/pymedphys/_dicom/rtplan/adjust.py" xlink:title="_dicom.rtplan.adjust">
<ellipse fill="none" stroke="black" cx="1021.17" cy="-18" rx="105.88" ry="18"/>
<text text-anchor="middle" x="1021.17" y="-14.3" font-family="Times,serif" font-size="14.00">_dicom.rtplan.adjust</text>
</a>
</g>
</g>
<!-- pymedphys._dicom.rtplan&#45;&gt;pymedphys._dicom.rtplan.adjust -->
<g id="edge10" class="edge">
<title>pymedphys._dicom.rtplan&#45;&gt;pymedphys._dicom.rtplan.adjust</title>
<path fill="none" stroke="black" d="M782.4,-82.88C807.43,-70.92 843.33,-55 876.23,-45 893.58,-39.73 912.42,-35.3 930.59,-31.65"/>
<polygon fill="black" stroke="black" points="931.45,-35.05 940.6,-29.7 930.12,-28.18 931.45,-35.05"/>
</g>
<!-- pymedphys._utilities.transforms -->
<g id="node12" class="node">
<title>pymedphys._utilities.transforms</title>
<g id="a_node12"><a xlink:href="https://github.com/pymedphys/pymedphys/tree/main/lib/pymedphys/_utilities/transforms/__init__.py" xlink:title="_utilities.transforms">
<ellipse fill="none" stroke="black" cx="1306.75" cy="-126" rx="104.78" ry="18"/>
<text text-anchor="middle" x="1306.75" y="-122.3" font-family="Times,serif" font-size="14.00">_utilities.transforms</text>
</a>
</g>
</g>
<!-- pymedphys._dicom.rtplan.core&#45;&gt;pymedphys._utilities.transforms -->
<g id="edge11" class="edge">
<title>pymedphys._dicom.rtplan.core&#45;&gt;pymedphys._utilities.transforms</title>
<path fill="none" stroke="black" d="M1118.18,-126C1141.9,-126 1167.54,-126 1192.02,-126"/>
<polygon fill="black" stroke="black" points="1192.06,-129.5 1202.06,-126 1192.06,-122.5 1192.06,-129.5"/>
</g>
<!-- pymedphys._utilities.transforms.bipolar -->
<g id="node13" class="node">
<title>pymedphys._utilities.transforms.bipolar</title>
<g id="a_node13"><a xlink:href="https://github.com/pymedphys/pymedphys/tree/main/lib/pymedphys/_utilities/transforms/bipolar.py" xlink:title="_utilities.transforms.bipolar">
<ellipse fill="none" stroke="black" cx="1587.78" cy="-126" rx="140.28" ry="18"/>
<text text-anchor="middle" x="1587.78" y="-122.3" font-family="Times,serif" font-size="14.00">_utilities.transforms.bipolar</text>
</a>
</g>
</g>
<!-- pymedphys._utilities.transforms&#45;&gt;pymedphys._utilities.transforms.bipolar -->
<g id="edge12" class="edge">
<title>pymedphys._utilities.transforms&#45;&gt;pymedphys._utilities.transforms.bipolar</title>
<path fill="none" stroke="black" d="M1411.65,-126C1420,-126 1428.53,-126 1437.12,-126"/>
<polygon fill="black" stroke="black" points="1437.22,-129.5 1447.22,-126 1437.22,-122.5 1437.22,-129.5"/>
</g>
<!-- pymedphys.dicom.zyx_and_dose_from_dataset -->
<g id="node14" class="node">
<title>pymedphys.dicom.zyx_and_dose_from_dataset</title>
<g id="a_node14"><a xlink:href="https://github.com/pymedphys/pymedphys/tree/main/lib/pymedphys/_dicom/dose.py" xlink:title="pymedphys.dicom.zyx_and_dose_from_dataset">
<ellipse fill="none" stroke="black" cx="225.53" cy="-315" rx="225.56" ry="18"/>
<text text-anchor="middle" x="225.53" y="-311.3" font-family="Times,serif" font-size="14.00">pymedphys.dicom.zyx_and_dose_from_dataset</text>
</a>
</g>
</g>
<!-- pymedphys.dicom.zyx_and_dose_from_dataset&#45;&gt;pymedphys._dicom.dose -->
<g id="edge13" class="edge">
<title>pymedphys.dicom.zyx_and_dose_from_dataset&#45;&gt;pymedphys._dicom.dose</title>
<path fill="none" stroke="black" d="M389.3,-302.57C410.33,-298.89 431.38,-294.13 451.06,-288 475.11,-280.5 500.17,-267.43 519.51,-256.02"/>
<polygon fill="black" stroke="black" points="521.48,-258.92 528.23,-250.76 517.86,-252.92 521.48,-258.92"/>
</g>
<!-- pymedphys.dicom.profile -->
<g id="node15" class="node">
<title>pymedphys.dicom.profile</title>
<g id="a_node15"><a xlink:href="https://github.com/pymedphys/pymedphys/tree/main/lib/pymedphys/_dicom/dose.py" xlink:title="pymedphys.dicom.profile">
<ellipse fill="none" stroke="black" cx="225.53" cy="-261" rx="127.28" ry="18"/>
<text text-anchor="middle" x="225.53" y="-257.3" font-family="Times,serif" font-size="14.00">pymedphys.dicom.profile</text>
</a>
</g>
</g>
<!-- pymedphys.dicom.profile&#45;&gt;pymedphys._dicom.dose -->
<g id="edge14" class="edge">
<title>pymedphys.dicom.profile&#45;&gt;pymedphys._dicom.dose</title>
<path fill="none" stroke="black" d="M335.91,-251.97C383.2,-248.07 437.3,-243.6 479.74,-240.1"/>
<polygon fill="black" stroke="black" points="480.04,-243.59 489.71,-239.28 479.46,-236.61 480.04,-243.59"/>
</g>
<!-- pymedphys.dicom.depth_dose -->
<g id="node16" class="node">
<title>pymedphys.dicom.depth_dose</title>
<g id="a_node16"><a xlink:href="https://github.com/pymedphys/pymedphys/tree/main/lib/pymedphys/_dicom/dose.py" xlink:title="pymedphys.dicom.depth_dose">
<ellipse fill="none" stroke="black" cx="225.53" cy="-207" rx="150.27" ry="18"/>
<text text-anchor="middle" x="225.53" y="-203.3" font-family="Times,serif" font-size="14.00">pymedphys.dicom.depth_dose</text>
</a>
</g>
</g>
<!-- pymedphys.dicom.depth_dose&#45;&gt;pymedphys._dicom.dose -->
<g id="edge15" class="edge">
<title>pymedphys.dicom.depth_dose&#45;&gt;pymedphys._dicom.dose</title>
<path fill="none" stroke="black" d="M349.74,-217.17C393.46,-220.78 441.29,-224.73 479.63,-227.89"/>
<polygon fill="black" stroke="black" points="479.42,-231.38 489.67,-228.72 479.99,-224.41 479.42,-231.38"/>
</g>
<!-- pymedphys.dicom.dicom_dose_interpolate -->
<g id="node17" class="node">
<title>pymedphys.dicom.dicom_dose_interpolate</title>
<g id="a_node17"><a xlink:href="https://github.com/pymedphys/pymedphys/tree/main/lib/pymedphys/_dicom/dose.py" xlink:title="pymedphys.dicom.dicom_dose_interpolate">
<ellipse fill="none" stroke="black" cx="225.53" cy="-153" rx="206.86" ry="18"/>
<text text-anchor="middle" x="225.53" y="-149.3" font-family="Times,serif" font-size="14.00">pymedphys.dicom.dicom_dose_interpolate</text>
</a>
</g>
</g>
<!-- pymedphys.dicom.dicom_dose_interpolate&#45;&gt;pymedphys._dicom.dose -->
<g id="edge16" class="edge">
<title>pymedphys.dicom.dicom_dose_interpolate&#45;&gt;pymedphys._dicom.dose</title>
<path fill="none" stroke="black" d="M384.19,-164.56C406.91,-168.35 429.79,-173.37 451.06,-180 475.11,-187.5 500.17,-200.57 519.51,-211.98"/>
<polygon fill="black" stroke="black" points="517.86,-215.08 528.23,-217.24 521.48,-209.08 517.86,-215.08"/>
</g>
</g>
</svg>
