<?xml version="1.0" encoding="UTF-8" standalone="no"?>
<!DOCTYPE svg PUBLIC "-//W3C//DTD SVG 1.1//EN"
 "http://www.w3.org/Graphics/SVG/1.1/DTD/svg11.dtd">
<!-- Generated by graphviz version 2.43.0 (0)
 -->
<!-- Title: pymedphys._delivery Pages: 1 -->
<svg width="1906pt" height="530pt"
 viewBox="0.00 0.00 1906.05 530.00" xmlns="http://www.w3.org/2000/svg" xmlns:xlink="http://www.w3.org/1999/xlink">
<g id="graph0" class="graph" transform="scale(1 1) rotate(0) translate(4 526)">
<title>pymedphys._delivery</title>
<polygon fill="white" stroke="transparent" points="-4,4 -4,-526 1902.05,-526 1902.05,4 -4,4"/>
<!-- pymedphys._delivery -->
<g id="node1" class="node">
<title>pymedphys._delivery</title>
<g id="a_node1"><a xlink:href="https://github.com/pymedphys/pymedphys/tree/main/lib/pymedphys/_delivery.py" xlink:title="_delivery">
<ellipse fill="none" stroke="black" cx="300.53" cy="-275" rx="52.79" ry="18"/>
<text text-anchor="middle" x="300.53" y="-271.3" font-family="Times,serif" font-size="14.00">_delivery</text>
</a>
</g>
</g>
<!-- pymedphys._icom.delivery -->
<g id="node3" class="node">
<title>pymedphys._icom.delivery</title>
<g id="a_node3"><a xlink:href="https://github.com/pymedphys/pymedphys/tree/main/lib/pymedphys/_icom/delivery.py" xlink:title="_icom.delivery">
<ellipse fill="none" stroke="black" cx="506.81" cy="-352" rx="77.19" ry="18"/>
<text text-anchor="middle" x="506.81" y="-348.3" font-family="Times,serif" font-size="14.00">_icom.delivery</text>
</a>
</g>
</g>
<!-- pymedphys._delivery&#45;&gt;pymedphys._icom.delivery -->
<g id="edge1" class="edge">
<title>pymedphys._delivery&#45;&gt;pymedphys._icom.delivery</title>
<path fill="none" stroke="black" d="M325.14,-290.99C342.26,-301.95 366.33,-316.06 389.17,-325 403.46,-330.59 419.21,-335.2 434.39,-338.94"/>
<polygon fill="black" stroke="black" points="433.72,-342.37 444.26,-341.26 435.33,-335.56 433.72,-342.37"/>
</g>
<!-- pymedphys._mosaiq.delivery -->
<g id="node4" class="node">
<title>pymedphys._mosaiq.delivery</title>
<g id="a_node4"><a xlink:href="https://github.com/pymedphys/pymedphys/tree/main/lib/pymedphys/_mosaiq/delivery.py" xlink:title="_mosaiq.delivery">
<ellipse fill="none" stroke="black" cx="799.54" cy="-396" rx="89.08" ry="18"/>
<text text-anchor="middle" x="799.54" y="-392.3" font-family="Times,serif" font-size="14.00">_mosaiq.delivery</text>
</a>
</g>
</g>
<!-- pymedphys._delivery&#45;&gt;pymedphys._mosaiq.delivery -->
<g id="edge2" class="edge">
<title>pymedphys._delivery&#45;&gt;pymedphys._mosaiq.delivery</title>
<path fill="none" stroke="black" d="M310.47,-292.93C323.8,-317.44 351.44,-360.49 389.17,-379 496.57,-431.68 639.51,-422.48 724.96,-409.97"/>
<polygon fill="black" stroke="black" points="725.73,-413.4 735.09,-408.44 724.68,-406.48 725.73,-413.4"/>
</g>
<!-- pymedphys._metersetmap.delivery -->
<g id="node5" class="node">
<title>pymedphys._metersetmap.delivery</title>
<g id="a_node5"><a xlink:href="https://github.com/pymedphys/pymedphys/tree/main/lib/pymedphys/_metersetmap/delivery/__init__.py" xlink:title="_metersetmap.delivery">
<ellipse fill="none" stroke="black" cx="506.81" cy="-298" rx="117.78" ry="18"/>
<text text-anchor="middle" x="506.81" y="-294.3" font-family="Times,serif" font-size="14.00">_metersetmap.delivery</text>
</a>
</g>
</g>
<!-- pymedphys._delivery&#45;&gt;pymedphys._metersetmap.delivery -->
<g id="edge3" class="edge">
<title>pymedphys._delivery&#45;&gt;pymedphys._metersetmap.delivery</title>
<path fill="none" stroke="black" d="M350.72,-280.54C366.02,-282.26 383.5,-284.23 401.09,-286.21"/>
<polygon fill="black" stroke="black" points="401.12,-289.73 411.44,-287.38 401.9,-282.78 401.12,-289.73"/>
</g>
<!-- pymedphys._monaco.delivery -->
<g id="node6" class="node">
<title>pymedphys._monaco.delivery</title>
<g id="a_node6"><a xlink:href="https://github.com/pymedphys/pymedphys/tree/main/lib/pymedphys/_monaco/delivery.py" xlink:title="_monaco.delivery">
<ellipse fill="none" stroke="black" cx="799.54" cy="-212" rx="90.98" ry="18"/>
<text text-anchor="middle" x="799.54" y="-208.3" font-family="Times,serif" font-size="14.00">_monaco.delivery</text>
</a>
</g>
</g>
<!-- pymedphys._delivery&#45;&gt;pymedphys._monaco.delivery -->
<g id="edge4" class="edge">
<title>pymedphys._delivery&#45;&gt;pymedphys._monaco.delivery</title>
<path fill="none" stroke="black" d="M350.09,-268.84C434.09,-258.2 607.57,-236.21 712.43,-222.91"/>
<polygon fill="black" stroke="black" points="712.88,-226.39 722.36,-221.66 712,-219.44 712.88,-226.39"/>
</g>
<!-- pymedphys._dicom.delivery -->
<g id="node7" class="node">
<title>pymedphys._dicom.delivery</title>
<g id="a_node7"><a xlink:href="https://github.com/pymedphys/pymedphys/tree/main/lib/pymedphys/_dicom/delivery/__init__.py" xlink:title="_dicom.delivery">
<ellipse fill="none" stroke="black" cx="506.81" cy="-152" rx="83.39" ry="18"/>
<text text-anchor="middle" x="506.81" y="-148.3" font-family="Times,serif" font-size="14.00">_dicom.delivery</text>
</a>
</g>
</g>
<!-- pymedphys._delivery&#45;&gt;pymedphys._dicom.delivery -->
<g id="edge5" class="edge">
<title>pymedphys._delivery&#45;&gt;pymedphys._dicom.delivery</title>
<path fill="none" stroke="black" d="M312.82,-257.1C327.62,-235.2 355.66,-198.6 389.17,-179 400.25,-172.52 412.78,-167.59 425.4,-163.85"/>
<polygon fill="black" stroke="black" points="426.33,-167.23 435.05,-161.21 424.48,-160.47 426.33,-167.23"/>
</g>
<!-- pymedphys._trf.decode.delivery -->
<g id="node8" class="node">
<title>pymedphys._trf.decode.delivery</title>
<g id="a_node8"><a xlink:href="https://github.com/pymedphys/pymedphys/tree/main/lib/pymedphys/_trf/decode/delivery.py" xlink:title="_trf.decode.delivery">
<ellipse fill="none" stroke="black" cx="506.81" cy="-206" rx="102.88" ry="18"/>
<text text-anchor="middle" x="506.81" y="-202.3" font-family="Times,serif" font-size="14.00">_trf.decode.delivery</text>
</a>
</g>
</g>
<!-- pymedphys._delivery&#45;&gt;pymedphys._trf.decode.delivery -->
<g id="edge6" class="edge">
<title>pymedphys._delivery&#45;&gt;pymedphys._trf.decode.delivery</title>
<path fill="none" stroke="black" d="M332.78,-260.62C349.33,-253.31 370.13,-244.6 389.17,-238 404.45,-232.7 421.1,-227.7 436.9,-223.29"/>
<polygon fill="black" stroke="black" points="437.89,-226.64 446.61,-220.62 436.04,-219.89 437.89,-226.64"/>
</g>
<!-- pymedphys._base.delivery -->
<g id="node2" class="node">
<title>pymedphys._base.delivery</title>
<g id="a_node2"><a xlink:href="https://github.com/pymedphys/pymedphys/tree/main/lib/pymedphys/_base/delivery.py" xlink:title="_base.delivery">
<ellipse fill="none" stroke="black" cx="1116.31" cy="-288" rx="77.19" ry="18"/>
<text text-anchor="middle" x="1116.31" y="-284.3" font-family="Times,serif" font-size="14.00">_base.delivery</text>
</a>
</g>
</g>
<!-- pymedphys._utilities.controlpoints -->
<g id="node11" class="node">
<title>pymedphys._utilities.controlpoints</title>
<g id="a_node11"><a xlink:href="https://github.com/pymedphys/pymedphys/tree/main/lib/pymedphys/_utilities/controlpoints.py" xlink:title="_utilities.controlpoints">
<ellipse fill="none" stroke="black" cx="1434.39" cy="-288" rx="115.08" ry="18"/>
<text text-anchor="middle" x="1434.39" y="-284.3" font-family="Times,serif" font-size="14.00">_utilities.controlpoints</text>
</a>
</g>
</g>
<!-- pymedphys._base.delivery&#45;&gt;pymedphys._utilities.controlpoints -->
<g id="edge7" class="edge">
<title>pymedphys._base.delivery&#45;&gt;pymedphys._utilities.controlpoints</title>
<path fill="none" stroke="black" d="M1193.83,-288C1228.38,-288 1270.08,-288 1308.95,-288"/>
<polygon fill="black" stroke="black" points="1309.29,-291.5 1319.29,-288 1309.29,-284.5 1309.29,-291.5"/>
</g>
<!-- pymedphys._icom.delivery&#45;&gt;pymedphys._base.delivery -->
<g id="edge8" class="edge">
<title>pymedphys._icom.delivery&#45;&gt;pymedphys._base.delivery</title>
<path fill="none" stroke="black" d="M563.41,-339.65C582.77,-335.21 604.61,-330.05 624.45,-325 640.54,-320.9 644.07,-317.73 660.45,-315 787.37,-293.85 936.63,-288.68 1028.61,-287.72"/>
<polygon fill="black" stroke="black" points="1028.74,-291.21 1038.71,-287.62 1028.68,-284.21 1028.74,-291.21"/>
</g>
<!-- pymedphys._icom.extract -->
<g id="node9" class="node">
<title>pymedphys._icom.extract</title>
<g id="a_node9"><a xlink:href="https://github.com/pymedphys/pymedphys/tree/main/lib/pymedphys/_icom/extract.py" xlink:title="_icom.extract">
<ellipse fill="none" stroke="black" cx="799.54" cy="-477" rx="73.39" ry="18"/>
<text text-anchor="middle" x="799.54" y="-473.3" font-family="Times,serif" font-size="14.00">_icom.extract</text>
</a>
</g>
</g>
<!-- pymedphys._icom.delivery&#45;&gt;pymedphys._icom.extract -->
<g id="edge9" class="edge">
<title>pymedphys._icom.delivery&#45;&gt;pymedphys._icom.extract</title>
<path fill="none" stroke="black" d="M541.19,-368.26C571.93,-383.06 618.93,-405.25 660.45,-423 689.54,-435.44 722.53,-448.38 748.96,-458.48"/>
<polygon fill="black" stroke="black" points="747.8,-461.78 758.39,-462.06 750.29,-455.23 747.8,-461.78"/>
</g>
<!-- pymedphys._mosaiq.delivery&#45;&gt;pymedphys._base.delivery -->
<g id="edge10" class="edge">
<title>pymedphys._mosaiq.delivery&#45;&gt;pymedphys._base.delivery</title>
<path fill="none" stroke="black" d="M884.62,-390.4C903.52,-386.29 922.67,-379.64 938.63,-369 962.63,-353 950.6,-330.96 974.63,-315 991.11,-304.05 1010.94,-297.3 1030.43,-293.2"/>
<polygon fill="black" stroke="black" points="1031.1,-296.64 1040.27,-291.34 1029.8,-289.76 1031.1,-296.64"/>
</g>
<!-- pymedphys._utilities.transforms -->
<g id="node12" class="node">
<title>pymedphys._utilities.transforms</title>
<g id="a_node12"><a xlink:href="https://github.com/pymedphys/pymedphys/tree/main/lib/pymedphys/_utilities/transforms/__init__.py" xlink:title="_utilities.transforms">
<ellipse fill="none" stroke="black" cx="1116.31" cy="-180" rx="104.78" ry="18"/>
<text text-anchor="middle" x="1116.31" y="-176.3" font-family="Times,serif" font-size="14.00">_utilities.transforms</text>
</a>
</g>
</g>
<!-- pymedphys._mosaiq.delivery&#45;&gt;pymedphys._utilities.transforms -->
<g id="edge11" class="edge">
<title>pymedphys._mosaiq.delivery&#45;&gt;pymedphys._utilities.transforms</title>
<path fill="none" stroke="black" d="M888.19,-394.28C906.83,-390 924.98,-382.3 938.63,-369 991.44,-317.52 921.72,-258.39 974.63,-207 983.34,-198.54 993.84,-192.32 1005.14,-187.8"/>
<polygon fill="black" stroke="black" points="1006.53,-191.02 1014.8,-184.39 1004.2,-184.42 1006.53,-191.02"/>
</g>
<!-- pymedphys._mosaiq.constants -->
<g id="node13" class="node">
<title>pymedphys._mosaiq.constants</title>
<g id="a_node13"><a xlink:href="https://github.com/pymedphys/pymedphys/tree/main/lib/pymedphys/_mosaiq/constants.py" xlink:title="_mosaiq.constants">
<ellipse fill="none" stroke="black" cx="1116.31" cy="-450" rx="96.38" ry="18"/>
<text text-anchor="middle" x="1116.31" y="-446.3" font-family="Times,serif" font-size="14.00">_mosaiq.constants</text>
</a>
</g>
</g>
<!-- pymedphys._mosaiq.delivery&#45;&gt;pymedphys._mosaiq.constants -->
<g id="edge12" class="edge">
<title>pymedphys._mosaiq.delivery&#45;&gt;pymedphys._mosaiq.constants</title>
<path fill="none" stroke="black" d="M868.07,-407.58C916.93,-415.97 983.16,-427.33 1034.78,-436.18"/>
<polygon fill="black" stroke="black" points="1034.45,-439.68 1044.9,-437.92 1035.63,-432.78 1034.45,-439.68"/>
</g>
<!-- pymedphys._mosaiq.connect -->
<g id="node14" class="node">
<title>pymedphys._mosaiq.connect</title>
<g id="a_node14"><a xlink:href="https://github.com/pymedphys/pymedphys/tree/main/lib/pymedphys/_mosaiq/connect.py" xlink:title="_mosaiq.connect">
<ellipse fill="none" stroke="black" cx="1116.31" cy="-396" rx="87.18" ry="18"/>
<text text-anchor="middle" x="1116.31" y="-392.3" font-family="Times,serif" font-size="14.00">_mosaiq.connect</text>
</a>
</g>
</g>
<!-- pymedphys._mosaiq.delivery&#45;&gt;pymedphys._mosaiq.connect -->
<g id="edge13" class="edge">
<title>pymedphys._mosaiq.delivery&#45;&gt;pymedphys._mosaiq.connect</title>
<path fill="none" stroke="black" d="M888.64,-396C929.22,-396 977.47,-396 1019.01,-396"/>
<polygon fill="black" stroke="black" points="1019.14,-399.5 1029.14,-396 1019.14,-392.5 1019.14,-399.5"/>
</g>
<!-- pymedphys._metersetmap.delivery.core -->
<g id="node24" class="node">
<title>pymedphys._metersetmap.delivery.core</title>
<g id="a_node24"><a xlink:href="https://github.com/pymedphys/pymedphys/tree/main/lib/pymedphys/_metersetmap/delivery/core.py" xlink:title="_metersetmap.delivery.core">
<ellipse fill="none" stroke="black" cx="799.54" cy="-342" rx="139.18" ry="18"/>
<text text-anchor="middle" x="799.54" y="-338.3" font-family="Times,serif" font-size="14.00">_metersetmap.delivery.core</text>
</a>
</g>
</g>
<!-- pymedphys._metersetmap.delivery&#45;&gt;pymedphys._metersetmap.delivery.core -->
<g id="edge14" class="edge">
<title>pymedphys._metersetmap.delivery&#45;&gt;pymedphys._metersetmap.delivery.core</title>
<path fill="none" stroke="black" d="M591.12,-310.61C624.49,-315.66 663.23,-321.52 698.13,-326.8"/>
<polygon fill="black" stroke="black" points="697.94,-330.31 708.35,-328.35 698.98,-323.39 697.94,-330.31"/>
</g>
<!-- pymedphys._monaco.delivery&#45;&gt;pymedphys._base.delivery -->
<g id="edge15" class="edge">
<title>pymedphys._monaco.delivery&#45;&gt;pymedphys._base.delivery</title>
<path fill="none" stroke="black" d="M866.33,-224.24C889.49,-229.34 915.5,-235.96 938.63,-244 955.34,-249.81 957.8,-255.51 974.63,-261 995.24,-267.73 1018.13,-273 1039.36,-277.04"/>
<polygon fill="black" stroke="black" points="1038.84,-280.5 1049.31,-278.86 1040.1,-273.61 1038.84,-280.5"/>
</g>
<!-- pymedphys._monaco.delivery&#45;&gt;pymedphys._utilities.transforms -->
<g id="edge16" class="edge">
<title>pymedphys._monaco.delivery&#45;&gt;pymedphys._utilities.transforms</title>
<path fill="none" stroke="black" d="M880.78,-203.84C921.85,-199.67 972.22,-194.55 1015.74,-190.12"/>
<polygon fill="black" stroke="black" points="1016.18,-193.6 1025.78,-189.1 1015.48,-186.63 1016.18,-193.6"/>
</g>
<!-- pymedphys._monaco.utility -->
<g id="node22" class="node">
<title>pymedphys._monaco.utility</title>
<g id="a_node22"><a xlink:href="https://github.com/pymedphys/pymedphys/tree/main/lib/pymedphys/_monaco/utility.py" xlink:title="_monaco.utility">
<ellipse fill="none" stroke="black" cx="1116.31" cy="-234" rx="81.49" ry="18"/>
<text text-anchor="middle" x="1116.31" y="-230.3" font-family="Times,serif" font-size="14.00">_monaco.utility</text>
</a>
</g>
</g>
<!-- pymedphys._monaco.delivery&#45;&gt;pymedphys._monaco.utility -->
<g id="edge17" class="edge">
<title>pymedphys._monaco.delivery&#45;&gt;pymedphys._monaco.utility</title>
<path fill="none" stroke="black" d="M885.72,-217.95C929.98,-221.05 983.96,-224.82 1028.46,-227.93"/>
<polygon fill="black" stroke="black" points="1028.45,-231.44 1038.67,-228.64 1028.94,-224.45 1028.45,-231.44"/>
</g>
<!-- pymedphys._dicom.delivery.core -->
<g id="node10" class="node">
<title>pymedphys._dicom.delivery.core</title>
<g id="a_node10"><a xlink:href="https://github.com/pymedphys/pymedphys/tree/main/lib/pymedphys/_dicom/delivery/core.py" xlink:title="_dicom.delivery.core">
<ellipse fill="none" stroke="black" cx="799.54" cy="-156" rx="104.78" ry="18"/>
<text text-anchor="middle" x="799.54" y="-152.3" font-family="Times,serif" font-size="14.00">_dicom.delivery.core</text>
</a>
</g>
</g>
<!-- pymedphys._dicom.delivery&#45;&gt;pymedphys._dicom.delivery.core -->
<g id="edge18" class="edge">
<title>pymedphys._dicom.delivery&#45;&gt;pymedphys._dicom.delivery.core</title>
<path fill="none" stroke="black" d="M589.96,-153.13C619.43,-153.54 653.2,-154 684.87,-154.44"/>
<polygon fill="black" stroke="black" points="685.02,-157.94 695.07,-154.58 685.11,-150.94 685.02,-157.94"/>
</g>
<!-- pymedphys._trf.decode.delivery&#45;&gt;pymedphys._base.delivery -->
<g id="edge19" class="edge">
<title>pymedphys._trf.decode.delivery&#45;&gt;pymedphys._base.delivery</title>
<path fill="none" stroke="black" d="M568.07,-220.56C596.04,-226.93 629.8,-234.05 660.45,-239 789.69,-259.87 941.06,-274.18 1032.49,-281.72"/>
<polygon fill="black" stroke="black" points="1032.27,-285.22 1042.52,-282.54 1032.84,-278.24 1032.27,-285.22"/>
</g>
<!-- pymedphys._trf.decode.trf2pandas -->
<g id="node16" class="node">
<title>pymedphys._trf.decode.trf2pandas</title>
<g id="a_node16"><a xlink:href="https://github.com/pymedphys/pymedphys/tree/main/lib/pymedphys/_trf/decode/trf2pandas.py" xlink:title="_trf.decode.trf2pandas">
<ellipse fill="none" stroke="black" cx="799.54" cy="-72" rx="115.88" ry="18"/>
<text text-anchor="middle" x="799.54" y="-68.3" font-family="Times,serif" font-size="14.00">_trf.decode.trf2pandas</text>
</a>
</g>
</g>
<!-- pymedphys._trf.decode.delivery&#45;&gt;pymedphys._trf.decode.trf2pandas -->
<g id="edge20" class="edge">
<title>pymedphys._trf.decode.delivery&#45;&gt;pymedphys._trf.decode.trf2pandas</title>
<path fill="none" stroke="black" d="M589.06,-195.19C601.55,-191.32 613.81,-186.08 624.45,-179 647.25,-163.83 638.97,-145.99 660.45,-129 681.37,-112.45 707.77,-100 731.87,-91.03"/>
<polygon fill="black" stroke="black" points="733.1,-94.31 741.33,-87.63 730.73,-87.72 733.1,-94.31"/>
</g>
<!-- pymedphys._icom.mappings -->
<g id="node21" class="node">
<title>pymedphys._icom.mappings</title>
<g id="a_node21"><a xlink:href="https://github.com/pymedphys/pymedphys/tree/main/lib/pymedphys/_icom/mappings.py" xlink:title="_icom.mappings">
<ellipse fill="none" stroke="black" cx="1116.31" cy="-504" rx="85.29" ry="18"/>
<text text-anchor="middle" x="1116.31" y="-500.3" font-family="Times,serif" font-size="14.00">_icom.mappings</text>
</a>
</g>
</g>
<!-- pymedphys._icom.extract&#45;&gt;pymedphys._icom.mappings -->
<g id="edge21" class="edge">
<title>pymedphys._icom.extract&#45;&gt;pymedphys._icom.mappings</title>
<path fill="none" stroke="black" d="M869.23,-482.89C915.51,-486.86 977,-492.14 1026.93,-496.42"/>
<polygon fill="black" stroke="black" points="1026.81,-499.92 1037.07,-497.29 1027.41,-492.95 1026.81,-499.92"/>
</g>
<!-- pymedphys._dicom.delivery.core&#45;&gt;pymedphys._base.delivery -->
<g id="edge22" class="edge">
<title>pymedphys._dicom.delivery.core&#45;&gt;pymedphys._base.delivery</title>
<path fill="none" stroke="black" d="M894.84,-163.67C910.6,-168.21 925.93,-174.99 938.63,-185 967.98,-208.14 945.08,-238.11 974.63,-261 990.27,-273.12 1009.78,-280.31 1029.24,-284.47"/>
<polygon fill="black" stroke="black" points="1028.6,-287.91 1039.08,-286.33 1029.9,-281.03 1028.6,-287.91"/>
</g>
<!-- pymedphys._dicom.delivery.core&#45;&gt;pymedphys._utilities.transforms -->
<g id="edge23" class="edge">
<title>pymedphys._dicom.delivery.core&#45;&gt;pymedphys._utilities.transforms</title>
<path fill="none" stroke="black" d="M895.41,-163.23C931.56,-165.99 972.97,-169.15 1010.04,-171.97"/>
<polygon fill="black" stroke="black" points="1010.13,-175.49 1020.37,-172.76 1010.66,-168.51 1010.13,-175.49"/>
</g>
<!-- pymedphys._dicom.delivery.utilities -->
<g id="node15" class="node">
<title>pymedphys._dicom.delivery.utilities</title>
<g id="a_node15"><a xlink:href="https://github.com/pymedphys/pymedphys/tree/main/lib/pymedphys/_dicom/delivery/utilities.py" xlink:title="_dicom.delivery.utilities">
<ellipse fill="none" stroke="black" cx="1116.31" cy="-126" rx="120.48" ry="18"/>
<text text-anchor="middle" x="1116.31" y="-122.3" font-family="Times,serif" font-size="14.00">_dicom.delivery.utilities</text>
</a>
</g>
</g>
<!-- pymedphys._dicom.delivery.core&#45;&gt;pymedphys._dicom.delivery.utilities -->
<g id="edge24" class="edge">
<title>pymedphys._dicom.delivery.core&#45;&gt;pymedphys._dicom.delivery.utilities</title>
<path fill="none" stroke="black" d="M891.58,-147.32C926.77,-143.97 967.37,-140.1 1004.25,-136.59"/>
<polygon fill="black" stroke="black" points="1004.92,-140.04 1014.54,-135.6 1004.25,-133.07 1004.92,-140.04"/>
</g>
<!-- pymedphys._utilities.transforms.bipolar -->
<g id="node25" class="node">
<title>pymedphys._utilities.transforms.bipolar</title>
<g id="a_node25"><a xlink:href="https://github.com/pymedphys/pymedphys/tree/main/lib/pymedphys/_utilities/transforms/bipolar.py" xlink:title="_utilities.transforms.bipolar">
<ellipse fill="none" stroke="black" cx="1434.39" cy="-180" rx="140.28" ry="18"/>
<text text-anchor="middle" x="1434.39" y="-176.3" font-family="Times,serif" font-size="14.00">_utilities.transforms.bipolar</text>
</a>
</g>
</g>
<!-- pymedphys._utilities.transforms&#45;&gt;pymedphys._utilities.transforms.bipolar -->
<g id="edge25" class="edge">
<title>pymedphys._utilities.transforms&#45;&gt;pymedphys._utilities.transforms.bipolar</title>
<path fill="none" stroke="black" d="M1221.25,-180C1241.28,-180 1262.64,-180 1283.8,-180"/>
<polygon fill="black" stroke="black" points="1283.83,-183.5 1293.83,-180 1283.83,-176.5 1283.83,-183.5"/>
</g>
<!-- pymedphys._trf.decode.partition -->
<g id="node18" class="node">
<title>pymedphys._trf.decode.partition</title>
<g id="a_node18"><a xlink:href="https://github.com/pymedphys/pymedphys/tree/main/lib/pymedphys/_trf/decode/partition.py" xlink:title="_trf.decode.partition">
<ellipse fill="none" stroke="black" cx="1116.31" cy="-72" rx="105.08" ry="18"/>
<text text-anchor="middle" x="1116.31" y="-68.3" font-family="Times,serif" font-size="14.00">_trf.decode.partition</text>
</a>
</g>
</g>
<!-- pymedphys._trf.decode.trf2pandas&#45;&gt;pymedphys._trf.decode.partition -->
<g id="edge26" class="edge">
<title>pymedphys._trf.decode.trf2pandas&#45;&gt;pymedphys._trf.decode.partition</title>
<path fill="none" stroke="black" d="M915.52,-72C943.28,-72 972.95,-72 1000.69,-72"/>
<polygon fill="black" stroke="black" points="1000.82,-75.5 1010.82,-72 1000.82,-68.5 1000.82,-75.5"/>
</g>
<!-- pymedphys._trf.decode.table -->
<g id="node19" class="node">
<title>pymedphys._trf.decode.table</title>
<g id="a_node19"><a xlink:href="https://github.com/pymedphys/pymedphys/tree/main/lib/pymedphys/_trf/decode/table.py" xlink:title="_trf.decode.table">
<ellipse fill="none" stroke="black" cx="1116.31" cy="-18" rx="88.28" ry="18"/>
<text text-anchor="middle" x="1116.31" y="-14.3" font-family="Times,serif" font-size="14.00">_trf.decode.table</text>
</a>
</g>
</g>
<!-- pymedphys._trf.decode.trf2pandas&#45;&gt;pymedphys._trf.decode.table -->
<g id="edge27" class="edge">
<title>pymedphys._trf.decode.trf2pandas&#45;&gt;pymedphys._trf.decode.table</title>
<path fill="none" stroke="black" d="M877.94,-58.72C926.74,-50.35 989.5,-39.58 1038.23,-31.22"/>
<polygon fill="black" stroke="black" points="1038.82,-34.67 1048.09,-29.53 1037.64,-27.77 1038.82,-34.67"/>
</g>
<!-- pymedphys._trf.decode.constants -->
<g id="node17" class="node">
<title>pymedphys._trf.decode.constants</title>
<g id="a_node17"><a xlink:href="https://github.com/pymedphys/pymedphys/tree/main/lib/pymedphys/_trf/decode/constants.py" xlink:title="_trf.decode.constants">
<ellipse fill="none" stroke="black" cx="1434.39" cy="-18" rx="109.68" ry="18"/>
<text text-anchor="middle" x="1434.39" y="-14.3" font-family="Times,serif" font-size="14.00">_trf.decode.constants</text>
</a>
</g>
</g>
<!-- pymedphys._trf.decode.header -->
<g id="node20" class="node">
<title>pymedphys._trf.decode.header</title>
<g id="a_node20"><a xlink:href="https://github.com/pymedphys/pymedphys/tree/main/lib/pymedphys/_trf/decode/header.py" xlink:title="_trf.decode.header">
<ellipse fill="none" stroke="black" cx="1434.39" cy="-72" rx="96.68" ry="18"/>
<text text-anchor="middle" x="1434.39" y="-68.3" font-family="Times,serif" font-size="14.00">_trf.decode.header</text>
</a>
</g>
</g>
<!-- pymedphys._trf.decode.partition&#45;&gt;pymedphys._trf.decode.header -->
<g id="edge28" class="edge">
<title>pymedphys._trf.decode.partition&#45;&gt;pymedphys._trf.decode.header</title>
<path fill="none" stroke="black" d="M1221.68,-72C1255.5,-72 1293.03,-72 1326.99,-72"/>
<polygon fill="black" stroke="black" points="1327.41,-75.5 1337.41,-72 1327.41,-68.5 1327.41,-75.5"/>
</g>
<!-- pymedphys._trf.decode.table&#45;&gt;pymedphys._trf.decode.constants -->
<g id="edge29" class="edge">
<title>pymedphys._trf.decode.table&#45;&gt;pymedphys._trf.decode.constants</title>
<path fill="none" stroke="black" d="M1204.94,-18C1238.76,-18 1277.98,-18 1314.28,-18"/>
<polygon fill="black" stroke="black" points="1314.43,-21.5 1324.43,-18 1314.43,-14.5 1314.43,-21.5"/>
</g>
<!-- pymedphys._trf.decode.table&#45;&gt;pymedphys._trf.decode.header -->
<g id="edge30" class="edge">
<title>pymedphys._trf.decode.table&#45;&gt;pymedphys._trf.decode.header</title>
<path fill="none" stroke="black" d="M1184.73,-29.52C1233.87,-37.91 1300.66,-49.32 1352.65,-58.21"/>
<polygon fill="black" stroke="black" points="1352.06,-61.66 1362.51,-59.89 1353.24,-54.76 1352.06,-61.66"/>
</g>
<!-- pymedphys._utilities.filesystem -->
<g id="node23" class="node">
<title>pymedphys._utilities.filesystem</title>
<g id="a_node23"><a xlink:href="https://github.com/pymedphys/pymedphys/tree/main/lib/pymedphys/_utilities/filesystem.py" xlink:title="_utilities.filesystem">
<ellipse fill="none" stroke="black" cx="1434.39" cy="-234" rx="100.98" ry="18"/>
<text text-anchor="middle" x="1434.39" y="-230.3" font-family="Times,serif" font-size="14.00">_utilities.filesystem</text>
</a>
</g>
</g>
<!-- pymedphys._monaco.utility&#45;&gt;pymedphys._utilities.filesystem -->
<g id="edge31" class="edge">
<title>pymedphys._monaco.utility&#45;&gt;pymedphys._utilities.filesystem</title>
<path fill="none" stroke="black" d="M1197.89,-234C1235.99,-234 1282.08,-234 1323.34,-234"/>
<polygon fill="black" stroke="black" points="1323.44,-237.5 1333.44,-234 1323.44,-230.5 1323.44,-237.5"/>
</g>
<!-- pymedphys._metersetmap.delivery.core&#45;&gt;pymedphys._base.delivery -->
<g id="edge32" class="edge">
<title>pymedphys._metersetmap.delivery.core&#45;&gt;pymedphys._base.delivery</title>
<path fill="none" stroke="black" d="M884.07,-327.67C933.72,-319.15 996.05,-308.46 1043.49,-300.32"/>
<polygon fill="black" stroke="black" points="1044.11,-303.77 1053.38,-298.63 1042.93,-296.87 1044.11,-303.77"/>
</g>
<!-- pymedphys._metersetmap.metersetmap -->
<g id="node26" class="node">
<title>pymedphys._metersetmap.metersetmap</title>
<g id="a_node26"><a xlink:href="https://github.com/pymedphys/pymedphys/tree/main/lib/pymedphys/_metersetmap/metersetmap.py" xlink:title="_metersetmap.metersetmap">
<ellipse fill="none" stroke="black" cx="1116.31" cy="-342" rx="141.88" ry="18"/>
<text text-anchor="middle" x="1116.31" y="-338.3" font-family="Times,serif" font-size="14.00">_metersetmap.metersetmap</text>
</a>
</g>
</g>
<!-- pymedphys._metersetmap.delivery.core&#45;&gt;pymedphys._metersetmap.metersetmap -->
<g id="edge33" class="edge">
<title>pymedphys._metersetmap.delivery.core&#45;&gt;pymedphys._metersetmap.metersetmap</title>
<path fill="none" stroke="black" d="M939.06,-342C947.39,-342 955.78,-342 964.16,-342"/>
<polygon fill="black" stroke="black" points="964.35,-345.5 974.35,-342 964.35,-338.5 964.35,-345.5"/>
</g>
<!-- pymedphys._metersetmap.metersetmap&#45;&gt;pymedphys._utilities.controlpoints -->
<g id="edge34" class="edge">
<title>pymedphys._metersetmap.metersetmap&#45;&gt;pymedphys._utilities.controlpoints</title>
<path fill="none" stroke="black" d="M1201.6,-327.6C1246.23,-319.98 1300.98,-310.62 1346.05,-302.92"/>
<polygon fill="black" stroke="black" points="1346.84,-306.34 1356.11,-301.2 1345.66,-299.44 1346.84,-306.34"/>
</g>
<!-- pymedphys._utilities.constants -->
<g id="node27" class="node">
<title>pymedphys._utilities.constants</title>
<g id="a_node27"><a xlink:href="https://github.com/pymedphys/pymedphys/tree/main/lib/pymedphys/_utilities/constants/__init__.py" xlink:title="_utilities.constants">
<ellipse fill="none" stroke="black" cx="1434.39" cy="-342" rx="98.58" ry="18"/>
<text text-anchor="middle" x="1434.39" y="-338.3" font-family="Times,serif" font-size="14.00">_utilities.constants</text>
</a>
</g>
</g>
<!-- pymedphys._metersetmap.metersetmap&#45;&gt;pymedphys._utilities.constants -->
<g id="edge35" class="edge">
<title>pymedphys._metersetmap.metersetmap&#45;&gt;pymedphys._utilities.constants</title>
<path fill="none" stroke="black" d="M1258.25,-342C1280.7,-342 1303.62,-342 1325.17,-342"/>
<polygon fill="black" stroke="black" points="1325.29,-345.5 1335.29,-342 1325.29,-338.5 1325.29,-345.5"/>
</g>
<!-- pymedphys._metersetmap.plt -->
<g id="node28" class="node">
<title>pymedphys._metersetmap.plt</title>
<g id="a_node28"><a xlink:href="https://github.com/pymedphys/pymedphys/tree/main/lib/pymedphys/_metersetmap/plt/__init__.py" xlink:title="_metersetmap.plt">
<ellipse fill="none" stroke="black" cx="1434.39" cy="-396" rx="92.88" ry="18"/>
<text text-anchor="middle" x="1434.39" y="-392.3" font-family="Times,serif" font-size="14.00">_metersetmap.plt</text>
</a>
</g>
</g>
<!-- pymedphys._metersetmap.metersetmap&#45;&gt;pymedphys._metersetmap.plt -->
<g id="edge36" class="edge">
<title>pymedphys._metersetmap.metersetmap&#45;&gt;pymedphys._metersetmap.plt</title>
<path fill="none" stroke="black" d="M1201.6,-356.4C1248.88,-364.48 1307.51,-374.49 1353.97,-382.43"/>
<polygon fill="black" stroke="black" points="1353.55,-385.91 1364,-384.14 1354.73,-379.01 1353.55,-385.91"/>
</g>
<!-- pymedphys._utilities.constants.mlctypes -->
<g id="node29" class="node">
<title>pymedphys._utilities.constants.mlctypes</title>
<g id="a_node29"><a xlink:href="https://github.com/pymedphys/pymedphys/tree/main/lib/pymedphys/_utilities/constants/mlctypes.py" xlink:title="_utilities.constants.mlctypes">
<ellipse fill="none" stroke="black" cx="1754.41" cy="-342" rx="143.77" ry="18"/>
<text text-anchor="middle" x="1754.41" y="-338.3" font-family="Times,serif" font-size="14.00">_utilities.constants.mlctypes</text>
</a>
</g>
</g>
<!-- pymedphys._utilities.constants&#45;&gt;pymedphys._utilities.constants.mlctypes -->
<g id="edge37" class="edge">
<title>pymedphys._utilities.constants&#45;&gt;pymedphys._utilities.constants.mlctypes</title>
<path fill="none" stroke="black" d="M1533.4,-342C1554.7,-342 1577.73,-342 1600.58,-342"/>
<polygon fill="black" stroke="black" points="1600.71,-345.5 1610.71,-342 1600.71,-338.5 1600.71,-345.5"/>
</g>
<!-- pymedphys._metersetmap.plt.helpers -->
<g id="node30" class="node">
<title>pymedphys._metersetmap.plt.helpers</title>
<g id="a_node30"><a xlink:href="https://github.com/pymedphys/pymedphys/tree/main/lib/pymedphys/_metersetmap/plt/helpers.py" xlink:title="_metersetmap.plt.helpers">
<ellipse fill="none" stroke="black" cx="1754.41" cy="-396" rx="129.98" ry="18"/>
<text text-anchor="middle" x="1754.41" y="-392.3" font-family="Times,serif" font-size="14.00">_metersetmap.plt.helpers</text>
</a>
</g>
</g>
<!-- pymedphys._metersetmap.plt&#45;&gt;pymedphys._metersetmap.plt.helpers -->
<g id="edge38" class="edge">
<title>pymedphys._metersetmap.plt&#45;&gt;pymedphys._metersetmap.plt.helpers</title>
<path fill="none" stroke="black" d="M1527.37,-396C1554.45,-396 1584.7,-396 1614.04,-396"/>
<polygon fill="black" stroke="black" points="1614.38,-399.5 1624.38,-396 1614.38,-392.5 1614.38,-399.5"/>
</g>
<!-- pymedphys.Delivery -->
<g id="node31" class="node">
<title>pymedphys.Delivery</title>
<g id="a_node31"><a xlink:href="https://github.com/pymedphys/pymedphys/tree/main/lib/pymedphys/_delivery.py" xlink:title="pymedphys.Delivery">
<ellipse fill="none" stroke="black" cx="105.94" cy="-275" rx="105.88" ry="18"/>
<text text-anchor="middle" x="105.94" y="-271.3" font-family="Times,serif" font-size="14.00">pymedphys.Delivery</text>
</a>
</g>
</g>
<!-- pymedphys.Delivery&#45;&gt;pymedphys._delivery -->
<g id="edge39" class="edge">
<title>pymedphys.Delivery&#45;&gt;pymedphys._delivery</title>
<path fill="none" stroke="black" d="M211.97,-275C220.63,-275 229.2,-275 237.39,-275"/>
<polygon fill="black" stroke="black" points="237.54,-278.5 247.54,-275 237.54,-271.5 237.54,-278.5"/>
</g>
</g>
</svg>
