<?xml version="1.0" encoding="UTF-8" standalone="no"?>
<!DOCTYPE svg PUBLIC "-//W3C//DTD SVG 1.1//EN"
 "http://www.w3.org/Graphics/SVG/1.1/DTD/svg11.dtd">
<!-- Generated by graphviz version 2.43.0 (0)
 -->
<!-- Title: pymedphys._data Pages: 1 -->
<svg width="850pt" height="332pt"
 viewBox="0.00 0.00 850.28 332.00" xmlns="http://www.w3.org/2000/svg" xmlns:xlink="http://www.w3.org/1999/xlink">
<g id="graph0" class="graph" transform="scale(1 1) rotate(0) translate(4 328)">
<title>pymedphys._data</title>
<polygon fill="white" stroke="transparent" points="-4,4 -4,-328 846.28,-328 846.28,4 -4,4"/>
<!-- pymedphys._data -->
<g id="node1" class="node">
<title>pymedphys._data</title>
<g id="a_node1"><a xlink:href="https://github.com/pymedphys/pymedphys/tree/main/lib/pymedphys/_data/__init__.py" xlink:title="_data">
<ellipse fill="none" stroke="black" cx="444.84" cy="-234" rx="36" ry="18"/>
<text text-anchor="middle" x="444.84" y="-230.3" font-family="Times,serif" font-size="14.00">_data</text>
</a>
</g>
</g>
<!-- pymedphys._data.download -->
<g id="node2" class="node">
<title>pymedphys._data.download</title>
<g id="a_node2"><a xlink:href="https://github.com/pymedphys/pymedphys/tree/main/lib/pymedphys/_data/download.py" xlink:title="_data.download">
<ellipse fill="none" stroke="black" cx="444.84" cy="-162" rx="83.39" ry="18"/>
<text text-anchor="middle" x="444.84" y="-158.3" font-family="Times,serif" font-size="14.00">_data.download</text>
</a>
</g>
</g>
<!-- pymedphys._data&#45;&gt;pymedphys._data.download -->
<g id="edge1" class="edge">
<title>pymedphys._data&#45;&gt;pymedphys._data.download</title>
<path fill="none" stroke="black" d="M444.84,-215.7C444.84,-207.98 444.84,-198.71 444.84,-190.11"/>
<polygon fill="black" stroke="black" points="448.34,-190.1 444.84,-180.1 441.34,-190.1 448.34,-190.1"/>
</g>
<!-- pymedphys._data.retry -->
<g id="node3" class="node">
<title>pymedphys._data.retry</title>
<g id="a_node3"><a xlink:href="https://github.com/pymedphys/pymedphys/tree/main/lib/pymedphys/_data/retry.py" xlink:title="_data.retry">
<ellipse fill="none" stroke="black" cx="204.84" cy="-90" rx="61.99" ry="18"/>
<text text-anchor="middle" x="204.84" y="-86.3" font-family="Times,serif" font-size="14.00">_data.retry</text>
</a>
</g>
</g>
<!-- pymedphys._data.download&#45;&gt;pymedphys._data.retry -->
<g id="edge2" class="edge">
<title>pymedphys._data.download&#45;&gt;pymedphys._data.retry</title>
<path fill="none" stroke="black" d="M397.42,-147.17C356.83,-135.33 298.48,-118.31 256.66,-106.11"/>
<polygon fill="black" stroke="black" points="257.52,-102.72 246.94,-103.28 255.56,-109.44 257.52,-102.72"/>
</g>
<!-- pymedphys._data.zenodo -->
<g id="node4" class="node">
<title>pymedphys._data.zenodo</title>
<g id="a_node4"><a xlink:href="https://github.com/pymedphys/pymedphys/tree/main/lib/pymedphys/_data/zenodo.py" xlink:title="_data.zenodo">
<ellipse fill="none" stroke="black" cx="355.84" cy="-90" rx="71.49" ry="18"/>
<text text-anchor="middle" x="355.84" y="-86.3" font-family="Times,serif" font-size="14.00">_data.zenodo</text>
</a>
</g>
</g>
<!-- pymedphys._data.download&#45;&gt;pymedphys._data.zenodo -->
<g id="edge3" class="edge">
<title>pymedphys._data.download&#45;&gt;pymedphys._data.zenodo</title>
<path fill="none" stroke="black" d="M423.75,-144.41C412.11,-135.26 397.48,-123.76 384.79,-113.77"/>
<polygon fill="black" stroke="black" points="386.8,-110.9 376.78,-107.47 382.47,-116.4 386.8,-110.9"/>
</g>
<!-- pymedphys._utilities.filehash -->
<g id="node5" class="node">
<title>pymedphys._utilities.filehash</title>
<g id="a_node5"><a xlink:href="https://github.com/pymedphys/pymedphys/tree/main/lib/pymedphys/_utilities/filehash/__init__.py" xlink:title="_utilities.filehash">
<ellipse fill="none" stroke="black" cx="534.84" cy="-90" rx="89.88" ry="18"/>
<text text-anchor="middle" x="534.84" y="-86.3" font-family="Times,serif" font-size="14.00">_utilities.filehash</text>
</a>
</g>
</g>
<!-- pymedphys._data.download&#45;&gt;pymedphys._utilities.filehash -->
<g id="edge4" class="edge">
<title>pymedphys._data.download&#45;&gt;pymedphys._utilities.filehash</title>
<path fill="none" stroke="black" d="M466.17,-144.41C477.85,-135.32 492.51,-123.92 505.28,-113.99"/>
<polygon fill="black" stroke="black" points="507.61,-116.61 513.35,-107.71 503.31,-111.09 507.61,-116.61"/>
</g>
<!-- pymedphys._config -->
<g id="node6" class="node">
<title>pymedphys._config</title>
<g id="a_node6"><a xlink:href="https://github.com/pymedphys/pymedphys/tree/main/lib/pymedphys/_config.py" xlink:title="_config">
<ellipse fill="none" stroke="black" cx="685.84" cy="-90" rx="42.79" ry="18"/>
<text text-anchor="middle" x="685.84" y="-86.3" font-family="Times,serif" font-size="14.00">_config</text>
</a>
</g>
</g>
<!-- pymedphys._data.download&#45;&gt;pymedphys._config -->
<g id="edge5" class="edge">
<title>pymedphys._data.download&#45;&gt;pymedphys._config</title>
<path fill="none" stroke="black" d="M495.15,-147.52C533.32,-137.14 587.04,-122.2 633.84,-108 637.12,-107 640.51,-105.95 643.91,-104.88"/>
<polygon fill="black" stroke="black" points="644.99,-108.21 653.45,-101.82 642.86,-101.54 644.99,-108.21"/>
</g>
<!-- pymedphys._utilities.filehash.core -->
<g id="node7" class="node">
<title>pymedphys._utilities.filehash.core</title>
<g id="a_node7"><a xlink:href="https://github.com/pymedphys/pymedphys/tree/main/lib/pymedphys/_utilities/filehash/core.py" xlink:title="_utilities.filehash.core">
<ellipse fill="none" stroke="black" cx="534.84" cy="-18" rx="112.38" ry="18"/>
<text text-anchor="middle" x="534.84" y="-14.3" font-family="Times,serif" font-size="14.00">_utilities.filehash.core</text>
</a>
</g>
</g>
<!-- pymedphys._utilities.filehash&#45;&gt;pymedphys._utilities.filehash.core -->
<g id="edge6" class="edge">
<title>pymedphys._utilities.filehash&#45;&gt;pymedphys._utilities.filehash.core</title>
<path fill="none" stroke="black" d="M534.84,-71.7C534.84,-63.98 534.84,-54.71 534.84,-46.11"/>
<polygon fill="black" stroke="black" points="538.34,-46.1 534.84,-36.1 531.34,-46.1 538.34,-46.1"/>
</g>
<!-- pymedphys.zip_data_paths -->
<g id="node8" class="node">
<title>pymedphys.zip_data_paths</title>
<g id="a_node8"><a xlink:href="https://github.com/pymedphys/pymedphys/tree/main/lib/pymedphys/_data/__init__.py" xlink:title="pymedphys.zip_data_paths">
<ellipse fill="none" stroke="black" cx="135.84" cy="-306" rx="135.68" ry="18"/>
<text text-anchor="middle" x="135.84" y="-302.3" font-family="Times,serif" font-size="14.00">pymedphys.zip_data_paths</text>
</a>
</g>
</g>
<!-- pymedphys.zip_data_paths&#45;&gt;pymedphys._data -->
<g id="edge7" class="edge">
<title>pymedphys.zip_data_paths&#45;&gt;pymedphys._data</title>
<path fill="none" stroke="black" d="M201.37,-290.15C262.32,-276.35 351.3,-256.19 403.11,-244.45"/>
<polygon fill="black" stroke="black" points="403.98,-247.84 412.96,-242.22 402.43,-241.02 403.98,-247.84"/>
</g>
<!-- pymedphys.zenodo_data_paths -->
<g id="node9" class="node">
<title>pymedphys.zenodo_data_paths</title>
<g id="a_node9"><a xlink:href="https://github.com/pymedphys/pymedphys/tree/main/lib/pymedphys/_data/__init__.py" xlink:title="pymedphys.zenodo_data_paths">
<ellipse fill="none" stroke="black" cx="444.84" cy="-306" rx="154.87" ry="18"/>
<text text-anchor="middle" x="444.84" y="-302.3" font-family="Times,serif" font-size="14.00">pymedphys.zenodo_data_paths</text>
</a>
</g>
</g>
<!-- pymedphys.zenodo_data_paths&#45;&gt;pymedphys._data -->
<g id="edge8" class="edge">
<title>pymedphys.zenodo_data_paths&#45;&gt;pymedphys._data</title>
<path fill="none" stroke="black" d="M444.84,-287.7C444.84,-279.98 444.84,-270.71 444.84,-262.11"/>
<polygon fill="black" stroke="black" points="448.34,-262.1 444.84,-252.1 441.34,-262.1 448.34,-262.1"/>
</g>
<!-- pymedphys.data_path -->
<g id="node10" class="node">
<title>pymedphys.data_path</title>
<g id="a_node10"><a xlink:href="https://github.com/pymedphys/pymedphys/tree/main/lib/pymedphys/_data/__init__.py" xlink:title="pymedphys.data_path">
<ellipse fill="none" stroke="black" cx="729.84" cy="-306" rx="112.38" ry="18"/>
<text text-anchor="middle" x="729.84" y="-302.3" font-family="Times,serif" font-size="14.00">pymedphys.data_path</text>
</a>
</g>
</g>
<!-- pymedphys.data_path&#45;&gt;pymedphys._data -->
<g id="edge9" class="edge">
<title>pymedphys.data_path&#45;&gt;pymedphys._data</title>
<path fill="none" stroke="black" d="M671.13,-290.58C615.91,-277.02 534.65,-257.06 486.01,-245.11"/>
<polygon fill="black" stroke="black" points="486.7,-241.68 476.15,-242.69 485.03,-248.47 486.7,-241.68"/>
</g>
</g>
</svg>
