<?xml version="1.0" encoding="UTF-8" standalone="no"?>
<!DOCTYPE svg PUBLIC "-//W3C//DTD SVG 1.1//EN"
 "http://www.w3.org/Graphics/SVG/1.1/DTD/svg11.dtd">
<!-- Generated by graphviz version 2.43.0 (0)
 -->
<!-- Title: pymedphys._delivery Pages: 1 -->
<svg width="2179pt" height="476pt"
 viewBox="0.00 0.00 2178.98 476.00" xmlns="http://www.w3.org/2000/svg" xmlns:xlink="http://www.w3.org/1999/xlink">
<g id="graph0" class="graph" transform="scale(1 1) rotate(0) translate(4 472)">
<title>pymedphys._delivery</title>
<polygon fill="white" stroke="transparent" points="-4,4 -4,-472 2174.98,-472 2174.98,4 -4,4"/>
<!-- pymedphys._delivery -->
<g id="node1" class="node">
<title>pymedphys._delivery</title>
<g id="a_node1"><a xlink:href="https://github.com/pymedphys/pymedphys/tree/main/lib/pymedphys/_delivery.py" xlink:title="_delivery">
<ellipse fill="none" stroke="black" cx="920.14" cy="-378" rx="52.79" ry="18"/>
<text text-anchor="middle" x="920.14" y="-374.3" font-family="Times,serif" font-size="14.00">_delivery</text>
</a>
</g>
</g>
<!-- pymedphys._icom.delivery -->
<g id="node2" class="node">
<title>pymedphys._icom.delivery</title>
<g id="a_node2"><a xlink:href="https://github.com/pymedphys/pymedphys/tree/main/lib/pymedphys/_icom/delivery.py" xlink:title="_icom.delivery">
<ellipse fill="none" stroke="black" cx="596.14" cy="-306" rx="77.19" ry="18"/>
<text text-anchor="middle" x="596.14" y="-302.3" font-family="Times,serif" font-size="14.00">_icom.delivery</text>
</a>
</g>
</g>
<!-- pymedphys._delivery&#45;&gt;pymedphys._icom.delivery -->
<g id="edge1" class="edge">
<title>pymedphys._delivery&#45;&gt;pymedphys._icom.delivery</title>
<path fill="none" stroke="black" d="M876.78,-367.63C821.38,-355.66 724.99,-334.84 660.87,-320.99"/>
<polygon fill="black" stroke="black" points="661.39,-317.52 650.87,-318.82 659.91,-324.36 661.39,-317.52"/>
</g>
<!-- pymedphys._mosaiq.delivery -->
<g id="node3" class="node">
<title>pymedphys._mosaiq.delivery</title>
<g id="a_node3"><a xlink:href="https://github.com/pymedphys/pymedphys/tree/main/lib/pymedphys/_mosaiq/delivery.py" xlink:title="_mosaiq.delivery">
<ellipse fill="none" stroke="black" cx="558.14" cy="-234" rx="89.08" ry="18"/>
<text text-anchor="middle" x="558.14" y="-230.3" font-family="Times,serif" font-size="14.00">_mosaiq.delivery</text>
</a>
</g>
</g>
<!-- pymedphys._delivery&#45;&gt;pymedphys._mosaiq.delivery -->
<g id="edge2" class="edge">
<title>pymedphys._delivery&#45;&gt;pymedphys._mosaiq.delivery</title>
<path fill="none" stroke="black" d="M871.55,-371.03C829.39,-364.29 767.83,-350.59 720.14,-324 699.82,-312.67 701.59,-300.77 682.14,-288 660.65,-273.89 634.78,-262.13 612.25,-253.3"/>
<polygon fill="black" stroke="black" points="613.4,-250 602.81,-249.7 610.91,-256.54 613.4,-250"/>
</g>
<!-- pymedphys._metersetmap.delivery -->
<g id="node4" class="node">
<title>pymedphys._metersetmap.delivery</title>
<g id="a_node4"><a xlink:href="https://github.com/pymedphys/pymedphys/tree/main/lib/pymedphys/_metersetmap/delivery/__init__.py" xlink:title="_metersetmap.delivery">
<ellipse fill="none" stroke="black" cx="847.14" cy="-306" rx="117.78" ry="18"/>
<text text-anchor="middle" x="847.14" y="-302.3" font-family="Times,serif" font-size="14.00">_metersetmap.delivery</text>
</a>
</g>
</g>
<!-- pymedphys._delivery&#45;&gt;pymedphys._metersetmap.delivery -->
<g id="edge3" class="edge">
<title>pymedphys._delivery&#45;&gt;pymedphys._metersetmap.delivery</title>
<path fill="none" stroke="black" d="M903.21,-360.76C894.01,-351.95 882.47,-340.87 872.24,-331.07"/>
<polygon fill="black" stroke="black" points="874.38,-328.27 864.74,-323.88 869.54,-333.33 874.38,-328.27"/>
</g>
<!-- pymedphys._monaco.delivery -->
<g id="node5" class="node">
<title>pymedphys._monaco.delivery</title>
<g id="a_node5"><a xlink:href="https://github.com/pymedphys/pymedphys/tree/main/lib/pymedphys/_monaco/delivery.py" xlink:title="_monaco.delivery">
<ellipse fill="none" stroke="black" cx="1128.14" cy="-234" rx="90.98" ry="18"/>
<text text-anchor="middle" x="1128.14" y="-230.3" font-family="Times,serif" font-size="14.00">_monaco.delivery</text>
</a>
</g>
</g>
<!-- pymedphys._delivery&#45;&gt;pymedphys._monaco.delivery -->
<g id="edge4" class="edge">
<title>pymedphys._delivery&#45;&gt;pymedphys._monaco.delivery</title>
<path fill="none" stroke="black" d="M936.88,-360.52C962.24,-335.6 1007.92,-290.88 1012.14,-288 1032.05,-274.42 1055.99,-262.81 1076.95,-253.94"/>
<polygon fill="black" stroke="black" points="1078.43,-257.12 1086.34,-250.07 1075.76,-250.65 1078.43,-257.12"/>
</g>
<!-- pymedphys._dicom.delivery -->
<g id="node6" class="node">
<title>pymedphys._dicom.delivery</title>
<g id="a_node6"><a xlink:href="https://github.com/pymedphys/pymedphys/tree/main/lib/pymedphys/_dicom/delivery/__init__.py" xlink:title="_dicom.delivery">
<ellipse fill="none" stroke="black" cx="1337.14" cy="-306" rx="83.39" ry="18"/>
<text text-anchor="middle" x="1337.14" y="-302.3" font-family="Times,serif" font-size="14.00">_dicom.delivery</text>
</a>
</g>
</g>
<!-- pymedphys._delivery&#45;&gt;pymedphys._dicom.delivery -->
<g id="edge5" class="edge">
<title>pymedphys._delivery&#45;&gt;pymedphys._dicom.delivery</title>
<path fill="none" stroke="black" d="M966.46,-369.24C1028.05,-358.92 1140.28,-340.11 1236.14,-324 1245.03,-322.51 1254.35,-320.94 1263.6,-319.38"/>
<polygon fill="black" stroke="black" points="1264.29,-322.82 1273.57,-317.71 1263.13,-315.91 1264.29,-322.82"/>
</g>
<!-- pymedphys._trf.decode.delivery -->
<g id="node7" class="node">
<title>pymedphys._trf.decode.delivery</title>
<g id="a_node7"><a xlink:href="https://github.com/pymedphys/pymedphys/tree/main/lib/pymedphys/_trf/decode/delivery.py" xlink:title="_trf.decode.delivery">
<ellipse fill="none" stroke="black" cx="1124.14" cy="-306" rx="102.88" ry="18"/>
<text text-anchor="middle" x="1124.14" y="-302.3" font-family="Times,serif" font-size="14.00">_trf.decode.delivery</text>
</a>
</g>
</g>
<!-- pymedphys._delivery&#45;&gt;pymedphys._trf.decode.delivery -->
<g id="edge6" class="edge">
<title>pymedphys._delivery&#45;&gt;pymedphys._trf.decode.delivery</title>
<path fill="none" stroke="black" d="M956.14,-364.65C987.61,-353.85 1033.77,-338.01 1069.75,-325.66"/>
<polygon fill="black" stroke="black" points="1071.28,-328.84 1079.61,-322.28 1069.01,-322.22 1071.28,-328.84"/>
</g>
<!-- pymedphys._base.delivery -->
<g id="node8" class="node">
<title>pymedphys._base.delivery</title>
<g id="a_node8"><a xlink:href="https://github.com/pymedphys/pymedphys/tree/main/lib/pymedphys/_base/delivery.py" xlink:title="_base.delivery">
<ellipse fill="none" stroke="black" cx="969.14" cy="-162" rx="77.19" ry="18"/>
<text text-anchor="middle" x="969.14" y="-158.3" font-family="Times,serif" font-size="14.00">_base.delivery</text>
</a>
</g>
</g>
<!-- pymedphys._icom.delivery&#45;&gt;pymedphys._base.delivery -->
<g id="edge8" class="edge">
<title>pymedphys._icom.delivery&#45;&gt;pymedphys._base.delivery</title>
<path fill="none" stroke="black" d="M615.21,-288.46C627.08,-278.09 642.61,-264.38 656.14,-252 673.31,-236.3 673.44,-226.6 694.14,-216 770.25,-177.02 799.2,-196.29 883.14,-180 889.32,-178.8 895.74,-177.55 902.18,-176.28"/>
<polygon fill="black" stroke="black" points="903.12,-179.67 912.25,-174.3 901.77,-172.8 903.12,-179.67"/>
</g>
<!-- pymedphys._icom.extract -->
<g id="node10" class="node">
<title>pymedphys._icom.extract</title>
<g id="a_node10"><a xlink:href="https://github.com/pymedphys/pymedphys/tree/main/lib/pymedphys/_icom/extract.py" xlink:title="_icom.extract">
<ellipse fill="none" stroke="black" cx="252.14" cy="-234" rx="73.39" ry="18"/>
<text text-anchor="middle" x="252.14" y="-230.3" font-family="Times,serif" font-size="14.00">_icom.extract</text>
</a>
</g>
</g>
<!-- pymedphys._icom.delivery&#45;&gt;pymedphys._icom.extract -->
<g id="edge9" class="edge">
<title>pymedphys._icom.delivery&#45;&gt;pymedphys._icom.extract</title>
<path fill="none" stroke="black" d="M539.72,-293.52C478.48,-281.06 380.84,-261.19 316.61,-248.12"/>
<polygon fill="black" stroke="black" points="317.1,-244.65 306.6,-246.08 315.71,-251.51 317.1,-244.65"/>
</g>
<!-- pymedphys._mosaiq.delivery&#45;&gt;pymedphys._base.delivery -->
<g id="edge10" class="edge">
<title>pymedphys._mosaiq.delivery&#45;&gt;pymedphys._base.delivery</title>
<path fill="none" stroke="black" d="M624.63,-222C636.77,-220 649.34,-217.93 661.14,-216 759.79,-199.86 784.77,-197.69 883.14,-180 889.43,-178.87 895.98,-177.65 902.52,-176.41"/>
<polygon fill="black" stroke="black" points="903.6,-179.76 912.76,-174.43 902.28,-172.89 903.6,-179.76"/>
</g>
<!-- pymedphys._utilities.transforms -->
<g id="node11" class="node">
<title>pymedphys._utilities.transforms</title>
<g id="a_node11"><a xlink:href="https://github.com/pymedphys/pymedphys/tree/main/lib/pymedphys/_utilities/transforms/__init__.py" xlink:title="_utilities.transforms">
<ellipse fill="none" stroke="black" cx="1169.14" cy="-162" rx="104.78" ry="18"/>
<text text-anchor="middle" x="1169.14" y="-158.3" font-family="Times,serif" font-size="14.00">_utilities.transforms</text>
</a>
</g>
</g>
<!-- pymedphys._mosaiq.delivery&#45;&gt;pymedphys._utilities.transforms -->
<g id="edge11" class="edge">
<title>pymedphys._mosaiq.delivery&#45;&gt;pymedphys._utilities.transforms</title>
<path fill="none" stroke="black" d="M630.8,-223.58C651.27,-221.01 673.57,-218.31 694.14,-216 854.37,-198 895.13,-199.9 1055.14,-180 1064.57,-178.83 1074.43,-177.5 1084.23,-176.13"/>
<polygon fill="black" stroke="black" points="1085,-179.55 1094.4,-174.68 1084.01,-172.62 1085,-179.55"/>
</g>
<!-- pymedphys._mosaiq.constants -->
<g id="node12" class="node">
<title>pymedphys._mosaiq.constants</title>
<g id="a_node12"><a xlink:href="https://github.com/pymedphys/pymedphys/tree/main/lib/pymedphys/_mosaiq/constants.py" xlink:title="_mosaiq.constants">
<ellipse fill="none" stroke="black" cx="284.14" cy="-162" rx="96.38" ry="18"/>
<text text-anchor="middle" x="284.14" y="-158.3" font-family="Times,serif" font-size="14.00">_mosaiq.constants</text>
</a>
</g>
</g>
<!-- pymedphys._mosaiq.delivery&#45;&gt;pymedphys._mosaiq.constants -->
<g id="edge12" class="edge">
<title>pymedphys._mosaiq.delivery&#45;&gt;pymedphys._mosaiq.constants</title>
<path fill="none" stroke="black" d="M505.31,-219.5C460.6,-208.08 396.35,-191.67 348.61,-179.47"/>
<polygon fill="black" stroke="black" points="349.24,-176.02 338.69,-176.93 347.51,-182.8 349.24,-176.02"/>
</g>
<!-- pymedphys._mosaiq.connect -->
<g id="node13" class="node">
<title>pymedphys._mosaiq.connect</title>
<g id="a_node13"><a xlink:href="https://github.com/pymedphys/pymedphys/tree/main/lib/pymedphys/_mosaiq/connect.py" xlink:title="_mosaiq.connect">
<ellipse fill="none" stroke="black" cx="485.14" cy="-162" rx="87.18" ry="18"/>
<text text-anchor="middle" x="485.14" y="-158.3" font-family="Times,serif" font-size="14.00">_mosaiq.connect</text>
</a>
</g>
</g>
<!-- pymedphys._mosaiq.delivery&#45;&gt;pymedphys._mosaiq.connect -->
<g id="edge13" class="edge">
<title>pymedphys._mosaiq.delivery&#45;&gt;pymedphys._mosaiq.connect</title>
<path fill="none" stroke="black" d="M540.47,-216.05C531.33,-207.28 520.01,-196.43 510,-186.83"/>
<polygon fill="black" stroke="black" points="512.29,-184.18 502.65,-179.79 507.45,-189.24 512.29,-184.18"/>
</g>
<!-- pymedphys._metersetmap.delivery.core -->
<g id="node14" class="node">
<title>pymedphys._metersetmap.delivery.core</title>
<g id="a_node14"><a xlink:href="https://github.com/pymedphys/pymedphys/tree/main/lib/pymedphys/_metersetmap/delivery/core.py" xlink:title="_metersetmap.delivery.core">
<ellipse fill="none" stroke="black" cx="842.14" cy="-234" rx="139.18" ry="18"/>
<text text-anchor="middle" x="842.14" y="-230.3" font-family="Times,serif" font-size="14.00">_metersetmap.delivery.core</text>
</a>
</g>
</g>
<!-- pymedphys._metersetmap.delivery&#45;&gt;pymedphys._metersetmap.delivery.core -->
<g id="edge14" class="edge">
<title>pymedphys._metersetmap.delivery&#45;&gt;pymedphys._metersetmap.delivery.core</title>
<path fill="none" stroke="black" d="M845.91,-287.7C845.36,-279.98 844.69,-270.71 844.08,-262.11"/>
<polygon fill="black" stroke="black" points="847.57,-261.83 843.36,-252.1 840.59,-262.33 847.57,-261.83"/>
</g>
<!-- pymedphys._monaco.delivery&#45;&gt;pymedphys._base.delivery -->
<g id="edge15" class="edge">
<title>pymedphys._monaco.delivery&#45;&gt;pymedphys._base.delivery</title>
<path fill="none" stroke="black" d="M1092.46,-217.29C1068.92,-206.93 1037.91,-193.28 1012.89,-182.26"/>
<polygon fill="black" stroke="black" points="1014.18,-179 1003.61,-178.18 1011.36,-185.41 1014.18,-179"/>
</g>
<!-- pymedphys._monaco.delivery&#45;&gt;pymedphys._utilities.transforms -->
<g id="edge16" class="edge">
<title>pymedphys._monaco.delivery&#45;&gt;pymedphys._utilities.transforms</title>
<path fill="none" stroke="black" d="M1138.07,-216.05C1142.83,-207.92 1148.64,-198 1153.95,-188.94"/>
<polygon fill="black" stroke="black" points="1156.99,-190.67 1159.02,-180.28 1150.95,-187.14 1156.99,-190.67"/>
</g>
<!-- pymedphys._monaco.utility -->
<g id="node15" class="node">
<title>pymedphys._monaco.utility</title>
<g id="a_node15"><a xlink:href="https://github.com/pymedphys/pymedphys/tree/main/lib/pymedphys/_monaco/utility.py" xlink:title="_monaco.utility">
<ellipse fill="none" stroke="black" cx="1373.14" cy="-162" rx="81.49" ry="18"/>
<text text-anchor="middle" x="1373.14" y="-158.3" font-family="Times,serif" font-size="14.00">_monaco.utility</text>
</a>
</g>
</g>
<!-- pymedphys._monaco.delivery&#45;&gt;pymedphys._monaco.utility -->
<g id="edge17" class="edge">
<title>pymedphys._monaco.delivery&#45;&gt;pymedphys._monaco.utility</title>
<path fill="none" stroke="black" d="M1177.72,-218.83C1217.59,-207.44 1273.66,-191.42 1315.53,-179.46"/>
<polygon fill="black" stroke="black" points="1316.65,-182.78 1325.3,-176.67 1314.73,-176.05 1316.65,-182.78"/>
</g>
<!-- pymedphys._dicom.delivery.core -->
<g id="node16" class="node">
<title>pymedphys._dicom.delivery.core</title>
<g id="a_node16"><a xlink:href="https://github.com/pymedphys/pymedphys/tree/main/lib/pymedphys/_dicom/delivery/core.py" xlink:title="_dicom.delivery.core">
<ellipse fill="none" stroke="black" cx="1342.14" cy="-234" rx="104.78" ry="18"/>
<text text-anchor="middle" x="1342.14" y="-230.3" font-family="Times,serif" font-size="14.00">_dicom.delivery.core</text>
</a>
</g>
</g>
<!-- pymedphys._dicom.delivery&#45;&gt;pymedphys._dicom.delivery.core -->
<g id="edge18" class="edge">
<title>pymedphys._dicom.delivery&#45;&gt;pymedphys._dicom.delivery.core</title>
<path fill="none" stroke="black" d="M1338.38,-287.7C1338.93,-279.98 1339.59,-270.71 1340.21,-262.11"/>
<polygon fill="black" stroke="black" points="1343.7,-262.33 1340.92,-252.1 1336.72,-261.83 1343.7,-262.33"/>
</g>
<!-- pymedphys._trf.decode.delivery&#45;&gt;pymedphys._base.delivery -->
<g id="edge19" class="edge">
<title>pymedphys._trf.decode.delivery&#45;&gt;pymedphys._base.delivery</title>
<path fill="none" stroke="black" d="M1085.87,-289.13C1067.08,-280.1 1044.94,-267.49 1028.14,-252 1008.67,-234.05 992.56,-208.41 982.12,-189.26"/>
<polygon fill="black" stroke="black" points="985.09,-187.39 977.32,-180.18 978.9,-190.66 985.09,-187.39"/>
</g>
<!-- pymedphys._trf.decode.trf2pandas -->
<g id="node17" class="node">
<title>pymedphys._trf.decode.trf2pandas</title>
<g id="a_node17"><a xlink:href="https://github.com/pymedphys/pymedphys/tree/main/lib/pymedphys/_trf/decode/trf2pandas.py" xlink:title="_trf.decode.trf2pandas">
<ellipse fill="none" stroke="black" cx="1836.14" cy="-234" rx="115.88" ry="18"/>
<text text-anchor="middle" x="1836.14" y="-230.3" font-family="Times,serif" font-size="14.00">_trf.decode.trf2pandas</text>
</a>
</g>
</g>
<!-- pymedphys._trf.decode.delivery&#45;&gt;pymedphys._trf.decode.trf2pandas -->
<g id="edge20" class="edge">
<title>pymedphys._trf.decode.delivery&#45;&gt;pymedphys._trf.decode.trf2pandas</title>
<path fill="none" stroke="black" d="M1199.91,-293.76C1214.88,-291.71 1230.5,-289.68 1245.14,-288 1411.59,-268.86 1605.07,-252.65 1724.07,-243.37"/>
<polygon fill="black" stroke="black" points="1724.58,-246.84 1734.28,-242.57 1724.04,-239.86 1724.58,-246.84"/>
</g>
<!-- pymedphys._utilities.controlpoints -->
<g id="node9" class="node">
<title>pymedphys._utilities.controlpoints</title>
<g id="a_node9"><a xlink:href="https://github.com/pymedphys/pymedphys/tree/main/lib/pymedphys/_utilities/controlpoints.py" xlink:title="_utilities.controlpoints">
<ellipse fill="none" stroke="black" cx="930.14" cy="-90" rx="115.08" ry="18"/>
<text text-anchor="middle" x="930.14" y="-86.3" font-family="Times,serif" font-size="14.00">_utilities.controlpoints</text>
</a>
</g>
</g>
<!-- pymedphys._base.delivery&#45;&gt;pymedphys._utilities.controlpoints -->
<g id="edge7" class="edge">
<title>pymedphys._base.delivery&#45;&gt;pymedphys._utilities.controlpoints</title>
<path fill="none" stroke="black" d="M959.7,-144.05C955.22,-136.01 949.76,-126.2 944.75,-117.23"/>
<polygon fill="black" stroke="black" points="947.69,-115.31 939.77,-108.28 941.58,-118.71 947.69,-115.31"/>
</g>
<!-- pymedphys._icom.mappings -->
<g id="node18" class="node">
<title>pymedphys._icom.mappings</title>
<g id="a_node18"><a xlink:href="https://github.com/pymedphys/pymedphys/tree/main/lib/pymedphys/_icom/mappings.py" xlink:title="_icom.mappings">
<ellipse fill="none" stroke="black" cx="85.14" cy="-162" rx="85.29" ry="18"/>
<text text-anchor="middle" x="85.14" y="-158.3" font-family="Times,serif" font-size="14.00">_icom.mappings</text>
</a>
</g>
</g>
<!-- pymedphys._icom.extract&#45;&gt;pymedphys._icom.mappings -->
<g id="edge21" class="edge">
<title>pymedphys._icom.extract&#45;&gt;pymedphys._icom.mappings</title>
<path fill="none" stroke="black" d="M216.73,-218.15C191.72,-207.67 157.98,-193.53 130.93,-182.19"/>
<polygon fill="black" stroke="black" points="132.24,-178.95 121.66,-178.31 129.53,-185.4 132.24,-178.95"/>
</g>
<!-- pymedphys._utilities.transforms.bipolar -->
<g id="node20" class="node">
<title>pymedphys._utilities.transforms.bipolar</title>
<g id="a_node20"><a xlink:href="https://github.com/pymedphys/pymedphys/tree/main/lib/pymedphys/_utilities/transforms/bipolar.py" xlink:title="_utilities.transforms.bipolar">
<ellipse fill="none" stroke="black" cx="1203.14" cy="-90" rx="140.28" ry="18"/>
<text text-anchor="middle" x="1203.14" y="-86.3" font-family="Times,serif" font-size="14.00">_utilities.transforms.bipolar</text>
</a>
</g>
</g>
<!-- pymedphys._utilities.transforms&#45;&gt;pymedphys._utilities.transforms.bipolar -->
<g id="edge25" class="edge">
<title>pymedphys._utilities.transforms&#45;&gt;pymedphys._utilities.transforms.bipolar</title>
<path fill="none" stroke="black" d="M1177.37,-144.05C1181.24,-136.09 1185.94,-126.41 1190.27,-117.51"/>
<polygon fill="black" stroke="black" points="1193.53,-118.8 1194.75,-108.28 1187.23,-115.74 1193.53,-118.8"/>
</g>
<!-- pymedphys._metersetmap.delivery.core&#45;&gt;pymedphys._base.delivery -->
<g id="edge32" class="edge">
<title>pymedphys._metersetmap.delivery.core&#45;&gt;pymedphys._base.delivery</title>
<path fill="none" stroke="black" d="M872.24,-216.41C890.02,-206.61 912.67,-194.12 931.61,-183.69"/>
<polygon fill="black" stroke="black" points="933.5,-186.64 940.57,-178.75 930.12,-180.51 933.5,-186.64"/>
</g>
<!-- pymedphys._metersetmap.metersetmap -->
<g id="node26" class="node">
<title>pymedphys._metersetmap.metersetmap</title>
<g id="a_node26"><a xlink:href="https://github.com/pymedphys/pymedphys/tree/main/lib/pymedphys/_metersetmap/metersetmap.py" xlink:title="_metersetmap.metersetmap">
<ellipse fill="none" stroke="black" cx="732.14" cy="-162" rx="141.88" ry="18"/>
<text text-anchor="middle" x="732.14" y="-158.3" font-family="Times,serif" font-size="14.00">_metersetmap.metersetmap</text>
</a>
</g>
</g>
<!-- pymedphys._metersetmap.delivery.core&#45;&gt;pymedphys._metersetmap.metersetmap -->
<g id="edge33" class="edge">
<title>pymedphys._metersetmap.delivery.core&#45;&gt;pymedphys._metersetmap.metersetmap</title>
<path fill="none" stroke="black" d="M815.79,-216.23C801.21,-206.95 782.89,-195.29 767.12,-185.26"/>
<polygon fill="black" stroke="black" points="768.97,-182.29 758.66,-179.87 765.21,-188.19 768.97,-182.29"/>
</g>
<!-- pymedphys._utilities.filesystem -->
<g id="node25" class="node">
<title>pymedphys._utilities.filesystem</title>
<g id="a_node25"><a xlink:href="https://github.com/pymedphys/pymedphys/tree/main/lib/pymedphys/_utilities/filesystem.py" xlink:title="_utilities.filesystem">
<ellipse fill="none" stroke="black" cx="1462.14" cy="-90" rx="100.98" ry="18"/>
<text text-anchor="middle" x="1462.14" y="-86.3" font-family="Times,serif" font-size="14.00">_utilities.filesystem</text>
</a>
</g>
</g>
<!-- pymedphys._monaco.utility&#45;&gt;pymedphys._utilities.filesystem -->
<g id="edge31" class="edge">
<title>pymedphys._monaco.utility&#45;&gt;pymedphys._utilities.filesystem</title>
<path fill="none" stroke="black" d="M1394.23,-144.41C1405.79,-135.32 1420.28,-123.92 1432.91,-113.99"/>
<polygon fill="black" stroke="black" points="1435.2,-116.65 1440.89,-107.71 1430.87,-111.14 1435.2,-116.65"/>
</g>
<!-- pymedphys._dicom.delivery.core&#45;&gt;pymedphys._base.delivery -->
<g id="edge22" class="edge">
<title>pymedphys._dicom.delivery.core&#45;&gt;pymedphys._base.delivery</title>
<path fill="none" stroke="black" d="M1272.8,-220.45C1214.64,-209.86 1129.42,-194.2 1055.14,-180 1048.96,-178.82 1042.53,-177.58 1036.1,-176.32"/>
<polygon fill="black" stroke="black" points="1036.51,-172.83 1026.02,-174.35 1035.16,-179.7 1036.51,-172.83"/>
</g>
<!-- pymedphys._dicom.delivery.core&#45;&gt;pymedphys._utilities.transforms -->
<g id="edge23" class="edge">
<title>pymedphys._dicom.delivery.core&#45;&gt;pymedphys._utilities.transforms</title>
<path fill="none" stroke="black" d="M1302.89,-217.12C1277.67,-206.91 1244.73,-193.58 1217.85,-182.71"/>
<polygon fill="black" stroke="black" points="1218.83,-179.33 1208.24,-178.82 1216.2,-185.82 1218.83,-179.33"/>
</g>
<!-- pymedphys._dicom.delivery.utilities -->
<g id="node19" class="node">
<title>pymedphys._dicom.delivery.utilities</title>
<g id="a_node19"><a xlink:href="https://github.com/pymedphys/pymedphys/tree/main/lib/pymedphys/_dicom/delivery/utilities.py" xlink:title="_dicom.delivery.utilities">
<ellipse fill="none" stroke="black" cx="1592.14" cy="-162" rx="120.48" ry="18"/>
<text text-anchor="middle" x="1592.14" y="-158.3" font-family="Times,serif" font-size="14.00">_dicom.delivery.utilities</text>
</a>
</g>
</g>
<!-- pymedphys._dicom.delivery.core&#45;&gt;pymedphys._dicom.delivery.utilities -->
<g id="edge24" class="edge">
<title>pymedphys._dicom.delivery.core&#45;&gt;pymedphys._dicom.delivery.utilities</title>
<path fill="none" stroke="black" d="M1394.55,-218.33C1433.52,-207.41 1486.9,-192.47 1528.35,-180.86"/>
<polygon fill="black" stroke="black" points="1529.39,-184.21 1538.08,-178.14 1527.5,-177.46 1529.39,-184.21"/>
</g>
<!-- pymedphys._trf.decode.partition -->
<g id="node21" class="node">
<title>pymedphys._trf.decode.partition</title>
<g id="a_node21"><a xlink:href="https://github.com/pymedphys/pymedphys/tree/main/lib/pymedphys/_trf/decode/partition.py" xlink:title="_trf.decode.partition">
<ellipse fill="none" stroke="black" cx="1836.14" cy="-162" rx="105.08" ry="18"/>
<text text-anchor="middle" x="1836.14" y="-158.3" font-family="Times,serif" font-size="14.00">_trf.decode.partition</text>
</a>
</g>
</g>
<!-- pymedphys._trf.decode.trf2pandas&#45;&gt;pymedphys._trf.decode.partition -->
<g id="edge26" class="edge">
<title>pymedphys._trf.decode.trf2pandas&#45;&gt;pymedphys._trf.decode.partition</title>
<path fill="none" stroke="black" d="M1836.14,-215.7C1836.14,-207.98 1836.14,-198.71 1836.14,-190.11"/>
<polygon fill="black" stroke="black" points="1839.64,-190.1 1836.14,-180.1 1832.64,-190.1 1839.64,-190.1"/>
</g>
<!-- pymedphys._trf.decode.table -->
<g id="node22" class="node">
<title>pymedphys._trf.decode.table</title>
<g id="a_node22"><a xlink:href="https://github.com/pymedphys/pymedphys/tree/main/lib/pymedphys/_trf/decode/table.py" xlink:title="_trf.decode.table">
<ellipse fill="none" stroke="black" cx="2048.14" cy="-162" rx="88.28" ry="18"/>
<text text-anchor="middle" x="2048.14" y="-158.3" font-family="Times,serif" font-size="14.00">_trf.decode.table</text>
</a>
</g>
</g>
<!-- pymedphys._trf.decode.trf2pandas&#45;&gt;pymedphys._trf.decode.table -->
<g id="edge27" class="edge">
<title>pymedphys._trf.decode.trf2pandas&#45;&gt;pymedphys._trf.decode.table</title>
<path fill="none" stroke="black" d="M1883.19,-217.46C1915.94,-206.65 1959.71,-192.2 1993.93,-180.9"/>
<polygon fill="black" stroke="black" points="1995.36,-184.11 2003.76,-177.65 1993.17,-177.47 1995.36,-184.11"/>
</g>
<!-- pymedphys._trf.decode.header -->
<g id="node24" class="node">
<title>pymedphys._trf.decode.header</title>
<g id="a_node24"><a xlink:href="https://github.com/pymedphys/pymedphys/tree/main/lib/pymedphys/_trf/decode/header.py" xlink:title="_trf.decode.header">
<ellipse fill="none" stroke="black" cx="1836.14" cy="-90" rx="96.68" ry="18"/>
<text text-anchor="middle" x="1836.14" y="-86.3" font-family="Times,serif" font-size="14.00">_trf.decode.header</text>
</a>
</g>
</g>
<!-- pymedphys._trf.decode.partition&#45;&gt;pymedphys._trf.decode.header -->
<g id="edge28" class="edge">
<title>pymedphys._trf.decode.partition&#45;&gt;pymedphys._trf.decode.header</title>
<path fill="none" stroke="black" d="M1836.14,-143.7C1836.14,-135.98 1836.14,-126.71 1836.14,-118.11"/>
<polygon fill="black" stroke="black" points="1839.64,-118.1 1836.14,-108.1 1832.64,-118.1 1839.64,-118.1"/>
</g>
<!-- pymedphys._trf.decode.constants -->
<g id="node23" class="node">
<title>pymedphys._trf.decode.constants</title>
<g id="a_node23"><a xlink:href="https://github.com/pymedphys/pymedphys/tree/main/lib/pymedphys/_trf/decode/constants.py" xlink:title="_trf.decode.constants">
<ellipse fill="none" stroke="black" cx="2061.14" cy="-90" rx="109.68" ry="18"/>
<text text-anchor="middle" x="2061.14" y="-86.3" font-family="Times,serif" font-size="14.00">_trf.decode.constants</text>
</a>
</g>
</g>
<!-- pymedphys._trf.decode.table&#45;&gt;pymedphys._trf.decode.constants -->
<g id="edge29" class="edge">
<title>pymedphys._trf.decode.table&#45;&gt;pymedphys._trf.decode.constants</title>
<path fill="none" stroke="black" d="M2051.36,-143.7C2052.79,-135.98 2054.51,-126.71 2056.11,-118.11"/>
<polygon fill="black" stroke="black" points="2059.58,-118.58 2057.97,-108.1 2052.7,-117.3 2059.58,-118.58"/>
</g>
<!-- pymedphys._trf.decode.table&#45;&gt;pymedphys._trf.decode.header -->
<g id="edge30" class="edge">
<title>pymedphys._trf.decode.table&#45;&gt;pymedphys._trf.decode.header</title>
<path fill="none" stroke="black" d="M2003.7,-146.33C1970.96,-135.52 1926.23,-120.75 1891.22,-109.19"/>
<polygon fill="black" stroke="black" points="1892.22,-105.83 1881.62,-106.02 1890.02,-112.48 1892.22,-105.83"/>
</g>
<!-- pymedphys._metersetmap.metersetmap&#45;&gt;pymedphys._utilities.controlpoints -->
<g id="edge34" class="edge">
<title>pymedphys._metersetmap.metersetmap&#45;&gt;pymedphys._utilities.controlpoints</title>
<path fill="none" stroke="black" d="M777.57,-144.94C806.93,-134.56 845.29,-121 876.2,-110.07"/>
<polygon fill="black" stroke="black" points="877.69,-113.26 885.95,-106.62 875.36,-106.66 877.69,-113.26"/>
</g>
<!-- pymedphys._utilities.constants -->
<g id="node27" class="node">
<title>pymedphys._utilities.constants</title>
<g id="a_node27"><a xlink:href="https://github.com/pymedphys/pymedphys/tree/main/lib/pymedphys/_utilities/constants/__init__.py" xlink:title="_utilities.constants">
<ellipse fill="none" stroke="black" cx="698.14" cy="-90" rx="98.58" ry="18"/>
<text text-anchor="middle" x="698.14" y="-86.3" font-family="Times,serif" font-size="14.00">_utilities.constants</text>
</a>
</g>
</g>
<!-- pymedphys._metersetmap.metersetmap&#45;&gt;pymedphys._utilities.constants -->
<g id="edge35" class="edge">
<title>pymedphys._metersetmap.metersetmap&#45;&gt;pymedphys._utilities.constants</title>
<path fill="none" stroke="black" d="M723.74,-143.7C719.87,-135.73 715.19,-126.1 710.9,-117.26"/>
<polygon fill="black" stroke="black" points="713.97,-115.57 706.45,-108.1 707.67,-118.63 713.97,-115.57"/>
</g>
<!-- pymedphys._metersetmap.plt -->
<g id="node28" class="node">
<title>pymedphys._metersetmap.plt</title>
<g id="a_node28"><a xlink:href="https://github.com/pymedphys/pymedphys/tree/main/lib/pymedphys/_metersetmap/plt/__init__.py" xlink:title="_metersetmap.plt">
<ellipse fill="none" stroke="black" cx="468.14" cy="-90" rx="92.88" ry="18"/>
<text text-anchor="middle" x="468.14" y="-86.3" font-family="Times,serif" font-size="14.00">_metersetmap.plt</text>
</a>
</g>
</g>
<!-- pymedphys._metersetmap.metersetmap&#45;&gt;pymedphys._metersetmap.plt -->
<g id="edge36" class="edge">
<title>pymedphys._metersetmap.metersetmap&#45;&gt;pymedphys._metersetmap.plt</title>
<path fill="none" stroke="black" d="M673.88,-145.55C631.48,-134.31 574.13,-119.1 530.75,-107.6"/>
<polygon fill="black" stroke="black" points="531.44,-104.16 520.88,-104.98 529.65,-110.93 531.44,-104.16"/>
</g>
<!-- pymedphys._utilities.constants.mlctypes -->
<g id="node29" class="node">
<title>pymedphys._utilities.constants.mlctypes</title>
<g id="a_node29"><a xlink:href="https://github.com/pymedphys/pymedphys/tree/main/lib/pymedphys/_utilities/constants/mlctypes.py" xlink:title="_utilities.constants.mlctypes">
<ellipse fill="none" stroke="black" cx="719.14" cy="-18" rx="143.77" ry="18"/>
<text text-anchor="middle" x="719.14" y="-14.3" font-family="Times,serif" font-size="14.00">_utilities.constants.mlctypes</text>
</a>
</g>
</g>
<!-- pymedphys._utilities.constants&#45;&gt;pymedphys._utilities.constants.mlctypes -->
<g id="edge37" class="edge">
<title>pymedphys._utilities.constants&#45;&gt;pymedphys._utilities.constants.mlctypes</title>
<path fill="none" stroke="black" d="M703.33,-71.7C705.67,-63.9 708.49,-54.51 711.09,-45.83"/>
<polygon fill="black" stroke="black" points="714.49,-46.69 714.01,-36.1 707.79,-44.68 714.49,-46.69"/>
</g>
<!-- pymedphys._metersetmap.plt.helpers -->
<g id="node30" class="node">
<title>pymedphys._metersetmap.plt.helpers</title>
<g id="a_node30"><a xlink:href="https://github.com/pymedphys/pymedphys/tree/main/lib/pymedphys/_metersetmap/plt/helpers.py" xlink:title="_metersetmap.plt.helpers">
<ellipse fill="none" stroke="black" cx="427.14" cy="-18" rx="129.98" ry="18"/>
<text text-anchor="middle" x="427.14" y="-14.3" font-family="Times,serif" font-size="14.00">_metersetmap.plt.helpers</text>
</a>
</g>
</g>
<!-- pymedphys._metersetmap.plt&#45;&gt;pymedphys._metersetmap.plt.helpers -->
<g id="edge38" class="edge">
<title>pymedphys._metersetmap.plt&#45;&gt;pymedphys._metersetmap.plt.helpers</title>
<path fill="none" stroke="black" d="M458.22,-72.05C453.45,-63.92 447.64,-54 442.34,-44.94"/>
<polygon fill="black" stroke="black" points="445.34,-43.14 437.26,-36.28 439.29,-46.67 445.34,-43.14"/>
</g>
<!-- pymedphys.Delivery -->
<g id="node31" class="node">
<title>pymedphys.Delivery</title>
<g id="a_node31"><a xlink:href="https://github.com/pymedphys/pymedphys/tree/main/lib/pymedphys/_delivery.py" xlink:title="pymedphys.Delivery">
<ellipse fill="none" stroke="black" cx="920.14" cy="-450" rx="105.88" ry="18"/>
<text text-anchor="middle" x="920.14" y="-446.3" font-family="Times,serif" font-size="14.00">pymedphys.Delivery</text>
</a>
</g>
</g>
<!-- pymedphys.Delivery&#45;&gt;pymedphys._delivery -->
<g id="edge39" class="edge">
<title>pymedphys.Delivery&#45;&gt;pymedphys._delivery</title>
<path fill="none" stroke="black" d="M920.14,-431.7C920.14,-423.98 920.14,-414.71 920.14,-406.11"/>
<polygon fill="black" stroke="black" points="923.64,-406.1 920.14,-396.1 916.64,-406.1 923.64,-406.1"/>
</g>
</g>
</svg>
