<?xml version="1.0" encoding="UTF-8" standalone="no"?>
<!DOCTYPE svg PUBLIC "-//W3C//DTD SVG 1.1//EN"
 "http://www.w3.org/Graphics/SVG/1.1/DTD/svg11.dtd">
<!-- Generated by graphviz version 2.43.0 (0)
 -->
<!-- Title: pymedphys._trf.decode Pages: 1 -->
<svg width="1141pt" height="152pt"
 viewBox="0.00 0.00 1141.21 152.00" xmlns="http://www.w3.org/2000/svg" xmlns:xlink="http://www.w3.org/1999/xlink">
<g id="graph0" class="graph" transform="scale(1 1) rotate(0) translate(4 148)">
<title>pymedphys._trf.decode</title>
<polygon fill="white" stroke="transparent" points="-4,4 -4,-148 1137.21,-148 1137.21,4 -4,4"/>
<!-- pymedphys._trf.decode -->
<g id="node1" class="node">
<title>pymedphys._trf.decode</title>
<g id="a_node1"><a xlink:href="https://github.com/pymedphys/pymedphys/tree/main/lib/pymedphys/_trf/decode/__init__.py" xlink:title="_trf.decode">
<ellipse fill="none" stroke="black" cx="301.83" cy="-72" rx="61.99" ry="18"/>
<text text-anchor="middle" x="301.83" y="-68.3" font-family="Times,serif" font-size="14.00">_trf.decode</text>
</a>
</g>
</g>
<!-- pymedphys._trf.decode.trf2pandas -->
<g id="node2" class="node">
<title>pymedphys._trf.decode.trf2pandas</title>
<g id="a_node2"><a xlink:href="https://github.com/pymedphys/pymedphys/tree/main/lib/pymedphys/_trf/decode/trf2pandas.py" xlink:title="_trf.decode.trf2pandas">
<ellipse fill="none" stroke="black" cx="515.26" cy="-72" rx="115.88" ry="18"/>
<text text-anchor="middle" x="515.26" y="-68.3" font-family="Times,serif" font-size="14.00">_trf.decode.trf2pandas</text>
</a>
</g>
</g>
<!-- pymedphys._trf.decode&#45;&gt;pymedphys._trf.decode.trf2pandas -->
<g id="edge1" class="edge">
<title>pymedphys._trf.decode&#45;&gt;pymedphys._trf.decode.trf2pandas</title>
<path fill="none" stroke="black" d="M363.7,-72C371.77,-72 380.26,-72 388.94,-72"/>
<polygon fill="black" stroke="black" points="389.19,-75.5 399.19,-72 389.19,-68.5 389.19,-75.5"/>
</g>
<!-- pymedphys._trf.decode.partition -->
<g id="node3" class="node">
<title>pymedphys._trf.decode.partition</title>
<g id="a_node3"><a xlink:href="https://github.com/pymedphys/pymedphys/tree/main/lib/pymedphys/_trf/decode/partition.py" xlink:title="_trf.decode.partition">
<ellipse fill="none" stroke="black" cx="772.24" cy="-126" rx="105.08" ry="18"/>
<text text-anchor="middle" x="772.24" y="-122.3" font-family="Times,serif" font-size="14.00">_trf.decode.partition</text>
</a>
</g>
</g>
<!-- pymedphys._trf.decode.trf2pandas&#45;&gt;pymedphys._trf.decode.partition -->
<g id="edge2" class="edge">
<title>pymedphys._trf.decode.trf2pandas&#45;&gt;pymedphys._trf.decode.partition</title>
<path fill="none" stroke="black" d="M584.59,-86.47C618.69,-93.69 660.05,-102.45 695.16,-109.89"/>
<polygon fill="black" stroke="black" points="694.86,-113.4 705.36,-112.05 696.31,-106.55 694.86,-113.4"/>
</g>
<!-- pymedphys._trf.decode.table -->
<g id="node4" class="node">
<title>pymedphys._trf.decode.table</title>
<g id="a_node4"><a xlink:href="https://github.com/pymedphys/pymedphys/tree/main/lib/pymedphys/_trf/decode/table.py" xlink:title="_trf.decode.table">
<ellipse fill="none" stroke="black" cx="772.24" cy="-72" rx="88.28" ry="18"/>
<text text-anchor="middle" x="772.24" y="-68.3" font-family="Times,serif" font-size="14.00">_trf.decode.table</text>
</a>
</g>
</g>
<!-- pymedphys._trf.decode.trf2pandas&#45;&gt;pymedphys._trf.decode.table -->
<g id="edge3" class="edge">
<title>pymedphys._trf.decode.trf2pandas&#45;&gt;pymedphys._trf.decode.table</title>
<path fill="none" stroke="black" d="M631.07,-72C645.32,-72 659.79,-72 673.75,-72"/>
<polygon fill="black" stroke="black" points="673.81,-75.5 683.81,-72 673.81,-68.5 673.81,-75.5"/>
</g>
<!-- pymedphys._trf.decode.header -->
<g id="node5" class="node">
<title>pymedphys._trf.decode.header</title>
<g id="a_node5"><a xlink:href="https://github.com/pymedphys/pymedphys/tree/main/lib/pymedphys/_trf/decode/header.py" xlink:title="_trf.decode.header">
<ellipse fill="none" stroke="black" cx="772.24" cy="-18" rx="96.68" ry="18"/>
<text text-anchor="middle" x="772.24" y="-14.3" font-family="Times,serif" font-size="14.00">_trf.decode.header</text>
</a>
</g>
</g>
<!-- pymedphys._trf.decode.trf2pandas&#45;&gt;pymedphys._trf.decode.header -->
<g id="edge4" class="edge">
<title>pymedphys._trf.decode.trf2pandas&#45;&gt;pymedphys._trf.decode.header</title>
<path fill="none" stroke="black" d="M584.59,-57.53C619.51,-50.13 662.05,-41.13 697.69,-33.58"/>
<polygon fill="black" stroke="black" points="698.49,-36.99 707.54,-31.49 697.04,-30.14 698.49,-36.99"/>
</g>
<!-- pymedphys._trf.decode.constants -->
<g id="node6" class="node">
<title>pymedphys._trf.decode.constants</title>
<g id="a_node6"><a xlink:href="https://github.com/pymedphys/pymedphys/tree/main/lib/pymedphys/_trf/decode/constants.py" xlink:title="_trf.decode.constants">
<ellipse fill="none" stroke="black" cx="1023.37" cy="-72" rx="109.68" ry="18"/>
<text text-anchor="middle" x="1023.37" y="-68.3" font-family="Times,serif" font-size="14.00">_trf.decode.constants</text>
</a>
</g>
</g>
<!-- pymedphys._trf.decode.table&#45;&gt;pymedphys._trf.decode.constants -->
<g id="edge5" class="edge">
<title>pymedphys._trf.decode.table&#45;&gt;pymedphys._trf.decode.constants</title>
<path fill="none" stroke="black" d="M860.72,-72C874.38,-72 888.68,-72 902.9,-72"/>
<polygon fill="black" stroke="black" points="903.22,-75.5 913.22,-72 903.22,-68.5 903.22,-75.5"/>
</g>
<!-- pymedphys.trf.read -->
<g id="node7" class="node">
<title>pymedphys.trf.read</title>
<g id="a_node7"><a xlink:href="https://github.com/pymedphys/pymedphys/tree/main/lib/pymedphys/_trf/decode/__init__.py" xlink:title="pymedphys.trf.read">
<ellipse fill="none" stroke="black" cx="102.04" cy="-72" rx="102.08" ry="18"/>
<text text-anchor="middle" x="102.04" y="-68.3" font-family="Times,serif" font-size="14.00">pymedphys.trf.read</text>
</a>
</g>
</g>
<!-- pymedphys.trf.read&#45;&gt;pymedphys._trf.decode -->
<g id="edge6" class="edge">
<title>pymedphys.trf.read&#45;&gt;pymedphys._trf.decode</title>
<path fill="none" stroke="black" d="M204.25,-72C212.9,-72 221.53,-72 229.86,-72"/>
<polygon fill="black" stroke="black" points="229.87,-75.5 239.87,-72 229.87,-68.5 229.87,-75.5"/>
</g>
</g>
</svg>
