<?xml version="1.0" encoding="UTF-8" standalone="no"?>
<!DOCTYPE svg PUBLIC "-//W3C//DTD SVG 1.1//EN"
 "http://www.w3.org/Graphics/SVG/1.1/DTD/svg11.dtd">
<!-- Generated by graphviz version 2.43.0 (0)
 -->
<!-- Title: pymedphys._mosaiq.helpers Pages: 1 -->
<svg width="687pt" height="152pt"
 viewBox="0.00 0.00 687.05 152.00" xmlns="http://www.w3.org/2000/svg" xmlns:xlink="http://www.w3.org/1999/xlink">
<g id="graph0" class="graph" transform="scale(1 1) rotate(0) translate(4 148)">
<title>pymedphys._mosaiq.helpers</title>
<polygon fill="white" stroke="transparent" points="-4,4 -4,-148 683.05,-148 683.05,4 -4,4"/>
<!-- pymedphys._mosaiq.helpers -->
<g id="node1" class="node">
<title>pymedphys._mosaiq.helpers</title>
<g id="a_node1"><a xlink:href="https://github.com/pymedphys/pymedphys/tree/main/lib/pymedphys/_mosaiq/helpers.py" xlink:title="_mosaiq.helpers">
<ellipse fill="none" stroke="black" cx="364.87" cy="-72" rx="85.59" ry="18"/>
<text text-anchor="middle" x="364.87" y="-68.3" font-family="Times,serif" font-size="14.00">_mosaiq.helpers</text>
</a>
</g>
</g>
<!-- pymedphys._mosaiq.constants -->
<g id="node2" class="node">
<title>pymedphys._mosaiq.constants</title>
<g id="a_node2"><a xlink:href="https://github.com/pymedphys/pymedphys/tree/main/lib/pymedphys/_mosaiq/constants.py" xlink:title="_mosaiq.constants">
<ellipse fill="none" stroke="black" cx="582.85" cy="-126" rx="96.38" ry="18"/>
<text text-anchor="middle" x="582.85" y="-122.3" font-family="Times,serif" font-size="14.00">_mosaiq.constants</text>
</a>
</g>
</g>
<!-- pymedphys._mosaiq.helpers&#45;&gt;pymedphys._mosaiq.constants -->
<g id="edge1" class="edge">
<title>pymedphys._mosaiq.helpers&#45;&gt;pymedphys._mosaiq.constants</title>
<path fill="none" stroke="black" d="M420.65,-85.7C449.17,-92.83 484.29,-101.61 514.46,-109.15"/>
<polygon fill="black" stroke="black" points="513.94,-112.63 524.49,-111.66 515.64,-105.84 513.94,-112.63"/>
</g>
<!-- pymedphys._mosaiq.connect -->
<g id="node3" class="node">
<title>pymedphys._mosaiq.connect</title>
<g id="a_node3"><a xlink:href="https://github.com/pymedphys/pymedphys/tree/main/lib/pymedphys/_mosaiq/connect.py" xlink:title="_mosaiq.connect">
<ellipse fill="none" stroke="black" cx="582.85" cy="-72" rx="87.18" ry="18"/>
<text text-anchor="middle" x="582.85" y="-68.3" font-family="Times,serif" font-size="14.00">_mosaiq.connect</text>
</a>
</g>
</g>
<!-- pymedphys._mosaiq.helpers&#45;&gt;pymedphys._mosaiq.connect -->
<g id="edge2" class="edge">
<title>pymedphys._mosaiq.helpers&#45;&gt;pymedphys._mosaiq.connect</title>
<path fill="none" stroke="black" d="M450.92,-72C462.24,-72 473.92,-72 485.42,-72"/>
<polygon fill="black" stroke="black" points="485.46,-75.5 495.46,-72 485.46,-68.5 485.46,-75.5"/>
</g>
<!-- pymedphys._utilities.patient -->
<g id="node4" class="node">
<title>pymedphys._utilities.patient</title>
<g id="a_node4"><a xlink:href="https://github.com/pymedphys/pymedphys/tree/main/lib/pymedphys/_utilities/patient.py" xlink:title="_utilities.patient">
<ellipse fill="none" stroke="black" cx="582.85" cy="-18" rx="87.18" ry="18"/>
<text text-anchor="middle" x="582.85" y="-14.3" font-family="Times,serif" font-size="14.00">_utilities.patient</text>
</a>
</g>
</g>
<!-- pymedphys._mosaiq.helpers&#45;&gt;pymedphys._utilities.patient -->
<g id="edge3" class="edge">
<title>pymedphys._mosaiq.helpers&#45;&gt;pymedphys._utilities.patient</title>
<path fill="none" stroke="black" d="M420.65,-58.3C449.97,-50.97 486.27,-41.9 516.99,-34.22"/>
<polygon fill="black" stroke="black" points="517.9,-37.6 526.76,-31.78 516.21,-30.81 517.9,-37.6"/>
</g>
<!-- pymedphys.mosaiq.qcls -->
<g id="node5" class="node">
<title>pymedphys.mosaiq.qcls</title>
<g id="a_node5"><a xlink:href="https://github.com/pymedphys/pymedphys/tree/main/lib/pymedphys/_mosaiq/helpers.py" xlink:title="pymedphys.mosaiq.qcls">
<ellipse fill="none" stroke="black" cx="121.54" cy="-72" rx="121.58" ry="18"/>
<text text-anchor="middle" x="121.54" y="-68.3" font-family="Times,serif" font-size="14.00">pymedphys.mosaiq.qcls</text>
</a>
</g>
</g>
<!-- pymedphys.mosaiq.qcls&#45;&gt;pymedphys._mosaiq.helpers -->
<g id="edge4" class="edge">
<title>pymedphys.mosaiq.qcls&#45;&gt;pymedphys._mosaiq.helpers</title>
<path fill="none" stroke="black" d="M243.21,-72C251.75,-72 260.3,-72 268.67,-72"/>
<polygon fill="black" stroke="black" points="268.79,-75.5 278.79,-72 268.79,-68.5 268.79,-75.5"/>
</g>
</g>
</svg>
