<?xml version="1.0" encoding="UTF-8" standalone="no"?>
<!DOCTYPE svg PUBLIC "-//W3C//DTD SVG 1.1//EN"
 "http://www.w3.org/Graphics/SVG/1.1/DTD/svg11.dtd">
<!-- Generated by graphviz version 2.43.0 (0)
 -->
<!-- Title: pymedphys._delivery Pages: 1 -->
<svg width="1823pt" height="584pt"
 viewBox="0.00 0.00 1822.86 584.00" xmlns="http://www.w3.org/2000/svg" xmlns:xlink="http://www.w3.org/1999/xlink">
<g id="graph0" class="graph" transform="scale(1 1) rotate(0) translate(4 580)">
<title>pymedphys._delivery</title>
<polygon fill="white" stroke="transparent" points="-4,4 -4,-580 1818.86,-580 1818.86,4 -4,4"/>
<!-- pymedphys._delivery -->
<g id="node1" class="node">
<title>pymedphys._delivery</title>
<g id="a_node1"><a xlink:href="https://github.com/pymedphys/pymedphys/tree/main/lib/pymedphys/_delivery.py" xlink:title="_delivery">
<ellipse fill="none" stroke="black" cx="300.53" cy="-288" rx="52.79" ry="18"/>
<text text-anchor="middle" x="300.53" y="-284.3" font-family="Times,serif" font-size="14.00">_delivery</text>
</a>
</g>
</g>
<!-- pymedphys._base.delivery -->
<g id="node2" class="node">
<title>pymedphys._base.delivery</title>
<g id="a_node2"><a xlink:href="https://github.com/pymedphys/pymedphys/tree/main/lib/pymedphys/_base/delivery.py" xlink:title="_base.delivery">
<ellipse fill="none" stroke="black" cx="506.81" cy="-537" rx="77.19" ry="18"/>
<text text-anchor="middle" x="506.81" y="-533.3" font-family="Times,serif" font-size="14.00">_base.delivery</text>
</a>
</g>
</g>
<!-- pymedphys._delivery&#45;&gt;pymedphys._base.delivery -->
<g id="edge1" class="edge">
<title>pymedphys._delivery&#45;&gt;pymedphys._base.delivery</title>
<path fill="none" stroke="black" d="M304.58,-305.98C312.06,-344.77 334.81,-437.05 389.17,-490 403.56,-504.01 422.66,-514.02 441.23,-521.09"/>
<polygon fill="black" stroke="black" points="440.28,-524.47 450.87,-524.53 442.63,-517.88 440.28,-524.47"/>
</g>
<!-- pymedphys._icom.delivery -->
<g id="node3" class="node">
<title>pymedphys._icom.delivery</title>
<g id="a_node3"><a xlink:href="https://github.com/pymedphys/pymedphys/tree/main/lib/pymedphys/_icom/delivery.py" xlink:title="_icom.delivery">
<ellipse fill="none" stroke="black" cx="506.81" cy="-463" rx="77.19" ry="18"/>
<text text-anchor="middle" x="506.81" y="-459.3" font-family="Times,serif" font-size="14.00">_icom.delivery</text>
</a>
</g>
</g>
<!-- pymedphys._delivery&#45;&gt;pymedphys._icom.delivery -->
<g id="edge2" class="edge">
<title>pymedphys._delivery&#45;&gt;pymedphys._icom.delivery</title>
<path fill="none" stroke="black" d="M312.9,-305.76C328.19,-328.66 357.18,-368.76 389.17,-396 410.9,-414.49 438.45,-430.59 461.32,-442.37"/>
<polygon fill="black" stroke="black" points="459.97,-445.62 470.48,-446.99 463.13,-439.37 459.97,-445.62"/>
</g>
<!-- pymedphys._mosaiq.delivery -->
<g id="node4" class="node">
<title>pymedphys._mosaiq.delivery</title>
<g id="a_node4"><a xlink:href="https://github.com/pymedphys/pymedphys/tree/main/lib/pymedphys/_mosaiq/delivery.py" xlink:title="_mosaiq.delivery">
<ellipse fill="none" stroke="black" cx="506.81" cy="-369" rx="89.08" ry="18"/>
<text text-anchor="middle" x="506.81" y="-365.3" font-family="Times,serif" font-size="14.00">_mosaiq.delivery</text>
</a>
</g>
</g>
<!-- pymedphys._delivery&#45;&gt;pymedphys._mosaiq.delivery -->
<g id="edge3" class="edge">
<title>pymedphys._delivery&#45;&gt;pymedphys._mosaiq.delivery</title>
<path fill="none" stroke="black" d="M335.72,-301.56C368.56,-314.58 418.56,-334.4 455.86,-349.19"/>
<polygon fill="black" stroke="black" points="454.95,-352.6 465.54,-353.03 457.53,-346.09 454.95,-352.6"/>
</g>
<!-- pymedphys._metersetmap.delivery -->
<g id="node5" class="node">
<title>pymedphys._metersetmap.delivery</title>
<g id="a_node5"><a xlink:href="https://github.com/pymedphys/pymedphys/tree/main/lib/pymedphys/_metersetmap/delivery/__init__.py" xlink:title="_metersetmap.delivery">
<ellipse fill="none" stroke="black" cx="506.81" cy="-288" rx="117.78" ry="18"/>
<text text-anchor="middle" x="506.81" y="-284.3" font-family="Times,serif" font-size="14.00">_metersetmap.delivery</text>
</a>
</g>
</g>
<!-- pymedphys._delivery&#45;&gt;pymedphys._metersetmap.delivery -->
<g id="edge4" class="edge">
<title>pymedphys._delivery&#45;&gt;pymedphys._metersetmap.delivery</title>
<path fill="none" stroke="black" d="M353.34,-288C361.41,-288 370.05,-288 378.94,-288"/>
<polygon fill="black" stroke="black" points="379.09,-291.5 389.09,-288 379.09,-284.5 379.09,-291.5"/>
</g>
<!-- pymedphys._monaco.delivery -->
<g id="node6" class="node">
<title>pymedphys._monaco.delivery</title>
<g id="a_node6"><a xlink:href="https://github.com/pymedphys/pymedphys/tree/main/lib/pymedphys/_monaco/delivery.py" xlink:title="_monaco.delivery">
<ellipse fill="none" stroke="black" cx="506.81" cy="-234" rx="90.98" ry="18"/>
<text text-anchor="middle" x="506.81" y="-230.3" font-family="Times,serif" font-size="14.00">_monaco.delivery</text>
</a>
</g>
</g>
<!-- pymedphys._delivery&#45;&gt;pymedphys._monaco.delivery -->
<g id="edge5" class="edge">
<title>pymedphys._delivery&#45;&gt;pymedphys._monaco.delivery</title>
<path fill="none" stroke="black" d="M339.32,-275.71C354.71,-270.88 372.72,-265.43 389.17,-261 403.91,-257.03 419.78,-253.12 434.93,-249.55"/>
<polygon fill="black" stroke="black" points="435.82,-252.94 444.77,-247.27 434.23,-246.12 435.82,-252.94"/>
</g>
<!-- pymedphys._dicom.delivery -->
<g id="node7" class="node">
<title>pymedphys._dicom.delivery</title>
<g id="a_node7"><a xlink:href="https://github.com/pymedphys/pymedphys/tree/main/lib/pymedphys/_dicom/delivery/__init__.py" xlink:title="_dicom.delivery">
<ellipse fill="none" stroke="black" cx="506.81" cy="-180" rx="83.39" ry="18"/>
<text text-anchor="middle" x="506.81" y="-176.3" font-family="Times,serif" font-size="14.00">_dicom.delivery</text>
</a>
</g>
</g>
<!-- pymedphys._delivery&#45;&gt;pymedphys._dicom.delivery -->
<g id="edge6" class="edge">
<title>pymedphys._delivery&#45;&gt;pymedphys._dicom.delivery</title>
<path fill="none" stroke="black" d="M315.42,-270.63C331.28,-252.02 358.96,-222.99 389.17,-207 400.81,-200.84 413.83,-196.08 426.84,-192.39"/>
<polygon fill="black" stroke="black" points="427.98,-195.71 436.76,-189.78 426.2,-188.94 427.98,-195.71"/>
</g>
<!-- pymedphys._trf.decode.delivery -->
<g id="node8" class="node">
<title>pymedphys._trf.decode.delivery</title>
<g id="a_node8"><a xlink:href="https://github.com/pymedphys/pymedphys/tree/main/lib/pymedphys/_trf/decode/delivery.py" xlink:title="_trf.decode.delivery">
<ellipse fill="none" stroke="black" cx="506.81" cy="-99" rx="102.88" ry="18"/>
<text text-anchor="middle" x="506.81" y="-95.3" font-family="Times,serif" font-size="14.00">_trf.decode.delivery</text>
</a>
</g>
</g>
<!-- pymedphys._delivery&#45;&gt;pymedphys._trf.decode.delivery -->
<g id="edge7" class="edge">
<title>pymedphys._delivery&#45;&gt;pymedphys._trf.decode.delivery</title>
<path fill="none" stroke="black" d="M309.21,-269.96C322.04,-241.69 350.32,-186.68 389.17,-153 405.91,-138.49 427.21,-127.11 447.01,-118.62"/>
<polygon fill="black" stroke="black" points="448.37,-121.84 456.28,-114.8 445.7,-115.37 448.37,-121.84"/>
</g>
<!-- pymedphys._utilities.controlpoints -->
<g id="node11" class="node">
<title>pymedphys._utilities.controlpoints</title>
<g id="a_node11"><a xlink:href="https://github.com/pymedphys/pymedphys/tree/main/lib/pymedphys/_utilities/controlpoints.py" xlink:title="_utilities.controlpoints">
<ellipse fill="none" stroke="black" cx="799.54" cy="-558" rx="115.08" ry="18"/>
<text text-anchor="middle" x="799.54" y="-554.3" font-family="Times,serif" font-size="14.00">_utilities.controlpoints</text>
</a>
</g>
</g>
<!-- pymedphys._base.delivery&#45;&gt;pymedphys._utilities.controlpoints -->
<g id="edge8" class="edge">
<title>pymedphys._base.delivery&#45;&gt;pymedphys._utilities.controlpoints</title>
<path fill="none" stroke="black" d="M580.8,-542.27C612.18,-544.54 649.61,-547.24 684.51,-549.76"/>
<polygon fill="black" stroke="black" points="684.53,-553.27 694.76,-550.5 685.04,-546.29 684.53,-553.27"/>
</g>
<!-- pymedphys._icom.extract -->
<g id="node9" class="node">
<title>pymedphys._icom.extract</title>
<g id="a_node9"><a xlink:href="https://github.com/pymedphys/pymedphys/tree/main/lib/pymedphys/_icom/extract.py" xlink:title="_icom.extract">
<ellipse fill="none" stroke="black" cx="799.54" cy="-504" rx="73.39" ry="18"/>
<text text-anchor="middle" x="799.54" y="-500.3" font-family="Times,serif" font-size="14.00">_icom.extract</text>
</a>
</g>
</g>
<!-- pymedphys._icom.delivery&#45;&gt;pymedphys._icom.extract -->
<g id="edge9" class="edge">
<title>pymedphys._icom.delivery&#45;&gt;pymedphys._icom.extract</title>
<path fill="none" stroke="black" d="M573.42,-472.25C618.51,-478.61 678.43,-487.06 725.12,-493.65"/>
<polygon fill="black" stroke="black" points="724.78,-497.13 735.17,-495.06 725.75,-490.2 724.78,-497.13"/>
</g>
<!-- pymedphys._utilities.transforms -->
<g id="node12" class="node">
<title>pymedphys._utilities.transforms</title>
<g id="a_node12"><a xlink:href="https://github.com/pymedphys/pymedphys/tree/main/lib/pymedphys/_utilities/transforms/__init__.py" xlink:title="_utilities.transforms">
<ellipse fill="none" stroke="black" cx="799.54" cy="-450" rx="104.78" ry="18"/>
<text text-anchor="middle" x="799.54" y="-446.3" font-family="Times,serif" font-size="14.00">_utilities.transforms</text>
</a>
</g>
</g>
<!-- pymedphys._mosaiq.delivery&#45;&gt;pymedphys._utilities.transforms -->
<g id="edge10" class="edge">
<title>pymedphys._mosaiq.delivery&#45;&gt;pymedphys._utilities.transforms</title>
<path fill="none" stroke="black" d="M548.11,-385.09C578.59,-396.8 621.67,-412.41 660.45,-423 677.65,-427.7 696.27,-431.91 714.09,-435.53"/>
<polygon fill="black" stroke="black" points="713.41,-438.97 723.9,-437.48 714.78,-432.1 713.41,-438.97"/>
</g>
<!-- pymedphys._mosaiq.constants -->
<g id="node13" class="node">
<title>pymedphys._mosaiq.constants</title>
<g id="a_node13"><a xlink:href="https://github.com/pymedphys/pymedphys/tree/main/lib/pymedphys/_mosaiq/constants.py" xlink:title="_mosaiq.constants">
<ellipse fill="none" stroke="black" cx="799.54" cy="-396" rx="96.38" ry="18"/>
<text text-anchor="middle" x="799.54" y="-392.3" font-family="Times,serif" font-size="14.00">_mosaiq.constants</text>
</a>
</g>
</g>
<!-- pymedphys._mosaiq.delivery&#45;&gt;pymedphys._mosaiq.constants -->
<g id="edge11" class="edge">
<title>pymedphys._mosaiq.delivery&#45;&gt;pymedphys._mosaiq.constants</title>
<path fill="none" stroke="black" d="M588.02,-376.45C623.51,-379.75 665.53,-383.65 702.66,-387.1"/>
<polygon fill="black" stroke="black" points="702.71,-390.62 713,-388.06 703.36,-383.65 702.71,-390.62"/>
</g>
<!-- pymedphys._mosaiq.connect -->
<g id="node14" class="node">
<title>pymedphys._mosaiq.connect</title>
<g id="a_node14"><a xlink:href="https://github.com/pymedphys/pymedphys/tree/main/lib/pymedphys/_mosaiq/connect.py" xlink:title="_mosaiq.connect">
<ellipse fill="none" stroke="black" cx="799.54" cy="-342" rx="87.18" ry="18"/>
<text text-anchor="middle" x="799.54" y="-338.3" font-family="Times,serif" font-size="14.00">_mosaiq.connect</text>
</a>
</g>
</g>
<!-- pymedphys._mosaiq.delivery&#45;&gt;pymedphys._mosaiq.connect -->
<g id="edge12" class="edge">
<title>pymedphys._mosaiq.delivery&#45;&gt;pymedphys._mosaiq.connect</title>
<path fill="none" stroke="black" d="M588.02,-361.55C625.75,-358.05 670.85,-353.86 709.61,-350.26"/>
<polygon fill="black" stroke="black" points="710.21,-353.72 719.84,-349.31 709.56,-346.75 710.21,-353.72"/>
</g>
<!-- pymedphys._metersetmap.delivery.core -->
<g id="node24" class="node">
<title>pymedphys._metersetmap.delivery.core</title>
<g id="a_node24"><a xlink:href="https://github.com/pymedphys/pymedphys/tree/main/lib/pymedphys/_metersetmap/delivery/core.py" xlink:title="_metersetmap.delivery.core">
<ellipse fill="none" stroke="black" cx="799.54" cy="-288" rx="139.18" ry="18"/>
<text text-anchor="middle" x="799.54" y="-284.3" font-family="Times,serif" font-size="14.00">_metersetmap.delivery.core</text>
</a>
</g>
</g>
<!-- pymedphys._metersetmap.delivery&#45;&gt;pymedphys._metersetmap.delivery.core -->
<g id="edge13" class="edge">
<title>pymedphys._metersetmap.delivery&#45;&gt;pymedphys._metersetmap.delivery.core</title>
<path fill="none" stroke="black" d="M624.8,-288C633.2,-288 641.72,-288 650.26,-288"/>
<polygon fill="black" stroke="black" points="650.28,-291.5 660.28,-288 650.28,-284.5 650.28,-291.5"/>
</g>
<!-- pymedphys._monaco.utility -->
<g id="node22" class="node">
<title>pymedphys._monaco.utility</title>
<g id="a_node22"><a xlink:href="https://github.com/pymedphys/pymedphys/tree/main/lib/pymedphys/_monaco/utility.py" xlink:title="_monaco.utility">
<ellipse fill="none" stroke="black" cx="799.54" cy="-234" rx="81.49" ry="18"/>
<text text-anchor="middle" x="799.54" y="-230.3" font-family="Times,serif" font-size="14.00">_monaco.utility</text>
</a>
</g>
</g>
<!-- pymedphys._monaco.delivery&#45;&gt;pymedphys._monaco.utility -->
<g id="edge14" class="edge">
<title>pymedphys._monaco.delivery&#45;&gt;pymedphys._monaco.utility</title>
<path fill="none" stroke="black" d="M597.81,-234C632.72,-234 672.64,-234 707.63,-234"/>
<polygon fill="black" stroke="black" points="707.84,-237.5 717.84,-234 707.84,-230.5 707.84,-237.5"/>
</g>
<!-- pymedphys._dicom.delivery.core -->
<g id="node10" class="node">
<title>pymedphys._dicom.delivery.core</title>
<g id="a_node10"><a xlink:href="https://github.com/pymedphys/pymedphys/tree/main/lib/pymedphys/_dicom/delivery/core.py" xlink:title="_dicom.delivery.core">
<ellipse fill="none" stroke="black" cx="799.54" cy="-180" rx="104.78" ry="18"/>
<text text-anchor="middle" x="799.54" y="-176.3" font-family="Times,serif" font-size="14.00">_dicom.delivery.core</text>
</a>
</g>
</g>
<!-- pymedphys._dicom.delivery&#45;&gt;pymedphys._dicom.delivery.core -->
<g id="edge15" class="edge">
<title>pymedphys._dicom.delivery&#45;&gt;pymedphys._dicom.delivery.core</title>
<path fill="none" stroke="black" d="M590.34,-180C619.66,-180 653.19,-180 684.65,-180"/>
<polygon fill="black" stroke="black" points="684.79,-183.5 694.79,-180 684.79,-176.5 684.79,-183.5"/>
</g>
<!-- pymedphys._trf.decode.trf2pandas -->
<g id="node16" class="node">
<title>pymedphys._trf.decode.trf2pandas</title>
<g id="a_node16"><a xlink:href="https://github.com/pymedphys/pymedphys/tree/main/lib/pymedphys/_trf/decode/trf2pandas.py" xlink:title="_trf.decode.trf2pandas">
<ellipse fill="none" stroke="black" cx="799.54" cy="-99" rx="115.88" ry="18"/>
<text text-anchor="middle" x="799.54" y="-95.3" font-family="Times,serif" font-size="14.00">_trf.decode.trf2pandas</text>
</a>
</g>
</g>
<!-- pymedphys._trf.decode.delivery&#45;&gt;pymedphys._trf.decode.trf2pandas -->
<g id="edge16" class="edge">
<title>pymedphys._trf.decode.delivery&#45;&gt;pymedphys._trf.decode.trf2pandas</title>
<path fill="none" stroke="black" d="M609.9,-99C630.52,-99 652.42,-99 673.72,-99"/>
<polygon fill="black" stroke="black" points="673.79,-102.5 683.79,-99 673.79,-95.5 673.79,-102.5"/>
</g>
<!-- pymedphys._trf.decode.constants -->
<g id="node17" class="node">
<title>pymedphys._trf.decode.constants</title>
<g id="a_node17"><a xlink:href="https://github.com/pymedphys/pymedphys/tree/main/lib/pymedphys/_trf/decode/constants.py" xlink:title="_trf.decode.constants">
<ellipse fill="none" stroke="black" cx="799.54" cy="-45" rx="109.68" ry="18"/>
<text text-anchor="middle" x="799.54" y="-41.3" font-family="Times,serif" font-size="14.00">_trf.decode.constants</text>
</a>
</g>
</g>
<!-- pymedphys._trf.decode.delivery&#45;&gt;pymedphys._trf.decode.constants -->
<g id="edge17" class="edge">
<title>pymedphys._trf.decode.delivery&#45;&gt;pymedphys._trf.decode.constants</title>
<path fill="none" stroke="black" d="M578.19,-85.93C619.82,-78.2 672.74,-68.37 716.29,-60.28"/>
<polygon fill="black" stroke="black" points="717.09,-63.69 726.28,-58.42 715.81,-56.81 717.09,-63.69"/>
</g>
<!-- pymedphys._icom.mappings -->
<g id="node21" class="node">
<title>pymedphys._icom.mappings</title>
<g id="a_node21"><a xlink:href="https://github.com/pymedphys/pymedphys/tree/main/lib/pymedphys/_icom/mappings.py" xlink:title="_icom.mappings">
<ellipse fill="none" stroke="black" cx="1116.31" cy="-504" rx="85.29" ry="18"/>
<text text-anchor="middle" x="1116.31" y="-500.3" font-family="Times,serif" font-size="14.00">_icom.mappings</text>
</a>
</g>
</g>
<!-- pymedphys._icom.extract&#45;&gt;pymedphys._icom.mappings -->
<g id="edge18" class="edge">
<title>pymedphys._icom.extract&#45;&gt;pymedphys._icom.mappings</title>
<path fill="none" stroke="black" d="M873.15,-504C917.04,-504 973.48,-504 1020.83,-504"/>
<polygon fill="black" stroke="black" points="1021.09,-507.5 1031.09,-504 1021.09,-500.5 1021.09,-507.5"/>
</g>
<!-- pymedphys._dicom.delivery.utilities -->
<g id="node15" class="node">
<title>pymedphys._dicom.delivery.utilities</title>
<g id="a_node15"><a xlink:href="https://github.com/pymedphys/pymedphys/tree/main/lib/pymedphys/_dicom/delivery/utilities.py" xlink:title="_dicom.delivery.utilities">
<ellipse fill="none" stroke="black" cx="1116.31" cy="-180" rx="120.48" ry="18"/>
<text text-anchor="middle" x="1116.31" y="-176.3" font-family="Times,serif" font-size="14.00">_dicom.delivery.utilities</text>
</a>
</g>
</g>
<!-- pymedphys._dicom.delivery.core&#45;&gt;pymedphys._dicom.delivery.utilities -->
<g id="edge19" class="edge">
<title>pymedphys._dicom.delivery.core&#45;&gt;pymedphys._dicom.delivery.utilities</title>
<path fill="none" stroke="black" d="M904.48,-180C930.44,-180 958.61,-180 985.64,-180"/>
<polygon fill="black" stroke="black" points="985.94,-183.5 995.94,-180 985.94,-176.5 985.94,-183.5"/>
</g>
<!-- pymedphys._utilities.transforms.bipolar -->
<g id="node25" class="node">
<title>pymedphys._utilities.transforms.bipolar</title>
<g id="a_node25"><a xlink:href="https://github.com/pymedphys/pymedphys/tree/main/lib/pymedphys/_utilities/transforms/bipolar.py" xlink:title="_utilities.transforms.bipolar">
<ellipse fill="none" stroke="black" cx="1116.31" cy="-450" rx="140.28" ry="18"/>
<text text-anchor="middle" x="1116.31" y="-446.3" font-family="Times,serif" font-size="14.00">_utilities.transforms.bipolar</text>
</a>
</g>
</g>
<!-- pymedphys._utilities.transforms&#45;&gt;pymedphys._utilities.transforms.bipolar -->
<g id="edge20" class="edge">
<title>pymedphys._utilities.transforms&#45;&gt;pymedphys._utilities.transforms.bipolar</title>
<path fill="none" stroke="black" d="M904.48,-450C924.1,-450 944.98,-450 965.68,-450"/>
<polygon fill="black" stroke="black" points="965.82,-453.5 975.82,-450 965.82,-446.5 965.82,-453.5"/>
</g>
<!-- pymedphys._trf.decode.partition -->
<g id="node18" class="node">
<title>pymedphys._trf.decode.partition</title>
<g id="a_node18"><a xlink:href="https://github.com/pymedphys/pymedphys/tree/main/lib/pymedphys/_trf/decode/partition.py" xlink:title="_trf.decode.partition">
<ellipse fill="none" stroke="black" cx="1116.31" cy="-126" rx="105.08" ry="18"/>
<text text-anchor="middle" x="1116.31" y="-122.3" font-family="Times,serif" font-size="14.00">_trf.decode.partition</text>
</a>
</g>
</g>
<!-- pymedphys._trf.decode.trf2pandas&#45;&gt;pymedphys._trf.decode.partition -->
<g id="edge21" class="edge">
<title>pymedphys._trf.decode.trf2pandas&#45;&gt;pymedphys._trf.decode.partition</title>
<path fill="none" stroke="black" d="M901.43,-107.65C936.62,-110.67 976.16,-114.06 1011.57,-117.1"/>
<polygon fill="black" stroke="black" points="1011.67,-120.62 1021.93,-117.99 1012.27,-113.65 1011.67,-120.62"/>
</g>
<!-- pymedphys._trf.decode.table -->
<g id="node19" class="node">
<title>pymedphys._trf.decode.table</title>
<g id="a_node19"><a xlink:href="https://github.com/pymedphys/pymedphys/tree/main/lib/pymedphys/_trf/decode/table.py" xlink:title="_trf.decode.table">
<ellipse fill="none" stroke="black" cx="1116.31" cy="-72" rx="88.28" ry="18"/>
<text text-anchor="middle" x="1116.31" y="-68.3" font-family="Times,serif" font-size="14.00">_trf.decode.table</text>
</a>
</g>
</g>
<!-- pymedphys._trf.decode.trf2pandas&#45;&gt;pymedphys._trf.decode.table -->
<g id="edge22" class="edge">
<title>pymedphys._trf.decode.trf2pandas&#45;&gt;pymedphys._trf.decode.table</title>
<path fill="none" stroke="black" d="M901.43,-90.35C940.97,-86.95 985.99,-83.09 1024.49,-79.79"/>
<polygon fill="black" stroke="black" points="1024.98,-83.26 1034.65,-78.92 1024.39,-76.29 1024.98,-83.26"/>
</g>
<!-- pymedphys._trf.decode.header -->
<g id="node20" class="node">
<title>pymedphys._trf.decode.header</title>
<g id="a_node20"><a xlink:href="https://github.com/pymedphys/pymedphys/tree/main/lib/pymedphys/_trf/decode/header.py" xlink:title="_trf.decode.header">
<ellipse fill="none" stroke="black" cx="1116.31" cy="-18" rx="96.68" ry="18"/>
<text text-anchor="middle" x="1116.31" y="-14.3" font-family="Times,serif" font-size="14.00">_trf.decode.header</text>
</a>
</g>
</g>
<!-- pymedphys._trf.decode.trf2pandas&#45;&gt;pymedphys._trf.decode.header -->
<g id="edge23" class="edge">
<title>pymedphys._trf.decode.trf2pandas&#45;&gt;pymedphys._trf.decode.header</title>
<path fill="none" stroke="black" d="M889.65,-87.7C906.34,-83.89 923.34,-78.8 938.63,-72 956.9,-63.88 956.34,-53.09 974.63,-45 989.69,-38.33 1006.39,-33.31 1022.85,-29.52"/>
<polygon fill="black" stroke="black" points="1024.02,-32.85 1033.06,-27.32 1022.54,-26.01 1024.02,-32.85"/>
</g>
<!-- pymedphys._utilities.filesystem -->
<g id="node23" class="node">
<title>pymedphys._utilities.filesystem</title>
<g id="a_node23"><a xlink:href="https://github.com/pymedphys/pymedphys/tree/main/lib/pymedphys/_utilities/filesystem.py" xlink:title="_utilities.filesystem">
<ellipse fill="none" stroke="black" cx="1116.31" cy="-234" rx="100.98" ry="18"/>
<text text-anchor="middle" x="1116.31" y="-230.3" font-family="Times,serif" font-size="14.00">_utilities.filesystem</text>
</a>
</g>
</g>
<!-- pymedphys._monaco.utility&#45;&gt;pymedphys._utilities.filesystem -->
<g id="edge24" class="edge">
<title>pymedphys._monaco.utility&#45;&gt;pymedphys._utilities.filesystem</title>
<path fill="none" stroke="black" d="M880.78,-234C918.65,-234 964.42,-234 1005.44,-234"/>
<polygon fill="black" stroke="black" points="1005.49,-237.5 1015.49,-234 1005.49,-230.5 1005.49,-237.5"/>
</g>
<!-- pymedphys._metersetmap.metersetmap -->
<g id="node26" class="node">
<title>pymedphys._metersetmap.metersetmap</title>
<g id="a_node26"><a xlink:href="https://github.com/pymedphys/pymedphys/tree/main/lib/pymedphys/_metersetmap/metersetmap.py" xlink:title="_metersetmap.metersetmap">
<ellipse fill="none" stroke="black" cx="1116.31" cy="-288" rx="141.88" ry="18"/>
<text text-anchor="middle" x="1116.31" y="-284.3" font-family="Times,serif" font-size="14.00">_metersetmap.metersetmap</text>
</a>
</g>
</g>
<!-- pymedphys._metersetmap.delivery.core&#45;&gt;pymedphys._metersetmap.metersetmap -->
<g id="edge25" class="edge">
<title>pymedphys._metersetmap.delivery.core&#45;&gt;pymedphys._metersetmap.metersetmap</title>
<path fill="none" stroke="black" d="M939.06,-288C947.39,-288 955.78,-288 964.16,-288"/>
<polygon fill="black" stroke="black" points="964.35,-291.5 974.35,-288 964.35,-284.5 964.35,-291.5"/>
</g>
<!-- pymedphys._utilities.constants -->
<g id="node27" class="node">
<title>pymedphys._utilities.constants</title>
<g id="a_node27"><a xlink:href="https://github.com/pymedphys/pymedphys/tree/main/lib/pymedphys/_utilities/constants/__init__.py" xlink:title="_utilities.constants">
<ellipse fill="none" stroke="black" cx="1392.79" cy="-315" rx="98.58" ry="18"/>
<text text-anchor="middle" x="1392.79" y="-311.3" font-family="Times,serif" font-size="14.00">_utilities.constants</text>
</a>
</g>
</g>
<!-- pymedphys._metersetmap.metersetmap&#45;&gt;pymedphys._utilities.constants -->
<g id="edge26" class="edge">
<title>pymedphys._metersetmap.metersetmap&#45;&gt;pymedphys._utilities.constants</title>
<path fill="none" stroke="black" d="M1228.95,-298.98C1250.99,-301.15 1273.94,-303.41 1295.42,-305.52"/>
<polygon fill="black" stroke="black" points="1295.22,-309.02 1305.51,-306.51 1295.9,-302.05 1295.22,-309.02"/>
</g>
<!-- pymedphys._metersetmap.plt -->
<g id="node28" class="node">
<title>pymedphys._metersetmap.plt</title>
<g id="a_node28"><a xlink:href="https://github.com/pymedphys/pymedphys/tree/main/lib/pymedphys/_metersetmap/plt/__init__.py" xlink:title="_metersetmap.plt">
<ellipse fill="none" stroke="black" cx="1392.79" cy="-261" rx="92.88" ry="18"/>
<text text-anchor="middle" x="1392.79" y="-257.3" font-family="Times,serif" font-size="14.00">_metersetmap.plt</text>
</a>
</g>
</g>
<!-- pymedphys._metersetmap.metersetmap&#45;&gt;pymedphys._metersetmap.plt -->
<g id="edge27" class="edge">
<title>pymedphys._metersetmap.metersetmap&#45;&gt;pymedphys._metersetmap.plt</title>
<path fill="none" stroke="black" d="M1228.95,-277.02C1252.38,-274.71 1276.84,-272.31 1299.46,-270.08"/>
<polygon fill="black" stroke="black" points="1300.11,-273.54 1309.72,-269.07 1299.42,-266.57 1300.11,-273.54"/>
</g>
<!-- pymedphys._utilities.constants.mlctypes -->
<g id="node29" class="node">
<title>pymedphys._utilities.constants.mlctypes</title>
<g id="a_node29"><a xlink:href="https://github.com/pymedphys/pymedphys/tree/main/lib/pymedphys/_utilities/constants/mlctypes.py" xlink:title="_utilities.constants.mlctypes">
<ellipse fill="none" stroke="black" cx="1671.22" cy="-315" rx="143.77" ry="18"/>
<text text-anchor="middle" x="1671.22" y="-311.3" font-family="Times,serif" font-size="14.00">_utilities.constants.mlctypes</text>
</a>
</g>
</g>
<!-- pymedphys._utilities.constants&#45;&gt;pymedphys._utilities.constants.mlctypes -->
<g id="edge28" class="edge">
<title>pymedphys._utilities.constants&#45;&gt;pymedphys._utilities.constants.mlctypes</title>
<path fill="none" stroke="black" d="M1491.64,-315C1500.01,-315 1508.6,-315 1517.27,-315"/>
<polygon fill="black" stroke="black" points="1517.47,-318.5 1527.47,-315 1517.47,-311.5 1517.47,-318.5"/>
</g>
<!-- pymedphys._metersetmap.plt.helpers -->
<g id="node30" class="node">
<title>pymedphys._metersetmap.plt.helpers</title>
<g id="a_node30"><a xlink:href="https://github.com/pymedphys/pymedphys/tree/main/lib/pymedphys/_metersetmap/plt/helpers.py" xlink:title="_metersetmap.plt.helpers">
<ellipse fill="none" stroke="black" cx="1671.22" cy="-261" rx="129.98" ry="18"/>
<text text-anchor="middle" x="1671.22" y="-257.3" font-family="Times,serif" font-size="14.00">_metersetmap.plt.helpers</text>
</a>
</g>
</g>
<!-- pymedphys._metersetmap.plt&#45;&gt;pymedphys._metersetmap.plt.helpers -->
<g id="edge29" class="edge">
<title>pymedphys._metersetmap.plt&#45;&gt;pymedphys._metersetmap.plt.helpers</title>
<path fill="none" stroke="black" d="M1485.84,-261C1500.4,-261 1515.73,-261 1531.07,-261"/>
<polygon fill="black" stroke="black" points="1531.15,-264.5 1541.15,-261 1531.15,-257.5 1531.15,-264.5"/>
</g>
<!-- pymedphys.Delivery -->
<g id="node31" class="node">
<title>pymedphys.Delivery</title>
<g id="a_node31"><a xlink:href="https://github.com/pymedphys/pymedphys/tree/main/lib/pymedphys/_delivery.py" xlink:title="pymedphys.Delivery">
<ellipse fill="none" stroke="black" cx="105.94" cy="-288" rx="105.88" ry="18"/>
<text text-anchor="middle" x="105.94" y="-284.3" font-family="Times,serif" font-size="14.00">pymedphys.Delivery</text>
</a>
</g>
</g>
<!-- pymedphys.Delivery&#45;&gt;pymedphys._delivery -->
<g id="edge30" class="edge">
<title>pymedphys.Delivery&#45;&gt;pymedphys._delivery</title>
<path fill="none" stroke="black" d="M211.97,-288C220.63,-288 229.2,-288 237.39,-288"/>
<polygon fill="black" stroke="black" points="237.54,-291.5 247.54,-288 237.54,-284.5 237.54,-291.5"/>
</g>
</g>
</svg>
