<?xml version="1.0" encoding="UTF-8" standalone="no"?>
<!DOCTYPE svg PUBLIC "-//W3C//DTD SVG 1.1//EN"
 "http://www.w3.org/Graphics/SVG/1.1/DTD/svg11.dtd">
<!-- Generated by graphviz version 2.43.0 (0)
 -->
<!-- Title: pymedphys._data Pages: 1 -->
<svg width="1104pt" height="206pt"
 viewBox="0.00 0.00 1103.52 206.00" xmlns="http://www.w3.org/2000/svg" xmlns:xlink="http://www.w3.org/1999/xlink">
<g id="graph0" class="graph" transform="scale(1 1) rotate(0) translate(4 202)">
<title>pymedphys._data</title>
<polygon fill="white" stroke="transparent" points="-4,4 -4,-202 1099.52,-202 1099.52,4 -4,4"/>
<!-- pymedphys._data -->
<g id="node1" class="node">
<title>pymedphys._data</title>
<g id="a_node1"><a xlink:href="https://github.com/pymedphys/pymedphys/tree/main/lib/pymedphys/_data/__init__.py" xlink:title="_data">
<ellipse fill="none" stroke="black" cx="381.12" cy="-99" rx="36" ry="18"/>
<text text-anchor="middle" x="381.12" y="-95.3" font-family="Times,serif" font-size="14.00">_data</text>
</a>
</g>
</g>
<!-- pymedphys._data.download -->
<g id="node2" class="node">
<title>pymedphys._data.download</title>
<g id="a_node2"><a xlink:href="https://github.com/pymedphys/pymedphys/tree/main/lib/pymedphys/_data/download.py" xlink:title="_data.download">
<ellipse fill="none" stroke="black" cx="536.06" cy="-99" rx="83.39" ry="18"/>
<text text-anchor="middle" x="536.06" y="-95.3" font-family="Times,serif" font-size="14.00">_data.download</text>
</a>
</g>
</g>
<!-- pymedphys._data&#45;&gt;pymedphys._data.download -->
<g id="edge1" class="edge">
<title>pymedphys._data&#45;&gt;pymedphys._data.download</title>
<path fill="none" stroke="black" d="M417.21,-99C425.02,-99 433.67,-99 442.61,-99"/>
<polygon fill="black" stroke="black" points="442.82,-102.5 452.82,-99 442.82,-95.5 442.82,-102.5"/>
</g>
<!-- pymedphys._data.retry -->
<g id="node3" class="node">
<title>pymedphys._data.retry</title>
<g id="a_node3"><a xlink:href="https://github.com/pymedphys/pymedphys/tree/main/lib/pymedphys/_data/retry.py" xlink:title="_data.retry">
<ellipse fill="none" stroke="black" cx="744.94" cy="-180" rx="61.99" ry="18"/>
<text text-anchor="middle" x="744.94" y="-176.3" font-family="Times,serif" font-size="14.00">_data.retry</text>
</a>
</g>
</g>
<!-- pymedphys._data.download&#45;&gt;pymedphys._data.retry -->
<g id="edge2" class="edge">
<title>pymedphys._data.download&#45;&gt;pymedphys._data.retry</title>
<path fill="none" stroke="black" d="M569.93,-115.45C593.37,-126.82 625.82,-141.85 655.25,-153 666.19,-157.14 678.08,-161.11 689.48,-164.67"/>
<polygon fill="black" stroke="black" points="688.76,-168.11 699.34,-167.69 690.8,-161.41 688.76,-168.11"/>
</g>
<!-- pymedphys._data.zenodo -->
<g id="node4" class="node">
<title>pymedphys._data.zenodo</title>
<g id="a_node4"><a xlink:href="https://github.com/pymedphys/pymedphys/tree/main/lib/pymedphys/_data/zenodo.py" xlink:title="_data.zenodo">
<ellipse fill="none" stroke="black" cx="744.94" cy="-126" rx="71.49" ry="18"/>
<text text-anchor="middle" x="744.94" y="-122.3" font-family="Times,serif" font-size="14.00">_data.zenodo</text>
</a>
</g>
</g>
<!-- pymedphys._data.download&#45;&gt;pymedphys._data.zenodo -->
<g id="edge3" class="edge">
<title>pymedphys._data.download&#45;&gt;pymedphys._data.zenodo</title>
<path fill="none" stroke="black" d="M607.68,-108.22C628.1,-110.88 650.42,-113.79 670.98,-116.48"/>
<polygon fill="black" stroke="black" points="670.55,-119.95 680.92,-117.77 671.46,-113.01 670.55,-119.95"/>
</g>
<!-- pymedphys._utilities.filehash -->
<g id="node5" class="node">
<title>pymedphys._utilities.filehash</title>
<g id="a_node5"><a xlink:href="https://github.com/pymedphys/pymedphys/tree/main/lib/pymedphys/_utilities/filehash/__init__.py" xlink:title="_utilities.filehash">
<ellipse fill="none" stroke="black" cx="744.94" cy="-72" rx="89.88" ry="18"/>
<text text-anchor="middle" x="744.94" y="-68.3" font-family="Times,serif" font-size="14.00">_utilities.filehash</text>
</a>
</g>
</g>
<!-- pymedphys._data.download&#45;&gt;pymedphys._utilities.filehash -->
<g id="edge4" class="edge">
<title>pymedphys._data.download&#45;&gt;pymedphys._utilities.filehash</title>
<path fill="none" stroke="black" d="M607.68,-89.78C624.31,-87.61 642.21,-85.28 659.39,-83.03"/>
<polygon fill="black" stroke="black" points="659.94,-86.49 669.41,-81.73 659.04,-79.55 659.94,-86.49"/>
</g>
<!-- pymedphys._config -->
<g id="node6" class="node">
<title>pymedphys._config</title>
<g id="a_node6"><a xlink:href="https://github.com/pymedphys/pymedphys/tree/main/lib/pymedphys/_config.py" xlink:title="_config">
<ellipse fill="none" stroke="black" cx="744.94" cy="-18" rx="42.79" ry="18"/>
<text text-anchor="middle" x="744.94" y="-14.3" font-family="Times,serif" font-size="14.00">_config</text>
</a>
</g>
</g>
<!-- pymedphys._data.download&#45;&gt;pymedphys._config -->
<g id="edge5" class="edge">
<title>pymedphys._data.download&#45;&gt;pymedphys._config</title>
<path fill="none" stroke="black" d="M569.93,-82.55C593.37,-71.18 625.82,-56.15 655.25,-45 669.18,-39.72 684.63,-34.74 698.68,-30.51"/>
<polygon fill="black" stroke="black" points="700.02,-33.77 708.62,-27.58 698.04,-27.05 700.02,-33.77"/>
</g>
<!-- pymedphys._utilities.filehash.core -->
<g id="node7" class="node">
<title>pymedphys._utilities.filehash.core</title>
<g id="a_node7"><a xlink:href="https://github.com/pymedphys/pymedphys/tree/main/lib/pymedphys/_utilities/filehash/core.py" xlink:title="_utilities.filehash.core">
<ellipse fill="none" stroke="black" cx="983.08" cy="-72" rx="112.38" ry="18"/>
<text text-anchor="middle" x="983.08" y="-68.3" font-family="Times,serif" font-size="14.00">_utilities.filehash.core</text>
</a>
</g>
</g>
<!-- pymedphys._utilities.filehash&#45;&gt;pymedphys._utilities.filehash.core -->
<g id="edge6" class="edge">
<title>pymedphys._utilities.filehash&#45;&gt;pymedphys._utilities.filehash.core</title>
<path fill="none" stroke="black" d="M834.88,-72C843.24,-72 851.81,-72 860.41,-72"/>
<polygon fill="black" stroke="black" points="860.5,-75.5 870.5,-72 860.5,-68.5 860.5,-75.5"/>
</g>
<!-- pymedphys.zip_data_paths -->
<g id="node8" class="node">
<title>pymedphys.zip_data_paths</title>
<g id="a_node8"><a xlink:href="https://github.com/pymedphys/pymedphys/tree/main/lib/pymedphys/_data/__init__.py" xlink:title="pymedphys.zip_data_paths">
<ellipse fill="none" stroke="black" cx="154.69" cy="-153" rx="135.68" ry="18"/>
<text text-anchor="middle" x="154.69" y="-149.3" font-family="Times,serif" font-size="14.00">pymedphys.zip_data_paths</text>
</a>
</g>
</g>
<!-- pymedphys.zip_data_paths&#45;&gt;pymedphys._data -->
<g id="edge7" class="edge">
<title>pymedphys.zip_data_paths&#45;&gt;pymedphys._data</title>
<path fill="none" stroke="black" d="M247.75,-139.77C268.2,-136.02 289.66,-131.44 309.37,-126 320.72,-122.87 332.79,-118.62 343.69,-114.42"/>
<polygon fill="black" stroke="black" points="345.3,-117.55 353.31,-110.62 342.72,-111.04 345.3,-117.55"/>
</g>
<!-- pymedphys.zenodo_data_paths -->
<g id="node9" class="node">
<title>pymedphys.zenodo_data_paths</title>
<g id="a_node9"><a xlink:href="https://github.com/pymedphys/pymedphys/tree/main/lib/pymedphys/_data/__init__.py" xlink:title="pymedphys.zenodo_data_paths">
<ellipse fill="none" stroke="black" cx="154.69" cy="-99" rx="154.87" ry="18"/>
<text text-anchor="middle" x="154.69" y="-95.3" font-family="Times,serif" font-size="14.00">pymedphys.zenodo_data_paths</text>
</a>
</g>
</g>
<!-- pymedphys.zenodo_data_paths&#45;&gt;pymedphys._data -->
<g id="edge8" class="edge">
<title>pymedphys.zenodo_data_paths&#45;&gt;pymedphys._data</title>
<path fill="none" stroke="black" d="M309.42,-99C318.49,-99 327.14,-99 335.09,-99"/>
<polygon fill="black" stroke="black" points="335.09,-102.5 345.09,-99 335.09,-95.5 335.09,-102.5"/>
</g>
<!-- pymedphys.data_path -->
<g id="node10" class="node">
<title>pymedphys.data_path</title>
<g id="a_node10"><a xlink:href="https://github.com/pymedphys/pymedphys/tree/main/lib/pymedphys/_data/__init__.py" xlink:title="pymedphys.data_path">
<ellipse fill="none" stroke="black" cx="154.69" cy="-45" rx="112.38" ry="18"/>
<text text-anchor="middle" x="154.69" y="-41.3" font-family="Times,serif" font-size="14.00">pymedphys.data_path</text>
</a>
</g>
</g>
<!-- pymedphys.data_path&#45;&gt;pymedphys._data -->
<g id="edge9" class="edge">
<title>pymedphys.data_path&#45;&gt;pymedphys._data</title>
<path fill="none" stroke="black" d="M240.08,-56.85C262.78,-60.84 287.18,-65.87 309.37,-72 320.72,-75.13 332.79,-79.38 343.69,-83.58"/>
<polygon fill="black" stroke="black" points="342.72,-86.96 353.31,-87.38 345.3,-80.45 342.72,-86.96"/>
</g>
</g>
</svg>
