<?xml version="1.0" encoding="UTF-8" standalone="no"?>
<!DOCTYPE svg PUBLIC "-//W3C//DTD SVG 1.1//EN"
 "http://www.w3.org/Graphics/SVG/1.1/DTD/svg11.dtd">
<!-- Generated by graphviz version 2.43.0 (0)
 -->
<!-- Title: pymedphys._delivery Pages: 1 -->
<svg width="2421pt" height="620pt"
 viewBox="0.00 0.00 2421.48 620.00" xmlns="http://www.w3.org/2000/svg" xmlns:xlink="http://www.w3.org/1999/xlink">
<g id="graph0" class="graph" transform="scale(1 1) rotate(0) translate(4 616)">
<title>pymedphys._delivery</title>
<polygon fill="white" stroke="transparent" points="-4,4 -4,-616 2417.48,-616 2417.48,4 -4,4"/>
<!-- pymedphys._delivery -->
<g id="node1" class="node">
<title>pymedphys._delivery</title>
<g id="a_node1"><a xlink:href="https://github.com/pymedphys/pymedphys/tree/main/lib/pymedphys/_delivery.py" xlink:title="_delivery">
<ellipse fill="none" stroke="black" cx="1033.19" cy="-522" rx="52.79" ry="18"/>
<text text-anchor="middle" x="1033.19" y="-518.3" font-family="Times,serif" font-size="14.00">_delivery</text>
</a>
</g>
</g>
<!-- pymedphys._metersetmap.delivery -->
<g id="node2" class="node">
<title>pymedphys._metersetmap.delivery</title>
<g id="a_node2"><a xlink:href="https://github.com/pymedphys/pymedphys/tree/main/lib/pymedphys/_metersetmap/delivery/__init__.py" xlink:title="_metersetmap.delivery">
<ellipse fill="none" stroke="black" cx="1388.19" cy="-450" rx="117.78" ry="18"/>
<text text-anchor="middle" x="1388.19" y="-446.3" font-family="Times,serif" font-size="14.00">_metersetmap.delivery</text>
</a>
</g>
</g>
<!-- pymedphys._delivery&#45;&gt;pymedphys._metersetmap.delivery -->
<g id="edge1" class="edge">
<title>pymedphys._delivery&#45;&gt;pymedphys._metersetmap.delivery</title>
<path fill="none" stroke="black" d="M1077.79,-512.21C1135.77,-500.77 1238.02,-480.61 1309.26,-466.56"/>
<polygon fill="black" stroke="black" points="1309.96,-469.99 1319.1,-464.62 1308.61,-463.12 1309.96,-469.99"/>
</g>
<!-- pymedphys._mosaiq.delivery -->
<g id="node3" class="node">
<title>pymedphys._mosaiq.delivery</title>
<g id="a_node3"><a xlink:href="https://github.com/pymedphys/pymedphys/tree/main/lib/pymedphys/_mosaiq/delivery.py" xlink:title="_mosaiq.delivery">
<ellipse fill="none" stroke="black" cx="412.19" cy="-378" rx="89.08" ry="18"/>
<text text-anchor="middle" x="412.19" y="-374.3" font-family="Times,serif" font-size="14.00">_mosaiq.delivery</text>
</a>
</g>
</g>
<!-- pymedphys._delivery&#45;&gt;pymedphys._mosaiq.delivery -->
<g id="edge2" class="edge">
<title>pymedphys._delivery&#45;&gt;pymedphys._mosaiq.delivery</title>
<path fill="none" stroke="black" d="M989.58,-511.89C940.36,-501.54 857.92,-484.01 787.19,-468 677.89,-443.26 551.1,-412.8 476.49,-394.69"/>
<polygon fill="black" stroke="black" points="477.3,-391.29 466.76,-392.33 475.65,-398.09 477.3,-391.29"/>
</g>
<!-- pymedphys._icom.delivery -->
<g id="node4" class="node">
<title>pymedphys._icom.delivery</title>
<g id="a_node4"><a xlink:href="https://github.com/pymedphys/pymedphys/tree/main/lib/pymedphys/_icom/delivery.py" xlink:title="_icom.delivery">
<ellipse fill="none" stroke="black" cx="873.19" cy="-450" rx="77.19" ry="18"/>
<text text-anchor="middle" x="873.19" y="-446.3" font-family="Times,serif" font-size="14.00">_icom.delivery</text>
</a>
</g>
</g>
<!-- pymedphys._delivery&#45;&gt;pymedphys._icom.delivery -->
<g id="edge3" class="edge">
<title>pymedphys._delivery&#45;&gt;pymedphys._icom.delivery</title>
<path fill="none" stroke="black" d="M1001.96,-507.34C977.8,-496.77 944.04,-482 917.15,-470.23"/>
<polygon fill="black" stroke="black" points="918.52,-467.01 907.95,-466.21 915.71,-473.42 918.52,-467.01"/>
</g>
<!-- pymedphys._trf.decode.delivery -->
<g id="node5" class="node">
<title>pymedphys._trf.decode.delivery</title>
<g id="a_node5"><a xlink:href="https://github.com/pymedphys/pymedphys/tree/main/lib/pymedphys/_trf/decode/delivery.py" xlink:title="_trf.decode.delivery">
<ellipse fill="none" stroke="black" cx="1787.19" cy="-378" rx="102.88" ry="18"/>
<text text-anchor="middle" x="1787.19" y="-374.3" font-family="Times,serif" font-size="14.00">_trf.decode.delivery</text>
</a>
</g>
</g>
<!-- pymedphys._delivery&#45;&gt;pymedphys._trf.decode.delivery -->
<g id="edge4" class="edge">
<title>pymedphys._delivery&#45;&gt;pymedphys._trf.decode.delivery</title>
<path fill="none" stroke="black" d="M1085.11,-518.81C1174.06,-514.28 1360.91,-501.35 1515.19,-468 1594.97,-450.76 1684.37,-418.99 1738.18,-398.45"/>
<polygon fill="black" stroke="black" points="1739.73,-401.6 1747.81,-394.75 1737.22,-395.07 1739.73,-401.6"/>
</g>
<!-- pymedphys._dicom.delivery -->
<g id="node6" class="node">
<title>pymedphys._dicom.delivery</title>
<g id="a_node6"><a xlink:href="https://github.com/pymedphys/pymedphys/tree/main/lib/pymedphys/_dicom/delivery/__init__.py" xlink:title="_dicom.delivery">
<ellipse fill="none" stroke="black" cx="1089.19" cy="-450" rx="83.39" ry="18"/>
<text text-anchor="middle" x="1089.19" y="-446.3" font-family="Times,serif" font-size="14.00">_dicom.delivery</text>
</a>
</g>
</g>
<!-- pymedphys._delivery&#45;&gt;pymedphys._dicom.delivery -->
<g id="edge5" class="edge">
<title>pymedphys._delivery&#45;&gt;pymedphys._dicom.delivery</title>
<path fill="none" stroke="black" d="M1046.46,-504.41C1053.27,-495.91 1061.69,-485.37 1069.26,-475.91"/>
<polygon fill="black" stroke="black" points="1072.11,-477.95 1075.63,-467.96 1066.65,-473.58 1072.11,-477.95"/>
</g>
<!-- pymedphys._monaco.delivery -->
<g id="node7" class="node">
<title>pymedphys._monaco.delivery</title>
<g id="a_node7"><a xlink:href="https://github.com/pymedphys/pymedphys/tree/main/lib/pymedphys/_monaco/delivery.py" xlink:title="_monaco.delivery">
<ellipse fill="none" stroke="black" cx="813.19" cy="-378" rx="90.98" ry="18"/>
<text text-anchor="middle" x="813.19" y="-374.3" font-family="Times,serif" font-size="14.00">_monaco.delivery</text>
</a>
</g>
</g>
<!-- pymedphys._delivery&#45;&gt;pymedphys._monaco.delivery -->
<g id="edge6" class="edge">
<title>pymedphys._delivery&#45;&gt;pymedphys._monaco.delivery</title>
<path fill="none" stroke="black" d="M1023.21,-504.27C1010.6,-484.45 987.14,-451.65 959.19,-432 935.62,-415.43 906.29,-403.46 880.12,-395.14"/>
<polygon fill="black" stroke="black" points="880.84,-391.7 870.26,-392.12 878.8,-398.39 880.84,-391.7"/>
</g>
<!-- pymedphys._metersetmap.delivery.core -->
<g id="node8" class="node">
<title>pymedphys._metersetmap.delivery.core</title>
<g id="a_node8"><a xlink:href="https://github.com/pymedphys/pymedphys/tree/main/lib/pymedphys/_metersetmap/delivery/core.py" xlink:title="_metersetmap.delivery.core">
<ellipse fill="none" stroke="black" cx="1468.19" cy="-378" rx="139.18" ry="18"/>
<text text-anchor="middle" x="1468.19" y="-374.3" font-family="Times,serif" font-size="14.00">_metersetmap.delivery.core</text>
</a>
</g>
</g>
<!-- pymedphys._metersetmap.delivery&#45;&gt;pymedphys._metersetmap.delivery.core -->
<g id="edge7" class="edge">
<title>pymedphys._metersetmap.delivery&#45;&gt;pymedphys._metersetmap.delivery.core</title>
<path fill="none" stroke="black" d="M1407.56,-432.05C1417.6,-423.26 1430.04,-412.38 1441.03,-402.76"/>
<polygon fill="black" stroke="black" points="1443.51,-405.25 1448.73,-396.03 1438.9,-399.98 1443.51,-405.25"/>
</g>
<!-- pymedphys._base.delivery -->
<g id="node9" class="node">
<title>pymedphys._base.delivery</title>
<g id="a_node9"><a xlink:href="https://github.com/pymedphys/pymedphys/tree/main/lib/pymedphys/_base/delivery.py" xlink:title="_base.delivery">
<ellipse fill="none" stroke="black" cx="1089.19" cy="-306" rx="77.19" ry="18"/>
<text text-anchor="middle" x="1089.19" y="-302.3" font-family="Times,serif" font-size="14.00">_base.delivery</text>
</a>
</g>
</g>
<!-- pymedphys._mosaiq.delivery&#45;&gt;pymedphys._base.delivery -->
<g id="edge8" class="edge">
<title>pymedphys._mosaiq.delivery&#45;&gt;pymedphys._base.delivery</title>
<path fill="none" stroke="black" d="M477.38,-365.65C490.84,-363.56 504.96,-361.55 518.19,-360 732.87,-334.86 789,-353.01 1003.19,-324 1010.24,-323.05 1017.59,-321.87 1024.88,-320.59"/>
<polygon fill="black" stroke="black" points="1025.55,-324.03 1034.76,-318.79 1024.3,-317.14 1025.55,-324.03"/>
</g>
<!-- pymedphys._utilities.transforms -->
<g id="node10" class="node">
<title>pymedphys._utilities.transforms</title>
<g id="a_node10"><a xlink:href="https://github.com/pymedphys/pymedphys/tree/main/lib/pymedphys/_utilities/transforms/__init__.py" xlink:title="_utilities.transforms">
<ellipse fill="none" stroke="black" cx="566.19" cy="-90" rx="104.78" ry="18"/>
<text text-anchor="middle" x="566.19" y="-86.3" font-family="Times,serif" font-size="14.00">_utilities.transforms</text>
</a>
</g>
</g>
<!-- pymedphys._mosaiq.delivery&#45;&gt;pymedphys._utilities.transforms -->
<g id="edge9" class="edge">
<title>pymedphys._mosaiq.delivery&#45;&gt;pymedphys._utilities.transforms</title>
<path fill="none" stroke="black" d="M413.87,-359.67C416.11,-341.28 421.03,-311.66 431.19,-288 460.27,-220.28 514.05,-151.63 544.21,-115.98"/>
<polygon fill="black" stroke="black" points="547.15,-117.94 550.99,-108.07 541.83,-113.39 547.15,-117.94"/>
</g>
<!-- pymedphys._mosaiq.connect -->
<g id="node11" class="node">
<title>pymedphys._mosaiq.connect</title>
<g id="a_node11"><a xlink:href="https://github.com/pymedphys/pymedphys/tree/main/lib/pymedphys/_mosaiq/connect.py" xlink:title="_mosaiq.connect">
<ellipse fill="none" stroke="black" cx="297.19" cy="-306" rx="87.18" ry="18"/>
<text text-anchor="middle" x="297.19" y="-302.3" font-family="Times,serif" font-size="14.00">_mosaiq.connect</text>
</a>
</g>
</g>
<!-- pymedphys._mosaiq.delivery&#45;&gt;pymedphys._mosaiq.connect -->
<g id="edge10" class="edge">
<title>pymedphys._mosaiq.delivery&#45;&gt;pymedphys._mosaiq.connect</title>
<path fill="none" stroke="black" d="M385.52,-360.76C369.7,-351.13 349.46,-338.81 332.34,-328.4"/>
<polygon fill="black" stroke="black" points="334.08,-325.36 323.72,-323.15 330.44,-331.34 334.08,-325.36"/>
</g>
<!-- pymedphys._mosaiq.constants -->
<g id="node12" class="node">
<title>pymedphys._mosaiq.constants</title>
<g id="a_node12"><a xlink:href="https://github.com/pymedphys/pymedphys/tree/main/lib/pymedphys/_mosaiq/constants.py" xlink:title="_mosaiq.constants">
<ellipse fill="none" stroke="black" cx="96.19" cy="-306" rx="96.38" ry="18"/>
<text text-anchor="middle" x="96.19" y="-302.3" font-family="Times,serif" font-size="14.00">_mosaiq.constants</text>
</a>
</g>
</g>
<!-- pymedphys._mosaiq.delivery&#45;&gt;pymedphys._mosaiq.constants -->
<g id="edge11" class="edge">
<title>pymedphys._mosaiq.delivery&#45;&gt;pymedphys._mosaiq.constants</title>
<path fill="none" stroke="black" d="M354.6,-364.24C301.45,-352.47 222.41,-334.96 165.76,-322.41"/>
<polygon fill="black" stroke="black" points="166.32,-318.95 155.8,-320.2 164.81,-325.78 166.32,-318.95"/>
</g>
<!-- pymedphys._icom.delivery&#45;&gt;pymedphys._base.delivery -->
<g id="edge12" class="edge">
<title>pymedphys._icom.delivery&#45;&gt;pymedphys._base.delivery</title>
<path fill="none" stroke="black" d="M889.33,-432.31C908.5,-413.12 942.09,-381.52 975.19,-360 995.82,-346.59 1020.39,-334.71 1041.43,-325.62"/>
<polygon fill="black" stroke="black" points="1042.97,-328.77 1050.82,-321.64 1040.24,-322.32 1042.97,-328.77"/>
</g>
<!-- pymedphys._icom.extract -->
<g id="node13" class="node">
<title>pymedphys._icom.extract</title>
<g id="a_node13"><a xlink:href="https://github.com/pymedphys/pymedphys/tree/main/lib/pymedphys/_icom/extract.py" xlink:title="_icom.extract">
<ellipse fill="none" stroke="black" cx="600.19" cy="-378" rx="73.39" ry="18"/>
<text text-anchor="middle" x="600.19" y="-374.3" font-family="Times,serif" font-size="14.00">_icom.extract</text>
</a>
</g>
</g>
<!-- pymedphys._icom.delivery&#45;&gt;pymedphys._icom.extract -->
<g id="edge13" class="edge">
<title>pymedphys._icom.delivery&#45;&gt;pymedphys._icom.extract</title>
<path fill="none" stroke="black" d="M823.12,-436.16C776.75,-424.27 707.77,-406.58 658.84,-394.04"/>
<polygon fill="black" stroke="black" points="659.58,-390.62 649.03,-391.52 657.85,-397.4 659.58,-390.62"/>
</g>
<!-- pymedphys._trf.decode.delivery&#45;&gt;pymedphys._base.delivery -->
<g id="edge15" class="edge">
<title>pymedphys._trf.decode.delivery&#45;&gt;pymedphys._base.delivery</title>
<path fill="none" stroke="black" d="M1701.1,-368.15C1673.95,-365.43 1643.82,-362.5 1616.19,-360 1420.78,-342.29 1370.55,-350.86 1176.19,-324 1169.06,-323.02 1161.64,-321.82 1154.26,-320.53"/>
<polygon fill="black" stroke="black" points="1154.73,-317.06 1144.26,-318.72 1153.48,-323.95 1154.73,-317.06"/>
</g>
<!-- pymedphys._vendor.deprecated -->
<g id="node15" class="node">
<title>pymedphys._vendor.deprecated</title>
<g id="a_node15"><a xlink:href="https://github.com/pymedphys/pymedphys/tree/main/lib/pymedphys/_vendor/deprecated.py" xlink:title="_vendor.deprecated">
<ellipse fill="none" stroke="black" cx="1846.19" cy="-306" rx="101.28" ry="18"/>
<text text-anchor="middle" x="1846.19" y="-302.3" font-family="Times,serif" font-size="14.00">_vendor.deprecated</text>
</a>
</g>
</g>
<!-- pymedphys._trf.decode.delivery&#45;&gt;pymedphys._vendor.deprecated -->
<g id="edge16" class="edge">
<title>pymedphys._trf.decode.delivery&#45;&gt;pymedphys._vendor.deprecated</title>
<path fill="none" stroke="black" d="M1801.47,-360.05C1808.54,-351.67 1817.22,-341.38 1825.04,-332.1"/>
<polygon fill="black" stroke="black" points="1827.86,-334.18 1831.63,-324.28 1822.51,-329.67 1827.86,-334.18"/>
</g>
<!-- pymedphys._trf.decode.trf2pandas -->
<g id="node16" class="node">
<title>pymedphys._trf.decode.trf2pandas</title>
<g id="a_node16"><a xlink:href="https://github.com/pymedphys/pymedphys/tree/main/lib/pymedphys/_trf/decode/trf2pandas.py" xlink:title="_trf.decode.trf2pandas">
<ellipse fill="none" stroke="black" cx="2090.19" cy="-306" rx="115.88" ry="18"/>
<text text-anchor="middle" x="2090.19" y="-302.3" font-family="Times,serif" font-size="14.00">_trf.decode.trf2pandas</text>
</a>
</g>
</g>
<!-- pymedphys._trf.decode.delivery&#45;&gt;pymedphys._trf.decode.trf2pandas -->
<g id="edge17" class="edge">
<title>pymedphys._trf.decode.delivery&#45;&gt;pymedphys._trf.decode.trf2pandas</title>
<path fill="none" stroke="black" d="M1846.69,-363.25C1896,-351.86 1966.22,-335.64 2018.59,-323.54"/>
<polygon fill="black" stroke="black" points="2019.53,-326.92 2028.49,-321.26 2017.95,-320.1 2019.53,-326.92"/>
</g>
<!-- pymedphys._dicom.delivery.core -->
<g id="node17" class="node">
<title>pymedphys._dicom.delivery.core</title>
<g id="a_node17"><a xlink:href="https://github.com/pymedphys/pymedphys/tree/main/lib/pymedphys/_dicom/delivery/core.py" xlink:title="_dicom.delivery.core">
<ellipse fill="none" stroke="black" cx="1089.19" cy="-378" rx="104.78" ry="18"/>
<text text-anchor="middle" x="1089.19" y="-374.3" font-family="Times,serif" font-size="14.00">_dicom.delivery.core</text>
</a>
</g>
</g>
<!-- pymedphys._dicom.delivery&#45;&gt;pymedphys._dicom.delivery.core -->
<g id="edge18" class="edge">
<title>pymedphys._dicom.delivery&#45;&gt;pymedphys._dicom.delivery.core</title>
<path fill="none" stroke="black" d="M1089.19,-431.7C1089.19,-423.98 1089.19,-414.71 1089.19,-406.11"/>
<polygon fill="black" stroke="black" points="1092.69,-406.1 1089.19,-396.1 1085.69,-406.1 1092.69,-406.1"/>
</g>
<!-- pymedphys._monaco.delivery&#45;&gt;pymedphys._base.delivery -->
<g id="edge19" class="edge">
<title>pymedphys._monaco.delivery&#45;&gt;pymedphys._base.delivery</title>
<path fill="none" stroke="black" d="M866.73,-363.42C913.37,-351.59 980.92,-334.46 1029.33,-322.18"/>
<polygon fill="black" stroke="black" points="1030.22,-325.57 1039.05,-319.72 1028.5,-318.78 1030.22,-325.57"/>
</g>
<!-- pymedphys._monaco.delivery&#45;&gt;pymedphys._utilities.transforms -->
<g id="edge20" class="edge">
<title>pymedphys._monaco.delivery&#45;&gt;pymedphys._utilities.transforms</title>
<path fill="none" stroke="black" d="M755.19,-364.1C724.55,-355.65 687.19,-342.66 657.19,-324 652.39,-321.01 587.66,-257.09 585.19,-252 564.34,-209 562.79,-152.21 564.11,-118.84"/>
<polygon fill="black" stroke="black" points="567.63,-118.64 564.65,-108.48 560.64,-118.28 567.63,-118.64"/>
</g>
<!-- pymedphys._monaco.utility -->
<g id="node18" class="node">
<title>pymedphys._monaco.utility</title>
<g id="a_node18"><a xlink:href="https://github.com/pymedphys/pymedphys/tree/main/lib/pymedphys/_monaco/utility.py" xlink:title="_monaco.utility">
<ellipse fill="none" stroke="black" cx="747.19" cy="-306" rx="81.49" ry="18"/>
<text text-anchor="middle" x="747.19" y="-302.3" font-family="Times,serif" font-size="14.00">_monaco.utility</text>
</a>
</g>
</g>
<!-- pymedphys._monaco.delivery&#45;&gt;pymedphys._monaco.utility -->
<g id="edge21" class="edge">
<title>pymedphys._monaco.delivery&#45;&gt;pymedphys._monaco.utility</title>
<path fill="none" stroke="black" d="M797.21,-360.05C789.03,-351.37 778.91,-340.64 769.93,-331.11"/>
<polygon fill="black" stroke="black" points="772.43,-328.66 763.02,-323.79 767.33,-333.47 772.43,-328.66"/>
</g>
<!-- pymedphys._metersetmap.delivery.core&#45;&gt;pymedphys._base.delivery -->
<g id="edge22" class="edge">
<title>pymedphys._metersetmap.delivery.core&#45;&gt;pymedphys._base.delivery</title>
<path fill="none" stroke="black" d="M1389.75,-363.06C1330.93,-352.53 1248.47,-337.62 1176.19,-324 1169.69,-322.77 1162.92,-321.48 1156.15,-320.18"/>
<polygon fill="black" stroke="black" points="1156.75,-316.73 1146.26,-318.27 1155.42,-323.6 1156.75,-316.73"/>
</g>
<!-- pymedphys._metersetmap.delivery.core&#45;&gt;pymedphys._vendor.deprecated -->
<g id="edge24" class="edge">
<title>pymedphys._metersetmap.delivery.core&#45;&gt;pymedphys._vendor.deprecated</title>
<path fill="none" stroke="black" d="M1544.23,-362.92C1609.54,-350.82 1703.28,-333.46 1768.94,-321.31"/>
<polygon fill="black" stroke="black" points="1769.63,-324.74 1778.83,-319.48 1768.36,-317.85 1769.63,-324.74"/>
</g>
<!-- pymedphys._metersetmap.metersetmap -->
<g id="node19" class="node">
<title>pymedphys._metersetmap.metersetmap</title>
<g id="a_node19"><a xlink:href="https://github.com/pymedphys/pymedphys/tree/main/lib/pymedphys/_metersetmap/metersetmap.py" xlink:title="_metersetmap.metersetmap">
<ellipse fill="none" stroke="black" cx="1585.19" cy="-306" rx="141.88" ry="18"/>
<text text-anchor="middle" x="1585.19" y="-302.3" font-family="Times,serif" font-size="14.00">_metersetmap.metersetmap</text>
</a>
</g>
</g>
<!-- pymedphys._metersetmap.delivery.core&#45;&gt;pymedphys._metersetmap.metersetmap -->
<g id="edge23" class="edge">
<title>pymedphys._metersetmap.delivery.core&#45;&gt;pymedphys._metersetmap.metersetmap</title>
<path fill="none" stroke="black" d="M1496.22,-360.23C1511.73,-350.95 1531.21,-339.29 1547.99,-329.26"/>
<polygon fill="black" stroke="black" points="1550.21,-332.01 1556.99,-323.87 1546.61,-326 1550.21,-332.01"/>
</g>
<!-- pymedphys._utilities.controlpoints -->
<g id="node14" class="node">
<title>pymedphys._utilities.controlpoints</title>
<g id="a_node14"><a xlink:href="https://github.com/pymedphys/pymedphys/tree/main/lib/pymedphys/_utilities/controlpoints.py" xlink:title="_utilities.controlpoints">
<ellipse fill="none" stroke="black" cx="1379.19" cy="-234" rx="115.08" ry="18"/>
<text text-anchor="middle" x="1379.19" y="-230.3" font-family="Times,serif" font-size="14.00">_utilities.controlpoints</text>
</a>
</g>
</g>
<!-- pymedphys._base.delivery&#45;&gt;pymedphys._utilities.controlpoints -->
<g id="edge14" class="edge">
<title>pymedphys._base.delivery&#45;&gt;pymedphys._utilities.controlpoints</title>
<path fill="none" stroke="black" d="M1140.7,-292.57C1187.72,-281.22 1257.61,-264.35 1309.58,-251.8"/>
<polygon fill="black" stroke="black" points="1310.5,-255.18 1319.4,-249.43 1308.86,-248.38 1310.5,-255.18"/>
</g>
<!-- pymedphys._utilities.transforms.bipolar -->
<g id="node22" class="node">
<title>pymedphys._utilities.transforms.bipolar</title>
<g id="a_node22"><a xlink:href="https://github.com/pymedphys/pymedphys/tree/main/lib/pymedphys/_utilities/transforms/bipolar.py" xlink:title="_utilities.transforms.bipolar">
<ellipse fill="none" stroke="black" cx="566.19" cy="-18" rx="140.28" ry="18"/>
<text text-anchor="middle" x="566.19" y="-14.3" font-family="Times,serif" font-size="14.00">_utilities.transforms.bipolar</text>
</a>
</g>
</g>
<!-- pymedphys._utilities.transforms&#45;&gt;pymedphys._utilities.transforms.bipolar -->
<g id="edge28" class="edge">
<title>pymedphys._utilities.transforms&#45;&gt;pymedphys._utilities.transforms.bipolar</title>
<path fill="none" stroke="black" d="M566.19,-71.7C566.19,-63.98 566.19,-54.71 566.19,-46.11"/>
<polygon fill="black" stroke="black" points="569.69,-46.1 566.19,-36.1 562.69,-46.1 569.69,-46.1"/>
</g>
<!-- pymedphys._icom.mappings -->
<g id="node30" class="node">
<title>pymedphys._icom.mappings</title>
<g id="a_node30"><a xlink:href="https://github.com/pymedphys/pymedphys/tree/main/lib/pymedphys/_icom/mappings.py" xlink:title="_icom.mappings">
<ellipse fill="none" stroke="black" cx="525.19" cy="-306" rx="85.29" ry="18"/>
<text text-anchor="middle" x="525.19" y="-302.3" font-family="Times,serif" font-size="14.00">_icom.mappings</text>
</a>
</g>
</g>
<!-- pymedphys._icom.extract&#45;&gt;pymedphys._icom.mappings -->
<g id="edge38" class="edge">
<title>pymedphys._icom.extract&#45;&gt;pymedphys._icom.mappings</title>
<path fill="none" stroke="black" d="M582.42,-360.41C572.87,-351.5 560.93,-340.36 550.43,-330.56"/>
<polygon fill="black" stroke="black" points="552.8,-327.98 543.1,-323.71 548.02,-333.09 552.8,-327.98"/>
</g>
<!-- pymedphys._trf.decode.table -->
<g id="node27" class="node">
<title>pymedphys._trf.decode.table</title>
<g id="a_node27"><a xlink:href="https://github.com/pymedphys/pymedphys/tree/main/lib/pymedphys/_trf/decode/table.py" xlink:title="_trf.decode.table">
<ellipse fill="none" stroke="black" cx="2090.19" cy="-234" rx="88.28" ry="18"/>
<text text-anchor="middle" x="2090.19" y="-230.3" font-family="Times,serif" font-size="14.00">_trf.decode.table</text>
</a>
</g>
</g>
<!-- pymedphys._trf.decode.trf2pandas&#45;&gt;pymedphys._trf.decode.table -->
<g id="edge33" class="edge">
<title>pymedphys._trf.decode.trf2pandas&#45;&gt;pymedphys._trf.decode.table</title>
<path fill="none" stroke="black" d="M2090.19,-287.7C2090.19,-279.98 2090.19,-270.71 2090.19,-262.11"/>
<polygon fill="black" stroke="black" points="2093.69,-262.1 2090.19,-252.1 2086.69,-262.1 2093.69,-262.1"/>
</g>
<!-- pymedphys._trf.decode.partition -->
<g id="node28" class="node">
<title>pymedphys._trf.decode.partition</title>
<g id="a_node28"><a xlink:href="https://github.com/pymedphys/pymedphys/tree/main/lib/pymedphys/_trf/decode/partition.py" xlink:title="_trf.decode.partition">
<ellipse fill="none" stroke="black" cx="2308.19" cy="-234" rx="105.08" ry="18"/>
<text text-anchor="middle" x="2308.19" y="-230.3" font-family="Times,serif" font-size="14.00">_trf.decode.partition</text>
</a>
</g>
</g>
<!-- pymedphys._trf.decode.trf2pandas&#45;&gt;pymedphys._trf.decode.partition -->
<g id="edge34" class="edge">
<title>pymedphys._trf.decode.trf2pandas&#45;&gt;pymedphys._trf.decode.partition</title>
<path fill="none" stroke="black" d="M2138.3,-289.55C2171.65,-278.84 2216.21,-264.54 2251.32,-253.26"/>
<polygon fill="black" stroke="black" points="2252.5,-256.56 2260.95,-250.17 2250.36,-249.89 2252.5,-256.56"/>
</g>
<!-- pymedphys._dicom.delivery.core&#45;&gt;pymedphys._base.delivery -->
<g id="edge30" class="edge">
<title>pymedphys._dicom.delivery.core&#45;&gt;pymedphys._base.delivery</title>
<path fill="none" stroke="black" d="M1089.19,-359.7C1089.19,-351.98 1089.19,-342.71 1089.19,-334.11"/>
<polygon fill="black" stroke="black" points="1092.69,-334.1 1089.19,-324.1 1085.69,-334.1 1092.69,-334.1"/>
</g>
<!-- pymedphys._dicom.rtplan -->
<g id="node24" class="node">
<title>pymedphys._dicom.rtplan</title>
<g id="a_node24"><a xlink:href="https://github.com/pymedphys/pymedphys/tree/main/lib/pymedphys/_dicom/rtplan/__init__.py" xlink:title="_dicom.rtplan">
<ellipse fill="none" stroke="black" cx="920.19" cy="-306" rx="74.19" ry="18"/>
<text text-anchor="middle" x="920.19" y="-302.3" font-family="Times,serif" font-size="14.00">_dicom.rtplan</text>
</a>
</g>
</g>
<!-- pymedphys._dicom.delivery.core&#45;&gt;pymedphys._dicom.rtplan -->
<g id="edge31" class="edge">
<title>pymedphys._dicom.delivery.core&#45;&gt;pymedphys._dicom.rtplan</title>
<path fill="none" stroke="black" d="M1050.84,-361.12C1025.52,-350.63 992.21,-336.83 965.57,-325.79"/>
<polygon fill="black" stroke="black" points="966.66,-322.46 956.08,-321.86 963.98,-328.92 966.66,-322.46"/>
</g>
<!-- pymedphys._dicom.delivery.utilities -->
<g id="node25" class="node">
<title>pymedphys._dicom.delivery.utilities</title>
<g id="a_node25"><a xlink:href="https://github.com/pymedphys/pymedphys/tree/main/lib/pymedphys/_dicom/delivery/utilities.py" xlink:title="_dicom.delivery.utilities">
<ellipse fill="none" stroke="black" cx="1305.19" cy="-306" rx="120.48" ry="18"/>
<text text-anchor="middle" x="1305.19" y="-302.3" font-family="Times,serif" font-size="14.00">_dicom.delivery.utilities</text>
</a>
</g>
</g>
<!-- pymedphys._dicom.delivery.core&#45;&gt;pymedphys._dicom.delivery.utilities -->
<g id="edge32" class="edge">
<title>pymedphys._dicom.delivery.core&#45;&gt;pymedphys._dicom.delivery.utilities</title>
<path fill="none" stroke="black" d="M1136.06,-361.81C1168.84,-351.19 1212.81,-336.94 1247.71,-325.63"/>
<polygon fill="black" stroke="black" points="1248.86,-328.93 1257.29,-322.52 1246.7,-322.28 1248.86,-328.93"/>
</g>
<!-- pymedphys._utilities.filesystem -->
<g id="node23" class="node">
<title>pymedphys._utilities.filesystem</title>
<g id="a_node23"><a xlink:href="https://github.com/pymedphys/pymedphys/tree/main/lib/pymedphys/_utilities/filesystem.py" xlink:title="_utilities.filesystem">
<ellipse fill="none" stroke="black" cx="695.19" cy="-234" rx="100.98" ry="18"/>
<text text-anchor="middle" x="695.19" y="-230.3" font-family="Times,serif" font-size="14.00">_utilities.filesystem</text>
</a>
</g>
</g>
<!-- pymedphys._monaco.utility&#45;&gt;pymedphys._utilities.filesystem -->
<g id="edge29" class="edge">
<title>pymedphys._monaco.utility&#45;&gt;pymedphys._utilities.filesystem</title>
<path fill="none" stroke="black" d="M734.6,-288.05C728.44,-279.75 720.88,-269.58 714.04,-260.38"/>
<polygon fill="black" stroke="black" points="716.8,-258.22 708.02,-252.28 711.18,-262.39 716.8,-258.22"/>
</g>
<!-- pymedphys._metersetmap.metersetmap&#45;&gt;pymedphys._utilities.controlpoints -->
<g id="edge27" class="edge">
<title>pymedphys._metersetmap.metersetmap&#45;&gt;pymedphys._utilities.controlpoints</title>
<path fill="none" stroke="black" d="M1537.93,-288.94C1507.25,-278.52 1467.13,-264.88 1434.9,-253.93"/>
<polygon fill="black" stroke="black" points="1435.76,-250.53 1425.17,-250.62 1433.51,-257.15 1435.76,-250.53"/>
</g>
<!-- pymedphys._metersetmap.plt -->
<g id="node20" class="node">
<title>pymedphys._metersetmap.plt</title>
<g id="a_node20"><a xlink:href="https://github.com/pymedphys/pymedphys/tree/main/lib/pymedphys/_metersetmap/plt/__init__.py" xlink:title="_metersetmap.plt">
<ellipse fill="none" stroke="black" cx="1605.19" cy="-234" rx="92.88" ry="18"/>
<text text-anchor="middle" x="1605.19" y="-230.3" font-family="Times,serif" font-size="14.00">_metersetmap.plt</text>
</a>
</g>
</g>
<!-- pymedphys._metersetmap.metersetmap&#45;&gt;pymedphys._metersetmap.plt -->
<g id="edge25" class="edge">
<title>pymedphys._metersetmap.metersetmap&#45;&gt;pymedphys._metersetmap.plt</title>
<path fill="none" stroke="black" d="M1590.14,-287.7C1592.36,-279.9 1595.05,-270.51 1597.53,-261.83"/>
<polygon fill="black" stroke="black" points="1600.92,-262.68 1600.3,-252.1 1594.19,-260.76 1600.92,-262.68"/>
</g>
<!-- pymedphys._utilities.constants -->
<g id="node21" class="node">
<title>pymedphys._utilities.constants</title>
<g id="a_node21"><a xlink:href="https://github.com/pymedphys/pymedphys/tree/main/lib/pymedphys/_utilities/constants/__init__.py" xlink:title="_utilities.constants">
<ellipse fill="none" stroke="black" cx="1815.19" cy="-234" rx="98.58" ry="18"/>
<text text-anchor="middle" x="1815.19" y="-230.3" font-family="Times,serif" font-size="14.00">_utilities.constants</text>
</a>
</g>
</g>
<!-- pymedphys._metersetmap.metersetmap&#45;&gt;pymedphys._utilities.constants -->
<g id="edge26" class="edge">
<title>pymedphys._metersetmap.metersetmap&#45;&gt;pymedphys._utilities.constants</title>
<path fill="none" stroke="black" d="M1637.09,-289.2C1672.73,-278.36 1720.07,-263.95 1756.99,-252.71"/>
<polygon fill="black" stroke="black" points="1758.07,-256.04 1766.62,-249.78 1756.04,-249.35 1758.07,-256.04"/>
</g>
<!-- pymedphys._metersetmap.plt.helpers -->
<g id="node31" class="node">
<title>pymedphys._metersetmap.plt.helpers</title>
<g id="a_node31"><a xlink:href="https://github.com/pymedphys/pymedphys/tree/main/lib/pymedphys/_metersetmap/plt/helpers.py" xlink:title="_metersetmap.plt.helpers">
<ellipse fill="none" stroke="black" cx="1523.19" cy="-162" rx="129.98" ry="18"/>
<text text-anchor="middle" x="1523.19" y="-158.3" font-family="Times,serif" font-size="14.00">_metersetmap.plt.helpers</text>
</a>
</g>
</g>
<!-- pymedphys._metersetmap.plt&#45;&gt;pymedphys._metersetmap.plt.helpers -->
<g id="edge39" class="edge">
<title>pymedphys._metersetmap.plt&#45;&gt;pymedphys._metersetmap.plt.helpers</title>
<path fill="none" stroke="black" d="M1585.34,-216.05C1575.04,-207.26 1562.29,-196.38 1551.03,-186.76"/>
<polygon fill="black" stroke="black" points="1553.02,-183.86 1543.14,-180.03 1548.48,-189.19 1553.02,-183.86"/>
</g>
<!-- pymedphys._utilities.constants.mlctypes -->
<g id="node32" class="node">
<title>pymedphys._utilities.constants.mlctypes</title>
<g id="a_node32"><a xlink:href="https://github.com/pymedphys/pymedphys/tree/main/lib/pymedphys/_utilities/constants/mlctypes.py" xlink:title="_utilities.constants.mlctypes">
<ellipse fill="none" stroke="black" cx="1815.19" cy="-162" rx="143.77" ry="18"/>
<text text-anchor="middle" x="1815.19" y="-158.3" font-family="Times,serif" font-size="14.00">_utilities.constants.mlctypes</text>
</a>
</g>
</g>
<!-- pymedphys._utilities.constants&#45;&gt;pymedphys._utilities.constants.mlctypes -->
<g id="edge40" class="edge">
<title>pymedphys._utilities.constants&#45;&gt;pymedphys._utilities.constants.mlctypes</title>
<path fill="none" stroke="black" d="M1815.19,-215.7C1815.19,-207.98 1815.19,-198.71 1815.19,-190.11"/>
<polygon fill="black" stroke="black" points="1818.69,-190.1 1815.19,-180.1 1811.69,-190.1 1818.69,-190.1"/>
</g>
<!-- pymedphys._dicom.rtplan.build -->
<g id="node33" class="node">
<title>pymedphys._dicom.rtplan.build</title>
<g id="a_node33"><a xlink:href="https://github.com/pymedphys/pymedphys/tree/main/lib/pymedphys/_dicom/rtplan/build.py" xlink:title="_dicom.rtplan.build">
<ellipse fill="none" stroke="black" cx="1145.19" cy="-234" rx="100.98" ry="18"/>
<text text-anchor="middle" x="1145.19" y="-230.3" font-family="Times,serif" font-size="14.00">_dicom.rtplan.build</text>
</a>
</g>
</g>
<!-- pymedphys._dicom.rtplan&#45;&gt;pymedphys._dicom.rtplan.build -->
<g id="edge41" class="edge">
<title>pymedphys._dicom.rtplan&#45;&gt;pymedphys._dicom.rtplan.build</title>
<path fill="none" stroke="black" d="M963.84,-291.42C999.03,-280.47 1048.83,-264.98 1087.35,-253"/>
<polygon fill="black" stroke="black" points="1088.87,-256.19 1097.38,-249.87 1086.79,-249.5 1088.87,-256.19"/>
</g>
<!-- pymedphys._dicom.rtplan.adjust -->
<g id="node34" class="node">
<title>pymedphys._dicom.rtplan.adjust</title>
<g id="a_node34"><a xlink:href="https://github.com/pymedphys/pymedphys/tree/main/lib/pymedphys/_dicom/rtplan/adjust.py" xlink:title="_dicom.rtplan.adjust">
<ellipse fill="none" stroke="black" cx="920.19" cy="-234" rx="105.88" ry="18"/>
<text text-anchor="middle" x="920.19" y="-230.3" font-family="Times,serif" font-size="14.00">_dicom.rtplan.adjust</text>
</a>
</g>
</g>
<!-- pymedphys._dicom.rtplan&#45;&gt;pymedphys._dicom.rtplan.adjust -->
<g id="edge42" class="edge">
<title>pymedphys._dicom.rtplan&#45;&gt;pymedphys._dicom.rtplan.adjust</title>
<path fill="none" stroke="black" d="M920.19,-287.7C920.19,-279.98 920.19,-270.71 920.19,-262.11"/>
<polygon fill="black" stroke="black" points="923.69,-262.1 920.19,-252.1 916.69,-262.1 923.69,-262.1"/>
</g>
<!-- pymedphys._trf.decode.constants -->
<g id="node26" class="node">
<title>pymedphys._trf.decode.constants</title>
<g id="a_node26"><a xlink:href="https://github.com/pymedphys/pymedphys/tree/main/lib/pymedphys/_trf/decode/constants.py" xlink:title="_trf.decode.constants">
<ellipse fill="none" stroke="black" cx="2086.19" cy="-162" rx="109.68" ry="18"/>
<text text-anchor="middle" x="2086.19" y="-158.3" font-family="Times,serif" font-size="14.00">_trf.decode.constants</text>
</a>
</g>
</g>
<!-- pymedphys._trf.decode.table&#45;&gt;pymedphys._trf.decode.constants -->
<g id="edge35" class="edge">
<title>pymedphys._trf.decode.table&#45;&gt;pymedphys._trf.decode.constants</title>
<path fill="none" stroke="black" d="M2089.2,-215.7C2088.76,-207.98 2088.23,-198.71 2087.74,-190.11"/>
<polygon fill="black" stroke="black" points="2091.23,-189.89 2087.17,-180.1 2084.25,-190.29 2091.23,-189.89"/>
</g>
<!-- pymedphys._trf.decode.header -->
<g id="node29" class="node">
<title>pymedphys._trf.decode.header</title>
<g id="a_node29"><a xlink:href="https://github.com/pymedphys/pymedphys/tree/main/lib/pymedphys/_trf/decode/header.py" xlink:title="_trf.decode.header">
<ellipse fill="none" stroke="black" cx="2311.19" cy="-162" rx="96.68" ry="18"/>
<text text-anchor="middle" x="2311.19" y="-158.3" font-family="Times,serif" font-size="14.00">_trf.decode.header</text>
</a>
</g>
</g>
<!-- pymedphys._trf.decode.table&#45;&gt;pymedphys._trf.decode.header -->
<g id="edge36" class="edge">
<title>pymedphys._trf.decode.table&#45;&gt;pymedphys._trf.decode.header</title>
<path fill="none" stroke="black" d="M2135.98,-218.5C2170.45,-207.58 2217.89,-192.55 2254.72,-180.89"/>
<polygon fill="black" stroke="black" points="2255.84,-184.2 2264.32,-177.85 2253.73,-177.53 2255.84,-184.2"/>
</g>
<!-- pymedphys._trf.decode.partition&#45;&gt;pymedphys._trf.decode.header -->
<g id="edge37" class="edge">
<title>pymedphys._trf.decode.partition&#45;&gt;pymedphys._trf.decode.header</title>
<path fill="none" stroke="black" d="M2308.93,-215.7C2309.26,-207.98 2309.66,-198.71 2310.03,-190.11"/>
<polygon fill="black" stroke="black" points="2313.53,-190.25 2310.46,-180.1 2306.53,-189.95 2313.53,-190.25"/>
</g>
<!-- pymedphys._dicom.rtplan.core -->
<g id="node35" class="node">
<title>pymedphys._dicom.rtplan.core</title>
<g id="a_node35"><a xlink:href="https://github.com/pymedphys/pymedphys/tree/main/lib/pymedphys/_dicom/rtplan/core.py" xlink:title="_dicom.rtplan.core">
<ellipse fill="none" stroke="black" cx="806.19" cy="-162" rx="96.68" ry="18"/>
<text text-anchor="middle" x="806.19" y="-158.3" font-family="Times,serif" font-size="14.00">_dicom.rtplan.core</text>
</a>
</g>
</g>
<!-- pymedphys._dicom.rtplan.adjust&#45;&gt;pymedphys._dicom.rtplan.core -->
<g id="edge44" class="edge">
<title>pymedphys._dicom.rtplan.adjust&#45;&gt;pymedphys._dicom.rtplan.core</title>
<path fill="none" stroke="black" d="M893.18,-216.41C877.84,-207 858.46,-195.1 841.89,-184.92"/>
<polygon fill="black" stroke="black" points="843.37,-181.72 833.01,-179.47 839.7,-187.69 843.37,-181.72"/>
</g>
<!-- pymedphys._dicom.rtplan.core&#45;&gt;pymedphys._utilities.transforms -->
<g id="edge43" class="edge">
<title>pymedphys._dicom.rtplan.core&#45;&gt;pymedphys._utilities.transforms</title>
<path fill="none" stroke="black" d="M756.46,-146.5C718.79,-135.51 666.85,-120.36 626.76,-108.67"/>
<polygon fill="black" stroke="black" points="627.68,-105.29 617.1,-105.85 625.72,-112.01 627.68,-105.29"/>
</g>
<!-- pymedphys.Delivery -->
<g id="node36" class="node">
<title>pymedphys.Delivery</title>
<g id="a_node36"><a xlink:href="https://github.com/pymedphys/pymedphys/tree/main/lib/pymedphys/_delivery.py" xlink:title="pymedphys.Delivery">
<ellipse fill="none" stroke="black" cx="1033.19" cy="-594" rx="105.88" ry="18"/>
<text text-anchor="middle" x="1033.19" y="-590.3" font-family="Times,serif" font-size="14.00">pymedphys.Delivery</text>
</a>
</g>
</g>
<!-- pymedphys.Delivery&#45;&gt;pymedphys._delivery -->
<g id="edge45" class="edge">
<title>pymedphys.Delivery&#45;&gt;pymedphys._delivery</title>
<path fill="none" stroke="black" d="M1033.19,-575.7C1033.19,-567.98 1033.19,-558.71 1033.19,-550.11"/>
<polygon fill="black" stroke="black" points="1036.69,-550.1 1033.19,-540.1 1029.69,-550.1 1036.69,-550.1"/>
</g>
</g>
</svg>
