<?xml version="1.0" encoding="UTF-8" standalone="no"?>
<!DOCTYPE svg PUBLIC "-//W3C//DTD SVG 1.1//EN"
 "http://www.w3.org/Graphics/SVG/1.1/DTD/svg11.dtd">
<!-- Generated by graphviz version 2.43.0 (0)
 -->
<!-- Title: sample Pages: 1 -->
<svg width="1072pt" height="44pt"
 viewBox="0.00 0.00 1071.81 44.00" xmlns="http://www.w3.org/2000/svg" xmlns:xlink="http://www.w3.org/1999/xlink">
<g id="graph0" class="graph" transform="scale(1 1) rotate(0) translate(4 40)">
<title>sample</title>
<polygon fill="white" stroke="transparent" points="-4,4 -4,-40 1067.81,-40 1067.81,4 -4,4"/>
<!-- pymedphys._dicom.structure.merge -->
<g id="node1" class="node">
<title>pymedphys._dicom.structure.merge</title>
<ellipse fill="none" stroke="black" cx="558.55" cy="-18" rx="178.17" ry="18"/>
<text text-anchor="middle" x="558.55" y="-14.3" font-family="Times,serif" font-size="14.00">pymedphys._dicom.structure.merge</text>
</g>
<!-- pymedphys._dicom.structure -->
<g id="node2" class="node">
<title>pymedphys._dicom.structure</title>
<ellipse fill="none" stroke="black" cx="918.22" cy="-18" rx="145.67" ry="18"/>
<text text-anchor="middle" x="918.22" y="-14.3" font-family="Times,serif" font-size="14.00">pymedphys._dicom.structure</text>
</g>
<!-- pymedphys._dicom.structure.merge&#45;&gt;pymedphys._dicom.structure -->
<g id="edge1" class="edge">
<title>pymedphys._dicom.structure.merge&#45;&gt;pymedphys._dicom.structure</title>
<path fill="none" stroke="black" d="M736.82,-18C745.31,-18 753.81,-18 762.23,-18"/>
<polygon fill="black" stroke="black" points="762.47,-21.5 772.47,-18 762.47,-14.5 762.47,-21.5"/>
</g>
<!-- pymedphys.dicom.merge_contours -->
<g id="node3" class="node">
<title>pymedphys.dicom.merge_contours</title>
<ellipse fill="none" stroke="black" cx="172.23" cy="-18" rx="172.47" ry="18"/>
<text text-anchor="middle" x="172.23" y="-14.3" font-family="Times,serif" font-size="14.00">pymedphys.dicom.merge_contours</text>
</g>
<!-- pymedphys.dicom.merge_contours&#45;&gt;pymedphys._dicom.structure.merge -->
<g id="edge2" class="edge">
<title>pymedphys.dicom.merge_contours&#45;&gt;pymedphys._dicom.structure.merge</title>
<path fill="none" stroke="black" d="M344.6,-18C353.16,-18 361.78,-18 370.38,-18"/>
<polygon fill="black" stroke="black" points="370.47,-21.5 380.47,-18 370.47,-14.5 370.47,-21.5"/>
</g>
</g>
</svg>
