<?xml version="1.0" encoding="UTF-8" standalone="no"?>
<!DOCTYPE svg PUBLIC "-//W3C//DTD SVG 1.1//EN"
 "http://www.w3.org/Graphics/SVG/1.1/DTD/svg11.dtd">
<!-- Generated by graphviz version 2.43.0 (0)
 -->
<!-- Title: pymedphys._trf.decode Pages: 1 -->
<svg width="1141pt" height="98pt"
 viewBox="0.00 0.00 1141.21 98.00" xmlns="http://www.w3.org/2000/svg" xmlns:xlink="http://www.w3.org/1999/xlink">
<g id="graph0" class="graph" transform="scale(1 1) rotate(0) translate(4 94)">
<title>pymedphys._trf.decode</title>
<polygon fill="white" stroke="transparent" points="-4,4 -4,-94 1137.21,-94 1137.21,4 -4,4"/>
<!-- pymedphys._trf.decode -->
<g id="node1" class="node">
<title>pymedphys._trf.decode</title>
<g id="a_node1"><a xlink:href="https://github.com/pymedphys/pymedphys/tree/main/lib/pymedphys/_trf/decode/__init__.py" xlink:title="_trf.decode">
<ellipse fill="none" stroke="black" cx="301.83" cy="-45" rx="61.99" ry="18"/>
<text text-anchor="middle" x="301.83" y="-41.3" font-family="Times,serif" font-size="14.00">_trf.decode</text>
</a>
</g>
</g>
<!-- pymedphys._trf.decode.trf2pandas -->
<g id="node2" class="node">
<title>pymedphys._trf.decode.trf2pandas</title>
<g id="a_node2"><a xlink:href="https://github.com/pymedphys/pymedphys/tree/main/lib/pymedphys/_trf/decode/trf2pandas.py" xlink:title="_trf.decode.trf2pandas">
<ellipse fill="none" stroke="black" cx="515.26" cy="-45" rx="115.88" ry="18"/>
<text text-anchor="middle" x="515.26" y="-41.3" font-family="Times,serif" font-size="14.00">_trf.decode.trf2pandas</text>
</a>
</g>
</g>
<!-- pymedphys._trf.decode&#45;&gt;pymedphys._trf.decode.trf2pandas -->
<g id="edge1" class="edge">
<title>pymedphys._trf.decode&#45;&gt;pymedphys._trf.decode.trf2pandas</title>
<path fill="none" stroke="black" d="M363.7,-45C371.77,-45 380.26,-45 388.94,-45"/>
<polygon fill="black" stroke="black" points="389.19,-48.5 399.19,-45 389.19,-41.5 389.19,-48.5"/>
</g>
<!-- pymedphys._trf.decode.partition -->
<g id="node3" class="node">
<title>pymedphys._trf.decode.partition</title>
<g id="a_node3"><a xlink:href="https://github.com/pymedphys/pymedphys/tree/main/lib/pymedphys/_trf/decode/partition.py" xlink:title="_trf.decode.partition">
<ellipse fill="none" stroke="black" cx="772.24" cy="-72" rx="105.08" ry="18"/>
<text text-anchor="middle" x="772.24" y="-68.3" font-family="Times,serif" font-size="14.00">_trf.decode.partition</text>
</a>
</g>
</g>
<!-- pymedphys._trf.decode.trf2pandas&#45;&gt;pymedphys._trf.decode.partition -->
<g id="edge2" class="edge">
<title>pymedphys._trf.decode.trf2pandas&#45;&gt;pymedphys._trf.decode.partition</title>
<path fill="none" stroke="black" d="M611.57,-55.09C631.41,-57.19 652.37,-59.41 672.34,-61.53"/>
<polygon fill="black" stroke="black" points="672.06,-65.02 682.37,-62.59 672.8,-58.06 672.06,-65.02"/>
</g>
<!-- pymedphys._trf.decode.table -->
<g id="node4" class="node">
<title>pymedphys._trf.decode.table</title>
<g id="a_node4"><a xlink:href="https://github.com/pymedphys/pymedphys/tree/main/lib/pymedphys/_trf/decode/table.py" xlink:title="_trf.decode.table">
<ellipse fill="none" stroke="black" cx="772.24" cy="-18" rx="88.28" ry="18"/>
<text text-anchor="middle" x="772.24" y="-14.3" font-family="Times,serif" font-size="14.00">_trf.decode.table</text>
</a>
</g>
</g>
<!-- pymedphys._trf.decode.trf2pandas&#45;&gt;pymedphys._trf.decode.table -->
<g id="edge3" class="edge">
<title>pymedphys._trf.decode.trf2pandas&#45;&gt;pymedphys._trf.decode.table</title>
<path fill="none" stroke="black" d="M611.57,-34.91C635.1,-32.42 660.2,-29.76 683.37,-27.31"/>
<polygon fill="black" stroke="black" points="683.94,-30.76 693.51,-26.23 683.2,-23.8 683.94,-30.76"/>
</g>
<!-- pymedphys._trf.decode.header -->
<g id="node5" class="node">
<title>pymedphys._trf.decode.header</title>
<g id="a_node5"><a xlink:href="https://github.com/pymedphys/pymedphys/tree/main/lib/pymedphys/_trf/decode/header.py" xlink:title="_trf.decode.header">
<ellipse fill="none" stroke="black" cx="1023.37" cy="-72" rx="96.68" ry="18"/>
<text text-anchor="middle" x="1023.37" y="-68.3" font-family="Times,serif" font-size="14.00">_trf.decode.header</text>
</a>
</g>
</g>
<!-- pymedphys._trf.decode.partition&#45;&gt;pymedphys._trf.decode.header -->
<g id="edge4" class="edge">
<title>pymedphys._trf.decode.partition&#45;&gt;pymedphys._trf.decode.header</title>
<path fill="none" stroke="black" d="M877.81,-72C890.53,-72 903.52,-72 916.26,-72"/>
<polygon fill="black" stroke="black" points="916.41,-75.5 926.41,-72 916.41,-68.5 916.41,-75.5"/>
</g>
<!-- pymedphys._trf.decode.table&#45;&gt;pymedphys._trf.decode.header -->
<g id="edge5" class="edge">
<title>pymedphys._trf.decode.table&#45;&gt;pymedphys._trf.decode.header</title>
<path fill="none" stroke="black" d="M833.55,-31.07C868.43,-38.63 912.57,-48.2 949.4,-56.18"/>
<polygon fill="black" stroke="black" points="949.07,-59.69 959.58,-58.39 950.55,-52.85 949.07,-59.69"/>
</g>
<!-- pymedphys._trf.decode.constants -->
<g id="node6" class="node">
<title>pymedphys._trf.decode.constants</title>
<g id="a_node6"><a xlink:href="https://github.com/pymedphys/pymedphys/tree/main/lib/pymedphys/_trf/decode/constants.py" xlink:title="_trf.decode.constants">
<ellipse fill="none" stroke="black" cx="1023.37" cy="-18" rx="109.68" ry="18"/>
<text text-anchor="middle" x="1023.37" y="-14.3" font-family="Times,serif" font-size="14.00">_trf.decode.constants</text>
</a>
</g>
</g>
<!-- pymedphys._trf.decode.table&#45;&gt;pymedphys._trf.decode.constants -->
<g id="edge6" class="edge">
<title>pymedphys._trf.decode.table&#45;&gt;pymedphys._trf.decode.constants</title>
<path fill="none" stroke="black" d="M860.72,-18C874.38,-18 888.68,-18 902.9,-18"/>
<polygon fill="black" stroke="black" points="903.22,-21.5 913.22,-18 903.22,-14.5 903.22,-21.5"/>
</g>
<!-- pymedphys.trf.read -->
<g id="node7" class="node">
<title>pymedphys.trf.read</title>
<g id="a_node7"><a xlink:href="https://github.com/pymedphys/pymedphys/tree/main/lib/pymedphys/_trf/decode/__init__.py" xlink:title="pymedphys.trf.read">
<ellipse fill="none" stroke="black" cx="102.04" cy="-45" rx="102.08" ry="18"/>
<text text-anchor="middle" x="102.04" y="-41.3" font-family="Times,serif" font-size="14.00">pymedphys.trf.read</text>
</a>
</g>
</g>
<!-- pymedphys.trf.read&#45;&gt;pymedphys._trf.decode -->
<g id="edge7" class="edge">
<title>pymedphys.trf.read&#45;&gt;pymedphys._trf.decode</title>
<path fill="none" stroke="black" d="M204.25,-45C212.9,-45 221.53,-45 229.86,-45"/>
<polygon fill="black" stroke="black" points="229.87,-48.5 239.87,-45 229.87,-41.5 229.87,-48.5"/>
</g>
</g>
</svg>
