<?xml version="1.0" encoding="UTF-8" standalone="no"?>
<!DOCTYPE svg PUBLIC "-//W3C//DTD SVG 1.1//EN"
 "http://www.w3.org/Graphics/SVG/1.1/DTD/svg11.dtd">
<!-- Generated by graphviz version 2.43.0 (0)
 -->
<!-- Title: sample Pages: 1 -->
<svg width="1889pt" height="206pt"
 viewBox="0.00 0.00 1888.65 206.00" xmlns="http://www.w3.org/2000/svg" xmlns:xlink="http://www.w3.org/1999/xlink">
<g id="graph0" class="graph" transform="scale(1 1) rotate(0) translate(4 202)">
<title>sample</title>
<polygon fill="white" stroke="transparent" points="-4,4 -4,-202 1884.65,-202 1884.65,4 -4,4"/>
<!-- pymedphys._dicom.anonymise -->
<g id="node1" class="node">
<title>pymedphys._dicom.anonymise</title>
<ellipse fill="none" stroke="black" cx="482.51" cy="-45" rx="151.37" ry="18"/>
<text text-anchor="middle" x="482.51" y="-41.3" font-family="Times,serif" font-size="14.00">pymedphys._dicom.anonymise</text>
</g>
<!-- pymedphys._dicom.anonymise.core -->
<g id="node2" class="node">
<title>pymedphys._dicom.anonymise.core</title>
<ellipse fill="none" stroke="black" cx="844.78" cy="-72" rx="174.67" ry="18"/>
<text text-anchor="middle" x="844.78" y="-68.3" font-family="Times,serif" font-size="14.00">pymedphys._dicom.anonymise.core</text>
</g>
<!-- pymedphys._dicom.anonymise&#45;&gt;pymedphys._dicom.anonymise.core -->
<g id="edge1" class="edge">
<title>pymedphys._dicom.anonymise&#45;&gt;pymedphys._dicom.anonymise.core</title>
<path fill="none" stroke="black" d="M611.04,-54.56C637.54,-56.54 665.7,-58.65 692.95,-60.7"/>
<polygon fill="black" stroke="black" points="692.71,-64.19 702.94,-61.45 693.23,-57.21 692.71,-64.19"/>
</g>
<!-- pymedphys._dicom.anonymise.api -->
<g id="node3" class="node">
<title>pymedphys._dicom.anonymise.api</title>
<ellipse fill="none" stroke="black" cx="844.78" cy="-18" rx="168.97" ry="18"/>
<text text-anchor="middle" x="844.78" y="-14.3" font-family="Times,serif" font-size="14.00">pymedphys._dicom.anonymise.api</text>
</g>
<!-- pymedphys._dicom.anonymise&#45;&gt;pymedphys._dicom.anonymise.api -->
<g id="edge2" class="edge">
<title>pymedphys._dicom.anonymise&#45;&gt;pymedphys._dicom.anonymise.api</title>
<path fill="none" stroke="black" d="M611.04,-35.44C638.44,-33.39 667.62,-31.2 695.73,-29.1"/>
<polygon fill="black" stroke="black" points="696.32,-32.56 706.03,-28.32 695.79,-25.58 696.32,-32.56"/>
</g>
<!-- pymedphys._dicom.constants -->
<g id="node4" class="node">
<title>pymedphys._dicom.constants</title>
<ellipse fill="none" stroke="black" cx="1249.3" cy="-126" rx="146.77" ry="18"/>
<text text-anchor="middle" x="1249.3" y="-122.3" font-family="Times,serif" font-size="14.00">pymedphys._dicom.constants</text>
</g>
<!-- pymedphys._dicom.anonymise.core&#45;&gt;pymedphys._dicom.constants -->
<g id="edge3" class="edge">
<title>pymedphys._dicom.anonymise.core&#45;&gt;pymedphys._dicom.constants</title>
<path fill="none" stroke="black" d="M952.06,-86.26C1009.86,-94.01 1081.22,-103.59 1139.42,-111.39"/>
<polygon fill="black" stroke="black" points="1139,-114.87 1149.38,-112.73 1139.93,-107.93 1139,-114.87"/>
</g>
<!-- pymedphys._dicom.anonymise.strategy -->
<g id="node5" class="node">
<title>pymedphys._dicom.anonymise.strategy</title>
<ellipse fill="none" stroke="black" cx="1249.3" cy="-72" rx="193.87" ry="18"/>
<text text-anchor="middle" x="1249.3" y="-68.3" font-family="Times,serif" font-size="14.00">pymedphys._dicom.anonymise.strategy</text>
</g>
<!-- pymedphys._dicom.anonymise.core&#45;&gt;pymedphys._dicom.anonymise.strategy -->
<g id="edge4" class="edge">
<title>pymedphys._dicom.anonymise.core&#45;&gt;pymedphys._dicom.anonymise.strategy</title>
<path fill="none" stroke="black" d="M1019.7,-72C1028.18,-72 1036.73,-72 1045.28,-72"/>
<polygon fill="black" stroke="black" points="1045.32,-75.5 1055.32,-72 1045.32,-68.5 1045.32,-75.5"/>
</g>
<!-- pymedphys._dicom.utilities -->
<g id="node6" class="node">
<title>pymedphys._dicom.utilities</title>
<ellipse fill="none" stroke="black" cx="1249.3" cy="-18" rx="137.58" ry="18"/>
<text text-anchor="middle" x="1249.3" y="-14.3" font-family="Times,serif" font-size="14.00">pymedphys._dicom.utilities</text>
</g>
<!-- pymedphys._dicom.anonymise.api&#45;&gt;pymedphys._dicom.utilities -->
<g id="edge5" class="edge">
<title>pymedphys._dicom.anonymise.api&#45;&gt;pymedphys._dicom.utilities</title>
<path fill="none" stroke="black" d="M1013.86,-18C1042.76,-18 1072.59,-18 1100.89,-18"/>
<polygon fill="black" stroke="black" points="1101.24,-21.5 1111.24,-18 1101.24,-14.5 1101.24,-21.5"/>
</g>
<!-- pymedphys._dicom.constants.uuid -->
<g id="node7" class="node">
<title>pymedphys._dicom.constants.uuid</title>
<ellipse fill="none" stroke="black" cx="1679.81" cy="-180" rx="170.07" ry="18"/>
<text text-anchor="middle" x="1679.81" y="-176.3" font-family="Times,serif" font-size="14.00">pymedphys._dicom.constants.uuid</text>
</g>
<!-- pymedphys._dicom.constants&#45;&gt;pymedphys._dicom.constants.uuid -->
<g id="edge6" class="edge">
<title>pymedphys._dicom.constants&#45;&gt;pymedphys._dicom.constants.uuid</title>
<path fill="none" stroke="black" d="M1352.39,-138.87C1414.55,-146.7 1494.23,-156.74 1559.32,-164.94"/>
<polygon fill="black" stroke="black" points="1559.27,-168.46 1569.63,-166.24 1560.15,-161.52 1559.27,-168.46"/>
</g>
<!-- pymedphys._dicom.constants.core -->
<g id="node8" class="node">
<title>pymedphys._dicom.constants.core</title>
<ellipse fill="none" stroke="black" cx="1679.81" cy="-126" rx="169.77" ry="18"/>
<text text-anchor="middle" x="1679.81" y="-122.3" font-family="Times,serif" font-size="14.00">pymedphys._dicom.constants.core</text>
</g>
<!-- pymedphys._dicom.constants&#45;&gt;pymedphys._dicom.constants.core -->
<g id="edge7" class="edge">
<title>pymedphys._dicom.constants&#45;&gt;pymedphys._dicom.constants.core</title>
<path fill="none" stroke="black" d="M1396.27,-126C1429.61,-126 1465.4,-126 1499.94,-126"/>
<polygon fill="black" stroke="black" points="1500.12,-129.5 1510.12,-126 1500.12,-122.5 1500.12,-129.5"/>
</g>
<!-- pymedphys._dicom.constants.orientation -->
<g id="node9" class="node">
<title>pymedphys._dicom.constants.orientation</title>
<ellipse fill="none" stroke="black" cx="1679.81" cy="-72" rx="200.66" ry="18"/>
<text text-anchor="middle" x="1679.81" y="-68.3" font-family="Times,serif" font-size="14.00">pymedphys._dicom.constants.orientation</text>
</g>
<!-- pymedphys._dicom.constants&#45;&gt;pymedphys._dicom.constants.orientation -->
<g id="edge8" class="edge">
<title>pymedphys._dicom.constants&#45;&gt;pymedphys._dicom.constants.orientation</title>
<path fill="none" stroke="black" d="M1352.39,-113.13C1412.43,-105.57 1488.83,-95.94 1552.62,-87.9"/>
<polygon fill="black" stroke="black" points="1553.26,-91.35 1562.75,-86.63 1552.39,-84.4 1553.26,-91.35"/>
</g>
<!-- pymedphys._dicom.utilities.files -->
<g id="node10" class="node">
<title>pymedphys._dicom.utilities.files</title>
<ellipse fill="none" stroke="black" cx="1679.81" cy="-18" rx="159.47" ry="18"/>
<text text-anchor="middle" x="1679.81" y="-14.3" font-family="Times,serif" font-size="14.00">pymedphys._dicom.utilities.files</text>
</g>
<!-- pymedphys._dicom.utilities&#45;&gt;pymedphys._dicom.utilities.files -->
<g id="edge9" class="edge">
<title>pymedphys._dicom.utilities&#45;&gt;pymedphys._dicom.utilities.files</title>
<path fill="none" stroke="black" d="M1387.36,-18C1426.49,-18 1469.59,-18 1510.37,-18"/>
<polygon fill="black" stroke="black" points="1510.41,-21.5 1520.41,-18 1510.41,-14.5 1510.41,-21.5"/>
</g>
<!-- pymedphys.dicom.anonymise -->
<g id="node11" class="node">
<title>pymedphys.dicom.anonymise</title>
<ellipse fill="none" stroke="black" cx="147.54" cy="-45" rx="147.57" ry="18"/>
<text text-anchor="middle" x="147.54" y="-41.3" font-family="Times,serif" font-size="14.00">pymedphys.dicom.anonymise</text>
</g>
<!-- pymedphys.dicom.anonymise&#45;&gt;pymedphys._dicom.anonymise -->
<g id="edge10" class="edge">
<title>pymedphys.dicom.anonymise&#45;&gt;pymedphys._dicom.anonymise</title>
<path fill="none" stroke="black" d="M295.55,-45C303.91,-45 312.34,-45 320.75,-45"/>
<polygon fill="black" stroke="black" points="320.99,-48.5 330.99,-45 320.99,-41.5 320.99,-48.5"/>
</g>
</g>
</svg>
