<?xml version="1.0" encoding="UTF-8" standalone="no"?>
<!DOCTYPE svg PUBLIC "-//W3C//DTD SVG 1.1//EN"
 "http://www.w3.org/Graphics/SVG/1.1/DTD/svg11.dtd">
<!-- Generated by graphviz version 2.43.0 (0)
 -->
<!-- Title: pymedphys._trf.decode Pages: 1 -->
<svg width="448pt" height="332pt"
 viewBox="0.00 0.00 448.13 332.00" xmlns="http://www.w3.org/2000/svg" xmlns:xlink="http://www.w3.org/1999/xlink">
<g id="graph0" class="graph" transform="scale(1 1) rotate(0) translate(4 328)">
<title>pymedphys._trf.decode</title>
<polygon fill="white" stroke="transparent" points="-4,4 -4,-328 444.13,-328 444.13,4 -4,4"/>
<!-- pymedphys._trf.decode -->
<g id="node1" class="node">
<title>pymedphys._trf.decode</title>
<g id="a_node1"><a xlink:href="https://github.com/pymedphys/pymedphys/tree/main/lib/pymedphys/_trf/decode/__init__.py" xlink:title="_trf.decode">
<ellipse fill="none" stroke="black" cx="211.29" cy="-234" rx="61.99" ry="18"/>
<text text-anchor="middle" x="211.29" y="-230.3" font-family="Times,serif" font-size="14.00">_trf.decode</text>
</a>
</g>
</g>
<!-- pymedphys._trf.decode.trf2pandas -->
<g id="node2" class="node">
<title>pymedphys._trf.decode.trf2pandas</title>
<g id="a_node2"><a xlink:href="https://github.com/pymedphys/pymedphys/tree/main/lib/pymedphys/_trf/decode/trf2pandas.py" xlink:title="_trf.decode.trf2pandas">
<ellipse fill="none" stroke="black" cx="211.29" cy="-162" rx="115.88" ry="18"/>
<text text-anchor="middle" x="211.29" y="-158.3" font-family="Times,serif" font-size="14.00">_trf.decode.trf2pandas</text>
</a>
</g>
</g>
<!-- pymedphys._trf.decode&#45;&gt;pymedphys._trf.decode.trf2pandas -->
<g id="edge1" class="edge">
<title>pymedphys._trf.decode&#45;&gt;pymedphys._trf.decode.trf2pandas</title>
<path fill="none" stroke="black" d="M211.29,-215.7C211.29,-207.98 211.29,-198.71 211.29,-190.11"/>
<polygon fill="black" stroke="black" points="214.79,-190.1 211.29,-180.1 207.79,-190.1 214.79,-190.1"/>
</g>
<!-- pymedphys._trf.decode.table -->
<g id="node3" class="node">
<title>pymedphys._trf.decode.table</title>
<g id="a_node3"><a xlink:href="https://github.com/pymedphys/pymedphys/tree/main/lib/pymedphys/_trf/decode/table.py" xlink:title="_trf.decode.table">
<ellipse fill="none" stroke="black" cx="317.29" cy="-90" rx="88.28" ry="18"/>
<text text-anchor="middle" x="317.29" y="-86.3" font-family="Times,serif" font-size="14.00">_trf.decode.table</text>
</a>
</g>
</g>
<!-- pymedphys._trf.decode.trf2pandas&#45;&gt;pymedphys._trf.decode.table -->
<g id="edge2" class="edge">
<title>pymedphys._trf.decode.trf2pandas&#45;&gt;pymedphys._trf.decode.table</title>
<path fill="none" stroke="black" d="M236.41,-144.41C250.54,-135.08 268.35,-123.32 283.67,-113.2"/>
<polygon fill="black" stroke="black" points="285.93,-115.9 292.35,-107.47 282.08,-110.06 285.93,-115.9"/>
</g>
<!-- pymedphys._trf.decode.partition -->
<g id="node4" class="node">
<title>pymedphys._trf.decode.partition</title>
<g id="a_node4"><a xlink:href="https://github.com/pymedphys/pymedphys/tree/main/lib/pymedphys/_trf/decode/partition.py" xlink:title="_trf.decode.partition">
<ellipse fill="none" stroke="black" cx="105.29" cy="-90" rx="105.08" ry="18"/>
<text text-anchor="middle" x="105.29" y="-86.3" font-family="Times,serif" font-size="14.00">_trf.decode.partition</text>
</a>
</g>
</g>
<!-- pymedphys._trf.decode.trf2pandas&#45;&gt;pymedphys._trf.decode.partition -->
<g id="edge3" class="edge">
<title>pymedphys._trf.decode.trf2pandas&#45;&gt;pymedphys._trf.decode.partition</title>
<path fill="none" stroke="black" d="M186.17,-144.41C172.15,-135.15 154.48,-123.49 139.25,-113.42"/>
<polygon fill="black" stroke="black" points="140.87,-110.3 130.6,-107.71 137.01,-116.14 140.87,-110.3"/>
</g>
<!-- pymedphys._trf.decode.header -->
<g id="node5" class="node">
<title>pymedphys._trf.decode.header</title>
<g id="a_node5"><a xlink:href="https://github.com/pymedphys/pymedphys/tree/main/lib/pymedphys/_trf/decode/header.py" xlink:title="_trf.decode.header">
<ellipse fill="none" stroke="black" cx="105.29" cy="-18" rx="96.68" ry="18"/>
<text text-anchor="middle" x="105.29" y="-14.3" font-family="Times,serif" font-size="14.00">_trf.decode.header</text>
</a>
</g>
</g>
<!-- pymedphys._trf.decode.table&#45;&gt;pymedphys._trf.decode.header -->
<g id="edge4" class="edge">
<title>pymedphys._trf.decode.table&#45;&gt;pymedphys._trf.decode.header</title>
<path fill="none" stroke="black" d="M272.85,-74.33C240.11,-63.52 195.38,-48.75 160.37,-37.19"/>
<polygon fill="black" stroke="black" points="161.36,-33.83 150.77,-34.02 159.17,-40.48 161.36,-33.83"/>
</g>
<!-- pymedphys._trf.decode.constants -->
<g id="node6" class="node">
<title>pymedphys._trf.decode.constants</title>
<g id="a_node6"><a xlink:href="https://github.com/pymedphys/pymedphys/tree/main/lib/pymedphys/_trf/decode/constants.py" xlink:title="_trf.decode.constants">
<ellipse fill="none" stroke="black" cx="330.29" cy="-18" rx="109.68" ry="18"/>
<text text-anchor="middle" x="330.29" y="-14.3" font-family="Times,serif" font-size="14.00">_trf.decode.constants</text>
</a>
</g>
</g>
<!-- pymedphys._trf.decode.table&#45;&gt;pymedphys._trf.decode.constants -->
<g id="edge5" class="edge">
<title>pymedphys._trf.decode.table&#45;&gt;pymedphys._trf.decode.constants</title>
<path fill="none" stroke="black" d="M320.5,-71.7C321.94,-63.98 323.66,-54.71 325.26,-46.11"/>
<polygon fill="black" stroke="black" points="328.73,-46.58 327.11,-36.1 321.85,-45.3 328.73,-46.58"/>
</g>
<!-- pymedphys._trf.decode.partition&#45;&gt;pymedphys._trf.decode.header -->
<g id="edge6" class="edge">
<title>pymedphys._trf.decode.partition&#45;&gt;pymedphys._trf.decode.header</title>
<path fill="none" stroke="black" d="M105.29,-71.7C105.29,-63.98 105.29,-54.71 105.29,-46.11"/>
<polygon fill="black" stroke="black" points="108.79,-46.1 105.29,-36.1 101.79,-46.1 108.79,-46.1"/>
</g>
<!-- pymedphys.trf.read -->
<g id="node7" class="node">
<title>pymedphys.trf.read</title>
<g id="a_node7"><a xlink:href="https://github.com/pymedphys/pymedphys/tree/main/lib/pymedphys/_trf/decode/__init__.py" xlink:title="pymedphys.trf.read">
<ellipse fill="none" stroke="black" cx="211.29" cy="-306" rx="102.08" ry="18"/>
<text text-anchor="middle" x="211.29" y="-302.3" font-family="Times,serif" font-size="14.00">pymedphys.trf.read</text>
</a>
</g>
</g>
<!-- pymedphys.trf.read&#45;&gt;pymedphys._trf.decode -->
<g id="edge7" class="edge">
<title>pymedphys.trf.read&#45;&gt;pymedphys._trf.decode</title>
<path fill="none" stroke="black" d="M211.29,-287.7C211.29,-279.98 211.29,-270.71 211.29,-262.11"/>
<polygon fill="black" stroke="black" points="214.79,-262.1 211.29,-252.1 207.79,-262.1 214.79,-262.1"/>
</g>
</g>
</svg>
