<?xml version="1.0" encoding="UTF-8" standalone="no"?>
<!DOCTYPE svg PUBLIC "-//W3C//DTD SVG 1.1//EN"
 "http://www.w3.org/Graphics/SVG/1.1/DTD/svg11.dtd">
<!-- Generated by graphviz version 2.43.0 (0)
 -->
<!-- Title: sample Pages: 1 -->
<svg width="1590pt" height="152pt"
 viewBox="0.00 0.00 1589.67 152.00" xmlns="http://www.w3.org/2000/svg" xmlns:xlink="http://www.w3.org/1999/xlink">
<g id="graph0" class="graph" transform="scale(1 1) rotate(0) translate(4 148)">
<title>sample</title>
<polygon fill="white" stroke="transparent" points="-4,4 -4,-148 1585.67,-148 1585.67,4 -4,4"/>
<!-- pymedphys._trf.decode -->
<g id="node1" class="node">
<title>pymedphys._trf.decode</title>
<ellipse fill="none" stroke="black" cx="358.37" cy="-72" rx="118.08" ry="18"/>
<text text-anchor="middle" x="358.37" y="-68.3" font-family="Times,serif" font-size="14.00">pymedphys._trf.decode</text>
</g>
<!-- pymedphys._trf.decode.trf2pandas -->
<g id="node2" class="node">
<title>pymedphys._trf.decode.trf2pandas</title>
<ellipse fill="none" stroke="black" cx="684.25" cy="-72" rx="171.67" ry="18"/>
<text text-anchor="middle" x="684.25" y="-68.3" font-family="Times,serif" font-size="14.00">pymedphys._trf.decode.trf2pandas</text>
</g>
<!-- pymedphys._trf.decode&#45;&gt;pymedphys._trf.decode.trf2pandas -->
<g id="edge1" class="edge">
<title>pymedphys._trf.decode&#45;&gt;pymedphys._trf.decode.trf2pandas</title>
<path fill="none" stroke="black" d="M476.76,-72C485.15,-72 493.71,-72 502.35,-72"/>
<polygon fill="black" stroke="black" points="502.52,-75.5 512.52,-72 502.52,-68.5 502.52,-75.5"/>
</g>
<!-- pymedphys._trf.decode.partition -->
<g id="node3" class="node">
<title>pymedphys._trf.decode.partition</title>
<ellipse fill="none" stroke="black" cx="1053.02" cy="-126" rx="161.37" ry="18"/>
<text text-anchor="middle" x="1053.02" y="-122.3" font-family="Times,serif" font-size="14.00">pymedphys._trf.decode.partition</text>
</g>
<!-- pymedphys._trf.decode.trf2pandas&#45;&gt;pymedphys._trf.decode.partition -->
<g id="edge2" class="edge">
<title>pymedphys._trf.decode.trf2pandas&#45;&gt;pymedphys._trf.decode.partition</title>
<path fill="none" stroke="black" d="M784.5,-86.61C834.12,-93.92 894.24,-102.77 944.9,-110.23"/>
<polygon fill="black" stroke="black" points="944.5,-113.71 954.9,-111.7 945.52,-106.78 944.5,-113.71"/>
</g>
<!-- pymedphys._trf.decode.table -->
<g id="node4" class="node">
<title>pymedphys._trf.decode.table</title>
<ellipse fill="none" stroke="black" cx="1053.02" cy="-72" rx="144.07" ry="18"/>
<text text-anchor="middle" x="1053.02" y="-68.3" font-family="Times,serif" font-size="14.00">pymedphys._trf.decode.table</text>
</g>
<!-- pymedphys._trf.decode.trf2pandas&#45;&gt;pymedphys._trf.decode.table -->
<g id="edge3" class="edge">
<title>pymedphys._trf.decode.trf2pandas&#45;&gt;pymedphys._trf.decode.table</title>
<path fill="none" stroke="black" d="M856.01,-72C870.15,-72 884.39,-72 898.39,-72"/>
<polygon fill="black" stroke="black" points="898.54,-75.5 908.54,-72 898.54,-68.5 898.54,-75.5"/>
</g>
<!-- pymedphys._trf.decode.header -->
<g id="node5" class="node">
<title>pymedphys._trf.decode.header</title>
<ellipse fill="none" stroke="black" cx="1053.02" cy="-18" rx="153.27" ry="18"/>
<text text-anchor="middle" x="1053.02" y="-14.3" font-family="Times,serif" font-size="14.00">pymedphys._trf.decode.header</text>
</g>
<!-- pymedphys._trf.decode.trf2pandas&#45;&gt;pymedphys._trf.decode.header -->
<g id="edge4" class="edge">
<title>pymedphys._trf.decode.trf2pandas&#45;&gt;pymedphys._trf.decode.header</title>
<path fill="none" stroke="black" d="M784.5,-57.39C834.72,-49.99 895.69,-41.02 946.73,-33.5"/>
<polygon fill="black" stroke="black" points="947.41,-36.94 956.8,-32.02 946.39,-30.01 947.41,-36.94"/>
</g>
<!-- pymedphys._trf.decode.constants -->
<g id="node6" class="node">
<title>pymedphys._trf.decode.constants</title>
<ellipse fill="none" stroke="black" cx="1415.94" cy="-72" rx="165.97" ry="18"/>
<text text-anchor="middle" x="1415.94" y="-68.3" font-family="Times,serif" font-size="14.00">pymedphys._trf.decode.constants</text>
</g>
<!-- pymedphys._trf.decode.table&#45;&gt;pymedphys._trf.decode.constants -->
<g id="edge5" class="edge">
<title>pymedphys._trf.decode.table&#45;&gt;pymedphys._trf.decode.constants</title>
<path fill="none" stroke="black" d="M1197.44,-72C1211.37,-72 1225.6,-72 1239.8,-72"/>
<polygon fill="black" stroke="black" points="1240.12,-75.5 1250.12,-72 1240.12,-68.5 1240.12,-75.5"/>
</g>
<!-- pymedphys.trf.read -->
<g id="node7" class="node">
<title>pymedphys.trf.read</title>
<ellipse fill="none" stroke="black" cx="102.04" cy="-72" rx="102.08" ry="18"/>
<text text-anchor="middle" x="102.04" y="-68.3" font-family="Times,serif" font-size="14.00">pymedphys.trf.read</text>
</g>
<!-- pymedphys.trf.read&#45;&gt;pymedphys._trf.decode -->
<g id="edge6" class="edge">
<title>pymedphys.trf.read&#45;&gt;pymedphys._trf.decode</title>
<path fill="none" stroke="black" d="M204.29,-72C212.56,-72 220.99,-72 229.42,-72"/>
<polygon fill="black" stroke="black" points="229.69,-75.5 239.69,-72 229.69,-68.5 229.69,-75.5"/>
</g>
</g>
</svg>
