<?xml version="1.0" encoding="UTF-8" standalone="no"?>
<!DOCTYPE svg PUBLIC "-//W3C//DTD SVG 1.1//EN"
 "http://www.w3.org/Graphics/SVG/1.1/DTD/svg11.dtd">
<!-- Generated by graphviz version 2.43.0 (0)
 -->
<!-- Title: pymedphys._dicom.dose Pages: 1 -->
<svg width="1966pt" height="287pt"
 viewBox="0.00 0.00 1965.85 287.00" xmlns="http://www.w3.org/2000/svg" xmlns:xlink="http://www.w3.org/1999/xlink">
<g id="graph0" class="graph" transform="scale(1 1) rotate(0) translate(4 283)">
<title>pymedphys._dicom.dose</title>
<polygon fill="white" stroke="transparent" points="-4,4 -4,-283 1961.85,-283 1961.85,4 -4,4"/>
<!-- pymedphys._dicom.dose -->
<g id="node1" class="node">
<title>pymedphys._dicom.dose</title>
<g id="a_node1"><a xlink:href="https://github.com/pymedphys/pymedphys/tree/main/lib/pymedphys/_dicom/dose.py" xlink:title="_dicom.dose">
<ellipse fill="none" stroke="black" cx="554.65" cy="-180" rx="67.69" ry="18"/>
<text text-anchor="middle" x="554.65" y="-176.3" font-family="Times,serif" font-size="14.00">_dicom.dose</text>
</a>
</g>
</g>
<!-- pymedphys._dicom.coords -->
<g id="node2" class="node">
<title>pymedphys._dicom.coords</title>
<g id="a_node2"><a xlink:href="https://github.com/pymedphys/pymedphys/tree/main/lib/pymedphys/_dicom/coords.py" xlink:title="_dicom.coords">
<ellipse fill="none" stroke="black" cx="749.24" cy="-261" rx="76.89" ry="18"/>
<text text-anchor="middle" x="749.24" y="-257.3" font-family="Times,serif" font-size="14.00">_dicom.coords</text>
</a>
</g>
</g>
<!-- pymedphys._dicom.dose&#45;&gt;pymedphys._dicom.coords -->
<g id="edge1" class="edge">
<title>pymedphys._dicom.dose&#45;&gt;pymedphys._dicom.coords</title>
<path fill="none" stroke="black" d="M583.26,-196.4C603.52,-207.97 631.98,-223.26 658.25,-234 667.53,-237.8 677.55,-241.33 687.41,-244.5"/>
<polygon fill="black" stroke="black" points="686.6,-247.91 697.19,-247.55 688.69,-241.23 686.6,-247.91"/>
</g>
<!-- pymedphys._dicom.structure -->
<g id="node3" class="node">
<title>pymedphys._dicom.structure</title>
<g id="a_node3"><a xlink:href="https://github.com/pymedphys/pymedphys/tree/main/lib/pymedphys/_dicom/structure/__init__.py" xlink:title="_dicom.structure">
<ellipse fill="none" stroke="black" cx="749.24" cy="-207" rx="89.08" ry="18"/>
<text text-anchor="middle" x="749.24" y="-203.3" font-family="Times,serif" font-size="14.00">_dicom.structure</text>
</a>
</g>
</g>
<!-- pymedphys._dicom.dose&#45;&gt;pymedphys._dicom.structure -->
<g id="edge2" class="edge">
<title>pymedphys._dicom.dose&#45;&gt;pymedphys._dicom.structure</title>
<path fill="none" stroke="black" d="M614.74,-188.28C630.83,-190.54 648.55,-193.02 665.67,-195.42"/>
<polygon fill="black" stroke="black" points="665.28,-198.9 675.67,-196.83 666.26,-191.97 665.28,-198.9"/>
</g>
<!-- pymedphys._dicom.constants -->
<g id="node4" class="node">
<title>pymedphys._dicom.constants</title>
<g id="a_node4"><a xlink:href="https://github.com/pymedphys/pymedphys/tree/main/lib/pymedphys/_dicom/constants/__init__.py" xlink:title="_dicom.constants">
<ellipse fill="none" stroke="black" cx="749.24" cy="-153" rx="90.98" ry="18"/>
<text text-anchor="middle" x="749.24" y="-149.3" font-family="Times,serif" font-size="14.00">_dicom.constants</text>
</a>
</g>
</g>
<!-- pymedphys._dicom.dose&#45;&gt;pymedphys._dicom.constants -->
<g id="edge3" class="edge">
<title>pymedphys._dicom.dose&#45;&gt;pymedphys._dicom.constants</title>
<path fill="none" stroke="black" d="M614.74,-171.72C630.4,-169.52 647.61,-167.11 664.31,-164.77"/>
<polygon fill="black" stroke="black" points="665.21,-168.17 674.63,-163.32 664.24,-161.24 665.21,-168.17"/>
</g>
<!-- pymedphys._dicom.rtplan -->
<g id="node5" class="node">
<title>pymedphys._dicom.rtplan</title>
<g id="a_node5"><a xlink:href="https://github.com/pymedphys/pymedphys/tree/main/lib/pymedphys/_dicom/rtplan/__init__.py" xlink:title="_dicom.rtplan">
<ellipse fill="none" stroke="black" cx="749.24" cy="-72" rx="74.19" ry="18"/>
<text text-anchor="middle" x="749.24" y="-68.3" font-family="Times,serif" font-size="14.00">_dicom.rtplan</text>
</a>
</g>
</g>
<!-- pymedphys._dicom.dose&#45;&gt;pymedphys._dicom.rtplan -->
<g id="edge4" class="edge">
<title>pymedphys._dicom.dose&#45;&gt;pymedphys._dicom.rtplan</title>
<path fill="none" stroke="black" d="M584.49,-163.83C617.86,-145.12 672.96,-114.22 709.91,-93.49"/>
<polygon fill="black" stroke="black" points="711.88,-96.4 718.89,-88.46 708.46,-90.3 711.88,-96.4"/>
</g>
<!-- pymedphys._dicom.constants.uuid -->
<g id="node6" class="node">
<title>pymedphys._dicom.constants.uuid</title>
<g id="a_node6"><a xlink:href="https://github.com/pymedphys/pymedphys/tree/main/lib/pymedphys/_dicom/constants/uuid.py" xlink:title="_dicom.constants.uuid">
<ellipse fill="none" stroke="black" cx="1021.17" cy="-234" rx="114.28" ry="18"/>
<text text-anchor="middle" x="1021.17" y="-230.3" font-family="Times,serif" font-size="14.00">_dicom.constants.uuid</text>
</a>
</g>
</g>
<!-- pymedphys._dicom.constants&#45;&gt;pymedphys._dicom.constants.uuid -->
<g id="edge5" class="edge">
<title>pymedphys._dicom.constants&#45;&gt;pymedphys._dicom.constants.uuid</title>
<path fill="none" stroke="black" d="M807.58,-166.9C818.69,-170.5 830.04,-174.85 840.23,-180 858.09,-189.01 857.93,-198.95 876.23,-207 889.47,-212.82 903.93,-217.39 918.41,-220.98"/>
<polygon fill="black" stroke="black" points="917.9,-224.45 928.43,-223.3 919.48,-217.63 917.9,-224.45"/>
</g>
<!-- pymedphys._dicom.constants.core -->
<g id="node7" class="node">
<title>pymedphys._dicom.constants.core</title>
<g id="a_node7"><a xlink:href="https://github.com/pymedphys/pymedphys/tree/main/lib/pymedphys/_dicom/constants/core.py" xlink:title="_dicom.constants.core">
<ellipse fill="none" stroke="black" cx="1021.17" cy="-180" rx="113.98" ry="18"/>
<text text-anchor="middle" x="1021.17" y="-176.3" font-family="Times,serif" font-size="14.00">_dicom.constants.core</text>
</a>
</g>
</g>
<!-- pymedphys._dicom.constants&#45;&gt;pymedphys._dicom.constants.core -->
<g id="edge6" class="edge">
<title>pymedphys._dicom.constants&#45;&gt;pymedphys._dicom.constants.core</title>
<path fill="none" stroke="black" d="M830.86,-161.06C857.01,-163.68 886.43,-166.62 914.14,-169.39"/>
<polygon fill="black" stroke="black" points="913.96,-172.89 924.26,-170.41 914.66,-165.93 913.96,-172.89"/>
</g>
<!-- pymedphys._dicom.constants.orientation -->
<g id="node8" class="node">
<title>pymedphys._dicom.constants.orientation</title>
<g id="a_node8"><a xlink:href="https://github.com/pymedphys/pymedphys/tree/main/lib/pymedphys/_dicom/constants/orientation.py" xlink:title="_dicom.constants.orientation">
<ellipse fill="none" stroke="black" cx="1021.17" cy="-126" rx="144.87" ry="18"/>
<text text-anchor="middle" x="1021.17" y="-122.3" font-family="Times,serif" font-size="14.00">_dicom.constants.orientation</text>
</a>
</g>
</g>
<!-- pymedphys._dicom.constants&#45;&gt;pymedphys._dicom.constants.orientation -->
<g id="edge7" class="edge">
<title>pymedphys._dicom.constants&#45;&gt;pymedphys._dicom.constants.orientation</title>
<path fill="none" stroke="black" d="M830.86,-144.94C851.84,-142.84 874.91,-140.53 897.53,-138.27"/>
<polygon fill="black" stroke="black" points="897.92,-141.75 907.53,-137.27 897.23,-134.78 897.92,-141.75"/>
</g>
<!-- pymedphys._dicom.rtplan.build -->
<g id="node10" class="node">
<title>pymedphys._dicom.rtplan.build</title>
<g id="a_node10"><a xlink:href="https://github.com/pymedphys/pymedphys/tree/main/lib/pymedphys/_dicom/rtplan/build.py" xlink:title="_dicom.rtplan.build">
<ellipse fill="none" stroke="black" cx="1021.17" cy="-72" rx="100.98" ry="18"/>
<text text-anchor="middle" x="1021.17" y="-68.3" font-family="Times,serif" font-size="14.00">_dicom.rtplan.build</text>
</a>
</g>
</g>
<!-- pymedphys._dicom.rtplan&#45;&gt;pymedphys._dicom.rtplan.build -->
<g id="edge8" class="edge">
<title>pymedphys._dicom.rtplan&#45;&gt;pymedphys._dicom.rtplan.build</title>
<path fill="none" stroke="black" d="M823.64,-72C850.25,-72 880.91,-72 909.99,-72"/>
<polygon fill="black" stroke="black" points="910.2,-75.5 920.2,-72 910.2,-68.5 910.2,-75.5"/>
</g>
<!-- pymedphys._dicom.rtplan.adjust -->
<g id="node11" class="node">
<title>pymedphys._dicom.rtplan.adjust</title>
<g id="a_node11"><a xlink:href="https://github.com/pymedphys/pymedphys/tree/main/lib/pymedphys/_dicom/rtplan/adjust.py" xlink:title="_dicom.rtplan.adjust">
<ellipse fill="none" stroke="black" cx="1021.17" cy="-18" rx="105.88" ry="18"/>
<text text-anchor="middle" x="1021.17" y="-14.3" font-family="Times,serif" font-size="14.00">_dicom.rtplan.adjust</text>
</a>
</g>
</g>
<!-- pymedphys._dicom.rtplan&#45;&gt;pymedphys._dicom.rtplan.adjust -->
<g id="edge9" class="edge">
<title>pymedphys._dicom.rtplan&#45;&gt;pymedphys._dicom.rtplan.adjust</title>
<path fill="none" stroke="black" d="M804.75,-60C826.9,-55.21 852.76,-49.71 876.23,-45 896.37,-40.95 918.13,-36.77 938.48,-32.95"/>
<polygon fill="black" stroke="black" points="939.16,-36.38 948.35,-31.1 937.88,-29.5 939.16,-36.38"/>
</g>
<!-- pymedphys._dicom.rtplan.core -->
<g id="node9" class="node">
<title>pymedphys._dicom.rtplan.core</title>
<g id="a_node9"><a xlink:href="https://github.com/pymedphys/pymedphys/tree/main/lib/pymedphys/_dicom/rtplan/core.py" xlink:title="_dicom.rtplan.core">
<ellipse fill="none" stroke="black" cx="1298.95" cy="-18" rx="96.68" ry="18"/>
<text text-anchor="middle" x="1298.95" y="-14.3" font-family="Times,serif" font-size="14.00">_dicom.rtplan.core</text>
</a>
</g>
</g>
<!-- pymedphys._utilities.transforms -->
<g id="node12" class="node">
<title>pymedphys._utilities.transforms</title>
<g id="a_node12"><a xlink:href="https://github.com/pymedphys/pymedphys/tree/main/lib/pymedphys/_utilities/transforms/__init__.py" xlink:title="_utilities.transforms">
<ellipse fill="none" stroke="black" cx="1536.43" cy="-18" rx="104.78" ry="18"/>
<text text-anchor="middle" x="1536.43" y="-14.3" font-family="Times,serif" font-size="14.00">_utilities.transforms</text>
</a>
</g>
</g>
<!-- pymedphys._dicom.rtplan.core&#45;&gt;pymedphys._utilities.transforms -->
<g id="edge10" class="edge">
<title>pymedphys._dicom.rtplan.core&#45;&gt;pymedphys._utilities.transforms</title>
<path fill="none" stroke="black" d="M1396.07,-18C1404.38,-18 1412.85,-18 1421.29,-18"/>
<polygon fill="black" stroke="black" points="1421.57,-21.5 1431.57,-18 1421.57,-14.5 1421.57,-21.5"/>
</g>
<!-- pymedphys._dicom.rtplan.adjust&#45;&gt;pymedphys._dicom.rtplan.core -->
<g id="edge11" class="edge">
<title>pymedphys._dicom.rtplan.adjust&#45;&gt;pymedphys._dicom.rtplan.core</title>
<path fill="none" stroke="black" d="M1127.22,-18C1148.28,-18 1170.42,-18 1191.53,-18"/>
<polygon fill="black" stroke="black" points="1191.8,-21.5 1201.8,-18 1191.8,-14.5 1191.8,-21.5"/>
</g>
<!-- pymedphys._utilities.transforms.bipolar -->
<g id="node13" class="node">
<title>pymedphys._utilities.transforms.bipolar</title>
<g id="a_node13"><a xlink:href="https://github.com/pymedphys/pymedphys/tree/main/lib/pymedphys/_utilities/transforms/bipolar.py" xlink:title="_utilities.transforms.bipolar">
<ellipse fill="none" stroke="black" cx="1817.46" cy="-18" rx="140.28" ry="18"/>
<text text-anchor="middle" x="1817.46" y="-14.3" font-family="Times,serif" font-size="14.00">_utilities.transforms.bipolar</text>
</a>
</g>
</g>
<!-- pymedphys._utilities.transforms&#45;&gt;pymedphys._utilities.transforms.bipolar -->
<g id="edge12" class="edge">
<title>pymedphys._utilities.transforms&#45;&gt;pymedphys._utilities.transforms.bipolar</title>
<path fill="none" stroke="black" d="M1641.33,-18C1649.68,-18 1658.22,-18 1666.8,-18"/>
<polygon fill="black" stroke="black" points="1666.9,-21.5 1676.9,-18 1666.9,-14.5 1666.9,-21.5"/>
</g>
<!-- pymedphys.dicom.zyx_and_dose_from_dataset -->
<g id="node14" class="node">
<title>pymedphys.dicom.zyx_and_dose_from_dataset</title>
<g id="a_node14"><a xlink:href="https://github.com/pymedphys/pymedphys/tree/main/lib/pymedphys/_dicom/dose.py" xlink:title="pymedphys.dicom.zyx_and_dose_from_dataset">
<ellipse fill="none" stroke="black" cx="225.53" cy="-261" rx="225.56" ry="18"/>
<text text-anchor="middle" x="225.53" y="-257.3" font-family="Times,serif" font-size="14.00">pymedphys.dicom.zyx_and_dose_from_dataset</text>
</a>
</g>
</g>
<!-- pymedphys.dicom.zyx_and_dose_from_dataset&#45;&gt;pymedphys._dicom.dose -->
<g id="edge13" class="edge">
<title>pymedphys.dicom.zyx_and_dose_from_dataset&#45;&gt;pymedphys._dicom.dose</title>
<path fill="none" stroke="black" d="M389.3,-248.57C410.33,-244.89 431.38,-240.13 451.06,-234 475.11,-226.5 500.17,-213.43 519.51,-202.02"/>
<polygon fill="black" stroke="black" points="521.48,-204.92 528.23,-196.76 517.86,-198.92 521.48,-204.92"/>
</g>
<!-- pymedphys.dicom.profile -->
<g id="node15" class="node">
<title>pymedphys.dicom.profile</title>
<g id="a_node15"><a xlink:href="https://github.com/pymedphys/pymedphys/tree/main/lib/pymedphys/_dicom/dose.py" xlink:title="pymedphys.dicom.profile">
<ellipse fill="none" stroke="black" cx="225.53" cy="-207" rx="127.28" ry="18"/>
<text text-anchor="middle" x="225.53" y="-203.3" font-family="Times,serif" font-size="14.00">pymedphys.dicom.profile</text>
</a>
</g>
</g>
<!-- pymedphys.dicom.profile&#45;&gt;pymedphys._dicom.dose -->
<g id="edge14" class="edge">
<title>pymedphys.dicom.profile&#45;&gt;pymedphys._dicom.dose</title>
<path fill="none" stroke="black" d="M335.91,-197.97C383.2,-194.07 437.3,-189.6 479.74,-186.1"/>
<polygon fill="black" stroke="black" points="480.04,-189.59 489.71,-185.28 479.46,-182.61 480.04,-189.59"/>
</g>
<!-- pymedphys.dicom.depth_dose -->
<g id="node16" class="node">
<title>pymedphys.dicom.depth_dose</title>
<g id="a_node16"><a xlink:href="https://github.com/pymedphys/pymedphys/tree/main/lib/pymedphys/_dicom/dose.py" xlink:title="pymedphys.dicom.depth_dose">
<ellipse fill="none" stroke="black" cx="225.53" cy="-153" rx="150.27" ry="18"/>
<text text-anchor="middle" x="225.53" y="-149.3" font-family="Times,serif" font-size="14.00">pymedphys.dicom.depth_dose</text>
</a>
</g>
</g>
<!-- pymedphys.dicom.depth_dose&#45;&gt;pymedphys._dicom.dose -->
<g id="edge15" class="edge">
<title>pymedphys.dicom.depth_dose&#45;&gt;pymedphys._dicom.dose</title>
<path fill="none" stroke="black" d="M349.74,-163.17C393.46,-166.78 441.29,-170.73 479.63,-173.89"/>
<polygon fill="black" stroke="black" points="479.42,-177.38 489.67,-174.72 479.99,-170.41 479.42,-177.38"/>
</g>
<!-- pymedphys.dicom.dicom_dose_interpolate -->
<g id="node17" class="node">
<title>pymedphys.dicom.dicom_dose_interpolate</title>
<g id="a_node17"><a xlink:href="https://github.com/pymedphys/pymedphys/tree/main/lib/pymedphys/_dicom/dose.py" xlink:title="pymedphys.dicom.dicom_dose_interpolate">
<ellipse fill="none" stroke="black" cx="225.53" cy="-99" rx="206.86" ry="18"/>
<text text-anchor="middle" x="225.53" y="-95.3" font-family="Times,serif" font-size="14.00">pymedphys.dicom.dicom_dose_interpolate</text>
</a>
</g>
</g>
<!-- pymedphys.dicom.dicom_dose_interpolate&#45;&gt;pymedphys._dicom.dose -->
<g id="edge16" class="edge">
<title>pymedphys.dicom.dicom_dose_interpolate&#45;&gt;pymedphys._dicom.dose</title>
<path fill="none" stroke="black" d="M384.19,-110.56C406.91,-114.35 429.79,-119.37 451.06,-126 475.11,-133.5 500.17,-146.57 519.51,-157.98"/>
<polygon fill="black" stroke="black" points="517.86,-161.08 528.23,-163.24 521.48,-155.08 517.86,-161.08"/>
</g>
</g>
</svg>
