<?xml version="1.0" encoding="UTF-8" standalone="no"?>
<!DOCTYPE svg PUBLIC "-//W3C//DTD SVG 1.1//EN"
 "http://www.w3.org/Graphics/SVG/1.1/DTD/svg11.dtd">
<!-- Generated by graphviz version 2.43.0 (0)
 -->
<!-- Title: pymedphys._electronfactors Pages: 1 -->
<svg width="1202pt" height="476pt"
 viewBox="0.00 0.00 1201.80 476.00" xmlns="http://www.w3.org/2000/svg" xmlns:xlink="http://www.w3.org/1999/xlink">
<g id="graph0" class="graph" transform="scale(1 1) rotate(0) translate(4 472)">
<title>pymedphys._electronfactors</title>
<polygon fill="white" stroke="transparent" points="-4,4 -4,-472 1197.8,-472 1197.8,4 -4,4"/>
<!-- pymedphys._electronfactors -->
<g id="node1" class="node">
<title>pymedphys._electronfactors</title>
<g id="a_node1"><a xlink:href="https://github.com/pymedphys/pymedphys/tree/main/lib/pymedphys/_electronfactors/__init__.py" xlink:title="_electronfactors">
<ellipse fill="none" stroke="black" cx="778.88" cy="-234" rx="85.29" ry="18"/>
<text text-anchor="middle" x="778.88" y="-230.3" font-family="Times,serif" font-size="14.00">_electronfactors</text>
</a>
</g>
</g>
<!-- pymedphys._electronfactors.core -->
<g id="node2" class="node">
<title>pymedphys._electronfactors.core</title>
<g id="a_node2"><a xlink:href="https://github.com/pymedphys/pymedphys/tree/main/lib/pymedphys/_electronfactors/core.py" xlink:title="_electronfactors.core">
<ellipse fill="none" stroke="black" cx="1046.91" cy="-261" rx="108.58" ry="18"/>
<text text-anchor="middle" x="1046.91" y="-257.3" font-family="Times,serif" font-size="14.00">_electronfactors.core</text>
</a>
</g>
</g>
<!-- pymedphys._electronfactors&#45;&gt;pymedphys._electronfactors.core -->
<g id="edge1" class="edge">
<title>pymedphys._electronfactors&#45;&gt;pymedphys._electronfactors.core</title>
<path fill="none" stroke="black" d="M856.12,-241.74C883.31,-244.5 914.4,-247.65 943.44,-250.6"/>
<polygon fill="black" stroke="black" points="943.32,-254.11 953.62,-251.63 944.02,-247.14 943.32,-254.11"/>
</g>
<!-- pymedphys._electronfactors.visualisation -->
<g id="node3" class="node">
<title>pymedphys._electronfactors.visualisation</title>
<g id="a_node3"><a xlink:href="https://github.com/pymedphys/pymedphys/tree/main/lib/pymedphys/_electronfactors/visualisation.py" xlink:title="_electronfactors.visualisation">
<ellipse fill="none" stroke="black" cx="1046.91" cy="-207" rx="146.77" ry="18"/>
<text text-anchor="middle" x="1046.91" y="-203.3" font-family="Times,serif" font-size="14.00">_electronfactors.visualisation</text>
</a>
</g>
</g>
<!-- pymedphys._electronfactors&#45;&gt;pymedphys._electronfactors.visualisation -->
<g id="edge2" class="edge">
<title>pymedphys._electronfactors&#45;&gt;pymedphys._electronfactors.visualisation</title>
<path fill="none" stroke="black" d="M856.12,-226.26C876.98,-224.15 900.14,-221.79 922.91,-219.48"/>
<polygon fill="black" stroke="black" points="923.38,-222.95 932.98,-218.46 922.68,-215.99 923.38,-222.95"/>
</g>
<!-- pymedphys.electronfactors.visual_alignment_of_equivalent_ellipse -->
<g id="node4" class="node">
<title>pymedphys.electronfactors.visual_alignment_of_equivalent_ellipse</title>
<g id="a_node4"><a xlink:href="https://github.com/pymedphys/pymedphys/tree/main/lib/pymedphys/_electronfactors/__init__.py" xlink:title="pymedphys.electronfactors.visual_alignment_of_equivalent_ellipse">
<ellipse fill="none" stroke="black" cx="328.87" cy="-450" rx="319.24" ry="18"/>
<text text-anchor="middle" x="328.87" y="-446.3" font-family="Times,serif" font-size="14.00">pymedphys.electronfactors.visual_alignment_of_equivalent_ellipse</text>
</a>
</g>
</g>
<!-- pymedphys.electronfactors.visual_alignment_of_equivalent_ellipse&#45;&gt;pymedphys._electronfactors -->
<g id="edge3" class="edge">
<title>pymedphys.electronfactors.visual_alignment_of_equivalent_ellipse&#45;&gt;pymedphys._electronfactors</title>
<path fill="none" stroke="black" d="M617.91,-442.22C631.78,-436.95 645.15,-430.6 657.74,-423 719.06,-385.97 754.34,-304.35 769.31,-261.5"/>
<polygon fill="black" stroke="black" points="772.64,-262.58 772.52,-251.99 766,-260.34 772.64,-262.58"/>
</g>
<!-- pymedphys.electronfactors.calculate_percent_prediction_differences -->
<g id="node5" class="node">
<title>pymedphys.electronfactors.calculate_percent_prediction_differences</title>
<g id="a_node5"><a xlink:href="https://github.com/pymedphys/pymedphys/tree/main/lib/pymedphys/_electronfactors/__init__.py" xlink:title="pymedphys.electronfactors.calculate_percent_prediction_differences">
<ellipse fill="none" stroke="black" cx="328.87" cy="-396" rx="328.74" ry="18"/>
<text text-anchor="middle" x="328.87" y="-392.3" font-family="Times,serif" font-size="14.00">pymedphys.electronfactors.calculate_percent_prediction_differences</text>
</a>
</g>
</g>
<!-- pymedphys.electronfactors.calculate_percent_prediction_differences&#45;&gt;pymedphys._electronfactors -->
<g id="edge4" class="edge">
<title>pymedphys.electronfactors.calculate_percent_prediction_differences&#45;&gt;pymedphys._electronfactors</title>
<path fill="none" stroke="black" d="M612.78,-386.89C628.33,-382.04 643.43,-376.14 657.74,-369 705.78,-345.03 743.27,-292.79 762.86,-260.78"/>
<polygon fill="black" stroke="black" points="766.02,-262.32 768.13,-251.94 760,-258.74 766.02,-262.32"/>
</g>
<!-- pymedphys.electronfactors.calculate_deformability -->
<g id="node6" class="node">
<title>pymedphys.electronfactors.calculate_deformability</title>
<g id="a_node6"><a xlink:href="https://github.com/pymedphys/pymedphys/tree/main/lib/pymedphys/_electronfactors/__init__.py" xlink:title="pymedphys.electronfactors.calculate_deformability">
<ellipse fill="none" stroke="black" cx="328.87" cy="-342" rx="248.06" ry="18"/>
<text text-anchor="middle" x="328.87" y="-338.3" font-family="Times,serif" font-size="14.00">pymedphys.electronfactors.calculate_deformability</text>
</a>
</g>
</g>
<!-- pymedphys.electronfactors.calculate_deformability&#45;&gt;pymedphys._electronfactors -->
<g id="edge5" class="edge">
<title>pymedphys.electronfactors.calculate_deformability&#45;&gt;pymedphys._electronfactors</title>
<path fill="none" stroke="black" d="M567.52,-336.91C598.39,-332.06 629.18,-325.03 657.74,-315 693.04,-302.6 727.88,-277.27 750.88,-258.22"/>
<polygon fill="black" stroke="black" points="753.42,-260.65 758.79,-251.52 748.9,-255.31 753.42,-260.65"/>
</g>
<!-- pymedphys.electronfactors.spline_model -->
<g id="node7" class="node">
<title>pymedphys.electronfactors.spline_model</title>
<g id="a_node7"><a xlink:href="https://github.com/pymedphys/pymedphys/tree/main/lib/pymedphys/_electronfactors/__init__.py" xlink:title="pymedphys.electronfactors.spline_model">
<ellipse fill="none" stroke="black" cx="328.87" cy="-288" rx="200.36" ry="18"/>
<text text-anchor="middle" x="328.87" y="-284.3" font-family="Times,serif" font-size="14.00">pymedphys.electronfactors.spline_model</text>
</a>
</g>
</g>
<!-- pymedphys.electronfactors.spline_model&#45;&gt;pymedphys._electronfactors -->
<g id="edge6" class="edge">
<title>pymedphys.electronfactors.spline_model&#45;&gt;pymedphys._electronfactors</title>
<path fill="none" stroke="black" d="M499.72,-278.53C550.7,-274.47 606.65,-268.81 657.74,-261 676.11,-258.19 695.85,-254.18 713.92,-250.11"/>
<polygon fill="black" stroke="black" points="714.8,-253.49 723.76,-247.84 713.23,-246.67 714.8,-253.49"/>
</g>
<!-- pymedphys.electronfactors.plot_model -->
<g id="node8" class="node">
<title>pymedphys.electronfactors.plot_model</title>
<g id="a_node8"><a xlink:href="https://github.com/pymedphys/pymedphys/tree/main/lib/pymedphys/_electronfactors/__init__.py" xlink:title="pymedphys.electronfactors.plot_model">
<ellipse fill="none" stroke="black" cx="328.87" cy="-234" rx="190.37" ry="18"/>
<text text-anchor="middle" x="328.87" y="-230.3" font-family="Times,serif" font-size="14.00">pymedphys.electronfactors.plot_model</text>
</a>
</g>
</g>
<!-- pymedphys.electronfactors.plot_model&#45;&gt;pymedphys._electronfactors -->
<g id="edge7" class="edge">
<title>pymedphys.electronfactors.plot_model&#45;&gt;pymedphys._electronfactors</title>
<path fill="none" stroke="black" d="M519.54,-234C576.13,-234 635.71,-234 683.37,-234"/>
<polygon fill="black" stroke="black" points="683.67,-237.5 693.67,-234 683.67,-230.5 683.67,-237.5"/>
</g>
<!-- pymedphys.electronfactors.spline_model_with_deformability -->
<g id="node9" class="node">
<title>pymedphys.electronfactors.spline_model_with_deformability</title>
<g id="a_node9"><a xlink:href="https://github.com/pymedphys/pymedphys/tree/main/lib/pymedphys/_electronfactors/__init__.py" xlink:title="pymedphys.electronfactors.spline_model_with_deformability">
<ellipse fill="none" stroke="black" cx="328.87" cy="-180" rx="291.65" ry="18"/>
<text text-anchor="middle" x="328.87" y="-176.3" font-family="Times,serif" font-size="14.00">pymedphys.electronfactors.spline_model_with_deformability</text>
</a>
</g>
</g>
<!-- pymedphys.electronfactors.spline_model_with_deformability&#45;&gt;pymedphys._electronfactors -->
<g id="edge8" class="edge">
<title>pymedphys.electronfactors.spline_model_with_deformability&#45;&gt;pymedphys._electronfactors</title>
<path fill="none" stroke="black" d="M536.76,-192.65C577.01,-196.34 618.78,-201.05 657.74,-207 676.11,-209.81 695.85,-213.82 713.92,-217.89"/>
<polygon fill="black" stroke="black" points="713.23,-221.33 723.76,-220.16 714.8,-214.51 713.23,-221.33"/>
</g>
<!-- pymedphys.electronfactors.parameterise_insert -->
<g id="node10" class="node">
<title>pymedphys.electronfactors.parameterise_insert</title>
<g id="a_node10"><a xlink:href="https://github.com/pymedphys/pymedphys/tree/main/lib/pymedphys/_electronfactors/__init__.py" xlink:title="pymedphys.electronfactors.parameterise_insert">
<ellipse fill="none" stroke="black" cx="328.87" cy="-126" rx="233.16" ry="18"/>
<text text-anchor="middle" x="328.87" y="-122.3" font-family="Times,serif" font-size="14.00">pymedphys.electronfactors.parameterise_insert</text>
</a>
</g>
</g>
<!-- pymedphys.electronfactors.parameterise_insert&#45;&gt;pymedphys._electronfactors -->
<g id="edge9" class="edge">
<title>pymedphys.electronfactors.parameterise_insert&#45;&gt;pymedphys._electronfactors</title>
<path fill="none" stroke="black" d="M557.91,-129.65C591.98,-134.51 626.22,-141.93 657.74,-153 693.04,-165.4 727.88,-190.73 750.88,-209.78"/>
<polygon fill="black" stroke="black" points="748.9,-212.69 758.79,-216.48 753.42,-207.35 748.9,-212.69"/>
</g>
<!-- pymedphys.electronfactors.create_transformed_mesh -->
<g id="node11" class="node">
<title>pymedphys.electronfactors.create_transformed_mesh</title>
<g id="a_node11"><a xlink:href="https://github.com/pymedphys/pymedphys/tree/main/lib/pymedphys/_electronfactors/__init__.py" xlink:title="pymedphys.electronfactors.create_transformed_mesh">
<ellipse fill="none" stroke="black" cx="328.87" cy="-72" rx="260.75" ry="18"/>
<text text-anchor="middle" x="328.87" y="-68.3" font-family="Times,serif" font-size="14.00">pymedphys.electronfactors.create_transformed_mesh</text>
</a>
</g>
</g>
<!-- pymedphys.electronfactors.create_transformed_mesh&#45;&gt;pymedphys._electronfactors -->
<g id="edge10" class="edge">
<title>pymedphys.electronfactors.create_transformed_mesh&#45;&gt;pymedphys._electronfactors</title>
<path fill="none" stroke="black" d="M587.89,-74.3C612.2,-80.08 635.89,-88.1 657.74,-99 705.78,-122.97 743.27,-175.21 762.86,-207.22"/>
<polygon fill="black" stroke="black" points="760,-209.26 768.13,-216.06 766.02,-205.68 760,-209.26"/>
</g>
<!-- pymedphys.electronfactors.convert2_ratio_perim_area -->
<g id="node12" class="node">
<title>pymedphys.electronfactors.convert2_ratio_perim_area</title>
<g id="a_node12"><a xlink:href="https://github.com/pymedphys/pymedphys/tree/main/lib/pymedphys/_electronfactors/__init__.py" xlink:title="pymedphys.electronfactors.convert2_ratio_perim_area">
<ellipse fill="none" stroke="black" cx="328.87" cy="-18" rx="263.75" ry="18"/>
<text text-anchor="middle" x="328.87" y="-14.3" font-family="Times,serif" font-size="14.00">pymedphys.electronfactors.convert2_ratio_perim_area</text>
</a>
</g>
</g>
<!-- pymedphys.electronfactors.convert2_ratio_perim_area&#45;&gt;pymedphys._electronfactors -->
<g id="edge11" class="edge">
<title>pymedphys.electronfactors.convert2_ratio_perim_area&#45;&gt;pymedphys._electronfactors</title>
<path fill="none" stroke="black" d="M592.79,-17.53C615.66,-23.97 637.7,-32.89 657.74,-45 719.06,-82.03 754.34,-163.65 769.31,-206.5"/>
<polygon fill="black" stroke="black" points="766,-207.66 772.52,-216.01 772.64,-205.42 766,-207.66"/>
</g>
</g>
</svg>
