<?xml version="1.0" encoding="UTF-8" standalone="no"?>
<!DOCTYPE svg PUBLIC "-//W3C//DTD SVG 1.1//EN"
 "http://www.w3.org/Graphics/SVG/1.1/DTD/svg11.dtd">
<!-- Generated by graphviz version 2.43.0 (0)
 -->
<!-- Title: sample Pages: 1 -->
<svg width="609pt" height="98pt"
 viewBox="0.00 0.00 609.45 98.00" xmlns="http://www.w3.org/2000/svg" xmlns:xlink="http://www.w3.org/1999/xlink">
<g id="graph0" class="graph" transform="scale(1 1) rotate(0) translate(4 94)">
<title>sample</title>
<polygon fill="white" stroke="transparent" points="-4,4 -4,-94 605.45,-94 605.45,4 -4,4"/>
<!-- pymedphys.mosaiq.execute -->
<g id="node1" class="node">
<title>pymedphys.mosaiq.execute</title>
<ellipse fill="none" stroke="black" cx="139.09" cy="-72" rx="139.18" ry="18"/>
<text text-anchor="middle" x="139.09" y="-68.3" font-family="Times,serif" font-size="14.00">pymedphys.mosaiq.execute</text>
</g>
<!-- pymedphys._mosaiq.connect -->
<g id="node2" class="node">
<title>pymedphys._mosaiq.connect</title>
<ellipse fill="none" stroke="black" cx="457.81" cy="-45" rx="143.77" ry="18"/>
<text text-anchor="middle" x="457.81" y="-41.3" font-family="Times,serif" font-size="14.00">pymedphys._mosaiq.connect</text>
</g>
<!-- pymedphys.mosaiq.execute&#45;&gt;pymedphys._mosaiq.connect -->
<g id="edge1" class="edge">
<title>pymedphys.mosaiq.execute&#45;&gt;pymedphys._mosaiq.connect</title>
<path fill="none" stroke="black" d="M255.78,-62.14C279.36,-60.13 304.3,-58 328.3,-55.96"/>
<polygon fill="black" stroke="black" points="328.85,-59.42 338.52,-55.08 328.25,-52.45 328.85,-59.42"/>
</g>
<!-- pymedphys.mosaiq.connect -->
<g id="node3" class="node">
<title>pymedphys.mosaiq.connect</title>
<ellipse fill="none" stroke="black" cx="139.09" cy="-18" rx="139.18" ry="18"/>
<text text-anchor="middle" x="139.09" y="-14.3" font-family="Times,serif" font-size="14.00">pymedphys.mosaiq.connect</text>
</g>
<!-- pymedphys.mosaiq.connect&#45;&gt;pymedphys._mosaiq.connect -->
<g id="edge2" class="edge">
<title>pymedphys.mosaiq.connect&#45;&gt;pymedphys._mosaiq.connect</title>
<path fill="none" stroke="black" d="M255.78,-27.86C279.36,-29.87 304.3,-32 328.3,-34.04"/>
<polygon fill="black" stroke="black" points="328.25,-37.55 338.52,-34.92 328.85,-30.58 328.25,-37.55"/>
</g>
</g>
</svg>
