<?xml version="1.0" encoding="UTF-8" standalone="no"?>
<!DOCTYPE svg PUBLIC "-//W3C//DTD SVG 1.1//EN"
 "http://www.w3.org/Graphics/SVG/1.1/DTD/svg11.dtd">
<!-- Generated by graphviz version 2.43.0 (0)
 -->
<!-- Title: sample Pages: 1 -->
<svg width="2296pt" height="341pt"
 viewBox="0.00 0.00 2296.41 341.00" xmlns="http://www.w3.org/2000/svg" xmlns:xlink="http://www.w3.org/1999/xlink">
<g id="graph0" class="graph" transform="scale(1 1) rotate(0) translate(4 337)">
<title>sample</title>
<polygon fill="white" stroke="transparent" points="-4,4 -4,-337 2292.41,-337 2292.41,4 -4,4"/>
<!-- pymedphys._dicom.dose -->
<g id="node1" class="node">
<title>pymedphys._dicom.dose</title>
<g id="a_node1"><a xlink:href="https://github.com/pymedphys/pymedphys/tree/main/lib/pymedphys/_dicom/dose.py" xlink:title="pymedphys._dicom.dose">
<ellipse fill="none" stroke="black" cx="610.55" cy="-234" rx="123.48" ry="18"/>
<text text-anchor="middle" x="610.55" y="-230.3" font-family="Times,serif" font-size="14.00">pymedphys._dicom.dose</text>
</a>
</g>
</g>
<!-- pymedphys._dicom.coords -->
<g id="node2" class="node">
<title>pymedphys._dicom.coords</title>
<g id="a_node2"><a xlink:href="https://github.com/pymedphys/pymedphys/tree/main/lib/pymedphys/_dicom/coords.py" xlink:title="pymedphys._dicom.coords">
<ellipse fill="none" stroke="black" cx="916.93" cy="-315" rx="132.68" ry="18"/>
<text text-anchor="middle" x="916.93" y="-311.3" font-family="Times,serif" font-size="14.00">pymedphys._dicom.coords</text>
</a>
</g>
</g>
<!-- pymedphys._dicom.dose&#45;&gt;pymedphys._dicom.coords -->
<g id="edge1" class="edge">
<title>pymedphys._dicom.dose&#45;&gt;pymedphys._dicom.coords</title>
<path fill="none" stroke="black" d="M655.43,-250.87C686.96,-262.52 730.66,-277.71 770.04,-288 786.18,-292.22 803.5,-296.03 820.36,-299.38"/>
<polygon fill="black" stroke="black" points="819.74,-302.82 830.22,-301.29 821.07,-295.95 819.74,-302.82"/>
</g>
<!-- pymedphys._dicom.structure -->
<g id="node3" class="node">
<title>pymedphys._dicom.structure</title>
<g id="a_node3"><a xlink:href="https://github.com/pymedphys/pymedphys/tree/main/lib/pymedphys/_dicom/structure/__init__.py" xlink:title="pymedphys._dicom.structure">
<ellipse fill="none" stroke="black" cx="916.93" cy="-261" rx="145.67" ry="18"/>
<text text-anchor="middle" x="916.93" y="-257.3" font-family="Times,serif" font-size="14.00">pymedphys._dicom.structure</text>
</a>
</g>
</g>
<!-- pymedphys._dicom.dose&#45;&gt;pymedphys._dicom.structure -->
<g id="edge2" class="edge">
<title>pymedphys._dicom.dose&#45;&gt;pymedphys._dicom.structure</title>
<path fill="none" stroke="black" d="M716.72,-243.33C739.73,-245.37 764.32,-247.55 788.1,-249.66"/>
<polygon fill="black" stroke="black" points="787.96,-253.16 798.23,-250.56 788.58,-246.19 787.96,-253.16"/>
</g>
<!-- pymedphys._dicom.constants -->
<g id="node4" class="node">
<title>pymedphys._dicom.constants</title>
<g id="a_node4"><a xlink:href="https://github.com/pymedphys/pymedphys/tree/main/lib/pymedphys/_dicom/constants/__init__.py" xlink:title="pymedphys._dicom.constants">
<ellipse fill="none" stroke="black" cx="916.93" cy="-207" rx="146.77" ry="18"/>
<text text-anchor="middle" x="916.93" y="-203.3" font-family="Times,serif" font-size="14.00">pymedphys._dicom.constants</text>
</a>
</g>
</g>
<!-- pymedphys._dicom.dose&#45;&gt;pymedphys._dicom.constants -->
<g id="edge3" class="edge">
<title>pymedphys._dicom.dose&#45;&gt;pymedphys._dicom.constants</title>
<path fill="none" stroke="black" d="M716.72,-224.67C739.5,-222.65 763.84,-220.49 787.4,-218.4"/>
<polygon fill="black" stroke="black" points="787.79,-221.88 797.44,-217.51 787.17,-214.91 787.79,-221.88"/>
</g>
<!-- pymedphys._dicom.rtplan -->
<g id="node5" class="node">
<title>pymedphys._dicom.rtplan</title>
<g id="a_node5"><a xlink:href="https://github.com/pymedphys/pymedphys/tree/main/lib/pymedphys/_dicom/rtplan/__init__.py" xlink:title="pymedphys._dicom.rtplan">
<ellipse fill="none" stroke="black" cx="916.93" cy="-99" rx="129.98" ry="18"/>
<text text-anchor="middle" x="916.93" y="-95.3" font-family="Times,serif" font-size="14.00">pymedphys._dicom.rtplan</text>
</a>
</g>
</g>
<!-- pymedphys._dicom.dose&#45;&gt;pymedphys._dicom.rtplan -->
<g id="edge4" class="edge">
<title>pymedphys._dicom.dose&#45;&gt;pymedphys._dicom.rtplan</title>
<path fill="none" stroke="black" d="M650.1,-216.9C705.52,-192.32 807.66,-147.02 867.91,-120.3"/>
<polygon fill="black" stroke="black" points="869.49,-123.43 877.21,-116.17 866.65,-117.03 869.49,-123.43"/>
</g>
<!-- pymedphys._dicom.constants.uuid -->
<g id="node6" class="node">
<title>pymedphys._dicom.constants.uuid</title>
<g id="a_node6"><a xlink:href="https://github.com/pymedphys/pymedphys/tree/main/lib/pymedphys/_dicom/constants/uuid.py" xlink:title="pymedphys._dicom.constants.uuid">
<ellipse fill="none" stroke="black" cx="1300.64" cy="-288" rx="170.07" ry="18"/>
<text text-anchor="middle" x="1300.64" y="-284.3" font-family="Times,serif" font-size="14.00">pymedphys._dicom.constants.uuid</text>
</a>
</g>
</g>
<!-- pymedphys._dicom.constants&#45;&gt;pymedphys._dicom.constants.uuid -->
<g id="edge5" class="edge">
<title>pymedphys._dicom.constants&#45;&gt;pymedphys._dicom.constants.uuid</title>
<path fill="none" stroke="black" d="M1020.57,-219.8C1035.42,-223.41 1050.25,-228.05 1063.81,-234 1082.13,-242.03 1081.31,-253.42 1099.81,-261 1115.18,-267.3 1131.71,-272.19 1148.45,-275.98"/>
<polygon fill="black" stroke="black" points="1147.82,-279.42 1158.33,-278.08 1149.28,-272.57 1147.82,-279.42"/>
</g>
<!-- pymedphys._dicom.constants.core -->
<g id="node7" class="node">
<title>pymedphys._dicom.constants.core</title>
<g id="a_node7"><a xlink:href="https://github.com/pymedphys/pymedphys/tree/main/lib/pymedphys/_dicom/constants/core.py" xlink:title="pymedphys._dicom.constants.core">
<ellipse fill="none" stroke="black" cx="1300.64" cy="-234" rx="169.77" ry="18"/>
<text text-anchor="middle" x="1300.64" y="-230.3" font-family="Times,serif" font-size="14.00">pymedphys._dicom.constants.core</text>
</a>
</g>
</g>
<!-- pymedphys._dicom.constants&#45;&gt;pymedphys._dicom.constants.core -->
<g id="edge6" class="edge">
<title>pymedphys._dicom.constants&#45;&gt;pymedphys._dicom.constants.core</title>
<path fill="none" stroke="black" d="M1044.5,-215.95C1077.88,-218.31 1114.24,-220.89 1148.76,-223.33"/>
<polygon fill="black" stroke="black" points="1148.7,-226.83 1158.93,-224.05 1149.2,-219.85 1148.7,-226.83"/>
</g>
<!-- pymedphys._dicom.constants.orientation -->
<g id="node8" class="node">
<title>pymedphys._dicom.constants.orientation</title>
<g id="a_node8"><a xlink:href="https://github.com/pymedphys/pymedphys/tree/main/lib/pymedphys/_dicom/constants/orientation.py" xlink:title="pymedphys._dicom.constants.orientation">
<ellipse fill="none" stroke="black" cx="1300.64" cy="-180" rx="200.66" ry="18"/>
<text text-anchor="middle" x="1300.64" y="-176.3" font-family="Times,serif" font-size="14.00">pymedphys._dicom.constants.orientation</text>
</a>
</g>
</g>
<!-- pymedphys._dicom.constants&#45;&gt;pymedphys._dicom.constants.orientation -->
<g id="edge7" class="edge">
<title>pymedphys._dicom.constants&#45;&gt;pymedphys._dicom.constants.orientation</title>
<path fill="none" stroke="black" d="M1044.5,-198.05C1072.68,-196.05 1102.97,-193.91 1132.49,-191.82"/>
<polygon fill="black" stroke="black" points="1132.74,-195.31 1142.47,-191.12 1132.25,-188.33 1132.74,-195.31"/>
</g>
<!-- pymedphys._dicom.rtplan.core -->
<g id="node9" class="node">
<title>pymedphys._dicom.rtplan.core</title>
<g id="a_node9"><a xlink:href="https://github.com/pymedphys/pymedphys/tree/main/lib/pymedphys/_dicom/rtplan/core.py" xlink:title="pymedphys._dicom.rtplan.core">
<ellipse fill="none" stroke="black" cx="1300.64" cy="-126" rx="153.27" ry="18"/>
<text text-anchor="middle" x="1300.64" y="-122.3" font-family="Times,serif" font-size="14.00">pymedphys._dicom.rtplan.core</text>
</a>
</g>
</g>
<!-- pymedphys._dicom.rtplan&#45;&gt;pymedphys._dicom.rtplan.core -->
<g id="edge8" class="edge">
<title>pymedphys._dicom.rtplan&#45;&gt;pymedphys._dicom.rtplan.core</title>
<path fill="none" stroke="black" d="M1032.97,-107.14C1072.52,-109.93 1117.25,-113.1 1158.62,-116.02"/>
<polygon fill="black" stroke="black" points="1158.56,-119.53 1168.78,-116.74 1159.05,-112.55 1158.56,-119.53"/>
</g>
<!-- pymedphys._dicom.rtplan.build -->
<g id="node10" class="node">
<title>pymedphys._dicom.rtplan.build</title>
<g id="a_node10"><a xlink:href="https://github.com/pymedphys/pymedphys/tree/main/lib/pymedphys/_dicom/rtplan/build.py" xlink:title="pymedphys._dicom.rtplan.build">
<ellipse fill="none" stroke="black" cx="1300.64" cy="-72" rx="156.77" ry="18"/>
<text text-anchor="middle" x="1300.64" y="-68.3" font-family="Times,serif" font-size="14.00">pymedphys._dicom.rtplan.build</text>
</a>
</g>
</g>
<!-- pymedphys._dicom.rtplan&#45;&gt;pymedphys._dicom.rtplan.build -->
<g id="edge9" class="edge">
<title>pymedphys._dicom.rtplan&#45;&gt;pymedphys._dicom.rtplan.build</title>
<path fill="none" stroke="black" d="M1032.97,-90.86C1071.91,-88.11 1115.87,-85 1156.71,-82.11"/>
<polygon fill="black" stroke="black" points="1157.01,-85.6 1166.74,-81.4 1156.52,-78.62 1157.01,-85.6"/>
</g>
<!-- pymedphys._dicom.rtplan.adjust -->
<g id="node11" class="node">
<title>pymedphys._dicom.rtplan.adjust</title>
<g id="a_node11"><a xlink:href="https://github.com/pymedphys/pymedphys/tree/main/lib/pymedphys/_dicom/rtplan/adjust.py" xlink:title="pymedphys._dicom.rtplan.adjust">
<ellipse fill="none" stroke="black" cx="1300.64" cy="-18" rx="161.67" ry="18"/>
<text text-anchor="middle" x="1300.64" y="-14.3" font-family="Times,serif" font-size="14.00">pymedphys._dicom.rtplan.adjust</text>
</a>
</g>
</g>
<!-- pymedphys._dicom.rtplan&#45;&gt;pymedphys._dicom.rtplan.adjust -->
<g id="edge10" class="edge">
<title>pymedphys._dicom.rtplan&#45;&gt;pymedphys._dicom.rtplan.adjust</title>
<path fill="none" stroke="black" d="M966.8,-82.25C1003.12,-70.36 1054.08,-54.82 1099.81,-45 1123.65,-39.88 1149.31,-35.55 1174.04,-31.96"/>
<polygon fill="black" stroke="black" points="1174.79,-35.38 1184.2,-30.51 1173.81,-28.45 1174.79,-35.38"/>
</g>
<!-- pymedphys._utilities.transforms -->
<g id="node12" class="node">
<title>pymedphys._utilities.transforms</title>
<g id="a_node12"><a xlink:href="https://github.com/pymedphys/pymedphys/tree/main/lib/pymedphys/_utilities/transforms/__init__.py" xlink:title="pymedphys._utilities.transforms">
<ellipse fill="none" stroke="black" cx="1698.66" cy="-126" rx="161.37" ry="18"/>
<text text-anchor="middle" x="1698.66" y="-122.3" font-family="Times,serif" font-size="14.00">pymedphys._utilities.transforms</text>
</a>
</g>
</g>
<!-- pymedphys._dicom.rtplan.core&#45;&gt;pymedphys._utilities.transforms -->
<g id="edge11" class="edge">
<title>pymedphys._dicom.rtplan.core&#45;&gt;pymedphys._utilities.transforms</title>
<path fill="none" stroke="black" d="M1454.19,-126C1478.13,-126 1503,-126 1527.31,-126"/>
<polygon fill="black" stroke="black" points="1527.32,-129.5 1537.32,-126 1527.32,-122.5 1527.32,-129.5"/>
</g>
<!-- pymedphys._utilities.transforms.bipolar -->
<g id="node13" class="node">
<title>pymedphys._utilities.transforms.bipolar</title>
<g id="a_node13"><a xlink:href="https://github.com/pymedphys/pymedphys/tree/main/lib/pymedphys/_utilities/transforms/bipolar.py" xlink:title="pymedphys._utilities.transforms.bipolar">
<ellipse fill="none" stroke="black" cx="2092.13" cy="-126" rx="196.07" ry="18"/>
<text text-anchor="middle" x="2092.13" y="-122.3" font-family="Times,serif" font-size="14.00">pymedphys._utilities.transforms.bipolar</text>
</a>
</g>
</g>
<!-- pymedphys._utilities.transforms&#45;&gt;pymedphys._utilities.transforms.bipolar -->
<g id="edge12" class="edge">
<title>pymedphys._utilities.transforms&#45;&gt;pymedphys._utilities.transforms.bipolar</title>
<path fill="none" stroke="black" d="M1860.02,-126C1868.52,-126 1877.11,-126 1885.72,-126"/>
<polygon fill="black" stroke="black" points="1885.84,-129.5 1895.84,-126 1885.84,-122.5 1885.84,-129.5"/>
</g>
<!-- pymedphys.dicom.zyx_and_dose_from_dataset -->
<g id="node14" class="node">
<title>pymedphys.dicom.zyx_and_dose_from_dataset</title>
<g id="a_node14"><a xlink:href="https://github.com/pymedphys/pymedphys/tree/main/lib/pymedphys/_dicom/dose.py" xlink:title="pymedphys.dicom.zyx_and_dose_from_dataset">
<ellipse fill="none" stroke="black" cx="225.53" cy="-315" rx="225.56" ry="18"/>
<text text-anchor="middle" x="225.53" y="-311.3" font-family="Times,serif" font-size="14.00">pymedphys.dicom.zyx_and_dose_from_dataset</text>
</a>
</g>
</g>
<!-- pymedphys.dicom.zyx_and_dose_from_dataset&#45;&gt;pymedphys._dicom.dose -->
<g id="edge13" class="edge">
<title>pymedphys.dicom.zyx_and_dose_from_dataset&#45;&gt;pymedphys._dicom.dose</title>
<path fill="none" stroke="black" d="M375.54,-301.51C400.89,-297.96 426.85,-293.52 451.06,-288 487.5,-279.7 527.32,-266.11 557.93,-254.64"/>
<polygon fill="black" stroke="black" points="559.42,-257.82 567.53,-251 556.94,-251.28 559.42,-257.82"/>
</g>
<!-- pymedphys.dicom.profile -->
<g id="node15" class="node">
<title>pymedphys.dicom.profile</title>
<g id="a_node15"><a xlink:href="https://github.com/pymedphys/pymedphys/tree/main/lib/pymedphys/_dicom/dose.py" xlink:title="pymedphys.dicom.profile">
<ellipse fill="none" stroke="black" cx="225.53" cy="-261" rx="127.28" ry="18"/>
<text text-anchor="middle" x="225.53" y="-257.3" font-family="Times,serif" font-size="14.00">pymedphys.dicom.profile</text>
</a>
</g>
</g>
<!-- pymedphys.dicom.profile&#45;&gt;pymedphys._dicom.dose -->
<g id="edge14" class="edge">
<title>pymedphys.dicom.profile&#45;&gt;pymedphys._dicom.dose</title>
<path fill="none" stroke="black" d="M339.89,-253.01C386.85,-249.7 441.37,-245.86 489.05,-242.49"/>
<polygon fill="black" stroke="black" points="489.38,-245.98 499.11,-241.78 488.89,-239 489.38,-245.98"/>
</g>
<!-- pymedphys.dicom.depth_dose -->
<g id="node16" class="node">
<title>pymedphys.dicom.depth_dose</title>
<g id="a_node16"><a xlink:href="https://github.com/pymedphys/pymedphys/tree/main/lib/pymedphys/_dicom/dose.py" xlink:title="pymedphys.dicom.depth_dose">
<ellipse fill="none" stroke="black" cx="225.53" cy="-207" rx="150.27" ry="18"/>
<text text-anchor="middle" x="225.53" y="-203.3" font-family="Times,serif" font-size="14.00">pymedphys.dicom.depth_dose</text>
</a>
</g>
</g>
<!-- pymedphys.dicom.depth_dose&#45;&gt;pymedphys._dicom.dose -->
<g id="edge15" class="edge">
<title>pymedphys.dicom.depth_dose&#45;&gt;pymedphys._dicom.dose</title>
<path fill="none" stroke="black" d="M355.4,-216.08C398.54,-219.13 446.45,-222.5 488.94,-225.5"/>
<polygon fill="black" stroke="black" points="488.83,-229 499.05,-226.21 489.32,-222.02 488.83,-229"/>
</g>
<!-- pymedphys.dicom.dicom_dose_interpolate -->
<g id="node17" class="node">
<title>pymedphys.dicom.dicom_dose_interpolate</title>
<g id="a_node17"><a xlink:href="https://github.com/pymedphys/pymedphys/tree/main/lib/pymedphys/_dicom/dose.py" xlink:title="pymedphys.dicom.dicom_dose_interpolate">
<ellipse fill="none" stroke="black" cx="225.53" cy="-153" rx="206.86" ry="18"/>
<text text-anchor="middle" x="225.53" y="-149.3" font-family="Times,serif" font-size="14.00">pymedphys.dicom.dicom_dose_interpolate</text>
</a>
</g>
</g>
<!-- pymedphys.dicom.dicom_dose_interpolate&#45;&gt;pymedphys._dicom.dose -->
<g id="edge16" class="edge">
<title>pymedphys.dicom.dicom_dose_interpolate&#45;&gt;pymedphys._dicom.dose</title>
<path fill="none" stroke="black" d="M370.73,-165.82C397.6,-169.49 425.32,-174.13 451.06,-180 487.5,-188.3 527.32,-201.89 557.93,-213.36"/>
<polygon fill="black" stroke="black" points="556.94,-216.72 567.53,-217 559.42,-210.18 556.94,-216.72"/>
</g>
</g>
</svg>
