<?xml version="1.0" standalone="no"?>
<!DOCTYPE svg PUBLIC "-//W3C//DTD SVG 20010904//EN"
 "http://www.w3.org/TR/2001/REC-SVG-20010904/DTD/svg10.dtd">
<svg version="1.0" xmlns="http://www.w3.org/2000/svg"
 width="820.000000pt" height="820.000000pt" viewBox="0 0 820.000000 820.000000"
 preserveAspectRatio="xMidYMid meet">
<metadata>
Created by potrace 1.11, written by Peter Selinger 2001-2013
</metadata>
<g transform="translate(0.000000,820.000000) scale(0.100000,-0.100000)"
fill="#000000" stroke="none">
<path d="M3938 7515 c-2 -1 -50 -5 -108 -9 -58 -3 -114 -8 -125 -10 -11 -2
-40 -7 -65 -10 -25 -3 -56 -8 -69 -11 -13 -2 -49 -7 -80 -11 -31 -3 -66 -10
-78 -15 -13 -5 -23 -6 -23 -4 0 2 -11 0 -25 -5 -14 -5 -36 -12 -48 -14 -64
-12 -242 -62 -312 -88 -44 -17 -111 -41 -150 -55 -38 -14 -126 -52 -195 -85
-69 -33 -134 -64 -146 -68 -24 -10 -357 -210 -364 -220 -3 -3 -57 -45 -120
-92 -63 -48 -127 -97 -142 -111 -181 -161 -219 -198 -353 -347 -72 -80 -315
-399 -315 -414 0 -2 -30 -53 -66 -112 -106 -175 -201 -379 -274 -589 -17 -49
-35 -99 -40 -110 -9 -22 -19 -53 -24 -82 -2 -10 -12 -47 -21 -83 -9 -36 -19
-74 -21 -84 -2 -10 -8 -33 -13 -50 -12 -39 -36 -176 -47 -271 -3 -27 -9 -66
-13 -85 -4 -19 -9 -66 -10 -105 -1 -38 -5 -72 -7 -75 -3 -2 -126 -5 -272 -5
-238 -1 -271 -3 -301 -19 -147 -79 -146 -275 2 -353 27 -14 70 -17 300 -18
147 -1 269 -4 272 -6 2 -3 4 -31 5 -64 1 -33 6 -85 10 -115 5 -30 12 -73 15
-95 4 -22 8 -53 10 -70 11 -81 20 -122 56 -270 41 -165 66 -253 79 -270 4 -5
10 -21 13 -35 8 -40 61 -179 94 -250 95 -202 122 -253 206 -393 50 -85 102
-167 115 -183 12 -16 52 -69 88 -119 36 -49 98 -125 137 -169 39 -43 80 -88
90 -100 48 -55 80 -87 167 -166 51 -47 105 -96 119 -109 14 -13 78 -62 141
-109 63 -48 124 -94 134 -104 11 -10 25 -18 32 -18 7 0 14 -4 16 -8 2 -4 41
-30 88 -57 47 -27 87 -52 90 -55 13 -14 287 -152 330 -165 13 -4 30 -14 38
-21 7 -8 19 -14 26 -14 7 0 41 -12 77 -26 35 -14 71 -27 79 -29 8 -2 53 -17
100 -34 114 -40 378 -106 467 -116 18 -2 58 -9 90 -14 31 -6 58 -9 61 -7 2 3
15 1 28 -4 80 -31 699 -32 824 -2 19 5 45 8 58 7 12 -1 22 2 22 7 0 5 4 7 9 4
4 -3 37 -1 72 5 87 13 94 15 169 34 36 8 72 17 80 19 124 31 324 92 375 116
11 5 42 17 69 26 27 9 94 38 149 65 55 27 106 49 113 49 8 0 14 5 14 10 0 6 6
10 13 10 7 0 68 33 136 73 210 123 230 136 267 166 17 14 44 35 60 46 224 158
516 438 664 639 24 34 47 63 50 66 16 14 150 209 150 219 0 6 5 11 10 11 6 0
10 5 10 11 0 6 26 54 58 107 88 145 182 347 248 532 25 69 49 136 54 150 10
27 50 181 56 215 2 11 11 45 19 75 8 30 19 82 25 115 16 108 23 150 25 175 2
14 4 25 5 25 0 0 3 22 6 50 3 27 7 52 10 55 3 3 45 5 92 6 125 2 232 39 311
110 37 32 91 119 91 147 0 9 5 18 10 18 41 5 59 3 88 -10 17 -8 32 -18 32 -23
0 -4 9 -8 19 -8 54 0 66 29 30 74 -11 14 -16 26 -10 26 20 0 33 38 20 61 -8
17 -17 20 -40 15 -16 -3 -39 -15 -51 -26 -21 -19 -30 -22 -63 -22 -29 0 -32 2
-49 47 -20 52 -91 127 -146 155 -83 43 -132 54 -237 53 l-101 0 -7 61 c-4 34
-9 70 -11 81 -3 11 -7 38 -10 60 -3 22 -7 51 -10 65 -2 14 -7 44 -10 68 -3 23
-11 60 -19 82 -8 22 -12 40 -10 40 3 0 0 11 -5 25 -5 14 -12 36 -14 48 -17 95
-119 401 -170 511 -92 198 -195 393 -233 441 -4 6 -15 23 -23 40 -12 24 -166
242 -197 280 -5 6 -19 24 -31 40 -105 135 -383 409 -529 520 -32 24 -62 48
-68 52 -29 24 -195 143 -198 143 -2 0 -53 30 -113 66 -145 88 -406 213 -540
259 -60 21 -113 42 -119 46 -5 5 -19 9 -30 9 -12 0 -25 3 -29 8 -4 4 -12 8
-17 8 -5 1 -10 2 -11 4 -4 2 -23 7 -73 19 -22 5 -51 12 -65 16 -14 3 -29 7
-35 9 -5 1 -19 5 -30 9 -34 11 -188 41 -265 51 -25 3 -54 8 -65 10 -37 7 -130
19 -170 22 -60 5 -453 13 -457 9z m128 -1480 c-4 -20 -8 -57 -11 -83 -3 -26
-8 -69 -11 -97 -7 -57 -11 -95 -19 -180 -3 -33 -7 -82 -10 -108 -3 -26 -7 -74
-10 -105 -4 -61 -13 -156 -20 -237 -3 -27 -7 -84 -10 -125 -3 -41 -8 -104 -11
-140 -3 -36 -7 -85 -9 -110 -2 -40 -9 -130 -21 -285 -2 -27 -6 -84 -9 -125 -3
-41 -7 -100 -10 -130 -2 -30 -7 -98 -10 -150 -3 -52 -8 -117 -10 -145 -2 -27
-7 -84 -10 -125 -3 -41 -7 -109 -10 -150 -3 -41 -8 -102 -10 -135 -4 -55 -11
-145 -20 -265 -2 -25 -5 -64 -6 -87 -3 -50 -19 -58 -20 -10 0 17 -2 46 -4 62
-2 17 -7 66 -10 110 -3 44 -7 96 -9 115 -2 19 -7 67 -10 105 -3 39 -8 95 -11
125 -3 30 -7 82 -9 115 -5 69 -15 182 -21 240 -3 22 -7 78 -10 125 -3 47 -8
101 -11 120 -2 19 -7 64 -9 100 -3 36 -7 81 -10 100 -4 38 -15 137 -21 204 -9
101 -23 237 -29 276 -2 14 -6 50 -10 81 -3 31 -8 67 -10 80 -3 13 -7 51 -11
83 -3 33 -7 62 -9 66 -2 3 -6 26 -9 50 -4 25 -9 56 -11 70 -3 14 -7 39 -10 55
-3 17 -12 55 -21 85 -8 30 -19 69 -23 86 -18 70 -101 174 -139 174 -6 0 -12 4
-14 10 -1 5 -20 11 -40 12 -21 2 -38 6 -38 11 0 7 37 24 65 31 6 2 23 8 40 15
32 13 133 45 180 57 17 4 32 8 35 9 84 21 108 26 116 24 5 -1 11 0 14 1 10 3
46 9 88 14 24 2 45 6 47 8 2 1 42 4 90 6 l86 3 -5 -36z m804 -121 c91 -41 185
-89 188 -96 2 -4 7 -8 12 -8 9 0 116 -63 145 -85 11 -9 52 -39 90 -68 94 -70
277 -254 350 -352 33 -44 62 -82 66 -85 15 -13 129 -214 161 -285 48 -105 79
-185 72 -185 -4 0 -1 -6 5 -14 32 -38 89 -308 106 -502 l5 -57 -52 -50 -52
-50 -27 60 c-15 34 -51 132 -79 220 -114 346 -134 401 -176 488 -23 50 -61
109 -82 133 -81 86 -196 108 -293 55 -115 -62 -173 -186 -240 -508 -11 -55
-22 -111 -24 -125 -3 -14 -18 -106 -34 -205 -26 -160 -37 -234 -46 -300 -11
-79 -16 -114 -21 -140 -3 -16 -7 -43 -9 -60 -4 -41 -17 -145 -20 -164 -2 -9
-4 -22 -4 -28 -2 -28 -17 -11 -17 20 0 17 -4 59 -7 92 -4 33 -9 85 -12 115
-11 140 -16 188 -20 230 -7 63 -16 165 -20 232 -1 32 -6 83 -9 115 -8 75 -16
165 -21 228 -2 28 -6 75 -9 105 -2 30 -8 91 -11 135 -4 44 -9 100 -11 125 -2
25 -6 74 -9 110 -2 36 -7 83 -9 105 -3 22 -8 72 -11 110 -3 39 -7 90 -10 115
-3 25 -7 70 -10 100 -8 96 -15 164 -19 195 -3 17 -8 66 -12 110 -3 44 -8 89
-10 100 -2 10 -6 47 -10 81 l-5 62 83 -30 c46 -16 99 -36 118 -44z m-1759
-132 c-23 -33 -77 -187 -87 -248 -3 -21 -7 -41 -9 -44 -2 -3 -6 -24 -9 -46 -4
-22 -9 -51 -12 -64 -3 -14 -7 -36 -10 -50 -2 -14 -7 -41 -11 -60 -3 -19 -7
-44 -8 -55 -4 -35 -16 -109 -20 -125 -2 -8 -7 -40 -10 -70 -3 -30 -8 -62 -10
-70 -2 -8 -7 -40 -10 -70 -4 -30 -12 -90 -19 -132 -7 -42 -12 -86 -11 -97 1
-12 -1 -21 -4 -21 -3 0 -6 -10 -7 -22 0 -30 -15 -141 -19 -148 -1 -3 -6 -34
-9 -69 -4 -36 -9 -67 -11 -71 -2 -3 -6 -35 -10 -70 -3 -36 -8 -72 -10 -80 -5
-19 -13 -67 -20 -116 -3 -22 -7 -50 -10 -64 -2 -13 -7 -42 -11 -65 -3 -22 -8
-47 -9 -55 -2 -8 -4 -22 -5 -30 -1 -8 -19 35 -39 95 -21 61 -43 123 -49 138
-7 16 -12 32 -12 37 0 22 -85 201 -123 260 -39 60 -109 124 -166 152 -35 18
-63 23 -118 23 -81 0 -76 -8 -54 85 14 55 46 148 55 157 3 3 6 13 6 21 0 7 14
44 32 80 17 37 32 69 33 72 16 48 150 271 167 278 5 2 8 10 8 17 0 7 4 15 8
17 4 2 21 21 37 43 112 152 353 367 507 454 32 18 61 37 64 43 3 5 8 7 11 4 3
-3 -4 -18 -16 -34z m1263 -819 c3 -35 8 -91 11 -125 3 -35 8 -85 10 -113 3
-27 7 -77 10 -110 2 -33 7 -87 10 -120 2 -33 7 -91 10 -130 6 -72 10 -118 19
-215 6 -59 11 -122 21 -240 3 -41 9 -97 11 -125 6 -55 9 -82 18 -195 4 -41 8
-86 11 -100 2 -14 7 -59 10 -100 3 -41 8 -86 10 -100 3 -14 7 -50 10 -80 3
-30 7 -71 10 -90 3 -19 7 -57 10 -85 9 -77 14 -113 31 -220 3 -16 7 -43 10
-60 12 -82 22 -129 34 -160 5 -14 8 -25 6 -25 -2 0 7 -30 20 -67 43 -118 109
-182 208 -199 l39 -7 -54 -19 c-30 -11 -67 -26 -84 -33 -64 -28 -259 -78 -360
-91 -22 -3 -51 -8 -65 -10 -14 -3 -67 -7 -118 -10 l-94 -5 7 73 c4 40 8 80 10
88 1 8 6 51 10 94 4 43 8 86 10 96 2 9 6 52 9 96 3 43 8 95 11 114 3 19 8 71
11 115 3 44 7 94 9 110 4 41 17 211 21 260 1 22 5 72 8 110 19 239 18 224 31
405 4 58 8 121 11 140 2 19 6 78 9 130 3 52 7 118 10 145 2 28 7 93 10 145 3
52 8 115 10 140 4 47 14 175 20 270 3 49 11 151 20 265 2 22 4 55 4 74 1 51 9
34 15 -36z m-1069 -333 c3 -36 8 -87 10 -115 11 -128 21 -232 30 -325 12 -126
17 -190 20 -240 2 -30 6 -77 9 -105 3 -27 8 -84 11 -125 3 -41 8 -95 10 -120
3 -25 7 -74 10 -110 3 -36 7 -90 10 -121 3 -30 7 -84 10 -120 3 -35 8 -89 10
-119 3 -30 7 -80 10 -110 2 -30 7 -73 9 -95 2 -22 8 -76 11 -120 4 -44 9 -96
11 -115 3 -19 6 -62 9 -95 2 -33 7 -76 10 -95 8 -53 16 -122 20 -171 2 -24 6
-57 10 -72 7 -33 -1 -50 -18 -40 -7 4 -16 8 -22 10 -55 11 -288 116 -380 170
-84 50 -117 72 -190 127 -198 149 -378 346 -494 541 -23 39 -46 77 -51 85 -5
8 -16 29 -24 45 -66 143 -79 173 -86 190 -12 29 -50 141 -55 162 -3 10 -9 38
-16 63 -6 25 -13 54 -15 65 -2 11 -7 31 -10 45 -3 14 -7 37 -10 53 -2 15 -6
42 -9 60 -3 17 -8 68 -11 112 l-5 80 50 49 50 49 25 -58 c14 -31 26 -59 26
-61 0 -1 5 -15 12 -31 6 -15 12 -30 13 -33 0 -3 36 -113 79 -245 111 -340 173
-461 265 -519 112 -71 239 -43 333 72 61 75 140 350 183 637 3 17 7 41 10 55
3 14 7 39 9 56 4 33 26 180 31 204 3 16 11 70 20 135 3 22 10 72 16 110 6 39
12 81 14 95 1 14 6 52 10 85 4 33 8 66 8 73 0 7 4 9 8 5 4 -4 10 -37 14 -73z
m2254 -605 c5 -11 24 -51 42 -90 18 -38 35 -72 38 -75 3 -3 12 -16 19 -30 7
-14 30 -42 50 -63 92 -91 133 -111 233 -112 l76 0 -9 -37 c-4 -20 -20 -72 -34
-115 -14 -43 -27 -82 -28 -88 -12 -43 -96 -223 -141 -300 -32 -55 -105 -167
-114 -175 -4 -3 -25 -30 -48 -60 -87 -115 -204 -233 -318 -321 -16 -13 -36
-29 -43 -36 -7 -7 -16 -13 -20 -13 -4 0 -22 -13 -41 -29 -18 -16 -50 -37 -70
-48 -20 -11 -49 -28 -65 -38 l-29 -19 25 39 c33 52 72 167 92 265 3 14 7 36
10 50 6 24 19 98 30 165 3 17 10 51 14 77 5 26 7 50 4 53 -3 3 -1 5 4 5 5 0
10 17 11 38 2 40 9 101 18 142 2 14 7 48 11 75 3 28 7 61 9 75 4 23 34 230 39
275 7 50 19 131 21 146 2 9 6 40 10 69 4 29 8 60 10 69 4 22 13 87 20 136 3
23 7 50 9 60 12 64 20 112 21 125 2 22 16 93 21 110 3 8 30 -57 59 -145 30
-88 59 -169 64 -180z"/>
</g>
</svg>
