<?xml version="1.0" encoding="UTF-8" standalone="no"?>
<!DOCTYPE svg PUBLIC "-//W3C//DTD SVG 1.1//EN"
 "http://www.w3.org/Graphics/SVG/1.1/DTD/svg11.dtd">
<!-- Generated by graphviz version 2.40.1 (20161225.0304)
 -->
<!-- Title: %3 Pages: 1 -->
<svg width="739pt" height="192pt"
 viewBox="0.00 0.00 738.85 192.00" xmlns="http://www.w3.org/2000/svg" xmlns:xlink="http://www.w3.org/1999/xlink">
<g id="graph0" class="graph" transform="scale(1 1) rotate(0) translate(4 188)">
<title>%3</title>
<polygon fill="#ffffff" stroke="transparent" points="-4,4 -4,-188 734.8501,-188 734.8501,4 -4,4"/>
<g id="clust1" class="cluster">
<title>cluster_0</title>
<polygon fill="none" stroke="#000000" stroke-dasharray="5,2" points="8,-8 8,-176 595.1603,-176 595.1603,-8 8,-8"/>
<text text-anchor="middle" x="301.5802" y="-160.8" font-family="Times,serif" font-size="14.00" fill="#000000">pymedphys_analysis</text>
</g>
<g id="clust2" class="cluster">
<title>cluster_1</title>
<polygon fill="none" stroke="#000000" stroke-dasharray="5,2" points="16,-16 16,-145 587.1603,-145 587.1603,-16 16,-16"/>
<text text-anchor="middle" x="301.5802" y="-129.8" font-family="Times,serif" font-size="14.00" fill="#000000">pymedphys_analysis.gamma</text>
</g>
<!-- pymedphys_analysis.gamma.filter -->
<g id="node1" class="node">
<title>pymedphys_analysis.gamma.filter</title>
<ellipse fill="none" stroke="#000000" cx="500.5173" cy="-42" rx="57.3905" ry="18"/>
<text text-anchor="middle" x="500.5173" y="-38.3" font-family="Times,serif" font-size="14.00" fill="#000000">gamma.filter</text>
</g>
<!-- pymedphys_dicom.dicom -->
<g id="node6" class="node">
<title>pymedphys_dicom.dicom</title>
<ellipse fill="none" stroke="#000000" cx="673.0052" cy="-42" rx="57.6901" ry="18"/>
<text text-anchor="middle" x="673.0052" y="-38.3" font-family="Times,serif" font-size="14.00" fill="#000000">dicom.dicom</text>
</g>
<!-- pymedphys_analysis.gamma.filter&#45;&gt;pymedphys_dicom.dicom -->
<g id="edge1" class="edge">
<title>pymedphys_analysis.gamma.filter&#45;&gt;pymedphys_dicom.dicom</title>
<path fill="none" stroke="#000000" d="M557.9533,-42C572.9866,-42 589.3392,-42 604.8712,-42"/>
<polygon fill="#000000" stroke="#000000" points="604.9374,-45.5001 614.9374,-42 604.9373,-38.5001 604.9374,-45.5001"/>
</g>
<!-- pymedphys_analysis.gamma.inputcheck -->
<g id="node2" class="node">
<title>pymedphys_analysis.gamma.inputcheck</title>
<ellipse fill="none" stroke="#000000" cx="500.5173" cy="-96" rx="78.7863" ry="18"/>
<text text-anchor="middle" x="500.5173" y="-92.3" font-family="Times,serif" font-size="14.00" fill="#000000">gamma.inputcheck</text>
</g>
<!-- pymedphys_analysis.gamma.shell -->
<g id="node3" class="node">
<title>pymedphys_analysis.gamma.shell</title>
<ellipse fill="none" stroke="#000000" cx="329.3293" cy="-91" rx="56.59" ry="18"/>
<text text-anchor="middle" x="329.3293" y="-87.3" font-family="Times,serif" font-size="14.00" fill="#000000">gamma.shell</text>
</g>
<!-- pymedphys_analysis.gamma.shell&#45;&gt;pymedphys_analysis.gamma.inputcheck -->
<g id="edge2" class="edge">
<title>pymedphys_analysis.gamma.shell&#45;&gt;pymedphys_analysis.gamma.inputcheck</title>
<path fill="none" stroke="#000000" d="M385.8571,-92.651C394.3482,-92.899 403.2724,-93.1597 412.2359,-93.4215"/>
<polygon fill="#000000" stroke="#000000" points="412.2537,-96.9234 422.3517,-93.717 412.4582,-89.9264 412.2537,-96.9234"/>
</g>
<!-- pymedphys_analysis.gamma.api -->
<g id="node4" class="node">
<title>pymedphys_analysis.gamma.api</title>
<ellipse fill="none" stroke="#000000" cx="186.0888" cy="-60" rx="50.8918" ry="18"/>
<text text-anchor="middle" x="186.0888" y="-56.3" font-family="Times,serif" font-size="14.00" fill="#000000">gamma.api</text>
</g>
<!-- pymedphys_analysis.gamma.api&#45;&gt;pymedphys_analysis.gamma.filter -->
<g id="edge3" class="edge">
<title>pymedphys_analysis.gamma.api&#45;&gt;pymedphys_analysis.gamma.filter</title>
<path fill="none" stroke="#000000" d="M236.2586,-57.1279C289.8541,-54.0598 375.0578,-49.1821 434.1673,-45.7983"/>
<polygon fill="#000000" stroke="#000000" points="434.3692,-49.2926 444.1528,-45.2267 433.9691,-42.304 434.3692,-49.2926"/>
</g>
<!-- pymedphys_analysis.gamma.api&#45;&gt;pymedphys_analysis.gamma.shell -->
<g id="edge4" class="edge">
<title>pymedphys_analysis.gamma.api&#45;&gt;pymedphys_analysis.gamma.shell</title>
<path fill="none" stroke="#000000" d="M229.4544,-69.3851C243.0358,-72.3244 258.2315,-75.6131 272.5921,-78.721"/>
<polygon fill="#000000" stroke="#000000" points="271.8564,-82.1427 282.3705,-80.8372 273.3371,-75.3011 271.8564,-82.1427"/>
</g>
<!-- pymedphys_analysis.gamma -->
<g id="node5" class="node">
<title>pymedphys_analysis.gamma</title>
<ellipse fill="none" stroke="#000000" cx="61.6967" cy="-60" rx="37.8943" ry="18"/>
<text text-anchor="middle" x="61.6967" y="-56.3" font-family="Times,serif" font-size="14.00" fill="#000000">gamma</text>
</g>
<!-- pymedphys_analysis.gamma&#45;&gt;pymedphys_analysis.gamma.api -->
<g id="edge5" class="edge">
<title>pymedphys_analysis.gamma&#45;&gt;pymedphys_analysis.gamma.api</title>
<path fill="none" stroke="#000000" d="M99.6943,-60C107.7054,-60 116.3511,-60 124.9692,-60"/>
<polygon fill="#000000" stroke="#000000" points="125.0339,-63.5001 135.0338,-60 125.0338,-56.5001 125.0339,-63.5001"/>
</g>
</g>
</svg>
