<?xml version="1.0" encoding="UTF-8" standalone="no"?>
<!DOCTYPE svg PUBLIC "-//W3C//DTD SVG 1.1//EN"
 "http://www.w3.org/Graphics/SVG/1.1/DTD/svg11.dtd">
<!-- Generated by graphviz version 2.40.1 (20161225.0304)
 -->
<!-- Title: %3 Pages: 1 -->
<svg width="616pt" height="184pt"
 viewBox="0.00 0.00 615.96 184.00" xmlns="http://www.w3.org/2000/svg" xmlns:xlink="http://www.w3.org/1999/xlink">
<g id="graph0" class="graph" transform="scale(1 1) rotate(0) translate(4 180)">
<title>%3</title>
<polygon fill="#ffffff" stroke="transparent" points="-4,4 -4,-180 611.9585,-180 611.9585,4 -4,4"/>
<g id="clust1" class="cluster">
<title>cluster_0</title>
<polygon fill="none" stroke="#000000" stroke-dasharray="5,2" points="8,-8 8,-168 599.9585,-168 599.9585,-8 8,-8"/>
<text text-anchor="middle" x="303.9792" y="-152.8" font-family="Times,serif" font-size="14.00" fill="#000000">pymedphys_monomanage</text>
</g>
<g id="clust2" class="cluster">
<title>cluster_1</title>
<polygon fill="none" stroke="#000000" stroke-dasharray="5,2" points="215.2324,-62 215.2324,-137 445.669,-137 445.669,-62 215.2324,-62"/>
<text text-anchor="middle" x="330.4507" y="-121.8" font-family="Times,serif" font-size="14.00" fill="#000000">pymedphys_monomanage.tree</text>
</g>
<!-- pymedphys_monomanage.tree.build -->
<g id="node1" class="node">
<title>pymedphys_monomanage.tree.build</title>
<ellipse fill="none" stroke="#000000" cx="393.4729" cy="-88" rx="44.393" ry="18"/>
<text text-anchor="middle" x="393.4729" y="-84.3" font-family="Times,serif" font-size="14.00" fill="#000000">tree.build</text>
</g>
<!-- pymedphys_monomanage.parse.imports -->
<g id="node5" class="node">
<title>pymedphys_monomanage.parse.imports</title>
<ellipse fill="none" stroke="#000000" cx="532.8137" cy="-88" rx="59.2899" ry="18"/>
<text text-anchor="middle" x="532.8137" y="-84.3" font-family="Times,serif" font-size="14.00" fill="#000000">parse.imports</text>
</g>
<!-- pymedphys_monomanage.tree.build&#45;&gt;pymedphys_monomanage.parse.imports -->
<g id="edge4" class="edge">
<title>pymedphys_monomanage.tree.build&#45;&gt;pymedphys_monomanage.parse.imports</title>
<path fill="none" stroke="#000000" d="M437.9443,-88C446.0732,-88 454.7311,-88 463.384,-88"/>
<polygon fill="#000000" stroke="#000000" points="463.5076,-91.5001 473.5076,-88 463.5075,-84.5001 463.5076,-91.5001"/>
</g>
<!-- pymedphys_monomanage.tree -->
<g id="node2" class="node">
<title>pymedphys_monomanage.tree</title>
<ellipse fill="none" stroke="#000000" cx="250.2324" cy="-88" rx="27" ry="18"/>
<text text-anchor="middle" x="250.2324" y="-84.3" font-family="Times,serif" font-size="14.00" fill="#000000">tree</text>
</g>
<!-- pymedphys_monomanage.tree&#45;&gt;pymedphys_monomanage.tree.build -->
<g id="edge5" class="edge">
<title>pymedphys_monomanage.tree&#45;&gt;pymedphys_monomanage.tree.build</title>
<path fill="none" stroke="#000000" d="M277.512,-88C294.8815,-88 317.9874,-88 339.0008,-88"/>
<polygon fill="#000000" stroke="#000000" points="339.1141,-91.5001 349.1141,-88 339.1141,-84.5001 339.1141,-91.5001"/>
</g>
<!-- pymedphys_monomanage.draw.files -->
<g id="node3" class="node">
<title>pymedphys_monomanage.draw.files</title>
<ellipse fill="none" stroke="#000000" cx="83.594" cy="-103" rx="46.2923" ry="18"/>
<text text-anchor="middle" x="83.594" y="-99.3" font-family="Times,serif" font-size="14.00" fill="#000000">draw.files</text>
</g>
<!-- pymedphys_monomanage.draw.files&#45;&gt;pymedphys_monomanage.tree -->
<g id="edge1" class="edge">
<title>pymedphys_monomanage.draw.files&#45;&gt;pymedphys_monomanage.tree</title>
<path fill="none" stroke="#000000" d="M128.6888,-98.9408C155.1714,-96.5569 188.2317,-93.581 213.1843,-91.3349"/>
<polygon fill="#000000" stroke="#000000" points="213.6931,-94.8033 223.339,-90.4208 213.0655,-87.8315 213.6931,-94.8033"/>
</g>
<!-- pymedphys_monomanage.draw.directories -->
<g id="node4" class="node">
<title>pymedphys_monomanage.draw.directories</title>
<ellipse fill="none" stroke="#000000" cx="83.594" cy="-49" rx="67.6881" ry="18"/>
<text text-anchor="middle" x="83.594" y="-45.3" font-family="Times,serif" font-size="14.00" fill="#000000">draw.directories</text>
</g>
<!-- pymedphys_monomanage.draw.directories&#45;&gt;pymedphys_monomanage.tree -->
<g id="edge2" class="edge">
<title>pymedphys_monomanage.draw.directories&#45;&gt;pymedphys_monomanage.tree</title>
<path fill="none" stroke="#000000" d="M134.4965,-60.9132C160.5096,-67.0013 191.5173,-74.2583 214.8872,-79.7278"/>
<polygon fill="#000000" stroke="#000000" points="214.185,-83.158 224.7195,-82.029 215.7802,-76.3422 214.185,-83.158"/>
</g>
<!-- pymedphys_monomanage.draw.packages -->
<g id="node6" class="node">
<title>pymedphys_monomanage.draw.packages</title>
<ellipse fill="none" stroke="#000000" cx="250.2324" cy="-34" rx="63.0888" ry="18"/>
<text text-anchor="middle" x="250.2324" y="-30.3" font-family="Times,serif" font-size="14.00" fill="#000000">draw.packages</text>
</g>
<!-- pymedphys_monomanage.draw.packages&#45;&gt;pymedphys_monomanage.tree.build -->
<g id="edge3" class="edge">
<title>pymedphys_monomanage.draw.packages&#45;&gt;pymedphys_monomanage.tree.build</title>
<path fill="none" stroke="#000000" d="M288.6182,-48.471C307.9891,-55.7736 331.5278,-64.6474 351.3911,-72.1357"/>
<polygon fill="#000000" stroke="#000000" points="350.2208,-75.4349 360.8126,-75.6874 352.6901,-68.8848 350.2208,-75.4349"/>
</g>
</g>
</svg>
