<?xml version="1.0" encoding="UTF-8" standalone="no"?>
<!DOCTYPE svg PUBLIC "-//W3C//DTD SVG 1.1//EN"
 "http://www.w3.org/Graphics/SVG/1.1/DTD/svg11.dtd">
<!-- Generated by graphviz version 2.40.1 (20161225.0304)
 -->
<!-- Title: %3 Pages: 1 -->
<svg width="843pt" height="313pt"
 viewBox="0.00 0.00 843.24 312.53" xmlns="http://www.w3.org/2000/svg" xmlns:xlink="http://www.w3.org/1999/xlink">
<g id="graph0" class="graph" transform="scale(1 1) rotate(0) translate(4 308.5343)">
<title>%3</title>
<polygon fill="#ffffff" stroke="transparent" points="-4,4 -4,-308.5343 839.2376,-308.5343 839.2376,4 -4,4"/>
<g id="clust1" class="cluster">
<title>cluster_0</title>
<polygon fill="none" stroke="#000000" stroke-dasharray="5,2" points="8,-74.5343 8,-296.5343 587.7578,-296.5343 587.7578,-74.5343 8,-74.5343"/>
<text text-anchor="middle" x="297.8789" y="-281.3343" font-family="Times,serif" font-size="14.00" fill="#000000">pymedphys_logfiles</text>
</g>
<g id="clust2" class="cluster">
<title>cluster_1</title>
<polygon fill="none" stroke="#000000" stroke-dasharray="5,2" points="16,-82.5343 16,-265.5343 579.7578,-265.5343 579.7578,-82.5343 16,-82.5343"/>
<text text-anchor="middle" x="297.8789" y="-250.3343" font-family="Times,serif" font-size="14.00" fill="#000000">pymedphys_logfiles.elekta</text>
</g>
<!-- pymedphys_logfiles.elekta.analyse -->
<g id="node1" class="node">
<title>pymedphys_logfiles.elekta.analyse</title>
<ellipse fill="none" stroke="#000000" cx="479.466" cy="-162.5343" rx="60.3893" ry="18"/>
<text text-anchor="middle" x="479.466" y="-158.8343" font-family="Times,serif" font-size="14.00" fill="#000000">elekta.analyse</text>
</g>
<!-- pymedphys_fileformats.trf -->
<g id="node8" class="node">
<title>pymedphys_fileformats.trf</title>
<ellipse fill="none" stroke="#000000" cx="721.4977" cy="-95.5343" rx="60.3893" ry="18"/>
<text text-anchor="middle" x="721.4977" y="-91.8343" font-family="Times,serif" font-size="14.00" fill="#000000">fileformats.trf</text>
</g>
<!-- pymedphys_logfiles.elekta.analyse&#45;&gt;pymedphys_fileformats.trf -->
<g id="edge1" class="edge">
<title>pymedphys_logfiles.elekta.analyse&#45;&gt;pymedphys_fileformats.trf</title>
<path fill="none" stroke="#000000" d="M531.5762,-153.2232C549.7836,-149.0168 570.0791,-143.2255 587.7578,-135.5343 597.4793,-131.3048 598.0126,-126.7088 607.7578,-122.5343 623.6646,-115.7202 641.593,-110.45 658.4318,-106.4512"/>
<polygon fill="#000000" stroke="#000000" points="659.2158,-109.8624 668.1967,-104.2416 657.6708,-103.035 659.2158,-109.8624"/>
</g>
<!-- pymedphys_analysis.mudensity -->
<g id="node9" class="node">
<title>pymedphys_analysis.mudensity</title>
<ellipse fill="none" stroke="#000000" cx="721.4977" cy="-203.5343" rx="78.7863" ry="18"/>
<text text-anchor="middle" x="721.4977" y="-199.8343" font-family="Times,serif" font-size="14.00" fill="#000000">analysis.mudensity</text>
</g>
<!-- pymedphys_logfiles.elekta.analyse&#45;&gt;pymedphys_analysis.mudensity -->
<g id="edge2" class="edge">
<title>pymedphys_logfiles.elekta.analyse&#45;&gt;pymedphys_analysis.mudensity</title>
<path fill="none" stroke="#000000" d="M532.2818,-171.4812C566.1008,-177.2101 610.4706,-184.7263 647.7436,-191.0404"/>
<polygon fill="#000000" stroke="#000000" points="647.6096,-194.5675 658.0537,-192.7869 648.7788,-187.6658 647.6096,-194.5675"/>
</g>
<!-- pymedphys_coordsandscales.deliverydata -->
<g id="node10" class="node">
<title>pymedphys_coordsandscales.deliverydata</title>
<ellipse fill="none" stroke="#000000" cx="721.4977" cy="-257.5343" rx="113.9803" ry="18"/>
<text text-anchor="middle" x="721.4977" y="-253.8343" font-family="Times,serif" font-size="14.00" fill="#000000">coordsandscales.deliverydata</text>
</g>
<!-- pymedphys_logfiles.elekta.analyse&#45;&gt;pymedphys_coordsandscales.deliverydata -->
<g id="edge3" class="edge">
<title>pymedphys_logfiles.elekta.analyse&#45;&gt;pymedphys_coordsandscales.deliverydata</title>
<path fill="none" stroke="#000000" d="M537.6731,-167.517C555.2422,-171.3876 573.6028,-178.0725 587.7578,-189.5343 603.5145,-202.293 591.9294,-217.8645 607.7578,-230.5343 613.187,-234.88 619.2006,-238.5462 625.5448,-241.6368"/>
<polygon fill="#000000" stroke="#000000" points="624.4803,-244.9903 635.0468,-245.7651 627.2698,-238.5701 624.4803,-244.9903"/>
</g>
<!-- pymedphys_databases.msq -->
<g id="node11" class="node">
<title>pymedphys_databases.msq</title>
<ellipse fill="none" stroke="#000000" cx="721.4977" cy="-149.5343" rx="61.99" ry="18"/>
<text text-anchor="middle" x="721.4977" y="-145.8343" font-family="Times,serif" font-size="14.00" fill="#000000">databases.msq</text>
</g>
<!-- pymedphys_logfiles.elekta.analyse&#45;&gt;pymedphys_databases.msq -->
<g id="edge4" class="edge">
<title>pymedphys_logfiles.elekta.analyse&#45;&gt;pymedphys_databases.msq</title>
<path fill="none" stroke="#000000" d="M538.9836,-159.3375C572.6151,-157.531 614.8774,-155.261 650.2625,-153.3604"/>
<polygon fill="#000000" stroke="#000000" points="650.7276,-156.8406 660.5254,-152.8092 650.3521,-149.8507 650.7276,-156.8406"/>
</g>
<!-- pymedphys_utilities.utilities -->
<g id="node12" class="node">
<title>pymedphys_utilities.utilities</title>
<ellipse fill="none" stroke="#000000" cx="721.4977" cy="-28.5343" rx="65.7887" ry="18"/>
<text text-anchor="middle" x="721.4977" y="-24.8343" font-family="Times,serif" font-size="14.00" fill="#000000">utilities.utilities</text>
</g>
<!-- pymedphys_logfiles.elekta.analyse&#45;&gt;pymedphys_utilities.utilities -->
<g id="edge5" class="edge">
<title>pymedphys_logfiles.elekta.analyse&#45;&gt;pymedphys_utilities.utilities</title>
<path fill="none" stroke="#000000" d="M538.8562,-158.8962C556.4887,-155.0975 574.5876,-148.1153 587.7578,-135.5343 610.2287,-114.0684 586.3182,-91.0303 607.7578,-68.5343 620.3689,-55.3017 637.6116,-46.4424 654.8585,-40.5125"/>
<polygon fill="#000000" stroke="#000000" points="655.9205,-43.8476 664.4111,-37.5103 653.8218,-37.1696 655.9205,-43.8476"/>
</g>
<!-- pymedphys_logfiles.elekta.diagnostics_zips -->
<g id="node2" class="node">
<title>pymedphys_logfiles.elekta.diagnostics_zips</title>
<ellipse fill="none" stroke="#000000" cx="479.466" cy="-216.5343" rx="92.0841" ry="18"/>
<text text-anchor="middle" x="479.466" y="-212.8343" font-family="Times,serif" font-size="14.00" fill="#000000">elekta.diagnostics_zips</text>
</g>
<!-- pymedphys_logfiles.elekta.identify -->
<g id="node3" class="node">
<title>pymedphys_logfiles.elekta.identify</title>
<ellipse fill="none" stroke="#000000" cx="479.466" cy="-108.5343" rx="61.99" ry="18"/>
<text text-anchor="middle" x="479.466" y="-104.8343" font-family="Times,serif" font-size="14.00" fill="#000000">elekta.identify</text>
</g>
<!-- pymedphys_logfiles.elekta.identify&#45;&gt;pymedphys_fileformats.trf -->
<g id="edge6" class="edge">
<title>pymedphys_logfiles.elekta.identify&#45;&gt;pymedphys_fileformats.trf</title>
<path fill="none" stroke="#000000" d="M540.2284,-105.2706C574.1295,-103.4497 616.5002,-101.1739 651.7509,-99.2805"/>
<polygon fill="#000000" stroke="#000000" points="652.1689,-102.7632 661.9668,-98.7318 651.7934,-95.7733 652.1689,-102.7632"/>
</g>
<!-- pymedphys_logfiles.elekta.identify&#45;&gt;pymedphys_databases.msq -->
<g id="edge7" class="edge">
<title>pymedphys_logfiles.elekta.identify&#45;&gt;pymedphys_databases.msq</title>
<path fill="none" stroke="#000000" d="M532.8805,-117.5826C569.6843,-123.8172 618.7703,-132.1323 657.6417,-138.7171"/>
<polygon fill="#000000" stroke="#000000" points="657.3577,-142.2188 667.8018,-140.4382 658.5268,-135.3171 657.3577,-142.2188"/>
</g>
<!-- pymedphys_logfiles.elekta.bygantry -->
<g id="node4" class="node">
<title>pymedphys_logfiles.elekta.bygantry</title>
<ellipse fill="none" stroke="#000000" cx="285.53" cy="-162.5343" rx="65.7887" ry="18"/>
<text text-anchor="middle" x="285.53" y="-158.8343" font-family="Times,serif" font-size="14.00" fill="#000000">elekta.bygantry</text>
</g>
<!-- pymedphys_logfiles.elekta.bygantry&#45;&gt;pymedphys_logfiles.elekta.analyse -->
<g id="edge8" class="edge">
<title>pymedphys_logfiles.elekta.bygantry&#45;&gt;pymedphys_logfiles.elekta.analyse</title>
<path fill="none" stroke="#000000" d="M351.1879,-162.5343C369.6386,-162.5343 389.7836,-162.5343 408.5273,-162.5343"/>
<polygon fill="#000000" stroke="#000000" points="408.7767,-166.0344 418.7767,-162.5343 408.7766,-159.0344 408.7767,-166.0344"/>
</g>
<!-- pymedphys_logfiles.elekta.index -->
<g id="node5" class="node">
<title>pymedphys_logfiles.elekta.index</title>
<ellipse fill="none" stroke="#000000" cx="285.53" cy="-108.5343" rx="53.8905" ry="18"/>
<text text-anchor="middle" x="285.53" y="-104.8343" font-family="Times,serif" font-size="14.00" fill="#000000">elekta.index</text>
</g>
<!-- pymedphys_logfiles.elekta.index&#45;&gt;pymedphys_logfiles.elekta.identify -->
<g id="edge9" class="edge">
<title>pymedphys_logfiles.elekta.index&#45;&gt;pymedphys_logfiles.elekta.identify</title>
<path fill="none" stroke="#000000" d="M339.552,-108.5343C360.5456,-108.5343 384.9049,-108.5343 407.3573,-108.5343"/>
<polygon fill="#000000" stroke="#000000" points="407.5202,-112.0344 417.5202,-108.5343 407.5201,-105.0344 407.5202,-112.0344"/>
</g>
<!-- pymedphys_logfiles.elekta.index&#45;&gt;pymedphys_utilities.utilities -->
<g id="edge11" class="edge">
<title>pymedphys_logfiles.elekta.index&#45;&gt;pymedphys_utilities.utilities</title>
<path fill="none" stroke="#000000" d="M299.0747,-91.0534C316.6972,-69.8953 349.6989,-35.3823 387.1742,-21.5343 478.4664,12.2005 593.5631,-1.2497 662.1372,-14.5526"/>
<polygon fill="#000000" stroke="#000000" points="661.8278,-18.0601 672.3206,-16.5938 663.2035,-11.1967 661.8278,-18.0601"/>
</g>
<!-- pymedphys_utilities.filehash -->
<g id="node13" class="node">
<title>pymedphys_utilities.filehash</title>
<ellipse fill="none" stroke="#000000" cx="479.466" cy="-48.5343" rx="67.6881" ry="18"/>
<text text-anchor="middle" x="479.466" y="-44.8343" font-family="Times,serif" font-size="14.00" fill="#000000">utilities.filehash</text>
</g>
<!-- pymedphys_logfiles.elekta.index&#45;&gt;pymedphys_utilities.filehash -->
<g id="edge10" class="edge">
<title>pymedphys_logfiles.elekta.index&#45;&gt;pymedphys_utilities.filehash</title>
<path fill="none" stroke="#000000" d="M325.2438,-96.2476C354.1672,-87.2993 393.6786,-75.0752 425.4671,-65.2404"/>
<polygon fill="#000000" stroke="#000000" points="426.5456,-68.5706 435.0643,-62.2713 424.4766,-61.8833 426.5456,-68.5706"/>
</g>
<!-- pymedphys_logfiles.elekta -->
<g id="node6" class="node">
<title>pymedphys_logfiles.elekta</title>
<ellipse fill="none" stroke="#000000" cx="103.9429" cy="-202.5343" rx="31.6951" ry="18"/>
<text text-anchor="middle" x="103.9429" y="-198.8343" font-family="Times,serif" font-size="14.00" fill="#000000">elekta</text>
</g>
<!-- pymedphys_logfiles.elekta&#45;&gt;pymedphys_logfiles.elekta.diagnostics_zips -->
<g id="edge12" class="edge">
<title>pymedphys_logfiles.elekta&#45;&gt;pymedphys_logfiles.elekta.diagnostics_zips</title>
<path fill="none" stroke="#000000" d="M135.9598,-203.7279C189.0286,-205.7064 297.3804,-209.7459 378.2794,-212.7619"/>
<polygon fill="#000000" stroke="#000000" points="378.3789,-216.2679 388.5024,-213.143 378.6398,-209.2728 378.3789,-216.2679"/>
</g>
<!-- pymedphys_logfiles.elekta&#45;&gt;pymedphys_logfiles.elekta.index -->
<g id="edge13" class="edge">
<title>pymedphys_logfiles.elekta&#45;&gt;pymedphys_logfiles.elekta.index</title>
<path fill="none" stroke="#000000" d="M125.2667,-189.0537C148.1752,-174.8484 185.8817,-152.259 219.8858,-135.5343 226.4997,-132.2812 233.6065,-129.0744 240.6148,-126.0697"/>
<polygon fill="#000000" stroke="#000000" points="242.1856,-129.2064 250.055,-122.1125 239.4794,-122.7507 242.1856,-129.2064"/>
</g>
<!-- pymedphys_logfiles.elekta.orchestration -->
<g id="node7" class="node">
<title>pymedphys_logfiles.elekta.orchestration</title>
<ellipse fill="none" stroke="#000000" cx="103.9429" cy="-121.5343" rx="79.8859" ry="18"/>
<text text-anchor="middle" x="103.9429" y="-117.8343" font-family="Times,serif" font-size="14.00" fill="#000000">elekta.orchestration</text>
</g>
<!-- pymedphys_logfiles.elekta.orchestration&#45;&gt;pymedphys_logfiles.elekta.diagnostics_zips -->
<g id="edge14" class="edge">
<title>pymedphys_logfiles.elekta.orchestration&#45;&gt;pymedphys_logfiles.elekta.diagnostics_zips</title>
<path fill="none" stroke="#000000" d="M126.9321,-139.0529C149.354,-155.1246 185.0749,-178.1127 219.8858,-189.5343 227.9129,-192.168 314.7149,-200.8992 385.7667,-207.7281"/>
<polygon fill="#000000" stroke="#000000" points="385.8358,-211.2506 396.1242,-208.7208 386.5038,-204.2826 385.8358,-211.2506"/>
</g>
<!-- pymedphys_logfiles.elekta.orchestration&#45;&gt;pymedphys_logfiles.elekta.index -->
<g id="edge15" class="edge">
<title>pymedphys_logfiles.elekta.orchestration&#45;&gt;pymedphys_logfiles.elekta.index</title>
<path fill="none" stroke="#000000" d="M180.1629,-116.0776C194.2392,-115.0699 208.7954,-114.0278 222.4301,-113.0516"/>
<polygon fill="#000000" stroke="#000000" points="222.9294,-116.525 232.6539,-112.3197 222.4295,-109.5428 222.9294,-116.525"/>
</g>
</g>
</svg>
