<?xml version="1.0" encoding="UTF-8" standalone="no"?>
<!DOCTYPE svg PUBLIC "-//W3C//DTD SVG 1.1//EN"
 "http://www.w3.org/Graphics/SVG/1.1/DTD/svg11.dtd">
<!-- Generated by graphviz version 2.40.1 (20161225.0304)
 -->
<!-- Title: %3 Pages: 1 -->
<svg width="512pt" height="354pt"
 viewBox="0.00 0.00 512.16 354.00" xmlns="http://www.w3.org/2000/svg" xmlns:xlink="http://www.w3.org/1999/xlink">
<g id="graph0" class="graph" transform="scale(1 1) rotate(0) translate(4 350)">
<title>%3</title>
<polygon fill="#ffffff" stroke="transparent" points="-4,4 -4,-350 508.1638,-350 508.1638,4 -4,4"/>
<g id="clust1" class="cluster">
<title>cluster_0</title>
<polygon fill="none" stroke="#000000" stroke-dasharray="5,2" points="8,-8 8,-338 309.9792,-338 309.9792,-8 8,-8"/>
<text text-anchor="middle" x="158.9896" y="-322.8" font-family="Times,serif" font-size="14.00" fill="#000000">pymedphys_xlwings</text>
</g>
<g id="clust2" class="cluster">
<title>cluster_1</title>
<polygon fill="none" stroke="#000000" stroke-dasharray="5,2" points="16,-16 16,-307 301.9792,-307 301.9792,-16 16,-16"/>
<text text-anchor="middle" x="158.9896" y="-291.8" font-family="Times,serif" font-size="14.00" fill="#000000">pymedphys_xlwings.xlwings</text>
</g>
<!-- pymedphys_xlwings.xlwings.dicom -->
<g id="node1" class="node">
<title>pymedphys_xlwings.xlwings.dicom</title>
<ellipse fill="none" stroke="#000000" cx="215.3362" cy="-150" rx="63.8893" ry="18"/>
<text text-anchor="middle" x="215.3362" y="-146.3" font-family="Times,serif" font-size="14.00" fill="#000000">xlwings.dicom</text>
</g>
<!-- pymedphys_dicom.dicom -->
<g id="node7" class="node">
<title>pymedphys_dicom.dicom</title>
<ellipse fill="none" stroke="#000000" cx="417.0715" cy="-150" rx="57.6901" ry="18"/>
<text text-anchor="middle" x="417.0715" y="-146.3" font-family="Times,serif" font-size="14.00" fill="#000000">dicom.dicom</text>
</g>
<!-- pymedphys_xlwings.xlwings.dicom&#45;&gt;pymedphys_dicom.dicom -->
<g id="edge1" class="edge">
<title>pymedphys_xlwings.xlwings.dicom&#45;&gt;pymedphys_dicom.dicom</title>
<path fill="none" stroke="#000000" d="M279.1665,-150C301.3893,-150 326.3975,-150 348.9544,-150"/>
<polygon fill="#000000" stroke="#000000" points="349.1272,-153.5001 359.1272,-150 349.1271,-146.5001 349.1272,-153.5001"/>
</g>
<!-- pymedphys_utilities.utilities -->
<g id="node8" class="node">
<title>pymedphys_utilities.utilities</title>
<ellipse fill="none" stroke="#000000" cx="417.0715" cy="-96" rx="65.7887" ry="18"/>
<text text-anchor="middle" x="417.0715" y="-92.3" font-family="Times,serif" font-size="14.00" fill="#000000">utilities.utilities</text>
</g>
<!-- pymedphys_xlwings.xlwings.dicom&#45;&gt;pymedphys_utilities.utilities -->
<g id="edge2" class="edge">
<title>pymedphys_xlwings.xlwings.dicom&#45;&gt;pymedphys_utilities.utilities</title>
<path fill="none" stroke="#000000" d="M261.6184,-137.6113C290.904,-129.7722 328.9745,-119.5816 360.1102,-111.2473"/>
<polygon fill="#000000" stroke="#000000" points="361.2007,-114.5787 369.9556,-108.6119 359.3906,-107.8167 361.2007,-114.5787"/>
</g>
<!-- pymedphys_xlwings.xlwings.interpolate -->
<g id="node2" class="node">
<title>pymedphys_xlwings.xlwings.interpolate</title>
<ellipse fill="none" stroke="#000000" cx="215.3362" cy="-96" rx="78.7863" ry="18"/>
<text text-anchor="middle" x="215.3362" y="-92.3" font-family="Times,serif" font-size="14.00" fill="#000000">xlwings.interpolate</text>
</g>
<!-- pymedphys_xlwings.xlwings.mephysto -->
<g id="node3" class="node">
<title>pymedphys_xlwings.xlwings.mephysto</title>
<ellipse fill="none" stroke="#000000" cx="215.3362" cy="-42" rx="75.2868" ry="18"/>
<text text-anchor="middle" x="215.3362" y="-38.3" font-family="Times,serif" font-size="14.00" fill="#000000">xlwings.mephysto</text>
</g>
<!-- pymedphys_xlwings.xlwings.mephysto&#45;&gt;pymedphys_utilities.utilities -->
<g id="edge4" class="edge">
<title>pymedphys_xlwings.xlwings.mephysto&#45;&gt;pymedphys_utilities.utilities</title>
<path fill="none" stroke="#000000" d="M265.7222,-55.4872C294.4515,-63.1774 330.5423,-72.8381 360.2743,-80.7967"/>
<polygon fill="#000000" stroke="#000000" points="359.5288,-84.2203 370.0937,-83.4251 361.3388,-77.4583 359.5288,-84.2203"/>
</g>
<!-- pymedphys_fileformats.mephysto -->
<g id="node9" class="node">
<title>pymedphys_fileformats.mephysto</title>
<ellipse fill="none" stroke="#000000" cx="417.0715" cy="-42" rx="87.1846" ry="18"/>
<text text-anchor="middle" x="417.0715" y="-38.3" font-family="Times,serif" font-size="14.00" fill="#000000">fileformats.mephysto</text>
</g>
<!-- pymedphys_xlwings.xlwings.mephysto&#45;&gt;pymedphys_fileformats.mephysto -->
<g id="edge3" class="edge">
<title>pymedphys_xlwings.xlwings.mephysto&#45;&gt;pymedphys_fileformats.mephysto</title>
<path fill="none" stroke="#000000" d="M290.7419,-42C300.2109,-42 310.0001,-42 319.7453,-42"/>
<polygon fill="#000000" stroke="#000000" points="319.8696,-45.5001 329.8696,-42 319.8695,-38.5001 319.8696,-45.5001"/>
</g>
<!-- pymedphys_xlwings.xlwings.numpy -->
<g id="node4" class="node">
<title>pymedphys_xlwings.xlwings.numpy</title>
<ellipse fill="none" stroke="#000000" cx="215.3362" cy="-204" rx="65.7887" ry="18"/>
<text text-anchor="middle" x="215.3362" y="-200.3" font-family="Times,serif" font-size="14.00" fill="#000000">xlwings.numpy</text>
</g>
<!-- pymedphys_xlwings.xlwings.path -->
<g id="node5" class="node">
<title>pymedphys_xlwings.xlwings.path</title>
<ellipse fill="none" stroke="#000000" cx="215.3362" cy="-258" rx="55.7903" ry="18"/>
<text text-anchor="middle" x="215.3362" y="-254.3" font-family="Times,serif" font-size="14.00" fill="#000000">xlwings.path</text>
</g>
<!-- pymedphys_xlwings.xlwings -->
<g id="node6" class="node">
<title>pymedphys_xlwings.xlwings</title>
<ellipse fill="none" stroke="#000000" cx="62.3466" cy="-150" rx="38.1938" ry="18"/>
<text text-anchor="middle" x="62.3466" y="-146.3" font-family="Times,serif" font-size="14.00" fill="#000000">xlwings</text>
</g>
<!-- pymedphys_xlwings.xlwings&#45;&gt;pymedphys_xlwings.xlwings.dicom -->
<g id="edge5" class="edge">
<title>pymedphys_xlwings.xlwings&#45;&gt;pymedphys_xlwings.xlwings.dicom</title>
<path fill="none" stroke="#000000" d="M100.9523,-150C113.2752,-150 127.3531,-150 141.3207,-150"/>
<polygon fill="#000000" stroke="#000000" points="141.4451,-153.5001 151.4451,-150 141.445,-146.5001 141.4451,-153.5001"/>
</g>
<!-- pymedphys_xlwings.xlwings&#45;&gt;pymedphys_xlwings.xlwings.interpolate -->
<g id="edge6" class="edge">
<title>pymedphys_xlwings.xlwings&#45;&gt;pymedphys_xlwings.xlwings.interpolate</title>
<path fill="none" stroke="#000000" d="M92.688,-138.8441C106.148,-133.9306 122.1912,-128.1223 136.6932,-123 144.7154,-120.1664 153.2122,-117.2065 161.5397,-114.3286"/>
<polygon fill="#000000" stroke="#000000" points="162.885,-117.5671 171.1993,-111.0003 160.6046,-110.9489 162.885,-117.5671"/>
</g>
<!-- pymedphys_xlwings.xlwings&#45;&gt;pymedphys_xlwings.xlwings.mephysto -->
<g id="edge7" class="edge">
<title>pymedphys_xlwings.xlwings&#45;&gt;pymedphys_xlwings.xlwings.mephysto</title>
<path fill="none" stroke="#000000" d="M74.1019,-132.7769C87.3542,-114.5628 110.4989,-86.1414 136.6932,-69 142.293,-65.3355 148.4437,-62.1128 154.762,-59.2921"/>
<polygon fill="#000000" stroke="#000000" points="156.1849,-62.4913 164.0946,-55.4423 153.5155,-56.0202 156.1849,-62.4913"/>
</g>
<!-- pymedphys_xlwings.xlwings&#45;&gt;pymedphys_xlwings.xlwings.numpy -->
<g id="edge8" class="edge">
<title>pymedphys_xlwings.xlwings&#45;&gt;pymedphys_xlwings.xlwings.numpy</title>
<path fill="none" stroke="#000000" d="M92.688,-161.1559C106.148,-166.0694 122.1912,-171.8777 136.6932,-177 145.6842,-180.1757 155.2712,-183.5102 164.5481,-186.7101"/>
<polygon fill="#000000" stroke="#000000" points="163.4706,-190.0407 174.0653,-189.9837 165.7475,-183.4213 163.4706,-190.0407"/>
</g>
<!-- pymedphys_xlwings.xlwings&#45;&gt;pymedphys_xlwings.xlwings.path -->
<g id="edge9" class="edge">
<title>pymedphys_xlwings.xlwings&#45;&gt;pymedphys_xlwings.xlwings.path</title>
<path fill="none" stroke="#000000" d="M74.1019,-167.2231C87.3542,-185.4372 110.4989,-213.8586 136.6932,-231 144.153,-235.8816 152.5904,-239.9793 161.0995,-243.3871"/>
<polygon fill="#000000" stroke="#000000" points="160.0959,-246.7479 170.6889,-246.9466 162.5319,-240.1854 160.0959,-246.7479"/>
</g>
</g>
</svg>
