<?xml version="1.0" encoding="UTF-8" standalone="no"?>
<!DOCTYPE svg PUBLIC "-//W3C//DTD SVG 1.1//EN"
 "http://www.w3.org/Graphics/SVG/1.1/DTD/svg11.dtd">
<!-- Generated by graphviz version 2.40.1 (20161225.0304)
 -->
<!-- Title: %3 Pages: 1 -->
<svg width="1021pt" height="249pt"
 viewBox="0.00 0.00 1021.23 249.00" xmlns="http://www.w3.org/2000/svg" xmlns:xlink="http://www.w3.org/1999/xlink">
<g id="graph0" class="graph" transform="scale(1 1) rotate(0) translate(4 245)">
<title>%3</title>
<polygon fill="#ffffff" stroke="transparent" points="-4,4 -4,-245 1017.233,-245 1017.233,4 -4,4"/>
<g id="clust1" class="cluster">
<title>cluster_0</title>
<polygon fill="none" stroke="#000000" stroke-dasharray="5,2" points="208.4833,-65 208.4833,-233 1005.233,-233 1005.233,-65 208.4833,-65"/>
<text text-anchor="middle" x="606.8581" y="-217.8" font-family="Times,serif" font-size="14.00" fill="#000000">pymedphys_fileformats</text>
</g>
<g id="clust2" class="cluster">
<title>cluster_1</title>
<polygon fill="none" stroke="#000000" stroke-dasharray="5,2" points="216.4833,-73 216.4833,-202 997.233,-202 997.233,-73 216.4833,-73"/>
<text text-anchor="middle" x="606.8581" y="-186.8" font-family="Times,serif" font-size="14.00" fill="#000000">pymedphys_fileformats.trf</text>
</g>
<!-- pymedphys_fileformats.trf.constants -->
<g id="node1" class="node">
<title>pymedphys_fileformats.trf.constants</title>
<ellipse fill="none" stroke="#000000" cx="935.2878" cy="-99" rx="53.8905" ry="18"/>
<text text-anchor="middle" x="935.2878" y="-95.3" font-family="Times,serif" font-size="14.00" fill="#000000">trf.constants</text>
</g>
<!-- pymedphys_fileformats.trf.header -->
<g id="node2" class="node">
<title>pymedphys_fileformats.trf.header</title>
<ellipse fill="none" stroke="#000000" cx="935.2878" cy="-153" rx="44.6926" ry="18"/>
<text text-anchor="middle" x="935.2878" y="-149.3" font-family="Times,serif" font-size="14.00" fill="#000000">trf.header</text>
</g>
<!-- pymedphys_fileformats.trf.table -->
<g id="node3" class="node">
<title>pymedphys_fileformats.trf.table</title>
<ellipse fill="none" stroke="#000000" cx="806.996" cy="-126" rx="38.1938" ry="18"/>
<text text-anchor="middle" x="806.996" y="-122.3" font-family="Times,serif" font-size="14.00" fill="#000000">trf.table</text>
</g>
<!-- pymedphys_fileformats.trf.table&#45;&gt;pymedphys_fileformats.trf.constants -->
<g id="edge1" class="edge">
<title>pymedphys_fileformats.trf.table&#45;&gt;pymedphys_fileformats.trf.constants</title>
<path fill="none" stroke="#000000" d="M842.0523,-118.6221C853.5261,-116.2074 866.5753,-113.4611 879.2012,-110.8039"/>
<polygon fill="#000000" stroke="#000000" points="880.1332,-114.1845 889.198,-108.6999 878.6916,-107.3345 880.1332,-114.1845"/>
</g>
<!-- pymedphys_fileformats.trf.table&#45;&gt;pymedphys_fileformats.trf.header -->
<g id="edge2" class="edge">
<title>pymedphys_fileformats.trf.table&#45;&gt;pymedphys_fileformats.trf.header</title>
<path fill="none" stroke="#000000" d="M842.0523,-133.3779C855.4341,-136.1942 870.9589,-139.4615 885.4558,-142.5125"/>
<polygon fill="#000000" stroke="#000000" points="884.7825,-145.9474 895.289,-144.582 886.2242,-139.0974 884.7825,-145.9474"/>
</g>
<!-- pymedphys_fileformats.trf.trf2pandas -->
<g id="node4" class="node">
<title>pymedphys_fileformats.trf.trf2pandas</title>
<ellipse fill="none" stroke="#000000" cx="618.9095" cy="-126" rx="58.4896" ry="18"/>
<text text-anchor="middle" x="618.9095" y="-122.3" font-family="Times,serif" font-size="14.00" fill="#000000">trf.trf2pandas</text>
</g>
<!-- pymedphys_fileformats.trf.trf2pandas&#45;&gt;pymedphys_fileformats.trf.table -->
<g id="edge3" class="edge">
<title>pymedphys_fileformats.trf.trf2pandas&#45;&gt;pymedphys_fileformats.trf.table</title>
<path fill="none" stroke="#000000" d="M677.6475,-126C703.5837,-126 733.7109,-126 758.3612,-126"/>
<polygon fill="#000000" stroke="#000000" points="758.5622,-129.5001 768.5621,-126 758.5621,-122.5001 758.5622,-129.5001"/>
</g>
<!-- pymedphys_fileformats.trf.trf2csv -->
<g id="node5" class="node">
<title>pymedphys_fileformats.trf.trf2csv</title>
<ellipse fill="none" stroke="#000000" cx="391.8264" cy="-153" rx="46.2923" ry="18"/>
<text text-anchor="middle" x="391.8264" y="-149.3" font-family="Times,serif" font-size="14.00" fill="#000000">trf.trf2csv</text>
</g>
<!-- pymedphys_fileformats.trf.trf2csv&#45;&gt;pymedphys_fileformats.trf.trf2pandas -->
<g id="edge4" class="edge">
<title>pymedphys_fileformats.trf.trf2csv&#45;&gt;pymedphys_fileformats.trf.trf2pandas</title>
<path fill="none" stroke="#000000" d="M436.1494,-147.73C469.6559,-143.7461 516.1674,-138.216 553.8828,-133.7316"/>
<polygon fill="#000000" stroke="#000000" points="554.7523,-137.153 564.2691,-132.4967 553.9258,-130.2019 554.7523,-137.153"/>
</g>
<!-- pymedphys_fileformats.trf.trf2deliverydata -->
<g id="node6" class="node">
<title>pymedphys_fileformats.trf.trf2deliverydata</title>
<ellipse fill="none" stroke="#000000" cx="391.8264" cy="-99" rx="77.1866" ry="18"/>
<text text-anchor="middle" x="391.8264" y="-95.3" font-family="Times,serif" font-size="14.00" fill="#000000">trf.trf2deliverydata</text>
</g>
<!-- pymedphys_fileformats.trf.trf2deliverydata&#45;&gt;pymedphys_fileformats.trf.trf2pandas -->
<g id="edge5" class="edge">
<title>pymedphys_fileformats.trf.trf2deliverydata&#45;&gt;pymedphys_fileformats.trf.trf2pandas</title>
<path fill="none" stroke="#000000" d="M460.8837,-107.2109C490.5317,-110.736 524.9863,-114.8326 554.1428,-118.2993"/>
<polygon fill="#000000" stroke="#000000" points="553.8749,-121.792 564.2183,-119.4973 554.7015,-114.841 553.8749,-121.792"/>
</g>
<!-- pymedphys_coordsandscales.deliverydata -->
<g id="node8" class="node">
<title>pymedphys_coordsandscales.deliverydata</title>
<ellipse fill="none" stroke="#000000" cx="618.9095" cy="-39" rx="113.9803" ry="18"/>
<text text-anchor="middle" x="618.9095" y="-35.3" font-family="Times,serif" font-size="14.00" fill="#000000">coordsandscales.deliverydata</text>
</g>
<!-- pymedphys_fileformats.trf.trf2deliverydata&#45;&gt;pymedphys_coordsandscales.deliverydata -->
<g id="edge6" class="edge">
<title>pymedphys_fileformats.trf.trf2deliverydata&#45;&gt;pymedphys_coordsandscales.deliverydata</title>
<path fill="none" stroke="#000000" d="M442.886,-85.4754C462.3756,-80.3156 484.8009,-74.3818 505.1696,-69 519.8274,-65.1271 535.5489,-60.9775 550.4846,-57.0375"/>
<polygon fill="#000000" stroke="#000000" points="551.3903,-60.4184 560.1669,-54.4836 549.6049,-53.6499 551.3903,-60.4184"/>
</g>
<!-- pymedphys_fileformats.trf -->
<g id="node7" class="node">
<title>pymedphys_fileformats.trf</title>
<ellipse fill="none" stroke="#000000" cx="251.4833" cy="-99" rx="27" ry="18"/>
<text text-anchor="middle" x="251.4833" y="-95.3" font-family="Times,serif" font-size="14.00" fill="#000000">trf</text>
</g>
<!-- pymedphys_fileformats.trf&#45;&gt;pymedphys_fileformats.trf.trf2deliverydata -->
<g id="edge7" class="edge">
<title>pymedphys_fileformats.trf&#45;&gt;pymedphys_fileformats.trf.trf2deliverydata</title>
<path fill="none" stroke="#000000" d="M278.5428,-99C286.2057,-99 294.9883,-99 304.1995,-99"/>
<polygon fill="#000000" stroke="#000000" points="304.3301,-102.5001 314.3301,-99 304.33,-95.5001 304.3301,-102.5001"/>
</g>
<!-- pymedphys_logfiles.elekta.analyse -->
<g id="node9" class="node">
<title>pymedphys_logfiles.elekta.analyse</title>
<ellipse fill="none" stroke="#000000" cx="94.2416" cy="-180" rx="89.0842" ry="18"/>
<text text-anchor="middle" x="94.2416" y="-176.3" font-family="Times,serif" font-size="14.00" fill="#000000">logfiles.elekta.analyse</text>
</g>
<!-- pymedphys_logfiles.elekta.analyse&#45;&gt;pymedphys_fileformats.trf -->
<g id="edge8" class="edge">
<title>pymedphys_logfiles.elekta.analyse&#45;&gt;pymedphys_fileformats.trf</title>
<path fill="none" stroke="#000000" d="M155.0822,-166.7375C166.5301,-163.0936 178.1428,-158.5664 188.4833,-153 203.5302,-144.9001 218.1596,-132.7119 229.5276,-121.9636"/>
<polygon fill="#000000" stroke="#000000" points="232.133,-124.3114 236.8417,-114.8204 227.2421,-119.3034 232.133,-124.3114"/>
</g>
<!-- pymedphys_logfiles.elekta.bygantry -->
<g id="node10" class="node">
<title>pymedphys_logfiles.elekta.bygantry</title>
<ellipse fill="none" stroke="#000000" cx="94.2416" cy="-126" rx="94.4839" ry="18"/>
<text text-anchor="middle" x="94.2416" y="-122.3" font-family="Times,serif" font-size="14.00" fill="#000000">logfiles.elekta.bygantry</text>
</g>
<!-- pymedphys_logfiles.elekta.bygantry&#45;&gt;pymedphys_fileformats.trf -->
<g id="edge9" class="edge">
<title>pymedphys_logfiles.elekta.bygantry&#45;&gt;pymedphys_fileformats.trf</title>
<path fill="none" stroke="#000000" d="M164.5841,-113.9215C182.1238,-110.9097 200.2193,-107.8025 215.3264,-105.2085"/>
<polygon fill="#000000" stroke="#000000" points="216.0007,-108.644 225.2641,-103.5021 214.816,-101.745 216.0007,-108.644"/>
</g>
<!-- pymedphys_logfiles.elekta.identify -->
<g id="node11" class="node">
<title>pymedphys_logfiles.elekta.identify</title>
<ellipse fill="none" stroke="#000000" cx="94.2416" cy="-72" rx="90.1842" ry="18"/>
<text text-anchor="middle" x="94.2416" y="-68.3" font-family="Times,serif" font-size="14.00" fill="#000000">logfiles.elekta.identify</text>
</g>
<!-- pymedphys_logfiles.elekta.identify&#45;&gt;pymedphys_fileformats.trf -->
<g id="edge10" class="edge">
<title>pymedphys_logfiles.elekta.identify&#45;&gt;pymedphys_fileformats.trf</title>
<path fill="none" stroke="#000000" d="M162.7527,-83.764C180.6393,-86.8354 199.2358,-90.0286 214.7557,-92.6935"/>
<polygon fill="#000000" stroke="#000000" points="214.5141,-96.2032 224.9622,-94.4461 215.6988,-89.3041 214.5141,-96.2032"/>
</g>
<!-- pymedphys_logfiles.elekta.index -->
<g id="node12" class="node">
<title>pymedphys_logfiles.elekta.index</title>
<ellipse fill="none" stroke="#000000" cx="94.2416" cy="-18" rx="82.5854" ry="18"/>
<text text-anchor="middle" x="94.2416" y="-14.3" font-family="Times,serif" font-size="14.00" fill="#000000">logfiles.elekta.index</text>
</g>
<!-- pymedphys_logfiles.elekta.index&#45;&gt;pymedphys_fileformats.trf -->
<g id="edge11" class="edge">
<title>pymedphys_logfiles.elekta.index&#45;&gt;pymedphys_fileformats.trf</title>
<path fill="none" stroke="#000000" d="M153.0932,-30.6376C165.1794,-34.3849 177.5433,-39.1109 188.4833,-45 203.5302,-53.0999 218.1596,-65.2881 229.5276,-76.0364"/>
<polygon fill="#000000" stroke="#000000" points="227.2421,-78.6966 236.8417,-83.1796 232.133,-73.6886 227.2421,-78.6966"/>
</g>
</g>
</svg>
