<?xml version="1.0" encoding="UTF-8" standalone="no"?>
<!DOCTYPE svg PUBLIC "-//W3C//DTD SVG 1.1//EN"
 "http://www.w3.org/Graphics/SVG/1.1/DTD/svg11.dtd">
<!-- Generated by graphviz version 2.40.1 (20161225.0304)
 -->
<!-- Title: %3 Pages: 1 -->
<svg width="275pt" height="138pt"
 viewBox="0.00 0.00 275.28 138.00" xmlns="http://www.w3.org/2000/svg" xmlns:xlink="http://www.w3.org/1999/xlink">
<g id="graph0" class="graph" transform="scale(1 1) rotate(0) translate(4 134)">
<title>%3</title>
<polygon fill="#ffffff" stroke="transparent" points="-4,4 -4,-134 271.2837,-134 271.2837,4 -4,4"/>
<g id="clust1" class="cluster">
<title>cluster_0</title>
<polygon fill="none" stroke="#000000" stroke-dasharray="5,2" points="8,-8 8,-122 259.2837,-122 259.2837,-8 8,-8"/>
<text text-anchor="middle" x="133.6419" y="-106.8" font-family="Times,serif" font-size="14.00" fill="#000000">pymedphys_fileformats</text>
</g>
<g id="clust2" class="cluster">
<title>cluster_1</title>
<polygon fill="none" stroke="#000000" stroke-dasharray="5,2" points="16,-16 16,-91 251.2837,-91 251.2837,-16 16,-16"/>
<text text-anchor="middle" x="133.6419" y="-75.8" font-family="Times,serif" font-size="14.00" fill="#000000">pymedphys_fileformats.profiler</text>
</g>
<!-- pymedphys_fileformats.profiler.core -->
<g id="node1" class="node">
<title>pymedphys_fileformats.profiler.core</title>
<ellipse fill="none" stroke="#000000" cx="188.6886" cy="-42" rx="54.6905" ry="18"/>
<text text-anchor="middle" x="188.6886" y="-38.3" font-family="Times,serif" font-size="14.00" fill="#000000">profiler.core</text>
</g>
<!-- pymedphys_fileformats.profiler -->
<g id="node2" class="node">
<title>pymedphys_fileformats.profiler</title>
<ellipse fill="none" stroke="#000000" cx="61.0467" cy="-42" rx="37.0935" ry="18"/>
<text text-anchor="middle" x="61.0467" y="-38.3" font-family="Times,serif" font-size="14.00" fill="#000000">profiler</text>
</g>
<!-- pymedphys_fileformats.profiler&#45;&gt;pymedphys_fileformats.profiler.core -->
<g id="edge1" class="edge">
<title>pymedphys_fileformats.profiler&#45;&gt;pymedphys_fileformats.profiler.core</title>
<path fill="none" stroke="#000000" d="M98.3092,-42C106.3483,-42 115.0716,-42 123.8212,-42"/>
<polygon fill="#000000" stroke="#000000" points="124.0652,-45.5001 134.0652,-42 124.0651,-38.5001 124.0652,-45.5001"/>
</g>
</g>
</svg>
