<?xml version="1.0" encoding="UTF-8" standalone="no"?>
<!DOCTYPE svg PUBLIC "-//W3C//DTD SVG 1.1//EN"
 "http://www.w3.org/Graphics/SVG/1.1/DTD/svg11.dtd">
<!-- Generated by graphviz version 2.40.1 (20161225.0304)
 -->
<!-- Title: %3 Pages: 1 -->
<svg width="451pt" height="138pt"
 viewBox="0.00 0.00 451.47 138.00" xmlns="http://www.w3.org/2000/svg" xmlns:xlink="http://www.w3.org/1999/xlink">
<g id="graph0" class="graph" transform="scale(1 1) rotate(0) translate(4 134)">
<title>%3</title>
<polygon fill="#ffffff" stroke="transparent" points="-4,4 -4,-134 447.4706,-134 447.4706,4 -4,4"/>
<g id="clust1" class="cluster">
<title>cluster_0</title>
<polygon fill="none" stroke="#000000" stroke-dasharray="5,2" points="8,-8 8,-122 435.4706,-122 435.4706,-8 8,-8"/>
<text text-anchor="middle" x="221.7353" y="-106.8" font-family="Times,serif" font-size="14.00" fill="#000000">pymedphys_dicom</text>
</g>
<g id="clust2" class="cluster">
<title>cluster_1</title>
<polygon fill="none" stroke="#000000" stroke-dasharray="5,2" points="192.1869,-16 192.1869,-91 427.4706,-91 427.4706,-16 192.1869,-16"/>
<text text-anchor="middle" x="309.8287" y="-75.8" font-family="Times,serif" font-size="14.00" fill="#000000">pymedphys_dicom.utilities</text>
</g>
<!-- pymedphys_dicom.utilities.files -->
<g id="node1" class="node">
<title>pymedphys_dicom.utilities.files</title>
<ellipse fill="none" stroke="#000000" cx="364.8754" cy="-42" rx="54.6905" ry="18"/>
<text text-anchor="middle" x="364.8754" y="-38.3" font-family="Times,serif" font-size="14.00" fill="#000000">utilities.files</text>
</g>
<!-- pymedphys_dicom.utilities -->
<g id="node2" class="node">
<title>pymedphys_dicom.utilities</title>
<ellipse fill="none" stroke="#000000" cx="237.2336" cy="-42" rx="37.0935" ry="18"/>
<text text-anchor="middle" x="237.2336" y="-38.3" font-family="Times,serif" font-size="14.00" fill="#000000">utilities</text>
</g>
<!-- pymedphys_dicom.utilities&#45;&gt;pymedphys_dicom.utilities.files -->
<g id="edge2" class="edge">
<title>pymedphys_dicom.utilities&#45;&gt;pymedphys_dicom.utilities.files</title>
<path fill="none" stroke="#000000" d="M274.496,-42C282.5351,-42 291.2585,-42 300.0081,-42"/>
<polygon fill="#000000" stroke="#000000" points="300.252,-45.5001 310.252,-42 300.252,-38.5001 300.252,-45.5001"/>
</g>
<!-- pymedphys_dicom.dicom.anonymise -->
<g id="node3" class="node">
<title>pymedphys_dicom.dicom.anonymise</title>
<ellipse fill="none" stroke="#000000" cx="90.0934" cy="-42" rx="74.187" ry="18"/>
<text text-anchor="middle" x="90.0934" y="-38.3" font-family="Times,serif" font-size="14.00" fill="#000000">dicom.anonymise</text>
</g>
<!-- pymedphys_dicom.dicom.anonymise&#45;&gt;pymedphys_dicom.utilities -->
<g id="edge1" class="edge">
<title>pymedphys_dicom.dicom.anonymise&#45;&gt;pymedphys_dicom.utilities</title>
<path fill="none" stroke="#000000" d="M164.5256,-42C173.0503,-42 181.5595,-42 189.5954,-42"/>
<polygon fill="#000000" stroke="#000000" points="189.8483,-45.5001 199.8482,-42 189.8482,-38.5001 189.8483,-45.5001"/>
</g>
</g>
</svg>
