<?xml version="1.0" encoding="UTF-8" standalone="no"?>
<!DOCTYPE svg PUBLIC "-//W3C//DTD SVG 1.1//EN"
 "http://www.w3.org/Graphics/SVG/1.1/DTD/svg11.dtd">
<!-- Generated by graphviz version 2.40.1 (20161225.0304)
 -->
<!-- Title: %3 Pages: 1 -->
<svg width="319pt" height="245pt"
 viewBox="0.00 0.00 319.38 245.00" xmlns="http://www.w3.org/2000/svg" xmlns:xlink="http://www.w3.org/1999/xlink">
<g id="graph0" class="graph" transform="scale(1 1) rotate(0) translate(4 241)">
<title>%3</title>
<polygon fill="#ffffff" stroke="transparent" points="-4,4 -4,-241 315.3783,-241 315.3783,4 -4,4"/>
<g id="clust2" class="cluster">
<title>cluster_0</title>
<polygon fill="none" stroke="#000000" stroke-dasharray="5,2" points="185.286,-46 185.286,-229 311.3783,-229 311.3783,-46 185.286,-46"/>
<text text-anchor="middle" x="248.3322" y="-213.8" font-family="Times,serif" font-size="14.00" fill="#000000">pymedphys_utilities</text>
</g>
<!-- pymedphys_xlwings.xlwings -->
<g id="node1" class="node">
<title>pymedphys_xlwings.xlwings</title>
<ellipse fill="none" stroke="#000000" cx="78.643" cy="-180" rx="68.7879" ry="18"/>
<text text-anchor="middle" x="78.643" y="-176.3" font-family="Times,serif" font-size="14.00" fill="#000000">xlwings.xlwings</text>
</g>
<!-- pymedphys_utilities.utilities -->
<g id="node6" class="node">
<title>pymedphys_utilities.utilities</title>
<ellipse fill="none" stroke="#000000" cx="247.8322" cy="-180" rx="37.0935" ry="18"/>
<text text-anchor="middle" x="247.8322" y="-176.3" font-family="Times,serif" font-size="14.00" fill="#000000">utilities</text>
</g>
<!-- pymedphys_xlwings.xlwings&#45;&gt;pymedphys_utilities.utilities -->
<g id="edge1" class="edge">
<title>pymedphys_xlwings.xlwings&#45;&gt;pymedphys_utilities.utilities</title>
<path fill="none" stroke="#000000" d="M147.9469,-180C165.4641,-180 183.8861,-180 200.0723,-180"/>
<polygon fill="#000000" stroke="#000000" points="200.3542,-183.5001 210.3542,-180 200.3541,-176.5001 200.3542,-183.5001"/>
</g>
<!-- pymedphys_analysis.mudensity -->
<g id="node2" class="node">
<title>pymedphys_analysis.mudensity</title>
<ellipse fill="none" stroke="#000000" cx="78.643" cy="-72" rx="78.7863" ry="18"/>
<text text-anchor="middle" x="78.643" y="-68.3" font-family="Times,serif" font-size="14.00" fill="#000000">analysis.mudensity</text>
</g>
<!-- pymedphys_utilities.constants -->
<g id="node5" class="node">
<title>pymedphys_utilities.constants</title>
<ellipse fill="none" stroke="#000000" cx="247.8322" cy="-72" rx="43.5923" ry="18"/>
<text text-anchor="middle" x="247.8322" y="-68.3" font-family="Times,serif" font-size="14.00" fill="#000000">constants</text>
</g>
<!-- pymedphys_analysis.mudensity&#45;&gt;pymedphys_utilities.constants -->
<g id="edge2" class="edge">
<title>pymedphys_analysis.mudensity&#45;&gt;pymedphys_utilities.constants</title>
<path fill="none" stroke="#000000" d="M157.2939,-72C169.7081,-72 182.2939,-72 193.9748,-72"/>
<polygon fill="#000000" stroke="#000000" points="193.9798,-75.5001 203.9798,-72 193.9798,-68.5001 193.9798,-75.5001"/>
</g>
<!-- pymedphys_labs.paulking -->
<g id="node3" class="node">
<title>pymedphys_labs.paulking</title>
<ellipse fill="none" stroke="#000000" cx="78.643" cy="-18" rx="57.6901" ry="18"/>
<text text-anchor="middle" x="78.643" y="-14.3" font-family="Times,serif" font-size="14.00" fill="#000000">labs.paulking</text>
</g>
<!-- pymedphys_labs.paulking&#45;&gt;pymedphys_utilities.constants -->
<g id="edge3" class="edge">
<title>pymedphys_labs.paulking&#45;&gt;pymedphys_utilities.constants</title>
<path fill="none" stroke="#000000" d="M119.168,-30.9343C144.6536,-39.0686 177.543,-49.5658 203.6892,-57.9109"/>
<polygon fill="#000000" stroke="#000000" points="202.7597,-61.2881 213.3504,-60.9945 204.8881,-54.6195 202.7597,-61.2881"/>
</g>
<!-- pymedphys_logfiles.elekta -->
<g id="node4" class="node">
<title>pymedphys_logfiles.elekta</title>
<ellipse fill="none" stroke="#000000" cx="78.643" cy="-126" rx="60.3893" ry="18"/>
<text text-anchor="middle" x="78.643" y="-122.3" font-family="Times,serif" font-size="14.00" fill="#000000">logfiles.elekta</text>
</g>
<!-- pymedphys_logfiles.elekta&#45;&gt;pymedphys_utilities.utilities -->
<g id="edge4" class="edge">
<title>pymedphys_logfiles.elekta&#45;&gt;pymedphys_utilities.utilities</title>
<path fill="none" stroke="#000000" d="M120.0313,-139.2099C146.489,-147.6544 180.6543,-158.5589 207.0025,-166.9684"/>
<polygon fill="#000000" stroke="#000000" points="206.0948,-170.3526 216.6856,-170.059 208.2233,-163.684 206.0948,-170.3526"/>
</g>
<!-- pymedphys_utilities.filehash -->
<g id="node7" class="node">
<title>pymedphys_utilities.filehash</title>
<ellipse fill="none" stroke="#000000" cx="247.8322" cy="-126" rx="38.1938" ry="18"/>
<text text-anchor="middle" x="247.8322" y="-122.3" font-family="Times,serif" font-size="14.00" fill="#000000">filehash</text>
</g>
<!-- pymedphys_logfiles.elekta&#45;&gt;pymedphys_utilities.filehash -->
<g id="edge5" class="edge">
<title>pymedphys_logfiles.elekta&#45;&gt;pymedphys_utilities.filehash</title>
<path fill="none" stroke="#000000" d="M139.2463,-126C158.9271,-126 180.4964,-126 199.1887,-126"/>
<polygon fill="#000000" stroke="#000000" points="199.2471,-129.5001 209.247,-126 199.247,-122.5001 199.2471,-129.5001"/>
</g>
</g>
</svg>
