<?xml version="1.0" encoding="UTF-8" standalone="no"?>
<!DOCTYPE svg PUBLIC "-//W3C//DTD SVG 1.1//EN"
 "http://www.w3.org/Graphics/SVG/1.1/DTD/svg11.dtd">
<!-- Generated by graphviz version 2.40.1 (20161225.0304)
 -->
<!-- Title: %3 Pages: 1 -->
<svg width="349pt" height="192pt"
 viewBox="0.00 0.00 348.68 192.00" xmlns="http://www.w3.org/2000/svg" xmlns:xlink="http://www.w3.org/1999/xlink">
<g id="graph0" class="graph" transform="scale(1 1) rotate(0) translate(4 188)">
<title>%3</title>
<polygon fill="#ffffff" stroke="transparent" points="-4,4 -4,-188 344.6817,-188 344.6817,4 -4,4"/>
<g id="clust1" class="cluster">
<title>cluster_0</title>
<polygon fill="none" stroke="#000000" stroke-dasharray="5,2" points="8,-8 8,-176 340.6817,-176 340.6817,-8 8,-8"/>
<text text-anchor="middle" x="174.3408" y="-160.8" font-family="Times,serif" font-size="14.00" fill="#000000">pymedphys_monomanage</text>
</g>
<g id="clust2" class="cluster">
<title>cluster_1</title>
<polygon fill="none" stroke="#000000" stroke-dasharray="5,2" points="140.3922,-16 140.3922,-145 332.6817,-145 332.6817,-16 140.3922,-16"/>
<text text-anchor="middle" x="236.5369" y="-129.8" font-family="Times,serif" font-size="14.00" fill="#000000">pymedphys_monomanage.parse</text>
</g>
<!-- pymedphys_monomanage.parse -->
<g id="node1" class="node">
<title>pymedphys_monomanage.parse</title>
<ellipse fill="none" stroke="#000000" cx="236.5369" cy="-96" rx="29.4969" ry="18"/>
<text text-anchor="middle" x="236.5369" y="-92.3" font-family="Times,serif" font-size="14.00" fill="#000000">parse</text>
</g>
<!-- pymedphys_monomanage.parse.imports -->
<g id="node2" class="node">
<title>pymedphys_monomanage.parse.imports</title>
<ellipse fill="none" stroke="#000000" cx="236.5369" cy="-42" rx="59.2899" ry="18"/>
<text text-anchor="middle" x="236.5369" y="-38.3" font-family="Times,serif" font-size="14.00" fill="#000000">parse.imports</text>
</g>
<!-- pymedphys_monomanage.tree.build -->
<g id="node3" class="node">
<title>pymedphys_monomanage.tree.build</title>
<ellipse fill="none" stroke="#000000" cx="60.1961" cy="-42" rx="44.393" ry="18"/>
<text text-anchor="middle" x="60.1961" y="-38.3" font-family="Times,serif" font-size="14.00" fill="#000000">tree.build</text>
</g>
<!-- pymedphys_monomanage.tree.build&#45;&gt;pymedphys_monomanage.parse.imports -->
<g id="edge1" class="edge">
<title>pymedphys_monomanage.tree.build&#45;&gt;pymedphys_monomanage.parse.imports</title>
<path fill="none" stroke="#000000" d="M104.6943,-42C123.6337,-42 146.1698,-42 167.2052,-42"/>
<polygon fill="#000000" stroke="#000000" points="167.3888,-45.5001 177.3888,-42 167.3887,-38.5001 167.3888,-45.5001"/>
</g>
</g>
</svg>
