<?xml version="1.0" encoding="UTF-8" standalone="no"?>
<!DOCTYPE svg PUBLIC "-//W3C//DTD SVG 1.1//EN"
 "http://www.w3.org/Graphics/SVG/1.1/DTD/svg11.dtd">
<!-- Generated by graphviz version 2.40.1 (20161225.0304)
 -->
<!-- Title: %3 Pages: 1 -->
<svg width="700pt" height="291pt"
 viewBox="0.00 0.00 699.65 291.00" xmlns="http://www.w3.org/2000/svg" xmlns:xlink="http://www.w3.org/1999/xlink">
<g id="graph0" class="graph" transform="scale(1 1) rotate(0) translate(4 287)">
<title>%3</title>
<polygon fill="#ffffff" stroke="transparent" points="-4,4 -4,-287 695.6482,-287 695.6482,4 -4,4"/>
<g id="clust3" class="cluster">
<title>cluster_0</title>
<polygon fill="none" stroke="#000000" stroke-dasharray="5,2" points="199.5848,-92 199.5848,-275 436.1684,-275 436.1684,-92 199.5848,-92"/>
<text text-anchor="middle" x="317.8766" y="-259.8" font-family="Times,serif" font-size="14.00" fill="#000000">pymedphys_analysis</text>
</g>
<!-- logfiles.elekta -->
<g id="node1" class="node">
<title>logfiles.elekta</title>
<ellipse fill="none" stroke="#000000" cx="85.7924" cy="-145" rx="60.3893" ry="18"/>
<text text-anchor="middle" x="85.7924" y="-141.3" font-family="Times,serif" font-size="14.00" fill="#000000">logfiles.elekta</text>
</g>
<!-- mudensity -->
<g id="node9" class="node">
<title>mudensity</title>
<ellipse fill="none" stroke="#000000" cx="255.6805" cy="-118" rx="48.1917" ry="18"/>
<text text-anchor="middle" x="255.6805" y="-114.3" font-family="Times,serif" font-size="14.00" fill="#000000">mudensity</text>
</g>
<!-- logfiles.elekta&#45;&gt;mudensity -->
<g id="edge1" class="edge">
<title>logfiles.elekta&#45;&gt;mudensity</title>
<path fill="none" stroke="#000000" d="M139.5461,-136.457C159.2479,-133.3258 181.5494,-129.7815 201.3054,-126.6417"/>
<polygon fill="#000000" stroke="#000000" points="202.0505,-130.0673 211.3771,-125.0411 200.9517,-123.1541 202.0505,-130.0673"/>
</g>
<!-- toolbox.plancompare -->
<g id="node2" class="node">
<title>toolbox.plancompare</title>
<ellipse fill="none" stroke="#000000" cx="85.7924" cy="-91" rx="85.5853" ry="18"/>
<text text-anchor="middle" x="85.7924" y="-87.3" font-family="Times,serif" font-size="14.00" fill="#000000">toolbox.plancompare</text>
</g>
<!-- toolbox.plancompare&#45;&gt;mudensity -->
<g id="edge2" class="edge">
<title>toolbox.plancompare&#45;&gt;mudensity</title>
<path fill="none" stroke="#000000" d="M154.4027,-101.9041C169.9659,-104.3775 186.2894,-106.9718 201.1756,-109.3376"/>
<polygon fill="#000000" stroke="#000000" points="200.7993,-112.8217 211.2247,-110.9347 201.8981,-105.9084 200.7993,-112.8217"/>
</g>
<!-- coordsandscales.deliverydata -->
<g id="node3" class="node">
<title>coordsandscales.deliverydata</title>
<ellipse fill="none" stroke="#000000" cx="577.9083" cy="-72" rx="113.9803" ry="18"/>
<text text-anchor="middle" x="577.9083" y="-68.3" font-family="Times,serif" font-size="14.00" fill="#000000">coordsandscales.deliverydata</text>
</g>
<!-- dicom.dicom -->
<g id="node4" class="node">
<title>dicom.dicom</title>
<ellipse fill="none" stroke="#000000" cx="577.9083" cy="-199" rx="57.6901" ry="18"/>
<text text-anchor="middle" x="577.9083" y="-195.3" font-family="Times,serif" font-size="14.00" fill="#000000">dicom.dicom</text>
</g>
<!-- utilities.constants -->
<g id="node5" class="node">
<title>utilities.constants</title>
<ellipse fill="none" stroke="#000000" cx="577.9083" cy="-18" rx="72.2875" ry="18"/>
<text text-anchor="middle" x="577.9083" y="-14.3" font-family="Times,serif" font-size="14.00" fill="#000000">utilities.constants</text>
</g>
<!-- geometry -->
<g id="node6" class="node">
<title>geometry</title>
<ellipse fill="none" stroke="#000000" cx="383.9723" cy="-226" rx="44.393" ry="18"/>
<text text-anchor="middle" x="383.9723" y="-222.3" font-family="Times,serif" font-size="14.00" fill="#000000">geometry</text>
</g>
<!-- geometry&#45;&gt;dicom.dicom -->
<g id="edge3" class="edge">
<title>geometry&#45;&gt;dicom.dicom</title>
<path fill="none" stroke="#000000" d="M426.0535,-220.1414C451.9633,-216.5342 485.6686,-211.8417 514.7407,-207.7943"/>
<polygon fill="#000000" stroke="#000000" points="515.3885,-211.2379 524.8103,-206.3924 514.4232,-204.3048 515.3885,-211.2379"/>
</g>
<!-- gamma -->
<g id="node7" class="node">
<title>gamma</title>
<ellipse fill="none" stroke="#000000" cx="383.9723" cy="-172" rx="37.8943" ry="18"/>
<text text-anchor="middle" x="383.9723" y="-168.3" font-family="Times,serif" font-size="14.00" fill="#000000">gamma</text>
</g>
<!-- gamma&#45;&gt;dicom.dicom -->
<g id="edge4" class="edge">
<title>gamma&#45;&gt;dicom.dicom</title>
<path fill="none" stroke="#000000" d="M420.4502,-177.0785C446.9845,-180.7726 483.5802,-185.8675 514.8135,-190.2159"/>
<polygon fill="#000000" stroke="#000000" points="514.359,-193.6863 524.7461,-191.5987 515.3243,-186.7531 514.359,-193.6863"/>
</g>
<!-- plt -->
<g id="node8" class="node">
<title>plt</title>
<ellipse fill="none" stroke="#000000" cx="383.9723" cy="-118" rx="27" ry="18"/>
<text text-anchor="middle" x="383.9723" y="-114.3" font-family="Times,serif" font-size="14.00" fill="#000000">plt</text>
</g>
<!-- mudensity&#45;&gt;coordsandscales.deliverydata -->
<g id="edge5" class="edge">
<title>mudensity&#45;&gt;coordsandscales.deliverydata</title>
<path fill="none" stroke="#000000" d="M289.5787,-105.143C304.7257,-99.9144 322.9281,-94.3302 339.7762,-91 377.312,-83.5808 418.7201,-79.0414 456.3347,-76.2698"/>
<polygon fill="#000000" stroke="#000000" points="456.5921,-79.7604 466.3223,-75.5683 456.1016,-72.7776 456.5921,-79.7604"/>
</g>
<!-- mudensity&#45;&gt;utilities.constants -->
<g id="edge6" class="edge">
<title>mudensity&#45;&gt;utilities.constants</title>
<path fill="none" stroke="#000000" d="M281.0428,-102.5853C297.3427,-93.2258 319.239,-81.6485 339.7762,-74 394.5825,-53.5891 459.33,-38.9332 507.4656,-29.7468"/>
<polygon fill="#000000" stroke="#000000" points="508.2922,-33.1529 517.4756,-27.8694 507.0017,-26.2729 508.2922,-33.1529"/>
</g>
<!-- mudensity&#45;&gt;plt -->
<g id="edge7" class="edge">
<title>mudensity&#45;&gt;plt</title>
<path fill="none" stroke="#000000" d="M303.8166,-118C317.9545,-118 333.2008,-118 346.5621,-118"/>
<polygon fill="#000000" stroke="#000000" points="346.8164,-121.5001 356.8164,-118 346.8164,-114.5001 346.8164,-121.5001"/>
</g>
</g>
</svg>
