<?xml version="1.0" encoding="UTF-8" standalone="no"?>
<!DOCTYPE svg PUBLIC "-//W3C//DTD SVG 1.1//EN"
 "http://www.w3.org/Graphics/SVG/1.1/DTD/svg11.dtd">
<!-- Generated by graphviz version 2.40.1 (20161225.0304)
 -->
<!-- Title: %3 Pages: 1 -->
<svg width="843pt" height="314pt"
 viewBox="0.00 0.00 843.24 314.00" xmlns="http://www.w3.org/2000/svg" xmlns:xlink="http://www.w3.org/1999/xlink">
<g id="graph0" class="graph" transform="scale(1 1) rotate(0) translate(4 310)">
<title>%3</title>
<polygon fill="#ffffff" stroke="transparent" points="-4,4 -4,-310 839.2376,-310 839.2376,4 -4,4"/>
<g id="clust1" class="cluster">
<title>cluster_0</title>
<polygon fill="none" stroke="#000000" stroke-dasharray="5,2" points="8,-76 8,-298 587.7578,-298 587.7578,-76 8,-76"/>
<text text-anchor="middle" x="297.8789" y="-282.8" font-family="Times,serif" font-size="14.00" fill="#000000">pymedphys_logfiles</text>
</g>
<g id="clust2" class="cluster">
<title>cluster_1</title>
<polygon fill="none" stroke="#000000" stroke-dasharray="5,2" points="16,-84 16,-267 579.7578,-267 579.7578,-84 16,-84"/>
<text text-anchor="middle" x="297.8789" y="-251.8" font-family="Times,serif" font-size="14.00" fill="#000000">pymedphys_logfiles.elekta</text>
</g>
<!-- pymedphys_logfiles.elekta.analyse -->
<g id="node1" class="node">
<title>pymedphys_logfiles.elekta.analyse</title>
<ellipse fill="none" stroke="#000000" cx="479.466" cy="-218" rx="60.3893" ry="18"/>
<text text-anchor="middle" x="479.466" y="-214.3" font-family="Times,serif" font-size="14.00" fill="#000000">elekta.analyse</text>
</g>
<!-- pymedphys_analysis.mudensity -->
<g id="node8" class="node">
<title>pymedphys_analysis.mudensity</title>
<ellipse fill="none" stroke="#000000" cx="721.4977" cy="-276" rx="78.7863" ry="18"/>
<text text-anchor="middle" x="721.4977" y="-272.3" font-family="Times,serif" font-size="14.00" fill="#000000">analysis.mudensity</text>
</g>
<!-- pymedphys_logfiles.elekta.analyse&#45;&gt;pymedphys_analysis.mudensity -->
<g id="edge1" class="edge">
<title>pymedphys_logfiles.elekta.analyse&#45;&gt;pymedphys_analysis.mudensity</title>
<path fill="none" stroke="#000000" d="M526.3739,-229.3825C550.6591,-235.2634 580.7946,-242.5421 607.7578,-249 623.6122,-252.7973 640.7157,-256.8699 656.7233,-260.6712"/>
<polygon fill="#000000" stroke="#000000" points="655.9898,-264.0943 666.5278,-262.9981 657.6063,-257.2835 655.9898,-264.0943"/>
</g>
<!-- pymedphys_coordsandscales.deliverydata -->
<g id="node9" class="node">
<title>pymedphys_coordsandscales.deliverydata</title>
<ellipse fill="none" stroke="#000000" cx="721.4977" cy="-222" rx="113.9803" ry="18"/>
<text text-anchor="middle" x="721.4977" y="-218.3" font-family="Times,serif" font-size="14.00" fill="#000000">coordsandscales.deliverydata</text>
</g>
<!-- pymedphys_logfiles.elekta.analyse&#45;&gt;pymedphys_coordsandscales.deliverydata -->
<g id="edge2" class="edge">
<title>pymedphys_logfiles.elekta.analyse&#45;&gt;pymedphys_coordsandscales.deliverydata</title>
<path fill="none" stroke="#000000" d="M539.9165,-218.9991C557.6438,-219.292 577.7073,-219.6236 597.8676,-219.9568"/>
<polygon fill="#000000" stroke="#000000" points="598.0268,-223.4598 608.0833,-220.1256 598.1426,-216.4608 598.0268,-223.4598"/>
</g>
<!-- pymedphys_databases.msq -->
<g id="node10" class="node">
<title>pymedphys_databases.msq</title>
<ellipse fill="none" stroke="#000000" cx="721.4977" cy="-168" rx="61.99" ry="18"/>
<text text-anchor="middle" x="721.4977" y="-164.3" font-family="Times,serif" font-size="14.00" fill="#000000">databases.msq</text>
</g>
<!-- pymedphys_logfiles.elekta.analyse&#45;&gt;pymedphys_databases.msq -->
<g id="edge3" class="edge">
<title>pymedphys_logfiles.elekta.analyse&#45;&gt;pymedphys_databases.msq</title>
<path fill="none" stroke="#000000" d="M529.3216,-207.7006C567.4653,-199.8207 620.2377,-188.9187 660.8325,-180.5325"/>
<polygon fill="#000000" stroke="#000000" points="661.7894,-183.9088 670.8745,-178.458 660.3732,-177.0535 661.7894,-183.9088"/>
</g>
<!-- pymedphys_fileformats.trf -->
<g id="node11" class="node">
<title>pymedphys_fileformats.trf</title>
<ellipse fill="none" stroke="#000000" cx="721.4977" cy="-114" rx="60.3893" ry="18"/>
<text text-anchor="middle" x="721.4977" y="-110.3" font-family="Times,serif" font-size="14.00" fill="#000000">fileformats.trf</text>
</g>
<!-- pymedphys_logfiles.elekta.analyse&#45;&gt;pymedphys_fileformats.trf -->
<g id="edge4" class="edge">
<title>pymedphys_logfiles.elekta.analyse&#45;&gt;pymedphys_fileformats.trf</title>
<path fill="none" stroke="#000000" d="M538.1893,-213.6314C555.7861,-209.7937 574.0325,-202.973 587.7578,-191 605.7938,-175.2666 589.6333,-156.6315 607.7578,-141 620.167,-130.2976 636.0629,-123.6605 652.0118,-119.5888"/>
<polygon fill="#000000" stroke="#000000" points="652.9242,-122.9712 661.9183,-117.3717 651.3953,-116.1402 652.9242,-122.9712"/>
</g>
<!-- pymedphys_utilities.utilities -->
<g id="node12" class="node">
<title>pymedphys_utilities.utilities</title>
<ellipse fill="none" stroke="#000000" cx="721.4977" cy="-60" rx="65.7887" ry="18"/>
<text text-anchor="middle" x="721.4977" y="-56.3" font-family="Times,serif" font-size="14.00" fill="#000000">utilities.utilities</text>
</g>
<!-- pymedphys_logfiles.elekta.analyse&#45;&gt;pymedphys_utilities.utilities -->
<g id="edge5" class="edge">
<title>pymedphys_logfiles.elekta.analyse&#45;&gt;pymedphys_utilities.utilities</title>
<path fill="none" stroke="#000000" d="M539.3502,-215.1942C557.1153,-211.4531 575.1669,-204.2946 587.7578,-191 620.124,-156.8249 575.1995,-120.9921 607.7578,-87 618.0805,-76.2228 631.8569,-69.4091 646.2514,-65.1712"/>
<polygon fill="#000000" stroke="#000000" points="647.4458,-68.4793 656.2807,-62.6318 645.7275,-61.6935 647.4458,-68.4793"/>
</g>
<!-- pymedphys_logfiles.elekta.diagnostics_zips -->
<g id="node2" class="node">
<title>pymedphys_logfiles.elekta.diagnostics_zips</title>
<ellipse fill="none" stroke="#000000" cx="479.466" cy="-164" rx="92.0841" ry="18"/>
<text text-anchor="middle" x="479.466" y="-160.3" font-family="Times,serif" font-size="14.00" fill="#000000">elekta.diagnostics_zips</text>
</g>
<!-- pymedphys_logfiles.elekta.identify -->
<g id="node3" class="node">
<title>pymedphys_logfiles.elekta.identify</title>
<ellipse fill="none" stroke="#000000" cx="479.466" cy="-110" rx="61.99" ry="18"/>
<text text-anchor="middle" x="479.466" y="-106.3" font-family="Times,serif" font-size="14.00" fill="#000000">elekta.identify</text>
</g>
<!-- pymedphys_logfiles.elekta.identify&#45;&gt;pymedphys_databases.msq -->
<g id="edge6" class="edge">
<title>pymedphys_logfiles.elekta.identify&#45;&gt;pymedphys_databases.msq</title>
<path fill="none" stroke="#000000" d="M526.9772,-121.5286C551.157,-127.3836 581.0174,-134.5954 607.7578,-141 625.9097,-145.3475 645.6989,-150.0561 663.6063,-154.3051"/>
<polygon fill="#000000" stroke="#000000" points="662.8011,-157.7111 673.3389,-156.6131 664.4164,-150.9 662.8011,-157.7111"/>
</g>
<!-- pymedphys_logfiles.elekta.identify&#45;&gt;pymedphys_fileformats.trf -->
<g id="edge7" class="edge">
<title>pymedphys_logfiles.elekta.identify&#45;&gt;pymedphys_fileformats.trf</title>
<path fill="none" stroke="#000000" d="M541.167,-111.0197C574.5646,-111.5717 615.9696,-112.256 650.6787,-112.8296"/>
<polygon fill="#000000" stroke="#000000" points="650.691,-116.3302 660.7475,-112.996 650.8067,-109.3311 650.691,-116.3302"/>
</g>
<!-- pymedphys_logfiles.elekta.bygantry -->
<g id="node4" class="node">
<title>pymedphys_logfiles.elekta.bygantry</title>
<ellipse fill="none" stroke="#000000" cx="285.53" cy="-218" rx="65.7887" ry="18"/>
<text text-anchor="middle" x="285.53" y="-214.3" font-family="Times,serif" font-size="14.00" fill="#000000">elekta.bygantry</text>
</g>
<!-- pymedphys_logfiles.elekta.bygantry&#45;&gt;pymedphys_logfiles.elekta.analyse -->
<g id="edge8" class="edge">
<title>pymedphys_logfiles.elekta.bygantry&#45;&gt;pymedphys_logfiles.elekta.analyse</title>
<path fill="none" stroke="#000000" d="M351.1879,-218C369.6386,-218 389.7836,-218 408.5273,-218"/>
<polygon fill="#000000" stroke="#000000" points="408.7767,-221.5001 418.7767,-218 408.7766,-214.5001 408.7767,-221.5001"/>
</g>
<!-- pymedphys_logfiles.elekta.index -->
<g id="node5" class="node">
<title>pymedphys_logfiles.elekta.index</title>
<ellipse fill="none" stroke="#000000" cx="285.53" cy="-110" rx="53.8905" ry="18"/>
<text text-anchor="middle" x="285.53" y="-106.3" font-family="Times,serif" font-size="14.00" fill="#000000">elekta.index</text>
</g>
<!-- pymedphys_logfiles.elekta.index&#45;&gt;pymedphys_logfiles.elekta.identify -->
<g id="edge9" class="edge">
<title>pymedphys_logfiles.elekta.index&#45;&gt;pymedphys_logfiles.elekta.identify</title>
<path fill="none" stroke="#000000" d="M339.552,-110C360.5456,-110 384.9049,-110 407.3573,-110"/>
<polygon fill="#000000" stroke="#000000" points="407.5202,-113.5001 417.5202,-110 407.5201,-106.5001 407.5202,-113.5001"/>
</g>
<!-- pymedphys_logfiles.elekta.index&#45;&gt;pymedphys_utilities.utilities -->
<g id="edge11" class="edge">
<title>pymedphys_logfiles.elekta.index&#45;&gt;pymedphys_utilities.utilities</title>
<path fill="none" stroke="#000000" d="M325.2156,-97.5734C343.8438,-92.2285 366.4592,-86.4315 387.1742,-83 475.0716,-68.4395 577.4435,-63.0688 645.5194,-61.1036"/>
<polygon fill="#000000" stroke="#000000" points="645.8241,-64.5967 655.7256,-60.8271 645.6345,-57.5993 645.8241,-64.5967"/>
</g>
<!-- pymedphys_utilities.filehash -->
<g id="node13" class="node">
<title>pymedphys_utilities.filehash</title>
<ellipse fill="none" stroke="#000000" cx="479.466" cy="-18" rx="67.6881" ry="18"/>
<text text-anchor="middle" x="479.466" y="-14.3" font-family="Times,serif" font-size="14.00" fill="#000000">utilities.filehash</text>
</g>
<!-- pymedphys_logfiles.elekta.index&#45;&gt;pymedphys_utilities.filehash -->
<g id="edge10" class="edge">
<title>pymedphys_logfiles.elekta.index&#45;&gt;pymedphys_utilities.filehash</title>
<path fill="none" stroke="#000000" d="M309.8424,-93.776C329.9798,-80.8024 359.6518,-62.7392 387.1742,-50 399.1928,-44.437 412.4672,-39.2901 425.1129,-34.8232"/>
<polygon fill="#000000" stroke="#000000" points="426.315,-38.1111 434.6293,-31.5443 424.0346,-31.4929 426.315,-38.1111"/>
</g>
<!-- pymedphys_logfiles.elekta -->
<g id="node6" class="node">
<title>pymedphys_logfiles.elekta</title>
<ellipse fill="none" stroke="#000000" cx="103.9429" cy="-166" rx="31.6951" ry="18"/>
<text text-anchor="middle" x="103.9429" y="-162.3" font-family="Times,serif" font-size="14.00" fill="#000000">elekta</text>
</g>
<!-- pymedphys_logfiles.elekta&#45;&gt;pymedphys_logfiles.elekta.diagnostics_zips -->
<g id="edge12" class="edge">
<title>pymedphys_logfiles.elekta&#45;&gt;pymedphys_logfiles.elekta.diagnostics_zips</title>
<path fill="none" stroke="#000000" d="M135.9598,-165.8295C188.6884,-165.5487 295.9935,-164.9772 376.7203,-164.5472"/>
<polygon fill="#000000" stroke="#000000" points="376.945,-168.0462 386.9261,-164.4929 376.9076,-161.0463 376.945,-168.0462"/>
</g>
<!-- pymedphys_logfiles.elekta&#45;&gt;pymedphys_logfiles.elekta.index -->
<g id="edge13" class="edge">
<title>pymedphys_logfiles.elekta&#45;&gt;pymedphys_logfiles.elekta.index</title>
<path fill="none" stroke="#000000" d="M131.9179,-157.3727C159.6255,-148.8279 202.6421,-135.562 236.1143,-125.2394"/>
<polygon fill="#000000" stroke="#000000" points="237.1993,-128.5675 245.7238,-122.2759 235.1364,-121.8784 237.1993,-128.5675"/>
</g>
<!-- pymedphys_logfiles.elekta.orchestration -->
<g id="node7" class="node">
<title>pymedphys_logfiles.elekta.orchestration</title>
<ellipse fill="none" stroke="#000000" cx="103.9429" cy="-111" rx="79.8859" ry="18"/>
<text text-anchor="middle" x="103.9429" y="-107.3" font-family="Times,serif" font-size="14.00" fill="#000000">elekta.orchestration</text>
</g>
<!-- pymedphys_logfiles.elekta.orchestration&#45;&gt;pymedphys_logfiles.elekta.diagnostics_zips -->
<g id="edge14" class="edge">
<title>pymedphys_logfiles.elekta.orchestration&#45;&gt;pymedphys_logfiles.elekta.diagnostics_zips</title>
<path fill="none" stroke="#000000" d="M157.6621,-124.4209C177.1611,-128.9276 199.4256,-133.6536 219.8858,-137 273.6412,-145.792 334.1533,-152.2807 383.2218,-156.6905"/>
<polygon fill="#000000" stroke="#000000" points="382.925,-160.1778 393.1944,-157.5724 383.5417,-153.2051 382.925,-160.1778"/>
</g>
<!-- pymedphys_logfiles.elekta.orchestration&#45;&gt;pymedphys_logfiles.elekta.index -->
<g id="edge15" class="edge">
<title>pymedphys_logfiles.elekta.orchestration&#45;&gt;pymedphys_logfiles.elekta.index</title>
<path fill="none" stroke="#000000" d="M184.1182,-110.5585C196.537,-110.4901 209.2244,-110.4202 221.2339,-110.3541"/>
<polygon fill="#000000" stroke="#000000" points="221.6089,-113.8522 231.5894,-110.2971 221.5702,-106.8523 221.6089,-113.8522"/>
</g>
</g>
</svg>
