<?xml version="1.0" encoding="UTF-8" standalone="no"?>
<!DOCTYPE svg PUBLIC "-//W3C//DTD SVG 1.1//EN"
 "http://www.w3.org/Graphics/SVG/1.1/DTD/svg11.dtd">
<!-- Generated by graphviz version 2.40.1 (20161225.0304)
 -->
<!-- Title: %3 Pages: 1 -->
<svg width="435pt" height="138pt"
 viewBox="0.00 0.00 435.47 138.00" xmlns="http://www.w3.org/2000/svg" xmlns:xlink="http://www.w3.org/1999/xlink">
<g id="graph0" class="graph" transform="scale(1 1) rotate(0) translate(4 134)">
<title>%3</title>
<polygon fill="#ffffff" stroke="transparent" points="-4,4 -4,-134 431.4706,-134 431.4706,4 -4,4"/>
<g id="clust1" class="cluster">
<title>cluster_0</title>
<polygon fill="none" stroke="#000000" stroke-dasharray="5,2" points="8,-8 8,-122 291.7809,-122 291.7809,-8 8,-8"/>
<text text-anchor="middle" x="149.8904" y="-106.8" font-family="Times,serif" font-size="14.00" fill="#000000">pymedphys_analysis</text>
</g>
<g id="clust2" class="cluster">
<title>cluster_1</title>
<polygon fill="none" stroke="#000000" stroke-dasharray="5,2" points="16,-16 16,-91 283.7809,-91 283.7809,-16 16,-16"/>
<text text-anchor="middle" x="149.8904" y="-75.8" font-family="Times,serif" font-size="14.00" fill="#000000">pymedphys_analysis.geometry</text>
</g>
<!-- pymedphys_analysis.geometry.cube -->
<g id="node1" class="node">
<title>pymedphys_analysis.geometry.cube</title>
<ellipse fill="none" stroke="#000000" cx="212.0865" cy="-42" rx="63.8893" ry="18"/>
<text text-anchor="middle" x="212.0865" y="-38.3" font-family="Times,serif" font-size="14.00" fill="#000000">geometry.cube</text>
</g>
<!-- pymedphys_dicom.dicom -->
<g id="node3" class="node">
<title>pymedphys_dicom.dicom</title>
<ellipse fill="none" stroke="#000000" cx="369.6257" cy="-42" rx="57.6901" ry="18"/>
<text text-anchor="middle" x="369.6257" y="-38.3" font-family="Times,serif" font-size="14.00" fill="#000000">dicom.dicom</text>
</g>
<!-- pymedphys_analysis.geometry.cube&#45;&gt;pymedphys_dicom.dicom -->
<g id="edge1" class="edge">
<title>pymedphys_analysis.geometry.cube&#45;&gt;pymedphys_dicom.dicom</title>
<path fill="none" stroke="#000000" d="M276.1637,-42C284.5213,-42 293.1077,-42 301.5284,-42"/>
<polygon fill="#000000" stroke="#000000" points="301.691,-45.5001 311.691,-42 301.6909,-38.5001 301.691,-45.5001"/>
</g>
<!-- pymedphys_analysis.geometry -->
<g id="node2" class="node">
<title>pymedphys_analysis.geometry</title>
<ellipse fill="none" stroke="#000000" cx="68.1961" cy="-42" rx="44.393" ry="18"/>
<text text-anchor="middle" x="68.1961" y="-38.3" font-family="Times,serif" font-size="14.00" fill="#000000">geometry</text>
</g>
<!-- pymedphys_analysis.geometry&#45;&gt;pymedphys_analysis.geometry.cube -->
<g id="edge2" class="edge">
<title>pymedphys_analysis.geometry&#45;&gt;pymedphys_analysis.geometry.cube</title>
<path fill="none" stroke="#000000" d="M112.5421,-42C120.6731,-42 129.3585,-42 138.0843,-42"/>
<polygon fill="#000000" stroke="#000000" points="138.3154,-45.5001 148.3154,-42 138.3154,-38.5001 138.3154,-45.5001"/>
</g>
</g>
</svg>
