<?xml version="1.0" encoding="UTF-8" standalone="no"?>
<!DOCTYPE svg PUBLIC "-//W3C//DTD SVG 1.1//EN"
 "http://www.w3.org/Graphics/SVG/1.1/DTD/svg11.dtd">
<!-- Generated by graphviz version 2.40.1 (20161225.0304)
 -->
<!-- Title: %3 Pages: 1 -->
<svg width="390pt" height="314pt"
 viewBox="0.00 0.00 390.17 314.00" xmlns="http://www.w3.org/2000/svg" xmlns:xlink="http://www.w3.org/1999/xlink">
<g id="graph0" class="graph" transform="scale(1 1) rotate(0) translate(4 310)">
<title>%3</title>
<polygon fill="#ffffff" stroke="transparent" points="-4,4 -4,-310 386.1742,-310 386.1742,4 -4,4"/>
<g id="clust2" class="cluster">
<title>cluster_0</title>
<polygon fill="none" stroke="#000000" stroke-dasharray="5,2" points="0,-127 0,-202 126.6943,-202 126.6943,-127 0,-127"/>
<text text-anchor="middle" x="63.3472" y="-186.8" font-family="Times,serif" font-size="14.00" fill="#000000">pymedphys_logfiles</text>
</g>
<!-- pymedphys_utilities.filehash -->
<g id="node1" class="node">
<title>pymedphys_utilities.filehash</title>
<ellipse fill="none" stroke="#000000" cx="268.4343" cy="-288" rx="67.6881" ry="18"/>
<text text-anchor="middle" x="268.4343" y="-284.3" font-family="Times,serif" font-size="14.00" fill="#000000">utilities.filehash</text>
</g>
<!-- pymedphys_fileformats.trf -->
<g id="node2" class="node">
<title>pymedphys_fileformats.trf</title>
<ellipse fill="none" stroke="#000000" cx="268.4343" cy="-234" rx="60.3893" ry="18"/>
<text text-anchor="middle" x="268.4343" y="-230.3" font-family="Times,serif" font-size="14.00" fill="#000000">fileformats.trf</text>
</g>
<!-- pymedphys_coordsandscales.deliverydata -->
<g id="node3" class="node">
<title>pymedphys_coordsandscales.deliverydata</title>
<ellipse fill="none" stroke="#000000" cx="268.4343" cy="-180" rx="113.9803" ry="18"/>
<text text-anchor="middle" x="268.4343" y="-176.3" font-family="Times,serif" font-size="14.00" fill="#000000">coordsandscales.deliverydata</text>
</g>
<!-- pymedphys_databases.msq -->
<g id="node4" class="node">
<title>pymedphys_databases.msq</title>
<ellipse fill="none" stroke="#000000" cx="268.4343" cy="-126" rx="61.99" ry="18"/>
<text text-anchor="middle" x="268.4343" y="-122.3" font-family="Times,serif" font-size="14.00" fill="#000000">databases.msq</text>
</g>
<!-- pymedphys_utilities.utilities -->
<g id="node5" class="node">
<title>pymedphys_utilities.utilities</title>
<ellipse fill="none" stroke="#000000" cx="268.4343" cy="-72" rx="65.7887" ry="18"/>
<text text-anchor="middle" x="268.4343" y="-68.3" font-family="Times,serif" font-size="14.00" fill="#000000">utilities.utilities</text>
</g>
<!-- pymedphys_analysis.mudensity -->
<g id="node6" class="node">
<title>pymedphys_analysis.mudensity</title>
<ellipse fill="none" stroke="#000000" cx="268.4343" cy="-18" rx="78.7863" ry="18"/>
<text text-anchor="middle" x="268.4343" y="-14.3" font-family="Times,serif" font-size="14.00" fill="#000000">analysis.mudensity</text>
</g>
<!-- pymedphys_logfiles.elekta -->
<g id="node7" class="node">
<title>pymedphys_logfiles.elekta</title>
<ellipse fill="none" stroke="#000000" cx="62.8472" cy="-153" rx="31.6951" ry="18"/>
<text text-anchor="middle" x="62.8472" y="-149.3" font-family="Times,serif" font-size="14.00" fill="#000000">elekta</text>
</g>
<!-- pymedphys_logfiles.elekta&#45;&gt;pymedphys_utilities.filehash -->
<g id="edge1" class="edge">
<title>pymedphys_logfiles.elekta&#45;&gt;pymedphys_utilities.filehash</title>
<path fill="none" stroke="#000000" d="M72.5796,-170.1887C87.1884,-194.3548 117.1234,-237.9879 154.6943,-261 167.35,-268.7516 182.056,-274.2778 196.6083,-278.2174"/>
<polygon fill="#000000" stroke="#000000" points="196.0833,-281.6931 206.6314,-280.6993 197.7658,-274.8983 196.0833,-281.6931"/>
</g>
<!-- pymedphys_logfiles.elekta&#45;&gt;pymedphys_fileformats.trf -->
<g id="edge2" class="edge">
<title>pymedphys_logfiles.elekta&#45;&gt;pymedphys_fileformats.trf</title>
<path fill="none" stroke="#000000" d="M82.7356,-167.0633C100.7576,-179.2161 128.4362,-196.4425 154.6943,-207 170.9075,-213.5187 189.0809,-218.7068 206.0619,-222.7218"/>
<polygon fill="#000000" stroke="#000000" points="205.3721,-226.1542 215.8985,-224.9515 206.9196,-219.3274 205.3721,-226.1542"/>
</g>
<!-- pymedphys_logfiles.elekta&#45;&gt;pymedphys_coordsandscales.deliverydata -->
<g id="edge3" class="edge">
<title>pymedphys_logfiles.elekta&#45;&gt;pymedphys_coordsandscales.deliverydata</title>
<path fill="none" stroke="#000000" d="M94.0714,-157.1007C114.6803,-159.8073 142.9084,-163.5145 170.6491,-167.1578"/>
<polygon fill="#000000" stroke="#000000" points="170.4616,-170.6631 180.8322,-168.4951 171.3732,-163.7227 170.4616,-170.6631"/>
</g>
<!-- pymedphys_logfiles.elekta&#45;&gt;pymedphys_databases.msq -->
<g id="edge4" class="edge">
<title>pymedphys_logfiles.elekta&#45;&gt;pymedphys_databases.msq</title>
<path fill="none" stroke="#000000" d="M94.0714,-148.8993C122.6152,-145.1506 165.7753,-139.4823 202.0123,-134.7233"/>
<polygon fill="#000000" stroke="#000000" points="202.5724,-138.1799 212.0315,-133.4074 201.6609,-131.2395 202.5724,-138.1799"/>
</g>
<!-- pymedphys_logfiles.elekta&#45;&gt;pymedphys_utilities.utilities -->
<g id="edge5" class="edge">
<title>pymedphys_logfiles.elekta&#45;&gt;pymedphys_utilities.utilities</title>
<path fill="none" stroke="#000000" d="M82.7356,-138.9367C100.7576,-126.7839 128.4362,-109.5575 154.6943,-99 169.9763,-92.8557 186.9997,-87.8936 203.1248,-83.9816"/>
<polygon fill="#000000" stroke="#000000" points="204.0772,-87.3536 213.0251,-81.6804 202.4924,-80.5354 204.0772,-87.3536"/>
</g>
<!-- pymedphys_logfiles.elekta&#45;&gt;pymedphys_analysis.mudensity -->
<g id="edge6" class="edge">
<title>pymedphys_logfiles.elekta&#45;&gt;pymedphys_analysis.mudensity</title>
<path fill="none" stroke="#000000" d="M72.5796,-135.8113C87.1884,-111.6452 117.1234,-68.0121 154.6943,-45 165.4145,-38.4339 177.6057,-33.4646 189.9286,-29.7038"/>
<polygon fill="#000000" stroke="#000000" points="191.1261,-33.0032 199.814,-26.9393 189.2408,-26.2619 191.1261,-33.0032"/>
</g>
</g>
</svg>
