<?xml version="1.0" encoding="UTF-8" standalone="no"?>
<!DOCTYPE svg PUBLIC "-//W3C//DTD SVG 1.1//EN"
 "http://www.w3.org/Graphics/SVG/1.1/DTD/svg11.dtd">
<!-- Generated by graphviz version 2.40.1 (20161225.0304)
 -->
<!-- Title: %3 Pages: 1 -->
<svg width="314pt" height="153pt"
 viewBox="0.00 0.00 314.19 153.00" xmlns="http://www.w3.org/2000/svg" xmlns:xlink="http://www.w3.org/1999/xlink">
<g id="graph0" class="graph" transform="scale(1 1) rotate(0) translate(4 149)">
<title>%3</title>
<polygon fill="#ffffff" stroke="transparent" points="-4,4 -4,-149 310.1869,-149 310.1869,4 -4,4"/>
<g id="clust1" class="cluster">
<title>cluster_0</title>
<polygon fill="none" stroke="#000000" stroke-dasharray="5,2" points="8,-8 8,-137 298.1869,-137 298.1869,-8 8,-8"/>
<text text-anchor="middle" x="153.0934" y="-121.8" font-family="Times,serif" font-size="14.00" fill="#000000">pymedphys_monomanage</text>
</g>
<!-- pymedphys_monomanage.parse -->
<g id="node1" class="node">
<title>pymedphys_monomanage.parse</title>
<ellipse fill="none" stroke="#000000" cx="244.6909" cy="-34" rx="29.4969" ry="18"/>
<text text-anchor="middle" x="244.6909" y="-30.3" font-family="Times,serif" font-size="14.00" fill="#000000">parse</text>
</g>
<!-- pymedphys_monomanage.propegate -->
<g id="node2" class="node">
<title>pymedphys_monomanage.propegate</title>
<ellipse fill="none" stroke="#000000" cx="244.6909" cy="-88" rx="45.4919" ry="18"/>
<text text-anchor="middle" x="244.6909" y="-84.3" font-family="Times,serif" font-size="14.00" fill="#000000">propegate</text>
</g>
<!-- pymedphys_monomanage.tree -->
<g id="node3" class="node">
<title>pymedphys_monomanage.tree</title>
<ellipse fill="none" stroke="#000000" cx="136.1949" cy="-34" rx="27" ry="18"/>
<text text-anchor="middle" x="136.1949" y="-30.3" font-family="Times,serif" font-size="14.00" fill="#000000">tree</text>
</g>
<!-- pymedphys_monomanage.tree&#45;&gt;pymedphys_monomanage.parse -->
<g id="edge2" class="edge">
<title>pymedphys_monomanage.tree&#45;&gt;pymedphys_monomanage.parse</title>
<path fill="none" stroke="#000000" d="M163.2932,-34C175.8972,-34 191.1357,-34 205.0034,-34"/>
<polygon fill="#000000" stroke="#000000" points="205.2745,-37.5001 215.2744,-34 205.2744,-30.5001 205.2745,-37.5001"/>
</g>
<!-- pymedphys_monomanage.draw -->
<g id="node4" class="node">
<title>pymedphys_monomanage.draw</title>
<ellipse fill="none" stroke="#000000" cx="44.5975" cy="-34" rx="28.6953" ry="18"/>
<text text-anchor="middle" x="44.5975" y="-30.3" font-family="Times,serif" font-size="14.00" fill="#000000">draw</text>
</g>
<!-- pymedphys_monomanage.draw&#45;&gt;pymedphys_monomanage.tree -->
<g id="edge1" class="edge">
<title>pymedphys_monomanage.draw&#45;&gt;pymedphys_monomanage.tree</title>
<path fill="none" stroke="#000000" d="M73.5795,-34C81.6281,-34 90.4813,-34 98.9325,-34"/>
<polygon fill="#000000" stroke="#000000" points="98.9607,-37.5001 108.9607,-34 98.9606,-30.5001 98.9607,-37.5001"/>
</g>
</g>
</svg>
