<?xml version="1.0" encoding="UTF-8" standalone="no"?>
<!DOCTYPE svg PUBLIC "-//W3C//DTD SVG 1.1//EN"
 "http://www.w3.org/Graphics/SVG/1.1/DTD/svg11.dtd">
<!-- Generated by graphviz version 2.40.1 (20161225.0304)
 -->
<!-- Title: %3 Pages: 1 -->
<svg width="856pt" height="344pt"
 viewBox="0.00 0.00 855.84 344.00" xmlns="http://www.w3.org/2000/svg" xmlns:xlink="http://www.w3.org/1999/xlink">
<g id="graph0" class="graph" transform="scale(1 1) rotate(0) translate(4 340)">
<title>%3</title>
<polygon fill="#ffffff" stroke="transparent" points="-4,4 -4,-340 851.8397,-340 851.8397,4 -4,4"/>
<g id="clust1" class="cluster">
<title>cluster_0</title>
<polygon fill="none" stroke="#000000" stroke-dasharray="5,2" points="208.4833,-8 208.4833,-328 839.8397,-328 839.8397,-8 208.4833,-8"/>
<text text-anchor="middle" x="524.1615" y="-312.8" font-family="Times,serif" font-size="14.00" fill="#000000">pymedphys_dicom</text>
</g>
<g id="clust2" class="cluster">
<title>cluster_1</title>
<polygon fill="none" stroke="#000000" stroke-dasharray="5,2" points="216.4833,-16 216.4833,-253 831.8397,-253 831.8397,-16 216.4833,-16"/>
<text text-anchor="middle" x="524.1615" y="-237.8" font-family="Times,serif" font-size="14.00" fill="#000000">pymedphys_dicom.dicom</text>
</g>
<!-- pymedphys_dicom.dicom.constants -->
<g id="node1" class="node">
<title>pymedphys_dicom.dicom.constants</title>
<ellipse fill="none" stroke="#000000" cx="755.5957" cy="-204" rx="68.4888" ry="18"/>
<text text-anchor="middle" x="755.5957" y="-200.3" font-family="Times,serif" font-size="14.00" fill="#000000">dicom.constants</text>
</g>
<!-- pymedphys_dicom.dicom.coords -->
<g id="node2" class="node">
<title>pymedphys_dicom.dicom.coords</title>
<ellipse fill="none" stroke="#000000" cx="755.5957" cy="-96" rx="59.2899" ry="18"/>
<text text-anchor="middle" x="755.5957" y="-92.3" font-family="Times,serif" font-size="14.00" fill="#000000">dicom.coords</text>
</g>
<!-- pymedphys_dicom.dicom.create -->
<g id="node3" class="node">
<title>pymedphys_dicom.dicom.create</title>
<ellipse fill="none" stroke="#000000" cx="755.5957" cy="-150" rx="56.59" ry="18"/>
<text text-anchor="middle" x="755.5957" y="-146.3" font-family="Times,serif" font-size="14.00" fill="#000000">dicom.create</text>
</g>
<!-- pymedphys_dicom.dicom.structure -->
<g id="node4" class="node">
<title>pymedphys_dicom.dicom.structure</title>
<ellipse fill="none" stroke="#000000" cx="755.5957" cy="-42" rx="66.0889" ry="18"/>
<text text-anchor="middle" x="755.5957" y="-38.3" font-family="Times,serif" font-size="14.00" fill="#000000">dicom.structure</text>
</g>
<!-- pymedphys_dicom.dicom.anonymise -->
<g id="node5" class="node">
<title>pymedphys_dicom.dicom.anonymise</title>
<ellipse fill="none" stroke="#000000" cx="577.2584" cy="-204" rx="74.187" ry="18"/>
<text text-anchor="middle" x="577.2584" y="-200.3" font-family="Times,serif" font-size="14.00" fill="#000000">dicom.anonymise</text>
</g>
<!-- pymedphys_dicom.dicom.anonymise&#45;&gt;pymedphys_dicom.dicom.constants -->
<g id="edge2" class="edge">
<title>pymedphys_dicom.dicom.anonymise&#45;&gt;pymedphys_dicom.dicom.constants</title>
<path fill="none" stroke="#000000" d="M651.5981,-204C659.9556,-204 668.4919,-204 676.9021,-204"/>
<polygon fill="#000000" stroke="#000000" points="677.0778,-207.5001 687.0777,-204 677.0777,-200.5001 677.0778,-207.5001"/>
</g>
<!-- pymedphys_dicom.utilities -->
<g id="node10" class="node">
<title>pymedphys_dicom.utilities</title>
<ellipse fill="none" stroke="#000000" cx="755.5957" cy="-279" rx="37.0935" ry="18"/>
<text text-anchor="middle" x="755.5957" y="-275.3" font-family="Times,serif" font-size="14.00" fill="#000000">utilities</text>
</g>
<!-- pymedphys_dicom.dicom.anonymise&#45;&gt;pymedphys_dicom.utilities -->
<g id="edge1" class="edge">
<title>pymedphys_dicom.dicom.anonymise&#45;&gt;pymedphys_dicom.utilities</title>
<path fill="none" stroke="#000000" d="M608.5414,-220.4754C630.3008,-231.5823 660.169,-246.1347 687.3518,-257 695.8342,-260.3905 705.0612,-263.645 713.9088,-266.5628"/>
<polygon fill="#000000" stroke="#000000" points="713.0857,-269.9745 723.6771,-269.7033 715.2283,-263.3105 713.0857,-269.9745"/>
</g>
<!-- pymedphys_dicom.dicom.dose -->
<g id="node6" class="node">
<title>pymedphys_dicom.dicom.dose</title>
<ellipse fill="none" stroke="#000000" cx="577.2584" cy="-49" rx="51.9908" ry="18"/>
<text text-anchor="middle" x="577.2584" y="-45.3" font-family="Times,serif" font-size="14.00" fill="#000000">dicom.dose</text>
</g>
<!-- pymedphys_dicom.dicom.dose&#45;&gt;pymedphys_dicom.dicom.coords -->
<g id="edge3" class="edge">
<title>pymedphys_dicom.dicom.dose&#45;&gt;pymedphys_dicom.dicom.coords</title>
<path fill="none" stroke="#000000" d="M619.0706,-60.0194C643.4447,-66.4431 674.4694,-74.6195 700.7823,-81.5542"/>
<polygon fill="#000000" stroke="#000000" points="700.0508,-84.9808 710.6126,-84.1449 701.8347,-78.2119 700.0508,-84.9808"/>
</g>
<!-- pymedphys_dicom.dicom.dose&#45;&gt;pymedphys_dicom.dicom.structure -->
<g id="edge4" class="edge">
<title>pymedphys_dicom.dicom.dose&#45;&gt;pymedphys_dicom.dicom.structure</title>
<path fill="none" stroke="#000000" d="M629.3203,-46.9565C644.986,-46.3416 662.5115,-45.6537 679.4022,-44.9907"/>
<polygon fill="#000000" stroke="#000000" points="679.9598,-48.4716 689.8148,-44.582 679.6852,-41.477 679.9598,-48.4716"/>
</g>
<!-- pymedphys_dicom.dicom.header -->
<g id="node7" class="node">
<title>pymedphys_dicom.dicom.header</title>
<ellipse fill="none" stroke="#000000" cx="577.2584" cy="-103" rx="59.2899" ry="18"/>
<text text-anchor="middle" x="577.2584" y="-99.3" font-family="Times,serif" font-size="14.00" fill="#000000">dicom.header</text>
</g>
<!-- pymedphys_dicom.dicom.header&#45;&gt;pymedphys_dicom.dicom.create -->
<g id="edge5" class="edge">
<title>pymedphys_dicom.dicom.header&#45;&gt;pymedphys_dicom.dicom.create</title>
<path fill="none" stroke="#000000" d="M622.2604,-114.8601C646.4913,-121.246 676.5435,-129.1661 701.9799,-135.8698"/>
<polygon fill="#000000" stroke="#000000" points="701.2793,-139.3046 711.8411,-138.4687 703.0632,-132.5357 701.2793,-139.3046"/>
</g>
<!-- pymedphys_dicom.dicom.collection -->
<g id="node8" class="node">
<title>pymedphys_dicom.dicom.collection</title>
<ellipse fill="none" stroke="#000000" cx="396.9712" cy="-150" rx="70.3881" ry="18"/>
<text text-anchor="middle" x="396.9712" y="-146.3" font-family="Times,serif" font-size="14.00" fill="#000000">dicom.collection</text>
</g>
<!-- pymedphys_dicom.dicom.collection&#45;&gt;pymedphys_dicom.dicom.coords -->
<g id="edge6" class="edge">
<title>pymedphys_dicom.dicom.collection&#45;&gt;pymedphys_dicom.dicom.coords</title>
<path fill="none" stroke="#000000" d="M465.7752,-146.4265C528.7381,-142.8213 617.1397,-136.8237 651.3518,-130 670.7262,-126.1357 691.524,-119.8168 709.4071,-113.6685"/>
<polygon fill="#000000" stroke="#000000" points="710.7439,-116.9086 719.0147,-110.2871 708.4199,-110.3056 710.7439,-116.9086"/>
</g>
<!-- pymedphys_dicom.dicom.collection&#45;&gt;pymedphys_dicom.dicom.create -->
<g id="edge7" class="edge">
<title>pymedphys_dicom.dicom.collection&#45;&gt;pymedphys_dicom.dicom.create</title>
<path fill="none" stroke="#000000" d="M467.3959,-150C531.5481,-150 625.6263,-150 688.6626,-150"/>
<polygon fill="#000000" stroke="#000000" points="688.8913,-153.5001 698.8912,-150 688.8912,-146.5001 688.8913,-153.5001"/>
</g>
<!-- pymedphys_dicom.dicom.collection&#45;&gt;pymedphys_dicom.dicom.anonymise -->
<g id="edge8" class="edge">
<title>pymedphys_dicom.dicom.collection&#45;&gt;pymedphys_dicom.dicom.anonymise</title>
<path fill="none" stroke="#000000" d="M442.9317,-163.7662C466.6014,-170.8558 495.6705,-179.5626 520.7059,-187.0613"/>
<polygon fill="#000000" stroke="#000000" points="519.8567,-190.4605 530.4405,-189.977 521.8652,-183.7548 519.8567,-190.4605"/>
</g>
<!-- pymedphys_dicom.dicom -->
<g id="node9" class="node">
<title>pymedphys_dicom.dicom</title>
<ellipse fill="none" stroke="#000000" cx="257.6303" cy="-103" rx="33.2948" ry="18"/>
<text text-anchor="middle" x="257.6303" y="-99.3" font-family="Times,serif" font-size="14.00" fill="#000000">dicom</text>
</g>
<!-- pymedphys_dicom.dicom&#45;&gt;pymedphys_dicom.dicom.dose -->
<g id="edge9" class="edge">
<title>pymedphys_dicom.dicom&#45;&gt;pymedphys_dicom.dicom.dose</title>
<path fill="none" stroke="#000000" d="M289.446,-97.6249C343.2901,-88.5281 453.0764,-69.9801 520.4059,-58.605"/>
<polygon fill="#000000" stroke="#000000" points="521.1488,-62.0292 530.426,-56.9122 519.9827,-55.127 521.1488,-62.0292"/>
</g>
<!-- pymedphys_dicom.dicom&#45;&gt;pymedphys_dicom.dicom.header -->
<g id="edge10" class="edge">
<title>pymedphys_dicom.dicom&#45;&gt;pymedphys_dicom.dicom.header</title>
<path fill="none" stroke="#000000" d="M290.9316,-103C342.0321,-103 440.9006,-103 507.9925,-103"/>
<polygon fill="#000000" stroke="#000000" points="508.063,-106.5001 518.063,-103 508.0629,-99.5001 508.063,-106.5001"/>
</g>
<!-- pymedphys_dicom.dicom&#45;&gt;pymedphys_dicom.dicom.collection -->
<g id="edge11" class="edge">
<title>pymedphys_dicom.dicom&#45;&gt;pymedphys_dicom.dicom.collection</title>
<path fill="none" stroke="#000000" d="M285.828,-112.5112C302.708,-118.2048 324.6948,-125.621 344.6527,-132.3528"/>
<polygon fill="#000000" stroke="#000000" points="343.6618,-135.7123 354.2559,-135.5921 345.8991,-129.0795 343.6618,-135.7123"/>
</g>
<!-- pymedphys_analysis.geometry.cube -->
<g id="node11" class="node">
<title>pymedphys_analysis.geometry.cube</title>
<ellipse fill="none" stroke="#000000" cx="94.2416" cy="-184" rx="94.4839" ry="18"/>
<text text-anchor="middle" x="94.2416" y="-180.3" font-family="Times,serif" font-size="14.00" fill="#000000">analysis.geometry.cube</text>
</g>
<!-- pymedphys_analysis.geometry.cube&#45;&gt;pymedphys_dicom.dicom -->
<g id="edge12" class="edge">
<title>pymedphys_analysis.geometry.cube&#45;&gt;pymedphys_dicom.dicom</title>
<path fill="none" stroke="#000000" d="M155.3819,-170.2002C166.6866,-166.6188 178.1702,-162.2519 188.4833,-157 204.7391,-148.7218 220.919,-136.3703 233.5361,-125.5686"/>
<polygon fill="#000000" stroke="#000000" points="236.0852,-127.9876 241.2779,-118.7526 231.4595,-122.7337 236.0852,-127.9876"/>
</g>
<!-- pymedphys_analysis.gamma.filter -->
<g id="node12" class="node">
<title>pymedphys_analysis.gamma.filter</title>
<ellipse fill="none" stroke="#000000" cx="94.2416" cy="-130" rx="87.9851" ry="18"/>
<text text-anchor="middle" x="94.2416" y="-126.3" font-family="Times,serif" font-size="14.00" fill="#000000">analysis.gamma.filter</text>
</g>
<!-- pymedphys_analysis.gamma.filter&#45;&gt;pymedphys_dicom.dicom -->
<g id="edge13" class="edge">
<title>pymedphys_analysis.gamma.filter&#45;&gt;pymedphys_dicom.dicom</title>
<path fill="none" stroke="#000000" d="M162.5865,-118.706C180.5199,-115.7425 199.3354,-112.6332 215.4493,-109.9704"/>
<polygon fill="#000000" stroke="#000000" points="216.3163,-113.3747 225.6119,-108.2911 215.175,-106.4684 216.3163,-113.3747"/>
</g>
<!-- pymedphys_analysis.gamma.api -->
<g id="node13" class="node">
<title>pymedphys_analysis.gamma.api</title>
<ellipse fill="none" stroke="#000000" cx="94.2416" cy="-76" rx="81.4863" ry="18"/>
<text text-anchor="middle" x="94.2416" y="-72.3" font-family="Times,serif" font-size="14.00" fill="#000000">analysis.gamma.api</text>
</g>
<!-- pymedphys_analysis.gamma.api&#45;&gt;pymedphys_dicom.dicom -->
<g id="edge14" class="edge">
<title>pymedphys_analysis.gamma.api&#45;&gt;pymedphys_dicom.dicom</title>
<path fill="none" stroke="#000000" d="M159.7566,-86.8264C178.5783,-89.9366 198.5934,-93.2441 215.5869,-96.0523"/>
<polygon fill="#000000" stroke="#000000" points="215.3026,-99.5527 225.7395,-97.73 216.4439,-92.6464 215.3026,-99.5527"/>
</g>
<!-- pymedphys_xlwings.xlwings.dicom -->
<g id="node14" class="node">
<title>pymedphys_xlwings.xlwings.dicom</title>
<ellipse fill="none" stroke="#000000" cx="94.2416" cy="-22" rx="93.6835" ry="18"/>
<text text-anchor="middle" x="94.2416" y="-18.3" font-family="Times,serif" font-size="14.00" fill="#000000">xlwings.xlwings.dicom</text>
</g>
<!-- pymedphys_xlwings.xlwings.dicom&#45;&gt;pymedphys_dicom.dicom -->
<g id="edge15" class="edge">
<title>pymedphys_xlwings.xlwings.dicom&#45;&gt;pymedphys_dicom.dicom</title>
<path fill="none" stroke="#000000" d="M155.3819,-35.7998C166.6866,-39.3812 178.1702,-43.7481 188.4833,-49 204.7391,-57.2782 220.919,-69.6297 233.5361,-80.4314"/>
<polygon fill="#000000" stroke="#000000" points="231.4595,-83.2663 241.2779,-87.2474 236.0852,-78.0124 231.4595,-83.2663"/>
</g>
</g>
</svg>
