<?xml version="1.0" encoding="UTF-8" standalone="no"?>
<!DOCTYPE svg PUBLIC "-//W3C//DTD SVG 1.1//EN"
 "http://www.w3.org/Graphics/SVG/1.1/DTD/svg11.dtd">
<!-- Generated by graphviz version 2.40.1 (20161225.0304)
 -->
<!-- Title: %3 Pages: 1 -->
<svg width="718pt" height="192pt"
 viewBox="0.00 0.00 718.45 192.00" xmlns="http://www.w3.org/2000/svg" xmlns:xlink="http://www.w3.org/1999/xlink">
<g id="graph0" class="graph" transform="scale(1 1) rotate(0) translate(4 188)">
<title>%3</title>
<polygon fill="#ffffff" stroke="transparent" points="-4,4 -4,-188 714.4487,-188 714.4487,4 -4,4"/>
<g id="clust1" class="cluster">
<title>cluster_0</title>
<polygon fill="none" stroke="#000000" stroke-dasharray="5,2" points="231.8812,-8 231.8812,-176 702.4487,-176 702.4487,-8 231.8812,-8"/>
<text text-anchor="middle" x="467.1649" y="-160.8" font-family="Times,serif" font-size="14.00" fill="#000000">pymedphys_fileformats</text>
</g>
<g id="clust2" class="cluster">
<title>cluster_1</title>
<polygon fill="none" stroke="#000000" stroke-dasharray="5,2" points="239.8812,-16 239.8812,-145 694.4487,-145 694.4487,-16 239.8812,-16"/>
<text text-anchor="middle" x="467.1649" y="-129.8" font-family="Times,serif" font-size="14.00" fill="#000000">pymedphys_fileformats.mephysto</text>
</g>
<!-- pymedphys_fileformats.mephysto.core -->
<g id="node1" class="node">
<title>pymedphys_fileformats.mephysto.core</title>
<ellipse fill="none" stroke="#000000" cx="607.1557" cy="-42" rx="63.0888" ry="18"/>
<text text-anchor="middle" x="607.1557" y="-38.3" font-family="Times,serif" font-size="14.00" fill="#000000">mephysto.core</text>
</g>
<!-- pymedphys_fileformats.mephysto.mcc2csv -->
<g id="node2" class="node">
<title>pymedphys_fileformats.mephysto.mcc2csv</title>
<ellipse fill="none" stroke="#000000" cx="607.1557" cy="-96" rx="79.0865" ry="18"/>
<text text-anchor="middle" x="607.1557" y="-92.3" font-family="Times,serif" font-size="14.00" fill="#000000">mephysto.mcc2csv</text>
</g>
<!-- pymedphys_fileformats.mephysto.api -->
<g id="node3" class="node">
<title>pymedphys_fileformats.mephysto.api</title>
<ellipse fill="none" stroke="#000000" cx="433.3679" cy="-69" rx="58.4896" ry="18"/>
<text text-anchor="middle" x="433.3679" y="-65.3" font-family="Times,serif" font-size="14.00" fill="#000000">mephysto.api</text>
</g>
<!-- pymedphys_fileformats.mephysto.api&#45;&gt;pymedphys_fileformats.mephysto.core -->
<g id="edge1" class="edge">
<title>pymedphys_fileformats.mephysto.api&#45;&gt;pymedphys_fileformats.mephysto.core</title>
<path fill="none" stroke="#000000" d="M485.9816,-60.8258C503.5146,-58.1019 523.265,-55.0334 541.6528,-52.1767"/>
<polygon fill="#000000" stroke="#000000" points="542.3612,-55.6087 551.7053,-50.6149 541.2865,-48.6917 542.3612,-55.6087"/>
</g>
<!-- pymedphys_fileformats.mephysto.api&#45;&gt;pymedphys_fileformats.mephysto.mcc2csv -->
<g id="edge2" class="edge">
<title>pymedphys_fileformats.mephysto.api&#45;&gt;pymedphys_fileformats.mephysto.mcc2csv</title>
<path fill="none" stroke="#000000" d="M485.9816,-77.1742C500.3231,-79.4023 516.1484,-81.8609 531.4979,-84.2457"/>
<polygon fill="#000000" stroke="#000000" points="531.0768,-87.7221 541.4956,-85.7989 532.1515,-80.8051 531.0768,-87.7221"/>
</g>
<!-- pymedphys_fileformats.mephysto -->
<g id="node4" class="node">
<title>pymedphys_fileformats.mephysto</title>
<ellipse fill="none" stroke="#000000" cx="293.3772" cy="-69" rx="45.4919" ry="18"/>
<text text-anchor="middle" x="293.3772" y="-65.3" font-family="Times,serif" font-size="14.00" fill="#000000">mephysto</text>
</g>
<!-- pymedphys_fileformats.mephysto&#45;&gt;pymedphys_fileformats.mephysto.api -->
<g id="edge3" class="edge">
<title>pymedphys_fileformats.mephysto&#45;&gt;pymedphys_fileformats.mephysto.api</title>
<path fill="none" stroke="#000000" d="M339.2154,-69C347.3539,-69 355.9891,-69 364.5995,-69"/>
<polygon fill="#000000" stroke="#000000" points="364.6648,-72.5001 374.6647,-69 364.6647,-65.5001 364.6648,-72.5001"/>
</g>
<!-- pymedphys_xlwings.xlwings.mephysto -->
<g id="node5" class="node">
<title>pymedphys_xlwings.xlwings.mephysto</title>
<ellipse fill="none" stroke="#000000" cx="105.9406" cy="-69" rx="105.8812" ry="18"/>
<text text-anchor="middle" x="105.9406" y="-65.3" font-family="Times,serif" font-size="14.00" fill="#000000">xlwings.xlwings.mephysto</text>
</g>
<!-- pymedphys_xlwings.xlwings.mephysto&#45;&gt;pymedphys_fileformats.mephysto -->
<g id="edge4" class="edge">
<title>pymedphys_xlwings.xlwings.mephysto&#45;&gt;pymedphys_fileformats.mephysto</title>
<path fill="none" stroke="#000000" d="M211.9825,-69C220.7188,-69 229.3097,-69 237.4444,-69"/>
<polygon fill="#000000" stroke="#000000" points="237.481,-72.5001 247.481,-69 237.4809,-65.5001 237.481,-72.5001"/>
</g>
</g>
</svg>
