<?xml version="1.0" encoding="UTF-8" standalone="no"?>
<!DOCTYPE svg PUBLIC "-//W3C//DTD SVG 1.1//EN"
 "http://www.w3.org/Graphics/SVG/1.1/DTD/svg11.dtd">
<!-- Generated by graphviz version 2.40.1 (20161225.0304)
 -->
<!-- Title: %3 Pages: 1 -->
<svg width="936pt" height="228pt"
 viewBox="0.00 0.00 935.83 228.00" xmlns="http://www.w3.org/2000/svg" xmlns:xlink="http://www.w3.org/1999/xlink">
<g id="graph0" class="graph" transform="scale(1 1) rotate(0) translate(4 224)">
<title>%3</title>
<polygon fill="#ffffff" stroke="transparent" points="-4,4 -4,-224 931.8305,-224 931.8305,4 -4,4"/>
<g id="clust1" class="cluster">
<title>cluster_0</title>
<polygon fill="none" stroke="#000000" stroke-dasharray="5,2" points="226.6817,-98 226.6817,-212 849.0905,-212 849.0905,-98 226.6817,-98"/>
<text text-anchor="middle" x="537.8861" y="-196.8" font-family="Times,serif" font-size="14.00" fill="#000000">pymedphys_analysis</text>
</g>
<g id="clust2" class="cluster">
<title>cluster_1</title>
<polygon fill="none" stroke="#000000" stroke-dasharray="5,2" points="234.6817,-106 234.6817,-181 672.3506,-181 672.3506,-106 234.6817,-106"/>
<text text-anchor="middle" x="453.5161" y="-165.8" font-family="Times,serif" font-size="14.00" fill="#000000">pymedphys_analysis.mudensity</text>
</g>
<!-- pymedphys_analysis.mudensity.core -->
<g id="node1" class="node">
<title>pymedphys_analysis.mudensity.core</title>
<ellipse fill="none" stroke="#000000" cx="598.7065" cy="-132" rx="65.7887" ry="18"/>
<text text-anchor="middle" x="598.7065" y="-128.3" font-family="Times,serif" font-size="14.00" fill="#000000">mudensity.core</text>
</g>
<!-- pymedphys_analysis.plt -->
<g id="node4" class="node">
<title>pymedphys_analysis.plt</title>
<ellipse fill="none" stroke="#000000" cx="814.0905" cy="-132" rx="27" ry="18"/>
<text text-anchor="middle" x="814.0905" y="-128.3" font-family="Times,serif" font-size="14.00" fill="#000000">plt</text>
</g>
<!-- pymedphys_analysis.mudensity.core&#45;&gt;pymedphys_analysis.plt -->
<g id="edge1" class="edge">
<title>pymedphys_analysis.mudensity.core&#45;&gt;pymedphys_analysis.plt</title>
<path fill="none" stroke="#000000" d="M664.4991,-132C701.2396,-132 745.6885,-132 776.5417,-132"/>
<polygon fill="#000000" stroke="#000000" points="776.853,-135.5001 786.8529,-132 776.8529,-128.5001 776.853,-135.5001"/>
</g>
<!-- pymedphys_coordsandscales.deliverydata -->
<g id="node5" class="node">
<title>pymedphys_coordsandscales.deliverydata</title>
<ellipse fill="none" stroke="#000000" cx="814.0905" cy="-72" rx="113.9803" ry="18"/>
<text text-anchor="middle" x="814.0905" y="-68.3" font-family="Times,serif" font-size="14.00" fill="#000000">coordsandscales.deliverydata</text>
</g>
<!-- pymedphys_analysis.mudensity.core&#45;&gt;pymedphys_coordsandscales.deliverydata -->
<g id="edge2" class="edge">
<title>pymedphys_analysis.mudensity.core&#45;&gt;pymedphys_coordsandscales.deliverydata</title>
<path fill="none" stroke="#000000" d="M634.9142,-116.7845C654.1048,-109.1505 678.2265,-100.2283 700.3506,-94 708.7904,-91.6241 717.654,-89.4194 726.5523,-87.3965"/>
<polygon fill="#000000" stroke="#000000" points="727.577,-90.7549 736.5929,-85.1904 726.0748,-83.918 727.577,-90.7549"/>
</g>
<!-- pymedphys_utilities.constants -->
<g id="node6" class="node">
<title>pymedphys_utilities.constants</title>
<ellipse fill="none" stroke="#000000" cx="814.0905" cy="-18" rx="72.2875" ry="18"/>
<text text-anchor="middle" x="814.0905" y="-14.3" font-family="Times,serif" font-size="14.00" fill="#000000">utilities.constants</text>
</g>
<!-- pymedphys_analysis.mudensity.core&#45;&gt;pymedphys_utilities.constants -->
<g id="edge3" class="edge">
<title>pymedphys_analysis.mudensity.core&#45;&gt;pymedphys_utilities.constants</title>
<path fill="none" stroke="#000000" d="M614.1509,-114.4979C632.663,-94.6298 665.5678,-62.6902 700.3506,-45 713.2115,-38.4591 727.7012,-33.4688 741.923,-29.6723"/>
<polygon fill="#000000" stroke="#000000" points="742.8487,-33.0487 751.7029,-27.2304 741.1528,-26.2573 742.8487,-33.0487"/>
</g>
<!-- pymedphys_analysis.mudensity.api -->
<g id="node2" class="node">
<title>pymedphys_analysis.mudensity.api</title>
<ellipse fill="none" stroke="#000000" cx="435.9677" cy="-132" rx="61.1893" ry="18"/>
<text text-anchor="middle" x="435.9677" y="-128.3" font-family="Times,serif" font-size="14.00" fill="#000000">mudensity.api</text>
</g>
<!-- pymedphys_analysis.mudensity.api&#45;&gt;pymedphys_analysis.mudensity.core -->
<g id="edge4" class="edge">
<title>pymedphys_analysis.mudensity.api&#45;&gt;pymedphys_analysis.mudensity.core</title>
<path fill="none" stroke="#000000" d="M497.4923,-132C505.7471,-132 514.2921,-132 522.7585,-132"/>
<polygon fill="#000000" stroke="#000000" points="523.022,-135.5001 533.0219,-132 523.0219,-128.5001 523.022,-135.5001"/>
</g>
<!-- pymedphys_analysis.mudensity -->
<g id="node3" class="node">
<title>pymedphys_analysis.mudensity</title>
<ellipse fill="none" stroke="#000000" cx="290.7774" cy="-132" rx="48.1917" ry="18"/>
<text text-anchor="middle" x="290.7774" y="-128.3" font-family="Times,serif" font-size="14.00" fill="#000000">mudensity</text>
</g>
<!-- pymedphys_analysis.mudensity&#45;&gt;pymedphys_analysis.mudensity.api -->
<g id="edge5" class="edge">
<title>pymedphys_analysis.mudensity&#45;&gt;pymedphys_analysis.mudensity.api</title>
<path fill="none" stroke="#000000" d="M339.1237,-132C347.3058,-132 355.9524,-132 364.5762,-132"/>
<polygon fill="#000000" stroke="#000000" points="364.6603,-135.5001 374.6603,-132 364.6602,-128.5001 364.6603,-135.5001"/>
</g>
<!-- pymedphys_logfiles.elekta.analyse -->
<g id="node7" class="node">
<title>pymedphys_logfiles.elekta.analyse</title>
<ellipse fill="none" stroke="#000000" cx="103.3408" cy="-186" rx="89.0842" ry="18"/>
<text text-anchor="middle" x="103.3408" y="-182.3" font-family="Times,serif" font-size="14.00" fill="#000000">logfiles.elekta.analyse</text>
</g>
<!-- pymedphys_logfiles.elekta.analyse&#45;&gt;pymedphys_analysis.mudensity -->
<g id="edge6" class="edge">
<title>pymedphys_logfiles.elekta.analyse&#45;&gt;pymedphys_analysis.mudensity</title>
<path fill="none" stroke="#000000" d="M159.2727,-171.9874C174.6824,-167.9636 191.3692,-163.4548 206.6817,-159 219.2289,-155.3497 232.7414,-151.1377 245.1862,-147.1425"/>
<polygon fill="#000000" stroke="#000000" points="246.4621,-150.4084 254.8989,-143.9997 244.307,-143.7483 246.4621,-150.4084"/>
</g>
<!-- pymedphys_logfiles.elekta.bygantry -->
<g id="node8" class="node">
<title>pymedphys_logfiles.elekta.bygantry</title>
<ellipse fill="none" stroke="#000000" cx="103.3408" cy="-132" rx="94.4839" ry="18"/>
<text text-anchor="middle" x="103.3408" y="-128.3" font-family="Times,serif" font-size="14.00" fill="#000000">logfiles.elekta.bygantry</text>
</g>
<!-- pymedphys_logfiles.elekta.bygantry&#45;&gt;pymedphys_analysis.mudensity -->
<g id="edge7" class="edge">
<title>pymedphys_logfiles.elekta.bygantry&#45;&gt;pymedphys_analysis.mudensity</title>
<path fill="none" stroke="#000000" d="M197.6082,-132C209.3526,-132 221.0854,-132 232.069,-132"/>
<polygon fill="#000000" stroke="#000000" points="232.346,-135.5001 242.346,-132 232.346,-128.5001 232.346,-135.5001"/>
</g>
<!-- pymedphys_toolbox.plancompare.core -->
<g id="node9" class="node">
<title>pymedphys_toolbox.plancompare.core</title>
<ellipse fill="none" stroke="#000000" cx="103.3408" cy="-78" rx="103.1819" ry="18"/>
<text text-anchor="middle" x="103.3408" y="-74.3" font-family="Times,serif" font-size="14.00" fill="#000000">toolbox.plancompare.core</text>
</g>
<!-- pymedphys_toolbox.plancompare.core&#45;&gt;pymedphys_analysis.mudensity -->
<g id="edge8" class="edge">
<title>pymedphys_toolbox.plancompare.core&#45;&gt;pymedphys_analysis.mudensity</title>
<path fill="none" stroke="#000000" d="M162.2442,-92.7905C176.8111,-96.6129 192.3485,-100.8301 206.6817,-105 219.2289,-108.6503 232.7414,-112.8623 245.1862,-116.8575"/>
<polygon fill="#000000" stroke="#000000" points="244.307,-120.2517 254.8989,-120.0003 246.4621,-113.5916 244.307,-120.2517"/>
</g>
</g>
</svg>
