<?xml version="1.0" encoding="UTF-8" standalone="no"?>
<!DOCTYPE svg PUBLIC "-//W3C//DTD SVG 1.1//EN"
 "http://www.w3.org/Graphics/SVG/1.1/DTD/svg11.dtd">
<!-- Generated by graphviz version 2.40.1 (20161225.0304)
 -->
<!-- Title: %3 Pages: 1 -->
<svg width="575pt" height="261pt"
 viewBox="0.00 0.00 574.86 261.00" xmlns="http://www.w3.org/2000/svg" xmlns:xlink="http://www.w3.org/1999/xlink">
<g id="graph0" class="graph" transform="scale(1 1) rotate(0) translate(4 257)">
<title>%3</title>
<polygon fill="#ffffff" stroke="transparent" points="-4,4 -4,-257 570.8593,-257 570.8593,4 -4,4"/>
<g id="clust3" class="cluster">
<title>cluster_0</title>
<polygon fill="none" stroke="#000000" stroke-dasharray="5,2" points="165.7878,-8 165.7878,-245 311.3795,-245 311.3795,-8 165.7878,-8"/>
<text text-anchor="middle" x="238.5836" y="-229.8" font-family="Times,serif" font-size="14.00" fill="#000000">pymedphys_fileformats</text>
</g>
<!-- pymedphys_xlwings.xlwings -->
<g id="node1" class="node">
<title>pymedphys_xlwings.xlwings</title>
<ellipse fill="none" stroke="#000000" cx="68.8939" cy="-142" rx="68.7879" ry="18"/>
<text text-anchor="middle" x="68.8939" y="-138.3" font-family="Times,serif" font-size="14.00" fill="#000000">xlwings.xlwings</text>
</g>
<!-- pymedphys_fileformats.mephysto -->
<g id="node5" class="node">
<title>pymedphys_fileformats.mephysto</title>
<ellipse fill="none" stroke="#000000" cx="238.5836" cy="-142" rx="45.4919" ry="18"/>
<text text-anchor="middle" x="238.5836" y="-138.3" font-family="Times,serif" font-size="14.00" fill="#000000">mephysto</text>
</g>
<!-- pymedphys_xlwings.xlwings&#45;&gt;pymedphys_fileformats.mephysto -->
<g id="edge2" class="edge">
<title>pymedphys_xlwings.xlwings&#45;&gt;pymedphys_fileformats.mephysto</title>
<path fill="none" stroke="#000000" d="M137.9132,-142C152.828,-142 168.4192,-142 182.7541,-142"/>
<polygon fill="#000000" stroke="#000000" points="182.9425,-145.5001 192.9425,-142 182.9425,-138.5001 182.9425,-145.5001"/>
</g>
<!-- pymedphys_logfiles.elekta -->
<g id="node2" class="node">
<title>pymedphys_logfiles.elekta</title>
<ellipse fill="none" stroke="#000000" cx="68.8939" cy="-34" rx="60.3893" ry="18"/>
<text text-anchor="middle" x="68.8939" y="-30.3" font-family="Times,serif" font-size="14.00" fill="#000000">logfiles.elekta</text>
</g>
<!-- pymedphys_fileformats.trf -->
<g id="node7" class="node">
<title>pymedphys_fileformats.trf</title>
<ellipse fill="none" stroke="#000000" cx="238.5836" cy="-34" rx="27" ry="18"/>
<text text-anchor="middle" x="238.5836" y="-30.3" font-family="Times,serif" font-size="14.00" fill="#000000">trf</text>
</g>
<!-- pymedphys_logfiles.elekta&#45;&gt;pymedphys_fileformats.trf -->
<g id="edge3" class="edge">
<title>pymedphys_logfiles.elekta&#45;&gt;pymedphys_fileformats.trf</title>
<path fill="none" stroke="#000000" d="M129.6765,-34C153.5946,-34 180.294,-34 201.2706,-34"/>
<polygon fill="#000000" stroke="#000000" points="201.3715,-37.5001 211.3715,-34 201.3715,-30.5001 201.3715,-37.5001"/>
</g>
<!-- pymedphys_coordsandscales.deliverydata -->
<g id="node3" class="node">
<title>pymedphys_coordsandscales.deliverydata</title>
<ellipse fill="none" stroke="#000000" cx="453.1194" cy="-34" rx="113.9803" ry="18"/>
<text text-anchor="middle" x="453.1194" y="-30.3" font-family="Times,serif" font-size="14.00" fill="#000000">coordsandscales.deliverydata</text>
</g>
<!-- pymedphys_fileformats.mapcheck -->
<g id="node4" class="node">
<title>pymedphys_fileformats.mapcheck</title>
<ellipse fill="none" stroke="#000000" cx="238.5836" cy="-196" rx="46.5926" ry="18"/>
<text text-anchor="middle" x="238.5836" y="-192.3" font-family="Times,serif" font-size="14.00" fill="#000000">mapcheck</text>
</g>
<!-- pymedphys_fileformats.profiler -->
<g id="node6" class="node">
<title>pymedphys_fileformats.profiler</title>
<ellipse fill="none" stroke="#000000" cx="238.5836" cy="-88" rx="37.0935" ry="18"/>
<text text-anchor="middle" x="238.5836" y="-84.3" font-family="Times,serif" font-size="14.00" fill="#000000">profiler</text>
</g>
<!-- pymedphys_fileformats.trf&#45;&gt;pymedphys_coordsandscales.deliverydata -->
<g id="edge1" class="edge">
<title>pymedphys_fileformats.trf&#45;&gt;pymedphys_coordsandscales.deliverydata</title>
<path fill="none" stroke="#000000" d="M265.7547,-34C282.4278,-34 305.0991,-34 328.9131,-34"/>
<polygon fill="#000000" stroke="#000000" points="329.1749,-37.5001 339.1748,-34 329.1748,-30.5001 329.1749,-37.5001"/>
</g>
</g>
</svg>
