<?xml version="1.0" encoding="UTF-8" standalone="no"?>
<!DOCTYPE svg PUBLIC "-//W3C//DTD SVG 1.1//EN"
 "http://www.w3.org/Graphics/SVG/1.1/DTD/svg11.dtd">
<!-- Generated by graphviz version 2.40.1 (20161225.0304)
 -->
<!-- Title: %3 Pages: 1 -->
<svg width="367pt" height="218pt"
 viewBox="0.00 0.00 367.18 218.00" xmlns="http://www.w3.org/2000/svg" xmlns:xlink="http://www.w3.org/1999/xlink">
<g id="graph0" class="graph" transform="scale(1 1) rotate(0) translate(4 214)">
<title>%3</title>
<polygon fill="#ffffff" stroke="transparent" points="-4,4 -4,-214 363.1765,-214 363.1765,4 -4,4"/>
<g id="clust2" class="cluster">
<title>cluster_0</title>
<polygon fill="none" stroke="#000000" stroke-dasharray="5,2" points="185.286,-73 185.286,-202 359.1765,-202 359.1765,-73 185.286,-73"/>
<text text-anchor="middle" x="272.2313" y="-186.8" font-family="Times,serif" font-size="14.00" fill="#000000">pymedphys_coordsandscales</text>
</g>
<!-- pymedphys_logfiles.elekta -->
<g id="node1" class="node">
<title>pymedphys_logfiles.elekta</title>
<ellipse fill="none" stroke="#000000" cx="78.643" cy="-180" rx="60.3893" ry="18"/>
<text text-anchor="middle" x="78.643" y="-176.3" font-family="Times,serif" font-size="14.00" fill="#000000">logfiles.elekta</text>
</g>
<!-- pymedphys_coordsandscales.deliverydata -->
<g id="node6" class="node">
<title>pymedphys_coordsandscales.deliverydata</title>
<ellipse fill="none" stroke="#000000" cx="272.2313" cy="-99" rx="53.8905" ry="18"/>
<text text-anchor="middle" x="272.2313" y="-95.3" font-family="Times,serif" font-size="14.00" fill="#000000">deliverydata</text>
</g>
<!-- pymedphys_logfiles.elekta&#45;&gt;pymedphys_coordsandscales.deliverydata -->
<g id="edge1" class="edge">
<title>pymedphys_logfiles.elekta&#45;&gt;pymedphys_coordsandscales.deliverydata</title>
<path fill="none" stroke="#000000" d="M124.2539,-168.0964C135.4905,-164.1667 147.1882,-159.1767 157.286,-153 172.0336,-143.9792 170.4066,-134.8015 185.286,-126 195.0713,-120.2118 206.2218,-115.5448 217.1979,-111.8257"/>
<polygon fill="#000000" stroke="#000000" points="218.2834,-115.1534 226.7599,-108.7972 216.1698,-108.4801 218.2834,-115.1534"/>
</g>
<!-- pymedphys_fileformats.trf -->
<g id="node2" class="node">
<title>pymedphys_fileformats.trf</title>
<ellipse fill="none" stroke="#000000" cx="78.643" cy="-126" rx="60.3893" ry="18"/>
<text text-anchor="middle" x="78.643" y="-122.3" font-family="Times,serif" font-size="14.00" fill="#000000">fileformats.trf</text>
</g>
<!-- pymedphys_fileformats.trf&#45;&gt;pymedphys_coordsandscales.deliverydata -->
<g id="edge2" class="edge">
<title>pymedphys_fileformats.trf&#45;&gt;pymedphys_coordsandscales.deliverydata</title>
<path fill="none" stroke="#000000" d="M133.5998,-118.3351C158.1616,-114.9094 187.174,-110.863 212.2934,-107.3596"/>
<polygon fill="#000000" stroke="#000000" points="213.0119,-110.7934 222.4325,-105.9455 212.0449,-103.8605 213.0119,-110.7934"/>
</g>
<!-- pymedphys_analysis.mudensity -->
<g id="node3" class="node">
<title>pymedphys_analysis.mudensity</title>
<ellipse fill="none" stroke="#000000" cx="78.643" cy="-72" rx="78.7863" ry="18"/>
<text text-anchor="middle" x="78.643" y="-68.3" font-family="Times,serif" font-size="14.00" fill="#000000">analysis.mudensity</text>
</g>
<!-- pymedphys_analysis.mudensity&#45;&gt;pymedphys_coordsandscales.deliverydata -->
<g id="edge3" class="edge">
<title>pymedphys_analysis.mudensity&#45;&gt;pymedphys_coordsandscales.deliverydata</title>
<path fill="none" stroke="#000000" d="M145.8075,-81.3675C167.3925,-84.378 191.1531,-87.6919 212.1927,-90.6263"/>
<polygon fill="#000000" stroke="#000000" points="211.8935,-94.1184 222.2811,-92.0334 212.8605,-87.1855 211.8935,-94.1184"/>
</g>
<!-- pymedphys_databases.msq -->
<g id="node4" class="node">
<title>pymedphys_databases.msq</title>
<ellipse fill="none" stroke="#000000" cx="78.643" cy="-18" rx="61.99" ry="18"/>
<text text-anchor="middle" x="78.643" y="-14.3" font-family="Times,serif" font-size="14.00" fill="#000000">databases.msq</text>
</g>
<!-- pymedphys_databases.msq&#45;&gt;pymedphys_coordsandscales.deliverydata -->
<g id="edge4" class="edge">
<title>pymedphys_databases.msq&#45;&gt;pymedphys_coordsandscales.deliverydata</title>
<path fill="none" stroke="#000000" d="M120.1779,-31.3198C132.2454,-35.4422 145.3786,-40.1755 157.286,-45 183.0337,-55.4321 211.2813,-68.6765 233.3307,-79.4377"/>
<polygon fill="#000000" stroke="#000000" points="231.857,-82.6132 242.3755,-83.8822 234.9441,-76.3307 231.857,-82.6132"/>
</g>
<!-- pymedphys_coordsandscales.coordinates -->
<g id="node5" class="node">
<title>pymedphys_coordsandscales.coordinates</title>
<ellipse fill="none" stroke="#000000" cx="272.2313" cy="-153" rx="51.1914" ry="18"/>
<text text-anchor="middle" x="272.2313" y="-149.3" font-family="Times,serif" font-size="14.00" fill="#000000">coordinates</text>
</g>
</g>
</svg>
