<?xml version="1.0" encoding="UTF-8" standalone="no"?>
<!DOCTYPE svg PUBLIC "-//W3C//DTD SVG 1.1//EN"
 "http://www.w3.org/Graphics/SVG/1.1/DTD/svg11.dtd">
<!-- Generated by graphviz version 2.40.1 (20161225.0304)
 -->
<!-- Title: %3 Pages: 1 -->
<svg width="593pt" height="314pt"
 viewBox="0.00 0.00 592.76 314.00" xmlns="http://www.w3.org/2000/svg" xmlns:xlink="http://www.w3.org/1999/xlink">
<g id="graph0" class="graph" transform="scale(1 1) rotate(0) translate(4 310)">
<title>%3</title>
<polygon fill="#ffffff" stroke="transparent" points="-4,4 -4,-310 588.7566,-310 588.7566,4 -4,4"/>
<g id="clust1" class="cluster">
<title>cluster_0</title>
<polygon fill="none" stroke="#000000" stroke-dasharray="5,2" points="257.8789,-119 257.8789,-233 576.7566,-233 576.7566,-119 257.8789,-119"/>
<text text-anchor="middle" x="417.3178" y="-217.8" font-family="Times,serif" font-size="14.00" fill="#000000">pymedphys_coordsandscales</text>
</g>
<g id="clust2" class="cluster">
<title>cluster_1</title>
<polygon fill="none" stroke="#000000" stroke-dasharray="5,2" points="265.8789,-127 265.8789,-202 568.7566,-202 568.7566,-127 265.8789,-127"/>
<text text-anchor="middle" x="417.3178" y="-186.8" font-family="Times,serif" font-size="14.00" fill="#000000">pymedphys_coordsandscales.deliverydata</text>
</g>
<!-- pymedphys_coordsandscales.deliverydata.core -->
<g id="node1" class="node">
<title>pymedphys_coordsandscales.deliverydata.core</title>
<ellipse fill="none" stroke="#000000" cx="489.263" cy="-153" rx="71.4873" ry="18"/>
<text text-anchor="middle" x="489.263" y="-149.3" font-family="Times,serif" font-size="14.00" fill="#000000">deliverydata.core</text>
</g>
<!-- pymedphys_coordsandscales.deliverydata -->
<g id="node2" class="node">
<title>pymedphys_coordsandscales.deliverydata</title>
<ellipse fill="none" stroke="#000000" cx="327.8241" cy="-153" rx="53.8905" ry="18"/>
<text text-anchor="middle" x="327.8241" y="-149.3" font-family="Times,serif" font-size="14.00" fill="#000000">deliverydata</text>
</g>
<!-- pymedphys_coordsandscales.deliverydata&#45;&gt;pymedphys_coordsandscales.deliverydata.core -->
<g id="edge1" class="edge">
<title>pymedphys_coordsandscales.deliverydata&#45;&gt;pymedphys_coordsandscales.deliverydata.core</title>
<path fill="none" stroke="#000000" d="M382.03,-153C390.2598,-153 398.9032,-153 407.5617,-153"/>
<polygon fill="#000000" stroke="#000000" points="407.7091,-156.5001 417.709,-153 407.709,-149.5001 407.7091,-156.5001"/>
</g>
<!-- pymedphys_analysis.mudensity.api -->
<g id="node3" class="node">
<title>pymedphys_analysis.mudensity.api</title>
<ellipse fill="none" stroke="#000000" cx="118.9394" cy="-288" rx="91.784" ry="18"/>
<text text-anchor="middle" x="118.9394" y="-284.3" font-family="Times,serif" font-size="14.00" fill="#000000">analysis.mudensity.api</text>
</g>
<!-- pymedphys_analysis.mudensity.api&#45;&gt;pymedphys_coordsandscales.deliverydata -->
<g id="edge2" class="edge">
<title>pymedphys_analysis.mudensity.api&#45;&gt;pymedphys_coordsandscales.deliverydata</title>
<path fill="none" stroke="#000000" d="M196.0492,-278.2174C210.6216,-274.2728 225.241,-268.7447 237.8789,-261 270.6761,-240.9013 297.1877,-204.603 312.7184,-179.6773"/>
<polygon fill="#000000" stroke="#000000" points="315.7505,-181.427 317.9347,-171.0597 309.7621,-177.8021 315.7505,-181.427"/>
</g>
<!-- pymedphys_analysis.mudensity.core -->
<g id="node4" class="node">
<title>pymedphys_analysis.mudensity.core</title>
<ellipse fill="none" stroke="#000000" cx="118.9394" cy="-234" rx="96.3833" ry="18"/>
<text text-anchor="middle" x="118.9394" y="-230.3" font-family="Times,serif" font-size="14.00" fill="#000000">analysis.mudensity.core</text>
</g>
<!-- pymedphys_analysis.mudensity.core&#45;&gt;pymedphys_coordsandscales.deliverydata -->
<g id="edge3" class="edge">
<title>pymedphys_analysis.mudensity.core&#45;&gt;pymedphys_coordsandscales.deliverydata</title>
<path fill="none" stroke="#000000" d="M189.8801,-221.7722C205.9609,-217.9413 222.7494,-213.0772 237.8789,-207 258.6038,-198.6752 280.1115,-185.9356 296.8969,-174.9207"/>
<polygon fill="#000000" stroke="#000000" points="298.8535,-177.8228 305.215,-169.3503 294.9585,-172.0065 298.8535,-177.8228"/>
</g>
<!-- pymedphys_databases.msq.delivery -->
<g id="node5" class="node">
<title>pymedphys_databases.msq.delivery</title>
<ellipse fill="none" stroke="#000000" cx="118.9394" cy="-180" rx="92.8835" ry="18"/>
<text text-anchor="middle" x="118.9394" y="-176.3" font-family="Times,serif" font-size="14.00" fill="#000000">databases.msq.delivery</text>
</g>
<!-- pymedphys_databases.msq.delivery&#45;&gt;pymedphys_coordsandscales.deliverydata -->
<g id="edge4" class="edge">
<title>pymedphys_databases.msq.delivery&#45;&gt;pymedphys_coordsandscales.deliverydata</title>
<path fill="none" stroke="#000000" d="M196.4235,-169.9846C219.8834,-166.9522 245.2911,-163.668 267.4558,-160.8031"/>
<polygon fill="#000000" stroke="#000000" points="267.9239,-164.2718 277.3927,-159.5187 267.0265,-157.3295 267.9239,-164.2718"/>
</g>
<!-- pymedphys_fileformats.trf.trf2deliverydata -->
<g id="node6" class="node">
<title>pymedphys_fileformats.trf.trf2deliverydata</title>
<ellipse fill="none" stroke="#000000" cx="118.9394" cy="-126" rx="118.8789" ry="18"/>
<text text-anchor="middle" x="118.9394" y="-122.3" font-family="Times,serif" font-size="14.00" fill="#000000">fileformats.trf.trf2deliverydata</text>
</g>
<!-- pymedphys_fileformats.trf.trf2deliverydata&#45;&gt;pymedphys_coordsandscales.deliverydata -->
<g id="edge5" class="edge">
<title>pymedphys_fileformats.trf.trf2deliverydata&#45;&gt;pymedphys_coordsandscales.deliverydata</title>
<path fill="none" stroke="#000000" d="M209.648,-137.7248C229.1588,-140.2467 249.3203,-142.8528 267.3448,-145.1826"/>
<polygon fill="#000000" stroke="#000000" points="267.0379,-148.6719 277.4041,-146.4828 267.9353,-141.7297 267.0379,-148.6719"/>
</g>
<!-- pymedphys_logfiles.elekta.analyse -->
<g id="node7" class="node">
<title>pymedphys_logfiles.elekta.analyse</title>
<ellipse fill="none" stroke="#000000" cx="118.9394" cy="-72" rx="89.0842" ry="18"/>
<text text-anchor="middle" x="118.9394" y="-68.3" font-family="Times,serif" font-size="14.00" fill="#000000">logfiles.elekta.analyse</text>
</g>
<!-- pymedphys_logfiles.elekta.analyse&#45;&gt;pymedphys_coordsandscales.deliverydata -->
<g id="edge6" class="edge">
<title>pymedphys_logfiles.elekta.analyse&#45;&gt;pymedphys_coordsandscales.deliverydata</title>
<path fill="none" stroke="#000000" d="M187.38,-83.6391C204.2121,-87.5566 221.9635,-92.6071 237.8789,-99 258.6038,-107.3248 280.1115,-120.0644 296.8969,-131.0793"/>
<polygon fill="#000000" stroke="#000000" points="294.9585,-133.9935 305.215,-136.6497 298.8535,-128.1772 294.9585,-133.9935"/>
</g>
<!-- pymedphys_logfiles.elekta.bygantry -->
<g id="node8" class="node">
<title>pymedphys_logfiles.elekta.bygantry</title>
<ellipse fill="none" stroke="#000000" cx="118.9394" cy="-18" rx="94.4839" ry="18"/>
<text text-anchor="middle" x="118.9394" y="-14.3" font-family="Times,serif" font-size="14.00" fill="#000000">logfiles.elekta.bygantry</text>
</g>
<!-- pymedphys_logfiles.elekta.bygantry&#45;&gt;pymedphys_coordsandscales.deliverydata -->
<g id="edge7" class="edge">
<title>pymedphys_logfiles.elekta.bygantry&#45;&gt;pymedphys_coordsandscales.deliverydata</title>
<path fill="none" stroke="#000000" d="M197.2983,-28.1246C211.4553,-32.0449 225.6021,-37.4766 237.8789,-45 270.6761,-65.0987 297.1877,-101.397 312.7184,-126.3227"/>
<polygon fill="#000000" stroke="#000000" points="309.7621,-128.1979 317.9347,-134.9403 315.7505,-124.573 309.7621,-128.1979"/>
</g>
</g>
</svg>
