<?xml version="1.0" encoding="UTF-8" standalone="no"?>
<!DOCTYPE svg PUBLIC "-//W3C//DTD SVG 1.1//EN"
 "http://www.w3.org/Graphics/SVG/1.1/DTD/svg11.dtd">
<!-- Generated by graphviz version 2.40.1 (20161225.0304)
 -->
<!-- Title: %3 Pages: 1 -->
<svg width="339pt" height="152pt"
 viewBox="0.00 0.00 338.88 152.00" xmlns="http://www.w3.org/2000/svg" xmlns:xlink="http://www.w3.org/1999/xlink">
<g id="graph0" class="graph" transform="scale(1 1) rotate(0) translate(4 148)">
<title>%3</title>
<polygon fill="#ffffff" stroke="transparent" points="-4,4 -4,-148 334.8777,-148 334.8777,4 -4,4"/>
<g id="clust2" class="cluster">
<title>cluster_0</title>
<polygon fill="none" stroke="#000000" stroke-dasharray="5,2" points="0,-46 0,-121 128.6932,-121 128.6932,-46 0,-46"/>
<text text-anchor="middle" x="64.3466" y="-105.8" font-family="Times,serif" font-size="14.00" fill="#000000">pymedphys_xlwings</text>
</g>
<!-- pymedphys_utilities.utilities -->
<g id="node1" class="node">
<title>pymedphys_utilities.utilities</title>
<ellipse fill="none" stroke="#000000" cx="243.7855" cy="-126" rx="65.7887" ry="18"/>
<text text-anchor="middle" x="243.7855" y="-122.3" font-family="Times,serif" font-size="14.00" fill="#000000">utilities.utilities</text>
</g>
<!-- pymedphys_dicom.dicom -->
<g id="node2" class="node">
<title>pymedphys_dicom.dicom</title>
<ellipse fill="none" stroke="#000000" cx="243.7855" cy="-72" rx="57.6901" ry="18"/>
<text text-anchor="middle" x="243.7855" y="-68.3" font-family="Times,serif" font-size="14.00" fill="#000000">dicom.dicom</text>
</g>
<!-- pymedphys_fileformats.mephysto -->
<g id="node3" class="node">
<title>pymedphys_fileformats.mephysto</title>
<ellipse fill="none" stroke="#000000" cx="243.7855" cy="-18" rx="87.1846" ry="18"/>
<text text-anchor="middle" x="243.7855" y="-14.3" font-family="Times,serif" font-size="14.00" fill="#000000">fileformats.mephysto</text>
</g>
<!-- pymedphys_xlwings.xlwings -->
<g id="node4" class="node">
<title>pymedphys_xlwings.xlwings</title>
<ellipse fill="none" stroke="#000000" cx="64.3466" cy="-72" rx="38.1938" ry="18"/>
<text text-anchor="middle" x="64.3466" y="-68.3" font-family="Times,serif" font-size="14.00" fill="#000000">xlwings</text>
</g>
<!-- pymedphys_xlwings.xlwings&#45;&gt;pymedphys_utilities.utilities -->
<g id="edge1" class="edge">
<title>pymedphys_xlwings.xlwings&#45;&gt;pymedphys_utilities.utilities</title>
<path fill="none" stroke="#000000" d="M96.8416,-81.779C122.7231,-89.5677 159.5085,-100.6378 189.7988,-109.7533"/>
<polygon fill="#000000" stroke="#000000" points="188.7986,-113.1073 199.383,-112.6376 190.8158,-106.4043 188.7986,-113.1073"/>
</g>
<!-- pymedphys_xlwings.xlwings&#45;&gt;pymedphys_dicom.dicom -->
<g id="edge2" class="edge">
<title>pymedphys_xlwings.xlwings&#45;&gt;pymedphys_dicom.dicom</title>
<path fill="none" stroke="#000000" d="M102.8407,-72C124.1102,-72 151.156,-72 175.8563,-72"/>
<polygon fill="#000000" stroke="#000000" points="175.911,-75.5001 185.911,-72 175.911,-68.5001 175.911,-75.5001"/>
</g>
<!-- pymedphys_xlwings.xlwings&#45;&gt;pymedphys_fileformats.mephysto -->
<g id="edge3" class="edge">
<title>pymedphys_xlwings.xlwings&#45;&gt;pymedphys_fileformats.mephysto</title>
<path fill="none" stroke="#000000" d="M96.8416,-62.221C121.25,-54.8756 155.3564,-44.6117 184.5667,-35.8212"/>
<polygon fill="#000000" stroke="#000000" points="185.6969,-39.1362 194.2641,-32.9029 183.6797,-32.4331 185.6969,-39.1362"/>
</g>
</g>
</svg>
