<?xml version="1.0" encoding="UTF-8" standalone="no"?>
<!DOCTYPE svg PUBLIC "-//W3C//DTD SVG 1.1//EN"
 "http://www.w3.org/Graphics/SVG/1.1/DTD/svg11.dtd">
<!-- Generated by graphviz version 2.40.1 (20161225.0304)
 -->
<!-- Title: %3 Pages: 1 -->
<svg width="601pt" height="110pt"
 viewBox="0.00 0.00 601.06 110.00" xmlns="http://www.w3.org/2000/svg" xmlns:xlink="http://www.w3.org/1999/xlink">
<g id="graph0" class="graph" transform="scale(1 1) rotate(0) translate(4 106)">
<title>%3</title>
<polygon fill="#ffffff" stroke="transparent" points="-4,4 -4,-106 597.0646,-106 597.0646,4 -4,4"/>
<g id="clust3" class="cluster">
<title>cluster_0</title>
<polygon fill="none" stroke="#000000" stroke-dasharray="5,2" points="199.5848,-19 199.5848,-94 337.5848,-94 337.5848,-19 199.5848,-19"/>
<text text-anchor="middle" x="268.5848" y="-78.8" font-family="Times,serif" font-size="14.00" fill="#000000">pymedphys_databases</text>
</g>
<!-- pymedphys_toolbox.plancompare -->
<g id="node1" class="node">
<title>pymedphys_toolbox.plancompare</title>
<ellipse fill="none" stroke="#000000" cx="85.7924" cy="-72" rx="85.5853" ry="18"/>
<text text-anchor="middle" x="85.7924" y="-68.3" font-family="Times,serif" font-size="14.00" fill="#000000">toolbox.plancompare</text>
</g>
<!-- pymedphys_databases.msq -->
<g id="node4" class="node">
<title>pymedphys_databases.msq</title>
<ellipse fill="none" stroke="#000000" cx="268.5848" cy="-45" rx="27" ry="18"/>
<text text-anchor="middle" x="268.5848" y="-41.3" font-family="Times,serif" font-size="14.00" fill="#000000">msq</text>
</g>
<!-- pymedphys_toolbox.plancompare&#45;&gt;pymedphys_databases.msq -->
<g id="edge1" class="edge">
<title>pymedphys_toolbox.plancompare&#45;&gt;pymedphys_databases.msq</title>
<path fill="none" stroke="#000000" d="M156.2032,-61.5997C181.9593,-57.7953 210.0659,-53.6437 231.7278,-50.4441"/>
<polygon fill="#000000" stroke="#000000" points="232.4244,-53.8793 241.8056,-48.9555 231.4015,-46.9544 232.4244,-53.8793"/>
</g>
<!-- pymedphys_logfiles.elekta -->
<g id="node2" class="node">
<title>pymedphys_logfiles.elekta</title>
<ellipse fill="none" stroke="#000000" cx="85.7924" cy="-18" rx="60.3893" ry="18"/>
<text text-anchor="middle" x="85.7924" y="-14.3" font-family="Times,serif" font-size="14.00" fill="#000000">logfiles.elekta</text>
</g>
<!-- pymedphys_logfiles.elekta&#45;&gt;pymedphys_databases.msq -->
<g id="edge3" class="edge">
<title>pymedphys_logfiles.elekta&#45;&gt;pymedphys_databases.msq</title>
<path fill="none" stroke="#000000" d="M140.1412,-26.0278C169.8712,-30.4192 205.8966,-35.7404 232.2194,-39.6285"/>
<polygon fill="#000000" stroke="#000000" points="231.7475,-43.0967 242.1517,-41.0956 232.7705,-36.1719 231.7475,-43.0967"/>
</g>
<!-- pymedphys_coordsandscales.deliverydata -->
<g id="node3" class="node">
<title>pymedphys_coordsandscales.deliverydata</title>
<ellipse fill="none" stroke="#000000" cx="479.3247" cy="-45" rx="113.9803" ry="18"/>
<text text-anchor="middle" x="479.3247" y="-41.3" font-family="Times,serif" font-size="14.00" fill="#000000">coordsandscales.deliverydata</text>
</g>
<!-- pymedphys_databases.msq&#45;&gt;pymedphys_coordsandscales.deliverydata -->
<g id="edge2" class="edge">
<title>pymedphys_databases.msq&#45;&gt;pymedphys_coordsandscales.deliverydata</title>
<path fill="none" stroke="#000000" d="M295.7039,-45C311.5852,-45 332.8995,-45 355.3785,-45"/>
<polygon fill="#000000" stroke="#000000" points="355.4207,-48.5001 365.4207,-45 355.4207,-41.5001 355.4207,-48.5001"/>
</g>
</g>
</svg>
