<?xml version="1.0" encoding="UTF-8" standalone="no"?>
<!DOCTYPE svg PUBLIC "-//W3C//DTD SVG 1.1//EN"
 "http://www.w3.org/Graphics/SVG/1.1/DTD/svg11.dtd">
<!-- Generated by graphviz version 2.40.1 (20161225.0304)
 -->
<!-- Title: %3 Pages: 1 -->
<svg width="337pt" height="207pt"
 viewBox="0.00 0.00 336.88 207.00" xmlns="http://www.w3.org/2000/svg" xmlns:xlink="http://www.w3.org/1999/xlink">
<g id="graph0" class="graph" transform="scale(1 1) rotate(0) translate(4 203)">
<title>%3</title>
<polygon fill="#ffffff" stroke="transparent" points="-4,4 -4,-203 332.8754,-203 332.8754,4 -4,4"/>
<g id="clust2" class="cluster">
<title>cluster_0</title>
<polygon fill="none" stroke="#000000" stroke-dasharray="5,2" points="8,-8 8,-191 156.5882,-191 156.5882,-8 8,-8"/>
<text text-anchor="middle" x="82.2941" y="-175.8" font-family="Times,serif" font-size="14.00" fill="#000000">pymedphys_labs</text>
</g>
<!-- pymedphys_utilities.constants -->
<g id="node1" class="node">
<title>pymedphys_utilities.constants</title>
<ellipse fill="none" stroke="#000000" cx="256.7318" cy="-88" rx="72.2875" ry="18"/>
<text text-anchor="middle" x="256.7318" y="-84.3" font-family="Times,serif" font-size="14.00" fill="#000000">utilities.constants</text>
</g>
<!-- pymedphys_labs.mattsobolewski -->
<g id="node2" class="node">
<title>pymedphys_labs.mattsobolewski</title>
<ellipse fill="none" stroke="#000000" cx="82.2941" cy="-142" rx="66.0889" ry="18"/>
<text text-anchor="middle" x="82.2941" y="-138.3" font-family="Times,serif" font-size="14.00" fill="#000000">mattsobolewski</text>
</g>
<!-- pymedphys_labs.paulking -->
<g id="node3" class="node">
<title>pymedphys_labs.paulking</title>
<ellipse fill="none" stroke="#000000" cx="82.2941" cy="-88" rx="41.6928" ry="18"/>
<text text-anchor="middle" x="82.2941" y="-84.3" font-family="Times,serif" font-size="14.00" fill="#000000">paulking</text>
</g>
<!-- pymedphys_labs.paulking&#45;&gt;pymedphys_utilities.constants -->
<g id="edge1" class="edge">
<title>pymedphys_labs.paulking&#45;&gt;pymedphys_utilities.constants</title>
<path fill="none" stroke="#000000" d="M124.0763,-88C139.1582,-88 156.7549,-88 174.1084,-88"/>
<polygon fill="#000000" stroke="#000000" points="174.2769,-91.5001 184.2769,-88 174.2768,-84.5001 174.2769,-91.5001"/>
</g>
<!-- pymedphys_labs.simonbiggs -->
<g id="node4" class="node">
<title>pymedphys_labs.simonbiggs</title>
<ellipse fill="none" stroke="#000000" cx="82.2941" cy="-34" rx="51.9908" ry="18"/>
<text text-anchor="middle" x="82.2941" y="-30.3" font-family="Times,serif" font-size="14.00" fill="#000000">simonbiggs</text>
</g>
</g>
</svg>
