<?xml version="1.0" encoding="UTF-8" standalone="no"?>
<!DOCTYPE svg PUBLIC "-//W3C//DTD SVG 1.1//EN"
 "http://www.w3.org/Graphics/SVG/1.1/DTD/svg11.dtd">
<!-- Generated by graphviz version 2.40.1 (20161225.0304)
 -->
<!-- Title: %3 Pages: 1 -->
<svg width="473pt" height="192pt"
 viewBox="0.00 0.00 472.87 192.00" xmlns="http://www.w3.org/2000/svg" xmlns:xlink="http://www.w3.org/1999/xlink">
<g id="graph0" class="graph" transform="scale(1 1) rotate(0) translate(4 188)">
<title>%3</title>
<polygon fill="#ffffff" stroke="transparent" points="-4,4 -4,-188 468.8662,-188 468.8662,4 -4,4"/>
<g id="clust1" class="cluster">
<title>cluster_0</title>
<polygon fill="none" stroke="#000000" stroke-dasharray="5,2" points="8,-8 8,-176 456.8662,-176 456.8662,-8 8,-8"/>
<text text-anchor="middle" x="232.4331" y="-160.8" font-family="Times,serif" font-size="14.00" fill="#000000">pymedphys_electronfactors</text>
</g>
<g id="clust2" class="cluster">
<title>cluster_1</title>
<polygon fill="none" stroke="#000000" stroke-dasharray="5,2" points="16,-16 16,-145 448.8662,-145 448.8662,-16 16,-16"/>
<text text-anchor="middle" x="232.4331" y="-129.8" font-family="Times,serif" font-size="14.00" fill="#000000">pymedphys_electronfactors.electronfactors</text>
</g>
<!-- pymedphys_electronfactors.electronfactors.core -->
<g id="node1" class="node">
<title>pymedphys_electronfactors.electronfactors.core</title>
<ellipse fill="none" stroke="#000000" cx="360.2734" cy="-69" rx="80.6858" ry="18"/>
<text text-anchor="middle" x="360.2734" y="-65.3" font-family="Times,serif" font-size="14.00" fill="#000000">electronfactors.core</text>
</g>
<!-- pymedphys_electronfactors.electronfactors -->
<g id="node2" class="node">
<title>pymedphys_electronfactors.electronfactors</title>
<ellipse fill="none" stroke="#000000" cx="133.8403" cy="-96" rx="63.0888" ry="18"/>
<text text-anchor="middle" x="133.8403" y="-92.3" font-family="Times,serif" font-size="14.00" fill="#000000">electronfactors</text>
</g>
<!-- pymedphys_electronfactors.electronfactors&#45;&gt;pymedphys_electronfactors.electronfactors.core -->
<g id="edge1" class="edge">
<title>pymedphys_electronfactors.electronfactors&#45;&gt;pymedphys_electronfactors.electronfactors.core</title>
<path fill="none" stroke="#000000" d="M192.1524,-89.0468C218.526,-85.902 250.1444,-82.1318 278.8085,-78.7139"/>
<polygon fill="#000000" stroke="#000000" points="279.2954,-82.1807 288.8107,-77.5212 278.4666,-75.23 279.2954,-82.1807"/>
</g>
<!-- pymedphys_electronfactors.electronfactors.visualisation -->
<g id="node3" class="node">
<title>pymedphys_electronfactors.electronfactors.visualisation</title>
<ellipse fill="none" stroke="#000000" cx="133.8403" cy="-42" rx="109.6807" ry="18"/>
<text text-anchor="middle" x="133.8403" y="-38.3" font-family="Times,serif" font-size="14.00" fill="#000000">electronfactors.visualisation</text>
</g>
<!-- pymedphys_electronfactors.electronfactors.visualisation&#45;&gt;pymedphys_electronfactors.electronfactors.core -->
<g id="edge2" class="edge">
<title>pymedphys_electronfactors.electronfactors.visualisation&#45;&gt;pymedphys_electronfactors.electronfactors.core</title>
<path fill="none" stroke="#000000" d="M222.6827,-52.5936C241.2909,-54.8125 260.8212,-57.1413 279.1316,-59.3246"/>
<polygon fill="#000000" stroke="#000000" points="278.8208,-62.8123 289.1649,-60.521 279.6497,-55.8615 278.8208,-62.8123"/>
</g>
</g>
</svg>
