<?xml version="1.0" encoding="UTF-8" standalone="no"?>
<!DOCTYPE svg PUBLIC "-//W3C//DTD SVG 1.1//EN"
 "http://www.w3.org/Graphics/SVG/1.1/DTD/svg11.dtd">
<!-- Generated by graphviz version 2.40.1 (20161225.0304)
 -->
<!-- Title: %3 Pages: 1 -->
<svg width="719pt" height="276pt"
 viewBox="0.00 0.00 718.55 276.00" xmlns="http://www.w3.org/2000/svg" xmlns:xlink="http://www.w3.org/1999/xlink">
<g id="graph0" class="graph" transform="scale(1 1) rotate(0) translate(4 272)">
<title>%3</title>
<polygon fill="#ffffff" stroke="transparent" points="-4,4 -4,-272 714.5513,-272 714.5513,4 -4,4"/>
<g id="clust1" class="cluster">
<title>cluster_0</title>
<polygon fill="none" stroke="#000000" stroke-dasharray="5,2" points="226.6817,-92 226.6817,-260 673.906,-260 673.906,-92 226.6817,-92"/>
<text text-anchor="middle" x="450.2938" y="-244.8" font-family="Times,serif" font-size="14.00" fill="#000000">pymedphys_databases</text>
</g>
<g id="clust2" class="cluster">
<title>cluster_1</title>
<polygon fill="none" stroke="#000000" stroke-dasharray="5,2" points="234.6817,-100 234.6817,-229 665.906,-229 665.906,-100 234.6817,-100"/>
<text text-anchor="middle" x="450.2938" y="-213.8" font-family="Times,serif" font-size="14.00" fill="#000000">pymedphys_databases.msq</text>
</g>
<!-- pymedphys_databases.msq.connect -->
<g id="node1" class="node">
<title>pymedphys_databases.msq.connect</title>
<ellipse fill="none" stroke="#000000" cx="596.8114" cy="-126" rx="55.7903" ry="18"/>
<text text-anchor="middle" x="596.8114" y="-122.3" font-family="Times,serif" font-size="14.00" fill="#000000">msq.connect</text>
</g>
<!-- pymedphys_databases.msq.constants -->
<g id="node2" class="node">
<title>pymedphys_databases.msq.constants</title>
<ellipse fill="none" stroke="#000000" cx="596.8114" cy="-180" rx="61.1893" ry="18"/>
<text text-anchor="middle" x="596.8114" y="-176.3" font-family="Times,serif" font-size="14.00" fill="#000000">msq.constants</text>
</g>
<!-- pymedphys_databases.msq.delivery -->
<g id="node3" class="node">
<title>pymedphys_databases.msq.delivery</title>
<ellipse fill="none" stroke="#000000" cx="389.8766" cy="-126" rx="57.3905" ry="18"/>
<text text-anchor="middle" x="389.8766" y="-122.3" font-family="Times,serif" font-size="14.00" fill="#000000">msq.delivery</text>
</g>
<!-- pymedphys_databases.msq.delivery&#45;&gt;pymedphys_databases.msq.connect -->
<g id="edge1" class="edge">
<title>pymedphys_databases.msq.delivery&#45;&gt;pymedphys_databases.msq.connect</title>
<path fill="none" stroke="#000000" d="M447.2447,-126C473.1238,-126 503.8394,-126 530.6827,-126"/>
<polygon fill="#000000" stroke="#000000" points="530.7629,-129.5001 540.7629,-126 530.7628,-122.5001 530.7629,-129.5001"/>
</g>
<!-- pymedphys_databases.msq.delivery&#45;&gt;pymedphys_databases.msq.constants -->
<g id="edge2" class="edge">
<title>pymedphys_databases.msq.delivery&#45;&gt;pymedphys_databases.msq.constants</title>
<path fill="none" stroke="#000000" d="M431.5088,-138.5333C447.5732,-143.2454 466.1304,-148.538 483.0715,-153 500.8721,-157.6883 520.3365,-162.4437 538.0514,-166.6302"/>
<polygon fill="#000000" stroke="#000000" points="537.7185,-170.1471 548.2536,-169.0245 539.3179,-163.3322 537.7185,-170.1471"/>
</g>
<!-- pymedphys_coordsandscales.deliverydata -->
<g id="node6" class="node">
<title>pymedphys_coordsandscales.deliverydata</title>
<ellipse fill="none" stroke="#000000" cx="596.8114" cy="-66" rx="113.9803" ry="18"/>
<text text-anchor="middle" x="596.8114" y="-62.3" font-family="Times,serif" font-size="14.00" fill="#000000">coordsandscales.deliverydata</text>
</g>
<!-- pymedphys_databases.msq.delivery&#45;&gt;pymedphys_coordsandscales.deliverydata -->
<g id="edge3" class="edge">
<title>pymedphys_databases.msq.delivery&#45;&gt;pymedphys_coordsandscales.deliverydata</title>
<path fill="none" stroke="#000000" d="M429.1839,-112.8314C445.7553,-107.414 465.29,-101.203 483.0715,-96 497.0855,-91.8994 512.1439,-87.7492 526.57,-83.8969"/>
<polygon fill="#000000" stroke="#000000" points="527.6663,-87.2273 536.4357,-81.2819 525.8728,-80.461 527.6663,-87.2273"/>
</g>
<!-- pymedphys_databases.msq.helpers -->
<g id="node4" class="node">
<title>pymedphys_databases.msq.helpers</title>
<ellipse fill="none" stroke="#000000" cx="389.8766" cy="-180" rx="53.8905" ry="18"/>
<text text-anchor="middle" x="389.8766" y="-176.3" font-family="Times,serif" font-size="14.00" fill="#000000">msq.helpers</text>
</g>
<!-- pymedphys_databases.msq.helpers&#45;&gt;pymedphys_databases.msq.connect -->
<g id="edge4" class="edge">
<title>pymedphys_databases.msq.helpers&#45;&gt;pymedphys_databases.msq.connect</title>
<path fill="none" stroke="#000000" d="M430.125,-167.8729C446.5012,-163.0607 465.6418,-157.5907 483.0715,-153 501.9534,-148.0269 522.7075,-142.9783 541.2596,-138.6133"/>
<polygon fill="#000000" stroke="#000000" points="542.0846,-142.0149 551.0254,-136.3306 540.4912,-135.1987 542.0846,-142.0149"/>
</g>
<!-- pymedphys_databases.msq.helpers&#45;&gt;pymedphys_databases.msq.constants -->
<g id="edge5" class="edge">
<title>pymedphys_databases.msq.helpers&#45;&gt;pymedphys_databases.msq.constants</title>
<path fill="none" stroke="#000000" d="M443.976,-180C468.8235,-180 498.6326,-180 525.3009,-180"/>
<polygon fill="#000000" stroke="#000000" points="525.3511,-183.5001 535.3511,-180 525.3511,-176.5001 525.3511,-183.5001"/>
</g>
<!-- pymedphys_databases.msq -->
<g id="node5" class="node">
<title>pymedphys_databases.msq</title>
<ellipse fill="none" stroke="#000000" cx="269.6817" cy="-126" rx="27" ry="18"/>
<text text-anchor="middle" x="269.6817" y="-122.3" font-family="Times,serif" font-size="14.00" fill="#000000">msq</text>
</g>
<!-- pymedphys_databases.msq&#45;&gt;pymedphys_databases.msq.delivery -->
<g id="edge6" class="edge">
<title>pymedphys_databases.msq&#45;&gt;pymedphys_databases.msq.delivery</title>
<path fill="none" stroke="#000000" d="M296.9557,-126C304.605,-126 313.2775,-126 322.1761,-126"/>
<polygon fill="#000000" stroke="#000000" points="322.2765,-129.5001 332.2764,-126 322.2764,-122.5001 322.2765,-129.5001"/>
</g>
<!-- pymedphys_logfiles.elekta.identify -->
<g id="node7" class="node">
<title>pymedphys_logfiles.elekta.identify</title>
<ellipse fill="none" stroke="#000000" cx="103.3408" cy="-234" rx="90.1842" ry="18"/>
<text text-anchor="middle" x="103.3408" y="-230.3" font-family="Times,serif" font-size="14.00" fill="#000000">logfiles.elekta.identify</text>
</g>
<!-- pymedphys_logfiles.elekta.identify&#45;&gt;pymedphys_databases.msq -->
<g id="edge7" class="edge">
<title>pymedphys_logfiles.elekta.identify&#45;&gt;pymedphys_databases.msq</title>
<path fill="none" stroke="#000000" d="M173.0001,-222.5005C184.8226,-218.714 196.5398,-213.6832 206.6817,-207 227.5833,-193.2264 244.5194,-170.1714 255.5464,-152.1726"/>
<polygon fill="#000000" stroke="#000000" points="258.7133,-153.6917 260.7639,-143.2972 252.6787,-150.1442 258.7133,-153.6917"/>
</g>
<!-- pymedphys_logfiles.elekta.index -->
<g id="node8" class="node">
<title>pymedphys_logfiles.elekta.index</title>
<ellipse fill="none" stroke="#000000" cx="103.3408" cy="-180" rx="82.5854" ry="18"/>
<text text-anchor="middle" x="103.3408" y="-176.3" font-family="Times,serif" font-size="14.00" fill="#000000">logfiles.elekta.index</text>
</g>
<!-- pymedphys_logfiles.elekta.index&#45;&gt;pymedphys_databases.msq -->
<g id="edge8" class="edge">
<title>pymedphys_logfiles.elekta.index&#45;&gt;pymedphys_databases.msq</title>
<path fill="none" stroke="#000000" d="M159.8416,-166.8647C175.1767,-162.8596 191.6837,-158.1409 206.6817,-153 217.1741,-149.4034 228.378,-144.8465 238.3841,-140.5053"/>
<polygon fill="#000000" stroke="#000000" points="239.8216,-143.6966 247.5483,-136.4476 236.9875,-137.2959 239.8216,-143.6966"/>
</g>
<!-- pymedphys_logfiles.elekta.analyse -->
<g id="node9" class="node">
<title>pymedphys_logfiles.elekta.analyse</title>
<ellipse fill="none" stroke="#000000" cx="103.3408" cy="-126" rx="89.0842" ry="18"/>
<text text-anchor="middle" x="103.3408" y="-122.3" font-family="Times,serif" font-size="14.00" fill="#000000">logfiles.elekta.analyse</text>
</g>
<!-- pymedphys_logfiles.elekta.analyse&#45;&gt;pymedphys_databases.msq -->
<g id="edge9" class="edge">
<title>pymedphys_logfiles.elekta.analyse&#45;&gt;pymedphys_databases.msq</title>
<path fill="none" stroke="#000000" d="M192.841,-126C206.7355,-126 220.393,-126 232.2504,-126"/>
<polygon fill="#000000" stroke="#000000" points="232.5889,-129.5001 242.5888,-126 232.5888,-122.5001 232.5889,-129.5001"/>
</g>
<!-- pymedphys_logfiles.elekta.bygantry -->
<g id="node10" class="node">
<title>pymedphys_logfiles.elekta.bygantry</title>
<ellipse fill="none" stroke="#000000" cx="103.3408" cy="-72" rx="94.4839" ry="18"/>
<text text-anchor="middle" x="103.3408" y="-68.3" font-family="Times,serif" font-size="14.00" fill="#000000">logfiles.elekta.bygantry</text>
</g>
<!-- pymedphys_logfiles.elekta.bygantry&#45;&gt;pymedphys_databases.msq -->
<g id="edge10" class="edge">
<title>pymedphys_logfiles.elekta.bygantry&#45;&gt;pymedphys_databases.msq</title>
<path fill="none" stroke="#000000" d="M163.0865,-85.989C177.4861,-89.8047 192.7362,-94.2198 206.6817,-99 217.1741,-102.5966 228.378,-107.1535 238.3841,-111.4947"/>
<polygon fill="#000000" stroke="#000000" points="236.9875,-114.7041 247.5483,-115.5524 239.8216,-108.3034 236.9875,-114.7041"/>
</g>
<!-- pymedphys_toolbox.plancompare.core -->
<g id="node11" class="node">
<title>pymedphys_toolbox.plancompare.core</title>
<ellipse fill="none" stroke="#000000" cx="103.3408" cy="-18" rx="103.1819" ry="18"/>
<text text-anchor="middle" x="103.3408" y="-14.3" font-family="Times,serif" font-size="14.00" fill="#000000">toolbox.plancompare.core</text>
</g>
<!-- pymedphys_toolbox.plancompare.core&#45;&gt;pymedphys_databases.msq -->
<g id="edge11" class="edge">
<title>pymedphys_toolbox.plancompare.core&#45;&gt;pymedphys_databases.msq</title>
<path fill="none" stroke="#000000" d="M176.7851,-30.7566C187.309,-34.3801 197.6236,-39.031 206.6817,-45 227.5833,-58.7736 244.5194,-81.8286 255.5464,-99.8274"/>
<polygon fill="#000000" stroke="#000000" points="252.6787,-101.8558 260.7639,-108.7028 258.7133,-98.3083 252.6787,-101.8558"/>
</g>
</g>
</svg>
