<?xml version="1.0" encoding="UTF-8" standalone="no"?>
<!DOCTYPE svg PUBLIC "-//W3C//DTD SVG 1.1//EN"
 "http://www.w3.org/Graphics/SVG/1.1/DTD/svg11.dtd">
<!-- Generated by graphviz version 2.40.1 (20161225.0304)
 -->
<!-- Title: %3 Pages: 1 -->
<svg width="392pt" height="444pt"
 viewBox="0.00 0.00 391.97 444.00" xmlns="http://www.w3.org/2000/svg" xmlns:xlink="http://www.w3.org/1999/xlink">
<g id="graph0" class="graph" transform="scale(1 1) rotate(0) translate(4 440)">
<title>%3</title>
<polygon fill="#ffffff" stroke="transparent" points="-4,4 -4,-440 387.9723,-440 387.9723,4 -4,4"/>
<!-- dicom -->
<g id="node1" class="node">
<title>dicom</title>
<ellipse fill="none" stroke="#000000" cx="316.3783" cy="-133" rx="33.2948" ry="18"/>
<text text-anchor="middle" x="316.3783" y="-129.3" font-family="Times,serif" font-size="14.00" fill="#000000">dicom</text>
</g>
<!-- coordsandscales -->
<g id="node2" class="node">
<title>coordsandscales</title>
<ellipse fill="none" stroke="#000000" cx="316.3783" cy="-202" rx="67.6881" ry="18"/>
<text text-anchor="middle" x="316.3783" y="-198.3" font-family="Times,serif" font-size="14.00" fill="#000000">coordsandscales</text>
</g>
<!-- utilities -->
<g id="node3" class="node">
<title>utilities</title>
<ellipse fill="none" stroke="#000000" cx="316.3783" cy="-64" rx="37.0935" ry="18"/>
<text text-anchor="middle" x="316.3783" y="-60.3" font-family="Times,serif" font-size="14.00" fill="#000000">utilities</text>
</g>
<!-- workshops -->
<g id="node4" class="node">
<title>workshops</title>
<ellipse fill="none" stroke="#000000" cx="316.3783" cy="-256" rx="48.9926" ry="18"/>
<text text-anchor="middle" x="316.3783" y="-252.3" font-family="Times,serif" font-size="14.00" fill="#000000">workshops</text>
</g>
<!-- sphinxtheme -->
<g id="node5" class="node">
<title>sphinxtheme</title>
<ellipse fill="none" stroke="#000000" cx="316.3783" cy="-310" rx="55.7903" ry="18"/>
<text text-anchor="middle" x="316.3783" y="-306.3" font-family="Times,serif" font-size="14.00" fill="#000000">sphinxtheme</text>
</g>
<!-- monomanage -->
<g id="node6" class="node">
<title>monomanage</title>
<ellipse fill="none" stroke="#000000" cx="316.3783" cy="-364" rx="59.2899" ry="18"/>
<text text-anchor="middle" x="316.3783" y="-360.3" font-family="Times,serif" font-size="14.00" fill="#000000">monomanage</text>
</g>
<!-- electronfactors -->
<g id="node7" class="node">
<title>electronfactors</title>
<ellipse fill="none" stroke="#000000" cx="316.3783" cy="-418" rx="63.0888" ry="18"/>
<text text-anchor="middle" x="316.3783" y="-414.3" font-family="Times,serif" font-size="14.00" fill="#000000">electronfactors</text>
</g>
<!-- fileformats -->
<g id="node8" class="node">
<title>fileformats</title>
<ellipse fill="none" stroke="#000000" cx="162.7388" cy="-148" rx="50.0912" ry="18"/>
<text text-anchor="middle" x="162.7388" y="-144.3" font-family="Times,serif" font-size="14.00" fill="#000000">fileformats</text>
</g>
<!-- fileformats&#45;&gt;coordsandscales -->
<g id="edge1" class="edge">
<title>fileformats&#45;&gt;coordsandscales</title>
<path fill="none" stroke="#000000" d="M198.7604,-160.6606C218.7709,-167.6937 243.9844,-176.5556 265.9299,-184.2688"/>
<polygon fill="#000000" stroke="#000000" points="264.8356,-187.594 275.4304,-187.608 267.1567,-180.99 264.8356,-187.594"/>
</g>
<!-- analysis -->
<g id="node9" class="node">
<title>analysis</title>
<ellipse fill="none" stroke="#000000" cx="162.7388" cy="-202" rx="38.9931" ry="18"/>
<text text-anchor="middle" x="162.7388" y="-198.3" font-family="Times,serif" font-size="14.00" fill="#000000">analysis</text>
</g>
<!-- analysis&#45;&gt;dicom -->
<g id="edge2" class="edge">
<title>analysis&#45;&gt;dicom</title>
<path fill="none" stroke="#000000" d="M190.9186,-189.3443C216.3363,-177.9292 253.8229,-161.0938 281.1989,-148.7992"/>
<polygon fill="#000000" stroke="#000000" points="282.7357,-151.9458 290.4241,-144.6561 279.8679,-145.5602 282.7357,-151.9458"/>
</g>
<!-- analysis&#45;&gt;coordsandscales -->
<g id="edge3" class="edge">
<title>analysis&#45;&gt;coordsandscales</title>
<path fill="none" stroke="#000000" d="M201.906,-202C213.1303,-202 225.7794,-202 238.4682,-202"/>
<polygon fill="#000000" stroke="#000000" points="238.6264,-205.5001 248.6264,-202 238.6264,-198.5001 238.6264,-205.5001"/>
</g>
<!-- analysis&#45;&gt;utilities -->
<g id="edge4" class="edge">
<title>analysis&#45;&gt;utilities</title>
<path fill="none" stroke="#000000" d="M192.0091,-189.9505C199.3952,-185.9584 206.8919,-180.9746 212.7843,-175 237.0727,-150.3724 225.261,-131.3594 248.7843,-106 257.7551,-96.329 269.4365,-88.0297 280.5588,-81.4241"/>
<polygon fill="#000000" stroke="#000000" points="282.3059,-84.4572 289.2964,-76.4958 278.8669,-78.3601 282.3059,-84.4572"/>
</g>
<!-- databases -->
<g id="node10" class="node">
<title>databases</title>
<ellipse fill="none" stroke="#000000" cx="162.7388" cy="-256" rx="44.393" ry="18"/>
<text text-anchor="middle" x="162.7388" y="-252.3" font-family="Times,serif" font-size="14.00" fill="#000000">databases</text>
</g>
<!-- databases&#45;&gt;coordsandscales -->
<g id="edge5" class="edge">
<title>databases&#45;&gt;coordsandscales</title>
<path fill="none" stroke="#000000" d="M196.4556,-244.1495C216.7832,-237.0049 243.0642,-227.7679 265.8404,-219.7627"/>
<polygon fill="#000000" stroke="#000000" points="267.0858,-223.0349 275.3595,-216.417 264.7647,-216.4309 267.0858,-223.0349"/>
</g>
<!-- labs -->
<g id="node11" class="node">
<title>labs</title>
<ellipse fill="none" stroke="#000000" cx="162.7388" cy="-18" rx="27" ry="18"/>
<text text-anchor="middle" x="162.7388" y="-14.3" font-family="Times,serif" font-size="14.00" fill="#000000">labs</text>
</g>
<!-- labs&#45;&gt;utilities -->
<g id="edge6" class="edge">
<title>labs&#45;&gt;utilities</title>
<path fill="none" stroke="#000000" d="M187.4236,-25.3907C210.9943,-32.4478 246.9638,-43.2172 274.9311,-51.5906"/>
<polygon fill="#000000" stroke="#000000" points="274.2513,-55.0405 284.835,-54.5559 276.2591,-48.3346 274.2513,-55.0405"/>
</g>
<!-- xlwings -->
<g id="node12" class="node">
<title>xlwings</title>
<ellipse fill="none" stroke="#000000" cx="38.3466" cy="-102" rx="38.1938" ry="18"/>
<text text-anchor="middle" x="38.3466" y="-98.3" font-family="Times,serif" font-size="14.00" fill="#000000">xlwings</text>
</g>
<!-- xlwings&#45;&gt;dicom -->
<g id="edge7" class="edge">
<title>xlwings&#45;&gt;dicom</title>
<path fill="none" stroke="#000000" d="M75.785,-106.0031C111.1139,-109.7984 165.5586,-115.6929 212.7843,-121 232.823,-123.2519 255.0335,-125.8157 273.7333,-127.9938"/>
<polygon fill="#000000" stroke="#000000" points="273.3865,-131.477 283.7248,-129.1597 274.1979,-124.5241 273.3865,-131.477"/>
</g>
<!-- xlwings&#45;&gt;utilities -->
<g id="edge8" class="edge">
<title>xlwings&#45;&gt;utilities</title>
<path fill="none" stroke="#000000" d="M75.2671,-96.9539C125.641,-90.069 215.8759,-77.7362 270.5248,-70.267"/>
<polygon fill="#000000" stroke="#000000" points="271.1935,-73.7083 280.6274,-68.8863 270.2455,-66.7727 271.1935,-73.7083"/>
</g>
<!-- xlwings&#45;&gt;fileformats -->
<g id="edge9" class="edge">
<title>xlwings&#45;&gt;fileformats</title>
<path fill="none" stroke="#000000" d="M68.7763,-113.2529C83.6875,-118.767 101.9285,-125.5125 118.3581,-131.5881"/>
<polygon fill="#000000" stroke="#000000" points="117.1903,-134.8878 127.7835,-135.0736 119.6182,-128.3224 117.1903,-134.8878"/>
</g>
<!-- toolbox -->
<g id="node13" class="node">
<title>toolbox</title>
<ellipse fill="none" stroke="#000000" cx="38.3466" cy="-256" rx="37.8943" ry="18"/>
<text text-anchor="middle" x="38.3466" y="-252.3" font-family="Times,serif" font-size="14.00" fill="#000000">toolbox</text>
</g>
<!-- toolbox&#45;&gt;analysis -->
<g id="edge10" class="edge">
<title>toolbox&#45;&gt;analysis</title>
<path fill="none" stroke="#000000" d="M66.2626,-243.8813C83.543,-236.3798 105.9575,-226.6494 124.8317,-218.4559"/>
<polygon fill="#000000" stroke="#000000" points="126.2738,-221.6455 134.053,-214.4528 123.4863,-215.2244 126.2738,-221.6455"/>
</g>
<!-- toolbox&#45;&gt;databases -->
<g id="edge11" class="edge">
<title>toolbox&#45;&gt;databases</title>
<path fill="none" stroke="#000000" d="M76.3443,-256C86.4151,-256 97.4888,-256 108.2498,-256"/>
<polygon fill="#000000" stroke="#000000" points="108.4284,-259.5001 118.4284,-256 108.4284,-252.5001 108.4284,-259.5001"/>
</g>
<!-- logfiles -->
<g id="node14" class="node">
<title>logfiles</title>
<ellipse fill="none" stroke="#000000" cx="38.3466" cy="-202" rx="37.0935" ry="18"/>
<text text-anchor="middle" x="38.3466" y="-198.3" font-family="Times,serif" font-size="14.00" fill="#000000">logfiles</text>
</g>
<!-- logfiles&#45;&gt;fileformats -->
<g id="edge12" class="edge">
<title>logfiles&#45;&gt;fileformats</title>
<path fill="none" stroke="#000000" d="M66.2626,-189.8813C82.4881,-182.8377 103.2401,-173.829 121.3376,-165.9727"/>
<polygon fill="#000000" stroke="#000000" points="122.7422,-169.1786 130.5214,-161.9859 119.9547,-162.7575 122.7422,-169.1786"/>
</g>
<!-- logfiles&#45;&gt;analysis -->
<g id="edge13" class="edge">
<title>logfiles&#45;&gt;analysis</title>
<path fill="none" stroke="#000000" d="M75.6683,-202C87.521,-202 100.8167,-202 113.3815,-202"/>
<polygon fill="#000000" stroke="#000000" points="113.7163,-205.5001 123.7163,-202 113.7162,-198.5001 113.7163,-205.5001"/>
</g>
<!-- logfiles&#45;&gt;databases -->
<g id="edge14" class="edge">
<title>logfiles&#45;&gt;databases</title>
<path fill="none" stroke="#000000" d="M66.2626,-214.1187C82.9761,-221.3742 104.4924,-230.7146 122.963,-238.7329"/>
<polygon fill="#000000" stroke="#000000" points="121.7361,-242.0158 132.3028,-242.7874 124.5236,-235.5947 121.7361,-242.0158"/>
</g>
</g>
</svg>
