<?xml version="1.0" encoding="UTF-8" standalone="no"?>
<!DOCTYPE svg PUBLIC "-//W3C//DTD SVG 1.1//EN"
 "http://www.w3.org/Graphics/SVG/1.1/DTD/svg11.dtd">
<!-- Generated by graphviz version 2.40.1 (20161225.0304)
 -->
<!-- Title: %3 Pages: 1 -->
<svg width="402pt" height="195pt"
 viewBox="0.00 0.00 402.47 195.00" xmlns="http://www.w3.org/2000/svg" xmlns:xlink="http://www.w3.org/1999/xlink">
<g id="graph0" class="graph" transform="scale(1 1) rotate(0) translate(4 191)">
<title>%3</title>
<polygon fill="#ffffff" stroke="transparent" points="-4,4 -4,-191 398.4729,-191 398.4729,4 -4,4"/>
<g id="clust1" class="cluster">
<title>cluster_0</title>
<polygon fill="none" stroke="#000000" stroke-dasharray="5,2" points="0,-11 0,-179 217.1869,-179 217.1869,-11 0,-11"/>
<text text-anchor="middle" x="108.5934" y="-163.8" font-family="Times,serif" font-size="14.00" fill="#000000">pymedphys_toolbox</text>
</g>
<g id="clust2" class="cluster">
<title>cluster_1</title>
<polygon fill="none" stroke="#000000" stroke-dasharray="5,2" points="8,-19 8,-148 209.1869,-148 209.1869,-19 8,-19"/>
<text text-anchor="middle" x="108.5934" y="-132.8" font-family="Times,serif" font-size="14.00" fill="#000000">pymedphys_toolbox.plancompare</text>
</g>
<!-- pymedphys_toolbox.plancompare -->
<g id="node1" class="node">
<title>pymedphys_toolbox.plancompare</title>
<ellipse fill="none" stroke="#000000" cx="108.0934" cy="-99" rx="56.59" ry="18"/>
<text text-anchor="middle" x="108.0934" y="-95.3" font-family="Times,serif" font-size="14.00" fill="#000000">plancompare</text>
</g>
<!-- pymedphys_toolbox.plancompare.core -->
<g id="node2" class="node">
<title>pymedphys_toolbox.plancompare.core</title>
<ellipse fill="none" stroke="#000000" cx="108.0934" cy="-45" rx="74.187" ry="18"/>
<text text-anchor="middle" x="108.0934" y="-41.3" font-family="Times,serif" font-size="14.00" fill="#000000">plancompare.core</text>
</g>
<!-- pymedphys_databases.msq -->
<g id="node3" class="node">
<title>pymedphys_databases.msq</title>
<ellipse fill="none" stroke="#000000" cx="315.8299" cy="-72" rx="61.99" ry="18"/>
<text text-anchor="middle" x="315.8299" y="-68.3" font-family="Times,serif" font-size="14.00" fill="#000000">databases.msq</text>
</g>
<!-- pymedphys_toolbox.plancompare.core&#45;&gt;pymedphys_databases.msq -->
<g id="edge1" class="edge">
<title>pymedphys_toolbox.plancompare.core&#45;&gt;pymedphys_databases.msq</title>
<path fill="none" stroke="#000000" d="M173.5374,-53.5059C197.5759,-56.6303 224.8108,-60.17 248.9719,-63.3103"/>
<polygon fill="#000000" stroke="#000000" points="248.7525,-66.8111 259.1202,-64.6293 249.6548,-59.8695 248.7525,-66.8111"/>
</g>
<!-- pymedphys_analysis.mudensity -->
<g id="node4" class="node">
<title>pymedphys_analysis.mudensity</title>
<ellipse fill="none" stroke="#000000" cx="315.8299" cy="-18" rx="78.7863" ry="18"/>
<text text-anchor="middle" x="315.8299" y="-14.3" font-family="Times,serif" font-size="14.00" fill="#000000">analysis.mudensity</text>
</g>
<!-- pymedphys_toolbox.plancompare.core&#45;&gt;pymedphys_analysis.mudensity -->
<g id="edge2" class="edge">
<title>pymedphys_toolbox.plancompare.core&#45;&gt;pymedphys_analysis.mudensity</title>
<path fill="none" stroke="#000000" d="M173.5374,-36.4941C193.6717,-33.8772 216.0484,-30.9688 236.9831,-28.2479"/>
<polygon fill="#000000" stroke="#000000" points="237.6628,-31.6891 247.1282,-26.9293 236.7605,-24.7475 237.6628,-31.6891"/>
</g>
</g>
</svg>
