<?xml version="1.0" encoding="UTF-8" standalone="no"?>
<!DOCTYPE svg PUBLIC "-//W3C//DTD SVG 1.1//EN"
 "http://www.w3.org/Graphics/SVG/1.1/DTD/svg11.dtd">
<!-- Generated by graphviz version 2.40.1 (20161225.0304)
 -->
<!-- Title: %3 Pages: 1 -->
<svg width="700pt" height="291pt"
 viewBox="0.00 0.00 699.65 291.00" xmlns="http://www.w3.org/2000/svg" xmlns:xlink="http://www.w3.org/1999/xlink">
<g id="graph0" class="graph" transform="scale(1 1) rotate(0) translate(4 287)">
<title>%3</title>
<polygon fill="#ffffff" stroke="transparent" points="-4,4 -4,-287 695.6482,-287 695.6482,4 -4,4"/>
<g id="clust3" class="cluster">
<title>cluster_0</title>
<polygon fill="none" stroke="#000000" stroke-dasharray="5,2" points="199.5848,-92 199.5848,-275 436.1684,-275 436.1684,-92 199.5848,-92"/>
<text text-anchor="middle" x="317.8766" y="-259.8" font-family="Times,serif" font-size="14.00" fill="#000000">pymedphys_analysis</text>
</g>
<!-- pymedphys_toolbox.plancompare -->
<g id="node1" class="node">
<title>pymedphys_toolbox.plancompare</title>
<ellipse fill="none" stroke="#000000" cx="85.7924" cy="-145" rx="85.5853" ry="18"/>
<text text-anchor="middle" x="85.7924" y="-141.3" font-family="Times,serif" font-size="14.00" fill="#000000">toolbox.plancompare</text>
</g>
<!-- pymedphys_analysis.mudensity -->
<g id="node9" class="node">
<title>pymedphys_analysis.mudensity</title>
<ellipse fill="none" stroke="#000000" cx="255.6805" cy="-118" rx="48.1917" ry="18"/>
<text text-anchor="middle" x="255.6805" y="-114.3" font-family="Times,serif" font-size="14.00" fill="#000000">mudensity</text>
</g>
<!-- pymedphys_toolbox.plancompare&#45;&gt;pymedphys_analysis.mudensity -->
<g id="edge6" class="edge">
<title>pymedphys_toolbox.plancompare&#45;&gt;pymedphys_analysis.mudensity</title>
<path fill="none" stroke="#000000" d="M154.4027,-134.0959C169.9659,-131.6225 186.2894,-129.0282 201.1756,-126.6624"/>
<polygon fill="#000000" stroke="#000000" points="201.8981,-130.0916 211.2247,-125.0653 200.7993,-123.1783 201.8981,-130.0916"/>
</g>
<!-- pymedphys_logfiles.elekta -->
<g id="node2" class="node">
<title>pymedphys_logfiles.elekta</title>
<ellipse fill="none" stroke="#000000" cx="85.7924" cy="-91" rx="60.3893" ry="18"/>
<text text-anchor="middle" x="85.7924" y="-87.3" font-family="Times,serif" font-size="14.00" fill="#000000">logfiles.elekta</text>
</g>
<!-- pymedphys_logfiles.elekta&#45;&gt;pymedphys_analysis.mudensity -->
<g id="edge7" class="edge">
<title>pymedphys_logfiles.elekta&#45;&gt;pymedphys_analysis.mudensity</title>
<path fill="none" stroke="#000000" d="M139.5461,-99.543C159.2479,-102.6742 181.5494,-106.2185 201.3054,-109.3583"/>
<polygon fill="#000000" stroke="#000000" points="200.9517,-112.8459 211.3771,-110.9589 202.0505,-105.9327 200.9517,-112.8459"/>
</g>
<!-- pymedphys_dicom.dicom -->
<g id="node3" class="node">
<title>pymedphys_dicom.dicom</title>
<ellipse fill="none" stroke="#000000" cx="577.9083" cy="-199" rx="57.6901" ry="18"/>
<text text-anchor="middle" x="577.9083" y="-195.3" font-family="Times,serif" font-size="14.00" fill="#000000">dicom.dicom</text>
</g>
<!-- pymedphys_coordsandscales.deliverydata -->
<g id="node4" class="node">
<title>pymedphys_coordsandscales.deliverydata</title>
<ellipse fill="none" stroke="#000000" cx="577.9083" cy="-72" rx="113.9803" ry="18"/>
<text text-anchor="middle" x="577.9083" y="-68.3" font-family="Times,serif" font-size="14.00" fill="#000000">coordsandscales.deliverydata</text>
</g>
<!-- pymedphys_utilities.constants -->
<g id="node5" class="node">
<title>pymedphys_utilities.constants</title>
<ellipse fill="none" stroke="#000000" cx="577.9083" cy="-18" rx="72.2875" ry="18"/>
<text text-anchor="middle" x="577.9083" y="-14.3" font-family="Times,serif" font-size="14.00" fill="#000000">utilities.constants</text>
</g>
<!-- pymedphys_analysis.gamma -->
<g id="node6" class="node">
<title>pymedphys_analysis.gamma</title>
<ellipse fill="none" stroke="#000000" cx="383.9723" cy="-226" rx="37.8943" ry="18"/>
<text text-anchor="middle" x="383.9723" y="-222.3" font-family="Times,serif" font-size="14.00" fill="#000000">gamma</text>
</g>
<!-- pymedphys_analysis.gamma&#45;&gt;pymedphys_dicom.dicom -->
<g id="edge1" class="edge">
<title>pymedphys_analysis.gamma&#45;&gt;pymedphys_dicom.dicom</title>
<path fill="none" stroke="#000000" d="M420.4502,-220.9215C446.9845,-217.2274 483.5802,-212.1325 514.8135,-207.7841"/>
<polygon fill="#000000" stroke="#000000" points="515.3243,-211.2469 524.7461,-206.4013 514.359,-204.3137 515.3243,-211.2469"/>
</g>
<!-- pymedphys_analysis.geometry -->
<g id="node7" class="node">
<title>pymedphys_analysis.geometry</title>
<ellipse fill="none" stroke="#000000" cx="383.9723" cy="-172" rx="44.393" ry="18"/>
<text text-anchor="middle" x="383.9723" y="-168.3" font-family="Times,serif" font-size="14.00" fill="#000000">geometry</text>
</g>
<!-- pymedphys_analysis.geometry&#45;&gt;pymedphys_dicom.dicom -->
<g id="edge2" class="edge">
<title>pymedphys_analysis.geometry&#45;&gt;pymedphys_dicom.dicom</title>
<path fill="none" stroke="#000000" d="M426.0535,-177.8586C451.9633,-181.4658 485.6686,-186.1583 514.7407,-190.2057"/>
<polygon fill="#000000" stroke="#000000" points="514.4232,-193.6952 524.8103,-191.6076 515.3885,-186.7621 514.4232,-193.6952"/>
</g>
<!-- pymedphys_analysis.plt -->
<g id="node8" class="node">
<title>pymedphys_analysis.plt</title>
<ellipse fill="none" stroke="#000000" cx="383.9723" cy="-118" rx="27" ry="18"/>
<text text-anchor="middle" x="383.9723" y="-114.3" font-family="Times,serif" font-size="14.00" fill="#000000">plt</text>
</g>
<!-- pymedphys_analysis.mudensity&#45;&gt;pymedphys_coordsandscales.deliverydata -->
<g id="edge4" class="edge">
<title>pymedphys_analysis.mudensity&#45;&gt;pymedphys_coordsandscales.deliverydata</title>
<path fill="none" stroke="#000000" d="M289.5787,-105.143C304.7257,-99.9144 322.9281,-94.3302 339.7762,-91 377.312,-83.5808 418.7201,-79.0414 456.3347,-76.2698"/>
<polygon fill="#000000" stroke="#000000" points="456.5921,-79.7604 466.3223,-75.5683 456.1016,-72.7776 456.5921,-79.7604"/>
</g>
<!-- pymedphys_analysis.mudensity&#45;&gt;pymedphys_utilities.constants -->
<g id="edge5" class="edge">
<title>pymedphys_analysis.mudensity&#45;&gt;pymedphys_utilities.constants</title>
<path fill="none" stroke="#000000" d="M281.0428,-102.5853C297.3427,-93.2258 319.239,-81.6485 339.7762,-74 394.5825,-53.5891 459.33,-38.9332 507.4656,-29.7468"/>
<polygon fill="#000000" stroke="#000000" points="508.2922,-33.1529 517.4756,-27.8694 507.0017,-26.2729 508.2922,-33.1529"/>
</g>
<!-- pymedphys_analysis.mudensity&#45;&gt;pymedphys_analysis.plt -->
<g id="edge3" class="edge">
<title>pymedphys_analysis.mudensity&#45;&gt;pymedphys_analysis.plt</title>
<path fill="none" stroke="#000000" d="M303.8166,-118C317.9545,-118 333.2008,-118 346.5621,-118"/>
<polygon fill="#000000" stroke="#000000" points="346.8164,-121.5001 356.8164,-118 346.8164,-114.5001 346.8164,-121.5001"/>
</g>
</g>
</svg>
