<?xml version="1.0" encoding="UTF-8" standalone="no"?>
<!DOCTYPE svg PUBLIC "-//W3C//DTD SVG 1.1//EN"
 "http://www.w3.org/Graphics/SVG/1.1/DTD/svg11.dtd">
<!-- Generated by graphviz version 2.40.1 (20161225.0304)
 -->
<!-- Title: %3 Pages: 1 -->
<svg width="314pt" height="138pt"
 viewBox="0.00 0.00 314.28 138.00" xmlns="http://www.w3.org/2000/svg" xmlns:xlink="http://www.w3.org/1999/xlink">
<g id="graph0" class="graph" transform="scale(1 1) rotate(0) translate(4 134)">
<title>%3</title>
<polygon fill="#ffffff" stroke="transparent" points="-4,4 -4,-134 310.2803,-134 310.2803,4 -4,4"/>
<g id="clust1" class="cluster">
<title>cluster_0</title>
<polygon fill="none" stroke="#000000" stroke-dasharray="5,2" points="8,-8 8,-122 298.2803,-122 298.2803,-8 8,-8"/>
<text text-anchor="middle" x="153.1401" y="-106.8" font-family="Times,serif" font-size="14.00" fill="#000000">pymedphys_fileformats</text>
</g>
<g id="clust2" class="cluster">
<title>cluster_1</title>
<polygon fill="none" stroke="#000000" stroke-dasharray="5,2" points="16,-16 16,-91 290.2803,-91 290.2803,-16 16,-16"/>
<text text-anchor="middle" x="153.1401" y="-75.8" font-family="Times,serif" font-size="14.00" fill="#000000">pymedphys_fileformats.mapcheck</text>
</g>
<!-- pymedphys_fileformats.mapcheck.core -->
<g id="node1" class="node">
<title>pymedphys_fileformats.mapcheck.core</title>
<ellipse fill="none" stroke="#000000" cx="217.936" cy="-42" rx="64.189" ry="18"/>
<text text-anchor="middle" x="217.936" y="-38.3" font-family="Times,serif" font-size="14.00" fill="#000000">mapcheck.core</text>
</g>
<!-- pymedphys_fileformats.mapcheck -->
<g id="node2" class="node">
<title>pymedphys_fileformats.mapcheck</title>
<ellipse fill="none" stroke="#000000" cx="70.7958" cy="-42" rx="46.5926" ry="18"/>
<text text-anchor="middle" x="70.7958" y="-38.3" font-family="Times,serif" font-size="14.00" fill="#000000">mapcheck</text>
</g>
<!-- pymedphys_fileformats.mapcheck&#45;&gt;pymedphys_fileformats.mapcheck.core -->
<g id="edge1" class="edge">
<title>pymedphys_fileformats.mapcheck&#45;&gt;pymedphys_fileformats.mapcheck.core</title>
<path fill="none" stroke="#000000" d="M117.7565,-42C125.9172,-42 134.5829,-42 143.2689,-42"/>
<polygon fill="#000000" stroke="#000000" points="143.4459,-45.5001 153.4458,-42 143.4458,-38.5001 143.4459,-45.5001"/>
</g>
</g>
</svg>
