<?xml version="1.0" encoding="UTF-8" standalone="no"?>
<!DOCTYPE svg PUBLIC "-//W3C//DTD SVG 1.1//EN"
 "http://www.w3.org/Graphics/SVG/1.1/DTD/svg11.dtd">
<!-- Generated by graphviz version 2.40.1 (20161225.0304)
 -->
<!-- Title: %3 Pages: 1 -->
<svg width="319pt" height="245pt"
 viewBox="0.00 0.00 319.38 245.00" xmlns="http://www.w3.org/2000/svg" xmlns:xlink="http://www.w3.org/1999/xlink">
<g id="graph0" class="graph" transform="scale(1 1) rotate(0) translate(4 241)">
<title>%3</title>
<polygon fill="#ffffff" stroke="transparent" points="-4,4 -4,-241 315.3783,-241 315.3783,4 -4,4"/>
<g id="clust2" class="cluster">
<title>cluster_0</title>
<polygon fill="none" stroke="#000000" stroke-dasharray="5,2" points="185.286,-46 185.286,-229 311.3783,-229 311.3783,-46 185.286,-46"/>
<text text-anchor="middle" x="248.3322" y="-213.8" font-family="Times,serif" font-size="14.00" fill="#000000">pymedphys_utilities</text>
</g>
<!-- pymedphys_logfiles.elekta -->
<g id="node1" class="node">
<title>pymedphys_logfiles.elekta</title>
<ellipse fill="none" stroke="#000000" cx="78.643" cy="-180" rx="60.3893" ry="18"/>
<text text-anchor="middle" x="78.643" y="-176.3" font-family="Times,serif" font-size="14.00" fill="#000000">logfiles.elekta</text>
</g>
<!-- pymedphys_utilities.filehash -->
<g id="node6" class="node">
<title>pymedphys_utilities.filehash</title>
<ellipse fill="none" stroke="#000000" cx="247.8322" cy="-180" rx="38.1938" ry="18"/>
<text text-anchor="middle" x="247.8322" y="-176.3" font-family="Times,serif" font-size="14.00" fill="#000000">filehash</text>
</g>
<!-- pymedphys_logfiles.elekta&#45;&gt;pymedphys_utilities.filehash -->
<g id="edge1" class="edge">
<title>pymedphys_logfiles.elekta&#45;&gt;pymedphys_utilities.filehash</title>
<path fill="none" stroke="#000000" d="M139.2463,-180C158.9271,-180 180.4964,-180 199.1887,-180"/>
<polygon fill="#000000" stroke="#000000" points="199.2471,-183.5001 209.247,-180 199.247,-176.5001 199.2471,-183.5001"/>
</g>
<!-- pymedphys_utilities.utilities -->
<g id="node7" class="node">
<title>pymedphys_utilities.utilities</title>
<ellipse fill="none" stroke="#000000" cx="247.8322" cy="-126" rx="37.0935" ry="18"/>
<text text-anchor="middle" x="247.8322" y="-122.3" font-family="Times,serif" font-size="14.00" fill="#000000">utilities</text>
</g>
<!-- pymedphys_logfiles.elekta&#45;&gt;pymedphys_utilities.utilities -->
<g id="edge2" class="edge">
<title>pymedphys_logfiles.elekta&#45;&gt;pymedphys_utilities.utilities</title>
<path fill="none" stroke="#000000" d="M120.0313,-166.7901C146.489,-158.3456 180.6543,-147.4411 207.0025,-139.0316"/>
<polygon fill="#000000" stroke="#000000" points="208.2233,-142.316 216.6856,-135.941 206.0948,-135.6474 208.2233,-142.316"/>
</g>
<!-- pymedphys_labs.paulking -->
<g id="node2" class="node">
<title>pymedphys_labs.paulking</title>
<ellipse fill="none" stroke="#000000" cx="78.643" cy="-72" rx="57.6901" ry="18"/>
<text text-anchor="middle" x="78.643" y="-68.3" font-family="Times,serif" font-size="14.00" fill="#000000">labs.paulking</text>
</g>
<!-- pymedphys_utilities.constants -->
<g id="node5" class="node">
<title>pymedphys_utilities.constants</title>
<ellipse fill="none" stroke="#000000" cx="247.8322" cy="-72" rx="43.5923" ry="18"/>
<text text-anchor="middle" x="247.8322" y="-68.3" font-family="Times,serif" font-size="14.00" fill="#000000">constants</text>
</g>
<!-- pymedphys_labs.paulking&#45;&gt;pymedphys_utilities.constants -->
<g id="edge3" class="edge">
<title>pymedphys_labs.paulking&#45;&gt;pymedphys_utilities.constants</title>
<path fill="none" stroke="#000000" d="M136.8683,-72C155.4125,-72 175.8351,-72 194.0501,-72"/>
<polygon fill="#000000" stroke="#000000" points="194.2017,-75.5001 204.2016,-72 194.2016,-68.5001 194.2017,-75.5001"/>
</g>
<!-- pymedphys_xlwings.xlwings -->
<g id="node3" class="node">
<title>pymedphys_xlwings.xlwings</title>
<ellipse fill="none" stroke="#000000" cx="78.643" cy="-126" rx="68.7879" ry="18"/>
<text text-anchor="middle" x="78.643" y="-122.3" font-family="Times,serif" font-size="14.00" fill="#000000">xlwings.xlwings</text>
</g>
<!-- pymedphys_xlwings.xlwings&#45;&gt;pymedphys_utilities.utilities -->
<g id="edge4" class="edge">
<title>pymedphys_xlwings.xlwings&#45;&gt;pymedphys_utilities.utilities</title>
<path fill="none" stroke="#000000" d="M147.9469,-126C165.4641,-126 183.8861,-126 200.0723,-126"/>
<polygon fill="#000000" stroke="#000000" points="200.3542,-129.5001 210.3542,-126 200.3541,-122.5001 200.3542,-129.5001"/>
</g>
<!-- pymedphys_analysis.mudensity -->
<g id="node4" class="node">
<title>pymedphys_analysis.mudensity</title>
<ellipse fill="none" stroke="#000000" cx="78.643" cy="-18" rx="78.7863" ry="18"/>
<text text-anchor="middle" x="78.643" y="-14.3" font-family="Times,serif" font-size="14.00" fill="#000000">analysis.mudensity</text>
</g>
<!-- pymedphys_analysis.mudensity&#45;&gt;pymedphys_utilities.constants -->
<g id="edge5" class="edge">
<title>pymedphys_analysis.mudensity&#45;&gt;pymedphys_utilities.constants</title>
<path fill="none" stroke="#000000" d="M124.8747,-32.7557C149.3823,-40.5778 179.34,-50.1394 203.549,-57.8662"/>
<polygon fill="#000000" stroke="#000000" points="202.608,-61.2397 213.1987,-60.9461 204.7364,-54.5711 202.608,-61.2397"/>
</g>
</g>
</svg>
