<?xml version="1.0" encoding="UTF-8" standalone="no"?>
<!DOCTYPE svg PUBLIC "-//W3C//DTD SVG 1.1//EN"
 "http://www.w3.org/Graphics/SVG/1.1/DTD/svg11.dtd">
<!-- Generated by graphviz version 2.40.1 (20161225.0304)
 -->
<!-- Title: %3 Pages: 1 -->
<svg width="843pt" height="293pt"
 viewBox="0.00 0.00 843.24 293.00" xmlns="http://www.w3.org/2000/svg" xmlns:xlink="http://www.w3.org/1999/xlink">
<g id="graph0" class="graph" transform="scale(1 1) rotate(0) translate(4 289)">
<title>%3</title>
<polygon fill="#ffffff" stroke="transparent" points="-4,4 -4,-289 839.2376,-289 839.2376,4 -4,4"/>
<g id="clust1" class="cluster">
<title>cluster_0</title>
<polygon fill="none" stroke="#000000" stroke-dasharray="5,2" points="8,-44 8,-266 587.7578,-266 587.7578,-44 8,-44"/>
<text text-anchor="middle" x="297.8789" y="-250.8" font-family="Times,serif" font-size="14.00" fill="#000000">pymedphys_logfiles</text>
</g>
<g id="clust2" class="cluster">
<title>cluster_1</title>
<polygon fill="none" stroke="#000000" stroke-dasharray="5,2" points="16,-52 16,-235 579.7578,-235 579.7578,-52 16,-52"/>
<text text-anchor="middle" x="297.8789" y="-219.8" font-family="Times,serif" font-size="14.00" fill="#000000">pymedphys_logfiles.elekta</text>
</g>
<!-- pymedphys_logfiles.elekta.analyse -->
<g id="node1" class="node">
<title>pymedphys_logfiles.elekta.analyse</title>
<ellipse fill="none" stroke="#000000" cx="479.466" cy="-186" rx="60.3893" ry="18"/>
<text text-anchor="middle" x="479.466" y="-182.3" font-family="Times,serif" font-size="14.00" fill="#000000">elekta.analyse</text>
</g>
<!-- pymedphys_utilities.utilities -->
<g id="node8" class="node">
<title>pymedphys_utilities.utilities</title>
<ellipse fill="none" stroke="#000000" cx="721.4977" cy="-267" rx="65.7887" ry="18"/>
<text text-anchor="middle" x="721.4977" y="-263.3" font-family="Times,serif" font-size="14.00" fill="#000000">utilities.utilities</text>
</g>
<!-- pymedphys_logfiles.elekta.analyse&#45;&gt;pymedphys_utilities.utilities -->
<g id="edge1" class="edge">
<title>pymedphys_logfiles.elekta.analyse&#45;&gt;pymedphys_utilities.utilities</title>
<path fill="none" stroke="#000000" d="M527.1145,-197.2369C546.6881,-203.0027 569.0911,-211.141 587.7578,-222 598.0947,-228.0133 597.1667,-234.4465 607.7578,-240 621.6175,-247.2674 637.4472,-252.6065 652.8025,-256.5195"/>
<polygon fill="#000000" stroke="#000000" points="652.2614,-259.9881 662.7993,-258.8908 653.8771,-253.1772 652.2614,-259.9881"/>
</g>
<!-- pymedphys_databases.msq -->
<g id="node9" class="node">
<title>pymedphys_databases.msq</title>
<ellipse fill="none" stroke="#000000" cx="721.4977" cy="-51" rx="61.99" ry="18"/>
<text text-anchor="middle" x="721.4977" y="-47.3" font-family="Times,serif" font-size="14.00" fill="#000000">databases.msq</text>
</g>
<!-- pymedphys_logfiles.elekta.analyse&#45;&gt;pymedphys_databases.msq -->
<g id="edge2" class="edge">
<title>pymedphys_logfiles.elekta.analyse&#45;&gt;pymedphys_databases.msq</title>
<path fill="none" stroke="#000000" d="M539.2236,-182.7374C556.8757,-178.9588 574.8934,-171.8936 587.7578,-159 613.9483,-132.7499 581.4197,-104.1021 607.7578,-78 619.2777,-66.5833 634.6889,-59.6634 650.4395,-55.5452"/>
<polygon fill="#000000" stroke="#000000" points="651.2751,-58.9447 660.2585,-53.328 649.7332,-52.1166 651.2751,-58.9447"/>
</g>
<!-- pymedphys_analysis.mudensity -->
<g id="node10" class="node">
<title>pymedphys_analysis.mudensity</title>
<ellipse fill="none" stroke="#000000" cx="721.4977" cy="-159" rx="78.7863" ry="18"/>
<text text-anchor="middle" x="721.4977" y="-155.3" font-family="Times,serif" font-size="14.00" fill="#000000">analysis.mudensity</text>
</g>
<!-- pymedphys_logfiles.elekta.analyse&#45;&gt;pymedphys_analysis.mudensity -->
<g id="edge3" class="edge">
<title>pymedphys_logfiles.elekta.analyse&#45;&gt;pymedphys_analysis.mudensity</title>
<path fill="none" stroke="#000000" d="M536.2117,-179.6697C567.2407,-176.2082 606.2112,-171.8609 640.3964,-168.0473"/>
<polygon fill="#000000" stroke="#000000" points="640.8175,-171.5221 650.3678,-166.9349 640.0413,-164.5653 640.8175,-171.5221"/>
</g>
<!-- pymedphys_coordsandscales.deliverydata -->
<g id="node11" class="node">
<title>pymedphys_coordsandscales.deliverydata</title>
<ellipse fill="none" stroke="#000000" cx="721.4977" cy="-213" rx="113.9803" ry="18"/>
<text text-anchor="middle" x="721.4977" y="-209.3" font-family="Times,serif" font-size="14.00" fill="#000000">coordsandscales.deliverydata</text>
</g>
<!-- pymedphys_logfiles.elekta.analyse&#45;&gt;pymedphys_coordsandscales.deliverydata -->
<g id="edge4" class="edge">
<title>pymedphys_logfiles.elekta.analyse&#45;&gt;pymedphys_coordsandscales.deliverydata</title>
<path fill="none" stroke="#000000" d="M536.2117,-192.3303C560.6018,-195.0512 589.8986,-198.3194 617.9212,-201.4455"/>
<polygon fill="#000000" stroke="#000000" points="617.8498,-204.9591 628.1762,-202.5895 618.6259,-198.0023 617.8498,-204.9591"/>
</g>
<!-- pymedphys_fileformats.trf -->
<g id="node12" class="node">
<title>pymedphys_fileformats.trf</title>
<ellipse fill="none" stroke="#000000" cx="721.4977" cy="-105" rx="60.3893" ry="18"/>
<text text-anchor="middle" x="721.4977" y="-101.3" font-family="Times,serif" font-size="14.00" fill="#000000">fileformats.trf</text>
</g>
<!-- pymedphys_logfiles.elekta.analyse&#45;&gt;pymedphys_fileformats.trf -->
<g id="edge5" class="edge">
<title>pymedphys_logfiles.elekta.analyse&#45;&gt;pymedphys_fileformats.trf</title>
<path fill="none" stroke="#000000" d="M535.9235,-179.525C553.5905,-175.5765 572.45,-169.2227 587.7578,-159 600.1767,-150.7065 595.2923,-140.2234 607.7578,-132 621.5065,-122.9301 637.9688,-116.8973 654.0426,-112.8876"/>
<polygon fill="#000000" stroke="#000000" points="654.9904,-116.2617 663.9728,-110.6433 653.4472,-109.4339 654.9904,-116.2617"/>
</g>
<!-- pymedphys_logfiles.elekta.diagnostics_zips -->
<g id="node2" class="node">
<title>pymedphys_logfiles.elekta.diagnostics_zips</title>
<ellipse fill="none" stroke="#000000" cx="479.466" cy="-132" rx="92.0841" ry="18"/>
<text text-anchor="middle" x="479.466" y="-128.3" font-family="Times,serif" font-size="14.00" fill="#000000">elekta.diagnostics_zips</text>
</g>
<!-- pymedphys_logfiles.elekta.identify -->
<g id="node3" class="node">
<title>pymedphys_logfiles.elekta.identify</title>
<ellipse fill="none" stroke="#000000" cx="479.466" cy="-78" rx="61.99" ry="18"/>
<text text-anchor="middle" x="479.466" y="-74.3" font-family="Times,serif" font-size="14.00" fill="#000000">elekta.identify</text>
</g>
<!-- pymedphys_logfiles.elekta.identify&#45;&gt;pymedphys_databases.msq -->
<g id="edge6" class="edge">
<title>pymedphys_logfiles.elekta.identify&#45;&gt;pymedphys_databases.msq</title>
<path fill="none" stroke="#000000" d="M537.4386,-71.5328C572.3365,-67.6398 616.9387,-62.6641 653.4962,-58.586"/>
<polygon fill="#000000" stroke="#000000" points="654.0289,-62.0483 663.5792,-57.4611 653.2527,-55.0915 654.0289,-62.0483"/>
</g>
<!-- pymedphys_logfiles.elekta.identify&#45;&gt;pymedphys_fileformats.trf -->
<g id="edge7" class="edge">
<title>pymedphys_logfiles.elekta.identify&#45;&gt;pymedphys_fileformats.trf</title>
<path fill="none" stroke="#000000" d="M537.4386,-84.4672C572.72,-88.403 617.9201,-93.4453 654.6984,-97.5482"/>
<polygon fill="#000000" stroke="#000000" points="654.5068,-101.0484 664.8332,-98.6788 655.2829,-94.0916 654.5068,-101.0484"/>
</g>
<!-- pymedphys_logfiles.elekta.bygantry -->
<g id="node4" class="node">
<title>pymedphys_logfiles.elekta.bygantry</title>
<ellipse fill="none" stroke="#000000" cx="285.53" cy="-186" rx="65.7887" ry="18"/>
<text text-anchor="middle" x="285.53" y="-182.3" font-family="Times,serif" font-size="14.00" fill="#000000">elekta.bygantry</text>
</g>
<!-- pymedphys_logfiles.elekta.bygantry&#45;&gt;pymedphys_logfiles.elekta.analyse -->
<g id="edge8" class="edge">
<title>pymedphys_logfiles.elekta.bygantry&#45;&gt;pymedphys_logfiles.elekta.analyse</title>
<path fill="none" stroke="#000000" d="M351.1879,-186C369.6386,-186 389.7836,-186 408.5273,-186"/>
<polygon fill="#000000" stroke="#000000" points="408.7767,-189.5001 418.7767,-186 408.7766,-182.5001 408.7767,-189.5001"/>
</g>
<!-- pymedphys_logfiles.elekta.index -->
<g id="node5" class="node">
<title>pymedphys_logfiles.elekta.index</title>
<ellipse fill="none" stroke="#000000" cx="285.53" cy="-98" rx="53.8905" ry="18"/>
<text text-anchor="middle" x="285.53" y="-94.3" font-family="Times,serif" font-size="14.00" fill="#000000">elekta.index</text>
</g>
<!-- pymedphys_logfiles.elekta.index&#45;&gt;pymedphys_logfiles.elekta.identify -->
<g id="edge9" class="edge">
<title>pymedphys_logfiles.elekta.index&#45;&gt;pymedphys_logfiles.elekta.identify</title>
<path fill="none" stroke="#000000" d="M337.2465,-92.6666C359.8285,-90.3378 386.6311,-87.5738 410.8474,-85.0764"/>
<polygon fill="#000000" stroke="#000000" points="411.4595,-88.5319 421.0477,-84.0245 410.7413,-81.5689 411.4595,-88.5319"/>
</g>
<!-- pymedphys_logfiles.elekta.index&#45;&gt;pymedphys_utilities.utilities -->
<g id="edge10" class="edge">
<title>pymedphys_logfiles.elekta.index&#45;&gt;pymedphys_utilities.utilities</title>
<path fill="none" stroke="#000000" d="M305.9423,-114.766C319.5329,-126.439 337.3617,-142.7676 351.1742,-159 369.8669,-180.9677 362.9129,-197.3991 387.1742,-213 465.6532,-263.465 575.3073,-272.1143 647.3275,-271.3985"/>
<polygon fill="#000000" stroke="#000000" points="647.731,-274.8925 657.6722,-271.2288 647.6161,-267.8934 647.731,-274.8925"/>
</g>
<!-- pymedphys_utilities.filehash -->
<g id="node13" class="node">
<title>pymedphys_utilities.filehash</title>
<ellipse fill="none" stroke="#000000" cx="479.466" cy="-18" rx="67.6881" ry="18"/>
<text text-anchor="middle" x="479.466" y="-14.3" font-family="Times,serif" font-size="14.00" fill="#000000">utilities.filehash</text>
</g>
<!-- pymedphys_logfiles.elekta.index&#45;&gt;pymedphys_utilities.filehash -->
<g id="edge11" class="edge">
<title>pymedphys_logfiles.elekta.index&#45;&gt;pymedphys_utilities.filehash</title>
<path fill="none" stroke="#000000" d="M313.946,-82.6593C334.0571,-72.1414 361.8468,-58.2844 387.1742,-48 398.9989,-43.1984 411.9065,-38.6117 424.2208,-34.5332"/>
<polygon fill="#000000" stroke="#000000" points="425.508,-37.7951 433.9374,-31.3768 423.3453,-31.1376 425.508,-37.7951"/>
</g>
<!-- pymedphys_logfiles.elekta -->
<g id="node6" class="node">
<title>pymedphys_logfiles.elekta</title>
<ellipse fill="none" stroke="#000000" cx="103.9429" cy="-134" rx="31.6951" ry="18"/>
<text text-anchor="middle" x="103.9429" y="-130.3" font-family="Times,serif" font-size="14.00" fill="#000000">elekta</text>
</g>
<!-- pymedphys_logfiles.elekta&#45;&gt;pymedphys_logfiles.elekta.diagnostics_zips -->
<g id="edge12" class="edge">
<title>pymedphys_logfiles.elekta&#45;&gt;pymedphys_logfiles.elekta.diagnostics_zips</title>
<path fill="none" stroke="#000000" d="M135.9598,-133.8295C188.6884,-133.5487 295.9935,-132.9772 376.7203,-132.5472"/>
<polygon fill="#000000" stroke="#000000" points="376.945,-136.0462 386.9261,-132.4929 376.9076,-129.0463 376.945,-136.0462"/>
</g>
<!-- pymedphys_logfiles.elekta&#45;&gt;pymedphys_logfiles.elekta.index -->
<g id="edge13" class="edge">
<title>pymedphys_logfiles.elekta&#45;&gt;pymedphys_logfiles.elekta.index</title>
<path fill="none" stroke="#000000" d="M134.3365,-127.9744C160.1189,-122.863 197.7936,-115.3939 229.0843,-109.1905"/>
<polygon fill="#000000" stroke="#000000" points="229.8677,-112.6034 238.9962,-107.2254 228.5064,-105.737 229.8677,-112.6034"/>
</g>
<!-- pymedphys_logfiles.elekta.orchestration -->
<g id="node7" class="node">
<title>pymedphys_logfiles.elekta.orchestration</title>
<ellipse fill="none" stroke="#000000" cx="103.9429" cy="-79" rx="79.8859" ry="18"/>
<text text-anchor="middle" x="103.9429" y="-75.3" font-family="Times,serif" font-size="14.00" fill="#000000">elekta.orchestration</text>
</g>
<!-- pymedphys_logfiles.elekta.orchestration&#45;&gt;pymedphys_logfiles.elekta.diagnostics_zips -->
<g id="edge14" class="edge">
<title>pymedphys_logfiles.elekta.orchestration&#45;&gt;pymedphys_logfiles.elekta.diagnostics_zips</title>
<path fill="none" stroke="#000000" d="M156.6872,-65.4594C208.222,-54.9114 287.9228,-45.8526 351.1742,-71 371.625,-79.1308 368.0832,-94.051 387.1742,-105 393.8946,-108.8543 401.2113,-112.1985 408.6873,-115.0908"/>
<polygon fill="#000000" stroke="#000000" points="407.6147,-118.4245 418.2091,-118.5172 409.9848,-111.8379 407.6147,-118.4245"/>
</g>
<!-- pymedphys_logfiles.elekta.orchestration&#45;&gt;pymedphys_logfiles.elekta.index -->
<g id="edge15" class="edge">
<title>pymedphys_logfiles.elekta.orchestration&#45;&gt;pymedphys_logfiles.elekta.index</title>
<path fill="none" stroke="#000000" d="M176.4938,-86.5912C192.1454,-88.2289 208.5514,-89.9455 223.7461,-91.5354"/>
<polygon fill="#000000" stroke="#000000" points="223.7379,-95.0535 234.0479,-92.6133 224.4664,-88.0915 223.7379,-95.0535"/>
</g>
</g>
</svg>
