<?xml version="1.0" encoding="UTF-8" standalone="no"?>
<!DOCTYPE svg PUBLIC "-//W3C//DTD SVG 1.1//EN"
 "http://www.w3.org/Graphics/SVG/1.1/DTD/svg11.dtd">
<!-- Generated by graphviz version 2.40.1 (20161225.0304)
 -->
<!-- Title: %3 Pages: 1 -->
<svg width="554pt" height="344pt"
 viewBox="0.00 0.00 553.97 344.00" xmlns="http://www.w3.org/2000/svg" xmlns:xlink="http://www.w3.org/1999/xlink">
<g id="graph0" class="graph" transform="scale(1 1) rotate(0) translate(4 340)">
<title>%3</title>
<polygon fill="#ffffff" stroke="transparent" points="-4,4 -4,-340 549.9654,-340 549.9654,4 -4,4"/>
<g id="clust1" class="cluster">
<title>cluster_0</title>
<polygon fill="none" stroke="#000000" stroke-dasharray="5,2" points="8,-8 8,-328 537.9654,-328 537.9654,-8 8,-8"/>
<text text-anchor="middle" x="272.9827" y="-312.8" font-family="Times,serif" font-size="14.00" fill="#000000">pymedphys_monomanage</text>
</g>
<g id="clust2" class="cluster">
<title>cluster_1</title>
<polygon fill="none" stroke="#000000" stroke-dasharray="5,2" points="16,-16 16,-199 529.9654,-199 529.9654,-16 16,-16"/>
<text text-anchor="middle" x="272.9827" y="-183.8" font-family="Times,serif" font-size="14.00" fill="#000000">pymedphys_monomanage.draw</text>
</g>
<!-- pymedphys_monomanage.draw.utilities -->
<g id="node1" class="node">
<title>pymedphys_monomanage.draw.utilities</title>
<ellipse fill="none" stroke="#000000" cx="464.7705" cy="-96" rx="57.3905" ry="18"/>
<text text-anchor="middle" x="464.7705" y="-92.3" font-family="Times,serif" font-size="14.00" fill="#000000">draw.utilities</text>
</g>
<!-- pymedphys_monomanage.draw.directories -->
<g id="node2" class="node">
<title>pymedphys_monomanage.draw.directories</title>
<ellipse fill="none" stroke="#000000" cx="303.9815" cy="-42" rx="67.6881" ry="18"/>
<text text-anchor="middle" x="303.9815" y="-38.3" font-family="Times,serif" font-size="14.00" fill="#000000">draw.directories</text>
</g>
<!-- pymedphys_monomanage.draw.directories&#45;&gt;pymedphys_monomanage.draw.utilities -->
<g id="edge2" class="edge">
<title>pymedphys_monomanage.draw.directories&#45;&gt;pymedphys_monomanage.draw.utilities</title>
<path fill="none" stroke="#000000" d="M346.2269,-56.1879C367.6244,-63.3741 393.7154,-72.1366 415.967,-79.6096"/>
<polygon fill="#000000" stroke="#000000" points="414.9716,-82.9674 425.5656,-82.8333 417.2003,-76.3316 414.9716,-82.9674"/>
</g>
<!-- pymedphys_monomanage.tree -->
<g id="node8" class="node">
<title>pymedphys_monomanage.tree</title>
<ellipse fill="none" stroke="#000000" cx="464.7705" cy="-225" rx="27" ry="18"/>
<text text-anchor="middle" x="464.7705" y="-221.3" font-family="Times,serif" font-size="14.00" fill="#000000">tree</text>
</g>
<!-- pymedphys_monomanage.draw.directories&#45;&gt;pymedphys_monomanage.tree -->
<g id="edge1" class="edge">
<title>pymedphys_monomanage.draw.directories&#45;&gt;pymedphys_monomanage.tree</title>
<path fill="none" stroke="#000000" d="M352.2913,-54.7532C359.5073,-58.3928 366.2867,-63.0497 371.5755,-69 412.5438,-115.0919 366.3126,-157.1717 407.5755,-203 413.2438,-209.2954 420.9193,-213.803 428.8049,-217.0258"/>
<polygon fill="#000000" stroke="#000000" points="427.8122,-220.386 438.407,-220.3537 430.1045,-213.772 427.8122,-220.386"/>
</g>
<!-- pymedphys_monomanage.draw.files -->
<g id="node3" class="node">
<title>pymedphys_monomanage.draw.files</title>
<ellipse fill="none" stroke="#000000" cx="303.9815" cy="-96" rx="46.2923" ry="18"/>
<text text-anchor="middle" x="303.9815" y="-92.3" font-family="Times,serif" font-size="14.00" fill="#000000">draw.files</text>
</g>
<!-- pymedphys_monomanage.draw.files&#45;&gt;pymedphys_monomanage.draw.utilities -->
<g id="edge4" class="edge">
<title>pymedphys_monomanage.draw.files&#45;&gt;pymedphys_monomanage.draw.utilities</title>
<path fill="none" stroke="#000000" d="M350.4884,-96C365.0962,-96 381.5311,-96 397.2867,-96"/>
<polygon fill="#000000" stroke="#000000" points="397.5163,-99.5001 407.5163,-96 397.5163,-92.5001 397.5163,-99.5001"/>
</g>
<!-- pymedphys_monomanage.draw.files&#45;&gt;pymedphys_monomanage.tree -->
<g id="edge3" class="edge">
<title>pymedphys_monomanage.draw.files&#45;&gt;pymedphys_monomanage.tree</title>
<path fill="none" stroke="#000000" d="M343.0826,-105.8208C353.2875,-109.8399 363.637,-115.3944 371.5755,-123 399.7294,-149.9732 379.2493,-176.2078 407.5755,-203 413.675,-208.7691 421.4489,-213.072 429.2853,-216.2644"/>
<polygon fill="#000000" stroke="#000000" points="428.1719,-219.5831 438.7666,-219.6316 430.5146,-212.9867 428.1719,-219.5831"/>
</g>
<!-- pymedphys_monomanage.draw.packages -->
<g id="node4" class="node">
<title>pymedphys_monomanage.draw.packages</title>
<ellipse fill="none" stroke="#000000" cx="303.9815" cy="-150" rx="63.0888" ry="18"/>
<text text-anchor="middle" x="303.9815" y="-146.3" font-family="Times,serif" font-size="14.00" fill="#000000">draw.packages</text>
</g>
<!-- pymedphys_monomanage.draw.packages&#45;&gt;pymedphys_monomanage.draw.utilities -->
<g id="edge6" class="edge">
<title>pymedphys_monomanage.draw.packages&#45;&gt;pymedphys_monomanage.draw.utilities</title>
<path fill="none" stroke="#000000" d="M344.9714,-136.2338C366.5304,-128.9934 393.112,-120.0661 415.7547,-112.4616"/>
<polygon fill="#000000" stroke="#000000" points="417.1537,-115.684 425.519,-109.1824 414.925,-109.0482 417.1537,-115.684"/>
</g>
<!-- pymedphys_monomanage.tree.build -->
<g id="node7" class="node">
<title>pymedphys_monomanage.tree.build</title>
<ellipse fill="none" stroke="#000000" cx="464.7705" cy="-279" rx="44.393" ry="18"/>
<text text-anchor="middle" x="464.7705" y="-275.3" font-family="Times,serif" font-size="14.00" fill="#000000">tree.build</text>
</g>
<!-- pymedphys_monomanage.draw.packages&#45;&gt;pymedphys_monomanage.tree.build -->
<g id="edge5" class="edge">
<title>pymedphys_monomanage.draw.packages&#45;&gt;pymedphys_monomanage.tree.build</title>
<path fill="none" stroke="#000000" d="M318.6242,-167.7136C337.4496,-189.6501 371.9764,-227.1535 407.5755,-252 412.7164,-255.5881 418.409,-258.9186 424.1516,-261.9281"/>
<polygon fill="#000000" stroke="#000000" points="422.6303,-265.0804 433.1446,-266.3839 425.738,-258.808 422.6303,-265.0804"/>
</g>
<!-- pymedphys_monomanage.draw.api -->
<g id="node5" class="node">
<title>pymedphys_monomanage.draw.api</title>
<ellipse fill="none" stroke="#000000" cx="158.7912" cy="-96" rx="41.6928" ry="18"/>
<text text-anchor="middle" x="158.7912" y="-92.3" font-family="Times,serif" font-size="14.00" fill="#000000">draw.api</text>
</g>
<!-- pymedphys_monomanage.draw.api&#45;&gt;pymedphys_monomanage.draw.directories -->
<g id="edge7" class="edge">
<title>pymedphys_monomanage.draw.api&#45;&gt;pymedphys_monomanage.draw.directories</title>
<path fill="none" stroke="#000000" d="M190.6539,-84.1495C209.4748,-77.1495 233.6965,-68.1408 254.9124,-60.2501"/>
<polygon fill="#000000" stroke="#000000" points="256.2659,-63.481 264.4186,-56.7145 253.8257,-56.9201 256.2659,-63.481"/>
</g>
<!-- pymedphys_monomanage.draw.api&#45;&gt;pymedphys_monomanage.draw.files -->
<g id="edge8" class="edge">
<title>pymedphys_monomanage.draw.api&#45;&gt;pymedphys_monomanage.draw.files</title>
<path fill="none" stroke="#000000" d="M200.397,-96C215.107,-96 231.907,-96 247.6345,-96"/>
<polygon fill="#000000" stroke="#000000" points="247.7821,-99.5001 257.7821,-96 247.7821,-92.5001 247.7821,-99.5001"/>
</g>
<!-- pymedphys_monomanage.draw.api&#45;&gt;pymedphys_monomanage.draw.packages -->
<g id="edge9" class="edge">
<title>pymedphys_monomanage.draw.api&#45;&gt;pymedphys_monomanage.draw.packages</title>
<path fill="none" stroke="#000000" d="M190.6539,-107.8505C209.7644,-114.9582 234.4431,-124.1369 255.8894,-132.1133"/>
<polygon fill="#000000" stroke="#000000" points="254.8913,-135.4763 265.4841,-135.6818 257.3315,-128.9153 254.8913,-135.4763"/>
</g>
<!-- pymedphys_monomanage.draw -->
<g id="node6" class="node">
<title>pymedphys_monomanage.draw</title>
<ellipse fill="none" stroke="#000000" cx="52.5975" cy="-96" rx="28.6953" ry="18"/>
<text text-anchor="middle" x="52.5975" y="-92.3" font-family="Times,serif" font-size="14.00" fill="#000000">draw</text>
</g>
<!-- pymedphys_monomanage.draw&#45;&gt;pymedphys_monomanage.draw.api -->
<g id="edge10" class="edge">
<title>pymedphys_monomanage.draw&#45;&gt;pymedphys_monomanage.draw.api</title>
<path fill="none" stroke="#000000" d="M81.335,-96C89.1936,-96 97.9611,-96 106.6926,-96"/>
<polygon fill="#000000" stroke="#000000" points="106.8695,-99.5001 116.8695,-96 106.8694,-92.5001 106.8695,-99.5001"/>
</g>
</g>
</svg>
