<?xml version="1.0" encoding="UTF-8" standalone="no"?>
<!DOCTYPE svg PUBLIC "-//W3C//DTD SVG 1.1//EN"
 "http://www.w3.org/Graphics/SVG/1.1/DTD/svg11.dtd">
<!-- Generated by graphviz version 2.40.1 (20161225.0304)
 -->
<!-- Title: %3 Pages: 1 -->
<svg width="401pt" height="138pt"
 viewBox="0.00 0.00 401.48 138.00" xmlns="http://www.w3.org/2000/svg" xmlns:xlink="http://www.w3.org/1999/xlink">
<g id="graph0" class="graph" transform="scale(1 1) rotate(0) translate(4 134)">
<title>%3</title>
<polygon fill="#ffffff" stroke="transparent" points="-4,4 -4,-134 397.4798,-134 397.4798,4 -4,4"/>
<g id="clust1" class="cluster">
<title>cluster_0</title>
<polygon fill="none" stroke="#000000" stroke-dasharray="5,2" points="8,-8 8,-122 385.4798,-122 385.4798,-8 8,-8"/>
<text text-anchor="middle" x="196.7399" y="-106.8" font-family="Times,serif" font-size="14.00" fill="#000000">pymedphys_analysis</text>
</g>
<g id="clust2" class="cluster">
<title>cluster_1</title>
<polygon fill="none" stroke="#000000" stroke-dasharray="5,2" points="175.2884,-16 175.2884,-91 377.4798,-91 377.4798,-16 175.2884,-16"/>
<text text-anchor="middle" x="276.3841" y="-75.8" font-family="Times,serif" font-size="14.00" fill="#000000">pymedphys_analysis.plt</text>
</g>
<!-- pymedphys_analysis.plt.helpers -->
<g id="node1" class="node">
<title>pymedphys_analysis.plt.helpers</title>
<ellipse fill="none" stroke="#000000" cx="321.3841" cy="-42" rx="48.1917" ry="18"/>
<text text-anchor="middle" x="321.3841" y="-38.3" font-family="Times,serif" font-size="14.00" fill="#000000">plt.helpers</text>
</g>
<!-- pymedphys_analysis.plt -->
<g id="node2" class="node">
<title>pymedphys_analysis.plt</title>
<ellipse fill="none" stroke="#000000" cx="210.2884" cy="-42" rx="27" ry="18"/>
<text text-anchor="middle" x="210.2884" y="-38.3" font-family="Times,serif" font-size="14.00" fill="#000000">plt</text>
</g>
<!-- pymedphys_analysis.plt&#45;&gt;pymedphys_analysis.plt.helpers -->
<g id="edge2" class="edge">
<title>pymedphys_analysis.plt&#45;&gt;pymedphys_analysis.plt.helpers</title>
<path fill="none" stroke="#000000" d="M237.4654,-42C245.3064,-42 254.1784,-42 263.1442,-42"/>
<polygon fill="#000000" stroke="#000000" points="263.2566,-45.5001 273.2566,-42 263.2566,-38.5001 263.2566,-45.5001"/>
</g>
<!-- pymedphys_analysis.mudensity.core -->
<g id="node3" class="node">
<title>pymedphys_analysis.mudensity.core</title>
<ellipse fill="none" stroke="#000000" cx="81.6442" cy="-42" rx="65.7887" ry="18"/>
<text text-anchor="middle" x="81.6442" y="-38.3" font-family="Times,serif" font-size="14.00" fill="#000000">mudensity.core</text>
</g>
<!-- pymedphys_analysis.mudensity.core&#45;&gt;pymedphys_analysis.plt -->
<g id="edge1" class="edge">
<title>pymedphys_analysis.mudensity.core&#45;&gt;pymedphys_analysis.plt</title>
<path fill="none" stroke="#000000" d="M147.4737,-42C156.2422,-42 164.9733,-42 173.0148,-42"/>
<polygon fill="#000000" stroke="#000000" points="173.134,-45.5001 183.134,-42 173.1339,-38.5001 173.134,-45.5001"/>
</g>
</g>
</svg>
