<?xml version="1.0" encoding="UTF-8" standalone="no"?>
<!DOCTYPE svg PUBLIC "-//W3C//DTD SVG 1.1//EN"
 "http://www.w3.org/Graphics/SVG/1.1/DTD/svg11.dtd">
<!-- Generated by graphviz version 2.40.1 (20161225.0304)
 -->
<!-- Title: %3 Pages: 1 -->
<svg width="387pt" height="152pt"
 viewBox="0.00 0.00 387.17 152.00" xmlns="http://www.w3.org/2000/svg" xmlns:xlink="http://www.w3.org/1999/xlink">
<g id="graph0" class="graph" transform="scale(1 1) rotate(0) translate(4 148)">
<title>%3</title>
<polygon fill="#ffffff" stroke="transparent" points="-4,4 -4,-148 383.1742,-148 383.1742,4 -4,4"/>
<g id="clust2" class="cluster">
<title>cluster_0</title>
<polygon fill="none" stroke="#000000" stroke-dasharray="5,2" points="178.7866,-46 178.7866,-121 371.1742,-121 371.1742,-46 178.7866,-46"/>
<text text-anchor="middle" x="274.9804" y="-105.8" font-family="Times,serif" font-size="14.00" fill="#000000">pymedphys_dicom</text>
</g>
<!-- pymedphys_xlwings.xlwings -->
<g id="node1" class="node">
<title>pymedphys_xlwings.xlwings</title>
<ellipse fill="none" stroke="#000000" cx="75.3933" cy="-126" rx="68.7879" ry="18"/>
<text text-anchor="middle" x="75.3933" y="-122.3" font-family="Times,serif" font-size="14.00" fill="#000000">xlwings.xlwings</text>
</g>
<!-- pymedphys_dicom.dicom -->
<g id="node5" class="node">
<title>pymedphys_dicom.dicom</title>
<ellipse fill="none" stroke="#000000" cx="219.9337" cy="-72" rx="33.2948" ry="18"/>
<text text-anchor="middle" x="219.9337" y="-68.3" font-family="Times,serif" font-size="14.00" fill="#000000">dicom</text>
</g>
<!-- pymedphys_xlwings.xlwings&#45;&gt;pymedphys_dicom.dicom -->
<g id="edge1" class="edge">
<title>pymedphys_xlwings.xlwings&#45;&gt;pymedphys_dicom.dicom</title>
<path fill="none" stroke="#000000" d="M116.5558,-111.4972C127.6886,-107.5098 139.7185,-103.1418 150.7866,-99 161.5063,-94.9886 173.1104,-90.5109 183.6951,-86.3732"/>
<polygon fill="#000000" stroke="#000000" points="185.0446,-89.6035 193.0746,-82.692 182.4871,-83.0874 185.0446,-89.6035"/>
</g>
<!-- pymedphys_analysis.geometry -->
<g id="node2" class="node">
<title>pymedphys_analysis.geometry</title>
<ellipse fill="none" stroke="#000000" cx="75.3933" cy="-72" rx="75.2868" ry="18"/>
<text text-anchor="middle" x="75.3933" y="-68.3" font-family="Times,serif" font-size="14.00" fill="#000000">analysis.geometry</text>
</g>
<!-- pymedphys_analysis.geometry&#45;&gt;pymedphys_dicom.dicom -->
<g id="edge2" class="edge">
<title>pymedphys_analysis.geometry&#45;&gt;pymedphys_dicom.dicom</title>
<path fill="none" stroke="#000000" d="M151.0501,-72C159.6937,-72 168.2727,-72 176.2908,-72"/>
<polygon fill="#000000" stroke="#000000" points="176.4668,-75.5001 186.4668,-72 176.4667,-68.5001 176.4668,-75.5001"/>
</g>
<!-- pymedphys_analysis.gamma -->
<g id="node3" class="node">
<title>pymedphys_analysis.gamma</title>
<ellipse fill="none" stroke="#000000" cx="75.3933" cy="-18" rx="68.4888" ry="18"/>
<text text-anchor="middle" x="75.3933" y="-14.3" font-family="Times,serif" font-size="14.00" fill="#000000">analysis.gamma</text>
</g>
<!-- pymedphys_analysis.gamma&#45;&gt;pymedphys_dicom.dicom -->
<g id="edge3" class="edge">
<title>pymedphys_analysis.gamma&#45;&gt;pymedphys_dicom.dicom</title>
<path fill="none" stroke="#000000" d="M116.5558,-32.5028C127.6886,-36.4902 139.7185,-40.8582 150.7866,-45 161.5063,-49.0114 173.1104,-53.4891 183.6951,-57.6268"/>
<polygon fill="#000000" stroke="#000000" points="182.4871,-60.9126 193.0746,-61.308 185.0446,-54.3965 182.4871,-60.9126"/>
</g>
<!-- pymedphys_dicom.utilities -->
<g id="node4" class="node">
<title>pymedphys_dicom.utilities</title>
<ellipse fill="none" stroke="#000000" cx="326.1275" cy="-72" rx="37.0935" ry="18"/>
<text text-anchor="middle" x="326.1275" y="-68.3" font-family="Times,serif" font-size="14.00" fill="#000000">utilities</text>
</g>
<!-- pymedphys_dicom.dicom&#45;&gt;pymedphys_dicom.utilities -->
<g id="edge4" class="edge">
<title>pymedphys_dicom.dicom&#45;&gt;pymedphys_dicom.utilities</title>
<path fill="none" stroke="#000000" d="M253.2427,-72C261.286,-72 270.0363,-72 278.5919,-72"/>
<polygon fill="#000000" stroke="#000000" points="278.8707,-75.5001 288.8706,-72 278.8706,-68.5001 278.8707,-75.5001"/>
</g>
</g>
</svg>
