<?xml version="1.0" encoding="UTF-8" standalone="no"?>
<!DOCTYPE svg PUBLIC "-//W3C//DTD SVG 1.1//EN"
 "http://www.w3.org/Graphics/SVG/1.1/DTD/svg11.dtd">
<!-- Generated by graphviz version 2.40.1 (20161225.0304)
 -->
<!-- Title: %3 Pages: 1 -->
<svg width="330pt" height="110pt"
 viewBox="0.00 0.00 330.38 110.00" xmlns="http://www.w3.org/2000/svg" xmlns:xlink="http://www.w3.org/1999/xlink">
<g id="graph0" class="graph" transform="scale(1 1) rotate(0) translate(4 106)">
<title>%3</title>
<polygon fill="#ffffff" stroke="transparent" points="-4,4 -4,-106 326.376,-106 326.376,4 -4,4"/>
<g id="clust2" class="cluster">
<title>cluster_0</title>
<polygon fill="none" stroke="#000000" stroke-dasharray="5,2" points="8,-19 8,-94 137.09,-94 137.09,-19 8,-19"/>
<text text-anchor="middle" x="72.545" y="-78.8" font-family="Times,serif" font-size="14.00" fill="#000000">pymedphys_toolbox</text>
</g>
<!-- pymedphys_analysis.mudensity -->
<g id="node1" class="node">
<title>pymedphys_analysis.mudensity</title>
<ellipse fill="none" stroke="#000000" cx="243.733" cy="-72" rx="78.7863" ry="18"/>
<text text-anchor="middle" x="243.733" y="-68.3" font-family="Times,serif" font-size="14.00" fill="#000000">analysis.mudensity</text>
</g>
<!-- pymedphys_databases.msq -->
<g id="node2" class="node">
<title>pymedphys_databases.msq</title>
<ellipse fill="none" stroke="#000000" cx="243.733" cy="-18" rx="61.99" ry="18"/>
<text text-anchor="middle" x="243.733" y="-14.3" font-family="Times,serif" font-size="14.00" fill="#000000">databases.msq</text>
</g>
<!-- pymedphys_toolbox.plancompare -->
<g id="node3" class="node">
<title>pymedphys_toolbox.plancompare</title>
<ellipse fill="none" stroke="#000000" cx="72.545" cy="-45" rx="56.59" ry="18"/>
<text text-anchor="middle" x="72.545" y="-41.3" font-family="Times,serif" font-size="14.00" fill="#000000">plancompare</text>
</g>
<!-- pymedphys_toolbox.plancompare&#45;&gt;pymedphys_analysis.mudensity -->
<g id="edge1" class="edge">
<title>pymedphys_toolbox.plancompare&#45;&gt;pymedphys_analysis.mudensity</title>
<path fill="none" stroke="#000000" d="M123.4435,-53.0278C137.6728,-55.272 153.442,-57.7592 168.7512,-60.1738"/>
<polygon fill="#000000" stroke="#000000" points="168.3011,-63.646 178.7243,-61.7467 169.3917,-56.7314 168.3011,-63.646"/>
</g>
<!-- pymedphys_toolbox.plancompare&#45;&gt;pymedphys_databases.msq -->
<g id="edge2" class="edge">
<title>pymedphys_toolbox.plancompare&#45;&gt;pymedphys_databases.msq</title>
<path fill="none" stroke="#000000" d="M123.4435,-36.9722C140.9067,-34.2179 160.6893,-31.0978 179.0945,-28.1949"/>
<polygon fill="#000000" stroke="#000000" points="179.8218,-31.6235 189.1544,-26.6082 178.7312,-24.709 179.8218,-31.6235"/>
</g>
</g>
</svg>
