<?xml version="1.0" encoding="UTF-8" standalone="no"?>
<!DOCTYPE svg PUBLIC "-//W3C//DTD SVG 1.1//EN"
 "http://www.w3.org/Graphics/SVG/1.1/DTD/svg11.dtd">
<!-- Generated by graphviz version 2.40.1 (20161225.0304)
 -->
<!-- Title: %3 Pages: 1 -->
<svg width="458pt" height="138pt"
 viewBox="0.00 0.00 457.57 138.00" xmlns="http://www.w3.org/2000/svg" xmlns:xlink="http://www.w3.org/1999/xlink">
<g id="graph0" class="graph" transform="scale(1 1) rotate(0) translate(4 134)">
<title>%3</title>
<polygon fill="#ffffff" stroke="transparent" points="-4,4 -4,-134 453.5686,-134 453.5686,4 -4,4"/>
<g id="clust1" class="cluster">
<title>cluster_0</title>
<polygon fill="none" stroke="#000000" stroke-dasharray="5,2" points="185.0854,-8 185.0854,-122 441.5686,-122 441.5686,-8 185.0854,-8"/>
<text text-anchor="middle" x="313.327" y="-106.8" font-family="Times,serif" font-size="14.00" fill="#000000">pymedphys_utilities</text>
</g>
<g id="clust2" class="cluster">
<title>cluster_1</title>
<polygon fill="none" stroke="#000000" stroke-dasharray="5,2" points="193.0854,-16 193.0854,-91 433.5686,-91 433.5686,-16 193.0854,-16"/>
<text text-anchor="middle" x="313.327" y="-75.8" font-family="Times,serif" font-size="14.00" fill="#000000">pymedphys_utilities.filehash</text>
</g>
<!-- pymedphys_utilities.filehash.core -->
<g id="node1" class="node">
<title>pymedphys_utilities.filehash.core</title>
<ellipse fill="none" stroke="#000000" cx="369.6736" cy="-42" rx="55.7903" ry="18"/>
<text text-anchor="middle" x="369.6736" y="-38.3" font-family="Times,serif" font-size="14.00" fill="#000000">filehash.core</text>
</g>
<!-- pymedphys_utilities.filehash -->
<g id="node2" class="node">
<title>pymedphys_utilities.filehash</title>
<ellipse fill="none" stroke="#000000" cx="239.4319" cy="-42" rx="38.1938" ry="18"/>
<text text-anchor="middle" x="239.4319" y="-38.3" font-family="Times,serif" font-size="14.00" fill="#000000">filehash</text>
</g>
<!-- pymedphys_utilities.filehash&#45;&gt;pymedphys_utilities.filehash.core -->
<g id="edge1" class="edge">
<title>pymedphys_utilities.filehash&#45;&gt;pymedphys_utilities.filehash.core</title>
<path fill="none" stroke="#000000" d="M277.8043,-42C285.894,-42 294.6504,-42 303.4338,-42"/>
<polygon fill="#000000" stroke="#000000" points="303.719,-45.5001 313.719,-42 303.719,-38.5001 303.719,-45.5001"/>
</g>
<!-- pymedphys_logfiles.elekta.index -->
<g id="node3" class="node">
<title>pymedphys_logfiles.elekta.index</title>
<ellipse fill="none" stroke="#000000" cx="82.5427" cy="-42" rx="82.5854" ry="18"/>
<text text-anchor="middle" x="82.5427" y="-38.3" font-family="Times,serif" font-size="14.00" fill="#000000">logfiles.elekta.index</text>
</g>
<!-- pymedphys_logfiles.elekta.index&#45;&gt;pymedphys_utilities.filehash -->
<g id="edge2" class="edge">
<title>pymedphys_logfiles.elekta.index&#45;&gt;pymedphys_utilities.filehash</title>
<path fill="none" stroke="#000000" d="M165.1223,-42C173.9463,-42 182.7003,-42 190.9361,-42"/>
<polygon fill="#000000" stroke="#000000" points="191.0573,-45.5001 201.0572,-42 191.0572,-38.5001 191.0573,-45.5001"/>
</g>
</g>
</svg>
