<?xml version="1.0" encoding="UTF-8" standalone="no"?>
<!DOCTYPE svg PUBLIC "-//W3C//DTD SVG 1.1//EN"
 "http://www.w3.org/Graphics/SVG/1.1/DTD/svg11.dtd">
<!-- Generated by graphviz version 2.40.1 (20161225.0304)
 -->
<!-- Title: %3 Pages: 1 -->
<svg width="559pt" height="330pt"
 viewBox="0.00 0.00 558.96 330.00" xmlns="http://www.w3.org/2000/svg" xmlns:xlink="http://www.w3.org/1999/xlink">
<g id="graph0" class="graph" transform="scale(1 1) rotate(0) translate(4 326)">
<title>%3</title>
<polygon fill="#ffffff" stroke="transparent" points="-4,4 -4,-326 554.9596,-326 554.9596,4 -4,4"/>
<g id="clust1" class="cluster">
<title>cluster_0</title>
<polygon fill="none" stroke="#000000" stroke-dasharray="5,2" points="231.8812,-38 231.8812,-314 542.9596,-314 542.9596,-38 231.8812,-38"/>
<text text-anchor="middle" x="387.4204" y="-298.8" font-family="Times,serif" font-size="14.00" fill="#000000">pymedphys_utilities</text>
</g>
<g id="clust2" class="cluster">
<title>cluster_1</title>
<polygon fill="none" stroke="#000000" stroke-dasharray="5,2" points="239.8812,-46 239.8812,-283 534.9596,-283 534.9596,-46 239.8812,-46"/>
<text text-anchor="middle" x="387.4204" y="-267.8" font-family="Times,serif" font-size="14.00" fill="#000000">pymedphys_utilities.utilities</text>
</g>
<!-- pymedphys_utilities.utilities.compression -->
<g id="node1" class="node">
<title>pymedphys_utilities.utilities.compression</title>
<ellipse fill="none" stroke="#000000" cx="442.4671" cy="-234" rx="84.485" ry="18"/>
<text text-anchor="middle" x="442.4671" y="-230.3" font-family="Times,serif" font-size="14.00" fill="#000000">utilities.compression</text>
</g>
<!-- pymedphys_utilities.utilities.config -->
<g id="node2" class="node">
<title>pymedphys_utilities.utilities.config</title>
<ellipse fill="none" stroke="#000000" cx="442.4671" cy="-72" rx="61.99" ry="18"/>
<text text-anchor="middle" x="442.4671" y="-68.3" font-family="Times,serif" font-size="14.00" fill="#000000">utilities.config</text>
</g>
<!-- pymedphys_utilities.utilities.filesearch -->
<g id="node3" class="node">
<title>pymedphys_utilities.utilities.filesearch</title>
<ellipse fill="none" stroke="#000000" cx="442.4671" cy="-126" rx="73.387" ry="18"/>
<text text-anchor="middle" x="442.4671" y="-122.3" font-family="Times,serif" font-size="14.00" fill="#000000">utilities.filesearch</text>
</g>
<!-- pymedphys_utilities.utilities.filesystem -->
<g id="node4" class="node">
<title>pymedphys_utilities.utilities.filesystem</title>
<ellipse fill="none" stroke="#000000" cx="442.4671" cy="-180" rx="76.0865" ry="18"/>
<text text-anchor="middle" x="442.4671" y="-176.3" font-family="Times,serif" font-size="14.00" fill="#000000">utilities.filesystem</text>
</g>
<!-- pymedphys_utilities.utilities -->
<g id="node5" class="node">
<title>pymedphys_utilities.utilities</title>
<ellipse fill="none" stroke="#000000" cx="284.9279" cy="-126" rx="37.0935" ry="18"/>
<text text-anchor="middle" x="284.9279" y="-122.3" font-family="Times,serif" font-size="14.00" fill="#000000">utilities</text>
</g>
<!-- pymedphys_utilities.utilities&#45;&gt;pymedphys_utilities.utilities.config -->
<g id="edge1" class="edge">
<title>pymedphys_utilities.utilities&#45;&gt;pymedphys_utilities.utilities.config</title>
<path fill="none" stroke="#000000" d="M314.3201,-114.7947C327.6042,-109.8186 343.5294,-103.9749 357.9746,-99 368.342,-95.4295 379.4786,-91.7564 390.1546,-88.3141"/>
<polygon fill="#000000" stroke="#000000" points="391.3381,-91.6103 399.7942,-85.2272 389.2032,-84.9438 391.3381,-91.6103"/>
</g>
<!-- pymedphys_utilities.utilities&#45;&gt;pymedphys_utilities.utilities.filesearch -->
<g id="edge2" class="edge">
<title>pymedphys_utilities.utilities&#45;&gt;pymedphys_utilities.utilities.filesearch</title>
<path fill="none" stroke="#000000" d="M322.2625,-126C333.3191,-126 345.8984,-126 358.6547,-126"/>
<polygon fill="#000000" stroke="#000000" points="358.8973,-129.5001 368.8973,-126 358.8973,-122.5001 358.8973,-129.5001"/>
</g>
<!-- pymedphys_utilities.utilities&#45;&gt;pymedphys_utilities.utilities.filesystem -->
<g id="edge3" class="edge">
<title>pymedphys_utilities.utilities&#45;&gt;pymedphys_utilities.utilities.filesystem</title>
<path fill="none" stroke="#000000" d="M314.3201,-137.2053C327.6042,-142.1814 343.5294,-148.0251 357.9746,-153 367.1601,-156.1635 376.9495,-159.4074 386.4873,-162.5001"/>
<polygon fill="#000000" stroke="#000000" points="385.7083,-165.9262 396.2997,-165.6585 387.8531,-159.2628 385.7083,-165.9262"/>
</g>
<!-- pymedphys_logfiles.elekta.index -->
<g id="node6" class="node">
<title>pymedphys_logfiles.elekta.index</title>
<ellipse fill="none" stroke="#000000" cx="105.9406" cy="-234" rx="82.5854" ry="18"/>
<text text-anchor="middle" x="105.9406" y="-230.3" font-family="Times,serif" font-size="14.00" fill="#000000">logfiles.elekta.index</text>
</g>
<!-- pymedphys_logfiles.elekta.index&#45;&gt;pymedphys_utilities.utilities -->
<g id="edge4" class="edge">
<title>pymedphys_logfiles.elekta.index&#45;&gt;pymedphys_utilities.utilities</title>
<path fill="none" stroke="#000000" d="M172.768,-223.3144C186.3095,-219.4356 200.0204,-214.1625 211.8812,-207 234.8663,-193.1199 254.7994,-169.7653 268.0097,-151.6903"/>
<polygon fill="#000000" stroke="#000000" points="271.0226,-153.4916 273.9386,-143.306 265.3072,-149.45 271.0226,-153.4916"/>
</g>
<!-- pymedphys_logfiles.elekta.analyse -->
<g id="node7" class="node">
<title>pymedphys_logfiles.elekta.analyse</title>
<ellipse fill="none" stroke="#000000" cx="105.9406" cy="-180" rx="89.0842" ry="18"/>
<text text-anchor="middle" x="105.9406" y="-176.3" font-family="Times,serif" font-size="14.00" fill="#000000">logfiles.elekta.analyse</text>
</g>
<!-- pymedphys_logfiles.elekta.analyse&#45;&gt;pymedphys_utilities.utilities -->
<g id="edge5" class="edge">
<title>pymedphys_logfiles.elekta.analyse&#45;&gt;pymedphys_utilities.utilities</title>
<path fill="none" stroke="#000000" d="M164.2559,-166.3017C179.821,-162.3291 196.5677,-157.7672 211.8812,-153 223.2635,-149.4566 235.4704,-145.1511 246.5837,-141.0289"/>
<polygon fill="#000000" stroke="#000000" points="247.894,-144.2755 256.0202,-137.4772 245.4282,-137.7241 247.894,-144.2755"/>
</g>
<!-- pymedphys_xlwings.xlwings.mephysto -->
<g id="node8" class="node">
<title>pymedphys_xlwings.xlwings.mephysto</title>
<ellipse fill="none" stroke="#000000" cx="105.9406" cy="-126" rx="105.8812" ry="18"/>
<text text-anchor="middle" x="105.9406" y="-122.3" font-family="Times,serif" font-size="14.00" fill="#000000">xlwings.xlwings.mephysto</text>
</g>
<!-- pymedphys_xlwings.xlwings.mephysto&#45;&gt;pymedphys_utilities.utilities -->
<g id="edge6" class="edge">
<title>pymedphys_xlwings.xlwings.mephysto&#45;&gt;pymedphys_utilities.utilities</title>
<path fill="none" stroke="#000000" d="M212.1269,-126C220.9202,-126 229.4905,-126 237.482,-126"/>
<polygon fill="#000000" stroke="#000000" points="237.6242,-129.5001 247.6242,-126 237.6241,-122.5001 237.6242,-129.5001"/>
</g>
<!-- pymedphys_logfiles.elekta.bygantry -->
<g id="node9" class="node">
<title>pymedphys_logfiles.elekta.bygantry</title>
<ellipse fill="none" stroke="#000000" cx="105.9406" cy="-72" rx="94.4839" ry="18"/>
<text text-anchor="middle" x="105.9406" y="-68.3" font-family="Times,serif" font-size="14.00" fill="#000000">logfiles.elekta.bygantry</text>
</g>
<!-- pymedphys_logfiles.elekta.bygantry&#45;&gt;pymedphys_utilities.utilities -->
<g id="edge7" class="edge">
<title>pymedphys_logfiles.elekta.bygantry&#45;&gt;pymedphys_utilities.utilities</title>
<path fill="none" stroke="#000000" d="M165.363,-85.9814C180.613,-89.887 196.9301,-94.3456 211.8812,-99 223.2635,-102.5434 235.4704,-106.8489 246.5837,-110.9711"/>
<polygon fill="#000000" stroke="#000000" points="245.4282,-114.2759 256.0202,-114.5228 247.894,-107.7245 245.4282,-114.2759"/>
</g>
<!-- pymedphys_xlwings.xlwings.dicom -->
<g id="node10" class="node">
<title>pymedphys_xlwings.xlwings.dicom</title>
<ellipse fill="none" stroke="#000000" cx="105.9406" cy="-18" rx="93.6835" ry="18"/>
<text text-anchor="middle" x="105.9406" y="-14.3" font-family="Times,serif" font-size="14.00" fill="#000000">xlwings.xlwings.dicom</text>
</g>
<!-- pymedphys_xlwings.xlwings.dicom&#45;&gt;pymedphys_utilities.utilities -->
<g id="edge8" class="edge">
<title>pymedphys_xlwings.xlwings.dicom&#45;&gt;pymedphys_utilities.utilities</title>
<path fill="none" stroke="#000000" d="M176.6664,-29.8403C188.9219,-33.5931 201.1577,-38.5243 211.8812,-45 234.8663,-58.8801 254.7994,-82.2347 268.0097,-100.3097"/>
<polygon fill="#000000" stroke="#000000" points="265.3072,-102.55 273.9386,-108.694 271.0226,-98.5084 265.3072,-102.55"/>
</g>
</g>
</svg>
