<?xml version="1.0" encoding="UTF-8" standalone="no"?>
<!DOCTYPE svg PUBLIC "-//W3C//DTD SVG 1.1//EN"
 "http://www.w3.org/Graphics/SVG/1.1/DTD/svg11.dtd">
<!-- Generated by graphviz version 2.40.1 (20161225.0304)
 -->
<!-- Title: %3 Pages: 1 -->
<svg width="390pt" height="314pt"
 viewBox="0.00 0.00 390.17 314.00" xmlns="http://www.w3.org/2000/svg" xmlns:xlink="http://www.w3.org/1999/xlink">
<g id="graph0" class="graph" transform="scale(1 1) rotate(0) translate(4 310)">
<title>%3</title>
<polygon fill="#ffffff" stroke="transparent" points="-4,4 -4,-310 386.1742,-310 386.1742,4 -4,4"/>
<g id="clust2" class="cluster">
<title>cluster_0</title>
<polygon fill="none" stroke="#000000" stroke-dasharray="5,2" points="0,-127 0,-202 126.6943,-202 126.6943,-127 0,-127"/>
<text text-anchor="middle" x="63.3472" y="-186.8" font-family="Times,serif" font-size="14.00" fill="#000000">pymedphys_logfiles</text>
</g>
<!-- pymedphys_utilities.utilities -->
<g id="node1" class="node">
<title>pymedphys_utilities.utilities</title>
<ellipse fill="none" stroke="#000000" cx="268.4343" cy="-288" rx="65.7887" ry="18"/>
<text text-anchor="middle" x="268.4343" y="-284.3" font-family="Times,serif" font-size="14.00" fill="#000000">utilities.utilities</text>
</g>
<!-- pymedphys_fileformats.trf -->
<g id="node2" class="node">
<title>pymedphys_fileformats.trf</title>
<ellipse fill="none" stroke="#000000" cx="268.4343" cy="-234" rx="60.3893" ry="18"/>
<text text-anchor="middle" x="268.4343" y="-230.3" font-family="Times,serif" font-size="14.00" fill="#000000">fileformats.trf</text>
</g>
<!-- pymedphys_coordsandscales.deliverydata -->
<g id="node3" class="node">
<title>pymedphys_coordsandscales.deliverydata</title>
<ellipse fill="none" stroke="#000000" cx="268.4343" cy="-180" rx="113.9803" ry="18"/>
<text text-anchor="middle" x="268.4343" y="-176.3" font-family="Times,serif" font-size="14.00" fill="#000000">coordsandscales.deliverydata</text>
</g>
<!-- pymedphys_analysis.mudensity -->
<g id="node4" class="node">
<title>pymedphys_analysis.mudensity</title>
<ellipse fill="none" stroke="#000000" cx="268.4343" cy="-126" rx="78.7863" ry="18"/>
<text text-anchor="middle" x="268.4343" y="-122.3" font-family="Times,serif" font-size="14.00" fill="#000000">analysis.mudensity</text>
</g>
<!-- pymedphys_utilities.filehash -->
<g id="node5" class="node">
<title>pymedphys_utilities.filehash</title>
<ellipse fill="none" stroke="#000000" cx="268.4343" cy="-72" rx="67.6881" ry="18"/>
<text text-anchor="middle" x="268.4343" y="-68.3" font-family="Times,serif" font-size="14.00" fill="#000000">utilities.filehash</text>
</g>
<!-- pymedphys_databases.msq -->
<g id="node6" class="node">
<title>pymedphys_databases.msq</title>
<ellipse fill="none" stroke="#000000" cx="268.4343" cy="-18" rx="61.99" ry="18"/>
<text text-anchor="middle" x="268.4343" y="-14.3" font-family="Times,serif" font-size="14.00" fill="#000000">databases.msq</text>
</g>
<!-- pymedphys_logfiles.elekta -->
<g id="node7" class="node">
<title>pymedphys_logfiles.elekta</title>
<ellipse fill="none" stroke="#000000" cx="62.8472" cy="-153" rx="31.6951" ry="18"/>
<text text-anchor="middle" x="62.8472" y="-149.3" font-family="Times,serif" font-size="14.00" fill="#000000">elekta</text>
</g>
<!-- pymedphys_logfiles.elekta&#45;&gt;pymedphys_utilities.utilities -->
<g id="edge1" class="edge">
<title>pymedphys_logfiles.elekta&#45;&gt;pymedphys_utilities.utilities</title>
<path fill="none" stroke="#000000" d="M72.5796,-170.1887C87.1884,-194.3548 117.1234,-237.9879 154.6943,-261 167.7556,-269 183.0008,-274.6297 198.0071,-278.5914"/>
<polygon fill="#000000" stroke="#000000" points="197.2659,-282.013 207.8085,-280.962 198.9116,-275.2092 197.2659,-282.013"/>
</g>
<!-- pymedphys_logfiles.elekta&#45;&gt;pymedphys_fileformats.trf -->
<g id="edge2" class="edge">
<title>pymedphys_logfiles.elekta&#45;&gt;pymedphys_fileformats.trf</title>
<path fill="none" stroke="#000000" d="M82.7356,-167.0633C100.7576,-179.2161 128.4362,-196.4425 154.6943,-207 170.9075,-213.5187 189.0809,-218.7068 206.0619,-222.7218"/>
<polygon fill="#000000" stroke="#000000" points="205.3721,-226.1542 215.8985,-224.9515 206.9196,-219.3274 205.3721,-226.1542"/>
</g>
<!-- pymedphys_logfiles.elekta&#45;&gt;pymedphys_coordsandscales.deliverydata -->
<g id="edge3" class="edge">
<title>pymedphys_logfiles.elekta&#45;&gt;pymedphys_coordsandscales.deliverydata</title>
<path fill="none" stroke="#000000" d="M94.0714,-157.1007C114.6803,-159.8073 142.9084,-163.5145 170.6491,-167.1578"/>
<polygon fill="#000000" stroke="#000000" points="170.4616,-170.6631 180.8322,-168.4951 171.3732,-163.7227 170.4616,-170.6631"/>
</g>
<!-- pymedphys_logfiles.elekta&#45;&gt;pymedphys_analysis.mudensity -->
<g id="edge4" class="edge">
<title>pymedphys_logfiles.elekta&#45;&gt;pymedphys_analysis.mudensity</title>
<path fill="none" stroke="#000000" d="M94.0714,-148.8993C119.4191,-145.5703 156.2931,-140.7276 189.6095,-136.3521"/>
<polygon fill="#000000" stroke="#000000" points="190.3591,-139.7838 199.8182,-135.0114 189.4476,-132.8434 190.3591,-139.7838"/>
</g>
<!-- pymedphys_logfiles.elekta&#45;&gt;pymedphys_utilities.filehash -->
<g id="edge5" class="edge">
<title>pymedphys_logfiles.elekta&#45;&gt;pymedphys_utilities.filehash</title>
<path fill="none" stroke="#000000" d="M82.7356,-138.9367C100.7576,-126.7839 128.4362,-109.5575 154.6943,-99 169.5232,-93.0379 185.9918,-88.1889 201.6882,-84.3324"/>
<polygon fill="#000000" stroke="#000000" points="202.9327,-87.6353 211.8664,-81.9397 201.3308,-80.821 202.9327,-87.6353"/>
</g>
<!-- pymedphys_logfiles.elekta&#45;&gt;pymedphys_databases.msq -->
<g id="edge6" class="edge">
<title>pymedphys_logfiles.elekta&#45;&gt;pymedphys_databases.msq</title>
<path fill="none" stroke="#000000" d="M72.5796,-135.8113C87.1884,-111.6452 117.1234,-68.0121 154.6943,-45 168.525,-36.5288 184.8043,-30.7153 200.6558,-26.7258"/>
<polygon fill="#000000" stroke="#000000" points="201.486,-30.1263 210.4446,-24.47 199.914,-23.3051 201.486,-30.1263"/>
</g>
</g>
</svg>
