<?xml version="1.0" encoding="UTF-8" standalone="no"?>
<!DOCTYPE svg PUBLIC "-//W3C//DTD SVG 1.1//EN"
 "http://www.w3.org/Graphics/SVG/1.1/DTD/svg11.dtd">
<!-- Generated by graphviz version 2.40.1 (20161225.0304)
 -->
<!-- Title: %3 Pages: 1 -->
<svg width="319pt" height="222pt"
 viewBox="0.00 0.00 319.38 222.00" xmlns="http://www.w3.org/2000/svg" xmlns:xlink="http://www.w3.org/1999/xlink">
<g id="graph0" class="graph" transform="scale(1 1) rotate(0) translate(4 218)">
<title>%3</title>
<polygon fill="#ffffff" stroke="transparent" points="-4,4 -4,-218 315.3783,-218 315.3783,4 -4,4"/>
<g id="clust2" class="cluster">
<title>cluster_0</title>
<polygon fill="none" stroke="#000000" stroke-dasharray="5,2" points="185.286,-8 185.286,-191 311.3783,-191 311.3783,-8 185.286,-8"/>
<text text-anchor="middle" x="248.3322" y="-175.8" font-family="Times,serif" font-size="14.00" fill="#000000">pymedphys_utilities</text>
</g>
<!-- pymedphys_analysis.mudensity -->
<g id="node1" class="node">
<title>pymedphys_analysis.mudensity</title>
<ellipse fill="none" stroke="#000000" cx="78.643" cy="-196" rx="78.7863" ry="18"/>
<text text-anchor="middle" x="78.643" y="-192.3" font-family="Times,serif" font-size="14.00" fill="#000000">analysis.mudensity</text>
</g>
<!-- pymedphys_utilities.constants -->
<g id="node5" class="node">
<title>pymedphys_utilities.constants</title>
<ellipse fill="none" stroke="#000000" cx="247.8322" cy="-142" rx="43.5923" ry="18"/>
<text text-anchor="middle" x="247.8322" y="-138.3" font-family="Times,serif" font-size="14.00" fill="#000000">constants</text>
</g>
<!-- pymedphys_analysis.mudensity&#45;&gt;pymedphys_utilities.constants -->
<g id="edge1" class="edge">
<title>pymedphys_analysis.mudensity&#45;&gt;pymedphys_utilities.constants</title>
<path fill="none" stroke="#000000" d="M124.8747,-181.2443C149.3823,-173.4222 179.34,-163.8606 203.549,-156.1338"/>
<polygon fill="#000000" stroke="#000000" points="204.7364,-159.4289 213.1987,-153.0539 202.608,-152.7603 204.7364,-159.4289"/>
</g>
<!-- pymedphys_labs.paulking -->
<g id="node2" class="node">
<title>pymedphys_labs.paulking</title>
<ellipse fill="none" stroke="#000000" cx="78.643" cy="-142" rx="57.6901" ry="18"/>
<text text-anchor="middle" x="78.643" y="-138.3" font-family="Times,serif" font-size="14.00" fill="#000000">labs.paulking</text>
</g>
<!-- pymedphys_labs.paulking&#45;&gt;pymedphys_utilities.constants -->
<g id="edge2" class="edge">
<title>pymedphys_labs.paulking&#45;&gt;pymedphys_utilities.constants</title>
<path fill="none" stroke="#000000" d="M136.8683,-142C155.4125,-142 175.8351,-142 194.0501,-142"/>
<polygon fill="#000000" stroke="#000000" points="194.2017,-145.5001 204.2016,-142 194.2016,-138.5001 194.2017,-145.5001"/>
</g>
<!-- pymedphys_logfiles.elekta -->
<g id="node3" class="node">
<title>pymedphys_logfiles.elekta</title>
<ellipse fill="none" stroke="#000000" cx="78.643" cy="-88" rx="60.3893" ry="18"/>
<text text-anchor="middle" x="78.643" y="-84.3" font-family="Times,serif" font-size="14.00" fill="#000000">logfiles.elekta</text>
</g>
<!-- pymedphys_utilities.filehash -->
<g id="node6" class="node">
<title>pymedphys_utilities.filehash</title>
<ellipse fill="none" stroke="#000000" cx="247.8322" cy="-88" rx="38.1938" ry="18"/>
<text text-anchor="middle" x="247.8322" y="-84.3" font-family="Times,serif" font-size="14.00" fill="#000000">filehash</text>
</g>
<!-- pymedphys_logfiles.elekta&#45;&gt;pymedphys_utilities.filehash -->
<g id="edge3" class="edge">
<title>pymedphys_logfiles.elekta&#45;&gt;pymedphys_utilities.filehash</title>
<path fill="none" stroke="#000000" d="M139.2463,-88C158.9271,-88 180.4964,-88 199.1887,-88"/>
<polygon fill="#000000" stroke="#000000" points="199.2471,-91.5001 209.247,-88 199.247,-84.5001 199.2471,-91.5001"/>
</g>
<!-- pymedphys_utilities.utilities -->
<g id="node7" class="node">
<title>pymedphys_utilities.utilities</title>
<ellipse fill="none" stroke="#000000" cx="247.8322" cy="-34" rx="37.0935" ry="18"/>
<text text-anchor="middle" x="247.8322" y="-30.3" font-family="Times,serif" font-size="14.00" fill="#000000">utilities</text>
</g>
<!-- pymedphys_logfiles.elekta&#45;&gt;pymedphys_utilities.utilities -->
<g id="edge4" class="edge">
<title>pymedphys_logfiles.elekta&#45;&gt;pymedphys_utilities.utilities</title>
<path fill="none" stroke="#000000" d="M120.0313,-74.7901C146.489,-66.3456 180.6543,-55.4411 207.0025,-47.0316"/>
<polygon fill="#000000" stroke="#000000" points="208.2233,-50.316 216.6856,-43.941 206.0948,-43.6474 208.2233,-50.316"/>
</g>
<!-- pymedphys_xlwings.xlwings -->
<g id="node4" class="node">
<title>pymedphys_xlwings.xlwings</title>
<ellipse fill="none" stroke="#000000" cx="78.643" cy="-34" rx="68.7879" ry="18"/>
<text text-anchor="middle" x="78.643" y="-30.3" font-family="Times,serif" font-size="14.00" fill="#000000">xlwings.xlwings</text>
</g>
<!-- pymedphys_xlwings.xlwings&#45;&gt;pymedphys_utilities.utilities -->
<g id="edge5" class="edge">
<title>pymedphys_xlwings.xlwings&#45;&gt;pymedphys_utilities.utilities</title>
<path fill="none" stroke="#000000" d="M147.9469,-34C165.4641,-34 183.8861,-34 200.0723,-34"/>
<polygon fill="#000000" stroke="#000000" points="200.3542,-37.5001 210.3542,-34 200.3541,-30.5001 200.3542,-37.5001"/>
</g>
</g>
</svg>
