<?xml version="1.0" encoding="UTF-8" standalone="no"?>
<!DOCTYPE svg PUBLIC "-//W3C//DTD SVG 1.1//EN"
 "http://www.w3.org/Graphics/SVG/1.1/DTD/svg11.dtd">
<!-- Generated by graphviz version 2.40.1 (20161225.0304)
 -->
<!-- Title: %3 Pages: 1 -->
<svg width="616pt" height="182pt"
 viewBox="0.00 0.00 615.96 182.00" xmlns="http://www.w3.org/2000/svg" xmlns:xlink="http://www.w3.org/1999/xlink">
<g id="graph0" class="graph" transform="scale(1 1) rotate(0) translate(4 178)">
<title>%3</title>
<polygon fill="#ffffff" stroke="transparent" points="-4,4 -4,-178 611.9585,-178 611.9585,4 -4,4"/>
<g id="clust1" class="cluster">
<title>cluster_0</title>
<polygon fill="none" stroke="#000000" stroke-dasharray="5,2" points="8,-8 8,-166 599.9585,-166 599.9585,-8 8,-8"/>
<text text-anchor="middle" x="303.9792" y="-150.8" font-family="Times,serif" font-size="14.00" fill="#000000">pymedphys_monomanage</text>
</g>
<g id="clust2" class="cluster">
<title>cluster_1</title>
<polygon fill="none" stroke="#000000" stroke-dasharray="5,2" points="215.2324,-16 215.2324,-91 445.669,-91 445.669,-16 215.2324,-16"/>
<text text-anchor="middle" x="330.4507" y="-75.8" font-family="Times,serif" font-size="14.00" fill="#000000">pymedphys_monomanage.tree</text>
</g>
<!-- pymedphys_monomanage.tree.build -->
<g id="node1" class="node">
<title>pymedphys_monomanage.tree.build</title>
<ellipse fill="none" stroke="#000000" cx="393.4729" cy="-42" rx="44.393" ry="18"/>
<text text-anchor="middle" x="393.4729" y="-38.3" font-family="Times,serif" font-size="14.00" fill="#000000">tree.build</text>
</g>
<!-- pymedphys_monomanage.parse.imports -->
<g id="node3" class="node">
<title>pymedphys_monomanage.parse.imports</title>
<ellipse fill="none" stroke="#000000" cx="532.8137" cy="-42" rx="59.2899" ry="18"/>
<text text-anchor="middle" x="532.8137" y="-38.3" font-family="Times,serif" font-size="14.00" fill="#000000">parse.imports</text>
</g>
<!-- pymedphys_monomanage.tree.build&#45;&gt;pymedphys_monomanage.parse.imports -->
<g id="edge4" class="edge">
<title>pymedphys_monomanage.tree.build&#45;&gt;pymedphys_monomanage.parse.imports</title>
<path fill="none" stroke="#000000" d="M437.9443,-42C446.0732,-42 454.7311,-42 463.384,-42"/>
<polygon fill="#000000" stroke="#000000" points="463.5076,-45.5001 473.5076,-42 463.5075,-38.5001 463.5076,-45.5001"/>
</g>
<!-- pymedphys_monomanage.tree -->
<g id="node2" class="node">
<title>pymedphys_monomanage.tree</title>
<ellipse fill="none" stroke="#000000" cx="250.2324" cy="-42" rx="27" ry="18"/>
<text text-anchor="middle" x="250.2324" y="-38.3" font-family="Times,serif" font-size="14.00" fill="#000000">tree</text>
</g>
<!-- pymedphys_monomanage.tree&#45;&gt;pymedphys_monomanage.tree.build -->
<g id="edge5" class="edge">
<title>pymedphys_monomanage.tree&#45;&gt;pymedphys_monomanage.tree.build</title>
<path fill="none" stroke="#000000" d="M277.512,-42C294.8815,-42 317.9874,-42 339.0008,-42"/>
<polygon fill="#000000" stroke="#000000" points="339.1141,-45.5001 349.1141,-42 339.1141,-38.5001 339.1141,-45.5001"/>
</g>
<!-- pymedphys_monomanage.draw.packages -->
<g id="node4" class="node">
<title>pymedphys_monomanage.draw.packages</title>
<ellipse fill="none" stroke="#000000" cx="250.2324" cy="-117" rx="63.0888" ry="18"/>
<text text-anchor="middle" x="250.2324" y="-113.3" font-family="Times,serif" font-size="14.00" fill="#000000">draw.packages</text>
</g>
<!-- pymedphys_monomanage.draw.packages&#45;&gt;pymedphys_monomanage.tree.build -->
<g id="edge1" class="edge">
<title>pymedphys_monomanage.draw.packages&#45;&gt;pymedphys_monomanage.tree.build</title>
<path fill="none" stroke="#000000" d="M292.8782,-103.7419C299.8173,-101.1252 306.8362,-98.19 313.2768,-95 331.0288,-86.2077 349.5606,-74.174 364.3322,-63.7952"/>
<polygon fill="#000000" stroke="#000000" points="366.4613,-66.5755 372.5607,-57.9125 362.3903,-60.8811 366.4613,-66.5755"/>
</g>
<!-- pymedphys_monomanage.draw.directories -->
<g id="node5" class="node">
<title>pymedphys_monomanage.draw.directories</title>
<ellipse fill="none" stroke="#000000" cx="83.594" cy="-92" rx="67.6881" ry="18"/>
<text text-anchor="middle" x="83.594" y="-88.3" font-family="Times,serif" font-size="14.00" fill="#000000">draw.directories</text>
</g>
<!-- pymedphys_monomanage.draw.directories&#45;&gt;pymedphys_monomanage.tree -->
<g id="edge2" class="edge">
<title>pymedphys_monomanage.draw.directories&#45;&gt;pymedphys_monomanage.tree</title>
<path fill="none" stroke="#000000" d="M128.6888,-78.4693C155.9673,-70.2843 190.2249,-60.0053 215.4118,-52.448"/>
<polygon fill="#000000" stroke="#000000" points="216.6916,-55.7182 225.2638,-49.4918 214.6798,-49.0135 216.6916,-55.7182"/>
</g>
<!-- pymedphys_monomanage.draw.files -->
<g id="node6" class="node">
<title>pymedphys_monomanage.draw.files</title>
<ellipse fill="none" stroke="#000000" cx="83.594" cy="-38" rx="46.2923" ry="18"/>
<text text-anchor="middle" x="83.594" y="-34.3" font-family="Times,serif" font-size="14.00" fill="#000000">draw.files</text>
</g>
<!-- pymedphys_monomanage.draw.files&#45;&gt;pymedphys_monomanage.tree -->
<g id="edge3" class="edge">
<title>pymedphys_monomanage.draw.files&#45;&gt;pymedphys_monomanage.tree</title>
<path fill="none" stroke="#000000" d="M130.0121,-39.1142C156.0176,-39.7385 188.0333,-40.507 212.4855,-41.0939"/>
<polygon fill="#000000" stroke="#000000" points="212.7189,-44.6004 222.8001,-41.3415 212.887,-37.6025 212.7189,-44.6004"/>
</g>
</g>
</svg>
