<?xml version="1.0" encoding="UTF-8" standalone="no"?>
<!DOCTYPE svg PUBLIC "-//W3C//DTD SVG 1.1//EN"
 "http://www.w3.org/Graphics/SVG/1.1/DTD/svg11.dtd">
<!-- Generated by graphviz version 2.40.1 (20161225.0304)
 -->
<!-- Title: %3 Pages: 1 -->
<svg width="378pt" height="138pt"
 viewBox="0.00 0.00 377.97 138.00" xmlns="http://www.w3.org/2000/svg" xmlns:xlink="http://www.w3.org/1999/xlink">
<g id="graph0" class="graph" transform="scale(1 1) rotate(0) translate(4 134)">
<title>%3</title>
<polygon fill="#ffffff" stroke="transparent" points="-4,4 -4,-134 373.9746,-134 373.9746,4 -4,4"/>
<g id="clust1" class="cluster">
<title>cluster_0</title>
<polygon fill="none" stroke="#000000" stroke-dasharray="5,2" points="8,-8 8,-122 361.9746,-122 361.9746,-8 8,-8"/>
<text text-anchor="middle" x="184.9873" y="-106.8" font-family="Times,serif" font-size="14.00" fill="#000000">pymedphys_coordsandscales</text>
</g>
<g id="clust2" class="cluster">
<title>cluster_1</title>
<polygon fill="none" stroke="#000000" stroke-dasharray="5,2" points="16,-16 16,-91 353.9746,-91 353.9746,-16 16,-16"/>
<text text-anchor="middle" x="184.9873" y="-75.8" font-family="Times,serif" font-size="14.00" fill="#000000">pymedphys_coordsandscales.coordinates</text>
</g>
<!-- pymedphys_coordsandscales.coordinates.transforms -->
<g id="node1" class="node">
<title>pymedphys_coordsandscales.coordinates.transforms</title>
<ellipse fill="none" stroke="#000000" cx="254.3328" cy="-42" rx="91.784" ry="18"/>
<text text-anchor="middle" x="254.3328" y="-38.3" font-family="Times,serif" font-size="14.00" fill="#000000">coordinates.transforms</text>
</g>
<!-- pymedphys_coordsandscales.coordinates -->
<g id="node2" class="node">
<title>pymedphys_coordsandscales.coordinates</title>
<ellipse fill="none" stroke="#000000" cx="75.3454" cy="-42" rx="51.1914" ry="18"/>
<text text-anchor="middle" x="75.3454" y="-38.3" font-family="Times,serif" font-size="14.00" fill="#000000">coordinates</text>
</g>
<!-- pymedphys_coordsandscales.coordinates&#45;&gt;pymedphys_coordsandscales.coordinates.transforms -->
<g id="edge1" class="edge">
<title>pymedphys_coordsandscales.coordinates&#45;&gt;pymedphys_coordsandscales.coordinates.transforms</title>
<path fill="none" stroke="#000000" d="M127.116,-42C135.1304,-42 143.6389,-42 152.3074,-42"/>
<polygon fill="#000000" stroke="#000000" points="152.537,-45.5001 162.537,-42 152.5369,-38.5001 152.537,-45.5001"/>
</g>
</g>
</svg>
