<?xml version="1.0" encoding="UTF-8" standalone="no"?>
<!DOCTYPE svg PUBLIC "-//W3C//DTD SVG 1.1//EN"
 "http://www.w3.org/Graphics/SVG/1.1/DTD/svg11.dtd">
<!-- Generated by graphviz version 2.40.1 (20161225.0304)
 -->
<!-- Title: %3 Pages: 1 -->
<svg width="568pt" height="141pt"
 viewBox="0.00 0.00 568.06 141.00" xmlns="http://www.w3.org/2000/svg" xmlns:xlink="http://www.w3.org/1999/xlink">
<g id="graph0" class="graph" transform="scale(1 1) rotate(0) translate(4 137)">
<title>%3</title>
<polygon fill="#ffffff" stroke="transparent" points="-4,4 -4,-137 564.0588,-137 564.0588,4 -4,4"/>
<g id="clust1" class="cluster">
<title>cluster_0</title>
<polygon fill="none" stroke="#000000" stroke-dasharray="5,2" points="240.9804,-11 240.9804,-125 552.0588,-125 552.0588,-11 240.9804,-11"/>
<text text-anchor="middle" x="396.5196" y="-109.8" font-family="Times,serif" font-size="14.00" fill="#000000">pymedphys_utilities</text>
</g>
<g id="clust2" class="cluster">
<title>cluster_1</title>
<polygon fill="none" stroke="#000000" stroke-dasharray="5,2" points="248.9804,-19 248.9804,-94 544.0588,-94 544.0588,-19 248.9804,-19"/>
<text text-anchor="middle" x="396.5196" y="-78.8" font-family="Times,serif" font-size="14.00" fill="#000000">pymedphys_utilities.constants</text>
</g>
<!-- pymedphys_utilities.constants.mlctypes -->
<g id="node1" class="node">
<title>pymedphys_utilities.constants.mlctypes</title>
<ellipse fill="none" stroke="#000000" cx="458.0657" cy="-45" rx="77.9862" ry="18"/>
<text text-anchor="middle" x="458.0657" y="-41.3" font-family="Times,serif" font-size="14.00" fill="#000000">constants.mlctypes</text>
</g>
<!-- pymedphys_utilities.constants -->
<g id="node2" class="node">
<title>pymedphys_utilities.constants</title>
<ellipse fill="none" stroke="#000000" cx="300.5265" cy="-45" rx="43.5923" ry="18"/>
<text text-anchor="middle" x="300.5265" y="-41.3" font-family="Times,serif" font-size="14.00" fill="#000000">constants</text>
</g>
<!-- pymedphys_utilities.constants&#45;&gt;pymedphys_utilities.constants.mlctypes -->
<g id="edge1" class="edge">
<title>pymedphys_utilities.constants&#45;&gt;pymedphys_utilities.constants.mlctypes</title>
<path fill="none" stroke="#000000" d="M344.41,-45C352.4802,-45 361.1626,-45 370.0034,-45"/>
<polygon fill="#000000" stroke="#000000" points="370.0281,-48.5001 380.0281,-45 370.0281,-41.5001 370.0281,-48.5001"/>
</g>
<!-- pymedphys_labs.paulking.collequivalent -->
<g id="node3" class="node">
<title>pymedphys_labs.paulking.collequivalent</title>
<ellipse fill="none" stroke="#000000" cx="110.4902" cy="-72" rx="110.4804" ry="18"/>
<text text-anchor="middle" x="110.4902" y="-68.3" font-family="Times,serif" font-size="14.00" fill="#000000">labs.paulking.collequivalent</text>
</g>
<!-- pymedphys_labs.paulking.collequivalent&#45;&gt;pymedphys_utilities.constants -->
<g id="edge2" class="edge">
<title>pymedphys_labs.paulking.collequivalent&#45;&gt;pymedphys_utilities.constants</title>
<path fill="none" stroke="#000000" d="M193.8429,-60.1574C212.5901,-57.4938 231.9523,-54.7429 248.9508,-52.3278"/>
<polygon fill="#000000" stroke="#000000" points="249.7945,-55.7431 259.2027,-50.8712 248.8098,-48.8127 249.7945,-55.7431"/>
</g>
<!-- pymedphys_analysis.mudensity.core -->
<g id="node4" class="node">
<title>pymedphys_analysis.mudensity.core</title>
<ellipse fill="none" stroke="#000000" cx="110.4902" cy="-18" rx="96.3833" ry="18"/>
<text text-anchor="middle" x="110.4902" y="-14.3" font-family="Times,serif" font-size="14.00" fill="#000000">analysis.mudensity.core</text>
</g>
<!-- pymedphys_analysis.mudensity.core&#45;&gt;pymedphys_utilities.constants -->
<g id="edge3" class="edge">
<title>pymedphys_analysis.mudensity.core&#45;&gt;pymedphys_utilities.constants</title>
<path fill="none" stroke="#000000" d="M187.2375,-28.9041C208.1066,-31.8692 230.1978,-35.0078 249.2765,-37.7185"/>
<polygon fill="#000000" stroke="#000000" points="248.8537,-41.1935 259.2466,-39.135 249.8384,-34.2631 248.8537,-41.1935"/>
</g>
</g>
</svg>
