<?xml version="1.0" encoding="UTF-8" standalone="no"?>
<!-- Created with matplotlib (https://matplotlib.org/) -->

<svg
   xmlns:dc="http://purl.org/dc/elements/1.1/"
   xmlns:cc="http://creativecommons.org/ns#"
   xmlns:rdf="http://www.w3.org/1999/02/22-rdf-syntax-ns#"
   xmlns:svg="http://www.w3.org/2000/svg"
   xmlns="http://www.w3.org/2000/svg"
   xmlns:xlink="http://www.w3.org/1999/xlink"
   xmlns:sodipodi="http://sodipodi.sourceforge.net/DTD/sodipodi-0.dtd"
   xmlns:inkscape="http://www.inkscape.org/namespaces/inkscape"
   height="210"
   version="1.1"
   viewBox="0 0 189 157.5"
   width="252"
   id="svg22"
   sodipodi:docname="pymedphys.svg"
   inkscape:version="0.92.4 (5da689c313, 2019-01-14)"
   inkscape:export-filename="/home/simon/git/pymedphys/docs/logos/pymedphys.png"
   inkscape:export-xdpi="82"
   inkscape:export-ydpi="82">
  <metadata
     id="metadata26">
    <rdf:RDF>
      <cc:Work
         rdf:about="">
        <dc:format>image/svg+xml</dc:format>
        <dc:type
           rdf:resource="http://purl.org/dc/dcmitype/StillImage" />
        <dc:title></dc:title>
      </cc:Work>
    </rdf:RDF>
  </metadata>
  <sodipodi:namedview
     pagecolor="#ffffff"
     bordercolor="#666666"
     borderopacity="1"
     objecttolerance="10"
     gridtolerance="10"
     guidetolerance="10"
     inkscape:pageopacity="0"
     inkscape:pageshadow="2"
     inkscape:window-width="1850"
     inkscape:window-height="1016"
     id="namedview24"
     showgrid="false"
     inkscape:zoom="1.8101934"
     inkscape:cx="-4.2978447"
     inkscape:cy="98.256307"
     inkscape:window-x="1990"
     inkscape:window-y="27"
     inkscape:window-maximized="1"
     inkscape:current-layer="svg22"
     fit-margin-top="0"
     fit-margin-left="0"
     fit-margin-right="0"
     fit-margin-bottom="0"
     units="px" />
  <defs
     id="defs4"
     style="stroke-linecap:butt;stroke-linejoin:round">
    <style
       type="text/css"
       id="style2">
*{stroke-linecap:butt;stroke-linejoin:round;}
  </style>
    <linearGradient
       inkscape:collect="always"
       xlink:href="#PythonYellow"
       id="linearGradient4831"
       x1="166.65327"
       y1="166.85133"
       x2="552.95062"
       y2="553.14868"
       gradientUnits="userSpaceOnUse" />
    <linearGradient
       inkscape:collect="always"
       id="PythonYellow">
      <stop
         style="stop-color:#ffe873;stop-opacity:1"
         offset="0"
         id="stop4825" />
      <stop
         style="stop-color:#ffc836;stop-opacity:1"
         offset="1"
         id="stop4827" />
    </linearGradient>
    <clipPath
       id="pdb687ec1ed-3"
       style="stroke-linecap:butt;stroke-linejoin:round">
      <rect
         height="720"
         width="720"
         x="0"
         y="0"
         id="rect17-6"
         style="stroke-linecap:butt;stroke-linejoin:round" />
    </clipPath>
    <linearGradient
       inkscape:collect="always"
       xlink:href="#PythonBlue"
       id="linearGradient34"
       x1="166.65327"
       y1="166.85133"
       x2="552.95062"
       y2="553.14868"
       gradientUnits="userSpaceOnUse" />
    <linearGradient
       inkscape:collect="always"
       id="PythonBlue">
      <stop
         style="stop-color:#3679b0;stop-opacity:1"
         offset="0"
         id="stop28" />
      <stop
         style="stop-color:#366a96;stop-opacity:1"
         offset="1"
         id="stop30" />
    </linearGradient>
    <clipPath
       id="clipPath854"
       style="stroke-linecap:butt;stroke-linejoin:round">
      <rect
         height="720"
         width="720"
         x="0"
         y="0"
         id="rect852"
         style="stroke-linecap:butt;stroke-linejoin:round" />
    </clipPath>
  </defs>
  <defs
     id="defs20">
    <clipPath
       id="pdb687ec1ed"
       style="stroke-linecap:butt;stroke-linejoin:round">
      <rect
         height="720"
         width="720"
         x="0"
         y="0"
         id="rect17"
         style="stroke-linecap:butt;stroke-linejoin:round" />
    </clipPath>
  </defs>
  <path
     transform="matrix(0.28803609,0,0,0.28777207,-9.1924274,-24.847946)"
     clip-path="url(#pdb687ec1ed-3)"
     d="m 632.95542,360 -1.31531,26.77372 -3.93326,26.51588 -6.51333,26.00267 -9.03067,25.23904 -11.46105,24.23235 -13.78104,22.99228 -15.96832,21.53079 -18.00182,19.86194 -19.86195,18.00182 -21.53079,15.96832 -22.99228,13.78104 -24.23235,11.46105 -25.23904,9.03067 -26.00266,6.51333 -26.51588,3.93326 -26.77372,1.31531 -26.77372,-1.31531 -26.51588,-3.93326 -26.00267,-6.51333 L 255.27064,612.3609 231.03829,600.89985 208.04601,587.11881 186.51522,571.15049 166.65327,553.14867 148.65146,533.28673 132.68314,511.75594 118.90209,488.76366 107.44105,464.53131 98.410372,439.29227 91.897043,413.2896 87.963784,386.77372 86.648475,360 l 1.315309,-26.77372 3.933259,-26.51588 6.513329,-26.00267 9.030678,-25.23904 11.46104,-24.23235 13.78105,-22.99228 15.96832,-21.53079 18.00181,-19.86194 19.86195,-18.00182 21.53079,-15.96832 22.99228,-13.78105 24.23235,-11.46104 25.23904,-9.030675 26.00267,-6.513329 26.51588,-3.933259 26.77372,-1.315309 26.77372,1.315309 26.51588,3.933259 26.00266,6.513329 25.23904,9.030675 24.23235,11.46104 22.99228,13.78105 21.53079,15.96832 19.86195,18.00182 18.00182,19.86194 15.96832,21.53079 13.78104,22.99228 11.46105,24.23235 9.03067,25.23904 6.51333,26.00267 3.93326,26.51588 L 632.95542,360 v 0 m -114.79782,0 v 0 l -0.76253,-15.52157 -2.28023,-15.37209 -3.77598,-15.07456 -5.23537,-14.63186 -6.64433,-14.04826 -7.9893,-13.32935 -9.25734,-12.48207 -10.43622,-11.5146 -11.51459,-10.43622 -12.48208,-9.25733 -13.32935,-7.98931 -14.04825,-6.64433 -14.63186,-5.23536 -15.07457,-3.77598 -15.37209,-2.28024 -15.52156,-0.76252 -15.52157,0.76252 -15.37209,2.28024 -15.07456,3.77598 -14.63187,5.23536 -14.04825,6.64433 -13.32935,7.98931 -12.48208,9.25733 -11.51459,10.43622 -10.43622,11.5146 -9.25734,12.48207 -7.9893,13.32935 -6.64433,14.04826 -5.23537,14.63186 -3.77598,15.07456 -2.28023,15.37209 -0.76253,15.52157 0.76253,15.52157 2.28023,15.37209 3.77598,15.07456 5.23537,14.63186 6.64433,14.04826 7.9893,13.32935 9.25734,12.48207 10.43622,11.5146 11.51459,10.43621 12.48208,9.25734 13.32935,7.98931 14.04825,6.64433 14.63187,5.23536 15.07456,3.77598 15.37209,2.28024 15.52157,0.76252 15.52156,-0.76252 15.37209,-2.28024 15.07457,-3.77598 14.63186,-5.23536 14.04825,-6.64433 13.32935,-7.98931 12.48208,-9.25734 11.51459,-10.43621 10.43622,-11.5146 9.25734,-12.48207 7.9893,-13.32935 6.64433,-14.04826 5.23537,-14.63186 3.77598,-15.07456 2.28023,-15.37209 L 518.1576,360"
     style="fill:url(#linearGradient34);fill-opacity:1;stroke:#000000;stroke-linecap:butt;stroke-linejoin:miter"
     id="path9"
     inkscape:connector-curvature="0" />
  <path
     transform="matrix(0.28803609,0,0,0.28777207,-9.1924274,-24.847946)"
     clip-path="url(#pdb687ec1ed-3)"
     d="m 48.20014,345.0966 0.566134,3.6e-4 0.566172,3.9e-4 0.56621,4.3e-4 0.566247,4.7e-4 0.566283,5.1e-4 0.566318,5.5e-4 0.566354,6e-4 0.566386,6.4e-4 0.566419,6.9e-4 0.566449,7.4e-4 0.566478,7.9e-4 0.566505,8.4e-4 0.566529,8.8e-4 0.566552,9.4e-4 0.566572,9.9e-4 0.566588,10e-4 0.566603,0.001 0.566613,10e-4 0.56662,10e-4 0.566624,0.001 0.566622,10e-4 0.566618,0.001 0.566607,10e-4 0.566594,10e-4 0.566573,0.002 0.566549,0.002 0.566517,0.002 0.566481,0.002 0.566438,0.002 0.566389,0.002 0.566332,0.002 0.566269,0.002 0.566199,0.002 0.566121,0.002 0.566034,0.002 0.565941,0.002 0.565839,0.002 0.565729,0.002 0.565609,0.002 0.565481,0.002 0.565344,0.002 0.56512,0.002 0.564959,0.002 0.56479,0.002 0.56461,0.002 0.56442,0.002 0.564222,0.002 0.564013,0.002 0.563795,0.002 0.563567,0.002 0.563329,0.002 0.563081,0.002 0.562825,0.002 0.56256,10e-4 0.562284,10e-4 0.562001,0.001 0.561709,10e-4 0.56141,0.001 0.561101,8.5e-4 0.560786,6.9e-4 0.560464,5.2e-4 0.560137,3.4e-4 0.559802,1.4e-4 0.559463,-7e-5 0.55912,-2.9e-4 0.558772,-5.2e-4 0.558423,-7.8e-4 0.55807,-0.001 0.557716,-10e-4 0.557363,-0.002 0.55701,-0.002 0.556658,-0.002 0.55631,-0.003 0.555965,-0.003 0.555626,-0.003 0.555293,-0.004 0.554968,-0.004 0.554653,-0.004 0.554347,-0.005 0.554054,-0.005 0.553774,-0.006 0.55351,-0.006 0.553263,-0.006 0.553033,-0.007 0.552825,-0.007 0.552637,-0.008 0.552474,-0.008 0.552335,-0.009 0.552225,-0.009 0.552143,-0.01 0.552092,-0.0101 0.552074,-0.0106 0.552087,-0.0111 0.55215,-0.0116 0.55223,-0.0121 0.55237,-0.0126 0.55254,-0.0131 0.55276,-0.0135 0.55302,-0.014 0.55334,-0.0144 0.55369,-0.0149 0.55411,-0.0153 0.55457,-0.0157 0.55509,-0.0161 0.55566,-0.0165 0.5563,-0.0169 0.55699,-0.0172 0.55773,-0.0176 0.55855,-0.0178 0.55943,-0.0181 0.56035,-0.0183 0.56136,-0.0185 0.56243,-0.0187 0.56355,-0.0188 0.56467,-0.0189 0.56537,-0.0189 0.56666,-0.0189 0.56802,-0.0188 0.56945,-0.0187 0.57094,-0.0186 0.5725,-0.0183 0.57412,-0.018 0.57581,-0.0177 0.57755,-0.0172 0.57936,-0.0168 0.016,-4.5e-4 0.5652,-0.0157 0.0179,-4.9e-4 0.5652,-0.015 0.0199,-5.2e-4 0.5652,-0.0143 0.022,-5.4e-4 0.5652,-0.0135 0.024,-5.5e-4 0.56519,-0.0125 0.0262,-5.6e-4 0.5652,-0.0115 0.0283,-5.5e-4 0.5652,-0.0105 0.0306,-5.3e-4 0.5652,-0.009 0.0328,-5e-4 0.5652,-0.008 0.0351,-4.6e-4 0.5652,-0.007 0.0374,-4e-4 0.5652,-0.005 0.0397,-3.3e-4 0.5652,-0.004 0.042,-2.3e-4 0.5652,-0.002 0.0444,-10e-5 0.5652,-5.3e-4 0.0468,3e-5 0.56519,10e-4 0.0491,1.8e-4 0.5652,0.003 0.0515,3.7e-4 0.5652,0.005 0.0538,5.8e-4 0.5652,0.007 0.0561,8.2e-4 0.5652,0.009 0.0584,10e-4 0.5652,0.0114 0.0606,0.001 0.5652,0.0138 0.0628,0.002 0.56519,0.0161 0.065,0.002 0.5652,0.0186 0.0671,0.002 0.5652,0.0211 0.0691,0.003 0.56519,0.0238 0.071,0.003 0.56519,0.0265 0.0728,0.004 0.5652,0.0292 0.0746,0.004 0.5652,0.0321 0.0762,0.005 0.56519,0.035 0.0777,0.005 0.5652,0.038 0.0791,0.006 0.5652,0.041 0.0803,0.006 0.56519,0.0441 0.0814,0.007 0.5652,0.0472 0.0823,0.007 0.56519,0.0503 0.0831,0.008 0.5652,0.0535 0.0837,0.008 0.56519,0.0568 0.0841,0.009 0.5652,0.06 0.0843,0.009 0.5652,0.0632 0.0843,0.01 0.56519,0.0665 0.0841,0.0101 0.56519,0.0698 0.0837,0.0106 0.56519,0.073 0.083,0.011 0.5652,0.0763 0.0821,0.0113 0.5652,0.0795 0.081,0.0116 0.56519,0.0826 0.0797,0.0119 0.5652,0.0858 0.078,0.012 0.56519,0.0888 0.0762,0.0122 0.56519,0.0918 0.074,0.0122 0.5652,0.0947 0.0716,0.0122 0.5652,0.0976 0.069,0.0121 0.56519,0.10032 0.0661,0.0119 0.5652,0.10295 0.0629,0.0116 0.5652,0.10545 0.0594,0.0112 0.56519,0.10783 0.0556,0.0107 0.5652,0.11006 0.0516,0.0101 0.5652,0.11213 0.0473,0.009 0.5652,0.11403 0.0427,0.009 0.56519,0.11575 0.0378,0.008 0.56519,0.11728 0.0326,0.007 0.5652,0.1186 0.0272,0.006 0.56519,0.1197 0.0214,0.005 0.5652,0.12057 0.0154,0.003 0.5652,0.12119 0.57424,0.1235 0.56534,0.12169 0.55704,0.11972 0.54966,0.11767 0.54196,0.11526 0.53396,0.11253 0.52564,0.10945 0.51703,0.10603 0.50809,0.1023 0.49886,0.0983 0.48931,0.0939 0.47946,0.0893 0.46931,0.0844 0.45888,0.0793 0.44816,0.0739 0.43719,0.0684 0.42596,0.0626 0.41451,0.0568 0.40286,0.0509 0.39106,0.0449 0.37913,0.0388 0.36712,0.0328 0.3551,0.0268 0.3431,0.0209 0.33122,0.0151 0.31952,0.009 0.30808,0.004 0.297,-0.002 0.28636,-0.007 0.27628,-0.0118 0.26683,-0.0166 0.25815,-0.0214 0.2503,-0.026 0.2434,-0.0306 0.23753,-0.0352 0.23278,-0.0399 0.22919,-0.0447 0.22684,-0.0497 0.22575,-0.055 0.22593,-0.0607 0.2274,-0.0669 0.23011,-0.0737 0.23406,-0.081 0.23916,-0.0891 0.24534,-0.098 0.25255,-0.10768 0.26067,-0.11818 0.26959,-0.12953 0.27923,-0.14172 0.28947,-0.15475 0.30019,-0.16857 0.31133,-0.18313 0.32275,-0.19841 0.33437,-0.21429 0.34614,-0.23075 0.35795,-0.24767 0.36976,-0.26499 0.38151,-0.2826 0.39316,-0.30044 0.4047,-0.31839 0.41606,-0.3364 0.42728,-0.35434 0.43832,-0.37217 0.4492,-0.38978 0.45991,-0.40712 0.4705,-0.42409 0.48097,-0.44066 0.49135,-0.45674 0.50169,-0.47229 0.51201,-0.48724 0.52239,-0.50158 0.53285,-0.51523 0.54349,-0.52818 0.55435,-0.54039 0.56252,-0.5489 0.57119,-0.55675 0.0178,-0.0173 0.56519,-0.54907 0.0301,-0.0292 0.5652,-0.54598 0.0431,-0.0415 0.56519,-0.5416 0.057,-0.0543 0.56519,-0.53591 0.0717,-0.0676 0.56519,-0.52885 0.0876,-0.0813 0.5652,-0.52041 0.10484,-0.0956 0.56519,-0.51055 0.1236,-0.1104 0.56519,-0.49925 0.14414,-0.12568 0.5652,-0.48647 0.16676,-0.14142 0.56519,-0.47221 0.19176,-0.15752 0.5652,-0.45645 0.21951,-0.17389 0.56519,-0.43915 0.25037,-0.19033 0.5652,-0.42033 0.28476,-0.2066 0.56519,-0.39995 0.32311,-0.22233 0.5652,-0.37803 0.36583,-0.23701 0.5652,-0.35455 0.41331,-0.25003 0.5652,-0.32951 0.46584,-0.26052 0.56519,-0.30293 0.52355,-0.26744 0.56519,-0.27479 0.58629,-0.26952 0.56519,-0.24514 0.65356,-0.26526 0.5652,-0.21396 0.72431,-0.25307 0.5652,-0.18129 0.79685,-0.23133 0.56519,-0.14714 0.8687,-0.19862 0.56519,-0.11156 0.93661,-0.15404 0.5652,-0.0746 0.99674,-0.0975 0.5652,-0.0362 1.04493,-0.0301 0.5652,0.004 1.07728,0.0458 0.56519,0.0445 1.09076,0.12654 0.5652,0.0868 1.08382,0.20776 0.5652,0.13022 1.0567,0.2847 0.5652,0.17478 1.01148,0.35311 0.5652,0.22041 0.95164,0.40978 0.5652,0.26705 0.88149,0.45294 0.5652,0.3146 0.80547,0.4822 0.5652,0.36301 0.72761,0.49836 0.56519,0.41221 0.65116,0.50303 0.5652,0.46209 0.5785,0.49824 0.5652,0.51258 0.51114,0.48609 0.56519,0.56358 0.44989,0.46859 0.56519,0.615 0.39498,0.44743 0.56519,0.66673 0.34629,0.42405 0.5652,0.71867 0.30346,0.39952 0.56519,0.77073 0.26599,0.37469 0.5652,0.82277 0.23331,0.35015 0.5652,0.87471 0.2049,0.32629 0.5652,0.92642 0.1802,0.30339 0.5652,0.97778 0.15874,0.28162 0.56519,1.02865 0.14007,0.26104 0.56519,1.07894 0.1238,0.24166 0.5652,1.12852 0.10961,0.22348 0.56519,1.17723 0.0972,0.20647 0.5652,1.22497 0.0863,0.19054 0.5652,1.27159 0.0767,0.17563 0.5652,1.31699 0.0683,0.16166 0.56519,1.361 0.0608,0.14858 0.56519,1.40349 0.0541,0.13628 0.56519,1.44436 0.0482,0.12469 0.56519,1.48344 0.0428,0.11377 0.56519,1.52061 0.038,0.10341 0.5652,1.55574 0.0336,0.0936 0.56519,1.5887 0.0297,0.0842 0.5652,1.61934 0.026,0.0752 0.56519,1.64755 0.0226,0.0665 0.5652,1.67321 0.0195,0.0581 0.5652,1.69617 0.0165,0.0499 0.5652,1.71634 0.0137,0.0419 0.5652,1.73357 0.011,0.0339 0.56519,1.74776 0.008,0.0261 0.56519,1.75879 0.006,0.0182 0.56519,1.76657 0.56848,1.78124 0.56494,1.77111 0.5619,1.75902 0.33582,1.04755 0.23926,-1.20616 0.54646,-2.8603 0.54885,-2.97529 0.55091,-3.08554 0.55267,-3.19085 0.5542,-3.2911 0.55555,-3.38608 0.55674,-3.47563 0.55778,-3.55954 0.55872,-3.63762 0.55957,-3.70967 0.56034,-3.77551 0.56104,-3.83493 0.56169,-3.88775 0.56231,-3.93381 0.56288,-3.97293 0.56345,-4.00493 0.56398,-4.02968 0.56451,-4.04705 0.56499,-4.05649 0.56531,-4.05718 0.56585,-4.05163 0.56642,-4.03827 0.567,-4.01703 0.002,-0.0172 0.56519,-3.97067 0.003,-0.0218 0.5652,-3.92899 0.004,-0.0267 0.5652,-3.87909 0.005,-0.032 0.56519,-3.82092 0.006,-0.0377 0.56519,-3.75447 0.007,-0.044 0.56519,-3.67975 0.008,-0.051 0.5652,-3.59674 0.009,-0.0587 0.56519,-3.50552 0.011,-0.0674 0.56519,-3.40611 0.013,-0.0773 0.5652,-3.2986 0.0154,-0.0886 0.5652,-3.18307 0.0184,-0.10168 0.56519,-3.05964 0.0221,-0.11701 0.5652,-2.92842 0.0267,-0.13513 0.56519,-2.78957 0.0326,-0.1568 0.5652,-2.64326 0.0403,-0.18306 0.56519,-2.48964 0.0506,-0.21533 0.5652,-2.32894 0.0644,-0.25558 0.5652,-2.16137 0.0837,-0.30665 0.5652,-1.98716 0.11127,-0.37264 0.56519,-1.80657 0.15206,-0.45969 0.5652,-1.61987 0.2148,-0.57701 0.5652,-1.42733 0.31574,-0.73857 0.5652,-1.22929 0.48671,-0.96478 0.5652,-1.02605 0.79276,-1.28127 0.5652,-0.81794 1.36753,-1.69837 0.5652,-0.60531 1.16751,-1.12149 1.28229,-0.9882 0.5652,-0.38853 1.32611,-0.81306 1.40365,-0.67037 1.4659,-0.52037 0.56519,-0.16797 1.40156,-0.34363 1.42822,-0.20644 1.4415,-0.0673 1.44124,0.0725 0.5652,0.056 1.34624,0.1957 1.32277,0.31767 1.28828,0.437 1.24306,0.55268 0.5652,0.28288 1.18049,0.65943 1.11584,0.76374 1.042,0.86175 0.5652,0.51235 0.97543,0.96994 0.88182,1.05576 0.56519,0.74397 1.03375,1.55395 0.5652,0.97729 0.60526,1.16156 0.5652,1.21186 0.37555,0.87759 0.5652,1.44724 0.2456,0.67668 0.56519,1.68298 0.16795,0.53301 0.5652,1.91858 0.11922,0.42817 0.5652,2.15359 0.0873,0.34992 0.5652,2.38753 0.0657,0.29028 0.56519,2.61993 0.0505,0.24392 0.5652,2.85029 0.0396,0.20724 0.5652,3.07814 0.0315,0.17777 0.5652,3.30298 0.0255,0.15375 0.5652,3.52434 0.0208,0.13392 0.5652,3.74174 0.0172,0.11736 0.56519,3.95469 0.0144,0.10339 0.5652,4.16273 0.0121,0.0915 0.5652,4.36538 0.0103,0.0812 0.5652,4.56217 0.009,0.0724 0.5652,4.75267 0.008,0.0646 0.5652,4.93641 0.006,0.0578 0.5652,5.11296 0.006,0.0518 0.5652,5.28189 0.005,0.0464 0.5652,5.4428 0.004,0.0415 0.5652,5.59525 0.004,0.0371 0.5652,5.73889 0.003,0.0331 0.5652,5.87333 0.003,0.0294 0.5652,5.9982 0.002,0.0261 0.5652,6.11318 0.002,0.0229 0.56519,6.21792 0.002,0.02 0.56519,6.31213 0.002,0.0172 0.5652,6.39552 0.56647,6.48237 0.56625,6.54081 0.56602,6.58777 0.56581,6.62304 0.56561,6.64641 0.56542,6.65769 0.56513,6.65573 0.56492,6.64228 0.56471,6.61649 0.56451,6.57815 0.56427,6.52719 0.56403,6.4636 0.56377,6.38735 0.56347,6.29845 0.0849,0.93474 0.18121,-2.20179 0.56316,-6.99768 0.56345,-7.14374 0.56369,-7.2766 0.56392,-7.39605 0.56412,-7.50185 0.56431,-7.59385 0.56448,-7.67187 0.56464,-7.73579 0.56479,-7.78549 0.56493,-7.82091 0.56508,-7.84197 0.56518,-7.84802 0.56529,-7.84003 0.56543,-7.81805 0.56558,-7.78179 0.56573,-7.73136 0.56588,-7.66692 0.56606,-7.58858 0.56624,-7.49655 10e-4,-0.0163 0.5652,-7.37472 0.001,-0.0189 0.5652,-7.25342 0.002,-0.0217 0.56519,-7.11897 0.002,-0.0247 0.5652,-6.97168 0.002,-0.0281 0.56519,-6.81182 0.003,-0.0317 0.5652,-6.63976 0.003,-0.0357 0.5652,-6.45582 0.004,-0.0402 0.56519,-6.26039 0.004,-0.0453 0.5652,-6.05388 0.005,-0.0511 0.5652,-5.8367 0.006,-0.0576 0.56519,-5.60931 0.007,-0.0652 0.5652,-5.37215 0.008,-0.0741 0.56519,-5.12573 0.01,-0.0844 0.5652,-4.87054 0.0115,-0.0968 0.5652,-4.6071 0.0141,-0.11161 0.56519,-4.33595 0.0175,-0.12966 0.5652,-4.05763 0.022,-0.15195 0.5652,-3.77271 0.0281,-0.1799 0.56519,-3.48177 0.0366,-0.21563 0.5652,-3.18539 0.049,-0.26227 0.5652,-2.88415 0.0674,-0.32465 0.56519,-2.57869 0.0961,-0.41051 0.56519,-2.26959 0.1432,-0.53273 0.56519,-1.95747 0.22561,-0.7136 0.5652,-1.64295 0.3817,-0.99286 0.5652,-1.32668 0.7076,-1.44042 0.5652,-1.00924 0.6854,-1.1074 0.77949,-1.04332 0.5652,-0.69129 1.00456,-1.10987 1.11086,-1.00346 1.20595,-0.88692 0.5652,-0.37344 1.24146,-0.73644 1.30689,-0.61286 1.36007,-0.48351 1.40047,-0.34964 1.42773,-0.21247 0.5652,-0.0563 1.57603,-0.073 1.57492,0.094 1.55615,0.26004 1.51992,0.42314 1.46666,0.5815 0.56519,0.2595 1.19873,0.61754 1.13799,0.72339 1.06793,0.82331 0.98911,0.91649 0.5652,0.57337 1.03644,1.16799 0.9085,1.27005 0.5652,0.88468 0.90866,1.64177 0.5652,1.19284 0.4749,1.11789 0.56519,1.49728 0.27393,0.79248 0.56519,1.79741 0.17075,0.58447 0.5652,2.09267 0.11304,0.44578 0.5652,2.3825 0.0785,0.34951 0.56519,2.66638 0.0566,0.28026 0.56519,2.94378 0.0421,0.22894 0.56519,3.21418 0.0321,0.1899 0.5652,3.4771 0.025,0.15953 0.5652,3.73209 0.0199,0.13544 0.56519,3.97868 0.016,0.11601 0.56519,4.21643 0.0131,0.1001 0.5652,4.44494 0.0108,0.0869 0.5652,4.66382 0.009,0.0758 0.5652,4.8727 0.008,0.0664 0.5652,5.07124 0.006,0.0583 0.5652,5.25913 0.005,0.0512 0.5652,5.43605 0.005,0.0451 0.5652,5.60175 0.004,0.0397 0.5652,5.75598 0.003,0.0349 0.56519,5.8985 0.003,0.0305 0.56519,6.02914 0.002,0.0266 0.5652,6.14772 0.002,0.023 0.56519,6.2541 0.002,0.0197 0.5652,6.34815 10e-4,0.0166 0.5652,6.42981 0.5664,6.51277 0.56615,6.56674 0.56593,6.60831 0.56571,6.63747 0.56551,6.65426 0.56526,6.65817 0.56501,6.6497 0.56481,6.62967 0.56461,6.59758 0.56441,6.55357 0.56419,6.49778 0.56395,6.43044 0.56371,6.35173 0.56344,6.26188 0.56314,6.16115 0.56282,6.04979 0.56245,5.92807 0.56204,5.7963 0.56158,5.65475 0.56103,5.50376 0.51104,4.87277 0.4367,-3.07741 0.56328,-4.00009 0.56388,-4.02694 0.56445,-4.04565 0.56496,-4.0561 0.56527,-4.05729 0.56579,-4.05248 0.56633,-4.04015 0.56686,-4.02051 0.002,-0.0157 0.5652,-3.97808 0.003,-0.0196 0.56519,-3.94054 0.003,-0.0236 0.5652,-3.89624 0.004,-0.0277 0.5652,-3.84537 0.005,-0.032 0.5652,-3.78818 0.005,-0.0365 0.5652,-3.72487 0.006,-0.0413 0.5652,-3.6557 0.007,-0.0464 0.56519,-3.5809 0.008,-0.0519 0.5652,-3.50073 0.009,-0.0577 0.56519,-3.41543 0.0108,-0.0641 0.56519,-3.3253 0.0123,-0.071 0.56519,-3.2306 0.014,-0.0786 0.5652,-3.13159 0.016,-0.087 0.5652,-3.02856 0.0183,-0.0963 0.56519,-2.9218 0.021,-0.10669 0.5652,-2.81159 0.0243,-0.11829 0.56519,-2.69823 0.0281,-0.13136 0.56519,-2.58199 0.0328,-0.14616 0.5652,-2.46319 0.0384,-0.16303 0.5652,-2.34208 0.0452,-0.18239 0.5652,-2.21897 0.0537,-0.2047 0.56519,-2.09416 0.0642,-0.2306 0.5652,-1.96792 0.0775,-0.26085 0.5652,-1.84054 0.0944,-0.2964 0.56519,-1.7123 0.11625,-0.33846 0.56519,-1.58347 0.14479,-0.38847 0.5652,-1.45433 0.18263,-0.44825 0.5652,-1.32514 0.23357,-0.51984 0.5652,-1.19618 0.30313,-0.60554 0.5652,-1.06769 0.39948,-0.70731 0.5652,-0.93992 0.53444,-0.82578 0.56519,-0.81313 0.7246,-0.95766 0.56519,-0.68754 0.99103,-1.09078 0.56519,-0.56339 1.35443,-1.19547 0.5652,-0.44089 1.81866,-1.21509 0.5652,-0.32027 1.14549,-0.58528 1.19171,-0.48429 0.5652,-0.20172 1.37369,-0.41685 1.40744,-0.28272 0.5652,-0.0854 1.48338,-0.14882 1.49082,1.7e-4 0.5652,0.0284 1.4223,0.14004 1.40233,0.27567 0.5652,0.13956 1.22444,0.35862 1.18928,0.46206 0.56519,0.24794 1.91295,1.01071 0.5652,0.35336 1.45294,1.03426 0.5652,0.45567 1.08503,0.96571 0.5652,0.55472 0.80983,0.86048 0.5652,0.6504 0.60957,0.74918 0.5652,0.74258 0.4647,0.64561 0.5652,0.83114 0.35935,0.55449 0.56519,0.91602 0.28185,0.47636 0.5652,0.99709 0.22405,0.41011 0.5652,1.07429 0.18029,0.35407 0.5652,1.14755 0.14668,0.30659 0.5652,1.2168 0.12047,0.26617 0.5652,1.28202 0.0998,0.23158 0.5652,1.34315 0.0832,0.20176 0.56519,1.40018 0.0697,0.17587 0.5652,1.45306 0.0586,0.15324 0.5652,1.50181 0.0494,0.1333 0.5652,1.5464 0.0417,0.11559 0.5652,1.58688 0.0351,0.0997 0.5652,1.62323 0.0294,0.0854 0.5652,1.6555 0.0245,0.0724 0.56519,1.6837 0.0202,0.0605 0.5652,1.70789 0.0163,0.0495 0.5652,1.72812 0.0128,0.0392 0.56519,1.74444 0.01,0.0295 0.56519,1.75691 0.007,0.0204 0.56519,1.7656 0.56892,1.78226 0.56544,1.77275 0.56234,1.76091 0.55977,1.74739 0.55722,1.73062 0.5546,1.71062 0.55192,1.68748 0.54914,1.66123 0.54619,1.63194 0.54308,1.59967 0.53974,1.5645 0.53614,1.52648 0.53221,1.4857 0.52791,1.44222 0.52317,1.39609 0.51792,1.34742 0.51207,1.29623 0.50553,1.2426 0.49817,1.18661 0.48987,1.12827 0.48048,1.06768 0.46981,1.00488 0.45764,0.93993 0.44374,0.8729 0.42782,0.80386 0.28938,0.51786 0.29353,-0.26697 0.47478,-0.43969 0.49088,-0.46153 0.50584,-0.48148 0.5198,-0.4996 0.53294,-0.51594 0.54539,-0.53056 0.55728,-0.54352 0.56414,-0.55043 0.57431,-0.5594 0.02,-0.0195 0.56519,-0.54846 0.0307,-0.0297 0.56519,-0.54532 0.0412,-0.0396 0.56519,-0.54116 0.0516,-0.0491 0.56519,-0.536 0.0619,-0.0584 0.56519,-0.52991 0.0722,-0.0672 0.5652,-0.52292 0.0826,-0.0758 0.5652,-0.51508 0.093,-0.0841 0.56519,-0.50644 0.10359,-0.0919 0.56519,-0.49704 0.11429,-0.0995 0.56519,-0.48694 0.12514,-0.10661 0.56519,-0.47618 0.13615,-0.11333 0.5652,-0.4648 0.14733,-0.1196 0.5652,-0.45286 0.15868,-0.12539 0.5652,-0.44039 0.17019,-0.13066 0.5652,-0.42746 0.18183,-0.13536 0.56519,-0.41409 0.19357,-0.13946 0.5652,-0.40034 0.20538,-0.14291 0.5652,-0.38626 0.2172,-0.14565 0.5652,-0.37188 0.22897,-0.14768 0.5652,-0.35724 0.24064,-0.14892 0.5652,-0.34239 0.2521,-0.14936 0.5652,-0.32737 0.26329,-0.14896 0.5652,-0.31222 0.2741,-0.14771 0.5652,-0.29698 0.28443,-0.14558 0.5652,-0.28169 0.29418,-0.14261 0.5652,-0.26636 0.30323,-0.13879 0.5652,-0.25106 0.31149,-0.13415 0.5652,-0.23581 0.31885,-0.12873 0.5652,-0.22064 0.32521,-0.12261 0.5652,-0.20558 0.3305,-0.11584 0.5652,-0.19066 0.33464,-0.1085 0.56519,-0.17591 0.33756,-0.10071 0.5652,-0.16136 0.33922,-0.0925 0.56519,-0.14703 0.33962,-0.0841 0.56519,-0.13294 0.33873,-0.0755 0.56519,-0.11912 0.33657,-0.0669 0.5652,-0.10559 0.33317,-0.0583 0.5652,-0.0924 0.32859,-0.05 0.5652,-0.0795 0.3229,-0.0418 0.56519,-0.0669 0.31615,-0.034 0.5652,-0.0547 0.30844,-0.0266 0.5652,-0.0429 0.29987,-0.0197 0.5652,-0.0314 0.29054,-0.0133 0.5652,-0.0204 0.28054,-0.007 0.5652,-0.01 0.26998,-0.002 0.56519,5.4e-4 0.25896,0.002 0.5652,0.0104 0.24756,0.007 0.5652,0.0198 0.23589,0.0101 0.56519,0.0287 0.22403,0.0131 0.5652,0.0373 0.21204,0.0155 0.56519,0.0454 0.20001,0.0174 0.5652,0.0531 0.18799,0.0189 0.5652,0.0603 0.17604,0.0198 0.5652,0.0671 0.16421,0.0204 0.56519,0.0735 0.15253,0.0206 0.5652,0.0794 0.14105,0.0205 0.56519,0.0849 0.12978,0.0201 0.5652,0.0901 0.11876,0.0194 0.5652,0.0947 0.108,0.0185 0.56519,0.099 0.0975,0.0174 0.56519,0.10289 0.0873,0.0162 0.5652,0.10637 0.0774,0.0148 0.5652,0.10947 0.0678,0.0133 0.5652,0.1122 0.0585,0.0117 0.5652,0.11455 0.0496,0.0101 0.56519,0.11655 0.0409,0.008 0.56519,0.1182 0.0325,0.007 0.5652,0.11952 0.0245,0.005 0.5652,0.12051 0.0167,0.004 0.5652,0.12119 0.57448,0.12356 0.565,0.12161 0.55724,0.11975 0.55085,0.11794 0.54476,0.11595 0.53897,0.11381 0.53345,0.11154 0.52824,0.10914 0.52331,0.10666 0.51866,0.10406 0.51431,0.10141 0.51023,0.0987 0.50643,0.0959 0.50291,0.0931 0.49967,0.0902 0.49669,0.0873 0.494,0.0845 0.49156,0.0815 0.48939,0.0786 0.48748,0.0757 0.48583,0.0728 0.48442,0.0699 0.48326,0.067 0.48233,0.0641 0.48165,0.0613 0.48119,0.0585 0.48094,0.0557 0.48091,0.0529 0.48109,0.0501 0.48145,0.0474 0.48201,0.0447 0.48275,0.0421 0.48364,0.0395 0.48471,0.0369 0.48592,0.0344 0.48728,0.0319 0.48876,0.0294 0.49036,0.027 0.49209,0.0247 0.4939,0.0223 0.49582,0.0201 0.4978,0.0179 0.49988,0.0157 0.50201,0.0136 0.5042,0.0116 0.50644,0.01 0.50872,0.008 0.51102,0.006 0.51335,0.004 0.5157,0.002 0.51805,5.9e-4 0.52041,-10e-4 0.52277,-0.003 0.52511,-0.004 0.52744,-0.005 0.52975,-0.007 0.53202,-0.008 0.53428,-0.009 0.5365,-0.0103 0.53867,-0.0113 0.54081,-0.0123 0.54289,-0.0132 0.54493,-0.014 0.54692,-0.0148 0.54886,-0.0155 0.55072,-0.0161 0.55255,-0.0167 0.5543,-0.0171 0.556,-0.0176 0.55763,-0.0179 0.55919,-0.0182 0.5607,-0.0185 0.56214,-0.0187 0.56351,-0.0188 0.56469,-0.0189 0.56545,-0.0189 0.56665,-0.0189 0.5678,-0.0188 0.56888,-0.0187 0.56988,-0.0186 0.57083,-0.0184 0.57172,-0.0182 0.57254,-0.0179 0.57329,-0.0176 0.574,-0.0173 1.46188,0.0277 1.45213,0.17085 0.41091,0.0899 0.71932,-0.78452 2.02082,-1.80417 2.23828,-1.64541 2.43419,-1.47079 2.60666,-1.28201 2.75403,-1.0809 2.87487,-0.86936 2.96802,-0.64945 3.0326,-0.42329 3.06796,-0.19306 3.07378,0.039 3.05,0.27076 2.99685,0.49987 2.91483,0.72417 2.80474,0.9415 2.66764,1.14975 2.50485,1.34693 2.31794,1.53115 2.10871,1.70061 1.87916,1.85371 1.63152,1.98894 1.36816,2.10502 1.09164,2.20083 0.80459,2.27545 0.48545,2.21693 0.1722,-0.0128 6.30996,-0.15824 5.07805,-3.74886 0.20292,-0.13494 0.21517,-0.1144 0.22534,-0.0928 0.23336,-0.0702 0.23911,-0.047 0.24257,-0.0233 0.24369,5.4e-4 0.24246,0.0244 0.23891,0.0481 0.23304,0.0712 0.22493,0.0938 0.21467,0.11534 0.20232,0.13584 0.18804,0.15501 0.17193,0.17269 0.15418,0.18871 0.13494,0.20292 0.11441,0.21517 0.0928,0.22535 0.0702,0.23335 0.047,0.23911 0.0233,0.24257 -5.3e-4,0.24369 -0.0244,0.24247 -0.0481,0.2389 -0.0712,0.23304 -0.0937,0.22494 -0.11535,0.21466 -0.13583,0.20232 -0.15501,0.18804 -0.1727,0.17194 -0.18871,0.15418 -2.85482,2.10756 2.95687,1.96183 0.1962,0.14453 0.1811,0.16306 0.16424,0.18003 0.1458,0.19526 0.12596,0.20861 0.10491,0.21996 0.0828,0.22917 0.06,0.2362 0.0365,0.24094 0.0127,0.24335 -0.0112,0.24344 -0.035,0.24117 -0.0584,0.23658 -0.0813,0.22971 -0.10347,0.22063 -0.12461,0.20943 -0.14452,0.1962 -0.16307,0.1811 -0.18003,0.16424 -0.19526,0.1458 -0.20861,0.12596 -0.21996,0.10491 -0.22917,0.0828 -0.2362,0.06 -0.24093,0.0365 -0.24336,0.0128 -0.24344,-0.0112 -0.24116,-0.035 -0.23658,-0.0584 -0.22971,-0.0814 -0.22064,-0.10348 -0.20942,-0.1246 -5.25958,-3.48962 -6.30996,0.15823 -0.17262,-0.004 -0.37372,2.23848 -0.68953,2.31291 -0.97995,2.25278 -1.26094,2.17096 -1.52977,2.06821 -1.78389,1.94556 -2.02081,1.80418 -2.23829,1.6454 -2.43419,1.47079 -2.60666,1.28202 -2.75402,1.08089 -2.87487,0.86936 -2.96803,0.64945 -3.03259,0.4233 -3.06797,0.19305 -3.07378,-0.039 -3.05,-0.27076 -2.99684,-0.49987 -2.91483,-0.72417 -2.80475,-0.94149 -2.66764,-1.14975 -2.50485,-1.34694 -2.31794,-1.53115 -2.1087,-1.70061 -0.75454,-0.74432 -0.26162,0.074 -1.4392,0.25804 -1.45756,0.11573 -0.56079,0.0169 -0.55675,0.0171 -0.55748,0.0174 -0.55826,0.0177 -0.55912,0.018 -0.56004,0.0183 -0.56101,0.0185 -0.56206,0.0186 -0.56316,0.0188 -0.56434,0.0189 -0.56507,0.0189 -0.56622,0.0189 -0.56755,0.0189 -0.56896,0.0188 -0.57043,0.0186 -0.57196,0.0184 -0.57356,0.0181 -0.57523,0.0178 -0.57696,0.0174 -0.57874,0.0169 -0.0154,4.4e-4 -0.5652,0.0159 -0.0173,4.8e-4 -0.56519,0.0153 -0.0193,5.1e-4 -0.5652,0.0145 -0.0213,5.3e-4 -0.5652,0.0137 -0.0233,5.5e-4 -0.56519,0.0129 -0.0254,5.6e-4 -0.5652,0.0119 -0.0276,5.5e-4 -0.5652,0.0108 -0.0298,5.4e-4 -0.56519,0.01 -0.032,5.2e-4 -0.56519,0.008 -0.0343,4.8e-4 -0.56519,0.007 -0.0366,4.2e-4 -0.5652,0.006 -0.0389,3.5e-4 -0.5652,0.004 -0.0413,2.6e-4 -0.56519,0.003 -0.0436,1.5e-4 -0.56519,10e-4 -0.046,2e-5 -0.56519,-6.3e-4 -0.0483,-1.3e-4 -0.56519,-0.002 -0.0507,-3.1e-4 -0.56519,-0.004 -0.053,-5.1e-4 -0.56519,-0.006 -0.0553,-7.3e-4 -0.5652,-0.009 -0.0576,-9.7e-4 -0.56519,-0.0107 -0.0599,-10e-4 -0.5652,-0.013 -0.0621,-0.002 -0.5652,-0.0153 -0.0643,-0.002 -0.5652,-0.0178 -0.0664,-0.002 -0.5652,-0.0203 -0.0684,-0.003 -0.5652,-0.0229 -0.0704,-0.003 -0.56519,-0.0256 -0.0722,-0.003 -0.5652,-0.0283 -0.074,-0.004 -0.5652,-0.0311 -0.0757,-0.004 -0.5652,-0.034 -0.0772,-0.005 -0.5652,-0.037 -0.0786,-0.005 -0.56519,-0.04 -0.0799,-0.006 -0.5652,-0.043 -0.0811,-0.006 -0.5652,-0.0461 -0.082,-0.007 -0.5652,-0.0493 -0.0829,-0.007 -0.5652,-0.0525 -0.0835,-0.008 -0.56519,-0.0557 -0.084,-0.009 -0.5652,-0.0589 -0.0842,-0.009 -0.5652,-0.0621 -0.0843,-0.01 -0.56519,-0.0654 -0.0842,-0.01 -0.5652,-0.0687 -0.0838,-0.0104 -0.5652,-0.0719 -0.0833,-0.0108 -0.56519,-0.0752 -0.0825,-0.0112 -0.5652,-0.0784 -0.0814,-0.0115 -0.56519,-0.0816 -0.0801,-0.0118 -0.5652,-0.0847 -0.0786,-0.012 -0.5652,-0.0878 -0.0768,-0.0121 -0.56519,-0.0908 -0.0748,-0.0122 -0.56519,-0.0938 -0.0725,-0.0122 -0.5652,-0.0966 -0.0699,-0.0121 -0.5652,-0.0994 -0.0671,-0.012 -0.5652,-0.10206 -0.064,-0.0117 -0.56519,-0.10462 -0.0606,-0.0113 -0.5652,-0.10704 -0.0569,-0.0109 -0.5652,-0.10932 -0.053,-0.0104 -0.5652,-0.11144 -0.0488,-0.01 -0.5652,-0.1134 -0.0443,-0.009 -0.5652,-0.11519 -0.0395,-0.008 -0.56519,-0.11678 -0.0344,-0.007 -0.56519,-0.11817 -0.0291,-0.006 -0.5652,-0.11935 -0.0234,-0.005 -0.5652,-0.1203 -0.0175,-0.004 -0.5652,-0.12101 -0.57642,-0.12387 -0.56881,-0.12243 -0.55948,-0.12034 -0.55219,-0.1184 -0.5446,-0.11612 -0.53671,-0.11349 -0.52849,-0.11053 -0.51998,-0.10723 -0.51116,-0.10359 -0.50202,-0.0997 -0.49257,-0.0954 -0.48283,-0.0909 -0.47279,-0.0861 -0.46244,-0.081 -0.45183,-0.0757 -0.44093,-0.0702 -0.42979,-0.0646 -0.41841,-0.0588 -0.40683,-0.0529 -0.39507,-0.0469 -0.38318,-0.0409 -0.3712,-0.0348 -0.35916,-0.0288 -0.34716,-0.0229 -0.33523,-0.017 -0.32346,-0.0113 -0.31192,-0.006 -0.30071,-2.8e-4 -0.28991,0.005 -0.27962,0.0101 -0.26996,0.015 -0.26099,0.0198 -0.25286,0.0245 -0.24563,0.0291 -0.2394,0.0336 -0.23426,0.0383 -0.23027,0.043 -0.2275,0.0479 -0.22597,0.0532 -0.22573,0.0587 -0.22676,0.0647 -0.22905,0.0713 -0.23259,0.0785 -0.2373,0.0863 -0.24313,0.0949 -0.25001,0.10431 -0.25782,0.11453 -0.26648,0.12558 -0.27589,0.13751 -0.28594,0.15024 -0.29651,0.1638 -0.30752,0.17812 -0.31885,0.19316 -0.33042,0.20885 -0.34214,0.22511 -0.35395,0.24189 -0.36576,0.25908 -0.37754,0.27661 -0.38923,0.29438 -0.40081,0.3123 -0.41223,0.3303 -0.4235,0.34828 -0.4346,0.36615 -0.44553,0.38384 -0.4563,0.40128 -0.46693,0.41839 -0.47743,0.4351 -0.48784,0.45134 -0.49819,0.46709 -0.50851,0.48225 -0.51886,0.49679 -0.5293,0.51068 -0.53986,0.52388 -0.55064,0.53634 -0.56064,0.54701 -0.56731,0.5533 -0.0137,0.0134 -0.5652,0.54983 -0.0259,0.0251 -0.5652,0.54716 -0.0387,0.0373 -0.56519,0.54323 -0.0522,0.0499 -0.5652,0.53799 -0.0666,0.063 -0.5652,0.53139 -0.0821,0.0766 -0.5652,0.52342 -0.0988,0.0907 -0.56519,0.51405 -0.11706,0.10534 -0.56519,0.50323 -0.13697,0.12046 -0.56519,0.49096 -0.15885,0.13604 -0.56519,0.47721 -0.18301,0.15203 -0.56519,0.46196 -0.20978,0.16833 -0.5652,0.44518 -0.23954,0.18477 -0.56519,0.42688 -0.27269,0.20112 -0.5652,0.40703 -0.30965,0.21709 -0.5652,0.38563 -0.35084,0.23219 -0.5652,0.36267 -0.39667,0.24586 -0.5652,0.33817 -0.44747,0.25731 -0.5652,0.3121 -0.50341,0.26557 -0.5652,0.2845 -0.56449,0.26944 -0.5652,0.25536 -0.63031,0.26751 -0.5652,0.22468 -0.70004,0.2582 -0.5652,0.19252 -0.77222,0.23986 -0.56519,0.15887 -0.84462,0.211 -0.5652,0.12377 -0.91427,0.1705 -0.5652,0.0872 -0.9775,0.11798 -0.5652,0.0493 -1.0302,0.0541 -0.56519,0.0101 -1.06831,-0.0193 -0.5652,-0.0305 -1.08844,-0.0989 -0.56519,-0.0723 -1.08849,-0.1805 -0.56519,-0.11537 -1.06806,-0.2594 -0.56519,-0.15956 -1.02864,-0.33112 -0.5652,-0.20484 -0.97329,-0.39204 -0.5652,-0.25114 -0.90613,-0.43988 -0.5652,-0.2984 -0.83162,-0.47381 -0.56519,-0.34653 -0.75397,-0.49426 -0.5652,-0.39547 -0.67673,-0.50261 -0.5652,-0.44512 -0.60257,-0.50079 -0.5652,-0.49541 -0.5333,-0.49091 -0.5652,-0.54625 -0.46992,-0.47501 -0.5652,-0.59753 -0.41286,-0.45492 -0.5652,-0.64917 -0.3621,-0.43215 -0.5652,-0.70106 -0.31734,-0.4079 -0.5652,-0.75309 -0.27811,-0.38309 -0.5652,-0.80515 -0.24388,-0.3584 -0.56519,-0.85714 -0.21409,-0.33428 -0.56519,-0.90893 -0.18819,-0.31103 -0.56519,-0.96043 -0.16568,-0.28886 -0.5652,-1.01148 -0.1461,-0.26787 -0.5652,-1.06199 -0.12906,-0.24809 -0.56519,-1.11181 -0.1142,-0.22951 -0.5652,-1.16083 -0.10121,-0.21211 -0.5652,-1.20891 -0.0898,-0.19582 -0.5652,-1.25593 -0.0798,-0.18057 -0.5652,-1.30176 -0.071,-0.1663 -0.5652,-1.34624 -0.0632,-0.15292 -0.5652,-1.38928 -0.0563,-0.14036 -0.5652,-1.43071 -0.0501,-0.12854 -0.5652,-1.47041 -0.0446,-0.1174 -0.5652,-1.50824 -0.0396,-0.10686 -0.5652,-1.54408 -0.0351,-0.0968 -0.5652,-1.57779 -0.031,-0.0873 -0.5652,-1.60923 -0.0272,-0.0782 -0.5652,-1.63828 -0.0237,-0.0694 -0.5652,-1.66482 -0.0205,-0.0609 -0.56519,-1.6887 -0.0175,-0.0526 -0.5652,-1.70983 -0.0146,-0.0446 -0.56519,-1.72806 -0.0119,-0.0366 -0.5652,-1.7433 -0.009,-0.0287 -0.5652,-1.75542 -0.007,-0.0209 -0.5652,-1.76431 -0.56934,-1.78283 -0.56626,-1.77534 -0.56282,-1.76317 -0.52678,-1.64559 -0.0538,0.26782 -0.54556,2.82029 -0.54809,2.93687 -0.55024,3.04873 -0.5521,3.15574 -0.55371,3.25772 -0.55511,3.35451 -0.55635,3.44592 -0.55744,3.53176 -0.55842,3.61183 -0.55929,3.68596 -0.56008,3.75391 -0.56081,3.81553 -0.56148,3.87061 -0.5621,3.91898 -0.5627,3.96046 -0.56325,3.99489 -0.5638,4.02212 -0.56434,4.04201 -0.56486,4.05441 -0.56516,4.05754 -0.56567,4.05438 -0.56622,4.04367 -0.56681,4.02512 -0.002,0.0157 -0.56519,3.98293 -0.003,0.0202 -0.5652,3.94403 -0.004,0.025 -0.5652,3.89692 -0.004,0.0302 -0.5652,3.84155 -0.005,0.0357 -0.5652,3.77791 -0.006,0.0418 -0.5652,3.70599 -0.007,0.0485 -0.5652,3.62578 -0.009,0.056 -0.5652,3.53734 -0.0104,0.0643 -0.56519,3.44069 -0.0123,0.0738 -0.5652,3.33592 -0.0146,0.0846 -0.56519,3.22309 -0.0173,0.097 -0.5652,3.10233 -0.0208,0.11153 -0.5652,2.97373 -0.025,0.12864 -0.56519,2.83745 -0.0305,0.149 -0.5652,2.69365 -0.0375,0.17357 -0.5652,2.54248 -0.0468,0.20362 -0.5652,2.38416 -0.0592,0.2409 -0.5652,2.21888 -0.0764,0.28792 -0.5652,2.04689 -0.10074,0.3483 -0.5652,1.86843 -0.13633,0.42736 -0.5652,1.68378 -0.1903,0.53313 -0.56519,1.49319 -0.27576,0.67776 -0.5652,1.29698 -0.4179,0.87936 -0.5652,1.09545 -0.66764,1.16248 -0.56519,0.88895 -1.13013,1.54777 -0.5652,0.67781 -0.95701,1.04273 -1.05164,0.94723 -0.56519,0.4624 -1.11384,0.82775 -1.18601,0.72053 -1.24791,0.60706 -0.5652,0.24308 -1.29068,0.48564 -1.33006,0.36422 -1.35803,0.23968 -1.37438,0.11311 -0.56519,0.0202 -1.43286,-0.0176 -1.42454,-0.15518 -1.40304,-0.29132 -1.36857,-0.42475 -0.56519,-0.2057 -1.40001,-0.59204 -1.3324,-0.7316 -1.25092,-0.86355 -0.56519,-0.43435 -1.19534,-1.02342 -1.08072,-1.14378 -0.5652,-0.6653 -1.25503,-1.71061 -0.56519,-0.89809 -0.72084,-1.28162 -0.5652,-1.13229 -0.43869,-0.96301 -0.5652,-1.36745 -0.28207,-0.73718 -0.5652,-1.60311 -0.19016,-0.57657 -0.5652,-1.83881 -0.13339,-0.4602 -0.56519,-2.07408 -0.0967,-0.37401 -0.5652,-2.30844 -0.0721,-0.30877 -0.5652,-2.54141 -0.0551,-0.25838 -0.56519,-2.77252 -0.0429,-0.21875 -0.5652,-3.00127 -0.034,-0.18707 -0.56519,-3.22718 -0.0274,-0.16137 -0.5652,-3.44977 -0.0223,-0.14024 -0.56519,-3.66856 -0.0184,-0.12266 -0.56519,-3.88308 -0.0153,-0.10787 -0.5652,-4.09283 -0.0128,-0.0953 -0.5652,-4.29736 -0.0109,-0.0846 -0.5652,-4.49619 -0.009,-0.0753 -0.5652,-4.68888 -0.008,-0.0671 -0.56519,-4.87496 -0.007,-0.06 -0.56519,-5.05399 -0.006,-0.0537 -0.5652,-5.22555 -0.005,-0.0481 -0.56519,-5.38921 -0.004,-0.0431 -0.5652,-5.54458 -0.004,-0.0386 -0.5652,-5.69124 -0.003,-0.0344 -0.5652,-5.82884 -0.003,-0.0307 -0.56519,-5.95699 -0.003,-0.0272 -0.56519,-6.07536 -0.002,-0.024 -0.5652,-6.18361 -0.002,-0.0209 -0.5652,-6.28142 -0.002,-0.0181 -0.56519,-6.3685 -10e-4,-0.0154 -0.5652,-6.44459 -0.56632,-6.52229 -0.5661,-6.57316 -0.56588,-6.61242 -0.56568,-6.63983 -0.56548,-6.65523 -0.56523,-6.65782 -0.56499,-6.64818 -0.56478,-6.62663 -0.56458,-6.59255 -0.56435,-6.54587 -0.56412,-6.48656 -0.56386,-6.41459 -0.56357,-6.32998 -0.27673,-3.0621 -0.55263,6.81664 -0.56335,7.09574 -0.56362,7.23309 -0.56384,7.35709 -0.56405,7.46755 -0.56425,7.56425 -0.56442,7.64701 -0.56459,7.71573 -0.56474,7.77025 -0.56489,7.81052 -0.56503,7.83644 -0.56515,7.84769 -0.56524,7.84424 -0.56539,7.82709 -0.56553,7.79566 -0.56567,7.75003 -0.56583,7.69031 -0.566,7.61666 -0.56618,7.52924 -10e-4,0.0155 -0.5652,7.4128 -10e-4,0.018 -0.5652,7.296 -0.002,0.0207 -0.5652,7.16596 -0.002,0.0237 -0.56519,7.02299 -0.002,0.0269 -0.5652,6.86735 -0.003,0.0304 -0.56519,6.69939 -0.003,0.0343 -0.56519,6.51943 -0.003,0.0387 -0.56519,6.32785 -0.004,0.0435 -0.5652,6.12505 -0.005,0.049 -0.56519,5.91144 -0.005,0.0553 -0.56519,5.68745 -0.006,0.0625 -0.5652,5.45355 -0.008,0.0709 -0.56519,5.21021 -0.009,0.0807 -0.56519,4.95793 -0.0108,0.0924 -0.5652,4.69723 -0.0132,0.10627 -0.56519,4.42863 -0.0162,0.12313 -0.56519,4.15268 -0.0203,0.14384 -0.56519,3.86993 -0.0258,0.16968 -0.5652,3.58097 -0.0334,0.20249 -0.5652,3.28635 -0.0442,0.245 -0.5652,2.98669 -0.0602,0.30136 -0.5652,2.68259 -0.0848,0.37815 -0.5652,2.37465 -0.12439,0.48615 -0.5652,2.06349 -0.19204,0.64379 -0.56519,1.74972 -0.31652,0.88368 -0.5652,1.43398 -0.56748,1.26406 -0.5652,1.11686 -1.13023,1.87671 -0.5652,0.79902 -0.75838,0.98259 -0.83753,0.91605 -0.91088,0.84317 -0.5652,0.48105 -1.25274,0.95675 -1.34681,0.81904 -1.4258,0.67217 -1.48884,0.51777 -0.5652,0.1636 -1.3169,0.3171 -1.34026,0.19618 -1.35254,0.0736 -1.35364,-0.0495 -1.34355,-0.17222 -1.32236,-0.29353 -0.5652,-0.15272 -1.51028,-0.49593 -1.44885,-0.65401 -1.37092,-0.80465 -1.27739,-0.94612 -0.5652,-0.46731 -0.93205,-0.83911 -0.85818,-0.91452 -0.77824,-0.98346 -0.56519,-0.77955 -0.61567,-0.91913 -0.54577,-0.96228 -0.5652,-1.08884 -0.58451,-1.26808 -0.5652,-1.39461 -0.32687,-0.88627 -0.5652,-1.69626 -0.19889,-0.64533 -0.5652,-1.99323 -0.12923,-0.48698 -0.5652,-2.28496 -0.0884,-0.37849 -0.5652,-2.57092 -0.063,-0.30135 -0.5652,-2.85057 -0.0464,-0.24472 -0.5652,-3.12339 -0.0351,-0.20201 -0.5652,-3.38891 -0.0272,-0.16901 -0.5652,-3.64664 -0.0214,-0.14301 -0.5652,-3.89611 -0.0172,-0.12215 -0.5652,-4.13691 -0.014,-0.10515 -0.56519,-4.36859 -0.0115,-0.0911 -0.56519,-4.59078 -0.01,-0.0794 -0.5652,-4.80308 -0.008,-0.0694 -0.5652,-5.00517 -0.007,-0.0609 -0.56519,-5.1967 -0.006,-0.0535 -0.56519,-5.37736 -0.005,-0.0471 -0.5652,-5.54689 -0.004,-0.0415 -0.5652,-5.70503 -0.004,-0.0364 -0.5652,-5.85155 -0.003,-0.0319 -0.5652,-5.98623 -0.003,-0.0279 -0.5652,-6.10891 -0.002,-0.0242 -0.56519,-6.21944 -0.002,-0.0208 -0.5652,-6.31769 -0.002,-0.0177 -0.56519,-6.40355 -0.56649,-6.49169 -0.56624,-6.54984 -0.566,-6.59561 -0.56578,-6.62898 -0.56558,-6.64996 -0.56536,-6.65844 -0.56508,-6.65372 -0.56488,-6.63782 -0.56468,-6.60979 -0.56447,-6.5698 -0.56426,-6.51799 -0.56404,-6.45453 -0.56379,-6.37965 -0.56354,-6.29355 -0.56324,-6.19648 -0.56294,-6.08868 -0.56258,-5.97044 -0.56218,-5.84205 -0.56174,-5.70377 -0.56123,-5.55595 -0.56063,-5.39886 -0.14083,-1.31609 -0.24559,1.7253 -0.56307,3.98912 -0.56369,4.01877 -0.56425,4.04022 -0.56482,4.05361 -0.56514,4.05759 -0.56561,4.05496 -0.56615,4.04515 -0.56668,4.02797 -0.56722,4.0036 -0.003,0.0182 -0.5652,3.95402 -0.003,0.0222 -0.56519,3.91199 -0.004,0.0263 -0.5652,3.86332 -0.005,0.0305 -0.56519,3.80825 -0.005,0.035 -0.56519,3.747 -0.006,0.0397 -0.5652,3.67978 -0.007,0.0446 -0.5652,3.60685 -0.008,0.05 -0.56519,3.52846 -0.009,0.0557 -0.5652,3.44488 -0.0103,0.0619 -0.5652,3.35636 -0.0117,0.0686 -0.56519,3.26317 -0.0134,0.076 -0.5652,3.16559 -0.0153,0.0841 -0.5652,3.0639 -0.0175,0.0931 -0.5652,2.95837 -0.0201,0.10304 -0.5652,2.8493 -0.0231,0.1142 -0.5652,2.73697 -0.0267,0.12675 -0.5652,2.62167 -0.0311,0.14094 -0.5652,2.5037 -0.0364,0.15706 -0.56519,2.38334 -0.0428,0.17553 -0.5652,2.26088 -0.0506,0.19677 -0.5652,2.13661 -0.0604,0.22138 -0.5652,2.01083 -0.0727,0.25006 -0.5652,1.8838 -0.0882,0.2837 -0.56519,1.75581 -0.10821,0.3234 -0.5652,1.62716 -0.13422,0.37054 -0.5652,1.49809 -0.16856,0.42678 -0.5652,1.36889 -0.21455,0.49413 -0.5652,1.23982 -0.27705,0.57479 -0.56519,1.11115 -0.3632,0.67095 -0.5652,0.98311 -0.48348,0.78385 -0.56519,0.85596 -0.65277,0.91197 -0.56519,0.72994 -0.89083,1.04691 -0.5652,0.60527 -1.21958,1.16607 -0.5652,0.48219 -1.65149,1.2227 -0.56519,0.36091 -1.05736,0.61558 -1.10431,0.52675 -0.56519,0.24163 -1.30522,0.48718 -1.34502,0.36313 -0.5652,0.12457 -1.46436,0.24695 -1.48166,0.0999 -0.5652,0.01 -1.46177,-0.0462 -1.4502,-0.1893 -0.5652,-0.10221 -1.30171,-0.29616 -1.26997,-0.41149 -0.5652,-0.21156 -1.0601,-0.44413 -1.02271,-0.52453 -0.5652,-0.31799 -1.59958,-1.04014 -0.56519,-0.42137 -1.19868,-0.99525 -0.5652,-0.52154 -0.89364,-0.8979 -0.5652,-0.61837 -0.67028,-0.78646 -0.56519,-0.71175 -0.50866,-0.67941 -0.56519,-0.80155 -0.39142,-0.58388 -0.56519,-0.88768 -0.30555,-0.50143 -0.5652,-0.97005 -0.24181,-0.43133 -0.5652,-1.04857 -0.19382,-0.37202 -0.56519,-1.12318 -0.15713,-0.32181 -0.56519,-1.19379 -0.12866,-0.27916 -0.5652,-1.26038 -0.10625,-0.24271 -0.5652,-1.32291 -0.0884,-0.21138 -0.5652,-1.38132 -0.074,-0.18425 -0.5652,-1.43561 -0.0622,-0.16058 -0.5652,-1.48576 -0.0524,-0.13978 -0.5652,-1.53176 -0.0442,-0.12136 -0.5652,-1.57363 -0.0372,-0.10491 -0.5652,-1.61138 -0.0313,-0.0901 -0.5652,-1.64503 -0.0261,-0.0767 -0.56519,-1.67459 -0.0216,-0.0644 -0.5652,-1.70015 -0.0175,-0.0531 -0.5652,-1.72171 -0.0139,-0.0426 -0.5652,-1.73935 -0.0106,-0.0327 -0.56519,-1.75311 -0.008,-0.0234 -0.56519,-1.76308 -0.005,-0.0146 -0.56519,-1.76933 -0.56678,-1.77687 -0.56321,-1.76475 -0.56064,-1.75233 -0.55808,-1.73666 -0.5555,-1.71775 -0.55284,-1.69568 -0.55009,-1.67046 -0.54721,-1.6422 -0.54416,-1.61093 -0.5409,-1.57673 -0.53739,-1.53968 -0.53358,-1.49981 -0.52941,-1.45725 -0.52483,-1.41201 -0.51976,-1.36418 -0.51412,-1.31385 -0.50783,-1.26104 -0.50076,-1.20584 -0.4928,-1.14828 -0.4838,-1.08846 -0.47358,-1.0264 -0.46194,-0.96217 -0.44866,-0.89583 -0.43346,-0.82746 -0.41603,-0.75717 -0.0152,-0.0263 -0.13775,0.12444 -0.46903,0.43186 -0.48557,0.45434 -0.50089,0.47493 -0.51517,0.49367 -0.52857,0.5106 -0.54125,0.5258 -0.5533,0.5393 -0.5622,0.5486 -0.57055,0.55618 -0.0164,0.0159 -0.56519,0.54928 -0.0271,0.0263 -0.5652,0.5465 -0.0376,0.0363 -0.5652,0.54268 -0.048,0.0459 -0.5652,0.53786 -0.0584,0.0552 -0.5652,0.53208 -0.0687,0.0643 -0.5652,0.52539 -0.079,0.0729 -0.5652,0.51783 -0.0895,0.0813 -0.5652,0.50945 -0.1,0.0893 -0.5652,0.50031 -0.11064,0.097 -0.5652,0.49044 -0.12144,0.10424 -0.56519,0.4799 -0.1324,0.1111 -0.5652,0.46872 -0.14352,0.11753 -0.5652,0.45696 -0.15482,0.12349 -0.5652,0.44467 -0.16628,0.12893 -0.56519,0.43189 -0.17788,0.13383 -0.56519,0.41867 -0.18959,0.13814 -0.56519,0.40504 -0.20138,0.14181 -0.5652,0.39107 -0.21319,0.1448 -0.5652,0.37679 -0.225,0.14707 -0.5652,0.36223 -0.2367,0.14858 -0.5652,0.34745 -0.24825,0.1493 -0.5652,0.33248 -0.25954,0.14919 -0.56519,0.31737 -0.27049,0.14822 -0.5652,0.30215 -0.28099,0.1464 -0.5652,0.28687 -0.29095,0.14371 -0.5652,0.27156 -0.30025,0.14017 -0.5652,0.25625 -0.30879,0.1358 -0.56519,0.24097 -0.31647,0.13065 -0.5652,0.22577 -0.32318,0.12476 -0.56519,0.21067 -0.32884,0.11819 -0.5652,0.1957 -0.33337,0.11104 -0.56519,0.18089 -0.33671,0.10339 -0.56519,0.16627 -0.3388,0.0953 -0.5652,0.15186 -0.33963,0.087 -0.56519,0.13768 -0.33917,0.0784 -0.5652,0.12377 -0.33743,0.0698 -0.5652,0.11014 -0.33446,0.0612 -0.5652,0.0968 -0.33027,0.0528 -0.5652,0.0838 -0.32495,0.0445 -0.56519,0.0711 -0.31855,0.0366 -0.5652,0.0588 -0.31115,0.0291 -0.5652,0.0468 -0.30287,0.022 -0.56519,0.0353 -0.29379,0.0154 -0.56519,0.0241 -0.284,0.009 -0.5652,0.0133 -0.27361,0.004 -0.5652,0.003 -0.26273,-9.7e-4 -0.5652,-0.007 -0.25146,-0.005 -0.5652,-0.0166 -0.23987,-0.009 -0.56519,-0.0258 -0.22806,-0.0121 -0.5652,-0.0344 -0.21611,-0.0147 -0.5652,-0.0427 -0.20408,-0.0168 -0.5652,-0.0505 -0.19206,-0.0184 -0.56519,-0.0579 -0.18008,-0.0196 -0.5652,-0.0648 -0.1682,-0.0203 -0.5652,-0.0714 -0.15646,-0.0206 -0.5652,-0.0774 -0.14492,-0.0206 -0.56519,-0.0831 -0.13357,-0.0203 -0.5652,-0.0884 -0.12246,-0.0197 -0.5652,-0.0932 -0.11161,-0.0188 -0.5652,-0.0976 -0.10103,-0.0178 -0.5652,-0.10163 -0.0907,-0.0166 -0.5652,-0.10524 -0.0807,-0.0153 -0.56519,-0.10847 -0.071,-0.0138 -0.56519,-0.11132 -0.0617,-0.0123 -0.5652,-0.1138 -0.0526,-0.0107 -0.5652,-0.11591 -0.0438,-0.009 -0.5652,-0.11768 -0.0353,-0.007 -0.56519,-0.11911 -0.0272,-0.006 -0.5652,-0.12021 -0.0193,-0.004 -0.5652,-0.121 -0.57696,-0.12399 -0.56853,-0.12237 -0.55947,-0.12033 -0.55298,-0.11857 -0.54679,-0.11664 -0.5409,-0.11455 -0.53528,-0.11233 -0.52998,-0.10997 -0.52494,-0.1075 -0.52021,-0.10496 -0.51575,-0.10231 -0.51158,-0.0996 -0.50768,-0.0969 -0.50408,-0.094 -0.50073,-0.0912 -0.49767,-0.0883 -0.49488,-0.0854 -0.49236,-0.0825 -0.4901,-0.0796 -0.4881,-0.0767 -0.48636,-0.0738 -0.48486,-0.0709 -0.48363,-0.068 -0.48262,-0.0651 -0.48186,-0.0623 -0.48131,-0.0594 -0.48101,-0.0566 -0.4809,-0.0538 -0.481,-0.0511 -0.48131,-0.0483 -0.4818,-0.0456 -0.48248,-0.043 -0.48332,-0.0403 -0.48433,-0.0378 -0.48549,-0.0352 -0.48681,-0.0327 -0.48824,-0.0302 -0.48981,-0.0278 -0.49149,-0.0254 -0.49327,-0.0231 -0.49516,-0.0208 -0.49713,-0.0186 -0.49917,-0.0164 -0.50128,-0.0143 -0.50345,-0.0122 -0.50568,-0.0102 -0.50793,-0.008 -0.51024,-0.006 -0.51256,-0.005 -0.5149,-0.003 -0.51726,-10e-4 -0.51961,4.8e-4 -0.52197,0.002 -0.52432,0.004 -0.52665,0.005 -0.52897,0.006 -0.53126,0.008 -0.53352,0.009 -0.53575,0.01 -0.53794,0.011 -0.54008,0.012 -0.5422,0.0129 -0.54425,0.0137 -0.54625,0.0145 -0.5482,0.0152 -0.5501,0.0159 -0.55194,0.0165 -0.55371,0.017 -0.55543,0.0174 -0.55708,0.0178 -0.55868,0.0181 -0.56019,0.0184 -0.56166,0.0186 -0.56305,0.0188 -0.56438,0.0189 -0.56511,0.0189 -0.56626,0.0189 -0.56742,0.0189 -0.56852,0.0188 -0.56955,0.0186 -0.57052,0.0185 -0.57142,0.0183 -0.57226,0.018 -0.57305,0.0177 -0.57377,0.0174 -0.57442,0.0171 -0.57503,0.0167 -0.57558,0.0163 -0.57607,0.0159 -0.5765,0.0155 -0.57689,0.0151 -0.57723,0.0146 -0.57752,0.0141 -0.57775,0.0137 -0.57795,0.0132 -0.5781,0.0127 -0.57822,0.0122 -0.57828,0.0117 -0.578322,0.0112 -0.578318,0.0106 -0.578284,0.0101 -0.578217,0.01 -0.57812,0.009 -0.577995,0.009 -0.577844,0.008 -0.577668,0.008 -0.57747,0.007 -0.57725,0.007 -0.577011,0.006 -0.576755,0.006 -0.576482,0.005 -0.576196,0.005 -0.575896,0.004 -0.575586,0.004 -0.575265,0.004 -0.574935,0.003 -0.574599,0.003 -0.574257,0.003 -0.57391,0.002 -0.57356,0.002 -0.573207,0.002 -0.572854,10e-4 -0.572499,0.001 -0.572147,7.9e-4 -0.571795,5.4e-4 -0.571446,3e-4 -0.571101,7e-5 -0.570759,-1.4e-4 -0.570423,-3.4e-4 -0.570091,-5.3e-4 -0.569767,-7e-4 -0.569447,-8.7e-4 -0.569136,-10e-4 -0.568833,-10e-4 -0.568536,-0.001 -0.568248,-10e-4 -0.567969,-0.002 -0.567699,-0.002 -0.567437,-0.002 -0.567186,-0.002 -0.566943,-0.002 -0.56671,-0.002 -0.566487,-0.002 -0.566273,-0.002 -0.56607,-0.002 -0.565875,-0.002 -0.565691,-0.002 -0.565516,-0.002 -0.565351,-0.002 -0.565123,-0.002 -0.56498,-0.002 -0.564848,-0.002 -0.564725,-0.002 -0.56461,-0.002 -0.564503,-0.002 -0.564405,-0.002 -0.564316,-0.002 -0.564233,-0.002 -0.564159,-0.002 -0.564093,-0.002 -0.564033,-0.002 -0.56398,-0.002 -0.563933,-0.002 -0.563894,-0.002 -0.56386,-0.002 -0.563833,-0.002 -0.56381,-0.001 -0.563792,-10e-4 -0.563781,-10e-4 -0.563773,-0.001 -0.56377,-10e-4 -0.563772,-0.001 -0.563776,-10e-4 -0.563785,-0.001 -0.563798,-10e-4 -0.563813,-9.8e-4 -0.563832,-9.4e-4 -0.563852,-8.8e-4 -0.563876,-8.3e-4 -0.563902,-7.8e-4 -0.56393,-7.4e-4 -0.563959,-6.8e-4 -0.563991,-6.4e-4 -0.564023,-6e-4 -0.564057,-5.5e-4 -0.564093,-5.1e-4 -0.564128,-4.7e-4 -0.564165,-4.3e-4 -0.564202,-3.9e-4 -0.56424,-3.5e-4 -0.564728,-3.2e-4 -1.460345,-0.0726 -1.446199,-0.21535 -1.418127,-0.35607 -1.376397,-0.49336 -1.321412,-0.6259 -1.253701,-0.75239 -1.173916,-0.87166 -1.082826,-0.98253 -0.981306,-1.08393 -0.870338,-1.1749 -0.750987,-1.25455 -0.624403,-1.32212 -0.491807,-1.37695 -0.354473,-1.41853 -0.213727,-1.44644 -0.07092,-1.46042 0.07257,-1.46035 0.215357,-1.4462 0.356071,-1.41812 0.493358,-1.3764 0.625892,-1.32141 0.7524,-1.2537 0.871661,-1.17392 0.982527,-1.08282 1.083932,-0.98131 1.174897,-0.87034 1.254548,-0.75099 1.322116,-0.6244 1.376952,-0.4918 1.418527,-0.35448 1.446442,-0.21372 1.460425,-0.0709 0.565196,3.2e-4"
     style="fill:url(#linearGradient4831);fill-opacity:1;stroke:#000000;stroke-width:1.61803401;stroke-linecap:butt;stroke-linejoin:miter"
     id="path12"
     inkscape:connector-curvature="0" />
</svg>
