<?xml version="1.0" encoding="utf-8" standalone="no"?>
<!DOCTYPE svg PUBLIC "-//W3C//DTD SVG 1.1//EN"
  "http://www.w3.org/Graphics/SVG/1.1/DTD/svg11.dtd">
<!-- Created with matplotlib (https://matplotlib.org/) -->
<svg height="720pt" version="1.1" viewBox="0 0 720 720" width="720pt" xmlns="http://www.w3.org/2000/svg" xmlns:xlink="http://www.w3.org/1999/xlink">
 <defs>
  <style type="text/css">
*{stroke-linecap:butt;stroke-linejoin:round;}
  </style>
 </defs>
 <g id="figure_1">
  <g id="patch_1">
   <path d="M 0 720
L 720 720
L 720 0
L 0 0
z
" style="fill:none;"/>
  </g>
  <g id="axes_1">
   <g id="patch_2">
    <path clip-path="url(#pdb687ec1ed)" d="M 632.955419 360
L 631.64011 386.773722
L 627.706851 413.289599
L 621.193522 439.292267
L 612.162849 464.531308
L 600.701802 488.763655
L 586.920758 511.755938
L 570.952436 533.286728
L 552.950619 553.148672
L 533.088675 571.150489
L 511.557885 587.118811
L 488.565602 600.899855
L 464.333255 612.360902
L 439.094214 621.391575
L 413.091546 627.904904
L 386.575669 631.838163
L 359.801947 633.153472
L 333.028225 631.838163
L 306.512348 627.904904
L 280.50968 621.391575
L 255.270639 612.360902
L 231.038292 600.899855
L 208.046009 587.118811
L 186.515219 571.150489
L 166.653275 553.148672
L 148.651458 533.286728
L 132.683136 511.755938
L 118.902092 488.763655
L 107.441045 464.531308
L 98.410372 439.292267
L 91.897043 413.289599
L 87.963784 386.773722
L 86.648475 360
L 87.963784 333.226278
L 91.897043 306.710401
L 98.410372 280.707733
L 107.441045 255.468692
L 118.902092 231.236345
L 132.683136 208.244062
L 148.651458 186.713272
L 166.653275 166.851328
L 186.515219 148.849511
L 208.046009 132.881189
L 231.038292 119.100145
L 255.270639 107.639098
L 280.50968 98.608425
L 306.512348 92.095096
L 333.028225 88.161837
L 359.801947 86.846528
L 386.575669 88.161837
L 413.091546 92.095096
L 439.094214 98.608425
L 464.333255 107.639098
L 488.565602 119.100145
L 511.557885 132.881189
L 533.088675 148.849511
L 552.950619 166.851328
L 570.952436 186.713272
L 586.920758 208.244062
L 600.701802 231.236345
L 612.162849 255.468692
L 621.193522 280.707733
L 627.706851 306.710401
L 631.64011 333.226278
L 632.955419 360
L 632.955419 360
M 518.1576 360
L 518.1576 360
L 517.395074 344.478432
L 515.114841 329.106345
L 511.338859 314.03178
L 506.103494 299.399915
L 499.459165 285.351662
L 491.46986 272.022313
L 482.212522 259.540237
L 471.776303 248.025644
L 460.26171 237.589425
L 447.779634 228.332086
L 434.450285 220.342782
L 420.402032 213.698453
L 405.770167 208.463088
L 390.695602 204.687106
L 375.323515 202.406873
L 359.801947 201.644347
L 344.280379 202.406873
L 328.908292 204.687106
L 313.833727 208.463088
L 299.201862 213.698453
L 285.153609 220.342782
L 271.82426 228.332086
L 259.342184 237.589425
L 247.827591 248.025644
L 237.391372 259.540237
L 228.134033 272.022313
L 220.144729 285.351662
L 213.5004 299.399915
L 208.265035 314.03178
L 204.489053 329.106345
L 202.208819 344.478432
L 201.446294 360
L 202.208819 375.521568
L 204.489053 390.893655
L 208.265035 405.96822
L 213.5004 420.600085
L 220.144729 434.648338
L 228.134033 447.977687
L 237.391372 460.459763
L 247.827591 471.974356
L 259.342184 482.410575
L 271.82426 491.667914
L 285.153609 499.657218
L 299.201862 506.301547
L 313.833727 511.536912
L 328.908292 515.312894
L 344.280379 517.593127
L 359.801947 518.355653
L 375.323515 517.593127
L 390.695602 515.312894
L 405.770167 511.536912
L 420.402032 506.301547
L 434.450285 499.657218
L 447.779634 491.667914
L 460.26171 482.410575
L 471.776303 471.974356
L 482.212522 460.459763
L 491.46986 447.977687
L 499.459165 434.648338
L 506.103494 420.600085
L 511.338859 405.96822
L 515.114841 390.893655
L 517.395074 375.521568
L 518.1576 360
" style="fill:#4b8bbe;stroke:#000000;stroke-linejoin:miter;"/>
   </g>
   <g id="patch_3">
    <path clip-path="url(#pdb687ec1ed)" d="M 48.20014 345.096602
L 48.766274 345.096957
L 49.332446 345.097348
L 49.898656 345.097778
L 50.464903 345.098249
L 51.031186 345.09876
L 51.597504 345.099314
L 52.163858 345.099912
L 52.730244 345.100555
L 53.296663 345.101245
L 53.863112 345.101983
L 54.42959 345.102769
L 54.996095 345.103605
L 55.562624 345.104491
L 56.129176 345.10543
L 56.695748 345.10642
L 57.262336 345.107464
L 57.828939 345.108561
L 58.395552 345.109712
L 58.962172 345.110917
L 59.528796 345.112176
L 60.095418 345.11349
L 60.662036 345.114857
L 61.228643 345.116279
L 61.795237 345.117753
L 62.36181 345.11928
L 62.928359 345.120858
L 63.494876 345.122486
L 64.061357 345.124163
L 64.627795 345.125887
L 65.194184 345.127656
L 65.760516 345.129468
L 66.326785 345.13132
L 66.892984 345.133211
L 67.459105 345.135136
L 68.025139 345.137093
L 68.59108 345.139078
L 69.156919 345.141087
L 69.722648 345.143116
L 70.288257 345.14516
L 70.853738 345.147214
L 71.419082 345.149273
L 71.984202 345.151332
L 72.549161 345.153384
L 73.113951 345.155424
L 73.678561 345.157444
L 74.242981 345.159437
L 74.807203 345.161397
L 75.371216 345.163316
L 75.935011 345.165185
L 76.498578 345.166995
L 77.061907 345.168739
L 77.624988 345.170407
L 78.187813 345.17199
L 78.750373 345.173478
L 79.312657 345.17486
L 79.874658 345.176126
L 80.436367 345.177266
L 80.997777 345.178268
L 81.558878 345.179121
L 82.119664 345.179814
L 82.680128 345.180334
L 83.240265 345.180671
L 83.800067 345.18081
L 84.35953 345.180741
L 84.91865 345.18045
L 85.477422 345.179925
L 86.035845 345.179153
L 86.593915 345.178121
L 87.151631 345.176816
L 87.708994 345.175226
L 88.266004 345.173337
L 88.822662 345.171137
L 89.378972 345.168613
L 89.934937 345.165753
L 90.490563 345.162543
L 91.045856 345.158973
L 91.600824 345.155029
L 92.155477 345.150701
L 92.709824 345.145978
L 93.263878 345.140847
L 93.817652 345.1353
L 94.371162 345.129326
L 94.924425 345.122916
L 95.477458 345.116061
L 96.030283 345.108753
L 96.58292 345.100985
L 97.135394 345.09275
L 97.687729 345.084042
L 98.239954 345.074857
L 98.792097 345.065191
L 99.344189 345.05504
L 99.896263 345.044404
L 100.448353 345.03328
L 101.000497 345.02167
L 101.552732 345.009575
L 102.105099 344.996998
L 102.65764 344.983945
L 103.210399 344.970419
L 103.763422 344.95643
L 104.316756 344.941986
L 104.870451 344.927097
L 105.424558 344.911776
L 105.979129 344.896037
L 106.534219 344.879896
L 107.089884 344.863371
L 107.64618 344.846482
L 108.203167 344.829252
L 108.760905 344.811704
L 109.319453 344.793865
L 109.878876 344.775764
L 110.439235 344.757432
L 111.000594 344.738903
L 111.563019 344.720214
L 112.126574 344.701403
L 112.691241 344.682514
L 113.256607 344.663608
L 113.823268 344.644715
L 114.39129 344.625884
L 114.96074 344.607169
L 115.531681 344.588624
L 116.104181 344.570309
L 116.678302 344.552286
L 117.254108 344.534619
L 117.831661 344.517377
L 118.411021 344.500631
L 118.427052 344.500177
L 118.992249 344.484455
L 119.010203 344.483967
L 119.5754 344.468927
L 119.595333 344.46841
L 120.16053 344.454128
L 120.182494 344.453589
L 120.74769 344.440141
L 120.771735 344.439588
L 121.336932 344.427052
L 121.363104 344.426495
L 121.928301 344.414953
L 121.956643 344.414401
L 122.52184 344.403934
L 122.552393 344.4034
L 123.11759 344.394093
L 123.150389 344.393589
L 123.715586 344.385527
L 123.750662 344.385068
L 124.315859 344.378337
L 124.35324 344.377938
L 124.918436 344.372626
L 124.958143 344.372305
L 125.52334 344.368499
L 125.56539 344.368275
L 126.130586 344.366064
L 126.17499 344.365956
L 126.740186 344.365429
L 126.786949 344.365459
L 127.352145 344.366706
L 127.401265 344.366895
L 127.966462 344.370006
L 128.017931 344.370378
L 128.583128 344.375441
L 128.636931 344.37602
L 129.202128 344.383124
L 129.258244 344.383936
L 129.823441 344.393169
L 129.88184 344.394238
L 130.447036 344.405688
L 130.50768 344.40704
L 131.072877 344.420793
L 131.135719 344.422455
L 131.700915 344.438593
L 131.765902 344.440591
L 132.331098 344.459199
L 132.398165 344.461558
L 132.963362 344.482714
L 133.032437 344.48546
L 133.597634 344.509244
L 133.668636 344.512401
L 134.233833 344.538885
L 134.306671 344.542477
L 134.871868 344.571735
L 134.946442 344.575783
L 135.511639 344.607882
L 135.587838 344.612405
L 136.153035 344.64741
L 136.230741 344.652427
L 136.795937 344.690398
L 136.875019 344.695922
L 137.440216 344.736915
L 137.520536 344.742959
L 138.085732 344.787025
L 138.16714 344.793597
L 138.732337 344.840781
L 138.814676 344.847885
L 139.379872 344.898228
L 139.462974 344.905864
L 140.028171 344.9594
L 140.111858 344.967565
L 140.677055 345.02432
L 140.761143 345.033005
L 141.32634 345.093002
L 141.410634 345.102192
L 141.975831 345.165443
L 142.060128 345.17512
L 142.625325 345.241633
L 142.709416 345.251771
L 143.274612 345.321543
L 143.358278 345.332112
L 143.923474 345.405134
L 144.006489 345.416097
L 144.571686 345.492351
L 144.653818 345.503665
L 145.219015 345.583124
L 145.300026 345.59474
L 145.865223 345.677367
L 145.944869 345.689231
L 146.510066 345.774981
L 146.588098 345.787031
L 147.153294 345.875847
L 147.229457 345.888018
L 147.794654 345.979835
L 147.86869 345.992054
L 148.433886 346.086795
L 148.505531 346.098984
L 149.070728 346.196562
L 149.139716 346.208639
L 149.704913 346.308955
L 149.770974 346.320834
L 150.336171 346.423779
L 150.399033 346.435368
L 150.96423 346.540819
L 151.023618 346.552024
L 151.588815 346.659851
L 151.644451 346.670574
L 152.209647 346.78063
L 152.261252 346.790772
L 152.826448 346.9029
L 152.873739 346.912361
L 153.438936 347.026391
L 153.481629 347.03507
L 154.046825 347.150821
L 154.084636 347.158615
L 154.649832 347.275893
L 154.682472 347.282704
L 155.247668 347.401302
L 155.274848 347.407031
L 155.840045 347.52673
L 155.861473 347.531284
L 156.42667 347.651851
L 156.442053 347.655141
L 157.00725 347.776332
L 157.58149 347.899832
L 158.146828 348.021518
L 158.703874 348.141238
L 159.25353 348.258905
L 159.795489 348.374173
L 160.329446 348.4867
L 160.855091 348.596146
L 161.372116 348.70218
L 161.880211 348.804477
L 162.379067 348.902727
L 162.868377 348.996629
L 163.347838 349.085903
L 163.817153 349.170284
L 164.276031 349.249532
L 164.724194 349.323426
L 165.161379 349.391778
L 165.587337 349.454423
L 166.001847 349.511229
L 166.404712 349.562099
L 166.79577 349.606967
L 167.174898 349.645802
L 167.542021 349.678609
L 167.897116 349.705428
L 168.24022 349.72633
L 168.571441 349.741416
L 168.890959 349.750814
L 169.199041 349.754672
L 169.496039 349.753154
L 169.782403 349.74643
L 170.058678 349.734667
L 170.325513 349.718023
L 170.583657 349.696632
L 170.833958 349.670595
L 171.07736 349.639967
L 171.314894 349.604751
L 171.54767 349.56488
L 171.776865 349.520218
L 172.003704 349.470542
L 172.229451 349.41555
L 172.455383 349.354846
L 172.682779 349.287952
L 172.912895 349.214304
L 173.14695 349.133263
L 173.386106 349.044121
L 173.631454 348.946116
L 173.884003 348.838442
L 174.144668 348.720264
L 174.414261 348.590734
L 174.69349 348.449009
L 174.982956 348.294261
L 175.283155 348.125693
L 175.594479 347.942556
L 175.917226 347.744153
L 176.251604 347.529856
L 176.597739 347.29911
L 176.955689 347.05144
L 177.325447 346.786455
L 177.706958 346.503851
L 178.100125 346.203414
L 178.504817 345.885018
L 178.920884 345.548624
L 179.348162 345.194279
L 179.786482 344.822111
L 180.235679 344.432328
L 180.695595 344.025212
L 181.166094 343.601116
L 181.647061 343.16046
L 182.138411 342.703721
L 182.640096 342.231435
L 183.15211 341.744188
L 183.674497 341.242613
L 184.207354 340.72738
L 184.750842 340.1992
L 185.30519 339.658811
L 185.86771 339.109906
L 186.438904 338.55316
L 186.456697 338.535846
L 187.021893 337.986782
L 187.052031 337.957588
L 187.617227 337.411609
L 187.660377 337.370094
L 188.225574 336.828489
L 188.282539 336.77419
L 188.847735 336.238284
L 188.919468 336.170718
L 189.484665 335.641866
L 189.572291 335.560532
L 190.137488 335.040123
L 190.242327 334.94451
L 190.807524 334.433961
L 190.931118 334.32356
L 191.496314 333.824314
L 191.640453 333.698632
L 192.20565 333.212157
L 192.372406 333.070744
L 192.937603 332.598529
L 193.129364 332.441007
L 193.694561 331.98456
L 193.914066 331.810673
L 194.479262 331.371517
L 194.72963 331.181185
L 195.294826 330.760856
L 195.579587 330.55426
L 196.144784 330.154305
L 196.467893 329.931984
L 197.03309 329.553954
L 197.398923 329.316939
L 197.96412 328.96239
L 198.377432 328.712363
L 198.942629 328.38285
L 199.408468 328.122329
L 199.973664 327.819403
L 200.497206 327.551962
L 201.062402 327.277165
L 201.648689 327.007652
L 202.213885 326.762515
L 202.867443 326.497253
L 203.432639 326.283293
L 204.156952 326.03022
L 204.722149 325.848932
L 205.518997 325.617604
L 206.084194 325.47046
L 206.952887 325.271839
L 207.518083 325.160283
L 208.454695 325.006238
L 209.019892 324.931683
L 210.016632 324.834155
L 210.581829 324.797977
L 211.62676 324.76784
L 212.191957 324.771375
L 213.269236 324.817131
L 213.834433 324.86167
L 214.925194 324.988214
L 215.490391 325.074998
L 216.574209 325.282763
L 217.139406 325.41298
L 218.19611 325.697682
L 218.761307 325.872462
L 219.77279 326.225569
L 220.337987 326.445979
L 221.289632 326.855764
L 221.854829 327.122806
L 222.736323 327.575746
L 223.30152 327.89035
L 224.106994 328.372546
L 224.672191 328.735565
L 225.399799 329.233921
L 225.964995 329.646131
L 226.616155 330.149158
L 227.181352 330.611251
L 227.75985 331.109487
L 228.325047 331.622066
L 228.836187 332.108163
L 229.401384 332.671741
L 229.851266 333.140332
L 230.416463 333.755325
L 230.811437 334.202764
L 231.376634 334.869488
L 231.722922 335.293537
L 232.288119 336.012208
L 232.591577 336.411732
L 233.156774 337.182457
L 233.422759 337.557148
L 233.987956 338.379924
L 234.221275 338.730067
L 234.786471 339.60478
L 234.991372 339.93107
L 235.556569 340.857488
L 235.736772 341.160884
L 236.301969 342.138658
L 236.460706 342.420276
L 237.025903 343.448933
L 237.165968 343.709967
L 237.731164 344.788912
L 237.854965 345.030575
L 238.420161 346.159087
L 238.529766 346.382575
L 239.094963 347.559805
L 239.192151 347.766272
L 239.757347 348.99124
L 239.843643 349.181777
L 240.40884 350.453374
L 240.485554 350.629003
L 241.050751 351.945987
L 241.119007 352.107654
L 241.684204 353.468649
L 241.744969 353.617225
L 242.310165 355.020722
L 242.364267 355.157
L 242.929464 356.601357
L 242.977616 356.726054
L 243.542812 358.209494
L 243.585626 358.323258
L 244.150823 359.84387
L 244.188824 359.947278
L 244.75402 361.50302
L 244.787659 361.596583
L 245.352855 363.185278
L 245.382515 363.269445
L 245.947711 364.888789
L 245.973718 364.963945
L 246.538915 366.611503
L 246.561545 366.67798
L 247.126741 368.35119
L 247.146224 368.409259
L 247.71142 370.105435
L 247.727943 370.155314
L 248.29314 371.871649
L 248.306853 371.9135
L 248.87205 373.647067
L 248.883068 373.680999
L 249.448264 375.428755
L 249.456667 375.454822
L 250.021864 377.213614
L 250.027699 377.23181
L 250.592895 378.998378
L 251.161371 380.779621
L 251.726307 382.55073
L 252.28821 384.309746
L 252.62403 385.357305
L 252.863288 384.151144
L 253.409749 381.290845
L 253.958603 378.315548
L 254.509506 375.230015
L 255.062177 372.039161
L 255.616384 368.748063
L 256.171934 365.361978
L 256.728667 361.886347
L 257.28645 358.326808
L 257.845172 354.689189
L 258.404739 350.979518
L 258.965075 347.204013
L 259.526117 343.369085
L 260.087812 339.481329
L 260.650119 335.547518
L 261.213005 331.574595
L 261.776448 327.569664
L 262.34043 323.539978
L 262.904943 319.492929
L 263.46993 315.436436
L 264.035239 311.379259
L 264.601092 307.327629
L 265.167508 303.289361
L 265.734515 299.272326
L 265.736956 299.255105
L 266.302153 295.284436
L 266.305275 295.262613
L 266.870472 291.33362
L 266.874342 291.306891
L 267.439538 287.427802
L 267.444237 287.395794
L 268.009434 283.574872
L 268.015066 283.537133
L 268.580263 279.782661
L 268.586956 279.738645
L 269.152153 276.058904
L 269.160069 276.007952
L 269.725266 272.41121
L 269.734607 272.352525
L 270.299804 268.847009
L 270.310827 268.779625
L 270.876023 265.373515
L 270.889053 265.296254
L 271.454249 261.997654
L 271.469702 261.909074
L 272.034899 258.726
L 272.053318 258.624317
L 272.618514 255.564677
L 272.640612 255.447672
L 273.205809 252.519246
L 273.232537 252.384122
L 273.797733 249.594547
L 273.830381 249.437748
L 274.395578 246.794495
L 274.435927 246.611432
L 275.001124 244.121791
L 275.051692 243.90646
L 275.616888 241.57752
L 275.681313 241.321937
L 276.24651 239.160571
L 276.330203 238.853922
L 276.8954 236.866764
L 277.006667 236.494118
L 277.571863 234.687551
L 277.723924 234.22786
L 278.289121 232.607995
L 278.503922 232.030985
L 279.069119 230.603646
L 279.38486 229.865085
L 279.950057 228.635792
L 280.436769 227.671007
L 281.001966 226.644962
L 281.794733 225.363686
L 282.359929 224.545752
L 283.727463 222.847377
L 284.29266 222.242071
L 285.46017 221.12058
L 286.742465 220.132378
L 287.307661 219.743851
L 288.633771 218.930792
L 290.037423 218.260424
L 291.503318 217.740054
L 292.068514 217.572079
L 293.470069 217.228446
L 294.898292 217.022012
L 296.339788 216.954714
L 297.781033 217.027184
L 298.346229 217.083143
L 299.692465 217.278841
L 301.01524 217.596513
L 302.303525 218.033512
L 303.546582 218.586194
L 304.111779 218.869066
L 305.292266 219.528497
L 306.408106 220.292236
L 307.45011 221.153993
L 308.015306 221.666343
L 308.990738 222.636279
L 309.872558 223.692043
L 310.437755 224.436008
L 311.471501 225.989965
L 312.036698 226.96725
L 312.641962 228.128813
L 313.207159 229.340674
L 313.582713 230.21826
L 314.147909 231.665505
L 314.393506 232.342185
L 314.958702 234.025157
L 315.12665 234.558174
L 315.691847 236.476752
L 315.81107 236.904917
L 316.376266 239.058508
L 316.463588 239.40843
L 317.028785 241.795964
L 317.094448 242.086243
L 317.659644 244.70617
L 317.710135 244.95009
L 318.275332 247.800378
L 318.314904 248.007625
L 318.880101 251.085757
L 318.911631 251.263532
L 319.476828 254.566509
L 319.502311 254.720262
L 320.067507 258.2446
L 320.08836 258.378524
L 320.653557 262.120259
L 320.670807 262.237624
L 321.236004 266.192313
L 321.250411 266.295704
L 321.815608 270.45843
L 321.827741 270.549915
L 322.392937 274.91529
L 322.40323 274.99654
L 322.968427 279.558715
L 322.977213 279.631092
L 323.54241 284.383761
L 323.549952 284.448387
L 324.115149 289.384797
L 324.121653 289.4426
L 324.68685 294.555561
L 324.692479 294.607316
L 325.257676 299.889209
L 325.262563 299.935565
L 325.827759 305.378356
L 325.832011 305.41986
L 326.397207 311.015113
L 326.400909 311.052227
L 326.966106 316.791116
L 326.96933 316.824231
L 327.534526 322.697555
L 327.537331 322.727003
L 328.102527 328.725203
L 328.10496 328.751265
L 328.670157 334.864438
L 328.672258 334.887354
L 329.237454 341.105272
L 329.239256 341.125241
L 329.804452 347.43737
L 329.805982 347.454561
L 330.371178 353.850081
L 330.937653 360.332451
L 331.503896 366.873259
L 332.069919 373.461032
L 332.635732 380.08407
L 333.201344 386.730476
L 333.766759 393.388173
L 334.33189 400.043897
L 334.89681 406.686177
L 335.461525 413.302669
L 336.026026 419.880819
L 336.590301 426.408015
L 337.154332 432.871614
L 337.718099 439.258961
L 338.281575 445.557411
L 338.36652 446.492154
L 338.547732 444.290365
L 339.110892 437.292678
L 339.674336 430.148938
L 340.23803 422.872336
L 340.801949 415.476294
L 341.366071 407.974442
L 341.930378 400.380594
L 342.494857 392.708721
L 343.059496 384.972931
L 343.624287 377.187438
L 344.189224 369.366534
L 344.754304 361.524563
L 345.319477 353.676543
L 345.884768 345.836507
L 346.4502 338.018464
L 347.015778 330.236675
L 347.581507 322.505305
L 348.147394 314.838392
L 348.713451 307.249814
L 349.27969 299.753263
L 349.280933 299.736934
L 349.846129 292.362206
L 349.847592 292.343278
L 350.412789 285.089864
L 350.414497 285.06814
L 350.979694 277.94917
L 350.98168 277.924417
L 351.546877 270.952745
L 351.549178 270.924684
L 352.114375 264.11286
L 352.117039 264.081159
L 352.682236 257.441405
L 352.685321 257.40567
L 353.250518 250.949852
L 353.254096 250.909611
L 353.819292 244.649218
L 353.823453 244.603907
L 354.388649 238.550028
L 354.393505 238.498964
L 354.958702 232.662262
L 354.964397 232.604619
L 355.529594 226.995314
L 355.536311 226.930082
L 356.101508 221.557929
L 356.109488 221.483863
L 356.674684 216.358132
L 356.68424 216.273681
L 357.249437 211.40314
L 357.26099 211.306352
L 357.826186 206.699251
L 357.840307 206.587636
L 358.405504 202.251688
L 358.422984 202.122027
L 358.988181 198.064396
L 359.010144 197.912452
L 359.575341 194.139739
L 359.603417 193.959838
L 360.168614 190.478069
L 360.205244 190.262437
L 360.77044 187.077052
L 360.819402 186.814784
L 361.384598 183.930628
L 361.451978 183.60598
L 362.017175 181.027294
L 362.113258 180.616781
L 362.678454 178.347195
L 362.821646 177.81446
L 363.386843 175.85699
L 363.61245 175.143395
L 364.177646 173.500436
L 364.559355 172.507578
L 365.124552 171.180901
L 365.832153 169.740481
L 366.39735 168.731236
L 367.082752 167.623835
L 367.862241 166.580519
L 368.427438 165.889229
L 369.432 164.779363
L 370.542862 163.775903
L 371.748811 162.888979
L 372.314008 162.515545
L 373.555466 161.779101
L 374.862362 161.166245
L 376.222429 160.68273
L 377.622902 160.333094
L 379.050635 160.120618
L 379.615832 160.064323
L 381.191864 159.991292
L 382.766783 160.085327
L 384.322928 160.345373
L 385.84285 160.768515
L 387.309506 161.350006
L 387.874702 161.609515
L 389.073432 162.227053
L 390.211421 162.95044
L 391.279346 163.773752
L 392.26846 164.690245
L 392.833657 165.263613
L 393.870098 166.431602
L 394.778602 167.701652
L 395.343798 168.58633
L 396.25246 170.228098
L 396.817657 171.420943
L 397.292556 172.538835
L 397.857753 174.036115
L 398.131679 174.828589
L 398.696875 176.625999
L 398.86762 177.210469
L 399.432816 179.303137
L 399.545863 179.74892
L 400.11106 182.131423
L 400.189546 182.480928
L 400.754743 185.147308
L 400.811347 185.427573
L 401.376543 188.371347
L 401.418648 188.600288
L 401.983844 191.814468
L 402.015973 192.004366
L 402.58117 195.481475
L 402.606214 195.641002
L 403.171411 199.373093
L 403.191286 199.508535
L 403.756483 203.487209
L 403.772498 203.603221
L 404.337695 207.819647
L 404.350768 207.919749
L 404.915965 212.364686
L 404.926754 212.451581
L 405.491951 217.1154
L 405.50094 217.191198
L 406.066137 222.0639
L 406.073684 222.130269
L 406.638881 227.201515
L 406.645259 227.259787
L 407.210456 232.518916
L 407.215874 232.570168
L 407.781071 238.006223
L 407.785692 238.051333
L 408.350888 243.653085
L 408.354839 243.692772
L 408.920036 249.448748
L 408.923417 249.483606
L 409.488614 255.38211
L 409.491507 255.412632
L 410.056703 261.441775
L 410.059172 261.468371
L 410.624369 267.616092
L 410.626466 267.639104
L 411.191663 273.893203
L 411.193431 273.912916
L 411.758628 280.261074
L 411.760101 280.277724
L 412.325297 286.707533
L 412.891699 293.220305
L 413.457855 299.787039
L 414.023782 306.395346
L 414.589493 313.032821
L 415.154998 319.687077
L 415.720259 326.345248
L 416.285269 332.994947
L 416.850082 339.624622
L 417.414694 346.222203
L 417.979098 352.775767
L 418.543285 359.273553
L 419.107241 365.703991
L 419.670949 372.055719
L 420.234388 378.317602
L 420.797532 384.478751
L 421.36035 390.528538
L 421.922803 396.456611
L 422.484844 402.252907
L 423.046417 407.907661
L 423.607452 413.411416
L 424.118487 418.284193
L 424.555186 415.206783
L 425.11847 411.206691
L 425.682352 407.179746
L 426.246801 403.134099
L 426.811763 399.078
L 427.377027 395.020709
L 427.942823 390.968231
L 428.509148 386.928079
L 429.076011 382.907571
L 429.078229 382.891899
L 429.643426 378.913818
L 429.646219 378.894253
L 430.211415 374.953711
L 430.214814 374.93015
L 430.78001 371.033911
L 430.784054 371.006215
L 431.349251 367.160835
L 431.353991 367.128829
L 431.919187 363.340646
L 431.924684 363.304113
L 432.489881 359.579236
L 432.49621 359.537918
L 433.061406 355.882218
L 433.068657 355.835808
L 433.633853 352.25491
L 433.642133 352.203047
L 434.207329 348.702324
L 434.216768 348.644585
L 434.781964 345.229151
L 434.792717 345.165044
L 435.357913 341.839743
L 435.370166 341.768696
L 435.935363 338.538104
L 435.949341 338.459449
L 436.514537 335.327863
L 436.530513 335.240824
L 437.09571 332.212262
L 437.114016 332.115931
L 437.679212 329.194128
L 437.700254 329.087443
L 438.26545 326.275846
L 438.289728 326.157561
L 438.854924 323.459329
L 438.883058 323.327975
L 439.448254 320.745978
L 439.48102 320.599816
L 440.046216 318.136634
L 440.084592 317.973596
L 440.649789 315.631517
L 440.695021 315.449133
L 441.260218 313.230158
L 441.313908 313.025459
L 441.879104 310.931299
L 441.943333 310.700701
L 442.508529 308.73278
L 442.586032 308.471931
L 443.151228 306.631393
L 443.245647 306.334986
L 443.810843 304.622691
L 443.927089 304.284231
L 444.492285 302.700764
L 444.637071 302.312286
L 445.202268 300.857958
L 445.384903 300.409715
L 445.9501 299.08457
L 446.183671 298.564727
L 446.748868 297.368547
L 447.052004 296.763012
L 447.617201 295.695321
L 448.016679 294.988012
L 448.581876 294.048085
L 449.116316 293.222313
L 449.681513 292.40918
L 450.406106 291.451522
L 450.971303 290.763977
L 451.962328 289.673201
L 452.527524 289.109809
L 453.881953 287.914344
L 454.447149 287.473447
L 456.265815 286.258359
L 456.831012 285.938087
L 457.976505 285.352811
L 459.168212 284.868522
L 459.733409 284.666799
L 461.107105 284.249948
L 462.514543 283.967234
L 463.079739 283.88179
L 464.563119 283.732973
L 466.053944 283.733143
L 466.619141 283.761519
L 468.041436 283.901559
L 469.44377 284.177228
L 470.008967 284.316789
L 471.233412 284.675406
L 472.422686 285.137465
L 472.987883 285.385407
L 474.900829 286.396118
L 475.466026 286.749478
L 476.918971 287.783742
L 477.484167 288.239407
L 478.569204 289.205123
L 479.134401 289.759845
L 479.944234 290.620323
L 480.509431 291.27072
L 481.119 292.019904
L 481.684197 292.762479
L 482.148903 293.408088
L 482.7141 294.239234
L 483.073446 294.793723
L 483.638643 295.709735
L 483.920492 296.186105
L 484.485688 297.183189
L 484.709738 297.593305
L 485.274935 298.667589
L 485.455233 299.021664
L 486.020429 300.169207
L 486.167111 300.475796
L 486.732308 301.692601
L 486.852784 301.958774
L 487.417981 303.240795
L 487.517742 303.47237
L 488.082939 304.815524
L 488.166105 305.017282
L 488.731301 306.417455
L 488.801001 306.593332
L 489.366197 308.046391
L 489.424835 308.199634
L 489.990032 309.70144
L 490.039473 309.834737
L 490.604669 311.381145
L 490.646374 311.496729
L 491.211571 313.083608
L 491.246693 313.183336
L 491.811889 314.806568
L 491.841343 314.891991
L 492.40654 316.547486
L 492.431055 316.619901
L 492.996252 318.303602
L 493.016413 318.364089
L 493.581609 320.071981
L 493.597883 320.121445
L 494.163079 321.849562
L 494.175837 321.888752
L 494.741033 323.633187
L 494.750569 323.662722
L 495.315765 325.41963
L 495.322308 325.440017
L 495.887504 327.205625
L 496.456424 328.987883
L 497.02186 330.760634
L 497.584196 332.521544
L 498.143974 334.268934
L 498.701186 335.999548
L 499.25579 337.710174
L 499.807713 339.397654
L 500.356845 341.058883
L 500.903042 342.690822
L 501.446123 344.290493
L 501.985864 345.85499
L 502.521998 347.381473
L 503.054208 348.867171
L 503.582117 350.309385
L 504.105289 351.705482
L 504.623209 353.052897
L 505.13528 354.349127
L 505.640807 355.591733
L 506.138979 356.778335
L 506.628854 357.906611
L 507.109333 358.974293
L 507.579138 359.979173
L 508.036779 360.919101
L 508.480522 361.791996
L 508.908343 362.595858
L 509.197715 363.113721
L 509.491248 362.846751
L 509.966028 362.40706
L 510.456913 361.945532
L 510.962746 361.464051
L 511.482547 360.96445
L 512.015489 360.44851
L 512.560882 359.917952
L 513.118159 359.374435
L 513.682302 358.824004
L 514.256613 358.264601
L 514.276628 358.245142
L 514.841825 357.696684
L 514.872498 357.667004
L 515.437695 357.121682
L 515.478857 357.08212
L 516.044053 356.540964
L 516.095596 356.491849
L 516.660793 355.955846
L 516.722666 355.897503
L 517.287862 355.367595
L 517.360064 355.300349
L 517.925261 354.77743
L 518.007835 354.701608
L 518.573031 354.186527
L 518.666056 354.102465
L 519.231252 353.596025
L 519.334838 353.504073
L 519.900034 353.007028
L 520.014317 352.907552
L 520.579513 352.420609
L 520.704646 352.313999
L 521.269843 351.83782
L 521.405991 351.724491
L 521.971188 351.259688
L 522.118522 351.14009
L 522.683718 350.687229
L 522.842403 350.561843
L 523.4076 350.121446
L 523.57779 349.990793
L 524.142987 349.563332
L 524.324816 349.427975
L 524.890013 349.013879
L 525.083585 348.874425
L 525.648782 348.474077
L 525.854161 348.331174
L 526.419358 347.944914
L 526.636559 347.799257
L 527.201756 347.42738
L 527.430734 347.279704
L 527.99593 346.922463
L 528.23657 346.773542
L 528.801766 346.431149
L 529.053874 346.281792
L 529.619071 345.954418
L 529.882364 345.805461
L 530.447561 345.493236
L 530.721664 345.345534
L 531.28686 345.048551
L 531.571293 344.902966
L 532.13649 344.621282
L 532.430669 344.478675
L 532.995866 344.212308
L 533.2991 344.073524
L 533.864297 343.822459
L 534.17579 343.688314
L 534.740987 343.452502
L 535.05984 343.323769
L 535.625036 343.103128
L 535.950254 342.980521
L 536.515451 342.77494
L 536.845954 342.659105
L 537.411151 342.468442
L 537.745786 342.35994
L 538.310982 342.184026
L 538.648538 342.083325
L 539.213735 341.921965
L 539.552958 341.829433
L 540.118154 341.682404
L 540.457768 341.598303
L 541.022965 341.465362
L 541.361688 341.389842
L 541.926885 341.27072
L 542.263451 341.203824
L 542.828648 341.098235
L 543.161821 341.039899
L 543.727018 340.947535
L 544.055614 340.897593
L 544.62081 340.81813
L 544.943705 340.776326
L 545.508902 340.709422
L 545.825051 340.675415
L 546.390248 340.620713
L 546.698692 340.594092
L 547.263889 340.551223
L 547.563764 340.531517
L 548.128961 340.500098
L 548.419502 340.48679
L 548.984698 340.466427
L 549.265241 340.458965
L 549.830437 340.449256
L 550.100418 340.447065
L 550.665615 340.4476
L 550.924571 340.450095
L 551.489768 340.460455
L 551.73733 340.467051
L 552.302527 340.486812
L 552.538418 340.496931
L 553.103615 340.525665
L 553.327639 340.538747
L 553.892836 340.576023
L 554.104877 340.591528
L 554.670074 340.636913
L 554.870083 340.654331
L 555.43528 340.70739
L 555.623271 340.726241
L 556.188468 340.786539
L 556.36451 340.806379
L 556.929706 340.873483
L 557.093915 340.893905
L 557.659112 340.967383
L 557.811644 340.988015
L 558.376841 341.067439
L 558.517888 341.087948
L 559.083084 341.172893
L 559.212865 341.192984
L 559.778062 341.28303
L 559.896821 341.302443
L 560.462017 341.397176
L 560.570016 341.415687
L 561.135212 341.514699
L 561.232727 341.532116
L 561.797923 341.635006
L 561.885243 341.65117
L 562.450439 341.757544
L 562.52786 341.772328
L 563.093057 341.881801
L 563.160882 341.895101
L 563.726079 342.007297
L 563.784614 342.019038
L 564.349811 342.13359
L 564.399366 342.143721
L 564.964562 342.260272
L 565.005446 342.268762
L 565.570643 342.386965
L 565.603165 342.393805
L 566.168362 342.513324
L 566.192832 342.51852
L 566.758028 342.639031
L 566.774753 342.642607
L 567.339949 342.763796
L 567.91443 342.887356
L 568.47943 343.008967
L 569.036671 343.128721
L 569.587523 343.246657
L 570.132284 343.362607
L 570.671246 343.476418
L 571.204701 343.587956
L 571.73294 343.697102
L 572.256248 343.803755
L 572.774913 343.907824
L 573.289218 344.009233
L 573.799446 344.107918
L 574.305877 344.203827
L 574.808788 344.296915
L 575.308456 344.387148
L 575.805152 344.474501
L 576.299148 344.558956
L 576.79071 344.6405
L 577.280102 344.71913
L 577.767583 344.794844
L 578.253407 344.867647
L 578.737827 344.93755
L 579.221085 345.004564
L 579.703422 345.068707
L 580.18507 345.129998
L 580.666257 345.18846
L 581.1472 345.244118
L 581.628113 345.296998
L 582.109198 345.347129
L 582.590652 345.394544
L 583.072662 345.439275
L 583.555406 345.481356
L 584.039052 345.520824
L 584.523761 345.557718
L 585.009683 345.592076
L 585.496959 345.62394
L 585.985719 345.653354
L 586.476085 345.680362
L 586.968168 345.70501
L 587.462071 345.727347
L 587.957885 345.747423
L 588.455695 345.765288
L 588.955573 345.780998
L 589.457584 345.794606
L 589.961785 345.806171
L 590.468222 345.815749
L 590.976936 345.823402
L 591.487957 345.829191
L 592.001308 345.83318
L 592.517006 345.835433
L 593.03506 345.836016
L 593.555473 345.834996
L 594.078239 345.832442
L 594.60335 345.828422
L 595.130789 345.823007
L 595.660536 345.816266
L 596.192564 345.808271
L 596.726844 345.799093
L 597.263339 345.788804
L 597.80201 345.777474
L 598.342816 345.765175
L 598.885711 345.751977
L 599.430643 345.737951
L 599.977563 345.723167
L 600.526416 345.707692
L 601.077144 345.691595
L 601.629689 345.674941
L 602.183991 345.657797
L 602.739988 345.640225
L 603.297617 345.622288
L 603.856813 345.604047
L 604.417513 345.585559
L 604.97965 345.566881
L 605.543159 345.548069
L 606.107846 345.529178
L 606.673297 345.510272
L 607.239954 345.491381
L 607.807753 345.472551
L 608.376627 345.453826
L 608.946513 345.435247
L 609.517345 345.416853
L 610.089061 345.39868
L 610.661597 345.380764
L 611.234894 345.363136
L 611.808891 345.345825
L 613.270775 345.37352
L 614.722905 345.544372
L 615.133807 345.634229
L 615.853133 344.849709
L 617.873947 343.045538
L 620.112228 341.400133
L 622.546421 339.929341
L 625.153082 338.647325
L 627.907108 337.566434
L 630.781976 336.697075
L 633.75 336.047622
L 636.782596 335.624328
L 639.850558 335.431272
L 642.924341 335.470311
L 645.974342 335.74107
L 648.971188 336.240941
L 651.886017 336.965111
L 654.690759 337.906605
L 657.358401 339.056356
L 659.863254 340.403291
L 662.181194 341.934439
L 664.289898 343.635053
L 666.169059 345.488756
L 667.800578 347.477697
L 669.168743 349.582719
L 670.260378 351.783551
L 671.064971 354.058998
L 671.550419 356.275932
L 671.722619 356.263138
L 678.032577 356.104903
L 683.110631 352.356041
L 683.31355 352.221099
L 683.528718 352.106697
L 683.754064 352.013935
L 683.987417 351.943709
L 684.226529 351.896693
L 684.469099 351.87334
L 684.712789 351.873876
L 684.955253 351.898295
L 685.194157 351.946362
L 685.427199 352.017615
L 685.652134 352.111366
L 685.866797 352.226713
L 686.069121 352.362546
L 686.257156 352.517556
L 686.429092 352.69025
L 686.583274 352.878965
L 686.718215 353.081884
L 686.832618 353.297052
L 686.925379 353.522398
L 686.995606 353.755751
L 687.042622 353.994863
L 687.065974 354.237433
L 687.065438 354.481123
L 687.041019 354.723588
L 686.992952 354.962491
L 686.9217 355.195533
L 686.827948 355.420468
L 686.712601 355.635131
L 686.576768 355.837455
L 686.421758 356.02549
L 686.249064 356.197426
L 686.060349 356.351608
L 683.205527 358.459174
L 686.162398 360.420999
L 686.358604 360.565528
L 686.539699 360.728592
L 686.703939 360.908622
L 686.849742 361.103883
L 686.975704 361.312494
L 687.080611 361.532448
L 687.163455 361.761625
L 687.223436 361.997819
L 687.259978 362.238755
L 687.272727 362.482112
L 687.261562 362.725547
L 687.22659 362.966716
L 687.168148 363.203295
L 687.086798 363.433007
L 686.983325 363.653639
L 686.858724 363.863067
L 686.714195 364.059273
L 686.551131 364.240368
L 686.371101 364.404607
L 686.17584 364.55041
L 685.967229 364.676372
L 685.747275 364.78128
L 685.518097 364.864124
L 685.281904 364.924105
L 685.040968 364.960646
L 684.797611 364.973396
L 684.554175 364.962231
L 684.313007 364.927259
L 684.076428 364.868817
L 683.846716 364.787467
L 683.626084 364.683993
L 683.416656 364.559392
L 678.157081 361.069769
L 671.847124 361.228004
L 671.674499 361.223858
L 671.30078 363.462338
L 670.61125 365.775252
L 669.631299 368.028034
L 668.370363 370.198987
L 666.840586 372.267203
L 665.0567 374.212765
L 663.035886 376.016936
L 660.797605 377.662341
L 658.363412 379.133133
L 655.756752 380.415149
L 653.002726 381.49604
L 650.127857 382.365399
L 647.159833 383.014852
L 644.127237 383.438146
L 641.059275 383.631202
L 637.985492 383.592163
L 634.935491 383.321404
L 631.938646 382.821533
L 629.023816 382.097363
L 626.219075 381.155869
L 623.551432 380.006118
L 621.046579 378.659183
L 618.728639 377.128035
L 616.619935 375.427421
L 615.865397 374.683104
L 615.60378 374.757084
L 614.164582 375.01512
L 612.707023 375.130847
L 612.146227 375.147758
L 611.589481 375.164875
L 611.032004 375.182318
L 610.473737 375.200062
L 609.914618 375.218077
L 609.354583 375.236334
L 608.79357 375.2548
L 608.231513 375.27344
L 607.668348 375.292214
L 607.104009 375.311083
L 606.53894 375.329987
L 605.972725 375.348889
L 605.405171 375.367747
L 604.836213 375.386508
L 604.265784 375.405117
L 603.693819 375.423516
L 603.120255 375.441646
L 602.545027 375.459441
L 601.968072 375.476834
L 601.389331 375.493757
L 601.373939 375.494198
L 600.808742 375.510134
L 600.791445 375.510612
L 600.226249 375.52589
L 600.206992 375.526398
L 599.641795 375.540946
L 599.620525 375.541478
L 599.055328 375.555218
L 599.031993 375.555767
L 598.466797 375.568621
L 598.44135 375.569177
L 597.876154 375.581065
L 597.848551 375.58162
L 597.283354 375.59246
L 597.253554 375.593002
L 596.688357 375.602711
L 596.656323 375.603227
L 596.091126 375.61172
L 596.056824 375.612196
L 595.491628 375.619388
L 595.45503 375.619809
L 594.889833 375.625612
L 594.850917 375.625961
L 594.28572 375.630287
L 594.244465 375.630546
L 593.679269 375.633308
L 593.635663 375.633457
L 593.070467 375.634564
L 593.024504 375.634584
L 592.459307 375.633948
L 592.410985 375.633815
L 591.845789 375.631346
L 591.795114 375.631038
L 591.229917 375.626646
L 591.176902 375.62614
L 590.611705 375.619737
L 590.556369 375.619007
L 589.991173 375.610505
L 589.933543 375.609526
L 589.368347 375.598836
L 589.308459 375.597583
L 588.743262 375.58462
L 588.681159 375.583066
L 588.115963 375.567745
L 588.051696 375.565864
L 587.486499 375.548102
L 587.42013 375.545868
L 586.854933 375.525584
L 586.786529 375.522971
L 586.221332 375.500087
L 586.150973 375.497071
L 585.585776 375.47151
L 585.513549 375.468068
L 584.948353 375.439757
L 584.874355 375.435866
L 584.309158 375.404737
L 584.233496 375.400377
L 583.668299 375.366363
L 583.59109 375.361516
L 583.025893 375.324556
L 582.947262 375.319205
L 582.382066 375.279241
L 582.302149 375.273374
L 581.736953 375.230355
L 581.655896 375.223963
L 581.090699 375.177839
L 581.008657 375.170916
L 580.443461 375.121647
L 580.360598 375.114191
L 579.795402 375.06174
L 579.711892 375.053754
L 579.146696 374.998092
L 579.062722 374.989582
L 578.497525 374.930685
L 578.413278 374.921664
L 577.848082 374.859516
L 577.763762 374.850001
L 577.198565 374.784594
L 577.11438 374.774609
L 576.549184 374.70594
L 576.465349 374.695513
L 575.900153 374.62359
L 575.816892 374.612757
L 575.251695 374.537595
L 575.169238 374.526395
L 574.604041 374.448018
L 574.522623 374.436498
L 573.957426 374.354939
L 573.87729 374.343153
L 573.312093 374.258455
L 573.233486 374.246461
L 572.668289 374.158676
L 572.591464 374.146539
L 572.026268 374.05573
L 571.951482 374.043519
L 571.386286 373.94976
L 571.313801 373.937551
L 570.748605 373.840924
L 570.678686 373.828799
L 570.11349 373.729399
L 570.046406 373.717443
L 569.48121 373.615376
L 569.417233 373.603678
L 568.852036 373.499061
L 568.79144 373.487716
L 568.226244 373.380678
L 568.169306 373.36978
L 567.604109 373.260463
L 567.551107 373.250112
L 566.985911 373.138668
L 566.937127 373.128965
L 566.371931 373.015559
L 566.327648 373.006604
L 565.762452 372.891415
L 565.722955 372.88331
L 565.157759 372.766527
L 565.123335 372.759372
L 564.558139 372.641197
L 564.529077 372.635091
L 563.963881 372.51574
L 563.940471 372.510777
L 563.375275 372.390478
L 563.35781 372.386749
L 562.792614 372.265742
L 562.216193 372.141871
L 561.647381 372.01944
L 561.0879 371.899103
L 560.535707 371.780702
L 559.991106 371.664582
L 559.454404 371.551089
L 558.925909 371.440561
L 558.405929 371.333335
L 557.894775 371.229737
L 557.392755 371.130082
L 556.900177 371.034675
L 556.417346 370.943802
L 555.944561 370.857736
L 555.482116 370.776724
L 555.030293 370.700993
L 554.589361 370.630744
L 554.159574 370.56615
L 553.741163 370.507353
L 553.334333 370.454463
L 552.93926 370.407557
L 552.556079 370.366677
L 552.184884 370.331831
L 551.825716 370.30299
L 551.478558 370.280094
L 551.143329 370.263051
L 550.819872 370.251742
L 550.507951 370.246024
L 550.207244 370.24574
L 549.917334 370.25072
L 549.637709 370.260794
L 549.367755 370.275801
L 549.106757 370.295597
L 548.853901 370.32007
L 548.608273 370.349145
L 548.368872 370.382804
L 548.134613 370.421086
L 547.90434 370.464105
L 547.676843 370.512052
L 547.450869 370.565204
L 547.225143 370.623924
L 546.998385 370.688662
L 546.769329 370.759954
L 546.536742 370.838415
L 546.29944 370.924729
L 546.056307 371.019644
L 545.806304 371.12395
L 545.548484 371.238476
L 545.282001 371.364065
L 545.006108 371.501565
L 544.720171 371.651811
L 544.423657 371.815611
L 544.116139 371.993732
L 543.797289 372.18689
L 543.466869 372.395737
L 543.124726 372.620854
L 542.770781 372.862743
L 542.405018 373.121825
L 542.027479 373.398432
L 541.638248 373.692809
L 541.237444 374.005113
L 540.825212 374.335411
L 540.401712 374.683686
L 539.967114 375.049837
L 539.521584 375.433681
L 539.065282 375.834961
L 538.598353 376.253349
L 538.120922 376.688447
L 537.633081 377.139795
L 537.134894 377.606878
L 536.626381 378.089125
L 536.107516 378.58592
L 535.57822 379.096604
L 535.038356 379.62048
L 534.487717 380.156818
L 533.927076 380.703832
L 533.359772 381.257129
L 533.346031 381.270514
L 532.780834 381.820337
L 532.754947 381.845459
L 532.189751 382.392625
L 532.151091 382.429916
L 531.585895 382.973148
L 531.533708 383.023064
L 530.968512 383.561051
L 530.901898 383.624068
L 530.336702 384.155463
L 530.254597 384.232076
L 529.6894 384.755502
L 529.590552 384.846221
L 529.025356 385.36027
L 528.908302 385.465606
L 528.343106 385.968844
L 528.206143 386.089297
L 527.640947 386.580263
L 527.482103 386.716301
L 526.916906 387.193514
L 526.733903 387.345544
L 526.168707 387.807502
L 525.958929 387.975826
L 525.393733 388.421011
L 525.154194 388.605777
L 524.588997 389.032657
L 524.316308 389.233783
L 523.751112 389.640814
L 523.441462 389.857896
L 522.876265 390.243527
L 522.525419 390.475717
L 521.960223 390.838394
L 521.563547 391.084249
L 520.99835 391.422417
L 520.550881 391.679726
L 519.985685 391.991831
L 519.482267 392.257403
L 518.917071 392.5419
L 518.352581 392.811343
L 517.787384 393.066697
L 517.157069 393.334206
L 516.591873 393.558895
L 515.891827 393.817088
L 515.32663 394.00961
L 514.554415 394.249468
L 513.989218 394.408341
L 513.144599 394.619339
L 512.579403 394.74311
L 511.665128 394.91361
L 511.099931 395.000854
L 510.12243 395.118825
L 509.557233 395.168154
L 508.527035 395.222217
L 507.961839 395.232281
L 506.89353 395.212985
L 506.328333 395.182477
L 505.239893 395.083582
L 504.674696 395.011244
L 503.586215 394.830745
L 503.021019 394.71537
L 501.952964 394.455969
L 501.387767 394.296407
L 500.359131 393.965291
L 499.793934 393.760452
L 498.82064 393.368412
L 498.255444 393.117273
L 497.349311 392.677386
L 496.784114 392.378993
L 495.952494 391.905179
L 495.387298 391.558651
L 494.633327 391.06439
L 494.068131 390.668924
L 493.391399 390.166314
L 492.826203 389.72119
L 492.223625 389.220404
L 491.658429 388.724989
L 491.125128 388.234085
L 490.559931 387.687833
L 490.090007 387.212824
L 489.52481 386.615288
L 489.111946 386.16037
L 488.54675 385.511198
L 488.184647 385.07905
L 487.61945 384.377992
L 487.30211 383.97009
L 486.736914 383.217003
L 486.458801 382.833907
L 485.893604 382.028756
L 485.649724 381.670358
L 485.084527 380.813218
L 484.870442 380.478945
L 484.305245 379.570008
L 484.117061 379.258976
L 483.551865 378.298552
L 483.38619 378.009688
L 482.820993 376.998207
L 482.674891 376.730336
L 482.109694 375.668351
L 481.980632 375.420262
L 481.415436 374.308451
L 481.301235 374.078938
L 480.736039 372.918108
L 480.634827 372.706001
L 480.069631 371.497085
L 479.979802 371.301271
L 479.414605 370.045336
L 479.33478 369.864767
L 478.769583 368.56301
L 478.698577 368.396715
L 478.133381 367.050466
L 478.070178 366.897548
L 477.504981 365.50827
L 477.448707 365.367911
L 476.883511 363.937203
L 476.833417 363.808659
L 476.26822 362.338251
L 476.223661 362.220851
L 475.658464 360.712608
L 475.618887 360.605753
L 475.05369 359.061674
L 475.01862 358.964829
L 474.453424 357.387045
L 474.422456 357.299742
L 473.857259 355.690513
L 473.830048 355.612344
L 473.264852 353.974063
L 473.241106 353.904679
L 472.675909 352.239864
L 472.655384 352.178974
L 472.090187 350.490269
L 472.07268 350.437637
L 471.507484 348.727809
L 471.492833 348.683253
L 470.927637 346.955189
L 470.915716 346.918582
L 470.35052 345.175285
L 470.341238 345.146557
L 469.776041 343.391143
L 469.769339 343.370277
L 469.204143 341.605971
L 468.634801 339.823142
L 468.068538 338.047802
L 467.505716 336.284629
L 466.978937 334.639036
L 466.925099 334.90686
L 466.379539 337.727147
L 465.831455 340.664017
L 465.281211 343.712751
L 464.729111 346.868488
L 464.1754 350.126209
L 463.620286 353.480719
L 463.063937 356.926639
L 462.506497 360.458398
L 461.948082 364.070233
L 461.388792 367.756185
L 460.828708 371.510097
L 460.267899 375.325626
L 459.70642 379.196237
L 459.144316 383.115217
L 458.581623 387.075679
L 458.018367 391.070573
L 457.454567 395.092694
L 456.890233 399.134698
L 456.32537 403.189109
L 455.760207 407.246651
L 455.19454 411.301031
L 454.628317 415.344705
L 454.061514 419.369817
L 454.059292 419.385538
L 453.494095 423.368467
L 453.49121 423.3887
L 452.926014 427.33273
L 452.922405 427.357758
L 452.357209 431.254676
L 452.352801 431.28485
L 451.787604 435.126402
L 451.782301 435.162144
L 451.217105 438.940053
L 451.210787 438.981875
L 450.645591 442.687857
L 450.638109 442.736378
L 450.072912 446.362159
L 450.064079 446.418125
L 449.498883 449.955462
L 449.488462 450.019779
L 448.923265 453.460473
L 448.910957 453.534241
L 448.345761 456.870162
L 448.331182 456.954727
L 447.765986 460.177825
L 447.748641 460.274845
L 447.183445 463.377175
L 447.162686 463.488709
L 446.597489 466.462445
L 446.572455 466.591076
L 446.007258 469.42853
L 445.976787 469.577532
L 445.41159 472.271175
L 445.374089 472.44475
L 444.808892 474.98723
L 444.762126 475.19085
L 444.19693 477.575006
L 444.137699 477.815906
L 443.572502 480.034791
L 443.49609 480.322709
L 442.930894 482.369605
L 442.830146 482.717896
L 442.264949 484.586334
L 442.128621 485.01369
L 441.563424 486.697466
L 441.373123 487.230598
L 440.807926 488.723787
L 440.53217 489.401551
L 439.966973 490.698529
L 439.549067 491.577886
L 438.98387 492.673342
L 438.316233 493.835817
L 437.751037 494.72477
L 436.620909 496.272537
L 436.055713 496.950351
L 435.0987 497.993085
L 434.047064 498.940307
L 433.481867 499.402707
L 432.368034 500.230459
L 431.182019 500.95099
L 429.93411 501.558049
L 429.368914 501.801132
L 428.07823 502.286766
L 426.748175 502.650987
L 425.390142 502.890675
L 424.015765 503.003776
L 423.450568 503.024026
L 422.017711 503.006409
L 420.593173 502.851226
L 419.190131 502.559912
L 417.821564 502.135161
L 417.256368 501.929461
L 415.856362 501.337423
L 414.523964 500.605823
L 413.273042 499.742274
L 412.707845 499.307918
L 411.512515 498.2845
L 410.431789 497.14072
L 409.866592 496.475424
L 408.611564 494.764812
L 408.046368 493.866725
L 407.325528 492.585096
L 406.760332 491.452808
L 406.321635 490.489798
L 405.756438 489.122349
L 405.474368 488.385167
L 404.909171 486.782055
L 404.719012 486.205492
L 404.153815 484.36668
L 404.020424 483.906483
L 403.455228 481.832404
L 403.358499 481.458393
L 402.793302 479.149955
L 402.721177 478.841183
L 402.15598 476.299773
L 402.100915 476.041386
L 401.535719 473.268873
L 401.492826 473.050116
L 400.927629 470.048852
L 400.893634 469.86178
L 400.328438 466.6346
L 400.301089 466.473234
L 399.735893 463.023459
L 399.713603 462.883225
L 399.148406 459.214657
L 399.130032 459.092003
L 398.564835 455.208922
L 398.549537 455.101052
L 397.98434 451.008217
L 397.971492 450.912903
L 397.406295 446.615542
L 397.395421 446.530991
L 396.830224 442.034796
L 396.82096 441.95955
L 396.255763 437.270675
L 396.247825 437.203536
L 395.682628 432.328582
L 395.675793 432.268561
L 395.110596 427.214573
L 395.104686 427.160848
L 394.53949 421.9353
L 394.534364 421.887181
L 393.969168 416.497967
L 393.964712 416.454876
L 393.399515 410.910297
L 393.395636 410.871744
L 392.830439 405.180498
L 392.82706 405.146069
L 392.261864 399.317229
L 392.258923 399.286573
L 391.693727 393.329581
L 391.691173 393.302401
L 391.125976 387.227044
L 391.123767 387.203087
L 390.55857 381.019485
L 390.556671 380.998538
L 389.991474 374.717124
L 389.989855 374.699009
L 389.424659 368.330508
L 389.423297 368.315077
L 388.858101 361.87049
L 388.291781 355.348204
L 387.725685 348.775041
L 387.159802 342.162625
L 386.594122 335.522791
L 386.028641 328.867556
L 385.46341 322.20974
L 384.898422 315.561557
L 384.333636 308.934928
L 383.769061 302.34238
L 383.204709 295.796509
L 382.640593 289.30995
L 382.076734 282.895357
L 381.513156 276.565379
L 381.236428 273.503284
L 380.6838 280.319924
L 380.120448 287.415656
L 379.556835 294.648745
L 378.99299 302.005844
L 378.428935 309.473392
L 377.864688 317.037636
L 377.300266 324.684652
L 376.735681 332.400378
L 376.17094 340.170632
L 375.606052 347.981146
L 375.04102 355.817589
L 374.475871 363.665279
L 373.910628 371.509517
L 373.345243 379.336611
L 372.779715 387.132273
L 372.214039 394.882301
L 371.648206 402.572611
L 371.082208 410.189267
L 370.516032 417.718512
L 370.514859 417.733998
L 369.949663 425.146797
L 369.948277 425.164824
L 369.383081 432.460816
L 369.381458 432.481568
L 368.816262 439.647534
L 368.814374 439.671232
L 368.249177 446.694221
L 368.246987 446.721127
L 367.681791 453.588484
L 367.679255 453.618911
L 367.114058 460.318299
L 367.111123 460.352619
L 366.545926 466.87205
L 366.542525 466.910706
L 365.977328 473.238559
L 365.973376 473.282082
L 365.408179 479.407132
L 365.403573 479.456163
L 364.838377 485.367598
L 364.832984 485.422909
L 364.267788 491.110359
L 364.26144 491.172893
L 363.696243 496.626442
L 363.688722 496.697359
L 363.123526 501.90757
L 363.114544 501.988307
L 362.549348 506.946241
L 362.538527 507.038601
L 361.97333 511.735831
L 361.960155 511.842104
L 361.394959 516.270732
L 361.378722 516.393864
L 360.813526 520.546539
L 360.793234 520.690382
L 360.228037 524.560312
L 360.202256 524.729994
L 359.637059 528.310956
L 359.603669 528.513447
L 359.038472 531.799801
L 358.994227 532.044796
L 358.42903 535.031495
L 358.368777 535.332848
L 357.80358 538.015445
L 357.718759 538.393586
L 357.153562 540.768244
L 357.029168 541.254388
L 356.463971 543.317883
L 356.271933 543.961668
L 355.706736 545.711394
L 355.390217 546.595075
L 354.825021 548.029048
L 354.25754 549.293113
L 353.692343 550.409974
L 352.562108 552.286682
L 351.996911 553.085696
L 351.23853 554.068286
L 350.400995 554.984343
L 349.490118 555.827509
L 348.924921 556.308563
L 347.67218 557.265309
L 346.32537 558.084349
L 344.899568 558.756517
L 343.41073 559.274288
L 342.845534 559.437892
L 341.528628 559.754988
L 340.188366 559.951172
L 338.835826 560.024824
L 337.482186 559.975335
L 336.138635 559.803113
L 334.816277 559.509582
L 334.25108 559.356862
L 332.740802 558.860932
L 331.291955 558.206921
L 329.921032 557.402274
L 328.643637 556.456149
L 328.078441 555.988842
L 327.146388 555.149731
L 326.288206 554.235207
L 325.509974 553.251751
L 324.944778 552.472204
L 324.329109 551.553073
L 323.783336 550.590794
L 323.21814 549.501948
L 322.633626 548.233871
L 322.068429 546.83926
L 321.74156 545.952991
L 321.176363 544.256729
L 320.97747 543.611404
L 320.412273 541.618171
L 320.283042 541.131194
L 319.717845 538.846228
L 319.629447 538.46774
L 319.06425 535.89682
L 319.001258 535.595471
L 318.436061 532.744903
L 318.389662 532.500182
L 317.824465 529.376785
L 317.789345 529.174783
L 317.224148 525.785871
L 317.196958 525.61686
L 316.631761 521.970223
L 316.610306 521.827213
L 316.04511 517.931098
L 316.027906 517.808947
L 315.462709 513.672042
L 315.448724 513.566889
L 314.883527 509.198298
L 314.872025 509.107191
L 314.306829 504.516415
L 314.297275 504.437064
L 313.732079 499.633977
L 313.724077 499.564578
L 313.158881 494.559409
L 313.152132 494.498526
L 312.586936 489.301828
L 312.581212 489.248304
L 312.016016 483.870937
L 312.011141 483.823834
L 311.445944 478.276937
L 311.441779 478.235485
L 310.876582 472.530451
L 310.873018 472.494017
L 310.307821 466.64247
L 310.304771 466.610529
L 309.739574 460.624296
L 309.736968 460.596412
L 309.171771 454.487498
L 309.169553 454.463306
L 308.604356 448.243867
L 308.602481 448.223066
L 308.037284 441.905383
L 308.035715 441.88772
L 307.470518 435.484174
L 306.904028 428.992485
L 306.337791 422.442644
L 305.771789 415.84703
L 305.206006 409.218047
L 304.640432 402.56809
L 304.075071 395.909652
L 303.509994 389.255928
L 302.945113 382.618112
L 302.380433 376.008316
L 301.815957 369.438516
L 301.251696 362.92053
L 300.68766 356.465995
L 300.123866 350.086347
L 299.560333 343.792797
L 298.997086 337.596322
L 298.434153 331.50764
L 297.871572 325.537196
L 297.309386 319.695153
L 296.747647 313.991378
L 296.186421 308.435434
L 295.625787 303.036573
L 295.484956 301.720479
L 295.239372 303.44578
L 294.676299 307.434903
L 294.112615 311.453672
L 293.548356 315.493888
L 292.983543 319.547496
L 292.418403 323.605088
L 291.852787 327.660047
L 291.286642 331.705203
L 290.719962 335.733172
L 290.152737 339.736772
L 290.150141 339.755008
L 289.584945 343.709034
L 289.581755 343.731227
L 289.016559 347.643219
L 289.012738 347.669496
L 288.447542 351.532825
L 288.443044 351.563349
L 287.877847 355.371602
L 287.872615 355.406575
L 287.307418 359.153566
L 287.30138 359.193231
L 286.736184 362.873007
L 286.729257 362.917654
L 286.16406 366.524505
L 286.156142 366.574477
L 285.590946 370.102944
L 285.581916 370.158641
L 285.016719 373.603522
L 285.006431 373.665411
L 284.441235 377.02177
L 284.429513 377.090397
L 283.864317 380.353566
L 283.850951 380.429562
L 283.285754 383.59515
L 283.270489 383.679254
L 282.705292 386.743147
L 282.687817 386.83622
L 282.122621 389.794587
L 282.102557 389.897635
L 281.53736 392.746931
L 281.514242 392.861134
L 280.949045 395.598103
L 280.922296 395.72485
L 280.3571 398.346524
L 280.326002 398.487456
L 279.760805 400.991156
L 279.724454 401.148222
L 279.159257 403.531562
L 279.116507 403.707087
L 278.55131 405.967969
L 278.500691 406.164741
L 277.935495 408.301355
L 277.875106 408.522734
L 277.309909 410.533559
L 277.237259 410.783618
L 276.672063 412.667416
L 276.583852 412.951115
L 276.018655 414.706931
L 275.910452 415.030333
L 275.345255 416.657488
L 275.21103 417.028027
L 274.645834 418.526118
L 274.477266 418.9529
L 273.912069 420.321793
L 273.697517 420.815918
L 273.13232 422.055743
L 272.855275 422.630535
L 272.290078 423.741682
L 271.926878 424.412629
L 271.361681 425.395738
L 270.878205 426.179593
L 270.313008 427.035553
L 269.660245 427.947525
L 269.095048 428.677462
L 268.20422 429.724368
L 267.639024 430.329641
L 266.419442 431.495707
L 265.854245 431.9779
L 264.202754 433.200596
L 263.637557 433.561506
L 262.580197 434.177087
L 261.475893 434.703838
L 260.910697 434.945473
L 259.605475 435.432649
L 258.260456 435.795782
L 257.695259 435.920347
L 256.230904 436.167299
L 254.749239 436.26725
L 254.184042 436.277142
L 252.722269 436.230936
L 251.272068 436.04164
L 250.706872 435.939435
L 249.405162 435.643269
L 248.135187 435.231776
L 247.56999 435.020223
L 246.509889 434.576089
L 245.487178 434.051559
L 244.921982 433.733567
L 243.322403 432.693429
L 242.757206 432.272061
L 241.558526 431.27681
L 240.99333 430.75527
L 240.099688 429.857375
L 239.534492 429.239001
L 238.864213 428.452544
L 238.299016 427.740794
L 237.790365 427.06138
L 237.225168 426.259826
L 236.833753 425.675952
L 236.268556 424.788268
L 235.963009 424.286839
L 235.397813 423.316788
L 235.155997 422.885458
L 234.5908 421.836887
L 234.396984 421.464866
L 233.831787 420.341694
L 233.674664 420.019882
L 233.109468 418.826087
L 232.980812 418.546933
L 232.415615 417.286547
L 232.309358 417.043836
L 231.744161 415.720931
L 231.655767 415.509552
L 231.090571 414.128232
L 231.016611 413.943983
L 230.451414 412.508375
L 230.389262 412.347791
L 229.824065 410.862034
L 229.771691 410.722251
L 229.206494 409.190488
L 229.162311 409.069129
L 228.597115 407.495497
L 228.559876 407.390586
L 227.994679 405.779209
L 227.963396 405.689097
L 227.398199 404.044074
L 227.372083 403.967384
L 226.806886 402.292786
L 226.785308 402.228368
L 226.220111 400.528223
L 226.202567 400.475117
L 225.63737 398.75341
L 225.623459 398.710815
L 225.058262 396.971474
L 225.047664 396.93873
L 224.482467 395.185621
L 224.474933 395.162185
L 223.909736 393.399107
L 223.905074 393.384539
L 223.339878 391.615214
L 222.773102 389.838339
L 222.209895 388.073594
L 221.649252 386.321258
L 221.091168 384.584599
L 220.535674 382.866846
L 219.982832 381.171175
L 219.432741 379.50071
L 218.885531 377.858513
L 218.341372 376.247582
L 217.800472 374.670849
L 217.263082 373.131175
L 216.729505 371.631356
L 216.200093 370.174114
L 215.675263 368.762104
L 215.155501 367.397916
L 214.641376 366.084072
L 214.133548 364.823031
L 213.632786 363.617195
L 213.139986 362.468906
L 212.65619 361.380448
L 212.182614 360.35405
L 211.720671 359.391884
L 211.272009 358.496054
L 210.838549 357.66859
L 210.422523 356.911424
L 210.407343 356.885162
L 210.269587 357.009598
L 209.800559 357.441459
L 209.31499 357.895803
L 208.814103 358.370733
L 208.298933 358.864398
L 207.770359 359.374999
L 207.229114 359.900795
L 206.675806 360.440104
L 206.113608 360.988696
L 205.543057 361.544881
L 205.526704 361.560799
L 204.961507 362.110077
L 204.934422 362.136333
L 204.369225 362.682835
L 204.331601 362.719087
L 203.766404 363.261767
L 203.71837 363.307683
L 203.153173 363.845539
L 203.094797 363.900792
L 202.5296 364.432867
L 202.4609 364.497134
L 201.895703 365.022518
L 201.81665 365.095472
L 201.251453 365.6133
L 201.16198 365.694609
L 200.596783 366.204063
L 200.496789 366.293383
L 199.931593 366.793691
L 199.82095 366.890662
L 199.255753 367.381102
L 199.134314 367.485341
L 198.569118 367.965238
L 198.436719 368.076339
L 197.871523 368.545061
L 197.727997 368.662588
L 197.1628 369.119554
L 197.007979 369.243037
L 196.442782 369.687711
L 196.276505 369.816641
L 195.711309 370.248534
L 195.533435 370.382363
L 194.968238 370.801031
L 194.778653 370.939168
L 194.213457 371.344213
L 194.012081 371.486023
L 193.446884 371.877091
L 193.233686 372.021895
L 192.668489 372.398675
L 192.443491 372.545752
L 191.878295 372.907977
L 191.641588 373.056565
L 191.076391 373.404009
L 190.828141 373.55331
L 190.262945 373.885789
L 190.003403 374.034976
L 189.438206 374.352345
L 189.167716 374.500568
L 188.60252 374.802722
L 188.321526 374.949121
L 187.756329 375.235992
L 187.46538 375.379703
L 186.900183 375.651259
L 186.599932 375.79143
L 186.034735 376.047675
L 185.725944 376.18348
L 185.160747 376.424452
L 184.84428 376.555101
L 184.279084 376.78087
L 183.955905 376.905628
L 183.390708 377.116296
L 183.06187 377.234493
L 182.496673 377.430191
L 182.163305 377.541235
L 181.598108 377.722124
L 181.261403 377.825514
L 180.696206 377.991781
L 180.357406 378.087114
L 179.792209 378.238971
L 179.452584 378.325951
L 178.887388 378.463635
L 178.548219 378.542072
L 177.983023 378.665843
L 177.645586 378.735659
L 177.080389 378.845798
L 176.745931 378.907021
L 176.180734 379.003829
L 175.850458 379.05659
L 175.285262 379.140385
L 174.960315 379.184912
L 174.395118 379.256031
L 174.076572 379.292637
L 173.511375 379.351431
L 173.200219 379.380504
L 172.635023 379.427339
L 172.332154 379.449331
L 171.766957 379.484585
L 171.473175 379.5
L 170.907978 379.524064
L 170.623981 379.533443
L 170.058784 379.546715
L 169.785169 379.550626
L 169.219972 379.553515
L 168.957236 379.552541
L 168.392039 379.545463
L 168.140581 379.54019
L 167.575385 379.523566
L 167.335514 379.514576
L 166.770318 379.488833
L 166.542257 379.476694
L 165.97706 379.442262
L 165.760951 379.42752
L 165.195754 379.384833
L 164.991668 379.368008
L 164.426471 379.3175
L 164.234414 379.299083
L 163.669217 379.241188
L 163.489138 379.221635
L 162.923942 379.156788
L 162.75574 379.13652
L 162.190544 379.065153
L 162.034076 379.044554
L 161.468879 378.967096
L 161.323965 378.94651
L 160.758768 378.863388
L 160.625197 378.843125
L 160.060001 378.754759
L 159.937537 378.73509
L 159.37234 378.641898
L 159.260727 378.623059
L 158.695531 378.525451
L 158.594497 378.507645
L 158.0293 378.406024
L 157.93856 378.389419
L 157.373363 378.284182
L 157.292623 378.268918
L 156.727426 378.160452
L 156.656385 378.146639
L 156.091188 378.035324
L 156.029541 378.023048
L 155.464344 377.909254
L 155.411782 377.898573
L 154.846585 377.78266
L 154.802799 377.773611
L 154.237602 377.65593
L 154.202282 377.648531
L 153.637085 377.529421
L 153.609922 377.52367
L 153.044725 377.403459
L 153.025412 377.399338
L 152.460215 377.278344
L 151.883248 377.154348
L 151.314724 377.031977
L 150.755252 376.91165
L 150.202269 376.793078
L 149.655477 376.676437
L 149.114584 376.561886
L 148.579296 376.449564
L 148.049323 376.339595
L 147.524376 376.232087
L 147.00417 376.127134
L 146.48842 376.024816
L 145.976842 375.925202
L 145.469157 375.828347
L 144.965084 375.7343
L 144.464349 375.643096
L 143.966676 375.554765
L 143.471796 375.469327
L 142.979439 375.386795
L 142.489341 375.307178
L 142.001242 375.230477
L 141.514884 375.156689
L 141.030017 375.085805
L 140.546392 375.017814
L 140.06377 374.9527
L 139.581914 374.890445
L 139.100596 374.831028
L 138.619594 374.774423
L 138.138694 374.720606
L 137.657689 374.669546
L 137.176382 374.621215
L 136.69458 374.575579
L 136.212105 374.532604
L 135.728783 374.492255
L 135.244451 374.454494
L 134.758956 374.419281
L 134.272154 374.386577
L 133.783911 374.356338
L 133.294102 374.32852
L 132.802612 374.303078
L 132.309337 374.279963
L 131.814179 374.259128
L 131.317055 374.240519
L 130.817885 374.224085
L 130.316603 374.209771
L 129.81315 374.197521
L 129.307475 374.187277
L 128.799536 374.178979
L 128.2893 374.172565
L 127.77674 374.167973
L 127.261838 374.16514
L 126.744583 374.163999
L 126.224969 374.164483
L 125.702999 374.166525
L 125.178681 374.170056
L 124.652028 374.175007
L 124.123061 374.181307
L 123.591802 374.188885
L 123.058281 374.19767
L 122.522533 374.207591
L 121.984594 374.218576
L 121.444506 374.230555
L 120.902313 374.243456
L 120.358065 374.257209
L 119.811813 374.271745
L 119.263609 374.286993
L 118.71351 374.302887
L 118.161573 374.319359
L 117.607859 374.336345
L 117.05243 374.353779
L 116.495347 374.371599
L 115.936674 374.389744
L 115.376476 374.408155
L 114.814819 374.426774
L 114.251767 374.445547
L 113.687387 374.46442
L 113.122276 374.483323
L 112.556019 374.502225
L 111.9886 374.52108
L 111.420083 374.539846
L 110.850533 374.558479
L 110.280014 374.57694
L 109.708591 374.595191
L 109.136325 374.613198
L 108.563279 374.630927
L 107.989512 374.648349
L 107.415085 374.665434
L 106.840055 374.682158
L 106.264479 374.698497
L 105.688412 374.714429
L 105.111906 374.729936
L 104.535015 374.745
L 103.957788 374.759606
L 103.380274 374.773742
L 102.80252 374.787397
L 102.22457 374.800562
L 101.646467 374.813229
L 101.068254 374.825393
L 100.489968 374.83705
L 99.911648 374.848198
L 99.33333 374.858837
L 98.755046 374.868966
L 98.176829 374.878589
L 97.598709 374.887709
L 97.020714 374.89633
L 96.44287 374.904458
L 95.865202 374.912099
L 95.287732 374.919262
L 94.710482 374.925955
L 94.133471 374.932188
L 93.556716 374.937969
L 92.980234 374.943312
L 92.404038 374.948226
L 91.828142 374.952723
L 91.252556 374.956817
L 90.677291 374.960519
L 90.102356 374.963843
L 89.527757 374.966803
L 88.9535 374.969411
L 88.37959 374.971681
L 87.80603 374.973629
L 87.232823 374.975266
L 86.659969 374.976608
L 86.08747 374.977669
L 85.515323 374.978461
L 84.943528 374.979
L 84.372082 374.979299
L 83.800981 374.979371
L 83.230222 374.97923
L 82.659799 374.978888
L 82.089708 374.97836
L 81.519941 374.977656
L 80.950494 374.976791
L 80.381358 374.975776
L 79.812525 374.974622
L 79.243989 374.973341
L 78.675741 374.971945
L 78.107772 374.970443
L 77.540073 374.968847
L 76.972636 374.967166
L 76.40545 374.96541
L 75.838507 374.963589
L 75.271797 374.96171
L 74.70531 374.959784
L 74.139037 374.957817
L 73.572967 374.955817
L 73.007092 374.953793
L 72.441401 374.95175
L 71.875885 374.949696
L 71.310534 374.947636
L 70.745411 374.945578
L 70.180431 374.943525
L 69.615583 374.941484
L 69.050858 374.939459
L 68.486248 374.937454
L 67.921745 374.935474
L 67.35734 374.933523
L 66.793024 374.931604
L 66.228791 374.92972
L 65.664632 374.927874
L 65.100539 374.926069
L 64.536506 374.924307
L 63.972526 374.922591
L 63.408593 374.920921
L 62.844699 374.919301
L 62.280839 374.91773
L 61.717006 374.916211
L 61.153196 374.914744
L 60.589404 374.91333
L 60.025623 374.911969
L 59.46185 374.910662
L 58.89808 374.909409
L 58.334308 374.908209
L 57.770532 374.907064
L 57.206747 374.905973
L 56.642949 374.904934
L 56.079136 374.903948
L 55.515304 374.903014
L 54.951452 374.902132
L 54.387576 374.9013
L 53.823674 374.900517
L 53.259744 374.899783
L 52.695785 374.899096
L 52.131794 374.898455
L 51.567771 374.89786
L 51.003714 374.897308
L 50.439621 374.896798
L 49.875493 374.89633
L 49.311328 374.895901
L 48.747126 374.895511
L 48.182886 374.895158
L 47.618158 374.89484
L 46.157813 374.822273
L 44.711614 374.606917
L 43.293487 374.250845
L 41.91709 373.757488
L 40.595678 373.131595
L 39.341977 372.379196
L 38.168061 371.507535
L 37.085235 370.525008
L 36.103929 369.441076
L 35.233591 368.266179
L 34.482604 367.011631
L 33.858201 365.689515
L 33.366394 364.312562
L 33.011921 362.894035
L 32.798194 361.447594
L 32.727273 359.987169
L 32.799839 358.526825
L 33.015196 357.080625
L 33.371267 355.662498
L 33.864625 354.286101
L 34.490517 352.964689
L 35.242917 351.710988
L 36.114578 350.537072
L 37.097105 349.454247
L 38.181037 348.47294
L 39.355934 347.602602
L 40.610482 346.851615
L 41.932598 346.227212
L 43.30955 345.735405
L 44.728077 345.380932
L 46.174519 345.167205
L 47.634944 345.096284
L 48.20014 345.096602
" style="fill:#ffd43b;stroke:#000000;stroke-linejoin:miter;stroke-width:1.618034;"/>
   </g>
  </g>
 </g>
 <defs>
  <clipPath id="pdb687ec1ed">
   <rect height="720" width="720" x="0" y="0"/>
  </clipPath>
 </defs>
</svg>
