<?xml version="1.0" encoding="UTF-8" standalone="no"?>
<!DOCTYPE svg PUBLIC "-//W3C//DTD SVG 1.1//EN"
 "http://www.w3.org/Graphics/SVG/1.1/DTD/svg11.dtd">
<!-- Generated by graphviz version 2.43.0 (0)
 -->
<!-- Title: sample Pages: 1 -->
<svg width="1463pt" height="260pt"
 viewBox="0.00 0.00 1462.62 260.00" xmlns="http://www.w3.org/2000/svg" xmlns:xlink="http://www.w3.org/1999/xlink">
<g id="graph0" class="graph" transform="scale(1 1) rotate(0) translate(4 256)">
<title>sample</title>
<polygon fill="white" stroke="transparent" points="-4,4 -4,-256 1458.62,-256 1458.62,4 -4,4"/>
<!-- pymedphys._dicom.anonymise -->
<g id="node1" class="node">
<title>pymedphys._dicom.anonymise</title>
<g id="a_node1"><a xlink:href="https://github.com/pymedphys/pymedphys/tree/main/lib/pymedphys" xlink:title="pymedphys.dicom.anonymise">
<ellipse fill="none" stroke="black" cx="1100.63" cy="-234" rx="147.57" ry="18"/>
<text text-anchor="middle" x="1100.63" y="-230.3" font-family="Times,serif" font-size="14.00">pymedphys.dicom.anonymise</text>
</a>
</g>
</g>
<!-- pymedphys._dicom.anonymise.core -->
<g id="node2" class="node">
<title>pymedphys._dicom.anonymise.core</title>
<ellipse fill="none" stroke="black" cx="919.63" cy="-162" rx="174.67" ry="18"/>
<text text-anchor="middle" x="919.63" y="-158.3" font-family="Times,serif" font-size="14.00">pymedphys._dicom.anonymise.core</text>
</g>
<!-- pymedphys._dicom.anonymise&#45;&gt;pymedphys._dicom.anonymise.core -->
<g id="edge1" class="edge">
<title>pymedphys._dicom.anonymise&#45;&gt;pymedphys._dicom.anonymise.core</title>
<path fill="none" stroke="black" d="M1058.2,-216.59C1032.4,-206.61 999.26,-193.8 971.86,-183.2"/>
<polygon fill="black" stroke="black" points="973.02,-179.89 962.43,-179.55 970.5,-186.42 973.02,-179.89"/>
</g>
<!-- pymedphys._dicom.anonymise.api -->
<g id="node3" class="node">
<title>pymedphys._dicom.anonymise.api</title>
<ellipse fill="none" stroke="black" cx="1285.63" cy="-162" rx="168.97" ry="18"/>
<text text-anchor="middle" x="1285.63" y="-158.3" font-family="Times,serif" font-size="14.00">pymedphys._dicom.anonymise.api</text>
</g>
<!-- pymedphys._dicom.anonymise&#45;&gt;pymedphys._dicom.anonymise.api -->
<g id="edge2" class="edge">
<title>pymedphys._dicom.anonymise&#45;&gt;pymedphys._dicom.anonymise.api</title>
<path fill="none" stroke="black" d="M1143.54,-216.76C1169.99,-206.76 1204.12,-193.84 1232.3,-183.18"/>
<polygon fill="black" stroke="black" points="1233.88,-186.32 1242,-179.51 1231.41,-179.78 1233.88,-186.32"/>
</g>
<!-- pymedphys._dicom.constants -->
<g id="node4" class="node">
<title>pymedphys._dicom.constants</title>
<ellipse fill="none" stroke="black" cx="559.63" cy="-90" rx="146.77" ry="18"/>
<text text-anchor="middle" x="559.63" y="-86.3" font-family="Times,serif" font-size="14.00">pymedphys._dicom.constants</text>
</g>
<!-- pymedphys._dicom.anonymise.core&#45;&gt;pymedphys._dicom.constants -->
<g id="edge3" class="edge">
<title>pymedphys._dicom.anonymise.core&#45;&gt;pymedphys._dicom.constants</title>
<path fill="none" stroke="black" d="M841.52,-145.81C783.46,-134.52 704.31,-119.13 644.67,-107.53"/>
<polygon fill="black" stroke="black" points="645,-104.03 634.52,-105.56 643.67,-110.9 645,-104.03"/>
</g>
<!-- pymedphys._dicom.anonymise.strategy -->
<g id="node5" class="node">
<title>pymedphys._dicom.anonymise.strategy</title>
<ellipse fill="none" stroke="black" cx="919.63" cy="-90" rx="193.87" ry="18"/>
<text text-anchor="middle" x="919.63" y="-86.3" font-family="Times,serif" font-size="14.00">pymedphys._dicom.anonymise.strategy</text>
</g>
<!-- pymedphys._dicom.anonymise.core&#45;&gt;pymedphys._dicom.anonymise.strategy -->
<g id="edge4" class="edge">
<title>pymedphys._dicom.anonymise.core&#45;&gt;pymedphys._dicom.anonymise.strategy</title>
<path fill="none" stroke="black" d="M919.63,-143.7C919.63,-135.98 919.63,-126.71 919.63,-118.11"/>
<polygon fill="black" stroke="black" points="923.14,-118.1 919.63,-108.1 916.14,-118.1 923.14,-118.1"/>
</g>
<!-- pymedphys._dicom.utilities -->
<g id="node6" class="node">
<title>pymedphys._dicom.utilities</title>
<ellipse fill="none" stroke="black" cx="1293.63" cy="-90" rx="137.58" ry="18"/>
<text text-anchor="middle" x="1293.63" y="-86.3" font-family="Times,serif" font-size="14.00">pymedphys._dicom.utilities</text>
</g>
<!-- pymedphys._dicom.anonymise.api&#45;&gt;pymedphys._dicom.utilities -->
<g id="edge5" class="edge">
<title>pymedphys._dicom.anonymise.api&#45;&gt;pymedphys._dicom.utilities</title>
<path fill="none" stroke="black" d="M1287.61,-143.7C1288.49,-135.98 1289.55,-126.71 1290.54,-118.11"/>
<polygon fill="black" stroke="black" points="1294.02,-118.44 1291.68,-108.1 1287.07,-117.64 1294.02,-118.44"/>
</g>
<!-- pymedphys._dicom.constants.core -->
<g id="node7" class="node">
<title>pymedphys._dicom.constants.core</title>
<ellipse fill="none" stroke="black" cx="169.63" cy="-18" rx="169.77" ry="18"/>
<text text-anchor="middle" x="169.63" y="-14.3" font-family="Times,serif" font-size="14.00">pymedphys._dicom.constants.core</text>
</g>
<!-- pymedphys._dicom.constants&#45;&gt;pymedphys._dicom.constants.core -->
<g id="edge6" class="edge">
<title>pymedphys._dicom.constants&#45;&gt;pymedphys._dicom.constants.core</title>
<path fill="none" stroke="black" d="M480.24,-74.75C417.01,-63.4 328.39,-47.49 261.98,-35.58"/>
<polygon fill="black" stroke="black" points="262.4,-32.09 251.94,-33.77 261.16,-38.98 262.4,-32.09"/>
</g>
<!-- pymedphys._dicom.constants.orientation -->
<g id="node8" class="node">
<title>pymedphys._dicom.constants.orientation</title>
<ellipse fill="none" stroke="black" cx="557.63" cy="-18" rx="200.66" ry="18"/>
<text text-anchor="middle" x="557.63" y="-14.3" font-family="Times,serif" font-size="14.00">pymedphys._dicom.constants.orientation</text>
</g>
<!-- pymedphys._dicom.constants&#45;&gt;pymedphys._dicom.constants.orientation -->
<g id="edge7" class="edge">
<title>pymedphys._dicom.constants&#45;&gt;pymedphys._dicom.constants.orientation</title>
<path fill="none" stroke="black" d="M559.14,-71.7C558.92,-63.98 558.66,-54.71 558.41,-46.11"/>
<polygon fill="black" stroke="black" points="561.91,-46 558.12,-36.1 554.91,-46.2 561.91,-46"/>
</g>
<!-- pymedphys._dicom.constants.uuid -->
<g id="node9" class="node">
<title>pymedphys._dicom.constants.uuid</title>
<ellipse fill="none" stroke="black" cx="946.63" cy="-18" rx="170.07" ry="18"/>
<text text-anchor="middle" x="946.63" y="-14.3" font-family="Times,serif" font-size="14.00">pymedphys._dicom.constants.uuid</text>
</g>
<!-- pymedphys._dicom.constants&#45;&gt;pymedphys._dicom.constants.uuid -->
<g id="edge8" class="edge">
<title>pymedphys._dicom.constants&#45;&gt;pymedphys._dicom.constants.uuid</title>
<path fill="none" stroke="black" d="M638.42,-74.75C701.06,-63.42 788.81,-47.55 854.66,-35.64"/>
<polygon fill="black" stroke="black" points="855.41,-39.06 864.63,-33.83 854.16,-32.17 855.41,-39.06"/>
</g>
<!-- pymedphys._dicom.utilities.files -->
<g id="node10" class="node">
<title>pymedphys._dicom.utilities.files</title>
<ellipse fill="none" stroke="black" cx="1294.63" cy="-18" rx="159.47" ry="18"/>
<text text-anchor="middle" x="1294.63" y="-14.3" font-family="Times,serif" font-size="14.00">pymedphys._dicom.utilities.files</text>
</g>
<!-- pymedphys._dicom.utilities&#45;&gt;pymedphys._dicom.utilities.files -->
<g id="edge9" class="edge">
<title>pymedphys._dicom.utilities&#45;&gt;pymedphys._dicom.utilities.files</title>
<path fill="none" stroke="black" d="M1293.88,-71.7C1293.99,-63.98 1294.12,-54.71 1294.25,-46.11"/>
<polygon fill="black" stroke="black" points="1297.75,-46.15 1294.39,-36.1 1290.75,-46.05 1297.75,-46.15"/>
</g>
</g>
</svg>
