<?xml version="1.0" encoding="UTF-8" standalone="no"?>
<!DOCTYPE svg PUBLIC "-//W3C//DTD SVG 1.1//EN"
 "http://www.w3.org/Graphics/SVG/1.1/DTD/svg11.dtd">
<!-- Generated by graphviz version 2.43.0 (0)
 -->
<!-- Title: sample Pages: 1 -->
<svg width="1042pt" height="260pt"
 viewBox="0.00 0.00 1042.08 260.00" xmlns="http://www.w3.org/2000/svg" xmlns:xlink="http://www.w3.org/1999/xlink">
<g id="graph0" class="graph" transform="scale(1 1) rotate(0) translate(4 256)">
<title>sample</title>
<polygon fill="white" stroke="transparent" points="-4,4 -4,-256 1038.08,-256 1038.08,4 -4,4"/>
<!-- pymedphys._data -->
<g id="node1" class="node">
<title>pymedphys._data</title>
<g id="a_node1"><a xlink:href="https://github.com/pymedphys/pymedphys/tree/main/lib/pymedphys" xlink:title="pymedphys.zip_data_paths">
<ellipse fill="none" stroke="black" cx="505.79" cy="-234" rx="135.68" ry="18"/>
<text text-anchor="middle" x="505.79" y="-230.3" font-family="Times,serif" font-size="14.00">pymedphys.zip_data_paths</text>
</a>
</g>
</g>
<!-- pymedphys._data.download -->
<g id="node2" class="node">
<title>pymedphys._data.download</title>
<ellipse fill="none" stroke="black" cx="505.79" cy="-162" rx="139.18" ry="18"/>
<text text-anchor="middle" x="505.79" y="-158.3" font-family="Times,serif" font-size="14.00">pymedphys._data.download</text>
</g>
<!-- pymedphys._data&#45;&gt;pymedphys._data.download -->
<g id="edge1" class="edge">
<title>pymedphys._data&#45;&gt;pymedphys._data.download</title>
<path fill="none" stroke="black" d="M505.79,-215.7C505.79,-207.98 505.79,-198.71 505.79,-190.11"/>
<polygon fill="black" stroke="black" points="509.29,-190.1 505.79,-180.1 502.29,-190.1 509.29,-190.1"/>
</g>
<!-- pymedphys._config -->
<g id="node3" class="node">
<title>pymedphys._config</title>
<ellipse fill="none" stroke="black" cx="98.79" cy="-90" rx="98.58" ry="18"/>
<text text-anchor="middle" x="98.79" y="-86.3" font-family="Times,serif" font-size="14.00">pymedphys._config</text>
</g>
<!-- pymedphys._data.download&#45;&gt;pymedphys._config -->
<g id="edge2" class="edge">
<title>pymedphys._data.download&#45;&gt;pymedphys._config</title>
<path fill="none" stroke="black" d="M425.87,-147.25C354.12,-134.91 249.39,-116.9 177.89,-104.6"/>
<polygon fill="black" stroke="black" points="178.48,-101.15 168.03,-102.91 177.29,-108.05 178.48,-101.15"/>
</g>
<!-- pymedphys._utilities.filehash -->
<g id="node4" class="node">
<title>pymedphys._utilities.filehash</title>
<ellipse fill="none" stroke="black" cx="360.79" cy="-90" rx="145.67" ry="18"/>
<text text-anchor="middle" x="360.79" y="-86.3" font-family="Times,serif" font-size="14.00">pymedphys._utilities.filehash</text>
</g>
<!-- pymedphys._data.download&#45;&gt;pymedphys._utilities.filehash -->
<g id="edge3" class="edge">
<title>pymedphys._data.download&#45;&gt;pymedphys._utilities.filehash</title>
<path fill="none" stroke="black" d="M471.43,-144.41C451.37,-134.73 425.86,-122.41 404.39,-112.05"/>
<polygon fill="black" stroke="black" points="405.69,-108.79 395.16,-107.59 402.64,-115.09 405.69,-108.79"/>
</g>
<!-- pymedphys._data.zenodo -->
<g id="node5" class="node">
<title>pymedphys._data.zenodo</title>
<ellipse fill="none" stroke="black" cx="651.79" cy="-90" rx="127.28" ry="18"/>
<text text-anchor="middle" x="651.79" y="-86.3" font-family="Times,serif" font-size="14.00">pymedphys._data.zenodo</text>
</g>
<!-- pymedphys._data.download&#45;&gt;pymedphys._data.zenodo -->
<g id="edge4" class="edge">
<title>pymedphys._data.download&#45;&gt;pymedphys._data.zenodo</title>
<path fill="none" stroke="black" d="M540.39,-144.41C560.83,-134.61 586.88,-122.12 608.65,-111.68"/>
<polygon fill="black" stroke="black" points="610.19,-114.83 617.69,-107.35 607.16,-108.52 610.19,-114.83"/>
</g>
<!-- pymedphys._data.retry -->
<g id="node6" class="node">
<title>pymedphys._data.retry</title>
<ellipse fill="none" stroke="black" cx="915.79" cy="-90" rx="118.08" ry="18"/>
<text text-anchor="middle" x="915.79" y="-86.3" font-family="Times,serif" font-size="14.00">pymedphys._data.retry</text>
</g>
<!-- pymedphys._data.download&#45;&gt;pymedphys._data.retry -->
<g id="edge5" class="edge">
<title>pymedphys._data.download&#45;&gt;pymedphys._data.retry</title>
<path fill="none" stroke="black" d="M586.3,-147.25C656.69,-135.24 758.58,-117.84 830.38,-105.58"/>
<polygon fill="black" stroke="black" points="831.04,-109.02 840.3,-103.89 829.86,-102.12 831.04,-109.02"/>
</g>
<!-- pymedphys._utilities.filehash.core -->
<g id="node7" class="node">
<title>pymedphys._utilities.filehash.core</title>
<ellipse fill="none" stroke="black" cx="360.79" cy="-18" rx="168.97" ry="18"/>
<text text-anchor="middle" x="360.79" y="-14.3" font-family="Times,serif" font-size="14.00">pymedphys._utilities.filehash.core</text>
</g>
<!-- pymedphys._utilities.filehash&#45;&gt;pymedphys._utilities.filehash.core -->
<g id="edge6" class="edge">
<title>pymedphys._utilities.filehash&#45;&gt;pymedphys._utilities.filehash.core</title>
<path fill="none" stroke="black" d="M360.79,-71.7C360.79,-63.98 360.79,-54.71 360.79,-46.11"/>
<polygon fill="black" stroke="black" points="364.29,-46.1 360.79,-36.1 357.29,-46.1 364.29,-46.1"/>
</g>
</g>
</svg>
