<?xml version="1.0" encoding="UTF-8" standalone="no"?>
<!DOCTYPE svg PUBLIC "-//W3C//DTD SVG 1.1//EN"
 "http://www.w3.org/Graphics/SVG/1.1/DTD/svg11.dtd">
<!-- Generated by graphviz version 2.43.0 (0)
 -->
<!-- Title: sample Pages: 1 -->
<svg width="3388pt" height="404pt"
 viewBox="0.00 0.00 3387.72 404.00" xmlns="http://www.w3.org/2000/svg" xmlns:xlink="http://www.w3.org/1999/xlink">
<g id="graph0" class="graph" transform="scale(1 1) rotate(0) translate(4 400)">
<title>sample</title>
<polygon fill="white" stroke="transparent" points="-4,4 -4,-400 3383.72,-400 3383.72,4 -4,4"/>
<!-- pymedphys._delivery -->
<g id="node1" class="node">
<title>pymedphys._delivery</title>
<g id="a_node1"><a xlink:href="https://github.com/pymedphys/pymedphys/tree/main/lib/pymedphys" xlink:title="pymedphys.Delivery">
<ellipse fill="none" stroke="black" cx="1837.78" cy="-378" rx="105.88" ry="18"/>
<text text-anchor="middle" x="1837.78" y="-374.3" font-family="Times,serif" font-size="14.00">pymedphys.Delivery</text>
</a>
</g>
</g>
<!-- pymedphys._dicom.delivery -->
<g id="node2" class="node">
<title>pymedphys._dicom.delivery</title>
<ellipse fill="none" stroke="black" cx="703.78" cy="-306" rx="139.98" ry="18"/>
<text text-anchor="middle" x="703.78" y="-302.3" font-family="Times,serif" font-size="14.00">pymedphys._dicom.delivery</text>
</g>
<!-- pymedphys._delivery&#45;&gt;pymedphys._dicom.delivery -->
<g id="edge1" class="edge">
<title>pymedphys._delivery&#45;&gt;pymedphys._dicom.delivery</title>
<path fill="none" stroke="black" d="M1735.37,-373.35C1556.92,-366.56 1177.46,-350.27 857.78,-324 843.3,-322.81 828.07,-321.36 813.05,-319.83"/>
<polygon fill="black" stroke="black" points="813.01,-316.3 802.7,-318.75 812.29,-323.26 813.01,-316.3"/>
</g>
<!-- pymedphys._monaco.delivery -->
<g id="node3" class="node">
<title>pymedphys._monaco.delivery</title>
<ellipse fill="none" stroke="black" cx="1014.78" cy="-306" rx="147.57" ry="18"/>
<text text-anchor="middle" x="1014.78" y="-302.3" font-family="Times,serif" font-size="14.00">pymedphys._monaco.delivery</text>
</g>
<!-- pymedphys._delivery&#45;&gt;pymedphys._monaco.delivery -->
<g id="edge2" class="edge">
<title>pymedphys._delivery&#45;&gt;pymedphys._monaco.delivery</title>
<path fill="none" stroke="black" d="M1745.37,-369.14C1598.02,-356.61 1309.48,-332.07 1142.49,-317.86"/>
<polygon fill="black" stroke="black" points="1142.43,-314.34 1132.16,-316.98 1141.83,-321.32 1142.43,-314.34"/>
</g>
<!-- pymedphys._mosaiq.delivery -->
<g id="node4" class="node">
<title>pymedphys._mosaiq.delivery</title>
<ellipse fill="none" stroke="black" cx="1480.78" cy="-306" rx="144.87" ry="18"/>
<text text-anchor="middle" x="1480.78" y="-302.3" font-family="Times,serif" font-size="14.00">pymedphys._mosaiq.delivery</text>
</g>
<!-- pymedphys._delivery&#45;&gt;pymedphys._mosaiq.delivery -->
<g id="edge3" class="edge">
<title>pymedphys._delivery&#45;&gt;pymedphys._mosaiq.delivery</title>
<path fill="none" stroke="black" d="M1771.05,-363.92C1712.72,-352.48 1627.74,-335.82 1564.79,-323.47"/>
<polygon fill="black" stroke="black" points="1565.37,-320.02 1554.89,-321.53 1564.03,-326.89 1565.37,-320.02"/>
</g>
<!-- pymedphys._metersetmap.delivery -->
<g id="node5" class="node">
<title>pymedphys._metersetmap.delivery</title>
<ellipse fill="none" stroke="black" cx="1837.78" cy="-306" rx="173.57" ry="18"/>
<text text-anchor="middle" x="1837.78" y="-302.3" font-family="Times,serif" font-size="14.00">pymedphys._metersetmap.delivery</text>
</g>
<!-- pymedphys._delivery&#45;&gt;pymedphys._metersetmap.delivery -->
<g id="edge4" class="edge">
<title>pymedphys._delivery&#45;&gt;pymedphys._metersetmap.delivery</title>
<path fill="none" stroke="black" d="M1837.78,-359.7C1837.78,-351.98 1837.78,-342.71 1837.78,-334.11"/>
<polygon fill="black" stroke="black" points="1841.28,-334.1 1837.78,-324.1 1834.28,-334.1 1841.28,-334.1"/>
</g>
<!-- pymedphys._trf.decode.delivery -->
<g id="node6" class="node">
<title>pymedphys._trf.decode.delivery</title>
<ellipse fill="none" stroke="black" cx="2216.78" cy="-306" rx="158.67" ry="18"/>
<text text-anchor="middle" x="2216.78" y="-302.3" font-family="Times,serif" font-size="14.00">pymedphys._trf.decode.delivery</text>
</g>
<!-- pymedphys._delivery&#45;&gt;pymedphys._trf.decode.delivery -->
<g id="edge5" class="edge">
<title>pymedphys._delivery&#45;&gt;pymedphys._trf.decode.delivery</title>
<path fill="none" stroke="black" d="M1906.86,-364.24C1968.8,-352.8 2060.05,-335.95 2127.51,-323.49"/>
<polygon fill="black" stroke="black" points="2128.5,-326.86 2137.7,-321.61 2127.23,-319.98 2128.5,-326.86"/>
</g>
<!-- pymedphys._icom.delivery -->
<g id="node7" class="node">
<title>pymedphys._icom.delivery</title>
<ellipse fill="none" stroke="black" cx="2708.78" cy="-306" rx="133.78" ry="18"/>
<text text-anchor="middle" x="2708.78" y="-302.3" font-family="Times,serif" font-size="14.00">pymedphys._icom.delivery</text>
</g>
<!-- pymedphys._delivery&#45;&gt;pymedphys._icom.delivery -->
<g id="edge6" class="edge">
<title>pymedphys._delivery&#45;&gt;pymedphys._icom.delivery</title>
<path fill="none" stroke="black" d="M1931.41,-369.48C2090.02,-356.73 2411.41,-330.9 2587.2,-316.77"/>
<polygon fill="black" stroke="black" points="2587.58,-320.25 2597.27,-315.96 2587.02,-313.27 2587.58,-320.25"/>
</g>
<!-- pymedphys._base.delivery -->
<g id="node8" class="node">
<title>pymedphys._base.delivery</title>
<ellipse fill="none" stroke="black" cx="3100.78" cy="-306" rx="133.48" ry="18"/>
<text text-anchor="middle" x="3100.78" y="-302.3" font-family="Times,serif" font-size="14.00">pymedphys._base.delivery</text>
</g>
<!-- pymedphys._delivery&#45;&gt;pymedphys._base.delivery -->
<g id="edge7" class="edge">
<title>pymedphys._delivery&#45;&gt;pymedphys._base.delivery</title>
<path fill="none" stroke="black" d="M1938.56,-372.27C2120.84,-363.58 2517.46,-344.15 2851.78,-324 2892.25,-321.56 2936.41,-318.63 2976.14,-315.9"/>
<polygon fill="black" stroke="black" points="2976.41,-319.39 2986.14,-315.21 2975.93,-312.41 2976.41,-319.39"/>
</g>
<!-- pymedphys._dicom.delivery.core -->
<g id="node9" class="node">
<title>pymedphys._dicom.delivery.core</title>
<ellipse fill="none" stroke="black" cx="532.78" cy="-234" rx="161.37" ry="18"/>
<text text-anchor="middle" x="532.78" y="-230.3" font-family="Times,serif" font-size="14.00">pymedphys._dicom.delivery.core</text>
</g>
<!-- pymedphys._dicom.delivery&#45;&gt;pymedphys._dicom.delivery.core -->
<g id="edge8" class="edge">
<title>pymedphys._dicom.delivery&#45;&gt;pymedphys._dicom.delivery.core</title>
<path fill="none" stroke="black" d="M663.69,-288.59C639.53,-278.7 608.56,-266.02 582.81,-255.48"/>
<polygon fill="black" stroke="black" points="583.8,-252.1 573.22,-251.55 581.15,-258.58 583.8,-252.1"/>
</g>
<!-- pymedphys._monaco.utility -->
<g id="node10" class="node">
<title>pymedphys._monaco.utility</title>
<ellipse fill="none" stroke="black" cx="858.78" cy="-234" rx="137.58" ry="18"/>
<text text-anchor="middle" x="858.78" y="-230.3" font-family="Times,serif" font-size="14.00">pymedphys._monaco.utility</text>
</g>
<!-- pymedphys._monaco.delivery&#45;&gt;pymedphys._monaco.utility -->
<g id="edge9" class="edge">
<title>pymedphys._monaco.delivery&#45;&gt;pymedphys._monaco.utility</title>
<path fill="none" stroke="black" d="M977.81,-288.41C955.96,-278.6 928.09,-266.1 904.82,-255.66"/>
<polygon fill="black" stroke="black" points="906.05,-252.37 895.49,-251.47 903.18,-258.76 906.05,-252.37"/>
</g>
<!-- pymedphys._mosaiq.constants -->
<g id="node11" class="node">
<title>pymedphys._mosaiq.constants</title>
<ellipse fill="none" stroke="black" cx="1166.78" cy="-234" rx="152.17" ry="18"/>
<text text-anchor="middle" x="1166.78" y="-230.3" font-family="Times,serif" font-size="14.00">pymedphys._mosaiq.constants</text>
</g>
<!-- pymedphys._mosaiq.delivery&#45;&gt;pymedphys._mosaiq.constants -->
<g id="edge10" class="edge">
<title>pymedphys._mosaiq.delivery&#45;&gt;pymedphys._mosaiq.constants</title>
<path fill="none" stroke="black" d="M1413.42,-289.98C1363.91,-278.94 1296.5,-263.92 1244.66,-252.36"/>
<polygon fill="black" stroke="black" points="1245.37,-248.93 1234.85,-250.17 1243.84,-255.77 1245.37,-248.93"/>
</g>
<!-- pymedphys._mosaiq.connect -->
<g id="node12" class="node">
<title>pymedphys._mosaiq.connect</title>
<ellipse fill="none" stroke="black" cx="1480.78" cy="-234" rx="143.77" ry="18"/>
<text text-anchor="middle" x="1480.78" y="-230.3" font-family="Times,serif" font-size="14.00">pymedphys._mosaiq.connect</text>
</g>
<!-- pymedphys._mosaiq.delivery&#45;&gt;pymedphys._mosaiq.connect -->
<g id="edge11" class="edge">
<title>pymedphys._mosaiq.delivery&#45;&gt;pymedphys._mosaiq.connect</title>
<path fill="none" stroke="black" d="M1480.78,-287.7C1480.78,-279.98 1480.78,-270.71 1480.78,-262.11"/>
<polygon fill="black" stroke="black" points="1484.28,-262.1 1480.78,-252.1 1477.28,-262.1 1484.28,-262.1"/>
</g>
<!-- pymedphys._metersetmap.delivery.core -->
<g id="node13" class="node">
<title>pymedphys._metersetmap.delivery.core</title>
<ellipse fill="none" stroke="black" cx="1837.78" cy="-234" rx="194.97" ry="18"/>
<text text-anchor="middle" x="1837.78" y="-230.3" font-family="Times,serif" font-size="14.00">pymedphys._metersetmap.delivery.core</text>
</g>
<!-- pymedphys._metersetmap.delivery&#45;&gt;pymedphys._metersetmap.delivery.core -->
<g id="edge12" class="edge">
<title>pymedphys._metersetmap.delivery&#45;&gt;pymedphys._metersetmap.delivery.core</title>
<path fill="none" stroke="black" d="M1837.78,-287.7C1837.78,-279.98 1837.78,-270.71 1837.78,-262.11"/>
<polygon fill="black" stroke="black" points="1841.28,-262.1 1837.78,-252.1 1834.28,-262.1 1841.28,-262.1"/>
</g>
<!-- pymedphys._trf.decode.constants -->
<g id="node14" class="node">
<title>pymedphys._trf.decode.constants</title>
<ellipse fill="none" stroke="black" cx="2216.78" cy="-234" rx="165.97" ry="18"/>
<text text-anchor="middle" x="2216.78" y="-230.3" font-family="Times,serif" font-size="14.00">pymedphys._trf.decode.constants</text>
</g>
<!-- pymedphys._trf.decode.delivery&#45;&gt;pymedphys._trf.decode.constants -->
<g id="edge13" class="edge">
<title>pymedphys._trf.decode.delivery&#45;&gt;pymedphys._trf.decode.constants</title>
<path fill="none" stroke="black" d="M2216.78,-287.7C2216.78,-279.98 2216.78,-270.71 2216.78,-262.11"/>
<polygon fill="black" stroke="black" points="2220.28,-262.1 2216.78,-252.1 2213.28,-262.1 2220.28,-262.1"/>
</g>
<!-- pymedphys._trf.decode.trf2pandas -->
<g id="node15" class="node">
<title>pymedphys._trf.decode.trf2pandas</title>
<ellipse fill="none" stroke="black" cx="2571.78" cy="-234" rx="171.67" ry="18"/>
<text text-anchor="middle" x="2571.78" y="-230.3" font-family="Times,serif" font-size="14.00">pymedphys._trf.decode.trf2pandas</text>
</g>
<!-- pymedphys._trf.decode.delivery&#45;&gt;pymedphys._trf.decode.trf2pandas -->
<g id="edge14" class="edge">
<title>pymedphys._trf.decode.delivery&#45;&gt;pymedphys._trf.decode.trf2pandas</title>
<path fill="none" stroke="black" d="M2292.07,-290.15C2348.54,-279.02 2425.95,-263.76 2485.02,-252.11"/>
<polygon fill="black" stroke="black" points="2485.94,-255.49 2495.08,-250.13 2484.59,-248.63 2485.94,-255.49"/>
</g>
<!-- pymedphys._icom.extract -->
<g id="node16" class="node">
<title>pymedphys._icom.extract</title>
<ellipse fill="none" stroke="black" cx="2890.78" cy="-234" rx="129.18" ry="18"/>
<text text-anchor="middle" x="2890.78" y="-230.3" font-family="Times,serif" font-size="14.00">pymedphys._icom.extract</text>
</g>
<!-- pymedphys._icom.delivery&#45;&gt;pymedphys._icom.extract -->
<g id="edge15" class="edge">
<title>pymedphys._icom.delivery&#45;&gt;pymedphys._icom.extract</title>
<path fill="none" stroke="black" d="M2751,-288.76C2777.3,-278.65 2811.32,-265.56 2839.21,-254.84"/>
<polygon fill="black" stroke="black" points="2840.72,-258 2848.8,-251.15 2838.21,-251.47 2840.72,-258"/>
</g>
<!-- pymedphys._utilities.controlpoints -->
<g id="node17" class="node">
<title>pymedphys._utilities.controlpoints</title>
<ellipse fill="none" stroke="black" cx="3208.78" cy="-234" rx="170.87" ry="18"/>
<text text-anchor="middle" x="3208.78" y="-230.3" font-family="Times,serif" font-size="14.00">pymedphys._utilities.controlpoints</text>
</g>
<!-- pymedphys._base.delivery&#45;&gt;pymedphys._utilities.controlpoints -->
<g id="edge16" class="edge">
<title>pymedphys._base.delivery&#45;&gt;pymedphys._utilities.controlpoints</title>
<path fill="none" stroke="black" d="M3126.65,-288.23C3140.84,-279.04 3158.63,-267.51 3174.01,-257.54"/>
<polygon fill="black" stroke="black" points="3176.26,-260.25 3182.75,-251.87 3172.46,-254.37 3176.26,-260.25"/>
</g>
<!-- pymedphys._dicom.delivery.utilities -->
<g id="node18" class="node">
<title>pymedphys._dicom.delivery.utilities</title>
<ellipse fill="none" stroke="black" cx="176.78" cy="-162" rx="176.57" ry="18"/>
<text text-anchor="middle" x="176.78" y="-158.3" font-family="Times,serif" font-size="14.00">pymedphys._dicom.delivery.utilities</text>
</g>
<!-- pymedphys._dicom.delivery.core&#45;&gt;pymedphys._dicom.delivery.utilities -->
<g id="edge17" class="edge">
<title>pymedphys._dicom.delivery.core&#45;&gt;pymedphys._dicom.delivery.utilities</title>
<path fill="none" stroke="black" d="M456.85,-218.07C400.39,-206.97 323.23,-191.79 264.19,-180.19"/>
<polygon fill="black" stroke="black" points="264.63,-176.71 254.14,-178.21 263.27,-183.57 264.63,-176.71"/>
</g>
<!-- pymedphys._utilities.transforms -->
<g id="node19" class="node">
<title>pymedphys._utilities.transforms</title>
<ellipse fill="none" stroke="black" cx="532.78" cy="-162" rx="161.37" ry="18"/>
<text text-anchor="middle" x="532.78" y="-158.3" font-family="Times,serif" font-size="14.00">pymedphys._utilities.transforms</text>
</g>
<!-- pymedphys._dicom.delivery.core&#45;&gt;pymedphys._utilities.transforms -->
<g id="edge18" class="edge">
<title>pymedphys._dicom.delivery.core&#45;&gt;pymedphys._utilities.transforms</title>
<path fill="none" stroke="black" d="M532.78,-215.7C532.78,-207.98 532.78,-198.71 532.78,-190.11"/>
<polygon fill="black" stroke="black" points="536.28,-190.1 532.78,-180.1 529.28,-190.1 536.28,-190.1"/>
</g>
<!-- pymedphys._utilities.filesystem -->
<g id="node20" class="node">
<title>pymedphys._utilities.filesystem</title>
<ellipse fill="none" stroke="black" cx="868.78" cy="-162" rx="157.07" ry="18"/>
<text text-anchor="middle" x="868.78" y="-158.3" font-family="Times,serif" font-size="14.00">pymedphys._utilities.filesystem</text>
</g>
<!-- pymedphys._monaco.utility&#45;&gt;pymedphys._utilities.filesystem -->
<g id="edge19" class="edge">
<title>pymedphys._monaco.utility&#45;&gt;pymedphys._utilities.filesystem</title>
<path fill="none" stroke="black" d="M861.26,-215.7C862.36,-207.98 863.68,-198.71 864.91,-190.11"/>
<polygon fill="black" stroke="black" points="868.39,-190.5 866.34,-180.1 861.46,-189.51 868.39,-190.5"/>
</g>
<!-- pymedphys._metersetmap.metersetmap -->
<g id="node21" class="node">
<title>pymedphys._metersetmap.metersetmap</title>
<ellipse fill="none" stroke="black" cx="1837.78" cy="-162" rx="198.47" ry="18"/>
<text text-anchor="middle" x="1837.78" y="-158.3" font-family="Times,serif" font-size="14.00">pymedphys._metersetmap.metersetmap</text>
</g>
<!-- pymedphys._metersetmap.delivery.core&#45;&gt;pymedphys._metersetmap.metersetmap -->
<g id="edge20" class="edge">
<title>pymedphys._metersetmap.delivery.core&#45;&gt;pymedphys._metersetmap.metersetmap</title>
<path fill="none" stroke="black" d="M1837.78,-215.7C1837.78,-207.98 1837.78,-198.71 1837.78,-190.11"/>
<polygon fill="black" stroke="black" points="1841.28,-190.1 1837.78,-180.1 1834.28,-190.1 1841.28,-190.1"/>
</g>
<!-- pymedphys._trf.decode.partition -->
<g id="node22" class="node">
<title>pymedphys._trf.decode.partition</title>
<ellipse fill="none" stroke="black" cx="2231.78" cy="-162" rx="161.37" ry="18"/>
<text text-anchor="middle" x="2231.78" y="-158.3" font-family="Times,serif" font-size="14.00">pymedphys._trf.decode.partition</text>
</g>
<!-- pymedphys._trf.decode.trf2pandas&#45;&gt;pymedphys._trf.decode.partition -->
<g id="edge21" class="edge">
<title>pymedphys._trf.decode.trf2pandas&#45;&gt;pymedphys._trf.decode.partition</title>
<path fill="none" stroke="black" d="M2497.59,-217.72C2443.67,-206.62 2370.67,-191.59 2314.81,-180.09"/>
<polygon fill="black" stroke="black" points="2315.44,-176.65 2304.94,-178.06 2314.03,-183.51 2315.44,-176.65"/>
</g>
<!-- pymedphys._trf.decode.table -->
<g id="node23" class="node">
<title>pymedphys._trf.decode.table</title>
<ellipse fill="none" stroke="black" cx="2554.78" cy="-162" rx="144.07" ry="18"/>
<text text-anchor="middle" x="2554.78" y="-158.3" font-family="Times,serif" font-size="14.00">pymedphys._trf.decode.table</text>
</g>
<!-- pymedphys._trf.decode.trf2pandas&#45;&gt;pymedphys._trf.decode.table -->
<g id="edge22" class="edge">
<title>pymedphys._trf.decode.trf2pandas&#45;&gt;pymedphys._trf.decode.table</title>
<path fill="none" stroke="black" d="M2567.58,-215.7C2565.69,-207.9 2563.41,-198.51 2561.3,-189.83"/>
<polygon fill="black" stroke="black" points="2564.7,-189 2558.94,-180.1 2557.9,-190.65 2564.7,-189"/>
</g>
<!-- pymedphys._trf.decode.header -->
<g id="node24" class="node">
<title>pymedphys._trf.decode.header</title>
<ellipse fill="none" stroke="black" cx="2870.78" cy="-162" rx="153.27" ry="18"/>
<text text-anchor="middle" x="2870.78" y="-158.3" font-family="Times,serif" font-size="14.00">pymedphys._trf.decode.header</text>
</g>
<!-- pymedphys._trf.decode.trf2pandas&#45;&gt;pymedphys._trf.decode.header -->
<g id="edge23" class="edge">
<title>pymedphys._trf.decode.trf2pandas&#45;&gt;pymedphys._trf.decode.header</title>
<path fill="none" stroke="black" d="M2638.51,-217.38C2685.05,-206.48 2747.21,-191.93 2795.51,-180.62"/>
<polygon fill="black" stroke="black" points="2796.35,-184.02 2805.29,-178.33 2794.75,-177.21 2796.35,-184.02"/>
</g>
<!-- pymedphys._icom.mappings -->
<g id="node25" class="node">
<title>pymedphys._icom.mappings</title>
<ellipse fill="none" stroke="black" cx="3183.78" cy="-162" rx="141.88" ry="18"/>
<text text-anchor="middle" x="3183.78" y="-158.3" font-family="Times,serif" font-size="14.00">pymedphys._icom.mappings</text>
</g>
<!-- pymedphys._icom.extract&#45;&gt;pymedphys._icom.mappings -->
<g id="edge24" class="edge">
<title>pymedphys._icom.extract&#45;&gt;pymedphys._icom.mappings</title>
<path fill="none" stroke="black" d="M2952.92,-218.15C2999.05,-207.14 3062.1,-192.07 3110.65,-180.47"/>
<polygon fill="black" stroke="black" points="3111.56,-183.85 3120.47,-178.13 3109.93,-177.05 3111.56,-183.85"/>
</g>
<!-- pymedphys._utilities.transforms.bipolar -->
<g id="node30" class="node">
<title>pymedphys._utilities.transforms.bipolar</title>
<ellipse fill="none" stroke="black" cx="532.78" cy="-90" rx="196.07" ry="18"/>
<text text-anchor="middle" x="532.78" y="-86.3" font-family="Times,serif" font-size="14.00">pymedphys._utilities.transforms.bipolar</text>
</g>
<!-- pymedphys._utilities.transforms&#45;&gt;pymedphys._utilities.transforms.bipolar -->
<g id="edge29" class="edge">
<title>pymedphys._utilities.transforms&#45;&gt;pymedphys._utilities.transforms.bipolar</title>
<path fill="none" stroke="black" d="M532.78,-143.7C532.78,-135.98 532.78,-126.71 532.78,-118.11"/>
<polygon fill="black" stroke="black" points="536.28,-118.1 532.78,-108.1 529.28,-118.1 536.28,-118.1"/>
</g>
<!-- pymedphys._utilities.constants -->
<g id="node26" class="node">
<title>pymedphys._utilities.constants</title>
<ellipse fill="none" stroke="black" cx="1655.78" cy="-90" rx="154.87" ry="18"/>
<text text-anchor="middle" x="1655.78" y="-86.3" font-family="Times,serif" font-size="14.00">pymedphys._utilities.constants</text>
</g>
<!-- pymedphys._metersetmap.metersetmap&#45;&gt;pymedphys._utilities.constants -->
<g id="edge25" class="edge">
<title>pymedphys._metersetmap.metersetmap&#45;&gt;pymedphys._utilities.constants</title>
<path fill="none" stroke="black" d="M1794.65,-144.41C1768.61,-134.39 1735.25,-121.56 1707.75,-110.99"/>
<polygon fill="black" stroke="black" points="1708.88,-107.67 1698.29,-107.35 1706.37,-114.21 1708.88,-107.67"/>
</g>
<!-- pymedphys._metersetmap.plt -->
<g id="node27" class="node">
<title>pymedphys._metersetmap.plt</title>
<ellipse fill="none" stroke="black" cx="2018.78" cy="-90" rx="148.67" ry="18"/>
<text text-anchor="middle" x="2018.78" y="-86.3" font-family="Times,serif" font-size="14.00">pymedphys._metersetmap.plt</text>
</g>
<!-- pymedphys._metersetmap.metersetmap&#45;&gt;pymedphys._metersetmap.plt -->
<g id="edge26" class="edge">
<title>pymedphys._metersetmap.metersetmap&#45;&gt;pymedphys._metersetmap.plt</title>
<path fill="none" stroke="black" d="M1880.68,-144.41C1906.58,-134.39 1939.76,-121.56 1967.1,-110.99"/>
<polygon fill="black" stroke="black" points="1968.45,-114.22 1976.51,-107.35 1965.92,-107.69 1968.45,-114.22"/>
</g>
<!-- pymedphys._utilities.constants.mlctypes -->
<g id="node28" class="node">
<title>pymedphys._utilities.constants.mlctypes</title>
<ellipse fill="none" stroke="black" cx="1635.78" cy="-18" rx="199.56" ry="18"/>
<text text-anchor="middle" x="1635.78" y="-14.3" font-family="Times,serif" font-size="14.00">pymedphys._utilities.constants.mlctypes</text>
</g>
<!-- pymedphys._utilities.constants&#45;&gt;pymedphys._utilities.constants.mlctypes -->
<g id="edge27" class="edge">
<title>pymedphys._utilities.constants&#45;&gt;pymedphys._utilities.constants.mlctypes</title>
<path fill="none" stroke="black" d="M1650.84,-71.7C1648.61,-63.9 1645.93,-54.51 1643.45,-45.83"/>
<polygon fill="black" stroke="black" points="1646.78,-44.76 1640.67,-36.1 1640.05,-46.68 1646.78,-44.76"/>
</g>
<!-- pymedphys._metersetmap.plt.helpers -->
<g id="node29" class="node">
<title>pymedphys._metersetmap.plt.helpers</title>
<ellipse fill="none" stroke="black" cx="2039.78" cy="-18" rx="186.57" ry="18"/>
<text text-anchor="middle" x="2039.78" y="-14.3" font-family="Times,serif" font-size="14.00">pymedphys._metersetmap.plt.helpers</text>
</g>
<!-- pymedphys._metersetmap.plt&#45;&gt;pymedphys._metersetmap.plt.helpers -->
<g id="edge28" class="edge">
<title>pymedphys._metersetmap.plt&#45;&gt;pymedphys._metersetmap.plt.helpers</title>
<path fill="none" stroke="black" d="M2023.98,-71.7C2026.31,-63.9 2029.13,-54.51 2031.74,-45.83"/>
<polygon fill="black" stroke="black" points="2035.13,-46.69 2034.65,-36.1 2028.43,-44.68 2035.13,-46.69"/>
</g>
</g>
</svg>
