<?xml version="1.0" encoding="UTF-8" standalone="no"?>
<!DOCTYPE svg PUBLIC "-//W3C//DTD SVG 1.1//EN"
 "http://www.w3.org/Graphics/SVG/1.1/DTD/svg11.dtd">
<!-- Generated by graphviz version 2.43.0 (0)
 -->
<!-- Title: sample Pages: 1 -->
<svg width="922pt" height="116pt"
 viewBox="0.00 0.00 922.07 116.00" xmlns="http://www.w3.org/2000/svg" xmlns:xlink="http://www.w3.org/1999/xlink">
<g id="graph0" class="graph" transform="scale(1 1) rotate(0) translate(4 112)">
<title>sample</title>
<polygon fill="white" stroke="transparent" points="-4,4 -4,-112 918.07,-112 918.07,4 -4,4"/>
<!-- pymedphys._mosaiq.helpers -->
<g id="node1" class="node">
<title>pymedphys._mosaiq.helpers</title>
<g id="a_node1"><a xlink:href="https://github.com/pymedphys/pymedphys/tree/main/lib/pymedphys" xlink:title="pymedphys.mosaiq.qcls">
<ellipse fill="none" stroke="black" cx="466.09" cy="-90" rx="121.58" ry="18"/>
<text text-anchor="middle" x="466.09" y="-86.3" font-family="Times,serif" font-size="14.00">pymedphys.mosaiq.qcls</text>
</a>
</g>
</g>
<!-- pymedphys._mosaiq.constants -->
<g id="node2" class="node">
<title>pymedphys._mosaiq.constants</title>
<ellipse fill="none" stroke="black" cx="152.09" cy="-18" rx="152.17" ry="18"/>
<text text-anchor="middle" x="152.09" y="-14.3" font-family="Times,serif" font-size="14.00">pymedphys._mosaiq.constants</text>
</g>
<!-- pymedphys._mosaiq.helpers&#45;&gt;pymedphys._mosaiq.constants -->
<g id="edge1" class="edge">
<title>pymedphys._mosaiq.helpers&#45;&gt;pymedphys._mosaiq.constants</title>
<path fill="none" stroke="black" d="M401.79,-74.67C352.06,-63.58 283.01,-48.19 230.12,-36.4"/>
<polygon fill="black" stroke="black" points="230.63,-32.92 220.1,-34.16 229.1,-39.76 230.63,-32.92"/>
</g>
<!-- pymedphys._mosaiq.connect -->
<g id="node3" class="node">
<title>pymedphys._mosaiq.connect</title>
<ellipse fill="none" stroke="black" cx="466.09" cy="-18" rx="143.77" ry="18"/>
<text text-anchor="middle" x="466.09" y="-14.3" font-family="Times,serif" font-size="14.00">pymedphys._mosaiq.connect</text>
</g>
<!-- pymedphys._mosaiq.helpers&#45;&gt;pymedphys._mosaiq.connect -->
<g id="edge2" class="edge">
<title>pymedphys._mosaiq.helpers&#45;&gt;pymedphys._mosaiq.connect</title>
<path fill="none" stroke="black" d="M466.09,-71.7C466.09,-63.98 466.09,-54.71 466.09,-46.11"/>
<polygon fill="black" stroke="black" points="469.59,-46.1 466.09,-36.1 462.59,-46.1 469.59,-46.1"/>
</g>
<!-- pymedphys._utilities.patient -->
<g id="node4" class="node">
<title>pymedphys._utilities.patient</title>
<ellipse fill="none" stroke="black" cx="771.09" cy="-18" rx="142.97" ry="18"/>
<text text-anchor="middle" x="771.09" y="-14.3" font-family="Times,serif" font-size="14.00">pymedphys._utilities.patient</text>
</g>
<!-- pymedphys._mosaiq.helpers&#45;&gt;pymedphys._utilities.patient -->
<g id="edge3" class="edge">
<title>pymedphys._mosaiq.helpers&#45;&gt;pymedphys._utilities.patient</title>
<path fill="none" stroke="black" d="M528.91,-74.58C577.22,-63.49 644.15,-48.13 695.41,-36.37"/>
<polygon fill="black" stroke="black" points="696.48,-39.71 705.44,-34.07 694.91,-32.89 696.48,-39.71"/>
</g>
</g>
</svg>
