<?xml version="1.0" encoding="UTF-8" standalone="no"?>
<!DOCTYPE svg PUBLIC "-//W3C//DTD SVG 1.1//EN"
 "http://www.w3.org/Graphics/SVG/1.1/DTD/svg11.dtd">
<!-- Generated by graphviz version 2.43.0 (0)
 -->
<!-- Title: sample Pages: 1 -->
<svg width="1092pt" height="188pt"
 viewBox="0.00 0.00 1092.47 188.00" xmlns="http://www.w3.org/2000/svg" xmlns:xlink="http://www.w3.org/1999/xlink">
<g id="graph0" class="graph" transform="scale(1 1) rotate(0) translate(4 184)">
<title>sample</title>
<polygon fill="white" stroke="transparent" points="-4,4 -4,-184 1088.47,-184 1088.47,4 -4,4"/>
<!-- pymedphys._metersetmap.metersetmap -->
<g id="node1" class="node">
<title>pymedphys._metersetmap.metersetmap</title>
<g id="a_node1"><a xlink:href="https://github.com/pymedphys/pymedphys/tree/main/lib/pymedphys" xlink:title="pymedphys.metersetmap.display">
<ellipse fill="none" stroke="black" cx="514.93" cy="-162" rx="165.17" ry="18"/>
<text text-anchor="middle" x="514.93" y="-158.3" font-family="Times,serif" font-size="14.00">pymedphys.metersetmap.display</text>
</a>
</g>
</g>
<!-- pymedphys._utilities.controlpoints -->
<g id="node2" class="node">
<title>pymedphys._utilities.controlpoints</title>
<ellipse fill="none" stroke="black" cx="170.93" cy="-90" rx="170.87" ry="18"/>
<text text-anchor="middle" x="170.93" y="-86.3" font-family="Times,serif" font-size="14.00">pymedphys._utilities.controlpoints</text>
</g>
<!-- pymedphys._metersetmap.metersetmap&#45;&gt;pymedphys._utilities.controlpoints -->
<g id="edge1" class="edge">
<title>pymedphys._metersetmap.metersetmap&#45;&gt;pymedphys._utilities.controlpoints</title>
<path fill="none" stroke="black" d="M440.72,-145.9C386.31,-134.83 312.36,-119.78 255.64,-108.24"/>
<polygon fill="black" stroke="black" points="256.11,-104.76 245.61,-106.2 254.72,-111.62 256.11,-104.76"/>
</g>
<!-- pymedphys._utilities.constants -->
<g id="node3" class="node">
<title>pymedphys._utilities.constants</title>
<ellipse fill="none" stroke="black" cx="514.93" cy="-90" rx="154.87" ry="18"/>
<text text-anchor="middle" x="514.93" y="-86.3" font-family="Times,serif" font-size="14.00">pymedphys._utilities.constants</text>
</g>
<!-- pymedphys._metersetmap.metersetmap&#45;&gt;pymedphys._utilities.constants -->
<g id="edge2" class="edge">
<title>pymedphys._metersetmap.metersetmap&#45;&gt;pymedphys._utilities.constants</title>
<path fill="none" stroke="black" d="M514.93,-143.7C514.93,-135.98 514.93,-126.71 514.93,-118.11"/>
<polygon fill="black" stroke="black" points="518.43,-118.1 514.93,-108.1 511.43,-118.1 518.43,-118.1"/>
</g>
<!-- pymedphys._metersetmap.plt -->
<g id="node4" class="node">
<title>pymedphys._metersetmap.plt</title>
<ellipse fill="none" stroke="black" cx="877.93" cy="-90" rx="148.67" ry="18"/>
<text text-anchor="middle" x="877.93" y="-86.3" font-family="Times,serif" font-size="14.00">pymedphys._metersetmap.plt</text>
</g>
<!-- pymedphys._metersetmap.metersetmap&#45;&gt;pymedphys._metersetmap.plt -->
<g id="edge3" class="edge">
<title>pymedphys._metersetmap.metersetmap&#45;&gt;pymedphys._metersetmap.plt</title>
<path fill="none" stroke="black" d="M592.36,-146.07C651.14,-134.73 731.91,-119.16 792.56,-107.46"/>
<polygon fill="black" stroke="black" points="793.34,-110.88 802.49,-105.55 792.01,-104.01 793.34,-110.88"/>
</g>
<!-- pymedphys._utilities.constants.mlctypes -->
<g id="node5" class="node">
<title>pymedphys._utilities.constants.mlctypes</title>
<ellipse fill="none" stroke="black" cx="493.93" cy="-18" rx="199.56" ry="18"/>
<text text-anchor="middle" x="493.93" y="-14.3" font-family="Times,serif" font-size="14.00">pymedphys._utilities.constants.mlctypes</text>
</g>
<!-- pymedphys._utilities.constants&#45;&gt;pymedphys._utilities.constants.mlctypes -->
<g id="edge4" class="edge">
<title>pymedphys._utilities.constants&#45;&gt;pymedphys._utilities.constants.mlctypes</title>
<path fill="none" stroke="black" d="M509.74,-71.7C507.4,-63.9 504.59,-54.51 501.98,-45.83"/>
<polygon fill="black" stroke="black" points="505.29,-44.68 499.07,-36.1 498.59,-46.69 505.29,-44.68"/>
</g>
<!-- pymedphys._metersetmap.plt.helpers -->
<g id="node6" class="node">
<title>pymedphys._metersetmap.plt.helpers</title>
<ellipse fill="none" stroke="black" cx="897.93" cy="-18" rx="186.57" ry="18"/>
<text text-anchor="middle" x="897.93" y="-14.3" font-family="Times,serif" font-size="14.00">pymedphys._metersetmap.plt.helpers</text>
</g>
<!-- pymedphys._metersetmap.plt&#45;&gt;pymedphys._metersetmap.plt.helpers -->
<g id="edge5" class="edge">
<title>pymedphys._metersetmap.plt&#45;&gt;pymedphys._metersetmap.plt.helpers</title>
<path fill="none" stroke="black" d="M882.88,-71.7C885.11,-63.9 887.79,-54.51 890.27,-45.83"/>
<polygon fill="black" stroke="black" points="893.67,-46.68 893.05,-36.1 886.94,-44.76 893.67,-46.68"/>
</g>
</g>
</svg>
