<?xml version="1.0" encoding="UTF-8" standalone="no"?>
<!DOCTYPE svg PUBLIC "-//W3C//DTD SVG 1.1//EN"
 "http://www.w3.org/Graphics/SVG/1.1/DTD/svg11.dtd">
<!-- Generated by graphviz version 2.43.0 (0)
 -->
<!-- Title: sample Pages: 1 -->
<svg width="2122pt" height="332pt"
 viewBox="0.00 0.00 2121.92 332.00" xmlns="http://www.w3.org/2000/svg" xmlns:xlink="http://www.w3.org/1999/xlink">
<g id="graph0" class="graph" transform="scale(1 1) rotate(0) translate(4 328)">
<title>sample</title>
<polygon fill="white" stroke="transparent" points="-4,4 -4,-328 2117.92,-328 2117.92,4 -4,4"/>
<!-- pymedphys._dicom.dose -->
<g id="node1" class="node">
<title>pymedphys._dicom.dose</title>
<g id="a_node1"><a xlink:href="https://github.com/pymedphys/pymedphys/tree/main/lib/pymedphys" xlink:title="pymedphys.dicom.zyx_and_dose_from_dataset">
<ellipse fill="none" stroke="black" cx="674.64" cy="-306" rx="225.56" ry="18"/>
<text text-anchor="middle" x="674.64" y="-302.3" font-family="Times,serif" font-size="14.00">pymedphys.dicom.zyx_and_dose_from_dataset</text>
</a>
</g>
</g>
<!-- pymedphys._dicom.coords -->
<g id="node2" class="node">
<title>pymedphys._dicom.coords</title>
<ellipse fill="none" stroke="black" cx="246.64" cy="-234" rx="132.68" ry="18"/>
<text text-anchor="middle" x="246.64" y="-230.3" font-family="Times,serif" font-size="14.00">pymedphys._dicom.coords</text>
</g>
<!-- pymedphys._dicom.dose&#45;&gt;pymedphys._dicom.coords -->
<g id="edge1" class="edge">
<title>pymedphys._dicom.dose&#45;&gt;pymedphys._dicom.coords</title>
<path fill="none" stroke="black" d="M580.44,-289.59C508.28,-277.79 409.29,-261.6 337.87,-249.92"/>
<polygon fill="black" stroke="black" points="338.42,-246.46 327.98,-248.3 337.29,-253.37 338.42,-246.46"/>
</g>
<!-- pymedphys._dicom.rtplan -->
<g id="node3" class="node">
<title>pymedphys._dicom.rtplan</title>
<ellipse fill="none" stroke="black" cx="527.64" cy="-234" rx="129.98" ry="18"/>
<text text-anchor="middle" x="527.64" y="-230.3" font-family="Times,serif" font-size="14.00">pymedphys._dicom.rtplan</text>
</g>
<!-- pymedphys._dicom.dose&#45;&gt;pymedphys._dicom.rtplan -->
<g id="edge2" class="edge">
<title>pymedphys._dicom.dose&#45;&gt;pymedphys._dicom.rtplan</title>
<path fill="none" stroke="black" d="M639.05,-288.05C618.7,-278.36 593,-266.13 571.41,-255.85"/>
<polygon fill="black" stroke="black" points="572.67,-252.57 562.13,-251.43 569.66,-258.89 572.67,-252.57"/>
</g>
<!-- pymedphys._dicom.structure -->
<g id="node4" class="node">
<title>pymedphys._dicom.structure</title>
<ellipse fill="none" stroke="black" cx="821.64" cy="-234" rx="145.67" ry="18"/>
<text text-anchor="middle" x="821.64" y="-230.3" font-family="Times,serif" font-size="14.00">pymedphys._dicom.structure</text>
</g>
<!-- pymedphys._dicom.dose&#45;&gt;pymedphys._dicom.structure -->
<g id="edge3" class="edge">
<title>pymedphys._dicom.dose&#45;&gt;pymedphys._dicom.structure</title>
<path fill="none" stroke="black" d="M710.22,-288.05C730.5,-278.4 756.09,-266.21 777.62,-255.96"/>
<polygon fill="black" stroke="black" points="779.36,-259.01 786.89,-251.55 776.35,-252.69 779.36,-259.01"/>
</g>
<!-- pymedphys._dicom.constants -->
<g id="node5" class="node">
<title>pymedphys._dicom.constants</title>
<ellipse fill="none" stroke="black" cx="1360.64" cy="-234" rx="146.77" ry="18"/>
<text text-anchor="middle" x="1360.64" y="-230.3" font-family="Times,serif" font-size="14.00">pymedphys._dicom.constants</text>
</g>
<!-- pymedphys._dicom.dose&#45;&gt;pymedphys._dicom.constants -->
<g id="edge4" class="edge">
<title>pymedphys._dicom.dose&#45;&gt;pymedphys._dicom.constants</title>
<path fill="none" stroke="black" d="M807.72,-291.42C933.54,-278.58 1120.59,-259.49 1241.59,-247.15"/>
<polygon fill="black" stroke="black" points="1242.04,-250.62 1251.64,-246.12 1241.33,-243.66 1242.04,-250.62"/>
</g>
<!-- pymedphys._dicom.rtplan.build -->
<g id="node6" class="node">
<title>pymedphys._dicom.rtplan.build</title>
<ellipse fill="none" stroke="black" cx="156.64" cy="-162" rx="156.77" ry="18"/>
<text text-anchor="middle" x="156.64" y="-158.3" font-family="Times,serif" font-size="14.00">pymedphys._dicom.rtplan.build</text>
</g>
<!-- pymedphys._dicom.rtplan&#45;&gt;pymedphys._dicom.rtplan.build -->
<g id="edge5" class="edge">
<title>pymedphys._dicom.rtplan&#45;&gt;pymedphys._dicom.rtplan.build</title>
<path fill="none" stroke="black" d="M453.89,-219.09C393.62,-207.71 308.24,-191.61 244.44,-179.57"/>
<polygon fill="black" stroke="black" points="244.87,-176.09 234.39,-177.67 243.57,-182.96 244.87,-176.09"/>
</g>
<!-- pymedphys._dicom.rtplan.adjust -->
<g id="node7" class="node">
<title>pymedphys._dicom.rtplan.adjust</title>
<ellipse fill="none" stroke="black" cx="492.64" cy="-162" rx="161.67" ry="18"/>
<text text-anchor="middle" x="492.64" y="-158.3" font-family="Times,serif" font-size="14.00">pymedphys._dicom.rtplan.adjust</text>
</g>
<!-- pymedphys._dicom.rtplan&#45;&gt;pymedphys._dicom.rtplan.adjust -->
<g id="edge6" class="edge">
<title>pymedphys._dicom.rtplan&#45;&gt;pymedphys._dicom.rtplan.adjust</title>
<path fill="none" stroke="black" d="M518.98,-215.7C515,-207.73 510.19,-198.1 505.77,-189.26"/>
<polygon fill="black" stroke="black" points="508.79,-187.48 501.19,-180.1 502.53,-190.61 508.79,-187.48"/>
</g>
<!-- pymedphys._dicom.rtplan.core -->
<g id="node8" class="node">
<title>pymedphys._dicom.rtplan.core</title>
<ellipse fill="none" stroke="black" cx="825.64" cy="-162" rx="153.27" ry="18"/>
<text text-anchor="middle" x="825.64" y="-158.3" font-family="Times,serif" font-size="14.00">pymedphys._dicom.rtplan.core</text>
</g>
<!-- pymedphys._dicom.rtplan&#45;&gt;pymedphys._dicom.rtplan.core -->
<g id="edge7" class="edge">
<title>pymedphys._dicom.rtplan&#45;&gt;pymedphys._dicom.rtplan.core</title>
<path fill="none" stroke="black" d="M590.47,-218.24C637.12,-207.28 700.94,-192.29 750.32,-180.69"/>
<polygon fill="black" stroke="black" points="751.38,-184.04 760.31,-178.34 749.78,-177.22 751.38,-184.04"/>
</g>
<!-- pymedphys._dicom.constants.core -->
<g id="node9" class="node">
<title>pymedphys._dicom.constants.core</title>
<ellipse fill="none" stroke="black" cx="1166.64" cy="-162" rx="169.77" ry="18"/>
<text text-anchor="middle" x="1166.64" y="-158.3" font-family="Times,serif" font-size="14.00">pymedphys._dicom.constants.core</text>
</g>
<!-- pymedphys._dicom.constants&#45;&gt;pymedphys._dicom.constants.core -->
<g id="edge8" class="edge">
<title>pymedphys._dicom.constants&#45;&gt;pymedphys._dicom.constants.core</title>
<path fill="none" stroke="black" d="M1315.64,-216.76C1287.56,-206.63 1251.23,-193.52 1221.47,-182.79"/>
<polygon fill="black" stroke="black" points="1222.65,-179.49 1212.06,-179.39 1220.28,-186.08 1222.65,-179.49"/>
</g>
<!-- pymedphys._dicom.constants.orientation -->
<g id="node10" class="node">
<title>pymedphys._dicom.constants.orientation</title>
<ellipse fill="none" stroke="black" cx="1554.64" cy="-162" rx="200.66" ry="18"/>
<text text-anchor="middle" x="1554.64" y="-158.3" font-family="Times,serif" font-size="14.00">pymedphys._dicom.constants.orientation</text>
</g>
<!-- pymedphys._dicom.constants&#45;&gt;pymedphys._dicom.constants.orientation -->
<g id="edge9" class="edge">
<title>pymedphys._dicom.constants&#45;&gt;pymedphys._dicom.constants.orientation</title>
<path fill="none" stroke="black" d="M1405.63,-216.76C1433.39,-206.75 1469.21,-193.82 1498.77,-183.16"/>
<polygon fill="black" stroke="black" points="1500.32,-186.32 1508.54,-179.63 1497.94,-179.74 1500.32,-186.32"/>
</g>
<!-- pymedphys._dicom.constants.uuid -->
<g id="node11" class="node">
<title>pymedphys._dicom.constants.uuid</title>
<ellipse fill="none" stroke="black" cx="1943.64" cy="-162" rx="170.07" ry="18"/>
<text text-anchor="middle" x="1943.64" y="-158.3" font-family="Times,serif" font-size="14.00">pymedphys._dicom.constants.uuid</text>
</g>
<!-- pymedphys._dicom.constants&#45;&gt;pymedphys._dicom.constants.uuid -->
<g id="edge10" class="edge">
<title>pymedphys._dicom.constants&#45;&gt;pymedphys._dicom.constants.uuid</title>
<path fill="none" stroke="black" d="M1461.52,-220.89C1562.79,-208.73 1718.71,-190.01 1825.65,-177.17"/>
<polygon fill="black" stroke="black" points="1826.33,-180.61 1835.84,-175.94 1825.49,-173.66 1826.33,-180.61"/>
</g>
<!-- pymedphys._utilities.transforms -->
<g id="node12" class="node">
<title>pymedphys._utilities.transforms</title>
<ellipse fill="none" stroke="black" cx="825.64" cy="-90" rx="161.37" ry="18"/>
<text text-anchor="middle" x="825.64" y="-86.3" font-family="Times,serif" font-size="14.00">pymedphys._utilities.transforms</text>
</g>
<!-- pymedphys._dicom.rtplan.core&#45;&gt;pymedphys._utilities.transforms -->
<g id="edge11" class="edge">
<title>pymedphys._dicom.rtplan.core&#45;&gt;pymedphys._utilities.transforms</title>
<path fill="none" stroke="black" d="M825.64,-143.7C825.64,-135.98 825.64,-126.71 825.64,-118.11"/>
<polygon fill="black" stroke="black" points="829.14,-118.1 825.64,-108.1 822.14,-118.1 829.14,-118.1"/>
</g>
<!-- pymedphys._utilities.transforms.bipolar -->
<g id="node13" class="node">
<title>pymedphys._utilities.transforms.bipolar</title>
<ellipse fill="none" stroke="black" cx="825.64" cy="-18" rx="196.07" ry="18"/>
<text text-anchor="middle" x="825.64" y="-14.3" font-family="Times,serif" font-size="14.00">pymedphys._utilities.transforms.bipolar</text>
</g>
<!-- pymedphys._utilities.transforms&#45;&gt;pymedphys._utilities.transforms.bipolar -->
<g id="edge12" class="edge">
<title>pymedphys._utilities.transforms&#45;&gt;pymedphys._utilities.transforms.bipolar</title>
<path fill="none" stroke="black" d="M825.64,-71.7C825.64,-63.98 825.64,-54.71 825.64,-46.11"/>
<polygon fill="black" stroke="black" points="829.14,-46.1 825.64,-36.1 822.14,-46.1 829.14,-46.1"/>
</g>
</g>
</svg>
