<?xml version="1.0" encoding="UTF-8" standalone="no"?>
<!DOCTYPE svg PUBLIC "-//W3C//DTD SVG 1.1//EN"
 "http://www.w3.org/Graphics/SVG/1.1/DTD/svg11.dtd">
<!-- Generated by graphviz version 2.43.0 (0)
 -->
<!-- Title: sample Pages: 1 -->
<svg width="962pt" height="260pt"
 viewBox="0.00 0.00 961.57 260.00" xmlns="http://www.w3.org/2000/svg" xmlns:xlink="http://www.w3.org/1999/xlink">
<g id="graph0" class="graph" transform="scale(1 1) rotate(0) translate(4 256)">
<title>sample</title>
<polygon fill="white" stroke="transparent" points="-4,4 -4,-256 957.57,-256 957.57,4 -4,4"/>
<!-- pymedphys._trf.decode -->
<g id="node1" class="node">
<title>pymedphys._trf.decode</title>
<g id="a_node1"><a xlink:href="https://github.com/pymedphys/pymedphys/tree/main/lib/pymedphys" xlink:title="pymedphys.trf.read">
<ellipse fill="none" stroke="black" cx="484.19" cy="-234" rx="102.08" ry="18"/>
<text text-anchor="middle" x="484.19" y="-230.3" font-family="Times,serif" font-size="14.00">pymedphys.trf.read</text>
</a>
</g>
</g>
<!-- pymedphys._trf.decode.trf2pandas -->
<g id="node2" class="node">
<title>pymedphys._trf.decode.trf2pandas</title>
<ellipse fill="none" stroke="black" cx="484.19" cy="-162" rx="171.67" ry="18"/>
<text text-anchor="middle" x="484.19" y="-158.3" font-family="Times,serif" font-size="14.00">pymedphys._trf.decode.trf2pandas</text>
</g>
<!-- pymedphys._trf.decode&#45;&gt;pymedphys._trf.decode.trf2pandas -->
<g id="edge1" class="edge">
<title>pymedphys._trf.decode&#45;&gt;pymedphys._trf.decode.trf2pandas</title>
<path fill="none" stroke="black" d="M484.19,-215.7C484.19,-207.98 484.19,-198.71 484.19,-190.11"/>
<polygon fill="black" stroke="black" points="487.69,-190.1 484.19,-180.1 480.69,-190.1 487.69,-190.1"/>
</g>
<!-- pymedphys._trf.decode.partition -->
<g id="node3" class="node">
<title>pymedphys._trf.decode.partition</title>
<ellipse fill="none" stroke="black" cx="161.19" cy="-90" rx="161.37" ry="18"/>
<text text-anchor="middle" x="161.19" y="-86.3" font-family="Times,serif" font-size="14.00">pymedphys._trf.decode.partition</text>
</g>
<!-- pymedphys._trf.decode.trf2pandas&#45;&gt;pymedphys._trf.decode.partition -->
<g id="edge2" class="edge">
<title>pymedphys._trf.decode.trf2pandas&#45;&gt;pymedphys._trf.decode.partition</title>
<path fill="none" stroke="black" d="M412.9,-145.55C362.2,-134.56 294.03,-119.79 241.42,-108.39"/>
<polygon fill="black" stroke="black" points="241.97,-104.93 231.45,-106.23 240.49,-111.77 241.97,-104.93"/>
</g>
<!-- pymedphys._trf.decode.table -->
<g id="node4" class="node">
<title>pymedphys._trf.decode.table</title>
<ellipse fill="none" stroke="black" cx="484.19" cy="-90" rx="144.07" ry="18"/>
<text text-anchor="middle" x="484.19" y="-86.3" font-family="Times,serif" font-size="14.00">pymedphys._trf.decode.table</text>
</g>
<!-- pymedphys._trf.decode.trf2pandas&#45;&gt;pymedphys._trf.decode.table -->
<g id="edge3" class="edge">
<title>pymedphys._trf.decode.trf2pandas&#45;&gt;pymedphys._trf.decode.table</title>
<path fill="none" stroke="black" d="M484.19,-143.7C484.19,-135.98 484.19,-126.71 484.19,-118.11"/>
<polygon fill="black" stroke="black" points="487.69,-118.1 484.19,-108.1 480.69,-118.1 487.69,-118.1"/>
</g>
<!-- pymedphys._trf.decode.header -->
<g id="node5" class="node">
<title>pymedphys._trf.decode.header</title>
<ellipse fill="none" stroke="black" cx="800.19" cy="-90" rx="153.27" ry="18"/>
<text text-anchor="middle" x="800.19" y="-86.3" font-family="Times,serif" font-size="14.00">pymedphys._trf.decode.header</text>
</g>
<!-- pymedphys._trf.decode.trf2pandas&#45;&gt;pymedphys._trf.decode.header -->
<g id="edge4" class="edge">
<title>pymedphys._trf.decode.trf2pandas&#45;&gt;pymedphys._trf.decode.header</title>
<path fill="none" stroke="black" d="M553.92,-145.55C603.51,-134.57 670.17,-119.8 721.63,-108.4"/>
<polygon fill="black" stroke="black" points="722.71,-111.75 731.71,-106.17 721.19,-104.91 722.71,-111.75"/>
</g>
<!-- pymedphys._trf.decode.constants -->
<g id="node6" class="node">
<title>pymedphys._trf.decode.constants</title>
<ellipse fill="none" stroke="black" cx="484.19" cy="-18" rx="165.97" ry="18"/>
<text text-anchor="middle" x="484.19" y="-14.3" font-family="Times,serif" font-size="14.00">pymedphys._trf.decode.constants</text>
</g>
<!-- pymedphys._trf.decode.table&#45;&gt;pymedphys._trf.decode.constants -->
<g id="edge5" class="edge">
<title>pymedphys._trf.decode.table&#45;&gt;pymedphys._trf.decode.constants</title>
<path fill="none" stroke="black" d="M484.19,-71.7C484.19,-63.98 484.19,-54.71 484.19,-46.11"/>
<polygon fill="black" stroke="black" points="487.69,-46.1 484.19,-36.1 480.69,-46.1 487.69,-46.1"/>
</g>
</g>
</svg>
