<?xml version="1.0" encoding="UTF-8" standalone="no"?>
<!DOCTYPE svg PUBLIC "-//W3C//DTD SVG 1.1//EN"
 "http://www.w3.org/Graphics/SVG/1.1/DTD/svg11.dtd">
<!-- Generated by graphviz version 2.43.0 (0)
 -->
<!-- Title: sample Pages: 1 -->
<svg width="760pt" height="116pt"
 viewBox="0.00 0.00 760.22 116.00" xmlns="http://www.w3.org/2000/svg" xmlns:xlink="http://www.w3.org/1999/xlink">
<g id="graph0" class="graph" transform="scale(1 1) rotate(0) translate(4 112)">
<title>sample</title>
<polygon fill="white" stroke="transparent" points="-4,4 -4,-112 756.22,-112 756.22,4 -4,4"/>
<!-- pymedphys._electronfactors -->
<g id="node1" class="node">
<title>pymedphys._electronfactors</title>
<g id="a_node1"><a xlink:href="https://github.com/pymedphys/pymedphys/tree/main/lib/pymedphys" xlink:title="pymedphys.electronfactors.calculate_deformability">
<ellipse fill="none" stroke="black" cx="356.44" cy="-90" rx="248.06" ry="18"/>
<text text-anchor="middle" x="356.44" y="-86.3" font-family="Times,serif" font-size="14.00">pymedphys.electronfactors.calculate_deformability</text>
</a>
</g>
</g>
<!-- pymedphys._electronfactors.core -->
<g id="node2" class="node">
<title>pymedphys._electronfactors.core</title>
<ellipse fill="none" stroke="black" cx="164.44" cy="-18" rx="164.37" ry="18"/>
<text text-anchor="middle" x="164.44" y="-14.3" font-family="Times,serif" font-size="14.00">pymedphys._electronfactors.core</text>
</g>
<!-- pymedphys._electronfactors&#45;&gt;pymedphys._electronfactors.core -->
<g id="edge1" class="edge">
<title>pymedphys._electronfactors&#45;&gt;pymedphys._electronfactors.core</title>
<path fill="none" stroke="black" d="M310.45,-72.23C282.94,-62.2 247.83,-49.4 218.93,-38.87"/>
<polygon fill="black" stroke="black" points="219.98,-35.53 209.39,-35.39 217.58,-42.1 219.98,-35.53"/>
</g>
<!-- pymedphys._electronfactors.visualisation -->
<g id="node3" class="node">
<title>pymedphys._electronfactors.visualisation</title>
<ellipse fill="none" stroke="black" cx="549.44" cy="-18" rx="202.56" ry="18"/>
<text text-anchor="middle" x="549.44" y="-14.3" font-family="Times,serif" font-size="14.00">pymedphys._electronfactors.visualisation</text>
</g>
<!-- pymedphys._electronfactors&#45;&gt;pymedphys._electronfactors.visualisation -->
<g id="edge2" class="edge">
<title>pymedphys._electronfactors&#45;&gt;pymedphys._electronfactors.visualisation</title>
<path fill="none" stroke="black" d="M402.66,-72.23C430.12,-62.28 465.1,-49.59 494.03,-39.1"/>
<polygon fill="black" stroke="black" points="495.38,-42.33 503.58,-35.63 492.99,-35.75 495.38,-42.33"/>
</g>
</g>
</svg>
