<?xml version="1.0" encoding="UTF-8" standalone="no"?>
<!DOCTYPE svg PUBLIC "-//W3C//DTD SVG 1.1//EN"
 "http://www.w3.org/Graphics/SVG/1.1/DTD/svg11.dtd">
<!-- Generated by graphviz version 2.43.0 (0)
 -->
<!-- Title: sample Pages: 1 -->
<svg width="668pt" height="188pt"
 viewBox="0.00 0.00 667.77 188.00" xmlns="http://www.w3.org/2000/svg" xmlns:xlink="http://www.w3.org/1999/xlink">
<g id="graph0" class="graph" transform="scale(1 1) rotate(0) translate(4 184)">
<title>sample</title>
<polygon fill="white" stroke="transparent" points="-4,4 -4,-184 663.77,-184 663.77,4 -4,4"/>
<!-- pymedphys._gamma.implementation.shell -->
<g id="node1" class="node">
<title>pymedphys._gamma.implementation.shell</title>
<g id="a_node1"><a xlink:href="https://github.com/pymedphys/pymedphys/tree/main/lib/pymedphys" xlink:title="pymedphys.gamma">
<ellipse fill="none" stroke="black" cx="330.04" cy="-162" rx="100.98" ry="18"/>
<text text-anchor="middle" x="330.04" y="-158.3" font-family="Times,serif" font-size="14.00">pymedphys.gamma</text>
</a>
</g>
</g>
<!-- pymedphys._gamma.utilities -->
<g id="node2" class="node">
<title>pymedphys._gamma.utilities</title>
<ellipse fill="none" stroke="black" cx="167.04" cy="-90" rx="143.77" ry="18"/>
<text text-anchor="middle" x="167.04" y="-86.3" font-family="Times,serif" font-size="14.00">pymedphys._gamma.utilities</text>
</g>
<!-- pymedphys._gamma.implementation.shell&#45;&gt;pymedphys._gamma.utilities -->
<g id="edge1" class="edge">
<title>pymedphys._gamma.implementation.shell&#45;&gt;pymedphys._gamma.utilities</title>
<path fill="none" stroke="black" d="M293.05,-145.12C269.81,-135.14 239.61,-122.17 214.6,-111.43"/>
<polygon fill="black" stroke="black" points="215.86,-108.16 205.29,-107.43 213.1,-114.59 215.86,-108.16"/>
</g>
<!-- pymedphys._utilities.createshells -->
<g id="node3" class="node">
<title>pymedphys._utilities.createshells</title>
<ellipse fill="none" stroke="black" cx="494.04" cy="-90" rx="165.97" ry="18"/>
<text text-anchor="middle" x="494.04" y="-86.3" font-family="Times,serif" font-size="14.00">pymedphys._utilities.createshells</text>
</g>
<!-- pymedphys._gamma.implementation.shell&#45;&gt;pymedphys._utilities.createshells -->
<g id="edge2" class="edge">
<title>pymedphys._gamma.implementation.shell&#45;&gt;pymedphys._utilities.createshells</title>
<path fill="none" stroke="black" d="M367.25,-145.12C390.55,-135.17 420.8,-122.26 445.91,-111.54"/>
<polygon fill="black" stroke="black" points="447.43,-114.7 455.26,-107.55 444.69,-108.26 447.43,-114.7"/>
</g>
<!-- pymedphys._gamma.utilities.core -->
<g id="node4" class="node">
<title>pymedphys._gamma.utilities.core</title>
<ellipse fill="none" stroke="black" cx="167.04" cy="-18" rx="167.07" ry="18"/>
<text text-anchor="middle" x="167.04" y="-14.3" font-family="Times,serif" font-size="14.00">pymedphys._gamma.utilities.core</text>
</g>
<!-- pymedphys._gamma.utilities&#45;&gt;pymedphys._gamma.utilities.core -->
<g id="edge3" class="edge">
<title>pymedphys._gamma.utilities&#45;&gt;pymedphys._gamma.utilities.core</title>
<path fill="none" stroke="black" d="M167.04,-71.7C167.04,-63.98 167.04,-54.71 167.04,-46.11"/>
<polygon fill="black" stroke="black" points="170.54,-46.1 167.04,-36.1 163.54,-46.1 170.54,-46.1"/>
</g>
</g>
</svg>
