<?xml version="1.0" encoding="UTF-8" standalone="no"?>
<!DOCTYPE svg PUBLIC "-//W3C//DTD SVG 1.1//EN"
 "http://www.w3.org/Graphics/SVG/1.1/DTD/svg11.dtd">
<!-- Generated by graphviz version 2.43.0 (0)
 -->
<!-- Title: sample Pages: 1 -->
<svg width="760pt" height="116pt"
 viewBox="0.00 0.00 760.22 116.00" xmlns="http://www.w3.org/2000/svg" xmlns:xlink="http://www.w3.org/1999/xlink">
<g id="graph0" class="graph" transform="scale(1 1) rotate(0) translate(4 112)">
<title>sample</title>
<polygon fill="white" stroke="transparent" points="-4,4 -4,-112 756.22,-112 756.22,4 -4,4"/>
<!-- pymedphys._electronfactors -->
<g id="node1" class="node">
<title>pymedphys._electronfactors</title>
<g id="a_node1"><a xlink:href="https://github.com/pymedphys/pymedphys/tree/main/lib/pymedphys" xlink:title="pymedphys.electronfactors.visual_alignment_of_equivalent_ellipse">
<ellipse fill="none" stroke="black" cx="356.44" cy="-90" rx="319.24" ry="18"/>
<text text-anchor="middle" x="356.44" y="-86.3" font-family="Times,serif" font-size="14.00">pymedphys.electronfactors.visual_alignment_of_equivalent_ellipse</text>
</a>
</g>
</g>
<!-- pymedphys._electronfactors.core -->
<g id="node2" class="node">
<title>pymedphys._electronfactors.core</title>
<ellipse fill="none" stroke="black" cx="164.44" cy="-18" rx="164.37" ry="18"/>
<text text-anchor="middle" x="164.44" y="-14.3" font-family="Times,serif" font-size="14.00">pymedphys._electronfactors.core</text>
</g>
<!-- pymedphys._electronfactors&#45;&gt;pymedphys._electronfactors.core -->
<g id="edge1" class="edge">
<title>pymedphys._electronfactors&#45;&gt;pymedphys._electronfactors.core</title>
<path fill="none" stroke="black" d="M309.96,-72.05C282.54,-62.06 247.69,-49.35 218.98,-38.88"/>
<polygon fill="black" stroke="black" points="220.09,-35.56 209.49,-35.43 217.69,-42.14 220.09,-35.56"/>
</g>
<!-- pymedphys._electronfactors.visualisation -->
<g id="node3" class="node">
<title>pymedphys._electronfactors.visualisation</title>
<ellipse fill="none" stroke="black" cx="549.44" cy="-18" rx="202.56" ry="18"/>
<text text-anchor="middle" x="549.44" y="-14.3" font-family="Times,serif" font-size="14.00">pymedphys._electronfactors.visualisation</text>
</g>
<!-- pymedphys._electronfactors&#45;&gt;pymedphys._electronfactors.visualisation -->
<g id="edge2" class="edge">
<title>pymedphys._electronfactors&#45;&gt;pymedphys._electronfactors.visualisation</title>
<path fill="none" stroke="black" d="M403.16,-72.05C430.62,-62.09 465.49,-49.45 494.29,-39"/>
<polygon fill="black" stroke="black" points="495.6,-42.25 503.81,-35.55 493.22,-35.67 495.6,-42.25"/>
</g>
</g>
</svg>
