<?xml version="1.0" encoding="UTF-8" standalone="no"?>
<!DOCTYPE svg PUBLIC "-//W3C//DTD SVG 1.1//EN"
 "http://www.w3.org/Graphics/SVG/1.1/DTD/svg11.dtd">
<!-- Generated by graphviz version 2.43.0 (0)
 -->
<!-- Title: sample Pages: 1 -->
<svg width="760pt" height="116pt"
 viewBox="0.00 0.00 760.22 116.00" xmlns="http://www.w3.org/2000/svg" xmlns:xlink="http://www.w3.org/1999/xlink">
<g id="graph0" class="graph" transform="scale(1 1) rotate(0) translate(4 112)">
<title>sample</title>
<polygon fill="white" stroke="transparent" points="-4,4 -4,-112 756.22,-112 756.22,4 -4,4"/>
<!-- pymedphys._electronfactors -->
<g id="node1" class="node">
<title>pymedphys._electronfactors</title>
<g id="a_node1"><a xlink:href="https://github.com/pymedphys/pymedphys/tree/main/lib/pymedphys" xlink:title="pymedphys.electronfactors.spline_model">
<ellipse fill="none" stroke="black" cx="356.44" cy="-90" rx="200.36" ry="18"/>
<text text-anchor="middle" x="356.44" y="-86.3" font-family="Times,serif" font-size="14.00">pymedphys.electronfactors.spline_model</text>
</a>
</g>
</g>
<!-- pymedphys._electronfactors.core -->
<g id="node2" class="node">
<title>pymedphys._electronfactors.core</title>
<ellipse fill="none" stroke="black" cx="164.44" cy="-18" rx="164.37" ry="18"/>
<text text-anchor="middle" x="164.44" y="-14.3" font-family="Times,serif" font-size="14.00">pymedphys._electronfactors.core</text>
</g>
<!-- pymedphys._electronfactors&#45;&gt;pymedphys._electronfactors.core -->
<g id="edge1" class="edge">
<title>pymedphys._electronfactors&#45;&gt;pymedphys._electronfactors.core</title>
<path fill="none" stroke="black" d="M310.93,-72.41C283.34,-62.35 247.96,-49.45 218.88,-38.85"/>
<polygon fill="black" stroke="black" points="219.87,-35.49 209.28,-35.35 217.47,-42.06 219.87,-35.49"/>
</g>
<!-- pymedphys._electronfactors.visualisation -->
<g id="node3" class="node">
<title>pymedphys._electronfactors.visualisation</title>
<ellipse fill="none" stroke="black" cx="549.44" cy="-18" rx="202.56" ry="18"/>
<text text-anchor="middle" x="549.44" y="-14.3" font-family="Times,serif" font-size="14.00">pymedphys._electronfactors.visualisation</text>
</g>
<!-- pymedphys._electronfactors&#45;&gt;pymedphys._electronfactors.visualisation -->
<g id="edge2" class="edge">
<title>pymedphys._electronfactors&#45;&gt;pymedphys._electronfactors.visualisation</title>
<path fill="none" stroke="black" d="M402.17,-72.41C429.71,-62.42 464.97,-49.64 494.08,-39.08"/>
<polygon fill="black" stroke="black" points="495.48,-42.29 503.69,-35.59 493.1,-35.71 495.48,-42.29"/>
</g>
</g>
</svg>
