<?xml version="1.0" encoding="utf-8" standalone="no"?>
<!DOCTYPE svg PUBLIC "-//W3C//DTD SVG 1.1//EN"
  "http://www.w3.org/Graphics/SVG/1.1/DTD/svg11.dtd">
<!-- Created with matplotlib (https://matplotlib.org/) -->
<svg height="720pt" version="1.1" viewBox="0 0 720 720" width="720pt" xmlns="http://www.w3.org/2000/svg" xmlns:xlink="http://www.w3.org/1999/xlink">
 <defs>
  <style type="text/css">
*{stroke-linecap:butt;stroke-linejoin:round;}
  </style>
 </defs>
 <g id="figure_1">
  <g id="patch_1">
   <path d="M 0 720 
L 720 720 
L 720 0 
L 0 0 
z
" style="fill:none;"/>
  </g>
  <g id="axes_1">
   <g id="patch_2">
    <path clip-path="url(#p893a2756cb)" d="M 637.2 360 
L 635.865206 387.170351 
L 631.87368 414.079037 
L 625.263861 440.466913 
L 616.099406 466.079847 
L 604.468574 490.671175 
L 590.483377 514.004069 
L 574.278498 535.853818 
L 556.01 556.01 
L 535.853818 574.278498 
L 514.004069 590.483377 
L 490.671175 604.468574 
L 466.079847 616.099406 
L 440.466913 625.263861 
L 414.079037 631.87368 
L 387.170351 635.865206 
L 360 637.2 
L 332.829649 635.865206 
L 305.920963 631.87368 
L 279.533087 625.263861 
L 253.920153 616.099406 
L 229.328825 604.468574 
L 205.995931 590.483377 
L 184.146182 574.278498 
L 163.99 556.01 
L 145.721502 535.853818 
L 129.516623 514.004069 
L 115.531426 490.671175 
L 103.900594 466.079847 
L 94.736139 440.466913 
L 88.12632 414.079037 
L 84.134794 387.170351 
L 82.8 360 
L 84.134794 332.829649 
L 88.12632 305.920963 
L 94.736139 279.533087 
L 103.900594 253.920153 
L 115.531426 229.328825 
L 129.516623 205.995931 
L 145.721502 184.146182 
L 163.99 163.99 
L 184.146182 145.721502 
L 205.995931 129.516623 
L 229.328825 115.531426 
L 253.920153 103.900594 
L 279.533087 94.736139 
L 305.920963 88.12632 
L 332.829649 84.134794 
L 360 82.8 
L 387.170351 84.134794 
L 414.079037 88.12632 
L 440.466913 94.736139 
L 466.079847 103.900594 
L 490.671175 115.531426 
L 514.004069 129.516623 
L 535.853818 145.721502 
L 556.01 163.99 
L 574.278498 184.146182 
L 590.483377 205.995931 
L 604.468574 229.328825 
L 616.099406 253.920153 
L 625.263861 279.533087 
L 631.87368 305.920963 
L 635.865206 332.829649 
L 637.2 360 
L 637.2 360 
M 520.701553 360 
L 520.701553 360 
L 519.927731 344.248493 
L 517.613718 328.648682 
L 513.781798 313.350802 
L 508.468875 298.502178 
L 501.726117 284.245812 
L 493.618458 270.719001 
L 484.22398 258.052014 
L 473.633158 246.366842 
L 461.947986 235.77602 
L 449.280999 226.381542 
L 435.754188 218.273883 
L 421.497822 211.531125 
L 406.649198 206.218202 
L 391.351318 202.386282 
L 375.751507 200.072269 
L 360 199.298447 
L 344.248493 200.072269 
L 328.648682 202.386282 
L 313.350802 206.218202 
L 298.502178 211.531125 
L 284.245812 218.273883 
L 270.719001 226.381542 
L 258.052014 235.77602 
L 246.366842 246.366842 
L 235.77602 258.052014 
L 226.381542 270.719001 
L 218.273883 284.245812 
L 211.531125 298.502178 
L 206.218202 313.350802 
L 202.386282 328.648682 
L 200.072269 344.248493 
L 199.298447 360 
L 200.072269 375.751507 
L 202.386282 391.351318 
L 206.218202 406.649198 
L 211.531125 421.497822 
L 218.273883 435.754188 
L 226.381542 449.280999 
L 235.77602 461.947986 
L 246.366842 473.633158 
L 258.052014 484.22398 
L 270.719001 493.618458 
L 284.245812 501.726117 
L 298.502178 508.468875 
L 313.350802 513.781798 
L 328.648682 517.613718 
L 344.248493 519.927731 
L 360 520.701553 
L 375.751507 519.927731 
L 391.351318 517.613718 
L 406.649198 513.781798 
L 421.497822 508.468875 
L 435.754188 501.726117 
L 449.280999 493.618458 
L 461.947986 484.22398 
L 473.633158 473.633158 
L 484.22398 461.947986 
L 493.618458 449.280999 
L 501.726117 435.754188 
L 508.468875 421.497822 
L 513.781798 406.649198 
L 517.613718 391.351318 
L 519.927731 375.751507 
L 520.701553 360 
" style="fill:#2a788e;stroke:#000000;stroke-linejoin:miter;"/>
   </g>
   <g id="patch_3">
    <path clip-path="url(#p893a2756cb)" d="M 72.592151 344.947548 
L 73.13506 344.94922 
L 73.677742 344.950821 
L 74.220188 344.952343 
L 74.762391 344.953778 
L 75.304342 344.955117 
L 75.846035 344.956351 
L 76.387461 344.95747 
L 76.928615 344.958466 
L 77.469488 344.959327 
L 78.010075 344.960045 
L 78.550369 344.960609 
L 79.090365 344.961008 
L 79.630057 344.961233 
L 80.169442 344.961272 
L 80.708514 344.961114 
L 81.24727 344.960749 
L 81.785707 344.960165 
L 82.323823 344.959352 
L 82.861616 344.958297 
L 83.399086 344.956991 
L 83.936231 344.955421 
L 84.473054 344.953577 
L 85.009555 344.951447 
L 85.545737 344.949021 
L 86.081603 344.946287 
L 86.617158 344.943235 
L 87.152408 344.939854 
L 87.687359 344.936133 
L 88.222018 344.932063 
L 88.756395 344.927634 
L 89.290499 344.922837 
L 89.824343 344.917661 
L 90.357938 344.912098 
L 90.891299 344.906141 
L 91.42444 344.89978 
L 91.957379 344.893009 
L 92.490133 344.885822 
L 93.022723 344.878211 
L 93.555168 344.870171 
L 94.087492 344.861698 
L 94.619718 344.852787 
L 95.151872 344.843436 
L 95.683981 344.83364 
L 96.216074 344.8234 
L 96.748179 344.812714 
L 97.28033 344.801583 
L 97.812559 344.790008 
L 98.344902 344.777991 
L 98.877394 344.765536 
L 99.410073 344.752648 
L 99.942978 344.739333 
L 100.476151 344.725597 
L 101.009633 344.71145 
L 101.543469 344.696901 
L 102.077703 344.681963 
L 102.612382 344.666648 
L 103.147553 344.65097 
L 103.683265 344.634946 
L 104.219569 344.618593 
L 104.756515 344.601932 
L 105.294157 344.584984 
L 105.832546 344.567772 
L 106.371738 344.550321 
L 106.911787 344.532659 
L 107.452748 344.514815 
L 107.994679 344.49682 
L 108.537635 344.478708 
L 109.081673 344.460514 
L 109.62634 344.442294 
L 110.172102 344.424074 
L 110.719091 344.405895 
L 111.267362 344.387801 
L 111.816974 344.369839 
L 112.367983 344.352061 
L 112.920445 344.334517 
L 113.474416 344.317263 
L 114.02995 344.300357 
L 114.587101 344.283858 
L 115.145922 344.26783 
L 115.161722 344.267385 
L 115.706462 344.252336 
L 115.724032 344.251861 
L 116.268772 344.237446 
L 116.288158 344.236946 
L 116.832899 344.22323 
L 116.854147 344.22271 
L 117.398888 344.209761 
L 117.422042 344.209228 
L 117.966782 344.197113 
L 117.991882 344.196576 
L 118.536623 344.185366 
L 118.563706 344.184833 
L 119.108447 344.1746 
L 119.137548 344.174081 
L 119.682289 344.164897 
L 119.713441 344.164404 
L 120.258182 344.156342 
L 120.291412 344.155887 
L 120.836153 344.149023 
L 120.871486 344.148619 
L 121.416226 344.143028 
L 121.453682 344.14269 
L 121.998423 344.138449 
L 122.038018 344.138192 
L 122.582759 344.135378 
L 122.624505 344.135219 
L 123.169246 344.133909 
L 123.21315 344.133867 
L 123.75789 344.134138 
L 123.803954 344.134231 
L 124.348694 344.136162 
L 124.396913 344.13641 
L 124.941654 344.140078 
L 124.99202 344.140501 
L 125.53676 344.145984 
L 125.589258 344.146603 
L 126.133998 344.153978 
L 126.188606 344.154816 
L 126.733346 344.164158 
L 126.790036 344.165237 
L 127.334777 344.176623 
L 127.393516 344.177965 
L 127.938257 344.191469 
L 127.999003 344.193097 
L 128.543743 344.208792 
L 128.606449 344.210729 
L 129.15119 344.228687 
L 129.2158 344.230955 
L 129.76054 344.251244 
L 129.826992 344.253866 
L 130.371732 344.276555 
L 130.439955 344.279551 
L 130.984695 344.304705 
L 131.054611 344.308096 
L 131.599352 344.335777 
L 131.670874 344.339582 
L 132.215615 344.369852 
L 132.28865 344.374087 
L 132.833391 344.407002 
L 132.907838 344.411684 
L 133.452579 344.447297 
L 133.528328 344.45244 
L 134.073069 344.4908 
L 134.150001 344.496415 
L 134.694742 344.537569 
L 134.772733 344.543664 
L 135.317473 344.587654 
L 135.396388 344.594235 
L 135.941129 344.641098 
L 136.020827 344.648167 
L 136.565567 344.697935 
L 136.645899 344.70549 
L 137.190639 344.758191 
L 137.271448 344.766228 
L 137.816188 344.821883 
L 137.89731 344.830392 
L 138.44205 344.889019 
L 138.523314 344.897987 
L 139.068054 344.959595 
L 139.149282 344.969004 
L 139.694023 345.033597 
L 139.775031 345.043424 
L 140.319771 345.111001 
L 140.400368 345.121219 
L 140.945109 345.19177 
L 141.025099 345.202347 
L 141.56984 345.275855 
L 141.649021 345.286753 
L 142.193762 345.363196 
L 142.271928 345.374373 
L 142.816668 345.453718 
L 142.893606 345.465127 
L 143.438347 345.547337 
L 143.513841 345.558925 
L 144.058581 345.643951 
L 144.13241 345.655661 
L 144.677151 345.743448 
L 144.749092 345.75522 
L 145.293832 345.845703 
L 145.363657 345.85747 
L 145.908397 345.950577 
L 145.975875 345.962267 
L 146.520616 346.057916 
L 146.585513 346.069457 
L 147.130253 346.167555 
L 147.192334 346.178868 
L 147.737075 346.279316 
L 147.796101 346.290321 
L 148.340842 346.393007 
L 148.396573 346.403621 
L 148.941314 346.508425 
L 148.993509 346.518562 
L 149.538249 346.625354 
L 149.586663 346.634927 
L 150.131404 346.743566 
L 150.175791 346.752487 
L 150.720531 346.862824 
L 150.760645 346.871005 
L 151.305385 346.982878 
L 151.340977 346.990232 
L 151.885717 347.10347 
L 151.916536 347.109909 
L 152.461276 347.224331 
L 152.487071 347.229773 
L 153.031811 347.345186 
L 153.052328 347.349548 
L 153.597068 347.465752 
L 153.612052 347.468956 
L 154.156793 347.585737 
L 154.710728 347.704846 
L 155.257033 347.822439 
L 155.795326 347.938188 
L 156.326917 348.052129 
L 156.851541 348.163962 
L 157.368932 348.273387 
L 157.878822 348.38011 
L 158.380941 348.483838 
L 158.875022 348.584286 
L 159.360795 348.681178 
L 159.837993 348.774248 
L 160.306348 348.863241 
L 160.765601 348.947918 
L 161.215492 349.028054 
L 161.655773 349.103445 
L 162.086204 349.173905 
L 162.506556 349.23927 
L 162.916618 349.299403 
L 163.316195 349.354189 
L 163.705118 349.403543 
L 164.083243 349.447407 
L 164.450461 349.485749 
L 164.806697 349.518572 
L 165.151921 349.5459 
L 165.486153 349.567791 
L 165.809467 349.584325 
L 166.121995 349.595605 
L 166.423937 349.601753 
L 166.715566 349.602906 
L 166.997229 349.59921 
L 167.269352 349.590813 
L 167.532446 349.577859 
L 167.787102 349.560478 
L 168.033999 349.53878 
L 168.273893 349.512845 
L 168.507622 349.482712 
L 168.73609 349.448376 
L 168.96027 349.409775 
L 169.181185 349.366785 
L 169.399902 349.319216 
L 169.617517 349.266808 
L 169.835142 349.209228 
L 170.053888 349.14607 
L 170.274854 349.076859 
L 170.499109 349.001057 
L 170.727682 348.918065 
L 170.961544 348.827236 
L 171.201605 348.727885 
L 171.448697 348.619294 
L 171.703574 348.500731 
L 171.966902 348.371459 
L 172.239263 348.230748 
L 172.521146 348.077885 
L 172.812958 347.912189 
L 173.115018 347.733018 
L 173.427572 347.539777 
L 173.750789 347.331927 
L 174.084775 347.108992 
L 174.429577 346.87056 
L 174.785189 346.616292 
L 175.151567 346.345917 
L 175.528629 346.059241 
L 175.916266 345.756142 
L 176.314351 345.436568 
L 176.722743 345.100541 
L 177.141296 344.74815 
L 177.569863 344.379552 
L 178.008305 343.994964 
L 178.456494 343.594666 
L 178.914318 343.178993 
L 179.381689 342.748331 
L 179.858544 342.303117 
L 180.344853 341.843831 
L 180.840621 341.370993 
L 181.345898 340.885162 
L 181.860776 340.386929 
L 182.385404 339.876913 
L 182.919985 339.35576 
L 183.462163 338.826699 
L 184.012159 338.290528 
L 184.028179 338.274934 
L 184.572919 337.745458 
L 184.600171 337.719036 
L 185.144911 337.192213 
L 185.183959 337.154584 
L 185.7287 336.631529 
L 185.780217 336.582295 
L 186.324958 336.064152 
L 186.389738 336.002897 
L 186.934479 335.490837 
L 187.013455 335.417129 
L 187.558196 334.912352 
L 187.652453 334.825748 
L 188.197194 334.329476 
L 188.307992 334.229532 
L 188.852732 333.74301 
L 188.981527 333.62929 
L 189.526268 333.153784 
L 189.674734 333.025873 
L 190.219475 332.562669 
L 190.389535 332.420201 
L 190.934276 331.9706 
L 191.128122 331.813282 
L 191.672863 331.378601 
L 191.892989 331.206256 
L 192.43773 330.787823 
L 192.686953 330.600441 
L 193.231694 330.199594 
L 193.513174 329.997399 
L 194.057915 329.615484 
L 194.375164 329.399019 
L 194.919905 329.037386 
L 195.276781 328.807621 
L 195.821521 328.467622 
L 196.222188 328.226079 
L 196.766928 327.909067 
L 197.215784 327.657975 
L 197.760525 327.365296 
L 198.262073 327.107757 
L 198.806813 326.840753 
L 199.365454 326.580916 
L 199.910195 326.34092 
L 200.529935 326.084143 
L 201.074675 325.872474 
L 201.758723 325.62544 
L 202.303463 325.443402 
L 203.053726 325.214142 
L 203.598467 325.063019 
L 204.414962 324.860787 
L 204.959702 324.741843 
L 205.839945 324.57679 
L 206.384685 324.491262 
L 207.323143 324.373859 
L 207.867884 324.322955 
L 208.855638 324.263177 
L 209.400379 324.248076 
L 210.425133 324.254407 
L 210.969873 324.276249 
L 212.016409 324.35466 
L 212.561149 324.414546 
L 213.61226 324.567637 
L 214.157001 324.666629 
L 215.194802 324.893146 
L 215.739542 325.032259 
L 216.746931 325.327124 
L 217.291671 325.507322 
L 218.253676 325.862171 
L 218.798417 326.084368 
L 219.703196 326.488492 
L 220.247936 326.753544 
L 221.087281 327.195017 
L 221.632021 327.503723 
L 222.401367 327.970492 
L 222.946108 328.323586 
L 223.644155 328.804364 
L 224.188896 329.202515 
L 224.816992 329.68738 
L 225.361733 330.131189 
L 225.923168 330.611901 
L 226.467908 331.101894 
L 226.967243 331.571963 
L 227.511983 332.108593 
L 227.954477 332.56318 
L 228.499218 333.14682 
L 228.890388 333.582539 
L 229.435128 334.213481 
L 229.78043 334.628159 
L 230.325171 335.30661 
L 230.629793 335.699039 
L 231.174534 336.425119 
L 231.443276 336.794835 
L 231.988017 337.568574 
L 232.225233 337.915664 
L 232.769973 338.737001 
L 232.979553 339.06194 
L 233.524293 339.930718 
L 233.709677 340.234251 
L 234.254418 341.150215 
L 234.418626 341.433253 
L 234.963367 342.396051 
L 235.109036 342.659602 
L 235.653777 343.668778 
L 235.783198 343.913891 
L 236.327939 344.96889 
L 236.443102 345.19662 
L 236.987842 346.296778 
L 237.090468 346.508155 
L 237.635208 347.652705 
L 237.726786 347.84872 
L 238.271527 349.036788 
L 238.353345 349.218379 
L 238.898086 350.448979 
L 238.971259 350.617026 
L 239.515999 351.889067 
L 239.581492 352.044387 
L 240.126232 353.356664 
L 240.184878 353.500011 
L 240.729619 354.851212 
L 240.782141 354.983276 
L 241.326881 356.371978 
L 241.373904 356.493387 
L 241.918645 357.918054 
L 241.960709 358.029378 
L 242.50545 359.488367 
L 242.543025 359.590116 
L 243.087766 361.081671 
L 243.121255 361.174304 
L 243.665996 362.696561 
L 243.695748 362.780479 
L 244.240488 364.331467 
L 244.266801 364.407025 
L 244.811542 365.984665 
L 244.834672 366.052167 
L 245.379412 367.654275 
L 245.399574 367.713978 
L 245.944314 369.338265 
L 245.961687 369.39038 
L 246.506428 371.034458 
L 246.521159 371.079151 
L 247.0659 372.74053 
L 247.078106 372.777923 
L 247.622847 374.454018 
L 247.632617 374.484185 
L 248.177357 376.172316 
L 248.18475 376.195288 
L 248.729491 377.892684 
L 248.734539 377.908443 
L 249.279279 379.612245 
L 249.826728 381.32799 
L 250.370776 383.033528 
L 250.912193 384.728173 
L 251.234831 385.734586 
L 251.625643 383.742025 
L 252.152924 380.95785 
L 252.68232 378.06935 
L 253.213546 375.08069 
L 253.746362 371.99616 
L 254.28057 368.820189 
L 254.816005 365.557352 
L 255.352527 362.21238 
L 255.890019 358.790163 
L 256.428382 355.295749 
L 256.967534 351.73435 
L 257.507405 348.11134 
L 258.047937 344.432247 
L 258.589081 340.702757 
L 259.1308 336.928701 
L 259.67306 333.116058 
L 260.215839 329.27094 
L 260.759118 325.399587 
L 261.302888 321.508359 
L 261.847142 317.603724 
L 262.391761 313.69313 
L 262.936747 309.783262 
L 263.482234 305.879986 
L 264.02824 301.990104 
L 264.574791 298.120466 
L 264.577183 298.103602 
L 265.121923 294.27795 
L 265.124941 294.256866 
L 265.669681 290.46945 
L 265.673382 290.443879 
L 266.218122 286.701853 
L 266.222576 286.671474 
L 266.767317 282.982019 
L 266.772612 282.946446 
L 267.317353 279.316763 
L 267.323599 279.275533 
L 267.86834 275.712823 
L 267.87567 275.665384 
L 268.420411 272.176837 
L 268.428992 272.122528 
L 268.973733 268.715308 
L 268.983773 268.653335 
L 269.528514 265.334568 
L 269.540272 265.263976 
L 270.085013 262.040733 
L 270.098818 261.960364 
L 270.643559 258.839648 
L 270.659831 258.748093 
L 271.204572 255.736825 
L 271.22385 255.632353 
L 271.768591 252.737357 
L 271.791581 252.617827 
L 272.336321 249.845814 
L 272.363956 249.708552 
L 272.908697 247.066108 
L 272.942231 246.907733 
L 273.486971 244.401303 
L 273.528121 244.217495 
L 274.072861 241.853368 
L 274.124021 241.638524 
L 274.668761 239.422822 
L 274.73335 239.169571 
L 275.278091 237.108231 
L 275.361118 236.806711 
L 275.905858 234.905474 
L 276.014875 234.542254 
L 276.559616 232.80665 
L 276.706397 232.363093 
L 277.251138 230.798426 
L 277.454752 230.248201 
L 277.999493 228.859541 
L 278.292166 228.164905 
L 278.836907 226.957069 
L 279.275706 226.0638 
L 279.820447 225.041343 
L 280.511255 223.874105 
L 281.055995 223.041308 
L 282.201978 221.510274 
L 282.746719 220.871129 
L 283.693969 219.85781 
L 284.730098 218.935565 
L 285.274838 218.493769 
L 286.34714 217.699901 
L 287.485249 217.00365 
L 288.680305 216.410439 
L 289.225046 216.169379 
L 290.450773 215.689619 
L 291.713582 215.318282 
L 293.003902 215.058182 
L 294.311954 214.91129 
L 294.856695 214.874033 
L 296.252902 214.843186 
L 297.646 214.941292 
L 299.024103 215.167516 
L 300.375456 215.519926 
L 300.920197 215.68921 
L 302.365262 216.220362 
L 303.748821 216.895714 
L 305.056529 217.708262 
L 305.60127 218.086488 
L 306.899452 219.096785 
L 308.080198 220.242129 
L 308.624938 220.831351 
L 309.360442 221.689105 
L 310.029836 222.599389 
L 310.574577 223.401305 
L 311.392704 224.75251 
L 311.937445 225.768454 
L 312.438697 226.794555 
L 312.983438 228.025494 
L 313.306761 228.815661 
L 313.851501 230.262184 
L 314.069786 230.882389 
L 314.614527 232.544704 
L 314.767735 233.040864 
L 315.312476 234.918793 
L 315.42359 235.322673 
L 315.96833 237.415649 
L 316.051177 237.74949 
L 316.595917 240.05655 
L 316.659157 240.33621 
L 317.203898 242.855995 
L 317.253152 243.092999 
L 317.797892 245.823753 
L 317.836925 246.026636 
L 318.381666 248.966204 
L 318.413066 249.141401 
L 318.957807 252.287226 
L 318.983402 252.439667 
L 319.528143 255.788794 
L 319.549247 255.92231 
L 320.093988 259.471387 
L 320.111567 259.588998 
L 320.656307 263.334276 
L 320.671081 263.438389 
L 321.215821 267.375726 
L 321.228335 267.46828 
L 321.773076 271.593147 
L 321.78375 271.675722 
L 322.32849 275.983204 
L 322.33765 276.057096 
L 322.882391 280.541898 
L 322.890293 280.608181 
L 323.435034 285.264636 
L 323.441883 285.324204 
L 323.986624 290.14628 
L 323.992582 290.199882 
L 324.537323 295.181188 
L 324.542523 295.229458 
L 325.087264 300.363252 
L 325.091813 300.406726 
L 325.636554 305.685928 
L 325.640541 305.72506 
L 326.185281 311.142259 
L 326.188777 311.17744 
L 326.733518 316.724905 
L 326.736584 316.756466 
L 327.281324 322.42616 
L 327.284009 322.454385 
L 327.82875 328.237975 
L 327.831096 328.263107 
L 328.375837 334.151979 
L 328.377878 334.174223 
L 328.922618 340.159493 
L 328.924384 340.179028 
L 329.469124 346.251558 
L 329.470637 346.268531 
L 330.015378 352.418945 
L 330.561399 358.652179 
L 331.107203 364.941553 
L 331.652804 371.277153 
L 332.19821 377.648869 
L 332.743429 384.046422 
L 333.288466 390.459374 
L 333.833292 396.876785 
L 334.377879 403.287639 
L 334.922282 409.68183 
L 335.466494 416.048486 
L 336.010508 422.376675 
L 336.55431 428.655425 
L 337.097887 434.873738 
L 337.641219 441.020614 
L 338.184282 447.085062 
L 338.24695 447.774483 
L 338.560251 443.945371 
L 339.103088 437.171558 
L 339.646178 430.266162 
L 340.189494 423.240683 
L 340.733013 416.106809 
L 341.276718 408.876396 
L 341.820593 401.561454 
L 342.364626 394.174125 
L 342.908807 386.726661 
L 343.453128 379.231408 
L 343.997584 371.700778 
L 344.54217 364.147234 
L 345.086867 356.583537 
L 345.631647 349.022518 
L 346.176556 341.476035 
L 346.721597 333.956515 
L 347.266773 326.476319 
L 347.81209 319.047715 
L 348.357556 311.682855 
L 348.90318 304.39375 
L 349.448976 297.192248 
L 349.450219 297.175972 
L 349.994959 290.090008 
L 349.996408 290.07132 
L 350.541148 283.098473 
L 350.542826 283.077198 
L 351.087566 276.228852 
L 351.0895 276.204781 
L 351.634241 269.492086 
L 351.636466 269.464975 
L 352.181206 262.898829 
L 352.183763 262.868388 
L 352.728503 256.459418 
L 352.731442 256.425307 
L 353.276182 250.183847 
L 353.279564 250.145662 
L 353.824304 244.081736 
L 353.828205 244.038997 
L 354.372946 238.1623 
L 354.377459 238.114435 
L 354.9222 232.434316 
L 354.927444 232.380639 
L 355.472185 226.906083 
L 355.478309 226.845765 
L 356.02305 221.585379 
L 356.030243 221.517411 
L 356.574984 216.479406 
L 356.583493 216.402552 
L 357.128234 211.594731 
L 357.138379 211.507457 
L 357.68312 206.937199 
L 357.695328 206.837586 
L 358.240069 202.511836 
L 358.254917 202.397451 
L 358.799658 198.322705 
L 358.817938 198.190418 
L 359.362678 194.372714 
L 359.385504 194.218441 
L 359.930244 190.663348 
L 359.959216 190.48166 
L 360.503957 187.194269 
L 360.541444 186.977804 
L 361.086185 183.96272 
L 361.135804 183.70126 
L 361.680544 180.962596 
L 361.748024 180.641583 
L 362.292765 178.182952 
L 362.387596 177.781014 
L 362.932337 175.605524 
L 363.071084 175.090194 
L 363.615825 173.200446 
L 363.829288 172.520551 
L 364.374029 170.918631 
L 364.723993 169.990544 
L 365.268734 168.678025 
L 365.890623 167.36232 
L 366.435364 166.340262 
L 367.008582 165.355987 
L 367.65427 164.417656 
L 368.19901 163.686601 
L 368.996247 162.705175 
L 369.872698 161.793791 
L 370.822234 160.958825 
L 371.366974 160.518802 
L 372.625579 159.604981 
L 373.971402 158.825294 
L 375.390204 158.187991 
L 376.86697 157.699816 
L 377.411711 157.550341 
L 378.945535 157.214017 
L 380.50597 157.038585 
L 382.076183 157.025937 
L 383.639241 157.17621 
L 385.178284 157.487782 
L 385.723025 157.627862 
L 387.217251 158.095812 
L 388.65507 158.715785 
L 390.021063 159.48113 
L 391.30058 160.38364 
L 391.845321 160.811775 
L 392.813768 161.641309 
L 393.708874 162.549495 
L 394.524273 163.529874 
L 395.069013 164.244064 
L 395.729967 165.182454 
L 396.317833 166.168279 
L 396.862573 167.16603 
L 397.501374 168.484114 
L 398.046115 169.762443 
L 398.406579 170.692218 
L 398.95132 172.247661 
L 399.171836 172.928572 
L 399.716577 174.757194 
L 399.860351 175.273041 
L 400.405092 177.370446 
L 400.503668 177.77254 
L 401.048409 180.133877 
L 401.118774 180.454774 
L 401.663515 183.074755 
L 401.715415 183.335886 
L 402.260155 186.208793 
L 402.299483 186.424753 
L 402.844223 189.544451 
L 402.874702 189.725482 
L 403.419443 193.085437 
L 403.443518 193.238917 
L 403.988258 196.832204 
L 404.007584 196.963572 
L 404.552325 200.782896 
L 404.568054 200.896244 
L 405.112794 204.933952 
L 405.125749 205.032411 
L 405.670489 209.28051 
L 405.681268 209.366516 
L 406.226008 213.816688 
L 406.235054 213.892159 
L 406.779795 218.535781 
L 406.787443 218.602249 
L 407.332184 223.430408 
L 407.338691 223.489109 
L 407.883431 228.492623 
L 407.888995 228.544562 
L 408.433736 233.713997 
L 408.438512 233.759999 
L 408.983253 239.08569 
L 408.987365 239.126436 
L 409.532106 244.598505 
L 409.535652 244.634563 
L 410.080392 250.242938 
L 410.083451 250.274782 
L 410.628192 256.009221 
L 410.630828 256.037247 
L 411.175568 261.887354 
L 411.177834 261.911897 
L 411.722574 267.867145 
L 411.724511 267.888485 
L 412.269252 273.938234 
L 412.270895 273.956608 
L 412.815636 280.09013 
L 412.817013 280.105736 
L 413.361754 286.312231 
L 413.90763 292.593853 
L 414.453283 298.924257 
L 414.998726 305.292668 
L 415.543972 311.688301 
L 416.089029 318.100386 
L 416.633878 324.5179 
L 417.178481 330.92967 
L 417.722904 337.325857 
L 418.267145 343.695936 
L 418.811197 350.029499 
L 419.355054 356.316266 
L 419.898706 362.546107 
L 420.44214 368.709056 
L 420.985338 374.795326 
L 421.528282 380.795327 
L 422.070946 386.699676 
L 422.613301 392.499211 
L 423.155313 398.185 
L 423.696938 403.748353 
L 424.238126 409.180826 
L 424.778815 414.474231 
L 425.269484 419.149488 
L 425.275442 419.107798 
L 425.817857 415.278547 
L 426.360849 411.41854 
L 426.904384 407.534962 
L 427.448436 403.634887 
L 427.992959 399.725471 
L 428.537757 395.814866 
L 429.08304 391.908204 
L 429.628809 388.012031 
L 430.175068 384.13273 
L 430.721829 380.276521 
L 430.72437 380.258678 
L 431.26911 376.449439 
L 431.272196 376.42797 
L 431.816937 372.657336 
L 431.8206 372.63213 
L 432.365341 368.905864 
L 432.369622 368.87678 
L 432.914362 365.200467 
L 432.91931 365.167332 
L 433.46405 361.546373 
L 433.469723 361.508981 
L 434.014464 357.948583 
L 434.020934 357.906688 
L 434.565675 354.411859 
L 434.573026 354.365176 
L 435.117767 350.940718 
L 435.1261 350.888913 
L 435.67084 347.539417 
L 435.680274 347.482104 
L 436.225015 344.211945 
L 436.235692 344.148679 
L 436.780433 340.96201 
L 436.792522 340.892273 
L 437.337262 337.793023 
L 437.350966 337.71622 
L 437.895707 334.708088 
L 437.911267 334.623531 
L 438.456008 331.709984 
L 438.473719 331.616875 
L 439.018459 328.801145 
L 439.038675 328.698557 
L 439.583415 325.983642 
L 439.606568 325.870495 
L 440.151309 323.259153 
L 440.177929 323.134186 
L 440.72267 320.628936 
L 440.753413 320.490669 
L 441.298154 318.093791 
L 441.333837 317.940481 
L 441.878578 315.654015 
L 441.920225 315.483598 
L 442.464966 313.309346 
L 442.513874 313.119371 
L 443.058615 311.058894 
L 443.116443 310.846433 
L 443.661184 308.901056 
L 443.730073 308.662594 
L 444.274814 306.833409 
L 444.357561 306.564709 
L 444.902302 304.852573 
L 445.002602 304.548508 
L 445.547343 302.954049 
L 445.670134 302.608402 
L 446.214874 301.132021 
L 446.366842 300.737246 
L 446.911583 299.379119 
L 447.101893 298.926092 
L 447.646634 297.686179 
L 447.88801 297.16398 
L 448.43275 296.042022 
L 448.743038 295.437871 
L 449.287779 294.433401 
L 449.692209 293.733026 
L 450.23695 292.845369 
L 450.771237 292.034378 
L 451.315977 291.262661 
L 452.030137 290.330054 
L 452.574877 289.673208 
L 453.536653 288.618993 
L 454.081393 288.07576 
L 455.37558 286.925201 
L 455.92032 286.494141 
L 457.63542 285.319221 
L 458.180161 284.998718 
L 459.253605 284.42403 
L 460.369809 283.937579 
L 460.91455 283.725846 
L 462.20667 283.289605 
L 463.532841 282.971565 
L 464.077581 282.866654 
L 465.498103 282.662437 
L 466.931587 282.593818 
L 467.476327 282.593623 
L 468.88 282.658416 
L 470.271596 282.853238 
L 470.816337 282.955508 
L 472.068362 283.246147 
L 473.291178 283.642071 
L 473.835919 283.844409 
L 474.866535 284.271113 
L 475.862889 284.772637 
L 476.40763 285.072516 
L 477.988379 286.074975 
L 478.53312 286.469742 
L 479.736663 287.439496 
L 480.281404 287.926377 
L 481.191831 288.811624 
L 481.736572 289.387737 
L 482.428088 290.171675 
L 482.972829 290.834036 
L 483.503193 291.517907 
L 484.047934 292.263435 
L 484.459705 292.856179 
L 485.004445 293.681708 
L 485.328307 294.194598 
L 485.873048 295.096883 
L 486.131018 295.541054 
L 486.675758 296.51678 
L 486.883699 296.902252 
L 487.42844 297.94804 
L 487.597882 298.283442 
L 488.142623 299.395859 
L 488.28204 299.688462 
L 488.826781 300.864029 
L 488.942473 301.119899 
L 489.487214 302.355096 
L 489.583923 302.579269 
L 490.128664 303.870546 
L 490.210001 304.067204 
L 490.754741 305.410986 
L 490.823485 305.583603 
L 491.368226 306.976299 
L 491.426536 307.12777 
L 491.971277 308.56578 
L 492.020851 308.698522 
L 492.565592 310.178246 
L 492.607773 310.294283 
L 493.152513 311.812123 
L 493.18837 311.913157 
L 493.73311 313.46553 
L 493.763501 313.552992 
L 494.308241 315.136332 
L 494.333857 315.211428 
L 494.878598 316.822196 
L 494.899998 316.885942 
L 495.444739 318.52063 
L 495.462376 318.573884 
L 496.007116 320.229021 
L 496.021355 320.272504 
L 496.566095 321.944663 
L 496.577228 321.978977 
L 497.121969 323.664783 
L 497.13023 323.690428 
L 497.674971 325.386558 
L 497.680544 325.403947 
L 498.225285 327.107139 
L 498.77305 328.823664 
L 499.317464 330.530439 
L 499.85923 332.226607 
L 500.398654 333.910212 
L 500.93573 335.578424 
L 501.470421 337.228449 
L 502.002665 338.85754 
L 502.532371 340.462991 
L 503.059419 342.04215 
L 503.583657 343.592419 
L 504.104902 345.111252 
L 504.622934 346.596163 
L 505.137492 348.044723 
L 505.648274 349.454557 
L 506.154923 350.823351 
L 506.657029 352.148845 
L 507.154116 353.428832 
L 507.645632 354.661159 
L 508.130941 355.843723 
L 508.609309 356.974469 
L 509.079886 358.051388 
L 509.541692 359.072521 
L 509.993591 360.035954 
L 510.434274 360.939821 
L 510.862224 361.782317 
L 511.27569 362.561701 
L 511.608322 363.160517 
L 511.763221 363.020422 
L 512.215441 362.603967 
L 512.682819 362.166905 
L 513.164285 361.710887 
L 513.658925 361.237526 
L 514.165957 360.748392 
L 514.684722 360.24501 
L 515.214666 359.728853 
L 515.754739 359.20192 
L 516.300661 358.669399 
L 516.312026 358.658324 
L 516.856767 358.128069 
L 516.878056 358.107387 
L 517.422796 357.579211 
L 517.45381 357.549225 
L 517.998551 357.024056 
L 518.039151 356.98506 
L 518.583891 356.46379 
L 518.633988 356.416071 
L 519.178729 355.899555 
L 519.238281 355.843394 
L 519.783022 355.33245 
L 519.852028 355.268129 
L 520.396769 354.763537 
L 520.475263 354.69134 
L 521.020004 354.193841 
L 521.108053 354.114059 
L 521.652794 353.624355 
L 521.75049 353.537291 
L 522.295231 353.056047 
L 522.402688 352.962015 
L 522.947428 352.489854 
L 523.064775 352.389188 
L 523.609516 351.926697 
L 523.736895 351.819751 
L 524.281636 351.367477 
L 524.419194 351.254629 
L 524.963934 350.813079 
L 525.111818 350.694737 
L 525.656558 350.264381 
L 525.814906 350.140982 
L 526.359647 349.722252 
L 526.528587 349.594265 
L 527.073328 349.187555 
L 527.252965 349.055487 
L 527.797706 348.661151 
L 527.988118 348.525543 
L 528.532859 348.143902 
L 528.73409 348.005332 
L 529.27883 347.636669 
L 529.490878 347.49575 
L 530.035618 347.140311 
L 530.258429 346.997692 
L 530.80317 346.655691 
L 531.036633 346.512051 
L 531.581373 346.183664 
L 531.82531 346.039709 
L 532.37005 345.725082 
L 532.624208 345.581541 
L 533.168949 345.280786 
L 533.432997 345.138402 
L 533.977737 344.851599 
L 534.251261 344.711123 
L 534.796002 344.43832 
L 535.078499 344.300501 
L 535.62324 344.041719 
L 535.914121 343.907294 
L 536.458862 343.662524 
L 536.757449 343.532206 
L 537.30219 343.30141 
L 537.60772 343.175881 
L 538.15246 342.958996 
L 538.46409 342.838892 
L 539.008831 342.635827 
L 539.325644 342.521729 
L 539.870384 342.33237 
L 540.191399 342.224794 
L 540.73614 342.049004 
L 541.060323 341.948392 
L 541.605063 341.78601 
L 541.93134 341.692724 
L 542.476081 341.543568 
L 542.803349 341.457882 
L 543.34809 341.321751 
L 543.675236 341.243852 
L 544.219977 341.120524 
L 544.54589 341.050506 
L 545.090631 340.939744 
L 545.414218 340.877613 
L 545.958958 340.77916 
L 546.279154 340.724834 
L 546.823895 340.63842 
L 547.139681 340.591737 
L 547.684422 340.517075 
L 547.994834 340.477798 
L 548.539575 340.41459 
L 548.843714 340.382414 
L 549.388455 340.330348 
L 549.685493 340.30491 
L 550.230234 340.263665 
L 550.519423 340.244554 
L 551.064163 340.213797 
L 551.344836 340.200564 
L 551.889576 340.179953 
L 552.161149 340.17212 
L 552.705889 340.161305 
L 552.967862 340.158374 
L 553.512603 340.157 
L 553.764558 340.158464 
L 554.309299 340.166168 
L 554.5509 340.171516 
L 555.09564 340.187931 
L 555.326623 340.196659 
L 555.871364 340.221414 
L 556.091537 340.233028 
L 556.636278 340.265749 
L 556.845516 340.279774 
L 557.390256 340.320084 
L 557.588492 340.336064 
L 558.133233 340.383586 
L 558.320455 340.401093 
L 558.865195 340.455449 
L 559.041439 340.474078 
L 559.586179 340.534891 
L 559.751522 340.554271 
L 560.296263 340.621164 
L 560.45082 340.640952 
L 560.995561 340.71355 
L 561.139479 340.733435 
L 561.68422 340.811367 
L 561.817673 340.831068 
L 562.362414 340.913967 
L 562.485598 340.933233 
L 563.030339 341.020734 
L 563.143469 341.039346 
L 563.688209 341.131089 
L 563.791515 341.148856 
L 564.336255 341.244487 
L 564.429977 341.261245 
L 564.974718 341.360416 
L 565.059108 341.376027 
L 565.603849 341.478396 
L 565.679164 341.492748 
L 566.223905 341.597979 
L 566.290409 341.610981 
L 566.83515 341.718747 
L 566.893109 341.730331 
L 567.437849 341.840312 
L 567.487531 341.850429 
L 568.032271 341.962313 
L 568.073945 341.970933 
L 568.618685 342.084415 
L 568.65262 342.091525 
L 569.197361 342.206311 
L 569.223825 342.211912 
L 569.768566 342.327716 
L 569.787827 342.331824 
L 570.332568 342.44837 
L 570.889634 342.568034 
L 571.439651 342.686407 
L 571.980562 342.802794 
L 572.515456 342.917623 
L 573.04459 343.030738 
L 573.568221 343.141994 
L 574.086604 343.251264 
L 574.599991 343.358434 
L 575.108635 343.463402 
L 575.612786 343.566081 
L 576.112691 343.666393 
L 576.608599 343.764273 
L 577.100753 343.859663 
L 577.589398 343.952518 
L 578.074777 344.042797 
L 578.557128 344.130469 
L 579.03669 344.215511 
L 579.513698 344.297905 
L 579.988386 344.377638 
L 580.460984 344.454704 
L 580.931719 344.5291 
L 581.400815 344.60083 
L 581.868491 344.669899 
L 582.334963 344.736316 
L 582.800444 344.800094 
L 583.265138 344.861249 
L 583.729248 344.919797 
L 584.192969 344.975758 
L 584.656491 345.029156 
L 585.119997 345.080013 
L 585.583665 345.128354 
L 586.047664 345.174208 
L 586.512158 345.217602 
L 586.977302 345.258567 
L 587.443245 345.297133 
L 587.910127 345.333334 
L 588.378081 345.367204 
L 588.847232 345.398779 
L 589.317696 345.428094 
L 589.789584 345.45519 
L 590.262995 345.480104 
L 590.738023 345.502879 
L 591.214752 345.523557 
L 591.69326 345.542182 
L 592.173616 345.558799 
L 592.655882 345.573456 
L 593.140113 345.5862 
L 593.626355 345.597081 
L 594.11465 345.606151 
L 594.60503 345.613462 
L 595.097522 345.619067 
L 595.592148 345.623022 
L 596.08892 345.625382 
L 596.587849 345.626206 
L 597.088936 345.62555 
L 597.592179 345.623475 
L 598.097572 345.62004 
L 598.605102 345.615305 
L 599.114752 345.609332 
L 599.626502 345.602182 
L 600.140327 345.593917 
L 600.656198 345.584599 
L 601.174083 345.57429 
L 601.693947 345.563053 
L 602.215753 345.550947 
L 602.739458 345.538036 
L 603.26502 345.524381 
L 603.792394 345.51004 
L 604.32153 345.495074 
L 604.852381 345.479542 
L 605.384895 345.463501 
L 605.91902 345.447008 
L 606.454702 345.430119 
L 606.991886 345.412887 
L 607.530516 345.395365 
L 608.070537 345.377605 
L 608.611892 345.359656 
L 609.154523 345.341566 
L 609.698374 345.323382 
L 610.242967 345.305163 
L 610.788546 345.286942 
L 611.3352 345.268753 
L 611.882874 345.250637 
L 612.431509 345.23263 
L 612.981051 345.214768 
L 613.531444 345.197084 
L 614.082632 345.17961 
L 614.634562 345.162375 
L 615.18718 345.145406 
L 615.740436 345.128729 
L 617.223975 345.156857 
L 618.697615 345.330263 
L 620.147161 345.647275 
L 621.558655 346.10484 
L 621.583928 346.115875 
L 623.023767 344.54554 
L 625.074518 342.714642 
L 627.345957 341.044862 
L 629.81621 339.552281 
L 632.461486 338.251274 
L 635.256311 337.15437 
L 638.173768 336.272132 
L 641.18576 335.613058 
L 644.263282 335.183494 
L 647.376693 334.987577 
L 650.496011 335.027195 
L 653.591195 335.301965 
L 656.632437 335.809241 
L 659.590447 336.544139 
L 662.436738 337.49958 
L 665.1439 338.666364 
L 667.68586 340.033252 
L 670.038138 341.587083 
L 672.178081 343.31289 
L 674.085079 345.194055 
L 675.740767 347.212459 
L 677.129201 349.348666 
L 678.237008 351.582101 
L 679.05352 353.891256 
L 679.570873 356.253893 
L 679.656449 357.214511 
L 679.747985 357.20771 
L 686.491835 357.038594 
L 691.919072 353.031948 
L 692.036743 352.953697 
L 692.161518 352.887355 
L 692.292195 352.833564 
L 692.427514 352.79284 
L 692.566174 352.765575 
L 692.706839 352.752033 
L 692.848153 352.752344 
L 692.988757 352.766504 
L 693.127296 352.794378 
L 693.262435 352.835697 
L 693.392874 352.890063 
L 693.517356 352.956952 
L 693.634682 353.035721 
L 693.743722 353.12561 
L 693.843427 353.225754 
L 693.932836 353.335189 
L 694.011088 353.45286 
L 694.077429 353.577635 
L 694.13122 353.708312 
L 694.171945 353.843631 
L 694.199209 353.982291 
L 694.212751 354.122956 
L 694.21244 354.26427 
L 694.19828 354.404874 
L 694.170406 354.543413 
L 694.129087 354.678552 
L 694.074721 354.808991 
L 694.007832 354.933473 
L 693.929063 355.050799 
L 693.839174 355.159839 
L 693.73903 355.259544 
L 693.629595 355.348953 
L 689.491597 358.403821 
L 693.777512 361.247441 
L 693.891291 361.331252 
L 693.996307 361.425812 
L 694.091549 361.53021 
L 694.176099 361.643441 
L 694.249143 361.764414 
L 694.309979 361.891963 
L 694.358019 362.024862 
L 694.392802 362.161829 
L 694.413992 362.301546 
L 694.421386 362.442668 
L 694.414911 362.583834 
L 694.394631 362.723686 
L 694.360741 362.860877 
L 694.313566 362.994086 
L 694.253563 363.122029 
L 694.181307 363.243475 
L 694.097496 363.357253 
L 694.002936 363.462269 
L 693.898538 363.557511 
L 693.785308 363.642061 
L 693.664335 363.715106 
L 693.536785 363.775941 
L 693.403887 363.823981 
L 693.266919 363.858764 
L 693.127202 363.879954 
L 692.986081 363.887348 
L 692.844914 363.880873 
L 692.705062 363.860593 
L 692.567871 363.826703 
L 692.434663 363.779529 
L 692.30672 363.719525 
L 692.185274 363.64727 
L 686.564034 359.917688 
L 679.820185 360.086805 
L 679.728423 360.084601 
L 679.691103 361.048301 
L 679.292822 363.433899 
L 678.593078 365.781077 
L 677.598609 368.067232 
L 676.318993 370.270345 
L 674.766554 372.3692 
L 672.956242 374.343584 
L 670.905491 376.174483 
L 668.634052 377.844263 
L 666.163799 379.336843 
L 663.518523 380.637851 
L 660.723698 381.734755 
L 657.806241 382.616992 
L 654.794249 383.276067 
L 651.716727 383.705631 
L 648.603316 383.901547 
L 645.483998 383.86193 
L 642.388814 383.58716 
L 639.347572 383.079883 
L 636.389562 382.344985 
L 633.543271 381.389544 
L 630.836109 380.222761 
L 628.294149 378.855872 
L 625.941871 377.302042 
L 623.801928 375.576234 
L 622.281834 374.076732 
L 621.018911 374.572017 
L 619.591087 374.975748 
L 618.130565 375.237585 
L 616.651412 375.355005 
L 616.110929 375.371294 
L 615.574384 375.387767 
L 615.037177 375.404541 
L 614.499255 375.421593 
L 613.960564 375.4389 
L 613.42105 375.456435 
L 612.880657 375.474171 
L 612.339331 375.492077 
L 611.797013 375.510121 
L 611.253649 375.528269 
L 610.709327 375.546479 
L 610.164291 375.564702 
L 609.618065 375.582912 
L 609.070591 375.601064 
L 608.521812 375.619113 
L 607.971671 375.63701 
L 607.42011 375.654705 
L 606.867076 375.672144 
L 606.312511 375.689271 
L 605.756362 375.706028 
L 605.198577 375.722354 
L 604.639102 375.738185 
L 604.622628 375.738642 
L 604.077888 375.753455 
L 604.059626 375.75394 
L 603.514886 375.768095 
L 603.49479 375.768603 
L 602.950049 375.782033 
L 602.928074 375.782559 
L 602.383334 375.795196 
L 602.359438 375.795731 
L 601.814697 375.807507 
L 601.78884 375.808044 
L 601.244099 375.818887 
L 601.216245 375.819416 
L 600.671505 375.829255 
L 600.641619 375.829766 
L 600.096879 375.838528 
L 600.064932 375.839008 
L 599.520191 375.846619 
L 599.486157 375.847056 
L 598.941416 375.85344 
L 598.90527 375.853821 
L 598.360529 375.858902 
L 598.322254 375.859211 
L 597.777513 375.862914 
L 597.737093 375.863135 
L 597.192353 375.865381 
L 597.149779 375.865497 
L 596.605038 375.866209 
L 596.560305 375.866201 
L 596.015564 375.865302 
L 595.968673 375.865152 
L 595.423932 375.862564 
L 595.374888 375.862251 
L 594.830147 375.857896 
L 594.778961 375.8574 
L 594.23422 375.8512 
L 594.18091 375.850499 
L 593.63617 375.842378 
L 593.580759 375.84145 
L 593.036018 375.831332 
L 592.978537 375.830155 
L 592.433797 375.817964 
L 592.374282 375.816515 
L 591.829541 375.802179 
L 591.768037 375.800435 
L 591.223296 375.78388 
L 591.159852 375.781818 
L 590.615112 375.762974 
L 590.549787 375.760573 
L 590.005046 375.73937 
L 589.937907 375.736607 
L 589.393166 375.712979 
L 589.324284 375.709834 
L 588.779543 375.683717 
L 588.709 375.68017 
L 588.16426 375.651501 
L 588.092145 375.647533 
L 587.547404 375.616255 
L 587.473814 375.611849 
L 586.929073 375.577905 
L 586.854113 375.573047 
L 586.309372 375.536386 
L 586.233155 375.531063 
L 585.688414 375.491635 
L 585.61106 375.485837 
L 585.066319 375.443598 
L 584.987957 375.437317 
L 584.443217 375.392229 
L 584.363984 375.385461 
L 583.819243 375.337486 
L 583.739284 375.33023 
L 583.194544 375.279339 
L 583.11401 375.271598 
L 582.56927 375.217766 
L 582.488321 375.209546 
L 581.943581 375.152752 
L 581.862384 375.144065 
L 581.317644 375.084295 
L 581.236372 375.075155 
L 580.691632 375.012401 
L 580.610466 375.002829 
L 580.065726 374.937089 
L 579.984853 374.927108 
L 579.440112 374.858389 
L 579.359724 374.848029 
L 578.814984 374.77634 
L 578.73528 374.765636 
L 578.190539 374.690997 
L 578.111723 374.679987 
L 577.566982 374.602426 
L 577.489263 374.591154 
L 576.944522 374.510704 
L 576.868113 374.49922 
L 576.323372 374.415923 
L 576.248491 374.404281 
L 575.70375 374.318188 
L 575.630619 374.306447 
L 575.085879 374.217616 
L 575.014723 374.205839 
L 574.469983 374.114339 
L 574.401032 374.102593 
L 573.856291 374.0085 
L 573.789777 373.996858 
L 573.245036 373.900258 
L 573.181192 373.888795 
L 572.636451 373.789783 
L 572.575515 373.778578 
L 572.030774 373.677257 
L 571.972984 373.666392 
L 571.428243 373.562879 
L 571.373841 373.552438 
L 570.8291 373.446855 
L 570.778328 373.436924 
L 570.233587 373.329406 
L 570.18669 373.320072 
L 569.64195 373.210763 
L 569.599174 373.202115 
L 569.054433 373.09117 
L 569.016026 373.083296 
L 568.471286 372.970878 
L 568.437497 372.963865 
L 567.892756 372.850151 
L 567.863837 372.844084 
L 567.319096 372.729258 
L 567.295298 372.724222 
L 566.750557 372.60848 
L 566.732134 372.604554 
L 566.187394 372.488103 
L 565.629862 372.368419 
L 565.078218 372.249725 
L 564.535549 372.132932 
L 563.999797 372.017842 
L 563.470849 371.904675 
L 562.94897 371.793731 
L 562.434428 371.685308 
L 561.927489 371.579701 
L 561.428423 371.477199 
L 560.9375 371.378083 
L 560.454987 371.282627 
L 559.981153 371.191093 
L 559.516261 371.10373 
L 559.060572 371.02077 
L 558.614341 370.942433 
L 558.177813 370.868914 
L 557.751225 370.800392 
L 557.334799 370.73702 
L 556.928741 370.678928 
L 556.533235 370.626218 
L 556.148442 370.578967 
L 555.774493 370.537221 
L 555.411485 370.500999 
L 555.059475 370.47029 
L 554.718475 370.445057 
L 554.388446 370.425233 
L 554.069293 370.41073 
L 553.760856 370.401435 
L 553.462908 370.397222 
L 553.175151 370.397948 
L 552.897205 370.403466 
L 552.628613 370.413629 
L 552.368833 370.428296 
L 552.11724 370.447346 
L 551.873125 370.470678 
L 551.635701 370.498227 
L 551.404103 370.52997 
L 551.177398 370.565933 
L 550.954596 370.606201 
L 550.734653 370.650922 
L 550.516489 370.700313 
L 550.299002 370.754664 
L 550.081078 370.814333 
L 549.861608 370.879755 
L 549.639504 370.951429 
L 549.41371 371.029918 
L 549.183219 371.115839 
L 548.947081 371.209857 
L 548.704415 371.312669 
L 548.454419 371.425001 
L 548.196372 371.547588 
L 547.929639 371.681166 
L 547.653677 371.826459 
L 547.368025 371.984169 
L 547.072313 372.154965 
L 546.766249 372.33947 
L 546.449618 372.538258 
L 546.122276 372.751846 
L 545.784141 372.980686 
L 545.435186 373.22516 
L 545.075433 373.485584 
L 544.704943 373.762197 
L 544.323807 374.055167 
L 543.932143 374.364589 
L 543.530084 374.690486 
L 543.117774 375.032809 
L 542.69536 375.391443 
L 542.262986 375.766209 
L 541.820788 376.156863 
L 541.368888 376.563106 
L 540.90739 376.984582 
L 540.436373 377.420884 
L 539.955887 377.871559 
L 539.46595 378.336112 
L 538.966539 378.814005 
L 538.45759 379.304668 
L 537.93899 379.807499 
L 537.410569 380.321868 
L 536.872099 380.847121 
L 536.327949 381.378031 
L 535.77387 381.917703 
L 535.753599 381.93741 
L 535.208859 382.465998 
L 535.177151 382.496675 
L 534.63241 383.022186 
L 534.588662 383.064221 
L 534.043921 383.585528 
L 533.987413 383.639326 
L 533.442673 384.155274 
L 533.372561 384.221258 
L 532.82782 384.730665 
L 532.743115 384.809271 
L 532.198375 385.310929 
L 532.097927 385.402601 
L 531.553186 385.895279 
L 531.435663 386.000461 
L 530.890922 386.482904 
L 530.754787 386.602026 
L 530.210046 387.072962 
L 530.053532 387.206421 
L 529.508791 387.664557 
L 529.329875 387.812698 
L 528.785134 388.256727 
L 528.581511 388.419801 
L 528.036771 388.848402 
L 527.805826 389.02653 
L 527.261085 389.43837 
L 526.999872 389.631481 
L 526.455131 390.025219 
L 526.160354 390.232977 
L 525.615614 390.607266 
L 525.283626 390.828978 
L 524.738886 391.182466 
L 524.365707 391.416968 
L 523.820966 391.748302 
L 523.40233 391.993818 
L 522.857589 392.301648 
L 522.389038 392.555635 
L 521.844297 392.838616 
L 521.321339 393.097591 
L 520.776598 393.354383 
L 520.194943 393.61375 
L 519.650202 393.843027 
L 519.006096 394.096928 
L 518.461355 394.297376 
L 517.752025 394.538608 
L 517.207284 394.708929 
L 516.431475 394.928966 
L 515.886734 395.067884 
L 515.045318 395.257077 
L 514.500577 395.363338 
L 513.597153 395.511331 
L 513.052412 395.583708 
L 512.093787 395.680111 
L 511.549046 395.717408 
L 510.545459 395.752696 
L 510.000718 395.753748 
L 508.96567 395.720284 
L 508.420929 395.683966 
L 507.370534 395.57699 
L 506.825793 395.502214 
L 505.777687 395.320573 
L 505.232946 395.206297 
L 504.204887 394.952745 
L 503.660147 394.797972 
L 502.668563 394.478939 
L 502.123823 394.282723 
L 501.182578 393.9076 
L 500.637837 393.66905 
L 499.75741 393.249148 
L 499.21267 392.967429 
L 498.399847 392.514845 
L 497.855106 392.189182 
L 497.113137 391.715765 
L 496.568396 391.34545 
L 495.897483 390.862018 
L 495.352742 390.446406 
L 494.750708 389.962257 
L 494.205968 389.500777 
L 493.668961 389.023477 
L 493.12422 388.51563 
L 492.647351 388.051017 
L 492.10261 387.49638 
L 491.680473 387.048707 
L 491.135733 386.446939 
L 490.762805 386.019097 
L 490.218064 385.369938 
L 489.888973 384.963703 
L 489.344232 384.266978 
L 489.053928 383.883247 
L 488.509187 383.13887 
L 488.253037 382.777874 
L 487.708296 381.98585 
L 487.482125 381.647337 
L 486.937384 380.807765 
L 486.737476 380.491142 
L 486.192735 379.604215 
L 486.015816 379.308664 
L 485.471075 378.374674 
L 485.314276 378.099239 
L 484.769535 377.118578 
L 484.630357 376.86223 
L 484.085616 375.835391 
L 483.961888 375.597075 
L 483.417147 374.524656 
L 483.306988 374.303325 
L 482.762247 373.186028 
L 482.664027 372.980663 
L 482.119287 371.819297 
L 482.031598 371.628928 
L 481.486857 370.42441 
L 481.408481 370.248119 
L 480.86374 369.001475 
L 480.793622 368.838407 
L 480.248881 367.550772 
L 480.186109 367.400134 
L 479.641369 366.072753 
L 479.585154 365.933816 
L 479.040413 364.568044 
L 478.990072 364.440141 
L 478.445331 363.037446 
L 478.400271 362.919972 
L 477.855531 361.481929 
L 477.815241 361.374338 
L 477.2705 359.902634 
L 477.234538 359.804435 
L 476.689798 358.300868 
L 476.657782 358.211626 
L 476.113041 356.6781 
L 476.084642 356.59743 
L 475.539901 355.035959 
L 475.514838 354.963527 
L 474.970097 353.376231 
L 474.948131 353.311751 
L 474.40339 351.700852 
L 474.384319 351.644085 
L 473.839578 350.011912 
L 473.823235 349.962663 
L 473.278494 348.311644 
L 473.264744 348.269765 
L 472.720004 346.602426 
L 472.708741 346.567813 
L 472.164001 344.886777 
L 472.155149 344.859372 
L 471.610409 343.167352 
L 471.603918 343.147144 
L 471.059178 341.446947 
L 470.510286 339.728487 
L 469.964028 338.015937 
L 469.421086 336.314515 
L 468.880641 334.624751 
L 468.76473 334.263845 
L 468.698022 334.596306 
L 468.172213 337.314179 
L 467.644082 340.138888 
L 467.113953 343.066337 
L 466.582091 346.092314 
L 466.048719 349.212479 
L 465.514021 352.422346 
L 464.978154 355.717281 
L 464.441247 359.092493 
L 463.90341 362.543032 
L 463.364735 366.063785 
L 462.8253 369.64948 
L 462.285169 373.294682 
L 461.744396 376.993802 
L 461.203027 380.741098 
L 460.661098 384.530681 
L 460.118636 388.356521 
L 459.575663 392.212455 
L 459.032194 396.092196 
L 458.488239 399.989341 
L 457.943798 403.897383 
L 457.399086 407.808156 
L 456.853909 411.716295 
L 456.308226 415.615236 
L 455.762014 419.498159 
L 455.215244 423.3582 
L 455.212618 423.376656 
L 454.667878 427.188473 
L 454.664605 427.211245 
L 454.119865 430.982085 
L 454.115885 431.00946 
L 453.571144 434.732155 
L 453.566378 434.764479 
L 453.021638 438.43184 
L 453.015991 438.469525 
L 452.471251 442.07435 
L 452.464606 442.117892 
L 451.919865 445.652982 
L 451.912076 445.702973 
L 451.367336 449.161146 
L 451.358221 449.218294 
L 450.813481 452.592399 
L 450.802815 452.657557 
L 450.258074 455.940487 
L 450.245573 456.014683 
L 449.700833 459.199391 
L 449.686136 459.283872 
L 449.141395 462.363386 
L 449.124041 462.459675 
L 448.5793 465.427109 
L 448.558691 465.537083 
L 448.01395 468.385654 
L 447.989302 468.511641 
L 447.444562 471.234686 
L 447.414832 471.379608 
L 446.870092 473.970592 
L 446.833869 474.138159 
L 446.289128 476.590696 
L 446.244466 476.785672 
L 445.699725 479.093535 
L 445.643886 479.322134 
L 445.099145 481.47927 
L 445.028182 481.749719 
L 444.483442 483.750265 
L 444.391514 484.073642 
L 443.846773 485.911937 
L 443.724961 486.30344 
L 443.180221 487.974038 
L 443.014423 488.454904 
L 442.469683 489.95259 
L 442.2367 490.553014 
L 441.691959 491.872814 
L 441.351887 492.636208 
L 440.807146 493.773404 
L 440.288012 494.761743 
L 439.743272 495.711883 
L 438.90943 497.008305 
L 438.364689 497.767218 
L 436.955155 499.456441 
L 436.410415 500.020247 
L 435.237215 501.112251 
L 433.955013 502.073931 
L 433.410272 502.439051 
L 432.116741 503.21545 
L 430.752278 503.859079 
L 429.330467 504.36353 
L 428.785726 504.526699 
L 427.43865 504.863635 
L 426.066344 505.075569 
L 424.680383 505.160714 
L 423.292454 505.118351 
L 422.747714 505.076626 
L 421.424828 504.916406 
L 420.121186 504.640332 
L 418.846914 504.25055 
L 417.61191 503.750087 
L 417.067169 503.500858 
L 415.852066 502.877083 
L 414.698211 502.1462 
L 413.615021 501.314172 
L 413.07028 500.855171 
L 412.025514 499.887121 
L 411.076472 498.825058 
L 410.531731 498.154368 
L 409.396231 496.554432 
L 408.851491 495.670493 
L 408.177883 494.455848 
L 407.633142 493.357465 
L 407.212 492.431248 
L 406.667259 491.117599 
L 406.39059 490.399251 
L 405.845849 488.869892 
L 405.656107 488.301843 
L 405.111367 486.556715 
L 404.976417 486.099132 
L 404.431676 484.138561 
L 404.332705 483.763794 
L 403.787964 481.5885 
L 403.713469 481.27706 
L 403.168728 478.888156 
L 403.111401 478.626047 
L 402.56666 476.025044 
L 402.5217 475.802018 
L 401.976959 472.990827 
L 401.941114 472.79924 
L 401.396373 469.780169 
L 401.367385 469.614223 
L 400.822644 466.389983 
L 400.798906 466.24521 
L 400.254166 462.818907 
L 400.234514 462.691817 
L 399.689773 459.066956 
L 399.673346 458.954784 
L 399.128605 455.135266 
L 399.114756 455.035799 
L 398.570015 451.025914 
L 398.558252 450.937361 
L 398.013511 446.741789 
L 398.003453 446.662687 
L 397.458712 442.286489 
L 397.450062 442.215634 
L 396.905321 437.664247 
L 396.897845 437.600639 
L 396.353104 432.879871 
L 396.346615 432.822675 
L 395.801874 427.938699 
L 395.796221 427.887212 
L 395.25148 422.846553 
L 395.246541 422.800182 
L 394.7018 417.609713 
L 394.697476 417.567956 
L 394.152736 412.234885 
L 394.148945 412.197312 
L 393.604205 406.729174 
L 393.60088 406.69542 
L 393.05614 401.100066 
L 393.053225 401.069817 
L 392.508485 395.355398 
L 392.505934 395.328388 
L 391.961194 389.503348 
L 391.958969 389.479347 
L 391.414228 383.552405 
L 391.412296 383.53122 
L 390.867555 377.511358 
L 390.865889 377.492823 
L 390.321149 371.389273 
L 390.319727 371.373249 
L 389.774987 365.195475 
L 389.22905 358.93953 
L 388.683326 352.631227 
L 388.137801 346.280557 
L 387.592467 339.897698 
L 387.047318 333.492992 
L 386.50235 327.076929 
L 385.957628 320.660906 
L 385.413111 314.255168 
L 384.868781 307.870258 
L 384.324643 301.517073 
L 383.780709 295.206563 
L 383.236991 288.949713 
L 382.693506 282.757523 
L 382.150275 276.640992 
L 381.752237 272.220492 
L 381.231394 278.638706 
L 380.688457 285.464379 
L 380.145277 292.417243 
L 379.601881 299.485726 
L 379.058288 306.65807 
L 378.514516 313.92236 
L 377.970579 321.266533 
L 377.426488 328.678402 
L 376.882253 336.145675 
L 376.33788 343.65598 
L 375.793373 351.196882 
L 375.248737 358.755906 
L 374.704016 366.319947 
L 374.159186 373.876858 
L 373.614227 381.414458 
L 373.069135 388.920339 
L 372.523905 396.382175 
L 371.978532 403.787738 
L 371.433007 411.124929 
L 370.887318 418.381796 
L 370.341452 425.54656 
L 370.340133 425.563743 
L 369.795393 432.607643 
L 369.793859 432.627302 
L 369.249119 439.553689 
L 369.247346 439.576011 
L 368.702606 446.373588 
L 368.700565 446.398795 
L 368.155824 453.056506 
L 368.153477 453.084859 
L 367.608737 459.591908 
L 367.60604 459.623714 
L 367.061299 465.969585 
L 367.058199 466.005209 
L 366.513458 472.179684 
L 366.509887 472.219556 
L 365.965147 478.212736 
L 365.961023 478.257369 
L 365.416283 484.059689 
L 365.411504 484.109697 
L 364.866763 489.711946 
L 364.861201 489.768065 
L 364.31646 495.161401 
L 364.30995 495.224526 
L 363.76521 500.400492 
L 363.757544 500.471711 
L 363.212803 505.422251 
L 363.203709 505.502906 
L 362.658968 510.220379 
L 362.648088 510.312138 
L 362.103348 514.78933 
L 362.090204 514.894293 
L 361.545463 519.12443 
L 361.529406 519.245272 
L 360.984666 523.222032 
L 360.964794 523.362213 
L 360.420054 527.079738 
L 360.395092 527.243802 
L 359.850352 530.696705 
L 359.818445 530.890742 
L 359.273705 534.074116 
L 359.232078 534.30645 
L 358.687338 537.215879 
L 358.631697 537.498176 
L 358.086957 540.129739 
L 358.010386 540.478806 
L 357.465645 542.829083 
L 357.356471 543.269907 
L 356.811731 545.335985 
L 356.649105 545.907055 
L 356.104364 547.68653 
L 355.848441 548.449397 
L 355.3037 549.940379 
L 354.871891 550.996757 
L 354.327151 552.19787 
L 353.531793 553.716325 
L 352.987053 554.626708 
L 352.226917 555.774939 
L 351.365469 556.849251 
L 350.820728 557.468558 
L 349.741756 558.575576 
L 348.555391 559.566639 
L 347.274033 560.431388 
L 346.729292 560.75979 
L 345.472459 561.438689 
L 344.157167 561.995952 
L 342.795156 562.426603 
L 341.398582 562.726799 
L 339.979912 562.89386 
L 339.435171 562.932034 
L 337.919472 562.962064 
L 336.408384 562.840164 
L 334.917098 562.567559 
L 333.460606 562.14699 
L 332.053551 561.582684 
L 331.50881 561.331819 
L 330.340064 560.730702 
L 329.227935 560.030361 
L 328.180826 559.236087 
L 327.206647 558.353883 
L 326.661907 557.815672 
L 325.607831 556.660554 
L 324.6787 555.402743 
L 324.13396 554.579376 
L 323.180333 552.918074 
L 322.635592 551.812235 
L 322.128255 550.664481 
L 321.583514 549.279337 
L 321.287562 548.457923 
L 320.742821 546.797119 
L 320.55695 546.187313 
L 320.012209 544.254964 
L 319.888489 543.787608 
L 319.343748 541.588285 
L 319.25751 541.220481 
L 318.71277 538.759205 
L 318.650384 538.463342 
L 318.105644 535.745568 
L 318.059123 535.503224 
L 317.514382 532.534831 
L 317.478808 532.333309 
L 316.934068 529.120585 
L 316.906285 528.950882 
L 316.361544 525.500515 
L 316.339456 525.356083 
L 315.794715 521.67514 
L 315.776886 521.551115 
L 315.232145 517.647032 
L 315.217564 517.539727 
L 314.672824 513.42029 
L 314.660766 513.326868 
L 314.116025 509.000196 
L 314.105958 508.918438 
L 313.561217 504.392968 
L 313.552742 504.321115 
L 313.008002 499.605584 
L 313.000818 499.542229 
L 312.456078 494.645654 
L 312.449954 494.589657 
L 311.905213 489.52132 
L 311.899968 489.47175 
L 311.355227 484.241175 
L 311.350719 484.197265 
L 310.805978 478.814203 
L 310.802094 478.775318 
L 310.257353 473.249722 
L 310.254003 473.215333 
L 309.709262 467.557344 
L 309.706372 467.527009 
L 309.161632 461.746929 
L 309.159144 461.720277 
L 308.614403 455.828556 
L 308.612269 455.805274 
L 308.067528 449.812485 
L 308.065708 449.792309 
L 307.520967 443.709128 
L 307.519429 443.691838 
L 306.974688 437.529023 
L 306.428665 431.282805 
L 305.882876 424.981184 
L 305.337306 418.634915 
L 304.791939 412.254779 
L 304.246767 405.851557 
L 303.701781 399.436012 
L 303.157036 393.019552 
L 302.612502 386.612513 
L 302.068149 380.22511 
L 301.52398 373.867824 
L 300.980001 367.551018 
L 300.436221 361.284914 
L 299.892651 355.079583 
L 299.349306 348.944924 
L 298.806203 342.890648 
L 298.263363 336.926268 
L 297.720814 331.061084 
L 297.178586 325.304171 
L 296.636717 319.664369 
L 296.095254 314.150275 
L 295.554249 308.770233 
L 295.013771 303.532336 
L 294.730002 300.858018 
L 294.516404 302.358093 
L 293.973763 306.200008 
L 293.430559 310.069907 
L 292.886823 313.960648 
L 292.342578 317.865203 
L 291.797959 321.775793 
L 291.252975 325.685668 
L 290.707505 329.589069 
L 290.161549 333.479511 
L 289.615099 337.350673 
L 289.612881 337.366324 
L 289.068141 341.196405 
L 289.065394 341.215628 
L 288.520653 345.01074 
L 288.51735 345.033629 
L 287.972609 348.787903 
L 287.968714 348.814579 
L 287.423974 352.522319 
L 287.419444 352.552937 
L 286.874703 356.208628 
L 286.869484 356.243371 
L 286.324744 359.841686 
L 286.318774 359.880776 
L 285.774033 363.416585 
L 285.767236 363.460281 
L 285.222495 366.928652 
L 285.21478 366.97726 
L 284.670039 370.373472 
L 284.661299 370.427342 
L 284.116558 373.746887 
L 284.106665 373.80643 
L 283.561924 377.045017 
L 283.550727 377.110702 
L 283.005986 380.264265 
L 282.993303 380.336639 
L 282.448563 383.401335 
L 282.434177 383.481027 
L 281.889437 386.453247 
L 281.873088 386.540986 
L 281.328348 389.417352 
L 281.309721 389.513983 
L 280.764981 392.291352 
L 280.743694 392.397857 
L 280.198953 395.073325 
L 280.174538 395.19085 
L 279.629797 397.761749 
L 279.60168 397.891634 
L 279.056939 400.355538 
L 279.024406 400.499358 
L 278.479665 402.854078 
L 278.441826 403.013692 
L 277.897086 405.257281 
L 277.852822 405.434891 
L 277.308081 407.565639 
L 277.255968 407.76387 
L 276.711228 409.780306 
L 276.649438 410.002297 
L 276.104697 411.903186 
L 276.030861 412.15271 
L 275.486121 413.937051 
L 275.397131 414.218666 
L 274.85239 415.885689 
L 274.744122 416.204914 
L 274.199382 417.75408 
L 274.066297 418.117614 
L 273.521556 419.548608 
L 273.356119 419.964572 
L 272.811379 421.277302 
L 272.603208 421.755488 
L 272.058467 422.950079 
L 271.793093 423.50213 
L 271.248352 424.578919 
L 270.905402 425.218268 
L 270.360661 426.177805 
L 269.911296 426.919018 
L 269.366556 427.762053 
L 268.770043 428.618804 
L 268.225302 429.346288 
L 267.425123 430.326559 
L 266.880383 430.939632 
L 265.801731 432.035838 
L 265.25699 432.535829 
L 263.810969 433.707576 
L 263.266228 434.095994 
L 261.371447 435.247381 
L 260.826706 435.525908 
L 259.663569 436.05979 
L 258.459449 436.493395 
L 257.914708 436.663882 
L 256.558579 437.020182 
L 255.175276 437.249325 
L 254.630535 437.31378 
L 253.198201 437.414601 
L 251.762762 437.379099 
L 251.218022 437.339685 
L 249.859494 437.179347 
L 248.521018 436.89688 
L 247.976277 436.755906 
L 246.805122 436.401682 
L 245.666442 435.953923 
L 245.121702 435.713834 
L 243.271357 434.740338 
L 242.726617 434.403712 
L 241.300506 433.404573 
L 240.755765 432.974112 
L 239.674448 432.033031 
L 239.129707 431.511549 
L 238.311219 430.664492 
L 237.766479 430.054911 
L 237.142762 429.310119 
L 236.598021 428.615463 
L 236.117491 427.967838 
L 235.572751 427.19122 
L 235.197818 426.63049 
L 234.653078 425.775108 
L 234.356731 425.289866 
L 233.811991 424.358992 
L 233.574832 423.938465 
L 233.030091 422.935441 
L 232.838103 422.570134 
L 232.293362 421.498359 
L 232.136313 421.180177 
L 231.591573 420.043104 
L 231.461912 419.765259 
L 230.917172 418.566383 
L 230.809258 418.323227 
L 230.264517 417.06608 
L 230.174085 416.852923 
L 229.629344 415.541066 
L 229.553133 415.354014 
L 229.008392 413.991029 
L 228.943881 413.826844 
L 228.39914 412.416326 
L 228.344362 412.272309 
L 227.799621 410.817859 
L 227.753028 410.691751 
L 227.208287 409.19697 
L 227.168648 409.086877 
L 226.623908 407.555357 
L 226.590241 407.45969 
L 226.0455 405.895008 
L 226.017017 405.812426 
L 225.472276 404.218139 
L 225.448338 404.147511 
L 224.903597 402.527148 
L 224.88369 402.467522 
L 224.338949 400.824577 
L 224.322656 400.775152 
L 223.777916 399.113078 
L 223.764901 399.073181 
L 223.22016 397.395386 
L 223.210154 397.364454 
L 222.665414 395.674295 
L 222.658203 395.651864 
L 222.113463 393.95264 
L 221.564142 392.233277 
L 221.017499 390.519611 
L 220.474283 388.817124 
L 219.933417 387.125442 
L 219.394892 385.447414 
L 218.858726 383.785855 
L 218.324965 382.143544 
L 217.793683 380.523211 
L 217.264982 378.927542 
L 216.738993 377.359169 
L 216.21588 375.82067 
L 215.695841 374.314568 
L 215.179109 372.843327 
L 214.665962 371.409357 
L 214.156722 370.015006 
L 213.651764 368.66257 
L 213.151525 367.354288 
L 212.656507 366.092345 
L 212.167294 364.878875 
L 211.684556 363.715963 
L 211.209072 362.605645 
L 210.741738 361.549912 
L 210.283592 360.550705 
L 209.835833 359.609922 
L 209.399847 358.729404 
L 208.977236 357.910934 
L 208.569852 357.156221 
L 208.390941 356.840007 
L 208.065046 357.136906 
L 207.60687 357.561468 
L 207.133967 358.006 
L 206.647343 358.468865 
L 206.14786 358.948464 
L 205.636252 359.443245 
L 205.113136 359.951703 
L 204.579027 360.472383 
L 204.036914 361.001381 
L 203.487047 361.537439 
L 203.471845 361.552238 
L 202.927104 362.081807 
L 202.902062 362.106096 
L 202.357322 362.633226 
L 202.322614 362.666704 
L 201.777873 363.19048 
L 201.73362 363.232858 
L 201.188879 363.752402 
L 201.13515 363.803396 
L 200.590409 364.317867 
L 200.52723 364.377194 
L 199.982489 364.88579 
L 199.909847 364.953168 
L 199.365106 365.455123 
L 199.282953 365.530267 
L 198.738212 366.024854 
L 198.646472 366.107468 
L 198.101731 366.594 
L 198.000302 366.683777 
L 197.455562 367.161607 
L 197.344324 367.258226 
L 196.799584 367.726741 
L 196.678402 367.829861 
L 196.133662 368.288493 
L 196.002393 368.397751 
L 195.457652 368.845966 
L 195.316148 368.960973 
L 194.771407 369.398279 
L 194.619522 369.518616 
L 194.074782 369.944558 
L 193.912381 370.069776 
L 193.367641 370.483936 
L 193.194606 370.613551 
L 192.649865 371.015551 
L 192.466099 371.149044 
L 191.921358 371.538542 
L 191.726795 371.675358 
L 191.182054 372.052048 
L 190.976669 372.191595 
L 190.431928 372.555208 
L 190.215739 372.696858 
L 189.670999 373.047162 
L 189.444082 373.190255 
L 188.899341 373.527049 
L 188.661833 373.670895 
L 188.117092 373.994015 
L 187.869198 374.137897 
L 187.324457 374.447211 
L 187.066459 374.590396 
L 186.521719 374.885804 
L 186.253979 375.027544 
L 185.709239 375.308977 
L 185.432206 375.448521 
L 184.887465 375.715942 
L 184.601675 375.852544 
L 184.056934 376.105944 
L 183.76301 376.238876 
L 183.218269 376.478276 
L 182.916922 376.606833 
L 182.372181 376.83228 
L 182.064206 376.955799 
L 181.519465 377.167367 
L 181.205733 377.285231 
L 180.660993 377.483019 
L 180.342448 377.594671 
L 179.797707 377.778803 
L 179.475351 377.883754 
L 178.930611 378.054377 
L 178.605495 378.152214 
L 178.060754 378.309497 
L 177.733966 378.399893 
L 177.189225 378.544024 
L 176.861872 378.626737 
L 176.317131 378.757926 
L 175.990327 378.832806 
L 175.445586 378.951281 
L 175.120438 379.018267 
L 174.575697 379.124273 
L 174.253289 379.183394 
L 173.708548 379.277193 
L 173.389927 379.328561 
L 172.845187 379.410429 
L 172.531353 379.454237 
L 171.986612 379.524466 
L 171.678505 379.560978 
L 171.133765 379.619871 
L 170.832258 379.649414 
L 170.287517 379.697287 
L 169.993408 379.720246 
L 169.448667 379.757425 
L 169.162673 379.774224 
L 168.617933 379.801046 
L 168.340689 379.812148 
L 167.795948 379.828957 
L 167.528007 379.834848 
L 166.983266 379.841996 
L 166.725094 379.84318 
L 166.180353 379.841026 
L 165.932337 379.838011 
L 165.387596 379.826919 
L 165.150045 379.820215 
L 164.605304 379.800554 
L 164.378452 379.79066 
L 163.833711 379.762803 
L 163.617724 379.750208 
L 163.072983 379.71453 
L 162.867964 379.699701 
L 162.323224 379.656578 
L 162.129217 379.639962 
L 161.584476 379.589772 
L 161.401476 379.571789 
L 160.856735 379.51491 
L 160.684688 379.495949 
L 160.139947 379.432758 
L 159.97876 379.413183 
L 159.43402 379.344056 
L 159.283565 379.324195 
L 158.738825 379.249505 
L 158.598945 379.22966 
L 158.054205 379.149778 
L 157.924718 379.130216 
L 157.379977 379.045508 
L 157.260679 379.026468 
L 156.715938 378.937297 
L 156.606608 378.918988 
L 156.061867 378.82571 
L 155.96227 378.808313 
L 155.417529 378.711282 
L 155.327419 378.694949 
L 154.782679 378.59451 
L 154.701803 378.579371 
L 154.157062 378.475864 
L 154.085161 378.462021 
L 153.54042 378.355778 
L 153.477228 378.343314 
L 152.932487 378.23466 
L 152.877738 378.223634 
L 152.332997 378.112887 
L 152.286422 378.103341 
L 151.741681 377.990809 
L 151.70301 377.982768 
L 151.15827 377.868751 
L 151.127235 377.862221 
L 150.582494 377.747011 
L 150.558826 377.741985 
L 150.014085 377.625864 
L 149.997518 377.622323 
L 149.452777 377.505563 
L 148.898304 377.386339 
L 148.351973 377.268741 
L 147.813403 377.152932 
L 147.28075 377.038743 
L 146.753759 376.926325 
L 146.232173 376.815817 
L 145.715738 376.707341 
L 145.204201 376.601005 
L 144.697311 376.496906 
L 144.19482 376.395127 
L 143.696478 376.295741 
L 143.20204 376.198811 
L 142.711262 376.104389 
L 142.223899 376.012519 
L 141.739711 375.923238 
L 141.258459 375.836572 
L 140.779905 375.752545 
L 140.303814 375.671172 
L 139.829956 375.592462 
L 139.3581 375.516421 
L 138.888021 375.443048 
L 138.419496 375.372341 
L 137.952307 375.304292 
L 137.48624 375.238889 
L 137.021085 375.17612 
L 136.556639 375.115969 
L 136.092701 375.058416 
L 135.629078 375.003441 
L 135.165584 374.951022 
L 134.702036 374.901134 
L 134.238261 374.85375 
L 133.774091 374.808844 
L 133.309366 374.766387 
L 132.843932 374.726346 
L 132.377645 374.688692 
L 131.910367 374.65339 
L 131.441968 374.620405 
L 130.972326 374.589702 
L 130.501327 374.561244 
L 130.028866 374.53499 
L 129.554845 374.510902 
L 129.079174 374.488937 
L 128.601771 374.469053 
L 128.122561 374.451204 
L 127.641479 374.435345 
L 127.158464 374.421429 
L 126.673466 374.409406 
L 126.186441 374.399226 
L 125.697349 374.390838 
L 125.206161 374.384188 
L 124.712852 374.379223 
L 124.217403 374.375887 
L 123.719804 374.374123 
L 123.220047 374.373874 
L 122.718132 374.375082 
L 122.214062 374.377686 
L 121.707847 374.381628 
L 121.199501 374.386845 
L 120.689042 374.393277 
L 120.176492 374.400862 
L 119.661878 374.409539 
L 119.14523 374.419244 
L 118.626581 374.429917 
L 118.105967 374.441495 
L 117.583427 374.453917 
L 117.059004 374.467121 
L 116.532741 374.481047 
L 116.004685 374.495634 
L 115.474884 374.510825 
L 114.943389 374.526559 
L 114.41025 374.54278 
L 113.875521 374.559432 
L 113.339256 374.576459 
L 112.80151 374.593808 
L 112.262339 374.611428 
L 111.7218 374.629266 
L 111.179948 374.647275 
L 110.636842 374.665406 
L 110.092612 374.683611 
L 109.547725 374.701833 
L 109.001726 374.720047 
L 108.454674 374.738212 
L 107.906624 374.756291 
L 107.357634 374.774246 
L 106.807759 374.792043 
L 106.257055 374.80965 
L 105.705576 374.827036 
L 105.153375 374.844172 
L 104.600506 374.861032 
L 104.04702 374.87759 
L 103.492968 374.893824 
L 102.9384 374.909712 
L 102.383363 374.925236 
L 101.827905 374.940378 
L 101.272071 374.955121 
L 100.715907 374.969454 
L 100.159454 374.983362 
L 99.602755 374.996836 
L 99.04585 375.009867 
L 98.488776 375.022447 
L 97.931572 375.034571 
L 97.374272 375.046233 
L 96.816911 375.057431 
L 96.259521 375.068164 
L 95.702133 375.078429 
L 95.144776 375.088229 
L 94.587478 375.097565 
L 94.030266 375.10644 
L 93.473163 375.114857 
L 92.916194 375.122821 
L 92.359379 375.130338 
L 91.80274 375.137414 
L 91.246295 375.144057 
L 90.69006 375.150275 
L 90.134053 375.156075 
L 89.578288 375.161468 
L 89.022778 375.166462 
L 88.467534 375.171067 
L 87.912569 375.175295 
L 87.35789 375.179156 
L 86.803507 375.182661 
L 86.249427 375.185822 
L 85.695655 375.18865 
L 85.142197 375.191157 
L 84.589056 375.193355 
L 84.036236 375.195256 
L 83.483739 375.196873 
L 82.931565 375.198217 
L 82.379715 375.1993 
L 81.828188 375.200135 
L 81.276984 375.200734 
L 80.7261 375.201109 
L 80.175534 375.201271 
L 79.625282 375.201233 
L 79.07534 375.201005 
L 78.525704 375.200599 
L 77.976369 375.200027 
L 77.42733 375.199298 
L 76.87858 375.198424 
L 76.330114 375.197416 
L 75.781924 375.196283 
L 75.234004 375.195035 
L 74.686347 375.193683 
L 74.138945 375.192234 
L 73.59179 375.190699 
L 73.044874 375.189085 
L 72.49819 375.187402 
L 71.951729 375.185658 
L 70.46995 375.10812 
L 69.002906 374.885716 
L 67.564726 374.520587 
L 66.169259 374.01625 
L 64.829946 373.377562 
L 63.559685 372.610673 
L 62.370708 371.722971 
L 61.274467 370.723002 
L 60.281519 369.620399 
L 59.401426 368.425778 
L 58.642664 367.150646 
L 58.01254 365.807282 
L 57.517124 364.408624 
L 57.161185 362.968142 
L 56.948152 361.499708 
L 56.880077 360.017464 
L 56.957615 358.535685 
L 57.180019 357.068641 
L 57.545148 355.630461 
L 58.049485 354.234994 
L 58.688173 352.895681 
L 59.455061 351.62542 
L 60.342764 350.436443 
L 61.342733 349.340202 
L 62.445336 348.347254 
L 63.639957 347.467161 
L 64.915089 346.708399 
L 66.258453 346.078275 
L 67.65711 345.582858 
L 69.097593 345.22692 
L 70.566027 345.013887 
L 72.048271 344.945812 
L 72.592151 344.947548 
" style="fill:#29af7f;stroke:#000000;stroke-linejoin:miter;stroke-width:1.618034;"/>
   </g>
  </g>
 </g>
 <defs>
  <clipPath id="p893a2756cb">
   <rect height="720" width="720" x="0" y="0"/>
  </clipPath>
 </defs>
</svg>
