<?xml version="1.0" encoding="utf-8" standalone="no"?>
<!DOCTYPE svg PUBLIC "-//W3C//DTD SVG 1.1//EN"
  "http://www.w3.org/Graphics/SVG/1.1/DTD/svg11.dtd">
<!-- Created with matplotlib (https://matplotlib.org/) -->
<svg height="720pt" version="1.1" viewBox="0 0 720 720" width="720pt" xmlns="http://www.w3.org/2000/svg" xmlns:xlink="http://www.w3.org/1999/xlink">
 <defs>
  <style type="text/css">
*{stroke-linecap:butt;stroke-linejoin:round;}
  </style>
 </defs>
 <g id="figure_1">
  <g id="patch_1">
   <path d="M 0 720 
L 720 720 
L 720 0 
L 0 0 
z
" style="fill:none;"/>
  </g>
  <g id="axes_1">
   <g id="patch_2">
    <path clip-path="url(#p795a2cc879)" d="M 628.525165 360 
L 627.15477 387.895024 
L 623.056784 415.521403 
L 616.270672 442.613081 
L 606.861788 468.90915 
L 594.920745 494.156364 
L 580.562542 518.111579 
L 563.925455 540.544093 
L 545.16971 561.237869 
L 524.475934 579.993614 
L 502.04342 596.630701 
L 478.088205 610.988904 
L 452.840991 622.929947 
L 426.544922 632.338831 
L 399.453244 639.124943 
L 371.826865 643.222929 
L 343.931841 644.593324 
L 316.036817 643.222929 
L 288.410438 639.124943 
L 261.31876 632.338831 
L 235.022691 622.929947 
L 209.775477 610.988904 
L 185.820262 596.630701 
L 163.387748 579.993614 
L 142.693972 561.237869 
L 123.938227 540.544093 
L 107.301141 518.111579 
L 92.942937 494.156364 
L 81.001894 468.90915 
L 71.59301 442.613081 
L 64.806898 415.521403 
L 60.708912 387.895024 
L 59.338517 360 
L 60.708912 332.104976 
L 64.806898 304.478597 
L 71.59301 277.386919 
L 81.001894 251.09085 
L 92.942937 225.843636 
L 107.301141 201.888421 
L 123.938227 179.455907 
L 142.693972 158.762131 
L 163.387748 140.006386 
L 185.820262 123.369299 
L 209.775477 109.011096 
L 235.022691 97.070053 
L 261.31876 87.661169 
L 288.410438 80.875057 
L 316.036817 76.777071 
L 343.931841 75.406676 
L 371.826865 76.777071 
L 399.453244 80.875057 
L 426.544922 87.661169 
L 452.840991 97.070053 
L 478.088205 109.011096 
L 502.04342 123.369299 
L 524.475934 140.006386 
L 545.16971 158.762131 
L 563.925455 179.455907 
L 580.562542 201.888421 
L 594.920745 225.843636 
L 606.861788 251.09085 
L 616.270672 277.386919 
L 623.056784 304.478597 
L 627.15477 332.104976 
L 628.525165 360 
L 628.525165 360 
M 508.919536 360 
L 508.919536 360 
L 508.125075 343.828378 
L 505.749344 327.812497 
L 501.815221 312.1066 
L 496.360596 296.861943 
L 489.437998 282.225339 
L 481.114096 268.337748 
L 471.469054 255.332914 
L 460.595759 243.336082 
L 448.598927 232.462787 
L 435.594093 222.817745 
L 421.706502 214.493843 
L 407.069899 207.571246 
L 391.825241 202.11662 
L 376.119344 198.182497 
L 360.103463 195.806766 
L 343.931841 195.012305 
L 327.760219 195.806766 
L 311.744339 198.182497 
L 296.038441 202.11662 
L 280.793784 207.571246 
L 266.15718 214.493843 
L 252.269589 222.817745 
L 239.264755 232.462787 
L 227.267923 243.336082 
L 216.394628 255.332914 
L 206.749586 268.337748 
L 198.425685 282.225339 
L 191.503087 296.861943 
L 186.048461 312.1066 
L 182.114338 327.812497 
L 179.738607 343.828378 
L 178.944146 360 
L 179.738607 376.171622 
L 182.114338 392.187503 
L 186.048461 407.8934 
L 191.503087 423.138057 
L 198.425685 437.774661 
L 206.749586 451.662252 
L 216.394628 464.667086 
L 227.267923 476.663918 
L 239.264755 487.537213 
L 252.269589 497.182255 
L 266.15718 505.506157 
L 280.793784 512.428754 
L 296.038441 517.88338 
L 311.744339 521.817503 
L 327.760219 524.193234 
L 343.931841 524.987695 
L 360.103463 524.193234 
L 376.119344 521.817503 
L 391.825241 517.88338 
L 407.069899 512.428754 
L 421.706502 505.506157 
L 435.594093 497.182255 
L 448.598927 487.537213 
L 460.595759 476.663918 
L 471.469054 464.667086 
L 481.114096 451.662252 
L 489.437998 437.774661 
L 496.360596 423.138057 
L 501.815221 407.8934 
L 505.749344 392.187503 
L 508.125075 376.171622 
L 508.919536 360 
" style="fill:#2a788e;stroke:#000000;stroke-linejoin:miter;"/>
   </g>
   <g id="patch_3">
    <path clip-path="url(#p795a2cc879)" d="M 48.858411 344.546078 
L 49.4158 344.547794 
L 49.972955 344.549438 
L 50.529869 344.551 
L 51.086533 344.552474 
L 51.64294 344.553848 
L 52.19908 344.555115 
L 52.754947 344.556264 
L 53.310534 344.557286 
L 53.865833 344.558171 
L 54.420838 344.558908 
L 54.975542 344.559487 
L 55.529941 344.559897 
L 56.084028 344.560127 
L 56.637798 344.560167 
L 57.191248 344.560005 
L 57.744374 344.55963 
L 58.297172 344.559031 
L 58.84964 344.558196 
L 59.401777 344.557113 
L 59.953582 344.555772 
L 60.505054 344.554161 
L 61.056194 344.552267 
L 61.607004 344.550081 
L 62.157487 344.54759 
L 62.707646 344.544783 
L 63.257485 344.541649 
L 63.80701 344.538178 
L 64.356229 344.534358 
L 64.905148 344.53018 
L 65.453778 344.525633 
L 66.002128 344.520707 
L 66.55021 344.515393 
L 67.098037 344.509682 
L 67.645623 344.503566 
L 68.192984 344.497036 
L 68.740137 344.490084 
L 69.287101 344.482705 
L 69.833895 344.474891 
L 70.380542 344.466637 
L 70.927063 344.457938 
L 71.473485 344.448789 
L 72.019832 344.439188 
L 72.566133 344.429132 
L 73.112417 344.418618 
L 73.658715 344.407648 
L 74.205059 344.39622 
L 74.751483 344.384336 
L 75.298024 344.371998 
L 75.844718 344.359211 
L 76.391605 344.345979 
L 76.938723 344.332309 
L 77.486117 344.318207 
L 78.033828 344.303682 
L 78.581902 344.288746 
L 79.130384 344.273409 
L 79.679324 344.257685 
L 80.228769 344.241589 
L 80.778769 344.225138 
L 81.329377 344.208349 
L 81.880645 344.191244 
L 82.432626 344.173843 
L 82.985375 344.156172 
L 83.538948 344.138256 
L 84.0934 344.120123 
L 84.64879 344.101803 
L 85.205175 344.083328 
L 85.762612 344.064732 
L 86.32116 344.046053 
L 86.880355 344.027347 
L 87.440673 344.008642 
L 88.00225 343.989977 
L 88.565145 343.971401 
L 89.129416 343.95296 
L 89.695121 343.934708 
L 90.262318 343.916696 
L 90.831064 343.898982 
L 91.401415 343.881625 
L 91.973426 343.864686 
L 92.547151 343.84823 
L 92.563373 343.847773 
L 93.122642 343.832323 
L 93.14068 343.831836 
L 93.69995 343.817036 
L 93.719853 343.816522 
L 94.279123 343.802441 
L 94.300938 343.801907 
L 94.860208 343.788612 
L 94.883979 343.788065 
L 95.443249 343.775628 
L 95.469018 343.775076 
L 96.028287 343.763567 
L 96.056093 343.76302 
L 96.615363 343.752514 
L 96.645241 343.751981 
L 97.20451 343.742552 
L 97.236493 343.742046 
L 97.795763 343.733769 
L 97.829879 343.733301 
L 98.389149 343.726254 
L 98.425424 343.72584 
L 98.984694 343.7201 
L 99.023149 343.719753 
L 99.582419 343.715398 
L 99.62307 343.715135 
L 100.18234 343.712245 
L 100.2252 343.712083 
L 100.784469 343.710737 
L 100.829544 343.710694 
L 101.388814 343.710973 
L 101.436106 343.711068 
L 101.995375 343.713051 
L 102.04488 343.713305 
L 102.60415 343.717071 
L 102.655859 343.717505 
L 103.215129 343.723134 
L 103.269026 343.72377 
L 103.828296 343.731342 
L 103.88436 343.732202 
L 104.443629 343.741794 
L 104.501832 343.742901 
L 105.061101 343.754591 
L 105.121407 343.755969 
L 105.680676 343.769833 
L 105.743043 343.771504 
L 106.302312 343.787618 
L 106.366691 343.789607 
L 106.92596 343.808043 
L 106.992293 343.810372 
L 107.551563 343.831202 
L 107.619787 343.833894 
L 108.179057 343.857188 
L 108.249099 343.860264 
L 108.808368 343.886089 
L 108.880148 343.88957 
L 109.439418 343.91799 
L 109.512848 343.921896 
L 110.072118 343.952973 
L 110.147102 343.957322 
L 110.706371 343.991114 
L 110.782804 343.995921 
L 111.342074 344.032484 
L 111.419843 344.037764 
L 111.979113 344.077147 
L 112.058097 344.082912 
L 112.617367 344.125164 
L 112.697438 344.131422 
L 113.256707 344.176585 
L 113.337727 344.183341 
L 113.896997 344.231454 
L 113.97882 344.238711 
L 114.53809 344.289806 
L 114.620564 344.297563 
L 115.179833 344.35167 
L 115.262797 344.359921 
L 115.822067 344.417061 
L 115.905352 344.425797 
L 116.464622 344.485987 
L 116.548052 344.495194 
L 117.107322 344.558445 
L 117.190716 344.568105 
L 117.749986 344.634421 
L 117.833154 344.644511 
L 118.392424 344.71389 
L 118.475171 344.724381 
L 119.03444 344.796813 
L 119.116564 344.807672 
L 119.675834 344.883141 
L 119.757127 344.89433 
L 120.316397 344.972811 
L 120.396647 344.984286 
L 120.955917 345.065748 
L 121.034907 345.077461 
L 121.594176 345.161863 
L 121.671684 345.17376 
L 122.230953 345.261054 
L 122.306752 345.273077 
L 122.866021 345.363206 
L 122.939881 345.375291 
L 123.49915 345.468188 
L 123.570837 345.480268 
L 124.130107 345.575858 
L 124.199384 345.587861 
L 124.758654 345.68606 
L 124.825282 345.697909 
L 125.384551 345.798624 
L 125.448288 345.810239 
L 126.007558 345.913365 
L 126.068158 345.924664 
L 126.627428 346.030089 
L 126.684646 346.040986 
L 127.243916 346.148585 
L 127.297502 346.158992 
L 127.856772 346.268632 
L 127.906477 346.278461 
L 128.465747 346.389998 
L 128.511318 346.399157 
L 129.070587 346.512436 
L 129.111771 346.520836 
L 129.67104 346.635692 
L 129.707581 346.643242 
L 130.26685 346.759501 
L 130.298491 346.766112 
L 130.857761 346.883586 
L 130.884243 346.889172 
L 131.443512 347.007664 
L 131.464576 347.012142 
L 132.023846 347.131445 
L 132.039229 347.134735 
L 132.598499 347.254631 
L 133.167208 347.376917 
L 133.728084 347.497646 
L 134.280734 347.616482 
L 134.826504 347.733462 
L 135.36512 347.848277 
L 135.89631 347.960622 
L 136.419799 348.070191 
L 136.935312 348.176685 
L 137.44257 348.279812 
L 137.9413 348.379289 
L 138.431224 348.474841 
L 138.912072 348.566208 
L 139.383573 348.653143 
L 139.845464 348.735417 
L 140.297488 348.812818 
L 140.739399 348.885157 
L 141.170963 348.952266 
L 141.591961 349.014003 
L 142.002196 349.07025 
L 142.401492 349.120921 
L 142.789702 349.165954 
L 143.166713 349.205319 
L 143.532451 349.239017 
L 143.886883 349.267075 
L 144.23003 349.289549 
L 144.561966 349.306524 
L 144.88283 349.318105 
L 145.192826 349.324416 
L 145.492233 349.3256 
L 145.781408 349.321806 
L 146.060789 349.313185 
L 146.330899 349.299885 
L 146.592348 349.282041 
L 146.84583 349.259764 
L 147.092123 349.233137 
L 147.332085 349.202201 
L 147.566647 349.166949 
L 147.796806 349.127318 
L 148.023613 349.083182 
L 148.248163 349.034344 
L 148.471583 348.980539 
L 148.695012 348.921423 
L 148.919592 348.85658 
L 149.146452 348.785523 
L 149.376688 348.707699 
L 149.611357 348.622494 
L 149.851457 348.529243 
L 150.09792 348.427241 
L 150.351603 348.315754 
L 150.613277 348.194029 
L 150.88363 348.061309 
L 151.163254 347.916845 
L 151.452656 347.759905 
L 151.75225 347.58979 
L 152.062368 347.40584 
L 152.383258 347.207445 
L 152.715096 346.994051 
L 153.057989 346.76517 
L 153.411987 346.520379 
L 153.777084 346.259329 
L 154.153234 345.981743 
L 154.540353 345.687421 
L 154.938329 345.376237 
L 155.347031 345.04814 
L 155.766316 344.703151 
L 156.196032 344.341361 
L 156.63603 343.962932 
L 157.086166 343.568087 
L 157.546308 343.157113 
L 158.016343 342.730353 
L 158.496179 342.288205 
L 158.985752 341.831116 
L 159.485032 341.359579 
L 159.994024 340.874131 
L 160.512777 340.375342 
L 161.041388 339.86382 
L 161.580007 339.340202 
L 162.128847 338.805148 
L 162.685486 338.261976 
L 163.250151 337.711505 
L 163.266598 337.695495 
L 163.825867 337.151897 
L 163.853845 337.124771 
L 164.413115 336.583896 
L 164.453204 336.545264 
L 165.012474 336.008258 
L 165.065365 335.957711 
L 165.624635 335.425748 
L 165.691144 335.362859 
L 166.250413 334.837142 
L 166.331496 334.761468 
L 166.890765 334.243228 
L 166.987536 334.154315 
L 167.546806 333.644806 
L 167.660559 333.542197 
L 168.219829 333.042699 
L 168.352059 332.925945 
L 168.911328 332.437757 
L 169.063755 332.306434 
L 169.623025 331.830876 
L 169.79762 331.684608 
L 170.35689 331.223016 
L 170.555907 331.061501 
L 171.115176 330.615227 
L 171.341174 330.438285 
L 171.900444 330.008692 
L 172.156314 329.816312 
L 172.715584 329.404774 
L 173.004571 329.197186 
L 173.563841 328.805085 
L 173.889552 328.582847 
L 174.448822 328.211569 
L 174.815216 327.975675 
L 175.374486 327.626608 
L 175.785838 327.378623 
L 176.345108 327.053155 
L 176.805936 326.795366 
L 177.365205 326.494881 
L 177.88013 326.230473 
L 178.4394 325.956348 
L 179.012941 325.689581 
L 179.57221 325.443184 
L 180.208479 325.179558 
L 180.767749 324.962244 
L 181.470041 324.708621 
L 182.029311 324.521727 
L 182.799584 324.286353 
L 183.358853 324.131199 
L 184.197126 323.923574 
L 184.756395 323.801457 
L 185.660115 323.632002 
L 186.219385 323.544192 
L 187.182872 323.423658 
L 187.742142 323.371397 
L 188.756241 323.310025 
L 189.315511 323.29452 
L 190.367597 323.301021 
L 190.926866 323.323445 
L 192.001314 323.403947 
L 192.560584 323.465431 
L 193.639729 323.622605 
L 194.198999 323.724237 
L 195.264479 323.956796 
L 195.823749 324.099619 
L 196.858006 324.402348 
L 197.417275 324.587353 
L 198.404938 324.951666 
L 198.964208 325.179789 
L 199.893119 325.594691 
L 200.452389 325.866814 
L 201.314119 326.320061 
L 201.873389 326.637001 
L 202.663254 327.116219 
L 203.222524 327.478731 
L 203.939189 327.972331 
L 204.498459 328.381102 
L 205.143307 328.878899 
L 205.702577 329.334545 
L 206.278986 329.828078 
L 206.838256 330.33114 
L 207.350908 330.813746 
L 207.910178 331.364689 
L 208.364474 331.8314 
L 208.923743 332.430607 
L 209.325346 332.877948 
L 209.884616 333.525717 
L 210.239128 333.951455 
L 210.798397 334.648001 
L 211.111144 335.050897 
L 211.670414 335.796343 
L 211.946324 336.17592 
L 212.505594 336.970296 
L 212.749137 337.326643 
L 213.308406 338.169886 
L 213.523575 338.503492 
L 214.082845 339.395441 
L 214.273173 339.70707 
L 214.832443 340.647464 
L 215.001031 340.938051 
L 215.560301 341.926528 
L 215.709855 342.197108 
L 216.269125 343.233201 
L 216.401998 343.484852 
L 216.961268 344.567989 
L 217.079502 344.801792 
L 217.638772 345.931293 
L 217.744134 346.148308 
L 218.303404 347.323385 
L 218.397424 347.524628 
L 218.956694 348.744383 
L 219.040694 348.930817 
L 219.599964 350.19424 
L 219.675089 350.366769 
L 220.234359 351.672736 
L 220.301598 351.832199 
L 220.860867 353.179477 
L 220.921077 353.326647 
L 221.480347 354.713887 
L 221.53427 354.849473 
L 222.093539 356.275213 
L 222.141816 356.399861 
L 222.701086 357.862526 
L 222.744272 357.976819 
L 223.303542 359.474721 
L 223.342119 359.579184 
L 223.901389 361.110521 
L 223.935771 361.205624 
L 224.495041 362.768482 
L 224.525587 362.854639 
L 225.084856 364.446994 
L 225.111871 364.524567 
L 225.671141 366.144285 
L 225.694887 366.213587 
L 226.254157 367.858425 
L 226.274856 367.919721 
L 226.834126 369.58733 
L 226.851962 369.640835 
L 227.411231 371.328763 
L 227.426356 371.374648 
L 227.985625 373.080339 
L 227.998158 373.118729 
L 228.557427 374.839527 
L 228.567458 374.870499 
L 229.126727 376.603655 
L 229.134317 376.62724 
L 229.693587 378.369907 
L 229.698769 378.386087 
L 230.258039 380.135332 
L 230.820089 381.896839 
L 231.378648 383.647865 
L 231.934505 385.387709 
L 232.265748 386.420965 
L 232.666984 384.375259 
L 233.208328 381.516826 
L 233.751844 378.551285 
L 234.297238 375.482914 
L 234.844265 372.316115 
L 235.392722 369.055436 
L 235.942437 365.705575 
L 236.493269 362.271388 
L 237.045097 358.757894 
L 237.597819 355.170279 
L 238.151351 351.513894 
L 238.705621 347.794252 
L 239.260569 344.017033 
L 239.816147 340.188071 
L 240.372314 336.313357 
L 240.929037 332.399025 
L 241.486293 328.451352 
L 242.044062 324.476744 
L 242.602335 320.481731 
L 243.161105 316.472954 
L 243.72025 312.458059 
L 244.279771 308.44391 
L 244.839807 304.436527 
L 245.400376 300.442896 
L 245.961504 296.470049 
L 245.96396 296.452736 
L 246.523229 292.525048 
L 246.526327 292.503402 
L 247.085597 288.61497 
L 247.089396 288.588717 
L 247.648666 284.746885 
L 247.653238 284.715696 
L 248.212508 280.927839 
L 248.217945 280.891317 
L 248.777214 277.164825 
L 248.783627 277.122495 
L 249.342896 273.464762 
L 249.350422 273.416059 
L 249.909692 269.834466 
L 249.918503 269.778709 
L 250.477772 266.280613 
L 250.48808 266.216988 
L 251.04735 262.809704 
L 251.059422 262.73723 
L 251.618692 259.428018 
L 251.632865 259.345505 
L 252.192135 256.141556 
L 252.208841 256.047558 
L 252.768111 252.955976 
L 252.787903 252.848717 
L 253.347173 249.876508 
L 253.370776 249.75379 
L 253.930046 246.907843 
L 253.958418 246.76692 
L 254.517687 244.053998 
L 254.552116 243.891399 
L 255.111385 241.318119 
L 255.153632 241.129408 
L 255.712902 238.702227 
L 255.765426 238.481653 
L 256.324695 236.206855 
L 256.391007 235.946849 
L 256.950277 233.830531 
L 257.035518 233.520969 
L 257.594788 231.569023 
L 257.706712 231.196115 
L 258.265982 229.41422 
L 258.416678 228.958832 
L 258.975948 227.352434 
L 259.184992 226.787534 
L 259.744262 225.361836 
L 260.044741 224.648673 
L 260.604011 223.408622 
L 261.054514 222.491529 
L 261.613784 221.441802 
L 262.323016 220.243431 
L 262.882286 219.388422 
L 264.058834 217.816553 
L 264.618104 217.160361 
L 265.590618 216.120016 
L 266.654382 215.173173 
L 267.213652 214.719594 
L 268.314553 213.904552 
L 269.483017 213.189731 
L 270.709947 212.580699 
L 271.269217 212.333209 
L 272.527636 211.840653 
L 273.824126 211.459412 
L 275.148861 211.192375 
L 276.4918 211.041565 
L 277.05107 211.003314 
L 278.484516 210.971644 
L 279.91477 211.072367 
L 281.329629 211.304624 
L 282.717025 211.666434 
L 283.276294 211.840233 
L 284.759901 212.385552 
L 286.180362 213.078916 
L 287.522949 213.913136 
L 288.082219 214.30145 
L 289.415025 215.338693 
L 290.627263 216.514585 
L 291.186533 217.119522 
L 291.941653 218.000154 
L 292.628901 218.934717 
L 293.188171 219.75802 
L 294.028119 221.145265 
L 294.587389 222.188306 
L 295.10201 223.241774 
L 295.66128 224.505543 
L 295.993226 225.316786 
L 296.552496 226.801889 
L 296.776602 227.438636 
L 297.335872 229.145287 
L 297.493167 229.65468 
L 298.052436 231.582697 
L 298.166514 231.997349 
L 298.725783 234.146147 
L 298.810839 234.488893 
L 299.370109 236.857485 
L 299.435035 237.144604 
L 299.994305 239.731596 
L 300.044873 239.97492 
L 300.604143 242.778508 
L 300.644216 242.986802 
L 301.203486 246.004773 
L 301.235724 246.184642 
L 301.794994 249.414371 
L 301.821272 249.570878 
L 302.380541 253.009331 
L 302.402209 253.146408 
L 302.961478 256.790144 
L 302.979526 256.910892 
L 303.538796 260.756062 
L 303.553963 260.862951 
L 304.113233 264.905303 
L 304.12608 265.000326 
L 304.68535 269.235209 
L 304.696308 269.319986 
L 305.255578 273.742355 
L 305.264982 273.818218 
L 305.824252 278.422636 
L 305.832365 278.490686 
L 306.391635 283.271336 
L 306.398666 283.332492 
L 306.957936 288.28318 
L 306.964054 288.338212 
L 307.523323 293.452376 
L 307.528662 293.501934 
L 308.087932 298.772654 
L 308.092603 298.817287 
L 308.651872 304.237293 
L 308.655965 304.277469 
L 309.215235 309.839153 
L 309.218824 309.875272 
L 309.778094 315.570696 
L 309.781242 315.603098 
L 310.340511 321.424012 
L 310.343268 321.452989 
L 310.902538 327.390836 
L 310.904946 327.416638 
L 311.464216 333.462575 
L 311.466311 333.485413 
L 312.025581 339.630318 
L 312.027393 339.650374 
L 312.586663 345.884867 
L 312.588216 345.902293 
L 313.147486 352.216748 
L 313.70807 358.61623 
L 314.268432 365.073352 
L 314.828584 371.577931 
L 315.388537 378.11959 
L 315.948298 384.687774 
L 316.507872 391.271769 
L 317.06723 397.860342 
L 317.626341 404.442183 
L 318.185264 411.006916 
L 318.743991 417.54338 
L 319.302514 424.040351 
L 319.860821 430.486564 
L 320.418896 436.870729 
L 320.976719 443.18155 
L 321.534266 449.407746 
L 321.598606 450.115555 
L 321.920264 446.184315 
L 322.477578 439.229835 
L 323.035153 432.140262 
L 323.59296 424.927404 
L 324.150976 417.603258 
L 324.709183 410.18 
L 325.267563 402.669958 
L 325.826106 395.085598 
L 326.384801 387.4395 
L 326.94364 379.744337 
L 327.502617 372.012855 
L 328.061729 364.257847 
L 328.620953 356.492415 
L 329.180263 348.729733 
L 329.739706 340.981974 
L 330.299284 333.261898 
L 330.859 325.582194 
L 331.418862 317.955458 
L 331.978876 310.394167 
L 332.539053 302.910651 
L 333.099407 295.517075 
L 333.100682 295.500365 
L 333.659952 288.225407 
L 333.661439 288.206221 
L 334.220708 281.047399 
L 334.22243 281.025556 
L 334.7817 273.994554 
L 334.783686 273.969841 
L 335.342955 267.078109 
L 335.345239 267.050275 
L 335.904509 260.309001 
L 335.907133 260.277748 
L 336.466403 253.697842 
L 336.46942 253.662821 
L 337.028689 247.254892 
L 337.032161 247.215689 
L 337.591431 240.990029 
L 337.595435 240.94615 
L 338.154705 234.912713 
L 338.159339 234.863572 
L 338.718609 229.031956 
L 338.723993 228.976847 
L 339.283263 223.356277 
L 339.28955 223.294349 
L 339.84882 217.893662 
L 339.856205 217.823881 
L 340.415475 212.651505 
L 340.424211 212.572601 
L 340.983481 207.636548 
L 340.993897 207.546946 
L 341.553166 202.854794 
L 341.565701 202.752524 
L 342.12497 198.3114 
L 342.140214 198.193963 
L 342.699484 194.010538 
L 342.718251 193.874723 
L 343.277521 189.955195 
L 343.300955 189.796808 
L 343.860225 186.146895 
L 343.88997 185.960362 
L 344.449239 182.585291 
L 344.487727 182.363052 
L 345.046996 179.267552 
L 345.097938 178.999118 
L 345.657208 176.18741 
L 345.726488 175.857835 
L 346.285757 173.33363 
L 346.383118 172.92097 
L 346.942387 170.687458 
L 347.084835 170.158383 
L 347.644105 168.218232 
L 347.863262 167.520204 
L 348.422532 165.875558 
L 348.78183 164.922718 
L 349.3411 163.575192 
L 349.979576 162.224395 
L 350.538845 161.175077 
L 351.127353 160.16455 
L 351.790261 159.201193 
L 352.349531 158.45064 
L 353.168031 157.443037 
L 354.067858 156.507346 
L 355.042719 155.65011 
L 355.601989 155.198351 
L 356.894162 154.260157 
L 358.275881 153.459674 
L 359.732524 152.805373 
L 361.248678 152.304178 
L 361.807948 152.150716 
L 363.382681 151.805422 
L 364.984734 151.625312 
L 366.596828 151.612326 
L 368.201575 151.766607 
L 369.781666 152.086489 
L 370.340936 152.230305 
L 371.875015 152.710737 
L 373.351183 153.347244 
L 374.753609 154.133002 
L 376.067253 155.059583 
L 376.626522 155.499137 
L 377.6208 156.350797 
L 378.53978 157.283205 
L 379.376926 158.289732 
L 379.936196 159.022971 
L 380.614778 159.986389 
L 381.218323 160.998507 
L 381.777593 162.02287 
L 382.433431 163.376109 
L 382.992701 164.688533 
L 383.362779 165.643107 
L 383.922049 167.240036 
L 384.148447 167.939107 
L 384.707717 169.816501 
L 384.855325 170.346107 
L 385.414595 172.499452 
L 385.515801 172.912271 
L 386.07507 175.336589 
L 386.147313 175.666044 
L 386.706582 178.355904 
L 386.759866 178.624 
L 387.319136 181.573531 
L 387.359512 181.795251 
L 387.918782 184.998156 
L 387.950074 185.184015 
L 388.509343 188.633584 
L 388.53406 188.791158 
L 389.09333 192.480283 
L 389.113171 192.615155 
L 389.672441 196.536347 
L 389.688589 196.652717 
L 390.247859 200.798117 
L 390.261159 200.899202 
L 390.820428 205.260604 
L 390.831494 205.348903 
L 391.390764 209.917768 
L 391.400051 209.995252 
L 391.95932 214.762726 
L 391.967173 214.830967 
L 392.526442 219.7879 
L 392.533123 219.848167 
L 393.092393 224.985132 
L 393.098105 225.038456 
L 393.657375 230.345767 
L 393.662278 230.392996 
L 394.221548 235.86073 
L 394.22577 235.902564 
L 394.785039 241.52058 
L 394.78868 241.5576 
L 395.34795 247.315559 
L 395.35109 247.348252 
L 395.91036 253.235637 
L 395.913066 253.264411 
L 396.472336 259.270549 
L 396.474661 259.295746 
L 397.033931 265.409829 
L 397.03592 265.431738 
L 397.595189 271.642843 
L 397.596876 271.661707 
L 398.156146 277.958819 
L 398.157561 277.974841 
L 398.71683 284.346872 
L 399.277266 290.796034 
L 399.837472 297.295279 
L 400.397463 303.833544 
L 400.957251 310.399759 
L 401.516845 316.982863 
L 402.076226 323.571542 
L 402.635355 330.154323 
L 403.194298 336.721104 
L 403.753054 343.261083 
L 404.311618 349.763572 
L 404.869981 356.218016 
L 405.428132 362.614016 
L 405.98606 368.941339 
L 406.543746 375.189939 
L 407.101171 381.349969 
L 407.658309 387.411795 
L 408.215129 393.366012 
L 408.771597 399.203449 
L 409.327668 404.915184 
L 409.88329 410.492549 
L 410.4384 415.927137 
L 410.942156 420.72709 
L 410.948273 420.684288 
L 411.505155 416.752905 
L 412.06263 412.789946 
L 412.620661 408.802788 
L 413.179224 404.798692 
L 413.73827 400.785006 
L 414.297599 396.7701 
L 414.857426 392.759242 
L 415.417751 388.759152 
L 415.978579 384.776385 
L 416.539923 380.817325 
L 416.542532 380.799006 
L 417.101802 376.88817 
L 417.10497 376.866128 
L 417.664239 372.994926 
L 417.668 372.969047 
L 418.22727 369.143396 
L 418.231665 369.113536 
L 418.790935 365.339171 
L 418.796014 365.305152 
L 419.355284 361.587617 
L 419.361108 361.549227 
L 419.920378 357.893869 
L 419.92702 357.850856 
L 420.48629 354.262815 
L 420.493837 354.214887 
L 421.053107 350.699094 
L 421.061662 350.645907 
L 421.620932 347.207075 
L 421.630618 347.148234 
L 422.189887 343.790855 
L 422.200849 343.725901 
L 422.760119 340.454239 
L 422.77253 340.382642 
L 423.3318 337.20073 
L 423.345869 337.12188 
L 423.905139 334.033516 
L 423.921114 333.946704 
L 424.480384 330.955448 
L 424.498567 330.859856 
L 425.057837 327.969027 
L 425.078591 327.863702 
L 425.637861 325.076377 
L 425.661631 324.960212 
L 426.220901 322.279222 
L 426.248231 322.150921 
L 426.807501 319.578853 
L 426.839065 319.436898 
L 427.398334 316.976092 
L 427.434969 316.818692 
L 427.994239 314.471244 
L 428.036997 314.296282 
L 428.596267 312.064039 
L 428.64648 311.868997 
L 429.205749 309.753564 
L 429.26512 309.535436 
L 429.824389 307.538174 
L 429.895116 307.293352 
L 430.454386 305.415379 
L 430.53934 305.139513 
L 431.09861 303.381712 
L 431.201585 303.069537 
L 431.760855 301.432552 
L 431.886921 301.077686 
L 432.446191 299.561927 
L 432.602211 299.156623 
L 433.161481 297.762273 
L 433.356868 297.297163 
L 433.916137 296.024179 
L 434.163951 295.488053 
L 434.72322 294.33617 
L 435.041784 293.715906 
L 435.601054 292.684645 
L 436.016271 291.96559 
L 436.575541 291.054258 
L 437.124077 290.221637 
L 437.683347 289.429337 
L 438.416554 288.471856 
L 438.975824 287.797491 
L 439.963251 286.715158 
L 440.522521 286.157437 
L 441.851225 284.97619 
L 442.410495 284.533634 
L 444.171339 283.327377 
L 444.730609 282.998326 
L 445.832683 282.40831 
L 446.978658 281.908884 
L 447.537928 281.691505 
L 448.86451 281.243629 
L 450.226052 280.917106 
L 450.785322 280.809397 
L 452.24373 280.599733 
L 453.715448 280.529283 
L 454.274717 280.529083 
L 455.715828 280.595605 
L 457.14454 280.795623 
L 457.70381 280.90062 
L 458.989227 281.199011 
L 460.244658 281.605495 
L 460.803928 281.81323 
L 461.862033 282.251315 
L 462.884961 282.766214 
L 463.44423 283.074092 
L 465.06714 284.103288 
L 465.62641 284.508584 
L 466.862054 285.504203 
L 467.421324 286.00407 
L 468.356033 286.912927 
L 468.915303 287.504406 
L 469.625263 288.309253 
L 470.184533 288.98928 
L 470.729042 289.691391 
L 471.288312 290.456803 
L 471.711066 291.065357 
L 472.270335 291.912904 
L 472.602835 292.439473 
L 473.162105 293.365823 
L 473.426955 293.821841 
L 473.986225 294.823591 
L 474.199712 295.219344 
L 474.758981 296.293025 
L 474.932943 296.637372 
L 475.492213 297.77946 
L 475.635348 298.079867 
L 476.194618 299.286788 
L 476.313396 299.549482 
L 476.872665 300.817623 
L 476.971954 301.047776 
L 477.531224 302.373493 
L 477.61473 302.575396 
L 478.174 303.955018 
L 478.244577 304.132239 
L 478.803847 305.562081 
L 478.863713 305.717591 
L 479.422982 307.193956 
L 479.473879 307.330237 
L 480.033149 308.849428 
L 480.076454 308.96856 
L 480.635724 310.526883 
L 480.672537 310.630612 
L 481.231806 312.224389 
L 481.263007 312.314183 
L 481.822277 313.939754 
L 481.848576 314.016852 
L 482.407846 315.670582 
L 482.429817 315.736028 
L 482.989087 317.414316 
L 483.007194 317.46899 
L 483.566464 319.168272 
L 483.581081 319.212914 
L 484.140351 320.929673 
L 484.151781 320.964901 
L 484.711051 322.69567 
L 484.719533 322.721999 
L 485.278802 324.463367 
L 485.284524 324.48122 
L 485.843794 326.229839 
L 486.406168 327.992146 
L 486.965103 329.744443 
L 487.521318 331.485851 
L 488.07513 333.21436 
L 488.62653 334.927065 
L 489.175482 336.621099 
L 489.721922 338.29364 
L 490.265756 339.941911 
L 490.806861 341.563188 
L 491.345081 343.154805 
L 491.880228 344.714148 
L 492.412077 346.238664 
L 492.94036 347.725858 
L 493.464764 349.173295 
L 493.984927 350.578597 
L 494.500425 351.939443 
L 495.010769 353.25357 
L 495.515395 354.518765 
L 496.013648 355.732869 
L 496.504775 356.893773 
L 496.987903 357.999416 
L 497.462025 359.047784 
L 497.925978 360.036912 
L 498.378414 360.964887 
L 498.817778 361.829854 
L 499.242272 362.630026 
L 499.583775 363.244812 
L 499.742806 363.100981 
L 500.207088 362.673418 
L 500.686931 362.224699 
L 501.181239 361.756519 
L 501.689071 361.270532 
L 502.209627 360.768353 
L 502.742228 360.251544 
L 503.286306 359.721621 
L 503.840784 359.180635 
L 504.401266 358.63391 
L 504.412935 358.622539 
L 504.972204 358.078142 
L 504.994061 358.056908 
L 505.553331 357.514645 
L 505.585172 357.48386 
L 506.144441 356.944683 
L 506.186124 356.904648 
L 506.745394 356.369474 
L 506.796827 356.320482 
L 507.356096 355.79019 
L 507.417237 355.732531 
L 507.976507 355.20796 
L 508.047353 355.141923 
L 508.606623 354.623873 
L 508.687211 354.54975 
L 509.246481 354.038982 
L 509.336879 353.957073 
L 509.896148 353.454308 
L 509.99645 353.364922 
L 510.55572 352.870842 
L 510.666043 352.774302 
L 511.225312 352.289548 
L 511.345789 352.186197 
L 511.905059 351.711371 
L 512.035835 351.601572 
L 512.595105 351.137235 
L 512.736332 351.021377 
L 513.295602 350.568051 
L 513.447429 350.446552 
L 514.006699 350.004718 
L 514.16927 349.878027 
L 514.72854 349.44813 
L 514.901986 349.316729 
L 515.461255 348.899171 
L 515.645684 348.763581 
L 516.204953 348.358728 
L 516.400445 348.219503 
L 516.959715 347.827683 
L 517.166312 347.685417 
L 517.725582 347.306921 
L 517.943285 347.162244 
L 518.502554 346.797325 
L 518.731308 346.650902 
L 519.290578 346.299779 
L 519.530268 346.152308 
L 520.089537 345.815162 
L 520.33998 345.667368 
L 520.899249 345.34435 
L 521.160186 345.19698 
L 521.719455 344.888203 
L 521.990546 344.742022 
L 522.549816 344.447569 
L 522.830635 344.303347 
L 523.389904 344.023268 
L 523.679936 343.881773 
L 524.239206 343.616089 
L 524.537845 343.478078 
L 525.097115 343.22678 
L 525.403666 343.092986 
L 525.962936 342.856035 
L 526.276615 342.727158 
L 526.835885 342.504487 
L 527.155826 342.38118 
L 527.715096 342.172699 
L 528.040358 342.055558 
L 528.599628 341.861149 
L 528.929205 341.750704 
L 529.488474 341.570225 
L 529.821304 341.46693 
L 530.380574 341.300217 
L 530.715552 341.204442 
L 531.274822 341.051308 
L 531.610819 340.963337 
L 532.170089 340.823575 
L 532.505961 340.743598 
L 533.06523 340.616981 
L 533.399837 340.545096 
L 533.959106 340.431379 
L 534.291323 340.367591 
L 534.850593 340.266512 
L 535.179329 340.210738 
L 535.738599 340.122018 
L 536.062808 340.074091 
L 536.622077 339.997438 
L 536.940769 339.957113 
L 537.500039 339.892219 
L 537.812289 339.859184 
L 538.371559 339.80573 
L 538.67652 339.779614 
L 539.235789 339.737268 
L 539.532691 339.717648 
L 540.091961 339.68607 
L 540.380119 339.672485 
L 540.939389 339.651324 
L 541.218205 339.643282 
L 541.777475 339.632179 
L 542.046434 339.62917 
L 542.605704 339.627759 
L 542.86438 339.629261 
L 543.423649 339.637171 
L 543.671694 339.642662 
L 544.230963 339.659514 
L 544.468107 339.668475 
L 545.027377 339.69389 
L 545.253422 339.705815 
L 545.812692 339.739408 
L 546.027511 339.753807 
L 546.58678 339.795192 
L 546.790303 339.811599 
L 547.349573 339.860388 
L 547.541788 339.878362 
L 548.101058 339.934167 
L 548.282002 339.953294 
L 548.841272 340.015728 
L 549.011024 340.035625 
L 549.570294 340.104302 
L 549.728973 340.124618 
L 550.288243 340.199153 
L 550.436 340.219568 
L 550.99527 340.299579 
L 551.132283 340.319805 
L 551.691552 340.404915 
L 551.818022 340.424695 
L 552.377292 340.514529 
L 552.493439 340.533638 
L 553.052709 340.627828 
L 553.158769 340.646069 
L 553.718039 340.744251 
L 553.814261 340.761455 
L 554.373531 340.863272 
L 554.460171 340.879299 
L 555.019441 340.984398 
L 555.096765 340.999133 
L 555.656035 341.107171 
L 555.724313 341.120519 
L 556.283583 341.23116 
L 556.343087 341.243053 
L 556.902357 341.355967 
L 556.953363 341.366354 
L 557.512633 341.481221 
L 557.555418 341.490072 
L 558.114688 341.606581 
L 558.149527 341.61388 
L 558.708797 341.731728 
L 558.735967 341.737478 
L 559.295237 341.856371 
L 559.315012 341.860589 
L 559.874282 341.980243 
L 560.446206 342.103098 
L 561.010892 342.224629 
L 561.566231 342.344119 
L 562.115391 342.462012 
L 562.658638 342.578143 
L 563.196235 342.692367 
L 563.728443 342.804551 
L 564.255524 342.914579 
L 564.777734 343.022347 
L 565.295331 343.127764 
L 565.80857 343.230752 
L 566.317703 343.331242 
L 566.822984 343.429177 
L 567.324663 343.524508 
L 567.822987 343.617195 
L 568.318203 343.707206 
L 568.810555 343.794516 
L 569.300286 343.879107 
L 569.787635 343.960967 
L 570.272838 344.040088 
L 570.756128 344.116469 
L 571.237735 344.190112 
L 571.717885 344.261023 
L 572.196799 344.329212 
L 572.674694 344.394691 
L 573.151783 344.457476 
L 573.628271 344.517586 
L 574.10436 344.57504 
L 574.580245 344.629862 
L 575.056113 344.682075 
L 575.532148 344.731706 
L 576.008522 344.778783 
L 576.485405 344.823334 
L 576.962955 344.865391 
L 577.441325 344.904986 
L 577.92066 344.942153 
L 578.401095 344.976927 
L 578.882758 345.009343 
L 579.365771 345.039441 
L 579.850245 345.067259 
L 580.336282 345.092838 
L 580.82398 345.11622 
L 581.313424 345.137449 
L 581.804694 345.156571 
L 582.297862 345.173631 
L 582.792991 345.188679 
L 583.290137 345.201763 
L 583.789348 345.212934 
L 584.290666 345.222246 
L 584.794126 345.229752 
L 585.299754 345.235507 
L 585.807571 345.239567 
L 586.317593 345.24199 
L 586.829829 345.242836 
L 587.344281 345.242163 
L 587.860947 345.240032 
L 588.379819 345.236505 
L 588.900885 345.231644 
L 589.424129 345.225512 
L 589.949528 345.218171 
L 590.477057 345.209686 
L 591.006687 345.20012 
L 591.538385 345.189536 
L 592.072115 345.177998 
L 592.607837 345.16557 
L 593.145511 345.152315 
L 593.68509 345.138295 
L 594.226529 345.123572 
L 594.769779 345.108207 
L 595.314789 345.09226 
L 595.861506 345.075792 
L 596.409876 345.058859 
L 596.959845 345.041519 
L 597.511357 345.023827 
L 598.064353 345.005838 
L 598.618777 344.987604 
L 599.174571 344.969177 
L 599.731675 344.950605 
L 600.29003 344.931936 
L 600.849149 344.913231 
L 601.409279 344.894523 
L 601.970514 344.875849 
L 602.532794 344.85725 
L 603.096063 344.838763 
L 603.660262 344.820425 
L 604.225334 344.802269 
L 604.791223 344.784329 
L 605.357874 344.766634 
L 605.925232 344.749212 
L 606.493243 344.732091 
L 608.016351 344.760969 
L 609.529294 344.938999 
L 611.017502 345.264467 
L 612.466643 345.734237 
L 612.49259 345.745565 
L 613.970832 344.133347 
L 616.076279 342.253616 
L 618.408301 340.539301 
L 620.944439 339.006911 
L 623.660268 337.671204 
L 626.529635 336.545044 
L 629.524904 335.639276 
L 632.617231 334.962623 
L 635.776834 334.521602 
L 638.973285 334.32046 
L 642.1758 334.361134 
L 645.353537 334.643233 
L 648.475893 335.164039 
L 651.512797 335.918537 
L 654.435003 336.899462 
L 657.214369 338.097365 
L 659.824126 339.50071 
L 662.239143 341.095984 
L 664.436161 342.867821 
L 666.394022 344.799159 
L 668.09387 346.871397 
L 669.519335 349.064579 
L 670.656689 351.357584 
L 671.494978 353.728327 
L 672.02613 356.153979 
L 672.113989 357.140218 
L 672.207966 357.133236 
L 679.131684 356.959609 
L 684.703673 352.8461 
L 684.824483 352.765761 
L 684.952586 352.697651 
L 685.086748 352.642424 
L 685.225677 352.600614 
L 685.368035 352.572623 
L 685.512451 352.558719 
L 685.657535 352.559039 
L 685.801889 352.573577 
L 685.944122 352.602194 
L 686.082866 352.644615 
L 686.216784 352.700431 
L 686.344586 352.769104 
L 686.465041 352.849973 
L 686.57699 352.94226 
L 686.679354 353.045075 
L 686.771147 353.157429 
L 686.851486 353.278239 
L 686.919597 353.406341 
L 686.974823 353.540503 
L 687.016633 353.679432 
L 687.044625 353.82179 
L 687.058528 353.966207 
L 687.058209 354.11129 
L 687.043671 354.255644 
L 687.015054 354.397878 
L 686.972633 354.536621 
L 686.916817 354.670539 
L 686.848144 354.798341 
L 686.767274 354.918796 
L 686.674988 355.030745 
L 686.572172 355.133109 
L 686.459819 355.224903 
L 682.211454 358.361248 
L 686.611681 361.280712 
L 686.728494 361.366759 
L 686.836311 361.463841 
L 686.934093 361.571023 
L 687.020898 361.687274 
L 687.095891 361.811473 
L 687.158349 361.942425 
L 687.207671 362.078868 
L 687.243381 362.219488 
L 687.265137 362.362932 
L 687.272727 362.507817 
L 687.26608 362.652749 
L 687.245259 362.796331 
L 687.210465 362.937181 
L 687.162033 363.073942 
L 687.100428 363.205298 
L 687.026246 363.329983 
L 686.940199 363.446796 
L 686.843117 363.554613 
L 686.735935 363.652395 
L 686.619684 363.7392 
L 686.495485 363.814193 
L 686.364533 363.876651 
L 686.22809 363.925973 
L 686.08747 363.961683 
L 685.944026 363.983438 
L 685.799141 363.991029 
L 685.654209 363.984382 
L 685.510627 363.963561 
L 685.369777 363.928767 
L 685.233016 363.880334 
L 685.10166 363.81873 
L 684.976975 363.744548 
L 679.205809 359.915493 
L 672.282092 360.08912 
L 672.187882 360.086857 
L 672.149567 361.07626 
L 671.740663 363.525486 
L 671.022255 365.935267 
L 670.001263 368.282396 
L 668.687518 370.54427 
L 667.093673 372.699105 
L 665.235077 374.726149 
L 663.12963 376.605879 
L 660.797608 378.320195 
L 658.26147 379.852585 
L 655.54564 381.188292 
L 652.676274 382.314452 
L 649.681004 383.22022 
L 646.588677 383.896873 
L 643.429074 384.337894 
L 640.232624 384.539036 
L 637.030109 384.498362 
L 633.852372 384.216263 
L 630.730016 383.695457 
L 627.693112 382.940958 
L 624.770906 381.960034 
L 621.99154 380.762131 
L 619.381782 379.358785 
L 616.966765 377.763512 
L 614.769747 375.991675 
L 613.20911 374.452179 
L 611.912503 374.960673 
L 610.446597 375.375173 
L 608.947121 375.643993 
L 607.428517 375.764545 
L 606.873618 375.781269 
L 606.322763 375.798181 
L 605.771228 375.815402 
L 605.218958 375.83291 
L 604.6659 375.850678 
L 604.111996 375.868681 
L 603.55719 375.88689 
L 603.001426 375.905273 
L 602.444644 375.923799 
L 601.886787 375.94243 
L 601.327948 375.961126 
L 600.768375 375.979836 
L 600.20758 375.998531 
L 599.645504 376.017167 
L 599.082088 376.035697 
L 598.517274 376.054072 
L 597.951003 376.072238 
L 597.383218 376.090142 
L 596.813862 376.107726 
L 596.24288 376.124931 
L 595.670217 376.141692 
L 595.09582 376.157945 
L 595.078908 376.158414 
L 594.519638 376.173622 
L 594.50089 376.174121 
L 593.94162 376.188652 
L 593.920988 376.189175 
L 593.361718 376.202962 
L 593.339157 376.203502 
L 592.779888 376.216476 
L 592.755354 376.217026 
L 592.196085 376.229116 
L 592.169538 376.229667 
L 591.610269 376.2408 
L 591.581672 376.241343 
L 591.022402 376.251444 
L 590.99172 376.251968 
L 590.43245 376.260964 
L 590.399651 376.261457 
L 589.840381 376.269271 
L 589.805439 376.26972 
L 589.246169 376.276274 
L 589.209059 376.276665 
L 588.64979 376.281882 
L 588.610493 376.282199 
L 588.051223 376.286001 
L 588.009725 376.286227 
L 587.450456 376.288534 
L 587.406746 376.288652 
L 586.847477 376.289384 
L 586.801551 376.289376 
L 586.242281 376.288453 
L 586.194139 376.288299 
L 585.634869 376.285641 
L 585.584516 376.28532 
L 585.025247 376.280849 
L 584.972696 376.280339 
L 584.413426 376.273974 
L 584.358694 376.273255 
L 583.799424 376.264917 
L 583.742536 376.263965 
L 583.183266 376.253576 
L 583.124252 376.252368 
L 582.564982 376.239852 
L 582.50388 376.238365 
L 581.944611 376.223646 
L 581.881466 376.221855 
L 581.322196 376.204859 
L 581.25706 376.202742 
L 580.697791 376.183395 
L 580.630724 376.18093 
L 580.071454 376.159161 
L 580.002523 376.156325 
L 579.443254 376.132067 
L 579.372534 376.128838 
L 578.813265 376.102024 
L 578.74084 376.098382 
L 578.181571 376.068949 
L 578.107532 376.064875 
L 577.548263 376.032763 
L 577.47271 376.02824 
L 576.91344 375.99339 
L 576.83648 375.988403 
L 576.277211 375.950764 
L 576.19896 375.945299 
L 575.639691 375.904819 
L 575.560273 375.898866 
L 575.001004 375.855501 
L 574.920552 375.849053 
L 574.361282 375.802762 
L 574.279936 375.795813 
L 573.720667 375.746559 
L 573.638575 375.73911 
L 573.079305 375.686862 
L 572.996624 375.678914 
L 572.437354 375.623646 
L 572.354247 375.615207 
L 571.794977 375.556898 
L 571.711615 375.547979 
L 571.152345 375.486615 
L 571.068907 375.477231 
L 570.509637 375.412804 
L 570.426307 375.402976 
L 569.867037 375.335483 
L 569.784007 375.325236 
L 569.224738 375.254683 
L 569.142206 375.244047 
L 568.582936 375.170447 
L 568.501106 375.159456 
L 567.941837 375.082828 
L 567.860918 375.071523 
L 567.301649 374.991894 
L 567.221856 374.980321 
L 566.662586 374.897725 
L 566.584139 374.885935 
L 566.02487 374.800417 
L 565.947991 374.788464 
L 565.388722 374.700075 
L 565.31364 374.68802 
L 564.75437 374.596821 
L 564.681317 374.584729 
L 564.122048 374.490789 
L 564.051258 374.47873 
L 563.491988 374.382127 
L 563.423699 374.370175 
L 562.86443 374.270998 
L 562.798883 374.259229 
L 562.239613 374.157576 
L 562.177051 374.146072 
L 561.617782 374.04205 
L 561.55845 374.030895 
L 560.999181 373.92462 
L 560.943327 373.913901 
L 560.384057 373.805502 
L 560.331931 373.795306 
L 559.772662 373.68492 
L 559.724514 373.675338 
L 559.165244 373.563113 
L 559.121327 373.554235 
L 558.562058 373.44033 
L 558.522626 373.432246 
L 557.963357 373.31683 
L 557.928667 373.30963 
L 557.369397 373.192883 
L 557.339706 373.186654 
L 556.780436 373.068766 
L 556.756004 373.063595 
L 556.196734 372.944767 
L 556.17782 372.940736 
L 555.61855 372.821179 
L 555.046148 372.698303 
L 554.479791 372.576443 
L 553.922648 372.456535 
L 553.372607 372.338375 
L 552.829551 372.22219 
L 552.293753 372.108286 
L 551.765487 371.996972 
L 551.245027 371.888548 
L 550.732651 371.783312 
L 550.228634 371.681553 
L 549.733252 371.583551 
L 549.24678 371.489576 
L 548.769489 371.399882 
L 548.301646 371.31471 
L 547.843513 371.234283 
L 547.395342 371.158804 
L 546.957377 371.088454 
L 546.529844 371.023392 
L 546.112955 370.96375 
L 545.706901 370.909635 
L 545.311845 370.861123 
L 544.927922 370.818264 
L 544.555232 370.781075 
L 544.193833 370.749548 
L 543.843739 370.723641 
L 543.504908 370.703289 
L 543.177242 370.688399 
L 542.860578 370.678857 
L 542.554684 370.674531 
L 542.259252 370.675276 
L 541.973893 370.680941 
L 541.698137 370.691375 
L 541.431428 370.706434 
L 541.173125 370.725992 
L 540.922499 370.749946 
L 540.678742 370.77823 
L 540.440967 370.810819 
L 540.208217 370.847742 
L 539.979471 370.889083 
L 539.753662 370.934997 
L 539.52968 370.985706 
L 539.306392 371.041506 
L 539.082656 371.102767 
L 538.857332 371.169934 
L 538.629304 371.24352 
L 538.397488 371.324102 
L 538.160849 371.412315 
L 537.918413 371.50884 
L 537.669275 371.614395 
L 537.412611 371.729722 
L 537.147681 371.855579 
L 536.873835 371.992719 
L 536.590512 372.141888 
L 536.297242 372.303804 
L 535.993643 372.479155 
L 535.679415 372.668581 
L 535.354339 372.872672 
L 535.018266 373.091956 
L 534.671113 373.326899 
L 534.312851 373.577894 
L 533.943503 373.845264 
L 533.563131 374.129255 
L 533.17183 374.430039 
L 532.76972 374.747714 
L 532.356937 375.082302 
L 531.933631 375.433755 
L 531.49995 375.801955 
L 531.056044 376.186716 
L 530.602052 376.58779 
L 530.138099 377.004868 
L 529.664293 377.437585 
L 529.180713 377.885524 
L 528.687412 378.34822 
L 528.184407 378.825162 
L 527.671676 379.315801 
L 527.149153 379.819551 
L 526.616721 380.335794 
L 526.074206 380.863882 
L 525.521374 381.403144 
L 524.96271 381.948214 
L 524.393854 382.50228 
L 524.373042 382.522512 
L 523.813773 383.065198 
L 523.78122 383.096694 
L 523.22195 383.636221 
L 523.177034 383.679377 
L 522.617765 384.214588 
L 522.55975 384.269821 
L 522.00048 384.79953 
L 521.928498 384.867274 
L 521.369228 385.390268 
L 521.282264 385.47097 
L 520.722995 385.986008 
L 520.619868 386.080125 
L 520.060598 386.585943 
L 519.939941 386.693931 
L 519.380671 387.189242 
L 519.240904 387.31154 
L 518.681635 387.795036 
L 518.520946 387.932056 
L 517.961676 388.402411 
L 517.777988 388.554502 
L 517.218718 389.010375 
L 517.009664 389.177798 
L 516.450395 389.61783 
L 516.21329 389.800709 
L 515.654021 390.223534 
L 515.385841 390.421795 
L 514.826571 390.826035 
L 514.523932 391.039334 
L 513.964662 391.423606 
L 513.62382 391.651232 
L 513.06455 392.014147 
L 512.681418 392.254904 
L 512.122149 392.595075 
L 511.692347 392.847139 
L 511.133077 393.16318 
L 510.652029 393.423941 
L 510.092759 393.714469 
L 509.555853 393.980351 
L 508.996583 394.243993 
L 508.399414 394.510277 
L 507.840144 394.745669 
L 507.178859 395.006342 
L 506.619589 395.212136 
L 505.89134 395.459802 
L 505.332071 395.634666 
L 504.535569 395.860572 
L 503.9763 396.003195 
L 503.112441 396.197434 
L 502.553172 396.306529 
L 501.625651 396.458469 
L 501.066382 396.532777 
L 500.082188 396.631751 
L 499.522919 396.670043 
L 498.492565 396.706272 
L 497.933295 396.707352 
L 496.87064 396.672996 
L 496.31137 396.635709 
L 495.23296 396.52588 
L 494.67369 396.449109 
L 493.597629 396.262624 
L 493.03836 396.145299 
L 491.982881 395.884985 
L 491.423611 395.726084 
L 490.405581 395.398542 
L 489.846311 395.197093 
L 488.879962 394.811965 
L 488.320692 394.567052 
L 487.416783 394.135951 
L 486.857513 393.846718 
L 486.023011 393.382063 
L 485.463742 393.047714 
L 484.701983 392.561671 
L 484.142713 392.181478 
L 483.453906 391.685152 
L 482.894636 391.258456 
L 482.276545 390.761394 
L 481.717276 390.287605 
L 481.165946 389.797575 
L 480.606676 389.276183 
L 480.117088 388.799178 
L 479.557818 388.229748 
L 479.124423 387.770135 
L 478.565153 387.152316 
L 478.182279 386.713064 
L 477.623009 386.04659 
L 477.28514 385.629521 
L 476.725871 384.914213 
L 476.427823 384.520247 
L 475.868553 383.756017 
L 475.605571 383.385393 
L 475.046302 382.572245 
L 474.814098 382.224703 
L 474.254828 381.362738 
L 474.049588 381.03767 
L 473.490319 380.127087 
L 473.308681 379.823654 
L 472.749411 378.864753 
L 472.588429 378.581972 
L 472.02916 377.575155 
L 471.886269 377.31197 
L 471.327 376.257744 
L 471.199972 376.013072 
L 470.640702 374.91205 
L 470.527604 374.684815 
L 469.968334 373.537718 
L 469.867495 373.326876 
L 469.308225 372.134535 
L 469.218198 371.939088 
L 468.658928 370.702444 
L 468.578461 370.521451 
L 468.019192 369.241558 
L 467.947203 369.07414 
L 467.387934 367.752162 
L 467.323487 367.597506 
L 466.764218 366.234722 
L 466.706503 366.092079 
L 466.147234 364.68988 
L 466.095549 364.558566 
L 465.53628 363.118459 
L 465.490018 362.997852 
L 464.930749 361.521454 
L 464.889385 361.410993 
L 464.330115 359.900037 
L 464.293194 359.799219 
L 463.733924 358.25555 
L 463.701054 358.163927 
L 463.141784 356.5895 
L 463.112628 356.506679 
L 462.553358 354.903561 
L 462.527626 354.829197 
L 461.968357 353.199565 
L 461.945804 353.133365 
L 461.386535 351.479502 
L 461.366955 351.421221 
L 460.807685 349.745515 
L 460.790906 349.694953 
L 460.231636 347.999899 
L 460.21752 347.956903 
L 459.65825 346.245093 
L 459.646687 346.209558 
L 459.087418 344.483685 
L 459.07833 344.45555 
L 458.51906 342.718401 
L 458.512397 342.697654 
L 457.953127 340.95211 
L 457.389596 339.187816 
L 456.828769 337.42959 
L 456.271346 335.682789 
L 455.716485 333.947957 
L 455.597483 333.577425 
L 455.528996 333.918753 
L 454.989163 336.709116 
L 454.446946 339.609164 
L 453.902677 342.614692 
L 453.35663 345.721376 
L 452.809032 348.92476 
L 452.260074 352.220239 
L 451.709914 355.603054 
L 451.158687 359.068289 
L 450.606505 362.610858 
L 450.053463 366.225515 
L 449.49964 369.906845 
L 448.945103 373.64927 
L 448.389907 377.447051 
L 447.834099 381.294293 
L 447.277715 385.184949 
L 446.720785 389.11283 
L 446.163331 393.071607 
L 445.605367 397.054827 
L 445.046903 401.055914 
L 444.487941 405.068189 
L 443.928701 409.083269 
L 443.368984 413.095643 
L 442.808746 417.098575 
L 442.247966 421.085061 
L 441.686613 425.048055 
L 441.683917 425.067003 
L 441.124647 428.980487 
L 441.121288 429.003866 
L 440.562018 432.875279 
L 440.557932 432.903385 
L 439.998662 436.72537 
L 439.99377 436.758555 
L 439.4345 440.52373 
L 439.428703 440.562421 
L 438.869434 444.263391 
L 438.862612 444.308095 
L 438.303342 447.937471 
L 438.295345 447.988795 
L 437.736075 451.539202 
L 437.726718 451.597875 
L 437.167448 455.061972 
L 437.156498 455.128868 
L 436.597229 458.499358 
L 436.584394 458.575533 
L 436.025124 461.845182 
L 436.010035 461.931916 
L 435.450766 465.093565 
L 435.432948 465.192423 
L 434.873679 468.239002 
L 434.85252 468.351909 
L 434.29325 471.276456 
L 434.267945 471.405803 
L 433.708676 474.201475 
L 433.678153 474.350263 
L 433.118883 477.010352 
L 433.081694 477.182388 
L 432.522424 479.700337 
L 432.476571 479.900514 
L 431.917301 482.269931 
L 431.859973 482.504627 
L 431.300703 484.719297 
L 431.227848 484.996959 
L 430.668578 487.050863 
L 430.574198 487.382865 
L 430.014929 489.27019 
L 429.889868 489.672135 
L 429.330598 491.38729 
L 429.160379 491.880981 
L 428.601109 493.418613 
L 428.361913 494.035051 
L 427.802643 495.390052 
L 427.4535 496.173807 
L 426.89423 497.341334 
L 426.361251 498.356033 
L 425.801981 499.331515 
L 424.945899 500.662514 
L 424.38663 501.441669 
L 422.939501 503.175945 
L 422.380232 503.754789 
L 421.175741 504.875918 
L 419.859341 505.863247 
L 419.300071 506.238106 
L 417.97204 507.035213 
L 416.571184 507.696008 
L 415.111451 508.213914 
L 414.552182 508.381434 
L 413.169177 508.727357 
L 411.76027 508.944943 
L 410.337343 509.032359 
L 408.912397 508.988867 
L 408.353127 508.946029 
L 406.994957 508.781535 
L 405.656546 508.498098 
L 404.348287 508.09792 
L 403.080344 507.584109 
L 402.521074 507.328233 
L 401.273562 506.687821 
L 400.088932 505.937444 
L 398.976852 505.083224 
L 398.417582 504.611981 
L 397.34495 503.618112 
L 396.370596 502.527723 
L 395.811326 501.839144 
L 394.645541 500.196536 
L 394.086272 499.28902 
L 393.394697 498.041979 
L 392.835428 496.914301 
L 392.403053 495.96338 
L 391.843783 494.614695 
L 391.559735 493.877187 
L 391.000465 492.307038 
L 390.805663 491.723838 
L 390.246393 489.932165 
L 390.107844 489.462378 
L 389.548574 487.449516 
L 389.446963 487.064753 
L 388.887693 484.83144 
L 388.811211 484.511694 
L 388.251941 482.059074 
L 388.193085 481.789975 
L 387.633816 479.1196 
L 387.587656 478.890625 
L 387.028386 476.004455 
L 386.991585 475.807758 
L 386.432315 472.708165 
L 386.402554 472.537793 
L 385.843284 469.227557 
L 385.818913 469.078923 
L 385.259644 465.561236 
L 385.239467 465.430756 
L 384.680198 461.709215 
L 384.663332 461.594051 
L 384.104062 457.672661 
L 384.089844 457.57054 
L 383.530574 453.453707 
L 383.518497 453.362792 
L 382.959227 449.055318 
L 382.948901 448.974106 
L 382.389631 444.481188 
L 382.38075 444.408444 
L 381.821481 439.735664 
L 381.813805 439.67036 
L 381.254535 434.823682 
L 381.247872 434.764961 
L 380.688603 429.750722 
L 380.682798 429.697862 
L 380.123529 424.522761 
L 380.118458 424.475154 
L 379.559189 419.146247 
L 379.554749 419.103376 
L 378.99548 413.628064 
L 378.991588 413.589489 
L 378.432318 407.975509 
L 378.428905 407.940854 
L 377.869636 402.196264 
L 377.866644 402.165208 
L 377.307374 396.298378 
L 377.304756 396.270647 
L 376.745486 390.290245 
L 376.743201 390.265604 
L 376.183932 384.180582 
L 376.181948 384.158831 
L 375.622678 377.978411 
L 375.620968 377.959382 
L 375.061699 371.693041 
L 375.060239 371.67659 
L 374.500969 365.334046 
L 373.940472 358.911246 
L 373.380193 352.434691 
L 372.820118 345.91464 
L 372.260239 339.361541 
L 371.70055 332.786012 
L 371.141047 326.198823 
L 370.581796 319.611676 
L 370.022756 313.035087 
L 369.463908 306.479882 
L 368.905258 299.957249 
L 368.346816 293.478429 
L 367.788597 287.0547 
L 367.230616 280.697355 
L 366.672895 274.417687 
L 366.264242 269.879286 
L 365.729507 276.468683 
L 365.172089 283.476406 
L 364.614422 290.614714 
L 364.056532 297.871723 
L 363.498441 305.235364 
L 362.940166 312.693403 
L 362.381721 320.233456 
L 361.823119 327.84301 
L 361.264368 335.509446 
L 360.705476 343.220062 
L 360.146447 350.96209 
L 359.587284 358.722724 
L 359.028034 366.488509 
L 358.468673 374.246974 
L 357.909179 381.985612 
L 357.349549 389.691686 
L 356.789777 397.35254 
L 356.229858 404.95562 
L 355.669783 412.488505 
L 355.10954 419.938922 
L 354.549115 427.294782 
L 354.547761 427.312423 
L 353.988491 434.544194 
L 353.986917 434.564377 
L 353.427647 441.6755 
L 353.425828 441.698418 
L 352.866558 448.677296 
L 352.864462 448.703175 
L 352.305193 455.538458 
L 352.302783 455.567566 
L 351.743514 462.248168 
L 351.740745 462.280822 
L 351.181476 468.795947 
L 351.178293 468.832521 
L 350.619023 475.171678 
L 350.615357 475.212613 
L 350.056087 481.36564 
L 350.051853 481.411464 
L 349.492584 487.36854 
L 349.487678 487.419882 
L 348.928408 493.17155 
L 348.922697 493.229167 
L 348.363427 498.766351 
L 348.356744 498.831159 
L 347.797474 504.145175 
L 347.789604 504.218294 
L 347.230334 509.300872 
L 347.220998 509.383678 
L 346.661728 514.226973 
L 346.650558 514.32118 
L 346.091288 518.917784 
L 346.077794 519.025547 
L 345.518524 523.368508 
L 345.502039 523.492573 
L 344.942769 527.575399 
L 344.922368 527.719319 
L 344.363098 531.535995 
L 344.337471 531.704436 
L 343.778201 535.249432 
L 343.745444 535.448644 
L 343.186174 538.716923 
L 343.143438 538.955454 
L 342.584168 541.942482 
L 342.527044 542.232308 
L 341.967774 544.934059 
L 341.889161 545.292436 
L 341.329892 547.705398 
L 341.217806 548.15798 
L 340.658536 550.279163 
L 340.491573 550.865465 
L 339.932303 552.692401 
L 339.669554 553.475614 
L 339.110284 555.006362 
L 338.666958 556.090916 
L 338.107689 557.324064 
L 337.291118 558.883019 
L 336.731848 559.817683 
L 335.951439 560.996539 
L 335.067015 562.099504 
L 334.507745 562.73533 
L 333.399995 563.871873 
L 332.181988 564.889369 
L 330.866454 565.777183 
L 330.307185 566.114343 
L 329.01683 566.81135 
L 327.666457 567.383475 
L 326.268119 567.825612 
L 324.834297 568.133815 
L 323.377788 568.305331 
L 322.818519 568.344524 
L 321.262393 568.375355 
L 319.711002 568.250204 
L 318.179942 567.970328 
L 316.684603 567.538541 
L 315.24002 566.959184 
L 314.68075 566.701629 
L 313.480832 566.084479 
L 312.339041 565.365459 
L 311.264004 564.550001 
L 310.263842 563.644267 
L 309.704573 563.091701 
L 308.622384 561.905775 
L 307.668472 560.614416 
L 307.109202 559.769089 
L 306.130141 558.063478 
L 305.570871 556.928143 
L 305.050002 555.749778 
L 304.490732 554.32769 
L 304.186886 553.484367 
L 303.627616 551.779268 
L 303.436788 551.153197 
L 302.877518 549.16931 
L 302.750498 548.689488 
L 302.191228 546.431507 
L 302.10269 546.053893 
L 301.543421 543.526971 
L 301.479372 543.223217 
L 300.920102 540.432956 
L 300.87234 540.184148 
L 300.313071 537.136583 
L 300.276548 536.929687 
L 299.717278 533.631275 
L 299.688755 533.457045 
L 299.129485 529.914652 
L 299.106808 529.766368 
L 298.547538 525.98725 
L 298.529233 525.859916 
L 297.969963 521.851706 
L 297.954993 521.741539 
L 297.395724 517.51223 
L 297.383344 517.416317 
L 296.824075 512.974246 
L 296.813739 512.890307 
L 296.254469 508.244136 
L 296.245768 508.170368 
L 295.686499 503.329066 
L 295.679124 503.264022 
L 295.119854 498.236848 
L 295.113567 498.179358 
L 294.554297 492.975841 
L 294.548912 492.924948 
L 293.989642 487.554867 
L 293.985014 487.509785 
L 293.425744 481.983149 
L 293.421756 481.943227 
L 292.862486 476.270255 
L 292.859046 476.23495 
L 292.299777 470.426053 
L 292.29681 470.394909 
L 291.73754 464.460667 
L 291.734986 464.433303 
L 291.175716 458.384442 
L 291.173525 458.360539 
L 290.614255 452.207913 
L 290.612386 452.187199 
L 290.053117 445.941771 
L 290.051537 445.92402 
L 289.492268 439.596833 
L 288.931681 433.184021 
L 288.371336 426.714326 
L 287.811214 420.198793 
L 287.251302 413.648489 
L 286.691589 407.074484 
L 286.132068 400.487828 
L 285.572793 393.900231 
L 285.013736 387.322307 
L 284.454864 380.764543 
L 283.896181 374.237699 
L 283.337693 367.752414 
L 282.77941 361.319185 
L 282.221343 354.948349 
L 281.663506 348.650069 
L 281.105917 342.434316 
L 280.548599 336.310858 
L 279.991579 330.289241 
L 279.434889 324.378783 
L 278.878568 318.58856 
L 278.322663 312.927397 
L 277.76723 307.403862 
L 277.212336 302.026261 
L 276.920998 299.280616 
L 276.701703 300.8207 
L 276.144589 304.765084 
L 275.586897 308.738199 
L 275.028659 312.732712 
L 274.469898 316.741407 
L 273.910754 320.756298 
L 273.351233 324.770455 
L 272.791215 328.777966 
L 272.230698 332.772172 
L 271.669673 336.746583 
L 271.667397 336.762652 
L 271.108127 340.694886 
L 271.105307 340.714622 
L 270.546037 344.610955 
L 270.542646 344.634454 
L 269.983376 348.48886 
L 269.979377 348.516248 
L 269.420108 352.322879 
L 269.415457 352.354313 
L 268.856187 356.107507 
L 268.850829 356.143176 
L 268.29156 359.837464 
L 268.28543 359.877596 
L 267.726161 363.50771 
L 267.719182 363.552572 
L 267.159912 367.11345 
L 267.151991 367.163353 
L 266.592721 370.650147 
L 266.583748 370.705455 
L 266.024478 374.113537 
L 266.014321 374.174667 
L 265.455052 377.499632 
L 265.443556 377.567069 
L 264.884286 380.804742 
L 264.871265 380.879046 
L 264.311995 384.025483 
L 264.297226 384.1073 
L 263.737956 387.158794 
L 263.721172 387.248873 
L 263.161902 390.201955 
L 263.142779 390.301163 
L 262.58351 393.152609 
L 262.561655 393.261955 
L 262.002385 396.008781 
L 261.977319 396.129441 
L 261.418049 398.768909 
L 261.389182 398.902259 
L 260.829912 401.431878 
L 260.796511 401.579534 
L 260.237241 403.997058 
L 260.198394 404.160929 
L 259.639124 406.464358 
L 259.593679 406.646705 
L 259.03441 408.834284 
L 258.980907 409.037802 
L 258.421637 411.108019 
L 258.358199 411.33593 
L 257.79893 413.287518 
L 257.723124 413.543698 
L 257.163855 415.37563 
L 257.072491 415.664756 
L 256.513222 417.376241 
L 256.402066 417.70398 
L 255.842797 419.294465 
L 255.706162 419.667695 
L 255.146893 421.136855 
L 254.977043 421.563914 
L 254.417773 422.911656 
L 254.204051 423.402596 
L 253.644781 424.629048 
L 253.372328 425.195823 
L 252.813059 426.301332 
L 252.460962 426.957734 
L 251.901692 427.942863 
L 251.440342 428.703844 
L 250.881072 429.569365 
L 250.268649 430.448967 
L 249.70938 431.195853 
L 248.887859 432.20227 
L 248.328589 432.831694 
L 247.221168 433.957138 
L 246.661898 434.470464 
L 245.17731 435.673464 
L 244.61804 436.072241 
L 242.672722 437.254337 
L 242.113453 437.540293 
L 240.919293 438.088414 
L 239.683057 438.533584 
L 239.123787 438.708618 
L 237.731489 439.074421 
L 236.311291 439.309676 
L 235.752021 439.37585 
L 234.281485 439.47936 
L 232.80776 439.442912 
L 232.248491 439.402446 
L 230.853729 439.237832 
L 229.479554 438.947831 
L 228.920284 438.803096 
L 227.717892 438.439425 
L 226.548843 437.979724 
L 225.989573 437.733232 
L 224.089877 436.73377 
L 223.530607 436.388167 
L 222.066461 435.362379 
L 221.507191 434.920436 
L 220.397033 433.954256 
L 219.837763 433.418865 
L 218.997445 432.549216 
L 218.438175 431.923377 
L 217.797824 431.15872 
L 217.238554 430.445536 
L 216.745207 429.780638 
L 216.185938 428.983306 
L 215.801005 428.407621 
L 215.241736 427.529425 
L 214.937485 427.031241 
L 214.378216 426.075539 
L 214.134732 425.643796 
L 213.575462 424.61402 
L 213.378353 424.23897 
L 212.819083 423.138609 
L 212.657846 422.811941 
L 212.098576 421.64454 
L 211.965457 421.359285 
L 211.406188 420.128433 
L 211.295395 419.878791 
L 210.736126 418.588115 
L 210.643282 418.369272 
L 210.084012 417.022427 
L 210.005768 416.830385 
L 209.446498 415.431048 
L 209.380266 415.262484 
L 208.820996 413.814345 
L 208.764758 413.666487 
L 208.205488 412.173245 
L 208.157652 412.043773 
L 207.598382 410.509124 
L 207.557686 410.396095 
L 206.998416 408.823727 
L 206.963852 408.725508 
L 206.404582 407.119094 
L 206.375338 407.034309 
L 205.816069 405.3975 
L 205.791492 405.324989 
L 205.232223 403.661408 
L 205.211784 403.600192 
L 204.652515 401.913427 
L 204.635787 401.862684 
L 204.076517 400.15628 
L 204.063156 400.115319 
L 203.503886 398.392775 
L 203.493613 398.361018 
L 202.934343 396.62578 
L 202.926941 396.60275 
L 202.367671 394.858206 
L 201.803699 393.092985 
L 201.242476 391.333613 
L 200.684772 389.585718 
L 200.129481 387.848917 
L 199.576592 386.126133 
L 199.026126 384.420258 
L 198.478129 382.734144 
L 197.932676 381.070595 
L 197.389874 379.432367 
L 196.849856 377.822163 
L 196.312792 376.24263 
L 195.778882 374.696358 
L 195.248368 373.185877 
L 194.721534 371.713661 
L 194.198712 370.282121 
L 193.680287 368.893613 
L 193.166705 367.550437 
L 192.658485 366.254836 
L 192.156223 365.009001 
L 191.660611 363.815073 
L 191.172445 362.675141 
L 190.692646 361.59125 
L 190.222281 360.565393 
L 189.762579 359.599518 
L 189.314965 358.695515 
L 188.881082 357.855215 
L 188.462833 357.080374 
L 188.27915 356.755725 
L 187.944563 357.060543 
L 187.474167 357.496429 
L 186.98865 357.952818 
L 186.489047 358.428027 
L 185.976243 358.920418 
L 185.450989 359.428396 
L 184.913921 359.950415 
L 184.365567 360.484982 
L 183.808995 361.028089 
L 183.244462 361.578444 
L 183.228855 361.593639 
L 182.669585 362.137332 
L 182.643875 362.162269 
L 182.084605 362.703458 
L 182.048972 362.737829 
L 181.489702 363.275575 
L 181.444269 363.319083 
L 180.884999 363.852484 
L 180.829837 363.904838 
L 180.270567 364.433031 
L 180.205702 364.49394 
L 179.646433 365.016101 
L 179.571853 365.085277 
L 179.012583 365.600619 
L 178.928238 365.677767 
L 178.368969 366.185546 
L 178.274781 366.270363 
L 177.715512 366.769872 
L 177.611378 366.862043 
L 177.052108 367.352617 
L 176.937904 367.451813 
L 176.378634 367.932825 
L 176.254221 368.038695 
L 175.694951 368.509559 
L 175.560181 368.621731 
L 175.000911 369.081901 
L 174.855633 369.199975 
L 174.296363 369.648945 
L 174.140428 369.772491 
L 173.581158 370.209793 
L 173.414426 370.338351 
L 172.855157 370.763558 
L 172.677506 370.89663 
L 172.118237 371.309352 
L 171.929569 371.446405 
L 171.370299 371.846292 
L 171.170547 371.986756 
L 170.611277 372.373494 
L 170.400414 372.516762 
L 169.841144 372.890074 
L 169.619189 373.035502 
L 169.05992 373.395148 
L 168.826951 373.542058 
L 168.267681 373.887835 
L 168.023838 374.035517 
L 167.464568 374.367255 
L 167.210062 374.514976 
L 166.650793 374.832539 
L 166.385914 374.979543 
L 165.826644 375.282829 
L 165.551764 375.42835 
L 164.992494 375.717289 
L 164.708072 375.860555 
L 164.148803 376.135108 
L 163.85539 376.275354 
L 163.29612 376.535513 
L 162.994356 376.67199 
L 162.435087 376.917775 
L 162.125702 377.049761 
L 161.566432 377.281222 
L 161.250243 377.408035 
L 160.690973 377.625246 
L 160.368874 377.746253 
L 159.809604 377.949317 
L 159.482563 378.063946 
L 158.923293 378.25299 
L 158.59234 378.360739 
L 158.03307 378.535913 
L 157.699283 378.63636 
L 157.140014 378.797837 
L 156.804509 378.890645 
L 156.245239 379.03862 
L 155.909155 379.123539 
L 155.349885 379.258227 
L 155.014365 379.335105 
L 154.455095 379.456739 
L 154.121275 379.525512 
L 153.562005 379.634345 
L 153.230997 379.695043 
L 152.671728 379.791343 
L 152.344609 379.844081 
L 151.785339 379.928133 
L 151.463134 379.973109 
L 150.903865 380.045211 
L 150.58754 380.082697 
L 150.028271 380.143161 
L 149.718722 380.173493 
L 149.159453 380.222643 
L 148.857499 380.246213 
L 148.298229 380.284384 
L 148.004608 380.301631 
L 147.445338 380.329168 
L 147.1607 380.340566 
L 146.60143 380.357824 
L 146.326342 380.363872 
L 145.767072 380.371211 
L 145.502014 380.372426 
L 144.942745 380.370215 
L 144.688114 380.367119 
L 144.128844 380.355732 
L 143.884956 380.348848 
L 143.325687 380.328663 
L 143.092784 380.318506 
L 142.533514 380.289906 
L 142.311767 380.276975 
L 141.752497 380.240344 
L 141.54201 380.225121 
L 140.98274 380.180847 
L 140.783559 380.163788 
L 140.224289 380.11226 
L 140.036408 380.093796 
L 139.477138 380.0354 
L 139.300502 380.015934 
L 138.741233 379.951058 
L 138.575746 379.93096 
L 138.016477 379.859989 
L 137.86201 379.8396 
L 137.30274 379.762917 
L 137.15913 379.742543 
L 136.59986 379.66053 
L 136.46692 379.640447 
L 135.90765 379.553479 
L 135.78517 379.533932 
L 135.2259 379.442382 
L 135.113654 379.423585 
L 134.554384 379.327819 
L 134.45213 379.309958 
L 133.892861 379.210339 
L 133.800348 379.193571 
L 133.241078 379.090453 
L 133.158045 379.07491 
L 132.598775 378.968642 
L 132.524956 378.95443 
L 131.965686 378.845353 
L 131.900809 378.832556 
L 131.341539 378.721004 
L 131.28533 378.709685 
L 130.72606 378.595983 
L 130.678242 378.586184 
L 130.118973 378.47065 
L 130.07927 378.462394 
L 129.520001 378.345336 
L 129.488138 378.338632 
L 128.928868 378.220349 
L 128.904569 378.215189 
L 128.345299 378.095971 
L 128.32829 378.092335 
L 127.76902 377.972462 
L 127.199758 377.850058 
L 126.638857 377.729323 
L 126.085921 377.610425 
L 125.539062 377.49319 
L 124.998015 377.377775 
L 124.462518 377.264319 
L 123.932308 377.15295 
L 123.407128 377.043778 
L 122.886719 376.936902 
L 122.370825 376.832409 
L 121.859192 376.730372 
L 121.351567 376.630857 
L 120.847699 376.533916 
L 120.347338 376.439596 
L 119.850236 376.347933 
L 119.356147 376.258957 
L 118.86483 376.172688 
L 118.376041 376.089145 
L 117.889544 376.008336 
L 117.405103 375.930266 
L 116.922486 375.854937 
L 116.441465 375.782344 
L 115.961816 375.712479 
L 115.483318 375.645332 
L 115.005757 375.580889 
L 114.528923 375.519133 
L 114.052611 375.460045 
L 113.576624 375.403605 
L 113.100767 375.349787 
L 112.624856 375.298568 
L 112.148711 375.249921 
L 111.672161 375.203818 
L 111.195041 375.160227 
L 110.717193 375.119119 
L 110.23847 375.08046 
L 109.758728 375.044217 
L 109.277836 375.010353 
L 108.795668 374.978831 
L 108.312108 374.949613 
L 107.827046 374.92266 
L 107.340382 374.897929 
L 106.852024 374.875378 
L 106.361887 374.854963 
L 105.869896 374.836639 
L 105.375983 374.820357 
L 104.880086 374.806069 
L 104.382152 374.793725 
L 103.882137 374.783274 
L 103.38 374.774662 
L 102.875712 374.767835 
L 102.369245 374.762737 
L 101.860583 374.759312 
L 101.349712 374.757502 
L 100.836625 374.757246 
L 100.321323 374.758486 
L 99.803809 374.76116 
L 99.284093 374.765206 
L 98.762188 374.770563 
L 98.238115 374.777166 
L 97.711895 374.784954 
L 97.183555 374.793862 
L 96.653127 374.803826 
L 96.120645 374.814784 
L 95.586145 374.826671 
L 95.049669 374.839424 
L 94.511258 374.85298 
L 93.970959 374.867277 
L 93.428819 374.882254 
L 92.884888 374.897849 
L 92.339216 374.914003 
L 91.791858 374.930657 
L 91.242867 374.947753 
L 90.6923 374.965234 
L 90.140211 374.983046 
L 89.58666 375.001135 
L 89.031703 375.01945 
L 88.4754 375.037939 
L 87.917808 375.056553 
L 87.359063 375.075244 
L 86.799643 375.093952 
L 86.239081 375.112652 
L 85.677438 375.131302 
L 85.114772 375.149862 
L 84.551139 375.168296 
L 83.986598 375.186568 
L 83.421206 375.204645 
L 82.855018 375.222495 
L 82.288089 375.240088 
L 81.720474 375.257397 
L 81.152226 375.274397 
L 80.583397 375.291064 
L 80.014037 375.307376 
L 79.444197 375.323314 
L 78.873924 375.338859 
L 78.303266 375.353996 
L 77.732267 375.36871 
L 77.160973 375.38299 
L 76.589426 375.396823 
L 76.017667 375.410202 
L 75.445736 375.423117 
L 74.87367 375.435564 
L 74.301506 375.447538 
L 73.72928 375.459035 
L 73.157023 375.470053 
L 72.584769 375.480593 
L 72.012546 375.490654 
L 71.440385 375.500239 
L 70.86831 375.50935 
L 70.296349 375.517992 
L 69.724525 375.526168 
L 69.152859 375.533886 
L 68.581374 375.541151 
L 68.010087 375.547971 
L 67.439017 375.554355 
L 66.86818 375.56031 
L 66.297592 375.565846 
L 65.727266 375.570973 
L 65.157213 375.575701 
L 64.587446 375.580042 
L 64.017973 375.584006 
L 63.448804 375.587604 
L 62.879946 375.590849 
L 62.311404 375.593753 
L 61.743184 375.596327 
L 61.17529 375.598583 
L 60.607726 375.600535 
L 60.040492 375.602195 
L 59.473591 375.603575 
L 58.907023 375.604687 
L 58.340786 375.605545 
L 57.774881 375.60616 
L 57.209304 375.606545 
L 56.644053 375.606711 
L 56.079125 375.606671 
L 55.514515 375.606438 
L 54.95022 375.606021 
L 54.386233 375.605433 
L 53.82255 375.604685 
L 53.259165 375.603788 
L 52.69607 375.602753 
L 52.133259 375.60159 
L 51.570725 375.600309 
L 51.008461 375.59892 
L 50.446459 375.597433 
L 49.884711 375.595857 
L 49.323208 375.5942 
L 48.761943 375.592472 
L 48.200907 375.590681 
L 46.679607 375.511075 
L 45.173435 375.282739 
L 43.696896 374.907872 
L 42.264211 374.390083 
L 40.889177 373.734361 
L 39.585036 372.947018 
L 38.364347 372.035639 
L 37.238868 371.009 
L 36.219436 369.876988 
L 35.315869 368.650506 
L 34.53687 367.341364 
L 33.88994 365.962171 
L 33.38131 364.526209 
L 33.015878 363.047307 
L 32.797164 361.539707 
L 32.727273 360.01793 
L 32.806879 358.496629 
L 33.035215 356.990457 
L 33.410082 355.513919 
L 33.927871 354.081233 
L 34.583593 352.706199 
L 35.370936 351.402058 
L 36.282315 350.18137 
L 37.308954 349.05589 
L 38.440966 348.036458 
L 39.667448 347.132892 
L 40.97659 346.353892 
L 42.355783 345.706963 
L 43.791745 345.198332 
L 45.270647 344.8329 
L 46.778247 344.614186 
L 48.300024 344.544295 
L 48.858411 344.546078 
" style="fill:#29af7f;stroke:#000000;stroke-linejoin:miter;stroke-width:1.618034;"/>
   </g>
  </g>
 </g>
 <defs>
  <clipPath id="p795a2cc879">
   <rect height="720" width="720" x="0" y="0"/>
  </clipPath>
 </defs>
</svg>
