<?xml version="1.0" encoding="utf-8" standalone="no"?>
<!DOCTYPE svg PUBLIC "-//W3C//DTD SVG 1.1//EN"
  "http://www.w3.org/Graphics/SVG/1.1/DTD/svg11.dtd">
<!-- Created with matplotlib (https://matplotlib.org/) -->
<svg height="720pt" version="1.1" viewBox="0 0 720 720" width="720pt" xmlns="http://www.w3.org/2000/svg" xmlns:xlink="http://www.w3.org/1999/xlink">
 <defs>
  <style type="text/css">
*{stroke-linecap:butt;stroke-linejoin:round;}
  </style>
 </defs>
 <g id="figure_1">
  <g id="patch_1">
   <path d="M 0 720 
L 720 720 
L 720 0 
L 0 0 
z
" style="fill:#ffffff;"/>
  </g>
  <g id="axes_1">
   <g id="patch_2">
    <path clip-path="url(#ped94ca8a84)" d="M 640.8 360 
L 639.447871 387.523213 
L 635.404507 414.781362 
L 628.708846 441.511937 
L 619.425373 467.457508 
L 607.643491 492.368204 
L 593.476667 516.004121 
L 577.061335 538.137634 
L 558.555584 558.555584 
L 538.137634 577.061335 
L 516.004121 593.476667 
L 492.368204 607.643491 
L 467.457508 619.425373 
L 441.511937 628.708846 
L 414.781362 635.404507 
L 387.523213 639.447871 
L 360 640.8 
L 332.476787 639.447871 
L 305.218638 635.404507 
L 278.488063 628.708846 
L 252.542492 619.425373 
L 227.631796 607.643491 
L 203.995879 593.476667 
L 181.862366 577.061335 
L 161.444416 558.555584 
L 142.938665 538.137634 
L 126.523333 516.004121 
L 112.356509 492.368204 
L 100.574627 467.457508 
L 91.291154 441.511937 
L 84.595493 414.781362 
L 80.552129 387.523213 
L 79.2 360 
L 80.552129 332.476787 
L 84.595493 305.218638 
L 91.291154 278.488063 
L 100.574627 252.542492 
L 112.356509 227.631796 
L 126.523333 203.995879 
L 142.938665 181.862366 
L 161.444416 161.444416 
L 181.862366 142.938665 
L 203.995879 126.523333 
L 227.631796 112.356509 
L 252.542492 100.574627 
L 278.488063 91.291154 
L 305.218638 84.595493 
L 332.476787 80.552129 
L 360 79.2 
L 387.523213 80.552129 
L 414.781362 84.595493 
L 441.511937 91.291154 
L 467.457508 100.574627 
L 492.368204 112.356509 
L 516.004121 126.523333 
L 538.137634 142.938665 
L 558.555584 161.444416 
L 577.061335 181.862366 
L 593.476667 203.995879 
L 607.643491 227.631796 
L 619.425373 252.542492 
L 628.708846 278.488063 
L 635.404507 305.218638 
L 639.447871 332.476787 
L 640.8 360 
L 640.8 360 
M 496.8 360 
L 496.8 360 
L 496.141271 346.591255 
L 494.171426 333.311644 
L 490.909438 320.289056 
L 486.38672 307.648906 
L 480.646829 295.512926 
L 473.745043 283.997992 
L 465.74783 273.214999 
L 456.732208 263.267792 
L 446.785001 254.25217 
L 436.002008 246.254957 
L 424.487074 239.353171 
L 412.351094 233.61328 
L 399.710944 229.090562 
L 386.688356 225.828574 
L 373.408745 223.858729 
L 360 223.2 
L 346.591255 223.858729 
L 333.311644 225.828574 
L 320.289056 229.090562 
L 307.648906 233.61328 
L 295.512926 239.353171 
L 283.997992 246.254957 
L 273.214999 254.25217 
L 263.267792 263.267792 
L 254.25217 273.214999 
L 246.254957 283.997992 
L 239.353171 295.512926 
L 233.61328 307.648906 
L 229.090562 320.289056 
L 225.828574 333.311644 
L 223.858729 346.591255 
L 223.2 360 
L 223.858729 373.408745 
L 225.828574 386.688356 
L 229.090562 399.710944 
L 233.61328 412.351094 
L 239.353171 424.487074 
L 246.254957 436.002008 
L 254.25217 446.785001 
L 263.267792 456.732208 
L 273.214999 465.74783 
L 283.997992 473.745043 
L 295.512926 480.646829 
L 307.648906 486.38672 
L 320.289056 490.909438 
L 333.311644 494.171426 
L 346.591255 496.141271 
L 360 496.8 
L 373.408745 496.141271 
L 386.688356 494.171426 
L 399.710944 490.909438 
L 412.351094 486.38672 
L 424.487074 480.646829 
L 436.002008 473.745043 
L 446.785001 465.74783 
L 456.732208 456.732208 
L 465.74783 446.785001 
L 473.745043 436.002008 
L 480.646829 424.487074 
L 486.38672 412.351094 
L 490.909438 399.710944 
L 494.171426 386.688356 
L 496.141271 373.408745 
L 496.8 360 
" style="fill:#2a788e;stroke:#000000;stroke-linejoin:miter;"/>
   </g>
   <g id="patch_3">
    <path clip-path="url(#ped94ca8a84)" d="M 72.500184 349.9172 
L 73.052319 349.91409 
L 73.604459 349.910804 
L 74.156615 349.907341 
L 74.7088 349.903705 
L 75.261027 349.899895 
L 75.813309 349.895915 
L 76.36566 349.891768 
L 76.918097 349.887458 
L 77.470633 349.882989 
L 78.023284 349.878369 
L 78.576069 349.873602 
L 79.129002 349.868697 
L 79.682103 349.863663 
L 80.235388 349.858507 
L 80.788876 349.853242 
L 81.342586 349.847878 
L 81.896537 349.842428 
L 82.450747 349.836905 
L 83.005236 349.831323 
L 83.560024 349.825699 
L 84.11513 349.82005 
L 84.670442 349.814393 
L 85.226059 349.808748 
L 85.782044 349.803135 
L 86.338414 349.797573 
L 86.89519 349.792086 
L 87.452389 349.786697 
L 88.01003 349.78143 
L 88.568131 349.776311 
L 89.126708 349.771366 
L 89.685779 349.766623 
L 90.245357 349.762109 
L 90.805459 349.757856 
L 91.366097 349.753892 
L 91.927284 349.750248 
L 92.489032 349.746957 
L 93.051349 349.744051 
L 93.614246 349.741563 
L 94.177727 349.739526 
L 94.741799 349.737975 
L 95.306465 349.736943 
L 95.871726 349.736465 
L 95.88223 349.736461 
L 96.437582 349.736575 
L 96.448678 349.736583 
L 97.004031 349.737309 
L 97.015714 349.737331 
L 97.571067 349.738699 
L 97.58333 349.738737 
L 98.138683 349.740782 
L 98.151517 349.740837 
L 98.70687 349.743589 
L 98.720262 349.743664 
L 99.275615 349.747154 
L 99.289551 349.747251 
L 99.844904 349.751508 
L 99.859367 349.751629 
L 100.414719 349.756684 
L 100.429688 349.756831 
L 100.98504 349.76271 
L 101.000492 349.762886 
L 101.555845 349.769616 
L 101.571753 349.769821 
L 102.127106 349.777429 
L 102.143442 349.777666 
L 102.698795 349.786173 
L 102.715527 349.786444 
L 103.27088 349.795873 
L 103.287972 349.796178 
L 103.843325 349.80655 
L 103.86074 349.80689 
L 104.416092 349.818222 
L 104.433788 349.818599 
L 104.989141 349.830906 
L 105.007072 349.83132 
L 105.562425 349.844616 
L 105.580545 349.845066 
L 106.135898 349.859362 
L 106.154155 349.859848 
L 106.709508 349.875151 
L 106.727848 349.875673 
L 107.283201 349.891987 
L 107.301567 349.892543 
L 107.85692 349.909871 
L 107.875251 349.910459 
L 108.430604 349.928798 
L 108.448838 349.929417 
L 109.004191 349.948762 
L 109.02226 349.949408 
L 109.577613 349.969751 
L 109.59545 349.97042 
L 110.150802 349.991747 
L 110.168334 349.992436 
L 110.723686 350.014732 
L 110.740838 350.015435 
L 111.296191 350.038678 
L 111.312885 350.03939 
L 111.868238 350.063556 
L 111.884396 350.064272 
L 112.439749 350.08933 
L 112.455289 350.090043 
L 113.010642 350.11596 
L 113.025481 350.116664 
L 113.580833 350.143401 
L 113.594885 350.144087 
L 114.150237 350.171602 
L 114.163414 350.172263 
L 114.718767 350.200506 
L 114.73098 350.201135 
L 115.286333 350.230053 
L 115.297492 350.230641 
L 115.852845 350.260177 
L 116.418213 350.290804 
L 116.982344 350.32186 
L 117.545147 350.353261 
L 118.106529 350.384921 
L 118.666397 350.416749 
L 119.224659 350.448648 
L 119.780935 350.480501 
L 120.334773 350.512183 
L 120.88669 350.543619 
L 121.4366 350.5747 
L 121.984417 350.605308 
L 122.530061 350.635328 
L 123.073453 350.664638 
L 123.614518 350.693116 
L 124.153185 350.720638 
L 124.689385 350.747078 
L 125.223058 350.772309 
L 125.754147 350.796205 
L 126.282601 350.818637 
L 126.808375 350.83948 
L 127.331431 350.858607 
L 127.851739 350.875892 
L 128.369278 350.891213 
L 128.884033 350.904446 
L 129.396 350.915474 
L 129.905184 350.924178 
L 130.411601 350.930445 
L 130.915278 350.934164 
L 131.416252 350.935226 
L 131.914573 350.933529 
L 132.410304 350.92897 
L 132.903518 350.921455 
L 133.394305 350.910889 
L 133.882766 350.897183 
L 134.369016 350.880254 
L 134.853185 350.860019 
L 135.335416 350.8364 
L 135.815866 350.809324 
L 136.294707 350.778722 
L 136.772121 350.744525 
L 137.248309 350.706671 
L 137.723479 350.6651 
L 138.197856 350.619756 
L 138.671673 350.570586 
L 139.145175 350.517541 
L 139.618619 350.460576 
L 140.092267 350.399649 
L 140.566392 350.334724 
L 141.041273 350.265769 
L 141.517197 350.192757 
L 141.994452 350.115669 
L 142.473334 350.034491 
L 142.954139 349.949217 
L 143.437167 349.859852 
L 143.922718 349.766408 
L 144.411093 349.668911 
L 144.902594 349.567396 
L 145.397519 349.461916 
L 145.896169 349.352535 
L 146.39884 349.239336 
L 146.905829 349.122419 
L 147.417431 349.001903 
L 147.933938 348.877929 
L 148.455643 348.750661 
L 148.982838 348.620284 
L 149.515813 348.487011 
L 150.054859 348.351082 
L 150.600269 348.212765 
L 151.152278 348.072372 
L 151.707746 347.931107 
L 152.270312 347.788475 
L 152.284921 347.784783 
L 152.840274 347.644866 
L 152.862578 347.639274 
L 153.417931 347.500703 
L 153.44823 347.493193 
L 154.003583 347.356448 
L 154.04218 347.347025 
L 154.597533 347.2126 
L 154.64473 347.201296 
L 155.200083 347.069698 
L 155.256182 347.056574 
L 155.811535 346.928324 
L 155.876835 346.913472 
L 156.432187 346.789102 
L 156.506982 346.77265 
L 157.062334 346.652704 
L 157.146908 346.634817 
L 157.702261 346.519847 
L 157.796887 346.500729 
L 158.35224 346.391294 
L 158.457175 346.371194 
L 159.012527 346.267862 
L 159.128002 346.24707 
L 159.683355 346.150412 
L 159.809572 346.129269 
L 160.364925 346.03986 
L 160.50205 346.018751 
L 161.057402 345.937167 
L 161.205553 345.916524 
L 161.760905 345.843342 
L 161.920144 345.823646 
L 162.475497 345.759439 
L 162.645819 345.741212 
L 163.201172 345.686551 
L 163.382497 345.670355 
L 163.93785 345.625804 
L 164.130011 345.612235 
L 164.685363 345.578351 
L 164.888093 345.56803 
L 165.443445 345.545359 
L 165.65637 345.538919 
L 166.211723 345.527996 
L 166.434354 345.526076 
L 166.989707 345.527421 
L 167.221436 345.530646 
L 167.776789 345.544762 
L 168.016884 345.55373 
L 168.572236 345.581102 
L 168.81984 345.596363 
L 169.375193 345.637456 
L 169.629332 345.659498 
L 170.184685 345.714752 
L 170.444276 345.743981 
L 170.999629 345.813812 
L 171.263492 345.850539 
L 171.818845 345.935332 
L 172.085723 345.979753 
L 172.641076 346.079867 
L 172.909652 346.132057 
L 173.465004 346.247815 
L 173.733929 346.307717 
L 174.289282 346.43941 
L 174.557198 346.506833 
L 175.112551 346.654712 
L 175.378121 346.729334 
L 175.933474 346.893613 
L 176.195403 346.974986 
L 176.750756 347.155837 
L 177.007819 347.243397 
L 177.563172 347.440947 
L 177.814234 347.53403 
L 178.369587 347.748362 
L 178.613617 347.846218 
L 179.16897 348.077367 
L 179.405057 348.179183 
L 179.96041 348.427133 
L 180.18777 348.532049 
L 180.743122 348.796735 
L 180.961099 348.903866 
L 181.516451 349.185167 
L 181.724516 349.293618 
L 182.279869 349.59136 
L 182.477616 349.700247 
L 183.032969 350.014198 
L 183.220108 350.122657 
L 183.775461 350.45253 
L 183.951803 350.559732 
L 184.507156 350.905178 
L 184.672603 351.010337 
L 185.227956 351.370948 
L 185.382488 351.473324 
L 185.93784 351.848631 
L 186.081498 351.947536 
L 186.63685 352.337008 
L 186.769724 352.431808 
L 187.325077 352.834851 
L 187.447293 352.924962 
L 188.002645 353.34092 
L 188.114351 353.425807 
L 188.669704 353.853959 
L 188.771057 353.933134 
L 189.32641 354.372696 
L 189.417568 354.445711 
L 189.972921 354.895837 
L 190.054029 354.962279 
L 190.609382 355.422058 
L 190.680566 355.481546 
L 191.235918 355.950005 
L 191.297272 356.00218 
L 191.852624 356.478286 
L 191.904203 356.522808 
L 192.459556 357.005465 
L 192.501368 357.042006 
L 193.056721 357.53006 
L 193.088721 357.558302 
L 193.644073 358.050538 
L 193.66615 358.070164 
L 194.221503 358.565314 
L 194.233473 358.576004 
L 194.788826 359.072743 
L 195.34121 359.567038 
L 195.881837 360.049631 
L 196.410981 360.519411 
L 196.927989 360.974499 
L 197.432065 361.412969 
L 197.92225 361.832853 
L 198.397401 362.232158 
L 198.856168 362.608884 
L 199.296967 362.961048 
L 199.717955 363.286719 
L 200.117006 363.584064 
L 200.491685 363.85141 
L 200.839237 364.087322 
L 201.156584 364.290697 
L 201.440355 364.460897 
L 201.474765 364.480014 
L 201.724553 364.217058 
L 202.025003 363.874222 
L 202.357801 363.465193 
L 202.718917 362.989817 
L 203.104711 362.44861 
L 203.511957 361.842593 
L 203.937831 361.173183 
L 204.379883 360.442095 
L 204.836003 359.651275 
L 205.304381 358.802859 
L 205.783471 357.899133 
L 206.271952 356.942516 
L 206.768706 355.935541 
L 207.272779 354.880846 
L 207.783367 353.781171 
L 208.299791 352.639348 
L 208.821481 351.458302 
L 209.347962 350.241045 
L 209.878844 348.990675 
L 210.413813 347.710371 
L 210.95262 346.403389 
L 211.495084 345.073054 
L 212.041078 343.722756 
L 212.590538 342.355937 
L 213.143457 340.976083 
L 213.69846 339.59028 
L 214.256675 338.199524 
L 214.263255 338.183173 
L 214.818607 336.806525 
L 214.829139 336.780521 
L 215.384492 335.414842 
L 215.399302 335.378623 
L 215.954655 334.027992 
L 215.974178 333.980851 
L 216.529531 332.649422 
L 216.554335 332.590483 
L 217.109687 331.282472 
L 217.140504 331.210665 
L 217.695857 329.930336 
L 217.733627 329.844358 
L 218.28898 328.596016 
L 218.334913 328.494286 
L 218.890265 327.282264 
L 218.945919 327.162869 
L 219.501272 325.991514 
L 219.568667 325.85214 
L 220.124019 324.725805 
L 220.205793 324.563656 
L 220.761146 323.486684 
L 220.860774 323.298391 
L 221.416127 322.275103 
L 221.538236 322.056621 
L 222.093588 321.091302 
L 222.244395 320.837821 
L 222.799748 319.934706 
L 222.987699 319.640595 
L 223.543052 318.803856 
L 223.779722 318.462733 
L 224.335074 317.696467 
L 224.636415 317.301541 
L 225.191768 316.609751 
L 225.579771 316.154757 
L 226.135124 315.541345 
L 226.639769 315.022648 
L 227.195122 314.491394 
L 227.855974 313.912224 
L 228.411326 313.466775 
L 229.276873 312.844759 
L 229.832226 312.488615 
L 230.952675 311.866836 
L 231.508027 311.603335 
L 232.20144 311.305593 
L 232.915184 311.060561 
L 233.470537 310.892865 
L 234.299265 310.680541 
L 235.143012 310.539254 
L 235.698364 310.470337 
L 236.613337 310.398892 
L 237.531015 310.410963 
L 238.086368 310.443596 
L 239.00196 310.539508 
L 239.904982 310.718553 
L 240.460335 310.85529 
L 241.288792 311.097325 
L 242.093506 311.409342 
L 242.648859 311.652511 
L 243.337399 311.985679 
L 243.998692 312.3701 
L 244.554044 312.721785 
L 245.607931 313.488937 
L 246.163283 313.95097 
L 246.960512 314.690538 
L 247.515865 315.264485 
L 248.111576 315.937795 
L 248.666928 316.624948 
L 249.112176 317.219396 
L 249.667529 318.02076 
L 250.002822 318.537638 
L 250.558175 319.45392 
L 250.813508 319.900523 
L 251.36886 320.932126 
L 251.56579 321.317538 
L 252.121142 322.464551 
L 252.275016 322.797684 
L 252.830368 324.059873 
L 252.952126 324.348702 
L 253.507479 325.725505 
L 253.604978 325.976858 
L 254.160331 327.467377 
L 254.239268 327.686975 
L 254.794621 329.289973 
L 254.859177 329.482563 
L 255.41453 331.196457 
L 255.467808 331.365963 
L 256.023161 333.188823 
L 256.067494 333.338486 
L 256.622847 335.268029 
L 256.660005 335.400531 
L 257.215358 337.434125 
L 257.246703 337.551693 
L 257.802056 339.68635 
L 257.828643 339.790836 
L 258.383996 342.023218 
L 258.406652 342.116172 
L 258.962005 344.44259 
L 258.981383 344.525307 
L 259.536735 346.941724 
L 259.553354 347.015295 
L 260.108707 349.51733 
L 260.122983 349.582671 
L 260.678335 352.165604 
L 260.690603 352.223485 
L 261.245955 354.882265 
L 261.256485 354.933335 
L 261.811837 357.662582 
L 261.820848 357.707385 
L 262.376201 360.501403 
L 262.383871 360.540392 
L 262.939223 363.393178 
L 262.945695 363.426726 
L 263.501048 366.33198 
L 263.506436 366.36039 
L 264.061789 369.311525 
L 264.066184 369.335036 
L 264.621537 372.325194 
L 264.625009 372.343988 
L 265.180362 375.36605 
L 265.182961 375.380252 
L 265.738314 378.426857 
L 266.295427 381.5001 
L 266.851718 384.577999 
L 267.406831 387.650546 
L 267.961034 390.711065 
L 268.514344 393.751382 
L 269.066698 396.762792 
L 269.618006 399.736397 
L 270.168152 402.663117 
L 270.716981 405.533693 
L 271.264291 408.338691 
L 271.620882 410.123054 
L 271.95659 407.957809 
L 272.501723 404.261184 
L 273.048502 400.37894 
L 273.596619 396.319612 
L 274.145837 392.092106 
L 274.695972 387.705725 
L 275.246877 383.170191 
L 275.798438 378.495649 
L 276.350563 373.692669 
L 276.903178 368.772243 
L 277.456225 363.745766 
L 278.009657 358.62503 
L 278.563437 353.422198 
L 279.117535 348.149786 
L 279.671931 342.820635 
L 280.226608 337.447884 
L 280.781558 332.044938 
L 281.336775 326.62544 
L 281.892127 321.204543 
L 282.447749 315.794983 
L 283.003652 310.410896 
L 283.55985 305.066516 
L 283.561015 305.055383 
L 284.116368 299.776113 
L 284.117883 299.761814 
L 284.673235 294.553959 
L 284.67514 294.536244 
L 285.230493 289.414271 
L 285.232841 289.392825 
L 285.788194 284.371166 
L 285.791054 284.345598 
L 286.346407 279.438604 
L 286.349869 279.408426 
L 286.905221 274.630331 
L 286.909399 274.594936 
L 287.464751 269.959811 
L 287.469795 269.91844 
L 288.025148 265.440154 
L 288.031256 265.391854 
L 288.586608 261.08403 
L 288.594046 261.027591 
L 289.149399 256.903569 
L 289.158527 256.837442 
L 289.71388 252.910233 
L 289.725195 252.832406 
L 290.280548 249.114654 
L 290.294753 249.022476 
L 290.850106 245.526418 
L 290.868219 245.41633 
L 291.423572 242.153757 
L 291.447106 242.020882 
L 292.002458 239.0031 
L 292.033746 238.840591 
L 292.589098 236.078383 
L 292.631875 235.876353 
L 293.187228 233.379943 
L 293.247771 233.123632 
L 293.803124 230.902652 
L 293.892606 230.569171 
L 294.447958 228.632623 
L 294.5877 228.184918 
L 295.143052 226.541146 
L 295.377405 225.916476 
L 295.932757 224.57313 
L 296.364074 223.6618 
L 296.919427 222.625814 
L 297.337421 221.917136 
L 297.811819 221.244909 
L 298.367172 220.522466 
L 298.990769 219.786929 
L 299.681798 219.114346 
L 300.433934 218.510872 
L 300.989287 218.107385 
L 301.807611 217.571503 
L 302.674023 217.117461 
L 303.580364 216.749537 
L 304.5181 216.471193 
L 305.4784 216.285051 
L 306.033752 216.205134 
L 306.973361 216.114575 
L 307.917321 216.112308 
L 308.857354 216.198354 
L 309.785215 216.371957 
L 310.692769 216.631595 
L 311.572055 216.974991 
L 312.127408 217.22244 
L 312.995495 217.660582 
L 313.817326 218.18033 
L 314.585253 218.776847 
L 315.292129 219.444583 
L 315.847482 220.022358 
L 316.563532 220.853463 
L 317.185024 221.757459 
L 317.740377 222.667666 
L 318.339863 223.808351 
L 318.895216 225.052225 
L 319.199202 225.815154 
L 319.754555 227.39305 
L 319.92598 227.927119 
L 320.481332 229.8385 
L 320.586292 230.228784 
L 321.141645 232.472213 
L 321.210112 232.767798 
L 321.765465 235.340935 
L 321.812393 235.571374 
L 322.367746 238.470972 
L 322.401206 238.654887 
L 322.956558 241.876793 
L 322.98119 242.026411 
L 323.536543 245.565568 
L 323.55516 245.689214 
L 324.110513 249.539669 
L 324.124896 249.643186 
L 324.680248 253.798094 
L 324.691567 253.885697 
L 325.24692 258.337335 
L 325.255967 258.412133 
L 325.81132 263.151913 
L 325.818648 263.216247 
L 326.374001 268.234731 
L 326.380004 268.290393 
L 326.935357 273.577313 
L 326.940321 273.625696 
L 327.495674 279.169974 
L 327.499811 279.212176 
L 328.055164 285.001948 
L 328.058635 285.038843 
L 328.613987 291.061487 
L 328.616912 291.093776 
L 329.172265 297.335938 
L 329.174738 297.36419 
L 329.730091 303.811817 
L 329.732186 303.836497 
L 330.287539 310.474868 
L 330.289313 310.496355 
L 330.844666 317.31012 
L 330.846165 317.328725 
L 331.401517 324.301941 
L 331.402777 324.317918 
L 331.95813 331.434086 
L 331.959179 331.447644 
L 332.514531 338.689755 
L 332.515392 338.701062 
L 333.070745 346.051637 
L 333.626787 353.501963 
L 334.182673 361.022558 
L 334.738412 368.594889 
L 335.29401 376.200119 
L 335.84946 383.818984 
L 336.404719 391.431606 
L 336.95984 399.019286 
L 337.514817 406.562475 
L 338.06964 414.041577 
L 338.624298 421.437006 
L 339.178774 428.729229 
L 339.733045 435.89882 
L 340.287084 442.926505 
L 340.840854 449.793208 
L 341.39431 456.480093 
L 341.947391 462.968599 
L 342.326799 467.274549 
L 342.408357 466.321788 
L 342.961101 459.597159 
L 343.514268 452.616254 
L 344.067783 445.396973 
L 344.62159 437.95776 
L 345.175644 430.317571 
L 345.729909 422.495841 
L 346.284358 414.512447 
L 346.838969 406.387656 
L 347.393725 398.142085 
L 347.948613 389.796644 
L 348.503623 381.372486 
L 349.058748 372.890952 
L 349.613983 364.373512 
L 350.169304 355.84205 
L 350.7247 347.318277 
L 351.280205 338.823229 
L 351.835822 330.378327 
L 352.391555 322.004826 
L 352.947413 313.723756 
L 353.503406 305.555864 
L 353.504197 305.544347 
L 354.05955 297.521551 
L 354.060508 297.507836 
L 354.615861 289.640809 
L 354.617011 289.624697 
L 355.172364 281.933167 
L 355.173736 281.914412 
L 355.729089 274.417623 
L 355.73072 274.395924 
L 356.286072 267.112585 
L 356.288011 267.087571 
L 356.843363 260.035804 
L 356.845672 260.007018 
L 357.401025 253.204313 
L 357.403784 253.171189 
L 357.959136 246.63435 
L 357.962452 246.596182 
L 358.517805 240.341287 
L 358.521818 240.297182 
L 359.077171 234.339539 
L 359.082073 234.288362 
L 359.637426 228.642466 
L 359.643479 228.58275 
L 360.198832 223.262245 
L 360.206406 223.192066 
L 360.761758 218.209711 
L 360.771383 218.126499 
L 361.326736 213.494133 
L 361.339199 213.394383 
L 361.894552 209.122895 
L 361.911056 209.001708 
L 362.466409 205.101008 
L 362.488866 204.951336 
L 363.044218 201.430332 
L 363.075811 201.241679 
L 363.631164 198.108252 
L 363.677499 197.864336 
L 364.232852 195.125325 
L 364.304523 194.799608 
L 364.859876 192.460789 
L 364.978744 192.007364 
L 365.534096 190.073443 
L 365.750738 189.407225 
L 366.306091 187.88182 
L 366.75616 186.834126 
L 367.311513 185.719769 
L 367.824423 184.811561 
L 368.428439 183.961218 
L 368.983792 183.259346 
L 369.685549 182.462561 
L 370.467226 181.744013 
L 371.320147 181.111673 
L 372.234851 180.572557 
L 372.790204 180.283512 
L 373.703313 179.864699 
L 374.653575 179.538852 
L 375.631551 179.30921 
L 376.627529 179.178053 
L 377.631615 179.146683 
L 378.633838 179.215412 
L 379.624242 179.383558 
L 380.179595 179.506592 
L 381.066669 179.746009 
L 381.928258 180.065207 
L 382.757202 180.461532 
L 383.546613 180.931692 
L 384.289934 181.471782 
L 384.980987 182.077312 
L 385.53634 182.610592 
L 386.166692 183.273431 
L 386.734362 183.990683 
L 387.234674 184.756442 
L 387.790027 185.697057 
L 388.425993 186.972345 
L 388.981346 188.31632 
L 389.269287 189.104635 
L 389.82464 190.846944 
L 389.975963 191.370139 
L 390.531315 193.504726 
L 390.619823 193.873214 
L 391.175176 196.393011 
L 391.231152 196.664731 
L 391.786505 199.561684 
L 391.824053 199.769274 
L 392.379406 203.034366 
L 392.405766 203.197416 
L 392.961119 206.820698 
L 392.980305 206.951608 
L 393.535658 210.922231 
L 393.550035 211.0292 
L 394.105388 215.33545 
L 394.116422 215.424105 
L 394.671775 220.053436 
L 394.680411 220.12776 
L 395.235764 225.066834 
L 395.242635 225.129719 
L 395.797988 230.364448 
L 395.803528 230.41804 
L 396.358881 235.933627 
L 396.363399 235.979552 
L 396.918752 241.760536 
L 396.922469 241.800045 
L 397.477821 247.830345 
L 397.4809 247.864413 
L 398.036253 254.12738 
L 398.038816 254.156775 
L 398.594169 260.635237 
L 398.596309 260.660572 
L 399.151661 267.336886 
L 399.153448 267.358653 
L 399.708801 274.214755 
L 399.71029 274.23335 
L 400.265642 281.250809 
L 400.266876 281.266553 
L 400.822228 288.426623 
L 400.82324 288.439773 
L 401.378592 295.723447 
L 401.379408 295.734213 
L 401.93476 303.122274 
L 402.490752 310.603903 
L 403.046582 318.148997 
L 403.602263 325.738141 
L 404.157803 333.351904 
L 404.713162 340.970306 
L 405.268362 348.574291 
L 405.823424 356.145031 
L 406.378343 363.663558 
L 406.933113 371.111147 
L 407.487722 378.469371 
L 408.042154 385.720143 
L 408.596392 392.845759 
L 409.15041 399.828942 
L 409.704177 406.652877 
L 410.257655 413.301243 
L 410.810795 419.758248 
L 411.363534 426.008651 
L 411.915792 432.037777 
L 412.467469 437.831534 
L 413.018429 443.376408 
L 413.023568 443.425764 
L 413.524499 439.13804 
L 414.076587 434.281766 
L 414.629247 429.303815 
L 415.182397 424.218979 
L 415.735972 419.042045 
L 416.289923 413.787771 
L 416.844215 408.470859 
L 417.398817 403.105922 
L 417.95371 397.707453 
L 418.50888 392.289789 
L 419.06421 386.868158 
L 419.619784 381.455628 
L 420.175626 376.065658 
L 420.731742 370.711637 
L 420.732792 370.701581 
L 421.288144 365.406632 
L 421.289497 365.393813 
L 421.84485 360.163348 
L 421.84653 360.147644 
L 422.401882 354.994097 
L 422.40392 354.975349 
L 422.959273 349.910767 
L 422.961709 349.888773 
L 423.517062 344.92479 
L 423.519946 344.8993 
L 424.075299 340.047106 
L 424.078695 340.017814 
L 424.634048 335.288135 
L 424.638034 335.25467 
L 425.193386 330.657742 
L 425.198061 330.619656 
L 425.753414 326.165205 
L 425.758901 326.121954 
L 426.314254 321.819177 
L 426.32071 321.770105 
L 426.876063 317.62765 
L 426.883687 317.571957 
L 427.43904 313.59791 
L 427.448089 313.534618 
L 428.003442 309.736488 
L 428.01425 309.664394 
L 428.569602 306.049101 
L 428.582607 305.966713 
L 429.13796 302.540576 
L 429.153748 302.446023 
L 429.709101 299.214755 
L 429.728467 299.10567 
L 430.283819 296.07437 
L 430.307861 295.947718 
L 430.863213 293.120866 
L 430.893476 292.972707 
L 431.448829 290.354162 
L 431.487542 290.179296 
L 432.042894 287.772295 
L 432.093353 287.563754 
L 432.648706 285.370912 
L 432.715932 285.119181 
L 433.271285 283.142497 
L 433.363187 282.83435 
L 433.918539 281.075208 
L 434.048055 280.691921 
L 434.603408 279.151097 
L 434.792623 278.66581 
L 435.347976 277.343482 
L 435.636354 276.71766 
L 436.191707 275.613416 
L 436.652967 274.793896 
L 437.208319 273.906743 
L 437.984074 272.831788 
L 438.539427 272.160168 
L 439.183915 271.452107 
L 439.892676 270.808389 
L 440.448028 270.350192 
L 441.174787 269.803743 
L 441.947831 269.325009 
L 442.760871 268.917885 
L 443.316223 268.670463 
L 444.130722 268.349216 
L 444.970026 268.099862 
L 445.827802 267.924283 
L 446.697579 267.823803 
L 447.252932 267.783989 
L 448.156784 267.759846 
L 449.059163 267.816795 
L 449.952808 267.954376 
L 450.83053 268.171483 
L 451.385883 268.335606 
L 452.314015 268.659892 
L 453.206142 269.073054 
L 454.053775 269.571161 
L 454.609127 269.935068 
L 455.457132 270.556272 
L 456.235831 271.262412 
L 456.791184 271.821486 
L 457.737558 272.922572 
L 458.292911 273.671753 
L 458.858796 274.522036 
L 459.414149 275.455845 
L 459.769327 276.106375 
L 460.32468 277.218934 
L 460.558764 277.722087 
L 461.114117 279.007147 
L 461.275203 279.402703 
L 461.830556 280.853664 
L 461.945547 281.169802 
L 462.500899 282.779739 
L 462.585541 283.036206 
L 463.140894 284.797897 
L 463.204809 285.008651 
L 463.760162 286.914598 
L 463.809463 287.089663 
L 464.364815 289.132123 
L 464.40352 289.278821 
L 464.958873 291.449828 
L 464.989702 291.573603 
L 465.545054 293.864998 
L 465.569899 293.969959 
L 466.125252 296.373415 
L 466.145458 296.462709 
L 466.70081 298.969758 
L 466.717353 299.045827 
L 467.272706 301.647885 
L 467.286305 301.712645 
L 467.841658 304.401041 
L 467.852853 304.456006 
L 468.408205 307.222006 
L 468.417404 307.268384 
L 468.972757 310.103217 
L 468.980271 310.141975 
L 469.535623 313.03686 
L 469.541692 313.068774 
L 470.097045 316.014943 
L 470.101853 316.040635 
L 470.657206 319.029358 
L 470.660895 319.049325 
L 471.216248 322.071934 
L 471.218926 322.086568 
L 471.774278 325.134481 
L 472.331376 328.208828 
L 472.887598 331.286857 
L 473.442585 334.358341 
L 473.996736 337.417485 
L 474.550061 340.456549 
L 475.102537 343.467869 
L 475.654125 346.443951 
L 476.204769 349.377488 
L 476.754392 352.261374 
L 477.302896 355.088713 
L 477.850158 357.852826 
L 478.396024 360.547258 
L 478.940304 363.165773 
L 479.482763 365.702359 
L 480.023111 368.151216 
L 480.560988 370.506745 
L 481.095947 372.763531 
L 481.627428 374.916318 
L 482.154726 376.959975 
L 482.676945 378.889451 
L 483.192937 380.699718 
L 483.684095 382.3289 
L 483.735335 382.214291 
L 484.255194 381.020849 
L 484.781693 379.785192 
L 485.31396 378.512824 
L 485.851319 377.208981 
L 486.393246 375.878649 
L 486.939342 374.526585 
L 487.489311 373.157329 
L 488.042909 371.775297 
L 488.598332 370.388785 
L 489.15724 368.997381 
L 489.164247 368.979985 
L 489.7196 367.604848 
L 489.730083 367.578992 
L 490.285436 366.214742 
L 490.299481 366.180421 
L 490.854834 364.830415 
L 490.872583 364.787549 
L 491.427935 363.455009 
L 491.449593 363.403447 
L 492.004946 362.091454 
L 492.030779 362.030974 
L 492.586132 360.742466 
L 492.61648 360.672778 
L 493.171832 359.410542 
L 493.20711 359.331286 
L 493.762463 358.097956 
L 493.803175 358.008706 
L 494.358527 356.806758 
L 494.405275 356.707016 
L 494.960628 355.538769 
L 495.014129 355.427972 
L 495.569482 354.295582 
L 495.630586 354.173099 
L 496.185938 353.07856 
L 496.255647 352.943697 
L 496.811 351.888837 
L 496.890494 351.740846 
L 497.445847 350.727328 
L 497.536515 350.565415 
L 498.091867 349.594739 
L 498.195334 349.418081 
L 498.750687 348.491582 
L 498.868855 348.299353 
L 499.424208 347.418202 
L 499.559291 347.209616 
L 500.114644 346.374821 
L 500.269209 346.149181 
L 500.824561 345.36159 
L 501.001559 345.118363 
L 501.556912 344.378666 
L 501.759703 344.117589 
L 502.315055 343.426322 
L 502.547412 343.147531 
L 503.102765 342.505074 
L 503.368838 342.209275 
L 503.924191 341.615862 
L 504.228426 341.304532 
L 504.783779 340.760252 
L 505.130745 340.435873 
L 505.686098 339.940672 
L 506.080216 339.606965 
L 506.635569 339.160653 
L 507.080711 338.822786 
L 507.636064 338.425041 
L 508.135014 338.08974 
L 508.690367 337.740112 
L 509.244174 337.415607 
L 509.799527 337.113526 
L 510.406826 336.809243 
L 510.962178 336.55402 
L 511.618602 336.279971 
L 512.173955 336.070809 
L 512.871828 335.836689 
L 513.42718 335.672682 
L 514.155646 335.486786 
L 514.710998 335.366932 
L 515.456675 335.235102 
L 516.012027 335.158304 
L 516.760143 335.083159 
L 517.315496 335.048233 
L 518.051287 335.028886 
L 518.60664 335.034568 
L 519.316716 335.066896 
L 519.872068 335.111845 
L 520.545461 335.189213 
L 521.100813 335.272021 
L 521.729551 335.386252 
L 522.284904 335.505449 
L 522.864093 335.647809 
L 523.419446 335.801869 
L 523.946968 335.963884 
L 524.502321 336.151229 
L 524.978306 336.325246 
L 525.533658 336.544257 
L 525.959883 336.72375 
L 526.515236 336.972772 
L 526.894561 337.152438 
L 527.449914 337.429781 
L 527.785807 337.605493 
L 528.341159 337.909443 
L 528.63734 338.078114 
L 529.192692 338.406938 
L 529.452875 338.56636 
L 530.008227 338.918312 
L 530.23596 339.066981 
L 530.791313 339.440306 
L 530.989882 339.577268 
L 531.545235 339.970209 
L 531.717615 340.094927 
L 532.272968 340.505729 
L 532.421811 340.617974 
L 532.977163 341.044889 
L 533.104802 341.14465 
L 533.660155 341.585943 
L 533.768621 341.673362 
L 534.323973 342.127316 
L 534.415021 342.202635 
L 534.970374 342.667556 
L 535.045509 342.731082 
L 535.600862 343.205299 
L 535.661363 343.257377 
L 536.216716 343.73925 
L 536.263665 343.780242 
L 536.819017 344.268167 
L 536.853316 344.29844 
L 537.408669 344.790849 
L 537.431064 344.810766 
L 537.986417 345.306132 
L 537.997518 345.316049 
L 538.552871 345.812889 
L 539.103451 346.305499 
L 539.643601 346.787467 
L 540.173708 347.257915 
L 540.693931 347.715881 
L 541.20436 348.160461 
L 541.705023 348.590812 
L 542.195897 349.006159 
L 542.676912 349.405801 
L 543.147965 349.789123 
L 543.608923 350.155593 
L 544.059638 350.504778 
L 544.49995 350.836344 
L 544.929706 351.150062 
L 545.348764 351.445815 
L 545.757007 351.723599 
L 546.154363 351.983523 
L 546.540806 352.225812 
L 546.916384 352.450802 
L 547.281221 352.658937 
L 547.635539 352.85076 
L 547.979665 353.026899 
L 548.314043 353.188062 
L 548.639242 353.335011 
L 548.955958 353.468549 
L 549.265017 353.5895 
L 549.567369 353.698684 
L 549.864077 353.796899 
L 550.156309 353.884898 
L 550.44531 353.963372 
L 550.732392 354.032936 
L 551.018898 354.094115 
L 551.306186 354.14734 
L 551.595595 354.192943 
L 551.888423 354.23116 
L 552.185904 354.262138 
L 552.489188 354.285946 
L 552.799324 354.302583 
L 553.117247 354.312002 
L 553.443775 354.314114 
L 553.7796 354.308812 
L 554.125292 354.295984 
L 554.481302 354.275522 
L 554.84797 354.24734 
L 555.225529 354.21138 
L 555.61412 354.167618 
L 556.013797 354.116075 
L 556.424543 354.056814 
L 556.846277 353.989947 
L 557.278867 353.915633 
L 557.722134 353.834075 
L 558.175867 353.745523 
L 558.639825 353.650266 
L 559.113747 353.548632 
L 559.597357 353.440983 
L 560.090366 353.327711 
L 560.592479 353.209235 
L 561.103396 353.085996 
L 561.622815 352.958453 
L 562.150434 352.82708 
L 562.68595 352.692359 
L 563.229065 352.554784 
L 563.77948 352.414849 
L 564.334151 352.273749 
L 564.894997 352.131413 
L 564.907053 352.128361 
L 565.462405 351.98815 
L 565.480731 351.983542 
L 566.036084 351.844437 
L 566.060388 351.838382 
L 566.61574 351.700743 
L 566.645731 351.693358 
L 567.201084 351.557524 
L 567.236471 351.548937 
L 567.791824 351.415227 
L 567.832316 351.405567 
L 568.387668 351.274281 
L 568.432972 351.263681 
L 568.988324 351.1351 
L 569.038146 351.123697 
L 569.593499 350.998079 
L 569.647543 350.98601 
L 570.202896 350.863595 
L 570.260867 350.850995 
L 570.816219 350.732002 
L 570.877818 350.719005 
L 571.433171 350.603635 
L 571.498098 350.59037 
L 572.053451 350.478803 
L 572.121407 350.465394 
L 572.676759 350.357793 
L 572.747442 350.344359 
L 573.302795 350.240865 
L 573.375904 350.227519 
L 573.931257 350.128256 
L 574.006492 350.115102 
L 574.561845 350.020176 
L 574.638907 350.007311 
L 575.19426 349.916808 
L 575.272853 349.904319 
L 575.828206 349.818312 
L 575.908037 349.806276 
L 576.463389 349.724818 
L 576.544169 349.713303 
L 577.099521 349.636432 
L 577.180966 349.625496 
L 577.736318 349.553234 
L 577.81815 349.542927 
L 578.373503 349.475281 
L 578.455453 349.465639 
L 579.010806 349.402602 
L 579.092612 349.393655 
L 579.647965 349.335206 
L 579.729376 349.326972 
L 580.284728 349.273078 
L 580.365502 349.265567 
L 580.920854 349.216181 
L 581.000759 349.209396 
L 581.556112 349.16446 
L 581.63493 349.158393 
L 582.190282 349.117838 
L 582.267806 349.112477 
L 582.823158 349.076224 
L 582.899194 349.071549 
L 583.454547 349.039509 
L 583.528915 349.035494 
L 584.084268 349.007569 
L 584.156801 349.004184 
L 584.712154 348.980268 
L 584.7827 348.977478 
L 585.338053 348.957458 
L 585.406473 348.955224 
L 585.961826 348.93898 
L 586.027995 348.937262 
L 586.583348 348.924667 
L 586.647156 348.923422 
L 587.202509 348.914345 
L 587.263857 348.913529 
L 587.81921 348.907833 
L 587.878016 348.907401 
L 588.433369 348.904945 
L 588.489561 348.904853 
L 589.044914 348.905493 
L 589.098435 348.905696 
L 589.653787 348.909285 
L 589.704591 348.909741 
L 590.259943 348.916129 
L 590.307995 348.916796 
L 590.863347 348.925832 
L 590.908625 348.92667 
L 591.463977 348.938202 
L 591.506468 348.939174 
L 592.06182 348.953049 
L 592.101522 348.954119 
L 592.656875 348.970183 
L 592.693795 348.971319 
L 593.249148 348.98942 
L 593.283304 348.990591 
L 593.838657 349.010578 
L 593.870073 349.011758 
L 594.425425 349.033479 
L 594.454134 349.034642 
L 595.009487 349.057949 
L 595.035529 349.059076 
L 595.590881 349.083821 
L 595.614303 349.084892 
L 596.169655 349.110932 
L 596.190509 349.111931 
L 596.745862 349.139124 
L 596.764207 349.140039 
L 597.31956 349.168246 
L 597.33546 349.169066 
L 597.890812 349.198153 
L 597.904336 349.19887 
L 598.459689 349.228705 
L 598.470908 349.229314 
L 599.026261 349.25977 
L 599.590605 349.291221 
L 600.152801 349.322937 
L 600.712933 349.354804 
L 601.271084 349.386716 
L 601.826892 349.418544 
L 602.380489 349.450195 
L 602.932418 349.481608 
L 603.482771 349.512699 
L 604.03164 349.54339 
L 604.579117 349.573611 
L 605.125295 349.603294 
L 605.670266 349.63238 
L 606.214122 349.660812 
L 606.756954 349.68854 
L 607.29885 349.715519 
L 607.8399 349.741706 
L 608.38019 349.767066 
L 608.919805 349.791566 
L 609.458828 349.815178 
L 609.997341 349.837878 
L 610.535421 349.859646 
L 611.073146 349.880465 
L 611.610588 349.900323 
L 612.147819 349.919211 
L 612.684907 349.937121 
L 613.221918 349.954051 
L 613.758914 349.970002 
L 614.295954 349.984974 
L 614.833094 349.998975 
L 615.370388 350.012011 
L 615.907885 350.024093 
L 616.445633 350.035233 
L 616.983675 350.045447 
L 617.522052 350.054751 
L 618.0608 350.063162 
L 618.599954 350.070703 
L 619.139545 350.077393 
L 619.679602 350.083256 
L 620.220149 350.088317 
L 620.761208 350.092602 
L 621.302799 350.096137 
L 621.844939 350.098949 
L 622.387641 350.101069 
L 622.930917 350.102524 
L 623.474775 350.103344 
L 624.019222 350.103561 
L 624.564262 350.103204 
L 625.109897 350.102304 
L 625.656127 350.100893 
L 626.20295 350.099002 
L 626.754186 350.096645 
L 627.742397 350.140959 
L 628.721506 350.28192 
L 629.682084 350.518172 
L 630.547273 350.823575 
L 631.526604 349.791317 
L 632.914346 348.594162 
L 634.447364 347.506908 
L 636.110895 346.540024 
L 637.888918 345.702824 
L 639.76431 345.00337 
L 641.719009 344.448397 
L 643.734191 344.043251 
L 645.790448 343.791833 
L 647.867978 343.696564 
L 649.946773 343.758363 
L 652.006812 343.976633 
L 654.028258 344.349274 
L 655.991641 344.872695 
L 657.878054 345.541856 
L 659.669329 346.350314 
L 661.348215 347.290281 
L 662.898544 348.352706 
L 664.305386 349.527357 
L 665.555191 350.802921 
L 666.635923 352.167114 
L 667.537175 353.606798 
L 668.250266 355.108108 
L 668.768329 356.656586 
L 669.086376 358.237319 
L 669.098108 358.400372 
L 669.189747 358.39513 
L 675.935498 358.340808 
L 681.430136 354.427106 
L 681.549122 354.350868 
L 681.675008 354.28666 
L 681.806581 354.2351 
L 681.942574 354.196685 
L 682.081678 354.171784 
L 682.222552 354.160638 
L 682.363841 354.163354 
L 682.504184 354.179905 
L 682.642228 354.210133 
L 682.776644 354.253745 
L 682.906139 354.310323 
L 683.029464 354.379321 
L 683.145433 354.460075 
L 683.252928 354.551807 
L 683.350914 354.653633 
L 683.438447 354.764574 
L 683.514685 354.88356 
L 683.578893 355.009446 
L 683.630453 355.141019 
L 683.668869 355.277012 
L 683.693769 355.416116 
L 683.704915 355.556991 
L 683.7022 355.698279 
L 683.685648 355.838622 
L 683.655421 355.976666 
L 683.611808 356.111082 
L 683.55523 356.240577 
L 683.486232 356.363903 
L 683.405479 356.479871 
L 683.313747 356.587366 
L 683.21192 356.685352 
L 683.10098 356.772886 
L 678.911591 359.756889 
L 683.148492 362.673037 
L 683.260828 362.758772 
L 683.364219 362.855106 
L 683.45767 362.96111 
L 683.540281 363.075763 
L 683.611257 363.197961 
L 683.669913 363.326528 
L 683.715684 363.460225 
L 683.748131 363.597764 
L 683.76694 363.737822 
L 683.771931 363.879048 
L 683.763055 364.020084 
L 683.740398 364.159571 
L 683.704178 364.296165 
L 683.654743 364.428552 
L 683.592571 364.555455 
L 683.518259 364.675653 
L 683.432524 364.787989 
L 683.33619 364.891381 
L 683.230186 364.984832 
L 683.115533 365.067443 
L 682.993335 365.138418 
L 682.864768 365.197074 
L 682.731072 365.242846 
L 682.593532 365.275292 
L 682.453475 365.294102 
L 682.312248 365.299092 
L 682.171212 365.290216 
L 682.031725 365.267559 
L 681.895131 365.231339 
L 681.762745 365.181905 
L 681.635841 365.119732 
L 681.515643 365.04542 
L 675.958689 361.220714 
L 669.212938 361.275036 
L 669.121227 361.271271 
L 669.112122 361.434492 
L 668.819574 363.020141 
L 668.326515 364.576761 
L 667.637694 366.089361 
L 666.759744 367.543372 
L 665.701122 368.924793 
L 664.472021 370.220319 
L 663.084279 371.417474 
L 661.551261 372.504729 
L 659.88773 373.471612 
L 658.109707 374.308812 
L 656.234316 375.008266 
L 654.279616 375.563239 
L 652.264434 375.968385 
L 650.208177 376.219803 
L 648.130647 376.315072 
L 646.051852 376.253273 
L 643.991813 376.035003 
L 641.970368 375.662363 
L 640.006984 375.138941 
L 638.120572 374.46978 
L 636.329297 373.661322 
L 634.65041 372.721355 
L 633.100081 371.65893 
L 631.69324 370.484279 
L 630.699659 369.47022 
L 630.694512 369.472681 
L 629.764566 369.809913 
L 628.806044 370.054371 
L 627.828176 370.203699 
L 626.840379 370.256461 
L 626.285027 370.258835 
L 625.72144 370.260788 
L 625.157262 370.262249 
L 624.59249 370.263185 
L 624.027122 370.26356 
L 624.016512 370.263561 
L 623.461159 370.26334 
L 623.449958 370.26333 
L 622.894605 370.262492 
L 622.882818 370.262467 
L 622.327465 370.26098 
L 622.315099 370.260939 
L 621.759746 370.25877 
L 621.746811 370.258712 
L 621.191459 370.25583 
L 621.177968 370.255751 
L 620.622615 370.252127 
L 620.608583 370.252025 
L 620.053231 370.247627 
L 620.038676 370.247502 
L 619.483323 370.242302 
L 619.468266 370.24215 
L 618.912914 370.23612 
L 618.897378 370.23594 
L 618.342026 370.229054 
L 618.326039 370.228843 
L 617.770686 370.221077 
L 617.754276 370.220834 
L 617.198924 370.212163 
L 617.182124 370.211886 
L 616.626772 370.20229 
L 616.609619 370.201979 
L 616.054266 370.191436 
L 616.036798 370.191089 
L 615.481445 370.179584 
L 615.463704 370.179201 
L 614.908351 370.166717 
L 614.890382 370.166297 
L 614.33503 370.152823 
L 614.316881 370.152367 
L 613.761529 370.137891 
L 613.743252 370.137398 
L 613.1879 370.121915 
L 613.16955 370.121387 
L 612.614198 370.104892 
L 612.595833 370.104329 
L 612.040481 370.086821 
L 612.022161 370.086227 
L 611.466809 370.067707 
L 611.448599 370.067083 
L 610.893247 370.047559 
L 610.875213 370.046909 
L 610.319861 370.026389 
L 610.302073 370.025716 
L 609.746721 370.004214 
L 609.729252 370.003522 
L 609.173899 369.981056 
L 609.156823 369.98035 
L 608.601471 369.956941 
L 608.584866 369.956227 
L 608.029513 369.9319 
L 608.013459 369.931184 
L 607.458107 369.905969 
L 607.442686 369.905257 
L 606.887333 369.87919 
L 606.872629 369.878489 
L 606.317276 369.85161 
L 606.303375 369.850927 
L 605.748022 369.823279 
L 605.735011 369.822623 
L 605.179659 369.794255 
L 605.167627 369.793633 
L 604.612274 369.7646 
L 604.601313 369.764021 
L 604.04596 369.734381 
L 603.480806 369.703671 
L 602.916906 369.672548 
L 602.35435 369.641093 
L 601.793232 369.609396 
L 601.233645 369.577549 
L 600.67568 369.545648 
L 600.119881 369.51382 
L 599.56638 369.482174 
L 599.014816 369.450793 
L 598.465275 369.419789 
L 597.91784 369.389276 
L 597.372593 369.359375 
L 596.829611 369.330204 
L 596.28897 369.301888 
L 595.75074 369.274551 
L 595.214987 369.248318 
L 594.681772 369.223316 
L 594.151151 369.199673 
L 593.623174 369.177515 
L 593.097883 369.15697 
L 592.575317 369.138163 
L 592.055502 369.12122 
L 591.538461 369.106264 
L 591.024204 369.093416 
L 590.512736 369.082796 
L 590.004048 369.074519 
L 589.498123 369.0687 
L 588.994932 369.065448 
L 588.494437 369.064872 
L 587.996584 369.067074 
L 587.501309 369.072154 
L 587.008536 369.080208 
L 586.518173 369.091329 
L 586.030116 369.105605 
L 585.544248 369.12312 
L 585.060436 369.143955 
L 584.578536 369.168186 
L 584.098387 369.195888 
L 583.619815 369.227128 
L 583.142635 369.261975 
L 582.666645 369.300489 
L 582.191633 369.342731 
L 581.717374 369.388755 
L 581.243632 369.438614 
L 580.770159 369.492357 
L 580.296699 369.550028 
L 579.822986 369.611667 
L 579.348746 369.677311 
L 578.873699 369.74699 
L 578.397559 369.820729 
L 577.920034 369.898548 
L 577.440831 369.980459 
L 576.95965 370.066465 
L 576.476193 370.156561 
L 575.990159 370.250731 
L 575.501247 370.34895 
L 575.009156 370.451178 
L 574.513586 370.557361 
L 574.014239 370.667431 
L 573.510817 370.781303 
L 573.003025 370.898873 
L 572.490568 371.020018 
L 571.973152 371.144594 
L 571.450487 371.272433 
L 570.92228 371.403344 
L 570.388241 371.53711 
L 569.848077 371.673487 
L 569.301499 371.8122 
L 568.748892 371.952775 
L 568.192177 372.094312 
L 567.62831 372.237148 
L 567.612346 372.241177 
L 567.056994 372.380888 
L 567.033282 372.386822 
L 566.477929 372.525102 
L 566.446168 372.532955 
L 565.890815 372.669322 
L 565.850702 372.679085 
L 565.29535 372.813042 
L 565.246582 372.824677 
L 564.69123 372.955715 
L 564.633507 372.969156 
L 564.078154 373.096751 
L 564.011178 373.111899 
L 563.455825 373.235518 
L 563.379302 373.25224 
L 562.82395 373.371337 
L 562.737598 373.38946 
L 562.182245 373.503482 
L 562.085793 373.522795 
L 561.53044 373.63118 
L 561.423637 373.651427 
L 560.868285 373.753608 
L 560.750903 373.774488 
L 560.19555 373.869892 
L 560.067393 373.891059 
L 559.51204 373.979111 
L 559.372951 374.00017 
L 558.817598 374.080294 
L 558.667467 374.100803 
L 558.112115 374.172423 
L 557.950892 374.191896 
L 557.395539 374.254437 
L 557.22324 374.272343 
L 556.667888 374.325238 
L 556.484609 374.341008 
L 555.929257 374.383692 
L 555.735183 374.396726 
L 555.179831 374.428645 
L 554.975248 374.438319 
L 554.419895 374.458928 
L 554.205195 374.464606 
L 553.649842 374.473373 
L 553.425535 374.474417 
L 552.870183 374.470825 
L 552.6369 374.466616 
L 552.081547 374.450164 
L 551.840043 374.44011 
L 551.284691 374.410317 
L 551.035843 374.393878 
L 550.480491 374.350284 
L 550.225294 374.326984 
L 549.669941 374.269152 
L 549.409497 374.238602 
L 548.854144 374.166123 
L 548.589647 374.128031 
L 548.034294 374.040523 
L 547.767015 373.994714 
L 547.211662 373.891825 
L 546.942924 373.838249 
L 546.387571 373.719661 
L 546.118727 373.658397 
L 545.563375 373.523826 
L 545.29578 373.455089 
L 544.740428 373.304291 
L 544.475416 373.228425 
L 543.920063 373.061194 
L 543.658916 372.97867 
L 543.103563 372.794841 
L 542.847492 372.706241 
L 542.29214 372.505695 
L 542.042263 372.411701 
L 541.48691 372.194363 
L 541.244237 372.095737 
L 540.688884 371.861581 
L 540.454304 371.759147 
L 539.898951 371.508197 
L 539.673225 371.402819 
L 539.117872 371.135152 
L 538.901634 371.027719 
L 538.346281 370.743464 
L 538.140035 370.63487 
L 537.584682 370.334211 
L 537.388814 370.225338 
L 536.833461 369.908516 
L 536.648242 369.800222 
L 536.092889 369.467537 
L 535.91849 369.360644 
L 535.363138 369.012454 
L 535.199643 368.90774 
L 534.64429 368.544465 
L 534.491708 368.442661 
L 533.936355 368.064779 
L 533.794634 367.966563 
L 533.239281 367.574619 
L 533.108323 367.480616 
L 532.552971 367.075213 
L 532.432646 366.985999 
L 531.877293 366.567806 
L 531.767451 366.483906 
L 531.212098 366.053654 
L 531.112579 365.975548 
L 530.557226 365.534033 
L 530.467876 365.462164 
L 529.912523 365.010243 
L 529.833198 364.945017 
L 529.277845 364.483613 
L 529.208425 364.425407 
L 528.653072 363.955503 
L 528.59347 363.904672 
L 528.038117 363.427312 
L 527.988285 363.384194 
L 527.432932 362.900486 
L 527.392869 362.865405 
L 526.837516 362.376513 
L 526.807281 362.349788 
L 526.251928 361.856936 
L 526.231643 361.838884 
L 525.67629 361.343352 
L 525.666153 361.334294 
L 525.110947 360.837545 
L 524.561288 360.345798 
L 524.022672 359.865361 
L 523.495647 359.398069 
L 522.980889 358.94581 
L 522.479222 358.510519 
L 521.991636 358.094168 
L 521.519309 357.698754 
L 521.063632 357.326276 
L 520.626233 356.978711 
L 520.209003 356.657975 
L 519.814123 356.365877 
L 519.444084 356.104055 
L 519.101699 355.873893 
L 518.7901 355.676419 
L 518.52583 355.519945 
L 518.494922 355.550237 
L 518.224282 355.839425 
L 517.917735 356.194052 
L 517.579587 356.614957 
L 517.213803 357.10216 
L 516.823947 357.655046 
L 516.413174 358.272513 
L 515.984237 358.953086 
L 515.539523 359.695006 
L 515.081086 360.496288 
L 514.610686 361.354767 
L 514.129826 362.268133 
L 513.639788 363.233945 
L 513.14166 364.249651 
L 512.636366 365.312593 
L 512.124688 366.420017 
L 511.607284 367.569072 
L 511.084705 368.756818 
L 510.55741 369.980226 
L 510.025776 371.236185 
L 509.490105 372.521501 
L 508.950631 373.832906 
L 508.407529 375.167061 
L 507.860912 376.520568 
L 507.310835 377.889975 
L 506.757293 379.27179 
L 506.201976 380.658114 
L 505.64311 382.049533 
L 505.635843 382.067575 
L 505.08049 383.442558 
L 505.06922 383.470343 
L 504.513867 384.833633 
L 504.498249 384.871749 
L 503.942897 386.219252 
L 503.922475 386.268434 
L 503.367122 387.595986 
L 503.341302 387.657141 
L 502.78595 388.960516 
L 502.753966 389.034754 
L 502.198613 390.30968 
L 502.15948 390.39835 
L 501.604128 391.640516 
L 501.556582 391.745253 
L 501.00123 392.950323 
L 500.94364 393.073108 
L 500.388287 394.236731 
L 500.318535 394.379958 
L 499.763183 395.497783 
L 499.6785 395.664342 
L 499.123147 396.732029 
L 499.019877 396.925404 
L 498.464524 397.938638 
L 498.337795 398.163002 
L 497.782442 399.117507 
L 497.625689 399.377817 
L 497.070336 400.269366 
L 496.87463 400.571397 
L 496.319277 401.395831 
L 496.072364 401.746075 
L 495.517011 402.499314 
L 495.201991 402.904562 
L 494.646638 403.582617 
L 494.240237 404.048864 
L 493.684884 404.647857 
L 493.155497 405.1779 
L 492.600145 405.694072 
L 491.906446 406.282773 
L 491.351094 406.712504 
L 490.443474 407.338568 
L 489.888122 407.678384 
L 488.71772 408.292924 
L 488.162368 408.539519 
L 487.44315 408.826337 
L 486.704039 409.057102 
L 486.148686 409.207346 
L 485.299628 409.398133 
L 484.437278 409.514976 
L 483.881925 409.565929 
L 482.959912 409.608091 
L 482.037907 409.56574 
L 481.482555 409.51467 
L 480.576738 409.389724 
L 479.685971 409.183207 
L 479.130618 409.0276 
L 478.324648 408.764749 
L 477.543615 408.435104 
L 476.988263 408.172675 
L 476.326798 407.829643 
L 475.69248 407.438686 
L 475.137127 407.067394 
L 474.132877 406.300735 
L 473.577524 405.818796 
L 472.82043 405.089174 
L 472.265077 404.495068 
L 471.69975 403.835475 
L 471.144397 403.127962 
L 470.721464 402.547733 
L 470.166111 401.725861 
L 469.847046 401.222177 
L 469.291693 400.285291 
L 469.048181 399.85031 
L 468.492829 398.798065 
L 468.304578 398.422636 
L 467.749226 397.254999 
L 467.601795 396.930342 
L 467.046443 395.647605 
L 466.929527 395.365946 
L 466.374174 393.96873 
L 466.280363 393.723447 
L 465.72501 392.212712 
L 465.648915 391.998267 
L 465.093563 390.37531 
L 465.031226 390.187115 
L 464.475873 388.453582 
L 464.424347 388.287845 
L 463.868994 386.445729 
L 463.826061 386.299317 
L 463.270708 384.350962 
L 463.234679 384.221283 
L 462.679326 382.169386 
L 462.648902 382.054284 
L 462.093549 379.901895 
L 462.06772 379.799577 
L 461.512367 377.550097 
L 461.490341 377.459062 
L 460.934988 375.116243 
L 460.916139 375.035236 
L 460.360786 372.603176 
L 460.344614 372.531139 
L 459.789261 370.014281 
L 459.775367 369.950327 
L 459.220015 367.353449 
L 459.208076 367.29683 
L 458.652724 364.625045 
L 458.642481 364.575132 
L 458.087128 361.833875 
L 458.078369 361.790142 
L 457.523016 358.985164 
L 457.51557 358.947174 
L 456.960218 356.084533 
L 456.953947 356.051925 
L 456.398595 353.137974 
L 456.39339 353.110456 
L 455.838037 350.151831 
L 455.833811 350.129175 
L 455.278459 347.132782 
L 455.275146 347.114817 
L 454.719793 344.087818 
L 454.717346 344.074427 
L 454.161993 341.024227 
L 453.605028 337.949573 
L 453.048897 334.871762 
L 452.493993 331.80102 
L 451.939946 328.743484 
L 451.386802 325.707691 
L 450.834629 322.702384 
L 450.283518 319.736492 
L 449.733595 316.819128 
L 449.185022 313.959581 
L 448.638009 311.167319 
L 448.378441 309.874509 
L 447.946058 312.689283 
L 447.400604 316.419715 
L 446.853566 320.334265 
L 446.305236 324.424334 
L 445.755841 328.680948 
L 445.205559 333.094729 
L 444.654529 337.65588 
L 444.102861 342.354179 
L 443.550643 347.178982 
L 442.997947 352.119223 
L 442.444828 357.163433 
L 441.891332 362.299754 
L 441.337493 367.515958 
L 440.78334 372.799469 
L 440.228893 378.13739 
L 439.674166 383.516533 
L 439.119169 388.923447 
L 438.563927 394.344225 
L 438.008528 399.764122 
L 437.452856 405.170168 
L 436.896902 410.5482 
L 436.340648 415.883976 
L 436.339423 415.895659 
L 435.784071 421.16322 
L 435.78249 421.17811 
L 435.227137 426.371668 
L 435.225157 426.390026 
L 434.669804 431.495117 
L 434.66737 431.517268 
L 434.112017 436.519472 
L 434.109056 436.545826 
L 433.553704 441.430809 
L 433.550123 441.461871 
L 432.994771 446.215426 
L 432.990451 446.251829 
L 432.435098 450.859917 
L 432.42988 450.902451 
L 431.874528 455.351245 
L 431.868203 455.400903 
L 431.312851 459.676827 
L 431.30514 459.734873 
L 430.749788 463.824643 
L 430.74031 463.892699 
L 430.184957 467.783367 
L 430.173184 467.863543 
L 429.617831 471.542535 
L 429.603013 471.637623 
L 429.04766 475.092777 
L 429.028707 475.206536 
L 428.473355 478.426147 
L 428.448636 478.563749 
L 427.893283 481.536601 
L 427.860269 481.705341 
L 427.304917 484.420749 
L 427.259524 484.631222 
L 426.704171 487.079064 
L 426.639471 487.347188 
L 426.084119 489.517944 
L 425.987641 489.868584 
L 425.432289 491.753367 
L 425.279894 492.227106 
L 424.724542 493.817693 
L 424.46514 494.483762 
L 423.909787 495.772628 
L 423.423076 496.752211 
L 422.867724 497.732556 
L 422.386242 498.499911 
L 421.837812 499.220939 
L 421.282459 499.886716 
L 420.554713 500.670571 
L 419.748006 501.372899 
L 418.871421 501.985794 
L 418.316068 502.331731 
L 417.402378 502.837166 
L 416.441302 503.245367 
L 415.443155 503.551956 
L 414.418647 503.753643 
L 413.378772 503.848262 
L 412.823419 503.86989 
L 411.911522 503.864121 
L 411.003877 503.775964 
L 410.107915 503.606138 
L 409.230966 503.356035 
L 408.38021 503.027701 
L 407.562608 502.623823 
L 407.007255 502.317492 
L 406.255037 501.858588 
L 405.54577 501.335743 
L 404.884874 500.752955 
L 404.277399 500.114676 
L 403.722047 499.477579 
L 403.107823 498.698667 
L 402.573132 497.863154 
L 402.01778 496.893341 
L 401.491552 495.834925 
L 400.936199 494.531315 
L 400.663745 493.817972 
L 400.108392 492.180371 
L 399.952214 491.676926 
L 399.396862 489.706031 
L 399.300029 489.335565 
L 398.744676 487.032974 
L 398.680893 486.750812 
L 398.12554 484.119027 
L 398.081484 483.898047 
L 397.526131 480.940478 
L 397.494523 480.763457 
L 396.93917 477.484418 
L 396.915783 477.339969 
L 396.360431 473.744678 
L 396.34268 473.625005 
L 395.787327 469.719575 
L 395.773565 469.619176 
L 395.218212 465.41061 
L 395.207349 465.325499 
L 394.651997 460.821676 
L 394.643292 460.748902 
L 394.087939 455.958563 
L 394.080873 455.895898 
L 393.52552 450.82863 
L 393.519721 450.774363 
L 392.964369 445.440581 
L 392.959566 445.393377 
L 392.404213 439.804302 
L 392.400206 439.763108 
L 391.844853 433.930742 
L 391.841488 433.894718 
L 391.286135 427.831815 
L 391.283297 427.800287 
L 390.727945 421.520328 
L 390.725544 421.492746 
L 390.170191 415.009908 
L 390.168157 414.985825 
L 389.612805 408.314942 
L 389.611082 408.293992 
L 389.05573 401.450523 
L 389.054276 401.432406 
L 388.498923 394.432398 
L 388.497703 394.416868 
L 387.942351 387.276913 
L 387.941337 387.263769 
L 387.385984 380.000965 
L 387.385155 379.990045 
L 386.829803 372.621949 
L 386.273789 365.157711 
L 385.71793 357.626493 
L 385.162217 350.046888 
L 384.606643 342.43778 
L 384.051229 334.81864 
L 383.495995 327.209046 
L 382.940899 319.627885 
L 382.385949 312.094719 
L 381.831154 304.629143 
L 381.276528 297.250739 
L 380.722087 289.979024 
L 380.167855 282.833402 
L 379.613861 275.833112 
L 379.060143 268.997191 
L 378.506749 262.344429 
L 377.953743 255.893334 
L 377.673573 252.733732 
L 377.492827 254.861222 
L 376.940002 261.632973 
L 376.386767 268.657838 
L 375.833196 275.91782 
L 375.279342 283.394382 
L 374.725248 291.068477 
L 374.170948 298.920589 
L 373.616469 306.93077 
L 373.061831 315.078683 
L 372.50705 323.343658 
L 371.95214 331.704736 
L 371.397109 340.140726 
L 370.841964 348.630261 
L 370.28671 357.151852 
L 369.731379 365.683461 
L 369.175963 374.203676 
L 368.620438 382.691325 
L 368.064802 391.125013 
L 367.509047 399.48352 
L 366.953165 407.745864 
L 366.397146 415.891354 
L 366.396327 415.903251 
L 365.840975 423.899659 
L 365.839983 423.913787 
L 365.284631 431.750863 
L 365.283443 431.767429 
L 364.728091 439.42553 
L 364.726675 439.444787 
L 364.171323 446.904761 
L 364.169641 446.927024 
L 363.614288 454.170263 
L 363.612288 454.195915 
L 363.056936 461.204405 
L 363.054553 461.233922 
L 362.499201 467.990294 
L 362.49635 468.024263 
L 361.940998 474.511839 
L 361.937569 474.550998 
L 361.382216 480.753834 
L 361.378059 480.799112 
L 360.822707 486.702044 
L 360.817621 486.754629 
L 360.262268 492.34331 
L 360.255974 492.40474 
L 359.700621 497.665683 
L 359.692725 497.737981 
L 359.137372 502.658588 
L 359.127307 502.744467 
L 358.571954 507.313067 
L 358.558872 507.41624 
L 358.003519 511.622117 
L 357.986118 511.747802 
L 357.430766 515.581224 
L 357.406959 515.736968 
L 356.851606 519.189208 
L 356.817886 519.386329 
L 356.262534 522.449691 
L 356.212654 522.705887 
L 355.657301 525.373723 
L 355.57929 525.718129 
L 355.023937 527.984851 
L 354.892627 528.468458 
L 354.337275 530.329556 
L 354.093046 531.048104 
L 353.537693 532.500153 
L 353.01573 533.645054 
L 352.460378 534.685718 
L 351.846029 535.690749 
L 351.118629 536.617248 
L 350.563277 537.245286 
L 349.892958 537.934155 
L 349.160075 538.556047 
L 348.37129 539.105307 
L 347.533776 539.576941 
L 346.655148 539.96666 
L 346.099796 540.181924 
L 345.12945 540.502487 
L 344.131633 540.723155 
L 343.116602 540.841658 
L 342.094788 540.85678 
L 341.076695 540.768364 
L 340.072786 540.577319 
L 339.093379 540.285609 
L 338.538026 540.089041 
L 337.626076 539.715139 
L 336.755002 539.253961 
L 335.933132 538.709915 
L 335.168324 538.088203 
L 334.467891 537.394769 
L 333.912539 536.788398 
L 333.15081 535.849312 
L 332.507011 534.825771 
L 331.951658 533.812698 
L 331.406942 532.648566 
L 330.851589 531.232956 
L 330.597381 530.504027 
L 330.042028 528.69109 
L 329.905486 528.201619 
L 329.350134 525.997594 
L 329.269002 525.6497 
L 328.713649 523.061834 
L 328.661732 522.803492 
L 328.106379 519.840014 
L 328.07124 519.641565 
L 327.515887 516.311659 
L 327.491043 516.155117 
L 326.93569 512.468896 
L 326.917505 512.34278 
L 326.362152 508.311249 
L 326.348461 508.207912 
L 325.793108 503.842938 
L 325.782561 503.757101 
L 325.227209 499.071375 
L 325.218928 498.999285 
L 324.663575 494.006281 
L 324.656969 493.945199 
L 324.101617 488.659136 
L 324.096279 488.607022 
L 323.540926 483.042819 
L 323.536566 482.998123 
L 322.981213 477.171355 
L 322.977621 477.132884 
L 322.422268 471.059736 
L 322.419289 471.026556 
L 321.863936 464.723775 
L 321.861455 464.695147 
L 321.306102 458.179994 
L 321.30403 458.15533 
L 320.748678 451.445526 
L 320.746948 451.424352 
L 320.191595 444.538031 
L 320.190155 444.519967 
L 319.634802 437.475619 
L 319.633611 437.460357 
L 319.078258 430.27678 
L 319.077283 430.26407 
L 318.521931 422.960312 
L 318.521149 422.949953 
L 317.965796 415.545262 
L 317.409834 408.05086 
L 316.854031 400.496462 
L 316.298376 392.901489 
L 315.742861 385.285369 
L 315.187538 377.668236 
L 314.632363 370.068794 
L 314.077326 362.506005 
L 313.522432 354.998798 
L 312.96769 347.565847 
L 312.413112 340.225522 
L 311.858713 332.995844 
L 311.304513 325.894444 
L 310.750537 318.938519 
L 310.196818 312.144799 
L 309.643397 305.529511 
L 309.090324 299.108351 
L 308.537664 292.89646 
L 307.985502 286.908409 
L 307.433943 281.158185 
L 306.975536 276.581758 
L 306.928356 276.975538 
L 306.376814 281.720845 
L 305.824616 286.599965 
L 305.271863 291.598117 
L 304.718634 296.700509 
L 304.164988 301.892357 
L 303.610973 307.15891 
L 303.056625 312.48548 
L 302.501969 317.857474 
L 301.947026 323.260424 
L 301.391807 328.680015 
L 300.836453 334.10085 
L 300.280831 339.510341 
L 299.724941 344.894857 
L 299.168774 350.241061 
L 299.167672 350.251604 
L 298.612319 355.53595 
L 298.61091 355.549275 
L 298.055557 360.766887 
L 298.053816 360.783122 
L 297.498463 365.921632 
L 297.496357 365.940945 
L 296.941005 370.988377 
L 296.938492 371.010977 
L 296.38314 375.955777 
L 296.380169 375.981922 
L 295.824816 380.81298 
L 295.821321 380.842989 
L 295.265968 385.549664 
L 295.261867 385.58392 
L 294.706514 390.156067 
L 294.701704 390.195035 
L 294.146351 394.62302 
L 294.140703 394.66726 
L 293.585351 398.941985 
L 293.578702 398.992178 
L 293.023349 403.105092 
L 293.01549 403.162067 
L 292.460138 407.105188 
L 292.450801 407.169958 
L 291.895448 410.935881 
L 291.884283 411.009697 
L 291.328931 414.591609 
L 291.315476 414.676023 
L 290.760123 418.067712 
L 290.743761 418.164673 
L 290.188408 421.360536 
L 290.168297 421.472517 
L 289.612945 424.467565 
L 289.58792 424.597743 
L 289.032568 427.387608 
L 289.000982 427.540118 
L 288.445629 430.121051 
L 288.405097 430.301366 
L 287.849745 432.670242 
L 287.79672 432.88572 
L 287.241367 435.040034 
L 287.170418 435.300751 
L 286.615065 437.238615 
L 286.51758 437.558631 
L 285.962228 439.278769 
L 285.824017 439.678039 
L 285.268664 441.179784 
L 285.06531 441.686977 
L 284.509958 442.970256 
L 284.197465 443.626384 
L 283.642113 444.691716 
L 283.137729 445.55247 
L 282.582377 446.400948 
L 281.727026 447.526713 
L 281.171673 448.159994 
L 280.459159 448.893788 
L 279.675951 449.551599 
L 279.120599 449.971893 
L 278.327167 450.514864 
L 277.485614 450.979774 
L 276.603597 451.362393 
L 276.048244 451.57244 
L 275.195926 451.852131 
L 274.322117 452.054941 
L 273.433738 452.179264 
L 272.537824 452.224114 
L 271.982472 452.227173 
L 271.097752 452.193162 
L 270.219429 452.081649 
L 269.354279 451.893493 
L 268.508978 451.630146 
L 267.953625 451.429975 
L 267.093063 451.074069 
L 266.269019 450.640262 
L 265.488527 450.132257 
L 264.933174 449.733096 
L 264.163001 449.120362 
L 263.456252 448.435441 
L 262.9009 447.841986 
L 262.040332 446.78796 
L 261.484979 446.005348 
L 260.966252 445.195001 
L 260.4109 444.228783 
L 260.082379 443.608127 
L 259.527027 442.464249 
L 259.308729 441.982885 
L 258.753376 440.667661 
L 258.602093 440.288093 
L 258.046741 438.808184 
L 257.938109 438.50397 
L 257.382757 436.866355 
L 257.302402 436.618955 
L 256.747049 434.830908 
L 256.686122 434.627181 
L 256.130769 432.696245 
L 256.083612 432.526728 
L 255.52826 430.460688 
L 255.491135 430.318445 
L 254.935782 428.125303 
L 254.906143 428.005163 
L 254.350791 425.693112 
L 254.326862 425.591161 
L 253.771509 423.168553 
L 253.752021 423.081786 
L 253.196669 420.557113 
L 253.180699 420.483194 
L 252.625346 417.865056 
L 252.612212 417.80215 
L 252.05686 415.099233 
L 252.046048 415.045884 
L 251.490696 412.26693 
L 251.481819 412.221979 
L 250.926466 409.375762 
L 250.919227 409.33828 
L 250.363874 406.433581 
L 250.358043 406.402822 
L 249.80269 403.448403 
L 249.798091 403.423768 
L 249.242738 400.428351 
L 249.239237 400.409363 
L 248.683884 397.381601 
L 248.681378 397.367886 
L 248.126026 394.316345 
L 247.569088 391.240745 
L 247.013077 388.163236 
L 246.458253 385.093445 
L 245.904248 382.037322 
L 245.351073 379.002661 
L 244.798752 375.997098 
L 244.247328 373.028095 
L 243.696861 370.102921 
L 243.14743 367.228648 
L 242.599139 364.412131 
L 242.052114 361.660012 
L 241.506516 358.978706 
L 240.962543 356.374407 
L 240.420439 353.853091 
L 239.880504 351.420519 
L 239.343113 349.082256 
L 238.808731 346.843687 
L 238.277942 344.710042 
L 237.75148 342.686436 
L 237.230282 340.777909 
L 236.715548 338.989493 
L 236.315019 337.674817 
L 236.172229 337.995786 
L 235.651109 339.197195 
L 235.12352 340.439813 
L 234.590298 341.718186 
L 234.052087 343.027126 
L 233.509389 344.361687 
L 232.962581 345.717153 
L 232.411944 347.089022 
L 231.858021 348.472128 
L 231.301969 349.8598 
L 231.297795 349.8702 
L 230.742443 351.251677 
L 230.734818 351.270589 
L 230.179465 352.644031 
L 230.168353 352.671399 
L 229.613 354.033344 
L 229.598305 354.069185 
L 229.042952 355.4163 
L 229.024521 355.460708 
L 228.469168 356.789796 
L 228.446785 356.842935 
L 227.891433 358.150939 
L 227.864819 358.213042 
L 227.309466 359.497052 
L 227.278269 359.568423 
L 226.722917 360.825679 
L 226.686707 360.906688 
L 226.131354 362.134584 
L 226.08961 362.225671 
L 225.534257 363.421758 
L 225.486358 363.523433 
L 224.931005 364.685421 
L 224.876211 364.79826 
L 224.320858 365.924022 
L 224.258294 366.048667 
L 223.702941 367.13624 
L 223.631575 367.273393 
L 223.076222 368.320978 
L 222.994838 368.471399 
L 222.439485 369.47736 
L 222.346655 369.64185 
L 221.791303 370.604718 
L 221.685355 370.784101 
L 221.130002 371.702572 
L 221.008981 371.897669 
L 220.453629 372.7706 
L 220.31526 372.982188 
L 219.759908 373.808599 
L 219.601559 374.037352 
L 219.046207 374.816424 
L 218.864855 375.062833 
L 218.309502 375.793904 
L 218.101712 376.058172 
L 217.54636 376.740735 
L 217.308288 377.022639 
L 216.752935 377.656337 
L 216.480369 377.955049 
L 215.925017 378.539677 
L 215.613475 378.853555 
L 215.058123 379.38905 
L 214.703039 379.71541 
L 214.147686 380.20185 
L 213.744703 380.536724 
L 213.189351 380.974324 
L 212.734749 381.312271 
L 212.179396 381.701375 
L 211.670652 382.035389 
L 211.115299 382.376469 
L 210.551745 382.698076 
L 209.996392 382.991724 
L 209.379895 383.291339 
L 208.824542 383.538263 
L 208.160045 383.805857 
L 207.604693 384.006875 
L 206.900467 384.232922 
L 206.345114 384.388956 
L 205.612531 384.565527 
L 205.057179 384.677597 
L 204.309962 384.799382 
L 203.75461 384.868602 
L 203.007636 384.933604 
L 202.452284 384.961172 
L 201.720167 384.970891 
L 201.164814 384.958086 
L 200.460575 384.917158 
L 199.905223 384.865333 
L 199.239321 384.780745 
L 198.683969 384.691319 
L 198.063818 384.571414 
L 197.508466 384.445869 
L 196.938433 384.299389 
L 196.383081 384.13926 
L 195.86484 383.974567 
L 195.309487 383.781438 
L 194.84257 383.605998 
L 194.287217 383.381497 
L 193.869613 383.201619 
L 193.31426 382.947408 
L 192.942969 382.768177 
L 192.387616 382.48595 
L 192.059101 382.311298 
L 191.503748 382.002772 
L 191.214275 381.835615 
L 190.658922 381.502526 
L 190.404797 381.344935 
L 189.849444 380.989031 
L 189.62716 380.8424 
L 189.071807 380.465438 
L 188.878131 380.330636 
L 188.322778 379.934373 
L 188.154792 379.811875 
L 187.59944 379.398064 
L 187.454551 379.288056 
L 186.899198 378.858443 
L 186.775129 378.760903 
L 186.219777 378.31722 
L 186.114547 378.231985 
L 185.559194 377.775946 
L 185.471096 377.70276 
L 184.915743 377.236055 
L 184.843313 377.174602 
L 184.28796 376.698897 
L 184.229956 376.648828 
L 183.674604 376.165755 
L 183.629979 376.126707 
L 183.074626 375.637866 
L 183.042507 375.609472 
L 182.487154 375.116424 
L 182.466819 375.098321 
L 181.911467 374.602584 
L 181.902331 374.594418 
L 181.347777 374.098181 
L 180.799204 373.607506 
L 180.260865 373.127525 
L 179.732535 372.659241 
L 179.214068 372.203604 
L 178.705386 371.761508 
L 178.206471 371.333786 
L 177.717354 370.921199 
L 177.238112 370.524432 
L 176.768854 370.144088 
L 176.309716 369.78068 
L 175.86085 369.434624 
L 175.422414 369.106237 
L 174.994562 368.795726 
L 174.577431 368.503189 
L 174.17113 368.228611 
L 173.775726 367.97186 
L 173.391231 367.732693 
L 173.017586 367.510752 
L 172.654649 367.305577 
L 172.302181 367.116608 
L 171.959835 366.943201 
L 171.627144 366.784637 
L 171.303517 366.640147 
L 170.988235 366.50892 
L 170.680448 366.390133 
L 170.379187 366.282968 
L 170.083367 366.186634 
L 169.791807 366.100388 
L 169.503247 366.02355 
L 169.216367 365.955521 
L 168.92982 365.895793 
L 168.642251 365.843952 
L 168.352324 365.799685 
L 168.058753 365.762771 
L 167.760315 365.733078 
L 167.45588 365.710552 
L 167.144417 365.6952 
L 166.825011 365.687081 
L 166.496868 365.686287 
L 166.159317 365.692926 
L 165.811809 365.707112 
L 165.453915 365.728949 
L 165.085313 365.758518 
L 164.705789 365.795874 
L 164.315218 365.84103 
L 163.913558 365.893959 
L 163.500839 365.954589 
L 163.077152 366.022801 
L 162.642639 366.098427 
L 162.197484 366.181255 
L 161.741904 366.271029 
L 161.276144 366.367452 
L 160.800469 366.470189 
L 160.315157 366.578873 
L 159.820498 366.693107 
L 159.316788 366.812468 
L 158.804329 366.93651 
L 158.283421 367.064774 
L 157.754368 367.196782 
L 157.21747 367.332049 
L 156.673028 367.470083 
L 156.121339 367.610387 
L 155.566044 367.751616 
L 155.004003 367.894153 
L 154.990805 367.897491 
L 154.435452 368.037532 
L 154.416036 368.042407 
L 153.860683 368.181275 
L 153.835341 368.187577 
L 153.279988 368.324918 
L 153.249011 368.332527 
L 152.693658 368.468004 
L 152.657336 368.476793 
L 152.101984 368.610091 
L 152.06061 368.619929 
L 151.505257 368.750751 
L 151.459124 368.761504 
L 150.903772 368.889574 
L 150.853173 368.901106 
L 150.29782 369.026169 
L 150.243052 369.038342 
L 149.687699 369.160161 
L 149.629058 369.172842 
L 149.073705 369.2912 
L 149.011489 369.304255 
L 148.456136 369.418957 
L 148.390645 369.432258 
L 147.835293 369.543126 
L 147.766827 369.556548 
L 147.211474 369.663425 
L 147.140335 369.676851 
L 146.584983 369.779597 
L 146.511471 369.792916 
L 145.956118 369.891411 
L 145.880534 369.90452 
L 145.325182 369.998661 
L 145.247824 370.011465 
L 144.692471 370.101168 
L 144.613635 370.113582 
L 144.058283 370.198779 
L 143.978261 370.210727 
L 143.422909 370.291367 
L 143.34199 370.302782 
L 142.786637 370.37883 
L 142.705103 370.389656 
L 142.149751 370.461093 
L 142.067878 370.471284 
L 141.512525 370.538105 
L 141.430582 370.547624 
L 140.875229 370.609838 
L 140.793475 370.618659 
L 140.238123 370.676291 
L 140.156808 370.684396 
L 139.601456 370.73748 
L 139.520821 370.744861 
L 138.965468 370.793447 
L 138.885742 370.800103 
L 138.330389 370.84425 
L 138.251788 370.850189 
L 137.696436 370.889969 
L 137.619164 370.895205 
L 137.063812 370.930698 
L 136.988061 370.935253 
L 136.432709 370.96655 
L 136.358657 370.97045 
L 135.803304 370.99765 
L 135.731115 371.000926 
L 135.175762 371.024136 
L 135.105587 371.026824 
L 134.550234 371.04616 
L 134.482207 371.048298 
L 133.926855 371.06388 
L 133.8611 371.065511 
L 133.305747 371.077466 
L 133.242372 371.078632 
L 132.68702 371.087094 
L 132.62612 371.087838 
L 132.070767 371.092945 
L 132.012424 371.093312 
L 131.457071 371.095204 
L 131.401352 371.09524 
L 130.846 371.094062 
L 130.792962 371.09381 
L 130.237609 371.08971 
L 130.187296 371.089213 
L 129.631943 371.08234 
L 129.584386 371.08164 
L 129.029034 371.072146 
L 128.984254 371.071281 
L 128.428902 371.059319 
L 128.38691 371.058327 
L 127.831557 371.04405 
L 127.792354 371.042965 
L 127.237001 371.026526 
L 127.200577 371.025381 
L 126.645224 371.006932 
L 126.61156 371.005757 
L 126.056207 370.98545 
L 126.025278 370.984271 
L 125.469926 370.962256 
L 125.441697 370.961097 
L 124.886344 370.937522 
L 124.860775 370.936404 
L 124.305422 370.911417 
L 124.282464 370.910358 
L 123.727111 370.884101 
L 123.70671 370.883116 
L 123.151358 370.855732 
L 123.133454 370.854833 
L 122.578102 370.826459 
L 122.562632 370.825657 
L 122.007279 370.796427 
L 121.994173 370.795728 
L 121.438821 370.765773 
L 121.428005 370.765184 
L 120.872653 370.73463 
L 120.308698 370.703123 
L 119.746877 370.671372 
L 119.187107 370.639489 
L 118.629301 370.607581 
L 118.073978 370.575782 
L 117.520686 370.544167 
L 116.969046 370.512806 
L 116.418965 370.481781 
L 115.870352 370.451169 
L 115.323114 370.42104 
L 114.777158 370.391459 
L 114.232393 370.362486 
L 113.688727 370.334176 
L 113.146069 370.306578 
L 112.604331 370.279739 
L 112.063423 370.253697 
L 111.52326 370.228489 
L 110.983757 370.204146 
L 110.444831 370.180695 
L 109.906401 370.15816 
L 109.36839 370.136561 
L 108.830721 370.115912 
L 108.293322 370.096227 
L 107.756121 370.077514 
L 107.219052 370.059779 
L 106.682048 370.043024 
L 106.145049 370.027249 
L 105.607995 370.012451 
L 105.070831 369.998624 
L 104.533504 369.985759 
L 103.995965 369.973846 
L 103.458168 369.962872 
L 102.920069 369.952823 
L 102.381629 369.94368 
L 101.842811 369.935426 
L 101.30358 369.928039 
L 100.763908 369.921499 
L 100.223765 369.915781 
L 99.683128 369.91086 
L 99.141975 369.906712 
L 98.600287 369.903308 
L 98.058048 369.900621 
L 97.515244 369.898623 
L 96.971865 369.897284 
L 96.427902 369.896574 
L 95.883349 369.896462 
L 95.338202 369.896918 
L 94.792461 369.897911 
L 94.246124 369.899411 
L 93.699196 369.901384 
L 93.151679 369.903802 
L 92.603581 369.906632 
L 92.054908 369.909845 
L 91.50567 369.913409 
L 90.955877 369.917295 
L 90.405542 369.921473 
L 89.854677 369.925915 
L 89.303296 369.930593 
L 88.751415 369.935478 
L 88.199048 369.940544 
L 87.646214 369.945765 
L 87.092929 369.951116 
L 86.539211 369.956573 
L 85.985079 369.962112 
L 85.430551 369.967711 
L 84.875647 369.973349 
L 84.320427 369.979004 
L 83.764992 369.984657 
L 83.209228 369.990291 
L 82.653157 369.995888 
L 82.096797 370.001433 
L 81.540167 370.00691 
L 80.983287 370.012305 
L 80.426176 370.017605 
L 79.868853 370.022798 
L 79.311336 370.027873 
L 78.753644 370.03282 
L 78.195793 370.037631 
L 77.637802 370.042296 
L 77.079686 370.04681 
L 76.521463 370.051166 
L 75.963148 370.055358 
L 75.404756 370.059383 
L 74.846301 370.063236 
L 74.287799 370.066915 
L 73.729261 370.070417 
L 73.170701 370.073742 
L 72.61213 370.076889 
L 72.05356 370.079858 
L 71.065304 370.03657 
L 70.086049 369.896625 
L 69.125226 369.66137 
L 68.192089 369.333071 
L 67.295624 368.914889 
L 66.444465 368.410852 
L 65.646809 367.825814 
L 64.910337 367.165409 
L 64.242143 366.435997 
L 63.648661 365.644603 
L 63.135607 364.798848 
L 62.707922 363.906878 
L 62.369725 362.977282 
L 62.124273 362.019014 
L 61.973929 361.041301 
L 61.920142 360.05356 
L 61.96343 359.065304 
L 62.103375 358.086049 
L 62.33863 357.125226 
L 62.666929 356.192089 
L 63.085111 355.295624 
L 63.589148 354.444465 
L 64.174186 353.646809 
L 64.834591 352.910337 
L 65.564003 352.242143 
L 66.355397 351.648661 
L 67.201152 351.135607 
L 68.093122 350.707922 
L 69.022718 350.369725 
L 69.980986 350.124273 
L 70.958699 349.973929 
L 71.94644 349.920142 
L 72.500184 349.9172 
" style="fill:#29af7f;stroke:#000000;stroke-linejoin:miter;stroke-width:1.618034;"/>
   </g>
  </g>
 </g>
 <defs>
  <clipPath id="ped94ca8a84">
   <rect height="720" width="720" x="0" y="0"/>
  </clipPath>
 </defs>
</svg>
